<svg width="24" height="25" viewBox="0 0 24 25" fill="none" xmlns="http://www.w3.org/2000/svg">
<g id="fluent:chevron-up-12-filled">
<path id="Vector" d="M4.43966 6.94034C4.72091 6.65944 5.10216 6.50166 5.49966 6.50166C5.89716 6.50166 6.27841 6.65944 6.55966 6.94034L11.9997 12.3803L17.4397 6.94034C17.724 6.67538 18.1001 6.53114 18.4887 6.53799C18.8773 6.54485 19.2481 6.70227 19.5229 6.9771C19.7977 7.25193 19.9552 7.6227 19.962 8.0113C19.9689 8.3999 19.8246 8.77599 19.5597 9.06034L13.0597 15.5603C12.7784 15.8412 12.3972 15.999 11.9997 15.999C11.6022 15.999 11.2209 15.8412 10.9397 15.5603L4.43966 9.06034C4.15876 8.77909 4.00098 8.39784 4.00098 8.00034C4.00098 7.60284 4.15876 7.22159 4.43966 6.94034Z" fill="#0075FF"/>
</g>
</svg>
