<svg aria-hidden="true" xmlns="http://www.w3.org/2000/svg" xmlns:xlink="http://www.w3.org/1999/xlink"><symbol viewBox="0 0 45 45" id="arrow-btn" xmlns="http://www.w3.org/2000/svg">
<path d="M35.4531 28.6447C35.187 28.9107 34.8229 29.0788 34.4028 29.0788C33.5906 29.0788 32.9184 28.4066 32.9184 27.5944L32.9184 12.0781L17.4022 12.0782C16.5899 12.0782 15.9178 11.406 15.9178 10.5938C15.9178 9.78153 16.5899 9.10935 17.4022 9.10935L34.4028 9.10932C35.215 9.10932 35.8872 9.7815 35.8872 10.5937L35.8872 27.5944C35.8872 28.0145 35.7191 28.3786 35.4531 28.6447Z"/>
<path d="M35.2164 11.8808L11.6479 35.4492C11.0738 36.0234 10.1215 36.0234 9.54736 35.4492C8.9732 34.8751 8.9732 33.9228 9.54736 33.3486L33.1158 9.78021C33.6899 9.20605 34.6422 9.20605 35.2164 9.78021C35.7905 10.3544 35.7905 11.3066 35.2164 11.8808Z"/>
</symbol><symbol viewBox="0 0 29 29" id="arrow-link" xmlns="http://www.w3.org/2000/svg">
<path d="M22.8473 18.46C22.6759 18.6314 22.4412 18.7397 22.1705 18.7397C21.6471 18.7397 21.2139 18.3065 21.2139 17.7831L21.2139 7.78375L11.2145 7.78377C10.6911 7.78377 10.2579 7.35058 10.2579 6.82715C10.2579 6.30372 10.6911 5.87053 11.2145 5.87053L22.1705 5.87051C22.6939 5.87051 23.1271 6.3037 23.1271 6.82713L23.1271 17.7831C23.1271 18.0538 23.0188 18.2885 22.8473 18.46Z"/>
<path d="M22.6947 7.65652L7.50614 22.8451C7.13613 23.2151 6.52245 23.2151 6.15244 22.8451C5.78243 22.4751 5.78243 21.8614 6.15244 21.4914L21.341 6.30282C21.711 5.93281 22.3247 5.93281 22.6947 6.30282C23.0647 6.67283 23.0647 7.28651 22.6947 7.65652Z"/>
</symbol><symbol viewBox="0 0 42 42" id="arrow-slider" xmlns="http://www.w3.org/2000/svg">
<path d="M17.3967 11.9913C17.6478 11.9913 17.899 12.0786 18.0973 12.2656C18.4806 12.6271 18.4806 13.2254 18.0973 13.5869L10.7741 20.4929L18.0973 27.3988C18.4806 27.7603 18.4806 28.3587 18.0973 28.7202C17.7139 29.0817 17.0794 29.0817 16.6961 28.7202L8.67227 21.1536C8.28893 20.7921 8.28893 20.1937 8.67227 19.8322L16.6961 12.2656C16.8944 12.0786 17.1455 11.9913 17.3967 11.9913Z"/>
<path d="M10.468 19.9203L31.5858 19.9203C32.1003 19.9203 32.5269 20.3736 32.5269 20.9203C32.5269 21.467 32.1003 21.9203 31.5858 21.9203L10.468 21.9203C9.95354 21.9203 9.52691 21.467 9.52691 20.9203C9.52691 20.3736 9.95354 19.9203 10.468 19.9203Z"/>
</symbol><symbol viewBox="0 0 42 42" id="arrow1" xmlns="http://www.w3.org/2000/svg">
    <path d="M17.3967 11.9913C17.6478 11.9913 17.899 12.0786 18.0973 12.2656C18.4806 12.6271 18.4806 13.2254 18.0973 13.5869L10.7741 20.4929L18.0973 27.3988C18.4806 27.7603 18.4806 28.3587 18.0973 28.7202C17.7139 29.0817 17.0794 29.0817 16.6961 28.7202L8.67227 21.1536C8.28893 20.7921 8.28893 20.1937 8.67227 19.8322L16.6961 12.2656C16.8944 12.0786 17.1455 11.9913 17.3967 11.9913Z"/>
    <path d="M10.468 19.9203L31.5858 19.9203C32.1003 19.9203 32.5269 20.3736 32.5269 20.9203C32.5269 21.467 32.1003 21.9203 31.5858 21.9203L10.468 21.9203C9.95354 21.9203 9.52691 21.467 9.52691 20.9203C9.52691 20.3736 9.95354 19.9203 10.468 19.9203Z"/>
</symbol><symbol viewBox="0 0 42 42" id="arrow2" xmlns="http://www.w3.org/2000/svg">
    <path d="M24.1102 29.0205C23.859 29.0205 23.6079 28.9332 23.4096 28.7463C23.0262 28.3848 23.0262 27.7864 23.4096 27.4249L30.7328 20.5189L23.4096 13.613C23.0262 13.2515 23.0262 12.6531 23.4096 12.2916C23.7929 11.9301 24.4274 11.9301 24.8108 12.2916L32.8346 19.8583C33.2179 20.2198 33.2179 20.8181 32.8346 21.1796L24.8108 28.7463C24.6125 28.9332 24.3613 29.0205 24.1102 29.0205Z"/>
    <path d="M31.0384 21.0918H9.92057C9.40612 21.0918 8.97949 20.6385 8.97949 20.0918C8.97949 19.5451 9.40612 19.0918 9.92057 19.0918H31.0384C31.5529 19.0918 31.9795 19.5451 31.9795 20.0918C31.9795 20.6385 31.5529 21.0918 31.0384 21.0918Z"/>
</symbol><symbol viewBox="0 0 32 32" id="circle-arrow" xmlns="http://www.w3.org/2000/svg">
    <rect x="31.5" y="0.5" width="31" height="31" rx="15.5" transform="rotate(90 31.5 0.5)"/>
    <path d="M17.103 23.1413C16.9977 23.0358 16.9385 22.8928 16.9385 22.7438C16.9385 22.5947 16.9977 22.4518 17.103 22.3463L22.8921 16.5563H7.7505C7.60131 16.5563 7.45824 16.497 7.35275 16.3915C7.24726 16.286 7.188 16.143 7.188 15.9938C7.188 15.8446 7.24726 15.7015 7.35275 15.596C7.45824 15.4905 7.60131 15.4313 7.7505 15.4313H22.8921L17.103 9.64128C17.0036 9.53465 16.9495 9.39362 16.9521 9.24789C16.9547 9.10216 17.0137 8.96312 17.1168 8.86006C17.2198 8.75701 17.3589 8.69797 17.5046 8.6954C17.6503 8.69283 17.7914 8.74692 17.898 8.84628L24.648 15.5963C24.7533 15.7018 24.8125 15.8447 24.8125 15.9938C24.8125 16.1428 24.7533 16.2858 24.648 16.3913L17.898 23.1413C17.7925 23.2466 17.6496 23.3058 17.5005 23.3058C17.3514 23.3058 17.2085 23.2466 17.103 23.1413Z"/>
</symbol><symbol viewBox="0 0 46 45" id="telegram" xmlns="http://www.w3.org/2000/svg">
    <g id="gtelegram 1" clip-path="url(#gclip0_1086_23846)">
        <path id="gVector" d="M23 0C10.5706 0 0.5 10.0706 0.5 22.5C0.5 34.9294 10.5706 45 23 45C35.4294 45 45.5 34.9294 45.5 22.5C45.5 10.0706 35.4294 0 23 0ZM34.0504 15.4143L30.3578 32.8155C30.0857 34.0494 29.3508 34.3488 28.3256 33.7682L22.7006 29.622L19.9879 32.2349C19.6885 32.5343 19.4345 32.7883 18.8538 32.7883L19.253 27.0635L29.6774 17.6462C30.131 17.247 29.5776 17.0202 28.9788 17.4194L16.0958 25.5303L10.5434 23.7974C9.33671 23.4163 9.30948 22.5907 10.7974 22.0101L32.4899 13.6452C33.497 13.2822 34.377 13.8901 34.0504 15.4143Z"/>
    </g>
    <defs>
        <clipPath id="gclip0_1086_23846">
            <rect width="45" height="45" transform="translate(0.5)"/>
        </clipPath>
    </defs>
</symbol></svg>