<svg width="81" height="80" viewBox="0 0 81 80" fill="none" xmlns="http://www.w3.org/2000/svg">
<path fill-rule="evenodd" clip-rule="evenodd" d="M40.5 0C17.6831 0 0 16.5073 0 38.8013C0 50.4634 4.84044 60.54 12.7204 67.5019C13.3805 68.0894 13.7798 68.9023 13.8124 69.7796L14.0324 76.8943C14.1057 79.164 16.4771 80.6368 18.5795 79.7274L26.6143 76.2263C27.2988 75.9285 28.0566 75.8722 28.7737 76.0654C32.4652 77.0714 36.4011 77.6026 40.5 77.6026C63.3169 77.6026 81 61.0953 81 38.8013C81 16.5073 63.3169 0 40.5 0ZM64.8163 29.8515L52.9189 48.4916C51.0284 51.4534 46.9702 52.1938 44.1344 50.0932L34.6735 43.083C33.8016 42.4392 32.6119 42.4472 31.7481 43.0911L18.9706 52.6687C17.2675 53.9484 15.0347 51.9282 16.1837 50.1415L28.0811 31.5014C29.9716 28.5396 34.0298 27.7991 36.8656 29.8998L46.3265 36.9099C47.1984 37.5538 48.3881 37.5457 49.2519 36.9019L62.0294 27.3243C63.7325 26.0446 65.9653 28.0647 64.8163 29.8515Z" fill="#0075FF"/>
</svg>
