<svg width="77" height="77" viewBox="0 0 77 77" fill="none" xmlns="http://www.w3.org/2000/svg">
<path id="Vector" fill-rule="evenodd" clip-rule="evenodd" d="M38.6441 0C59.6964 0 77 17.3036 77 38.6441C77 59.6964 59.6964 77 38.6441 77C17.3018 77 0 59.6964 0 38.6441C0 17.3018 17.3036 0 38.6441 0ZM14.7072 23.359C15.8607 17.0144 21.0517 14.7073 22.7821 14.7073C24.5124 14.4186 25.9547 13.8418 27.685 17.8799C29.4154 22.2062 31.4344 27.6852 31.4344 27.6852C31.4344 27.6852 31.7231 28.8387 30.5688 30.2811C29.4153 31.4346 27.3962 33.7418 27.3962 33.7418C27.3962 33.7418 26.8195 34.6073 27.3962 35.4721C29.7033 39.7984 37.2015 47.5845 41.5275 49.6034C42.393 50.1802 43.5465 49.6034 43.5465 49.6034C43.5465 49.6034 45.5655 47.5845 47.0072 46.4308C48.1608 45.5653 49.3143 45.854 49.3143 45.854C49.3143 45.854 55.0821 47.873 59.1196 49.6034C63.4458 51.3337 62.5803 52.4872 62.5803 54.2176C62.2915 55.9479 60.2732 61.4276 53.6399 62.2924C38.0663 65.1762 12.1125 38.9339 14.7072 23.359Z" fill="#0075FF"/>
</svg>
