<svg width="77" height="77" viewBox="0 0 77 77" fill="none" xmlns="http://www.w3.org/2000/svg">
<path id="Vector" d="M38.5 0C17.2319 0 0 17.2319 0 38.5C0 59.7681 17.2319 77 38.5 77C59.7681 77 77 59.7681 77 38.5C77 17.2319 59.7681 0 38.5 0ZM57.4085 26.3756L51.0901 56.151C50.6244 58.2623 49.3669 58.7746 47.6127 57.7811L37.9877 50.6865L33.346 55.1575C32.8337 55.6698 32.399 56.1044 31.4054 56.1044L32.0885 46.3087L49.9258 30.1946C50.702 29.5115 49.755 29.1234 48.7304 29.8065L26.6861 43.6851L17.1853 40.72C15.1206 40.0679 15.074 38.6552 17.62 37.6617L54.7383 23.3484C56.4615 22.7274 57.9673 23.7675 57.4085 26.3756Z" fill="#0075FF"/>
</svg>
