<svg width="79" height="83" viewBox="0 0 79 83" fill="none" xmlns="http://www.w3.org/2000/svg">
<path id="Vector" d="M70.0911 8.08213C68.0249 6.18569 59.6623 0.139768 41.0173 0.0587234C41.0173 0.0587234 19.0371 -1.2542 8.33172 8.53598C2.37705 14.4684 0.278272 23.1726 0.0504979 33.9515C-0.177276 44.7305 -0.45386 64.9267 19.0859 70.4053H19.1022L19.0859 78.7691C19.0859 78.7691 18.9558 82.1568 21.201 82.8376C23.9017 83.6804 25.4961 81.1032 28.083 78.3315C29.4985 76.8079 31.4508 74.571 32.9313 72.8691C46.305 73.9875 56.5711 71.4265 57.7425 71.0537C60.4432 70.1784 75.7204 68.2334 78.1934 48.0371C80.764 27.1924 76.9569 14.0308 70.0911 8.08213ZM72.3526 46.5134C70.2538 63.3707 57.8726 64.4405 55.5949 65.1699C54.6187 65.4778 45.5891 67.7147 34.2492 66.9853C34.2492 66.9853 25.789 77.1483 23.1533 79.7903C22.291 80.6494 21.3474 80.5683 21.3637 78.8664C21.3637 77.748 21.4287 64.9754 21.4287 64.9754C21.4125 64.9754 21.4125 64.9754 21.4287 64.9754C4.8663 60.4045 5.84247 43.2068 6.02144 34.2109C6.2004 25.2149 7.90871 17.8399 12.9523 12.88C22.0145 4.69447 40.6757 5.91014 40.6757 5.91014C56.4409 5.97497 63.99 10.708 65.7471 12.2964C71.5554 17.2564 74.5164 29.1213 72.3526 46.5134ZM49.7378 33.4166C49.8029 34.8106 47.7041 34.9079 47.6391 33.5139C47.4601 29.9479 45.7843 28.2136 42.3352 28.0191C40.936 27.938 41.0661 25.8471 42.4491 25.9281C46.9883 26.1713 49.5101 28.7647 49.7378 33.4166ZM53.0406 35.2482C53.2033 28.3757 48.8918 22.9943 40.7082 22.3946C39.3253 22.2973 39.4717 20.2064 40.8546 20.3036C50.291 20.9844 55.3183 27.4518 55.1393 35.2969C55.1231 36.6908 53.008 36.626 53.0406 35.2482ZM60.6873 37.4202C60.7035 38.8142 58.5885 38.8304 58.5885 37.4364C58.4909 24.2262 49.6565 17.0294 38.9348 16.9484C37.5519 16.9322 37.5519 14.8574 38.9348 14.8574C50.9255 14.9385 60.5734 23.1888 60.6873 37.4202ZM58.8488 53.3212V53.3536C57.0917 56.4333 53.8052 59.8371 50.4212 58.7512L50.3886 58.7025C46.9557 57.7462 38.8697 53.5967 33.7611 49.5445C31.1254 47.4698 28.7175 45.0222 26.8628 42.6719C25.187 40.581 23.495 38.101 21.8518 35.1186C18.3863 28.8781 17.6217 26.0902 17.6217 26.0902C16.5316 22.7188 19.9319 19.4446 23.0394 17.694H23.072C24.5688 16.916 26.0005 17.1753 26.9604 18.3262C26.9604 18.3262 28.9778 20.7251 29.8401 21.9083C30.6536 23.0105 31.7437 24.7773 32.3131 25.766C33.3055 27.5328 32.6873 29.332 31.7111 30.0776L29.7588 31.6337C28.7663 32.4279 28.8965 33.9029 28.8965 33.9029C28.8965 33.9029 31.7925 44.8115 42.6118 47.567C42.6118 47.567 44.0923 47.6967 44.8895 46.7079L46.4514 44.7629C47.1998 43.7903 49.0057 43.1744 50.7791 44.1631C53.1707 45.5085 56.2131 47.5994 58.2306 49.4959C59.3694 50.4198 59.6298 51.8299 58.8488 53.3212Z" fill="#0075FF"/>
</svg>
