<svg width="75" height="77" viewBox="0 0 75 77" fill="none" xmlns="http://www.w3.org/2000/svg">
<g id="Frame 62">
<path id="Vector" d="M35.6666 0.04453C15.6978 1.0128 -0.0604038 17.9484 0.000174068 38.3071C0.0186187 44.5078 1.48858 50.3605 4.08168 55.5318L0.100354 75.2126C-0.115014 76.2772 0.82783 77.2093 1.86633 76.9589L20.8033 72.3899C25.6686 74.8579 31.1332 76.2834 36.9167 76.3733C57.3267 76.6908 74.3451 60.187 74.9813 39.4098C75.6632 17.138 57.6132 -1.01986 35.6666 0.04453ZM58.2625 59.3329C52.7167 64.9806 45.343 68.0909 37.5 68.0909C32.9077 68.0909 28.511 67.0416 24.4317 64.9723L21.7945 63.6345L10.1841 66.4358L12.628 54.3542L11.3288 51.7632C9.21108 47.5397 8.13732 42.9725 8.13732 38.1888C8.13732 30.2017 11.1915 22.6927 16.7374 17.0448C22.2337 11.4475 29.7276 8.28658 37.5006 8.28658C45.3435 8.28676 52.7168 11.3971 58.2627 17.0446C63.8086 22.6923 66.8628 30.2013 66.863 38.1883C66.8628 46.1042 63.7588 53.7358 58.2625 59.3329Z" fill="#0075FF"/>
<path id="Vector_2" d="M55.6995 46.4703L48.4358 44.3463C47.4808 44.0672 46.4525 44.343 45.7566 45.0651L43.9804 46.9081C43.2314 47.6852 42.0948 47.9349 41.1035 47.5264C37.6674 46.1103 30.4393 39.5656 28.5934 36.2919C28.0609 35.3476 28.1489 34.167 28.8028 33.3054L30.3536 31.2622C30.9612 30.4617 31.0894 29.3866 30.6876 28.4613L27.6316 21.4225C26.8996 19.7366 24.784 19.2458 23.402 20.4362C21.3747 22.1823 18.9693 24.8357 18.6769 27.7753C18.1613 32.9581 20.344 39.4914 28.5976 47.3362C38.1327 56.3992 45.7684 57.5965 50.7399 56.3701C53.5598 55.6746 55.8133 52.8861 57.2355 50.603C58.2051 49.0464 57.4395 46.9791 55.6995 46.4703Z" fill="#0075FF"/>
</g>
</svg>
