<svg width="125" height="41" viewBox="0 0 125 41" fill="none" xmlns="http://www.w3.org/2000/svg">
<path fill-rule="evenodd" clip-rule="evenodd" d="M22.0556 4.03601C25.5682 0.931545 29.0322 -0.362011 31.109 0.854581C33.2737 2.12239 33.9198 6.04797 32.9265 10.9441C32.8548 11.2972 32.7734 11.6571 32.6828 12.0228C33.193 12.1694 33.6865 12.3259 34.1613 12.492C38.5639 14.0306 41.3948 16.4289 41.3948 18.8568C41.3948 21.3921 38.3665 23.9239 33.6914 25.4962C33.3932 25.5965 33.0867 25.6928 32.7725 25.7849C32.8821 26.2198 32.9776 26.6457 33.0586 27.0616C33.9808 31.7915 33.2741 35.6605 31.1391 36.9167C29.0697 38.1319 25.6639 36.915 22.2001 33.8879C21.7939 33.533 21.3854 33.1524 20.9761 32.7482C20.6519 33.0703 20.3282 33.3749 20.0058 33.6609C16.4266 36.8373 12.7681 38.1497 10.6274 36.8963C8.56026 35.6861 7.89868 32.0881 8.7508 27.5321C8.85113 26.9952 8.97248 26.4433 9.11388 25.8789C8.67618 25.7544 8.25392 25.6218 7.84824 25.4809C3.35281 23.9227 0.40625 21.36 0.40625 18.8568C0.40625 16.4368 3.14705 14.0553 7.46139 12.5277C7.99579 12.3386 8.55604 12.1616 9.13888 11.9973C9.00681 11.4714 8.89183 10.9554 8.79461 10.4511C7.90205 5.81307 8.52814 2.1267 10.5991 0.910205C12.7644 -0.365089 16.4425 1.02901 20.1265 4.35091C20.3903 4.58881 20.655 4.83837 20.9201 5.09899C21.2989 4.72464 21.6778 4.3698 22.0556 4.03601ZM33.2379 24.1255C32.961 24.2186 32.6762 24.3082 32.3841 24.3941C31.852 22.6518 31.12 20.7906 30.2156 18.8649C31.0785 16.9856 31.7832 15.1473 32.3011 13.4155C32.7815 13.5538 33.2456 13.701 33.6917 13.8571C37.5773 15.215 39.9615 17.2349 39.9615 18.8568C39.9615 20.579 37.3894 22.7294 33.2379 24.1255ZM30.9967 24.7616C30.5862 23.427 30.0512 22.0132 29.4055 20.5488C28.9828 21.3891 28.5309 22.2336 28.0521 23.0767C27.5748 23.9172 27.0881 24.7311 26.5942 25.5149C28.1607 25.3368 29.6409 25.0842 30.9967 24.7616ZM30.9129 13.0519C30.5157 14.3714 30.0041 15.7603 29.3915 17.1857C28.9714 16.364 28.5223 15.5339 28.0463 14.699C27.5759 13.8741 27.0915 13.0712 26.5964 12.2951C28.1149 12.4773 29.5648 12.7317 30.9129 13.0519ZM26.8037 15.4191C26.1468 14.2672 25.4625 13.1605 24.7611 12.113C23.5038 12.0135 22.2109 11.9621 20.9001 11.9621C19.5958 11.9621 18.3048 12.0132 17.047 12.1118C16.3346 13.1673 15.6458 14.2776 14.992 15.4292L14.8482 15.6824C14.2501 16.7493 13.6957 17.8266 13.1906 18.8992C13.7361 20.0546 14.3403 21.2169 14.9973 22.3691C15.6551 23.5229 16.3502 24.6389 17.0693 25.701C18.3015 25.784 19.5828 25.8261 20.9001 25.8261C22.2228 25.8261 23.5204 25.7784 24.7753 25.6852C25.466 24.6373 26.1462 23.5248 26.8082 22.3589C27.4707 21.1926 28.0795 20.0246 28.628 18.8716C28.0783 17.7395 27.4683 16.5847 26.8037 15.4191ZM31.2957 11.6586C29.5241 11.2346 27.5893 10.9217 25.56 10.7318C24.3779 9.01706 23.1507 7.46442 21.9211 6.13303C22.2816 5.77668 22.6418 5.43936 23.0004 5.12255C26.0979 2.38485 29.0114 1.29688 30.389 2.10389C31.8553 2.96263 32.4051 6.30339 31.5224 10.6544C31.4557 10.9828 31.3801 11.3178 31.2957 11.6586ZM23.702 10.5939C22.7871 9.33507 21.8528 8.18404 20.9205 7.16994C19.9727 8.1972 19.0304 9.34703 18.1158 10.5929C19.0332 10.5428 19.9635 10.5172 20.9001 10.5172C21.8446 10.5172 22.7805 10.5432 23.702 10.5939ZM19.1709 5.42787C19.4195 5.65195 19.6692 5.88734 19.9196 6.13345C18.6685 7.48392 17.4307 9.03423 16.2511 10.7297C14.2284 10.9169 12.2951 11.2246 10.5274 11.6395C10.4023 11.1411 10.2935 10.6525 10.2016 10.1757C9.41327 6.0795 9.94164 2.96867 11.3214 2.15819C12.7823 1.29774 15.9021 2.48022 19.1709 5.42787ZM7.93608 13.8909C8.44031 13.7126 8.96983 13.5453 9.52151 13.3896C10.0489 15.161 10.7527 17.0198 11.6088 18.8998C10.7419 20.8071 10.028 22.6953 9.49581 24.4863C9.08662 24.3698 8.6925 24.2459 8.31454 24.1147C4.33431 22.735 1.83947 20.5651 1.83947 18.8568C1.83947 17.2313 4.13454 15.2371 7.93608 13.8909ZM10.9116 13.0328C11.3134 14.3735 11.8215 15.7702 12.4244 17.1904C12.839 16.3612 13.2807 15.5327 13.7473 14.7113L13.9537 14.3479C14.3597 13.6465 14.7783 12.9604 15.2069 12.2925C13.697 12.4714 12.2528 12.7205 10.9116 13.0328ZM10.8865 24.8409C11.2938 23.4794 11.8115 22.0554 12.4258 20.6075C12.8414 21.4364 13.2851 22.2655 13.7548 23.0892C14.2333 23.9285 14.731 24.7486 15.2437 25.5441C13.684 25.3798 12.2216 25.1446 10.8865 24.8409ZM10.5029 26.2347C12.2497 26.6363 14.1954 26.9229 16.2812 27.0914C17.4705 28.7963 18.7191 30.3582 19.9754 31.7138C19.6685 32.0189 19.3627 32.3067 19.0589 32.5763C15.892 35.3868 12.7984 36.4966 11.3472 35.6469C9.96271 34.8364 9.40771 31.8178 10.1592 27.7997C10.2541 27.2923 10.3689 26.7698 10.5029 26.2347ZM25.5784 27.0695C24.3956 28.8137 23.1825 30.3764 21.9707 31.7077C22.3618 32.0945 22.7518 32.458 23.1388 32.796C26.189 35.4617 29.0367 36.4792 30.4171 35.6685C31.87 34.8137 32.4694 31.5315 31.6524 27.3402C31.5771 26.9542 31.4884 26.5582 31.3866 26.1532C29.6196 26.5774 27.6586 26.8855 25.5784 27.0695ZM18.1324 27.2084C19.059 28.4693 20.0134 29.6336 20.9697 30.6702C21.8933 29.65 22.8219 28.4843 23.7387 27.1982C22.8089 27.2465 21.8606 27.2709 20.9001 27.2709C19.959 27.2709 19.0349 27.25 18.1324 27.2084ZM24.5895 18.8568C24.5895 20.9259 22.9378 22.6031 20.9001 22.6031C18.8625 22.6031 17.2106 20.9259 17.2106 18.8568C17.2106 16.7877 18.8625 15.1103 20.9001 15.1103C22.9378 15.1103 24.5895 16.7877 24.5895 18.8568ZM62.2806 18.4315C61.6175 18.8908 60.7165 19.1204 59.5775 19.1204H53.9638V12.9444H59.8948C60.7247 12.9444 61.3877 13.0675 61.884 13.3135C62.8114 13.781 63.2752 14.6587 63.2752 15.9464C63.2752 17.1438 62.9436 17.9722 62.2806 18.4315ZM59.8338 10.8407H51.5353V28.9135H53.9638V21.1627H59.4921C60.4847 21.1627 61.2128 21.2734 61.6765 21.4948C62.4901 21.8967 62.9253 22.6882 62.9823 23.8693L63.1288 26.8835C63.1613 27.5889 63.202 28.0646 63.2508 28.3107C63.2996 28.5567 63.3647 28.7576 63.446 28.9135H66.4237V28.5075C66.0495 28.3434 65.7892 27.9743 65.6427 27.4002C65.5533 27.064 65.4963 26.5513 65.4718 25.8624L65.3864 23.4388C65.3457 22.3889 65.1485 21.6302 64.7945 21.1627C64.4407 20.6952 63.9139 20.3179 63.2142 20.0308C64.0115 19.6126 64.6318 19.0589 65.0753 18.37C65.5187 17.681 65.7403 16.7953 65.7403 15.7126C65.7403 13.6375 64.8983 12.2145 63.2142 11.4435C62.3274 11.0416 61.2006 10.8407 59.8338 10.8407ZM77.1385 16.1001C76.268 15.6613 75.369 15.4419 74.4415 15.4419C72.6029 15.4419 71.114 16.1022 69.975 17.4226C68.836 18.7432 68.2665 20.4615 68.2665 22.5775C68.2665 24.7265 68.8319 26.3976 69.9628 27.5909C71.0937 28.7843 72.4727 29.3809 74.0998 29.3809C74.7669 29.3809 75.3649 29.3154 75.8937 29.1841C76.8782 28.9545 77.7039 28.5116 78.3711 27.8554C78.7698 27.4781 79.1297 26.9921 79.4511 26.3976C79.7724 25.8029 79.9617 25.2636 80.0186 24.7797H77.8585C77.6958 25.362 77.4192 25.8747 77.0287 26.3176C76.3453 27.0803 75.43 27.4618 74.2829 27.4618C73.0544 27.4618 72.1472 27.0578 71.5614 26.2499C70.9757 25.442 70.6625 24.3697 70.6218 23.0328H80.2016C80.2016 21.7041 80.1365 20.7363 80.0064 20.1293C79.8599 19.2435 79.567 18.4684 79.1277 17.8041C78.6721 17.1068 78.0091 16.5389 77.1385 16.1001ZM77.3215 18.9728C77.647 19.5469 77.8544 20.3138 77.9439 21.2734H70.6828C70.7235 20.1416 71.0855 19.2086 71.769 18.4746C72.4524 17.7405 73.2984 17.3734 74.3073 17.3734C75.7148 17.3734 76.7195 17.9065 77.3215 18.9728ZM85.2783 26.9204C84.8146 26.5513 84.5827 26.0469 84.5827 25.4072C84.5827 24.5624 84.9204 23.9472 85.5956 23.5618C85.9942 23.3321 86.5922 23.164 87.3895 23.0573L88.7198 22.8851C89.1265 22.8359 89.5415 22.7539 89.9646 22.6391C90.3876 22.5242 90.7334 22.3806 91.0018 22.2084V23.9923C91.0018 25.3538 90.3916 26.334 89.1712 26.9327C88.4472 27.2936 87.6987 27.474 86.9258 27.474C86.2913 27.474 85.7421 27.2895 85.2783 26.9204ZM90.9164 20.2892C90.7456 20.65 90.4079 20.8634 89.9035 20.9289L86.4011 21.3718C85.1726 21.5277 84.18 21.9419 83.4234 22.6144C82.6668 23.287 82.2884 24.2343 82.2884 25.4564C82.2884 26.5718 82.6729 27.5007 83.4417 28.2429C84.2105 28.9852 85.201 29.3564 86.4133 29.3564C87.4221 29.3564 88.3455 29.139 89.1834 28.7043C90.0215 28.2697 90.6642 27.757 91.1116 27.1664C91.1849 27.6914 91.311 28.0973 91.49 28.3844C91.8317 28.9258 92.3808 29.1965 93.1378 29.1965C93.4465 29.1965 93.6905 29.1841 93.8699 29.1595C94.0483 29.1349 94.309 29.0734 94.651 28.975V27.3387C94.5123 27.3633 94.382 27.3818 94.26 27.394C94.1379 27.4064 94.0279 27.4125 93.9309 27.4125C93.6295 27.4125 93.4326 27.3428 93.3393 27.2034C93.245 27.064 93.1988 26.8794 93.1988 26.6497V19.0589C93.1988 17.8122 92.7227 16.8936 91.7707 16.3031C90.8106 15.7126 89.5618 15.4173 88.0241 15.4173C86.698 15.4173 85.5326 15.7351 84.5278 16.3708C83.523 17.0064 83.0004 18.1362 82.9596 19.7602H85.0099C85.0912 19.0794 85.2661 18.5669 85.5346 18.2223C86.0146 17.599 86.8282 17.2873 87.9753 17.2873C88.9679 17.2873 89.7306 17.4575 90.2635 17.7979C90.7964 18.1383 91.0628 18.6858 91.0628 19.4403C91.0628 19.8094 91.014 20.0924 90.9164 20.2892ZM105.433 16.4385C104.509 15.7167 103.311 15.3558 101.839 15.3558C100.114 15.3558 98.6942 15.9996 97.5794 17.2873C96.4646 18.575 95.9081 20.3754 95.9081 22.6882C95.9081 24.5747 96.4165 26.1473 97.4333 27.4064C98.4502 28.6654 99.8127 29.2948 101.521 29.2948C103.042 29.2948 104.291 28.891 105.267 28.083C106.245 27.2751 106.855 25.9977 107.099 24.2507H104.962C104.759 25.2267 104.391 25.9957 103.859 26.5575C103.325 27.1194 102.603 27.4002 101.692 27.4002C100.504 27.4002 99.6343 26.9491 99.0806 26.0469C98.5278 25.1447 98.2505 24.0333 98.2505 22.7129C98.2505 21.4005 98.4465 20.2974 98.8366 19.4034C99.4383 18.0255 100.439 17.3365 101.839 17.3365C102.864 17.3365 103.608 17.6051 104.072 18.1424C104.535 18.6796 104.833 19.3542 104.962 20.1661H107.099C106.911 18.4028 106.356 17.1602 105.433 16.4385ZM111.955 12.0586H109.734V15.7371H107.965V17.5457H109.734V26.2684C109.734 27.1132 109.917 27.8 110.283 28.3291C110.649 28.8581 111.345 29.1226 112.37 29.1226C112.687 29.1226 112.982 29.1062 113.255 29.0734C113.528 29.0406 113.79 28.9872 114.043 28.9135V27.1664C113.88 27.1829 113.738 27.1931 113.616 27.1972C113.494 27.2014 113.379 27.2034 113.274 27.2034C112.875 27.2034 112.59 27.1583 112.419 27.0681C112.11 26.9122 111.955 26.6046 111.955 26.1453V17.5457H114.043V15.7371H111.955V12.0586Z" fill="#212121"/>
</svg>
