<svg width="642" height="430" viewBox="0 0 642 430" fill="none" xmlns="http://www.w3.org/2000/svg">
<mask id="path-1-outside-1_61_1724" maskUnits="userSpaceOnUse" x="-1" y="118.75" width="220" height="312" fill="black">
<rect fill="white" x="-1" y="118.75" width="220" height="312"/>
<path d="M218.357 337.535L202.197 348.565L211.782 395.799L166.774 426.167L166.694 425.76L110.551 430L98.9773 373.004L0 380.733L0.357941 378.041L0.278398 377.635L29.2451 155.5L29.6693 155.375L73.0597 125.899L72.9802 125.492L74.2528 125.133L74.7566 125.414L155.744 119.75L191.353 295.23L209.501 293.978L218.357 337.535ZM31.6049 158.27L3.42032 375.46L44.1726 348.44L69.1754 155.407L31.6049 158.27ZM45.9357 350.537L5.60774 377.431L98.8977 370.438L139.226 343.543L45.9357 350.537ZM72.4499 129.513L34.5081 154.875L69.5333 152.731L72.4499 129.513ZM156.752 396.707L158.952 396.519L152.841 366.386L169.001 355.356L163.221 326.85L145.152 328.508L109.464 152.622L71.8931 155.485L47.1421 347.611L145.258 340.117L156.752 396.707ZM116.211 190.327L138.934 302.286L95.0399 331.481L95.199 332.294L94.271 332.122L93.8468 332.247L57.1247 334.876L69.4273 220.758L69.8515 220.632L114.435 190.374C114.713 190.296 114.886 190.39 114.939 190.656L116.211 190.327ZM87.8546 311.564L71.323 230.129L60.1208 329.728L87.8546 311.564ZM61.884 331.809L91.487 329.478L88.4246 314.411L61.884 331.809ZM109.808 149.946L150.057 122.645L75.6846 127.745L72.5824 152.293L109.808 149.946ZM101.297 302.599L113.056 194.661L72.8078 221.962L90.5723 309.499L101.297 302.599ZM91.1556 312.346L94.4566 328.633L133.591 302.505L102.636 304.789L91.1556 312.346ZM101.43 371.877L112.42 426.026L153.848 397.958L142.951 344.2L101.43 371.877ZM103.843 301.879L135.646 299.345L115.482 199.996L103.843 301.879ZM146.955 324.127L188.383 296.059L153.437 123.834L111.929 151.495L146.955 324.127ZM115.721 426.808L164.321 422.975L159.522 399.366L156.473 399.804L115.721 426.808ZM164.507 324.346L204.755 297.045L190.173 298.156L149.937 325.457L164.507 324.346ZM208.056 392.967L199.386 350.224L174.118 367.262L174.198 367.669L173.694 367.387L173.349 367.919L173.27 367.512L156.049 368.936L161.67 396.628L208.056 392.967ZM169.584 358.203L158.104 365.76L170.99 365.134L169.584 358.203ZM162.24 399.46L166.946 422.662L207.274 395.768L162.24 399.46ZM197.848 336.018L214.725 335.126L207.288 298.484L165.859 326.552L171.401 353.838L196.669 336.8L196.589 336.393L197.848 336.018ZM171.957 356.67L173.522 364.414L198.79 347.376L197.225 339.647L171.957 356.67ZM201.613 345.702L213.439 337.629L200.208 338.787L201.613 345.702Z"/>
</mask>
<path d="M218.357 337.535L202.197 348.565L211.782 395.799L166.774 426.167L166.694 425.76L110.551 430L98.9773 373.004L0 380.733L0.357941 378.041L0.278398 377.635L29.2451 155.5L29.6693 155.375L73.0597 125.899L72.9802 125.492L74.2528 125.133L74.7566 125.414L155.744 119.75L191.353 295.23L209.501 293.978L218.357 337.535ZM31.6049 158.27L3.42032 375.46L44.1726 348.44L69.1754 155.407L31.6049 158.27ZM45.9357 350.537L5.60774 377.431L98.8977 370.438L139.226 343.543L45.9357 350.537ZM72.4499 129.513L34.5081 154.875L69.5333 152.731L72.4499 129.513ZM156.752 396.707L158.952 396.519L152.841 366.386L169.001 355.356L163.221 326.85L145.152 328.508L109.464 152.622L71.8931 155.485L47.1421 347.611L145.258 340.117L156.752 396.707ZM116.211 190.327L138.934 302.286L95.0399 331.481L95.199 332.294L94.271 332.122L93.8468 332.247L57.1247 334.876L69.4273 220.758L69.8515 220.632L114.435 190.374C114.713 190.296 114.886 190.39 114.939 190.656L116.211 190.327ZM87.8546 311.564L71.323 230.129L60.1208 329.728L87.8546 311.564ZM61.884 331.809L91.487 329.478L88.4246 314.411L61.884 331.809ZM109.808 149.946L150.057 122.645L75.6846 127.745L72.5824 152.293L109.808 149.946ZM101.297 302.599L113.056 194.661L72.8078 221.962L90.5723 309.499L101.297 302.599ZM91.1556 312.346L94.4566 328.633L133.591 302.505L102.636 304.789L91.1556 312.346ZM101.43 371.877L112.42 426.026L153.848 397.958L142.951 344.2L101.43 371.877ZM103.843 301.879L135.646 299.345L115.482 199.996L103.843 301.879ZM146.955 324.127L188.383 296.059L153.437 123.834L111.929 151.495L146.955 324.127ZM115.721 426.808L164.321 422.975L159.522 399.366L156.473 399.804L115.721 426.808ZM164.507 324.346L204.755 297.045L190.173 298.156L149.937 325.457L164.507 324.346ZM208.056 392.967L199.386 350.224L174.118 367.262L174.198 367.669L173.694 367.387L173.349 367.919L173.27 367.512L156.049 368.936L161.67 396.628L208.056 392.967ZM169.584 358.203L158.104 365.76L170.99 365.134L169.584 358.203ZM162.24 399.46L166.946 422.662L207.274 395.768L162.24 399.46ZM197.848 336.018L214.725 335.126L207.288 298.484L165.859 326.552L171.401 353.838L196.669 336.8L196.589 336.393L197.848 336.018ZM171.957 356.67L173.522 364.414L198.79 347.376L197.225 339.647L171.957 356.67ZM201.613 345.702L213.439 337.629L200.208 338.787L201.613 345.702Z" fill="#0075FF"/>
<path d="M218.357 337.535L202.197 348.565L211.782 395.799L166.774 426.167L166.694 425.76L110.551 430L98.9773 373.004L0 380.733L0.357941 378.041L0.278398 377.635L29.2451 155.5L29.6693 155.375L73.0597 125.899L72.9802 125.492L74.2528 125.133L74.7566 125.414L155.744 119.75L191.353 295.23L209.501 293.978L218.357 337.535ZM31.6049 158.27L3.42032 375.46L44.1726 348.44L69.1754 155.407L31.6049 158.27ZM45.9357 350.537L5.60774 377.431L98.8977 370.438L139.226 343.543L45.9357 350.537ZM72.4499 129.513L34.5081 154.875L69.5333 152.731L72.4499 129.513ZM156.752 396.707L158.952 396.519L152.841 366.386L169.001 355.356L163.221 326.85L145.152 328.508L109.464 152.622L71.8931 155.485L47.1421 347.611L145.258 340.117L156.752 396.707ZM116.211 190.327L138.934 302.286L95.0399 331.481L95.199 332.294L94.271 332.122L93.8468 332.247L57.1247 334.876L69.4273 220.758L69.8515 220.632L114.435 190.374C114.713 190.296 114.886 190.39 114.939 190.656L116.211 190.327ZM87.8546 311.564L71.323 230.129L60.1208 329.728L87.8546 311.564ZM61.884 331.809L91.487 329.478L88.4246 314.411L61.884 331.809ZM109.808 149.946L150.057 122.645L75.6846 127.745L72.5824 152.293L109.808 149.946ZM101.297 302.599L113.056 194.661L72.8078 221.962L90.5723 309.499L101.297 302.599ZM91.1556 312.346L94.4566 328.633L133.591 302.505L102.636 304.789L91.1556 312.346ZM101.43 371.877L112.42 426.026L153.848 397.958L142.951 344.2L101.43 371.877ZM103.843 301.879L135.646 299.345L115.482 199.996L103.843 301.879ZM146.955 324.127L188.383 296.059L153.437 123.834L111.929 151.495L146.955 324.127ZM115.721 426.808L164.321 422.975L159.522 399.366L156.473 399.804L115.721 426.808ZM164.507 324.346L204.755 297.045L190.173 298.156L149.937 325.457L164.507 324.346ZM208.056 392.967L199.386 350.224L174.118 367.262L174.198 367.669L173.694 367.387L173.349 367.919L173.27 367.512L156.049 368.936L161.67 396.628L208.056 392.967ZM169.584 358.203L158.104 365.76L170.99 365.134L169.584 358.203ZM162.24 399.46L166.946 422.662L207.274 395.768L162.24 399.46ZM197.848 336.018L214.725 335.126L207.288 298.484L165.859 326.552L171.401 353.838L196.669 336.8L196.589 336.393L197.848 336.018ZM171.957 356.67L173.522 364.414L198.79 347.376L197.225 339.647L171.957 356.67ZM201.613 345.702L213.439 337.629L200.208 338.787L201.613 345.702Z" stroke="#0075FF" mask="url(#path-1-outside-1_61_1724)"/>
<mask id="path-2-outside-2_61_1724" maskUnits="userSpaceOnUse" x="195.975" y="64.2832" width="231" height="311" fill="black">
<rect fill="white" x="195.975" y="64.2832" width="231" height="311"/>
<path d="M376.925 88.225C383.447 95.2811 387.663 103.558 389.599 113.054L424.544 285.28C428.349 304.007 422.476 319.309 406.926 331.152L407.085 331.966L362.422 361.817L362.342 361.411C357.636 364.759 352.452 367.215 346.792 368.826C343.398 369.781 339.633 370.422 335.51 370.72L299.291 373.63C283.966 374.803 269.848 370.829 256.922 361.708C243.996 352.586 236.082 340.837 233.165 326.443L198.206 154.233C193.805 132.517 201.202 115.933 220.425 104.481L257.598 79.7608C265.764 74.3006 271.69 71.0463 275.362 69.9981C279.035 68.9655 282.945 68.2927 287.068 67.9798L323.366 65.4765C344.008 63.9433 361.865 71.5313 376.925 88.225ZM236.135 325.614C238.72 338.38 245.693 349.176 257.068 358.015L298.165 330.479C286.459 321.452 279.26 310.281 276.556 296.983L241.597 124.757C239.834 116.074 240.271 107.907 242.909 100.272C239.409 100.694 235.949 101.383 232.555 102.337C220.664 105.701 211.888 112.194 206.214 121.831C200.54 131.469 198.856 141.983 201.176 153.388L236.135 325.614ZM249.418 88.0999L232.834 99.2394C236.506 98.2068 240.271 97.5654 244.116 97.3463C245.547 94.0764 247.31 90.9943 249.418 88.0999ZM376.62 338.865C379.364 331.778 379.894 324.018 378.184 315.601L343.225 143.375C340.415 129.529 332.858 118.108 320.556 109.096C308.253 100.084 294.758 96.2355 280.055 97.5184L246.051 100.241C243.347 107.61 242.869 115.495 244.566 123.912L279.512 296.138C281.766 307.277 287.32 316.899 296.15 325.019C295.54 323.47 295.062 321.874 294.731 320.247L261.111 154.546C259.626 147.224 261.204 142.468 265.844 140.293L265.42 140.418C275.455 133.847 290.316 123.772 310.003 110.176L310.507 110.457C320.304 107.125 326.362 111.146 328.669 122.536L362.382 288.659C363.323 293.275 363.018 296.951 361.48 299.674L361.56 300.08L317.666 329.275C316.804 330.949 315.107 332.153 312.562 332.873C311.143 333.28 309.367 333.343 307.219 333.092C316.738 338.725 327.807 341.635 340.402 341.791C344.18 341.29 356.257 340.32 376.62 338.865ZM364.503 80.1207C355.157 72.4231 342.973 68.4179 327.94 68.0737C327.662 68.1519 314.086 69.1219 287.228 70.9681C283.091 71.281 279.472 71.8599 276.37 72.7517C272.685 73.7999 269.37 75.1611 266.427 76.8508C256.895 82.9838 250.505 89.8209 247.244 97.3463C270.815 95.5627 284.271 94.7805 287.612 94.9839C301.797 95.5784 313.728 99.8027 323.406 107.688L364.503 80.1207ZM259.176 359.58C272.008 368.295 285.358 372.128 299.212 371.079L335.43 368.169C339.553 367.872 343.318 367.231 346.712 366.276C360.009 362.521 369.58 354.37 375.414 341.807C350.928 343.559 337.644 344.451 335.55 344.466C322.611 344.107 310.852 339.976 300.259 332.06L259.176 359.58ZM263.484 152.997L297.449 320.341C297.886 322.516 298.721 324.44 299.968 326.083L315.797 315.585L282.654 152.325C282.044 149.336 280.957 146.927 279.393 145.065L279.048 145.597L277.709 143.391C274.951 141.592 271.73 141.201 268.045 142.249C263.789 143.454 262.278 147.036 263.484 152.997ZM304.501 125.054C303.892 122.066 303.825 119.516 304.289 117.357L271.876 139.01C275.15 138.948 277.895 139.886 280.082 141.858L304.501 125.054ZM318.09 313.645L341.064 298.547C339.779 296.623 338.824 294.166 338.227 291.178L305.072 127.902L281.766 143.532C283.383 145.66 284.563 148.491 285.279 152.012L318.09 313.645ZM315.558 327.71C316.923 325.598 317.228 322.657 316.446 318.855L316.367 318.448L301.731 328.18C304.316 330.605 307.736 331.215 311.978 330.026C313.954 329.447 315.147 328.68 315.558 327.71ZM311.514 113.164C307.551 114.29 306 117.732 306.888 123.521L321.179 114.322C318.408 112.522 315.187 112.131 311.514 113.164ZM355.369 300.534C359.611 299.329 361.136 295.747 359.916 289.77L326.044 122.833C325.487 120.126 324.427 117.842 322.863 115.98L307.471 126.353L340.852 290.834C342.602 299.548 347.441 302.771 355.369 300.534ZM318.66 316.492C319.429 320.294 319.694 323.095 319.469 324.878L351.113 303.882C347.773 303.679 345.015 302.599 342.828 300.628L318.66 316.492ZM421.575 286.125L386.616 113.899C384.031 101.148 377.362 90.3997 366.611 81.6696L325.514 109.206C336.65 118.405 343.544 129.513 346.195 142.53L381.141 314.756C382.851 323.173 382.374 331.199 379.735 338.834C383.248 338.427 386.695 337.723 390.089 336.769C401.689 333.483 410.399 327.006 416.219 317.337C422.052 307.653 423.828 297.248 421.575 286.125ZM372.139 352.18L391.879 338.85C387.12 340.477 382.652 341.322 378.476 341.353C376.859 345.249 374.751 348.863 372.139 352.18Z"/>
</mask>
<path d="M376.925 88.225C383.447 95.2811 387.663 103.558 389.599 113.054L424.544 285.28C428.349 304.007 422.476 319.309 406.926 331.152L407.085 331.966L362.422 361.817L362.342 361.411C357.636 364.759 352.452 367.215 346.792 368.826C343.398 369.781 339.633 370.422 335.51 370.72L299.291 373.63C283.966 374.803 269.848 370.829 256.922 361.708C243.996 352.586 236.082 340.837 233.165 326.443L198.206 154.233C193.805 132.517 201.202 115.933 220.425 104.481L257.598 79.7608C265.764 74.3006 271.69 71.0463 275.362 69.9981C279.035 68.9655 282.945 68.2927 287.068 67.9798L323.366 65.4765C344.008 63.9433 361.865 71.5313 376.925 88.225ZM236.135 325.614C238.72 338.38 245.693 349.176 257.068 358.015L298.165 330.479C286.459 321.452 279.26 310.281 276.556 296.983L241.597 124.757C239.834 116.074 240.271 107.907 242.909 100.272C239.409 100.694 235.949 101.383 232.555 102.337C220.664 105.701 211.888 112.194 206.214 121.831C200.54 131.469 198.856 141.983 201.176 153.388L236.135 325.614ZM249.418 88.0999L232.834 99.2394C236.506 98.2068 240.271 97.5654 244.116 97.3463C245.547 94.0764 247.31 90.9943 249.418 88.0999ZM376.62 338.865C379.364 331.778 379.894 324.018 378.184 315.601L343.225 143.375C340.415 129.529 332.858 118.108 320.556 109.096C308.253 100.084 294.758 96.2355 280.055 97.5184L246.051 100.241C243.347 107.61 242.869 115.495 244.566 123.912L279.512 296.138C281.766 307.277 287.32 316.899 296.15 325.019C295.54 323.47 295.062 321.874 294.731 320.247L261.111 154.546C259.626 147.224 261.204 142.468 265.844 140.293L265.42 140.418C275.455 133.847 290.316 123.772 310.003 110.176L310.507 110.457C320.304 107.125 326.362 111.146 328.669 122.536L362.382 288.659C363.323 293.275 363.018 296.951 361.48 299.674L361.56 300.08L317.666 329.275C316.804 330.949 315.107 332.153 312.562 332.873C311.143 333.28 309.367 333.343 307.219 333.092C316.738 338.725 327.807 341.635 340.402 341.791C344.18 341.29 356.257 340.32 376.62 338.865ZM364.503 80.1207C355.157 72.4231 342.973 68.4179 327.94 68.0737C327.662 68.1519 314.086 69.1219 287.228 70.9681C283.091 71.281 279.472 71.8599 276.37 72.7517C272.685 73.7999 269.37 75.1611 266.427 76.8508C256.895 82.9838 250.505 89.8209 247.244 97.3463C270.815 95.5627 284.271 94.7805 287.612 94.9839C301.797 95.5784 313.728 99.8027 323.406 107.688L364.503 80.1207ZM259.176 359.58C272.008 368.295 285.358 372.128 299.212 371.079L335.43 368.169C339.553 367.872 343.318 367.231 346.712 366.276C360.009 362.521 369.58 354.37 375.414 341.807C350.928 343.559 337.644 344.451 335.55 344.466C322.611 344.107 310.852 339.976 300.259 332.06L259.176 359.58ZM263.484 152.997L297.449 320.341C297.886 322.516 298.721 324.44 299.968 326.083L315.797 315.585L282.654 152.325C282.044 149.336 280.957 146.927 279.393 145.065L279.048 145.597L277.709 143.391C274.951 141.592 271.73 141.201 268.045 142.249C263.789 143.454 262.278 147.036 263.484 152.997ZM304.501 125.054C303.892 122.066 303.825 119.516 304.289 117.357L271.876 139.01C275.15 138.948 277.895 139.886 280.082 141.858L304.501 125.054ZM318.09 313.645L341.064 298.547C339.779 296.623 338.824 294.166 338.227 291.178L305.072 127.902L281.766 143.532C283.383 145.66 284.563 148.491 285.279 152.012L318.09 313.645ZM315.558 327.71C316.923 325.598 317.228 322.657 316.446 318.855L316.367 318.448L301.731 328.18C304.316 330.605 307.736 331.215 311.978 330.026C313.954 329.447 315.147 328.68 315.558 327.71ZM311.514 113.164C307.551 114.29 306 117.732 306.888 123.521L321.179 114.322C318.408 112.522 315.187 112.131 311.514 113.164ZM355.369 300.534C359.611 299.329 361.136 295.747 359.916 289.77L326.044 122.833C325.487 120.126 324.427 117.842 322.863 115.98L307.471 126.353L340.852 290.834C342.602 299.548 347.441 302.771 355.369 300.534ZM318.66 316.492C319.429 320.294 319.694 323.095 319.469 324.878L351.113 303.882C347.773 303.679 345.015 302.599 342.828 300.628L318.66 316.492ZM421.575 286.125L386.616 113.899C384.031 101.148 377.362 90.3997 366.611 81.6696L325.514 109.206C336.65 118.405 343.544 129.513 346.195 142.53L381.141 314.756C382.851 323.173 382.374 331.199 379.735 338.834C383.248 338.427 386.695 337.723 390.089 336.769C401.689 333.483 410.399 327.006 416.219 317.337C422.052 307.653 423.828 297.248 421.575 286.125ZM372.139 352.18L391.879 338.85C387.12 340.477 382.652 341.322 378.476 341.353C376.859 345.249 374.751 348.863 372.139 352.18Z" fill="#0075FF"/>
<path d="M376.925 88.225C383.447 95.2811 387.663 103.558 389.599 113.054L424.544 285.28C428.349 304.007 422.476 319.309 406.926 331.152L407.085 331.966L362.422 361.817L362.342 361.411C357.636 364.759 352.452 367.215 346.792 368.826C343.398 369.781 339.633 370.422 335.51 370.72L299.291 373.63C283.966 374.803 269.848 370.829 256.922 361.708C243.996 352.586 236.082 340.837 233.165 326.443L198.206 154.233C193.805 132.517 201.202 115.933 220.425 104.481L257.598 79.7608C265.764 74.3006 271.69 71.0463 275.362 69.9981C279.035 68.9655 282.945 68.2927 287.068 67.9798L323.366 65.4765C344.008 63.9433 361.865 71.5313 376.925 88.225ZM236.135 325.614C238.72 338.38 245.693 349.176 257.068 358.015L298.165 330.479C286.459 321.452 279.26 310.281 276.556 296.983L241.597 124.757C239.834 116.074 240.271 107.907 242.909 100.272C239.409 100.694 235.949 101.383 232.555 102.337C220.664 105.701 211.888 112.194 206.214 121.831C200.54 131.469 198.856 141.983 201.176 153.388L236.135 325.614ZM249.418 88.0999L232.834 99.2394C236.506 98.2068 240.271 97.5654 244.116 97.3463C245.547 94.0764 247.31 90.9943 249.418 88.0999ZM376.62 338.865C379.364 331.778 379.894 324.018 378.184 315.601L343.225 143.375C340.415 129.529 332.858 118.108 320.556 109.096C308.253 100.084 294.758 96.2355 280.055 97.5184L246.051 100.241C243.347 107.61 242.869 115.495 244.566 123.912L279.512 296.138C281.766 307.277 287.32 316.899 296.15 325.019C295.54 323.47 295.062 321.874 294.731 320.247L261.111 154.546C259.626 147.224 261.204 142.468 265.844 140.293L265.42 140.418C275.455 133.847 290.316 123.772 310.003 110.176L310.507 110.457C320.304 107.125 326.362 111.146 328.669 122.536L362.382 288.659C363.323 293.275 363.018 296.951 361.48 299.674L361.56 300.08L317.666 329.275C316.804 330.949 315.107 332.153 312.562 332.873C311.143 333.28 309.367 333.343 307.219 333.092C316.738 338.725 327.807 341.635 340.402 341.791C344.18 341.29 356.257 340.32 376.62 338.865ZM364.503 80.1207C355.157 72.4231 342.973 68.4179 327.94 68.0737C327.662 68.1519 314.086 69.1219 287.228 70.9681C283.091 71.281 279.472 71.8599 276.37 72.7517C272.685 73.7999 269.37 75.1611 266.427 76.8508C256.895 82.9838 250.505 89.8209 247.244 97.3463C270.815 95.5627 284.271 94.7805 287.612 94.9839C301.797 95.5784 313.728 99.8027 323.406 107.688L364.503 80.1207ZM259.176 359.58C272.008 368.295 285.358 372.128 299.212 371.079L335.43 368.169C339.553 367.872 343.318 367.231 346.712 366.276C360.009 362.521 369.58 354.37 375.414 341.807C350.928 343.559 337.644 344.451 335.55 344.466C322.611 344.107 310.852 339.976 300.259 332.06L259.176 359.58ZM263.484 152.997L297.449 320.341C297.886 322.516 298.721 324.44 299.968 326.083L315.797 315.585L282.654 152.325C282.044 149.336 280.957 146.927 279.393 145.065L279.048 145.597L277.709 143.391C274.951 141.592 271.73 141.201 268.045 142.249C263.789 143.454 262.278 147.036 263.484 152.997ZM304.501 125.054C303.892 122.066 303.825 119.516 304.289 117.357L271.876 139.01C275.15 138.948 277.895 139.886 280.082 141.858L304.501 125.054ZM318.09 313.645L341.064 298.547C339.779 296.623 338.824 294.166 338.227 291.178L305.072 127.902L281.766 143.532C283.383 145.66 284.563 148.491 285.279 152.012L318.09 313.645ZM315.558 327.71C316.923 325.598 317.228 322.657 316.446 318.855L316.367 318.448L301.731 328.18C304.316 330.605 307.736 331.215 311.978 330.026C313.954 329.447 315.147 328.68 315.558 327.71ZM311.514 113.164C307.551 114.29 306 117.732 306.888 123.521L321.179 114.322C318.408 112.522 315.187 112.131 311.514 113.164ZM355.369 300.534C359.611 299.329 361.136 295.747 359.916 289.77L326.044 122.833C325.487 120.126 324.427 117.842 322.863 115.98L307.471 126.353L340.852 290.834C342.602 299.548 347.441 302.771 355.369 300.534ZM318.66 316.492C319.429 320.294 319.694 323.095 319.469 324.878L351.113 303.882C347.773 303.679 345.015 302.599 342.828 300.628L318.66 316.492ZM421.575 286.125L386.616 113.899C384.031 101.148 377.362 90.3997 366.611 81.6696L325.514 109.206C336.65 118.405 343.544 129.513 346.195 142.53L381.141 314.756C382.851 323.173 382.374 331.199 379.735 338.834C383.248 338.427 386.695 337.723 390.089 336.769C401.689 333.483 410.399 327.006 416.219 317.337C422.052 307.653 423.828 297.248 421.575 286.125ZM372.139 352.18L391.879 338.85C387.12 340.477 382.652 341.322 378.476 341.353C376.859 345.249 374.751 348.863 372.139 352.18Z" stroke="#0075FF" mask="url(#path-2-outside-2_61_1724)"/>
<mask id="path-3-outside-3_61_1724" maskUnits="userSpaceOnUse" x="422.643" y="-1" width="220" height="312" fill="black">
<rect fill="white" x="422.643" y="-1" width="220" height="312"/>
<path d="M642 217.785L625.84 228.815L635.425 276.049L590.417 306.416L590.337 306.01L534.194 310.25L522.62 253.253L423.643 260.998L424.001 258.307L423.921 257.9L452.901 35.7499L453.326 35.6247L496.716 6.13302L496.636 5.72624L497.909 5.36639L498.413 5.64801L579.4 0L615.009 175.48L633.158 174.228L642 217.785ZM455.261 38.5348L427.077 255.725L467.829 228.705L492.845 35.656L455.261 38.5348ZM469.579 230.786L429.264 257.681L522.554 250.687L562.882 223.793L469.579 230.786ZM496.093 9.76277L458.151 35.1241L493.176 32.9806L496.093 9.76277ZM580.395 276.956L582.595 276.768L576.484 246.635L592.644 235.605L586.864 207.099L568.795 208.757L533.107 32.8868L495.536 35.7499L470.785 227.861L568.901 220.366L580.395 276.956ZM539.855 70.5923L562.577 182.551L518.683 211.746L518.842 212.559L517.914 212.387L517.49 212.512L480.768 215.141L493.07 101.023L493.495 100.898L538.078 70.6393C538.356 70.5611 538.529 70.6549 538.582 70.9209L539.855 70.5923ZM511.498 191.829L494.979 110.394L483.777 209.993L511.498 191.829ZM485.54 212.074L515.143 209.743L512.081 194.677L485.54 212.074ZM533.465 30.2114L573.7 2.91006L499.328 8.01048L496.226 32.5582L533.465 30.2114ZM524.94 182.864L536.699 74.9261L496.451 102.227L514.215 189.764L524.94 182.864ZM514.799 192.611L518.1 208.898L557.235 182.77L526.279 185.055L514.799 192.611ZM525.086 252.127L536.076 306.276L577.505 278.208L566.594 224.466L525.086 252.127ZM527.486 182.145L559.289 179.61L539.125 80.2612L527.486 182.145ZM570.598 204.392L612.026 176.324L577.08 4.09911L535.572 31.7603L570.598 204.392ZM539.377 307.074L587.978 303.24L583.192 279.631L580.143 280.069L539.377 307.074ZM588.15 204.596L628.399 177.294L613.816 178.405L573.581 205.707L588.15 204.596ZM631.7 273.217L623.029 230.473L597.761 247.511L597.841 247.918L597.337 247.636L596.993 248.168L596.913 247.762L579.692 249.185L585.313 276.878L631.7 273.217ZM593.228 238.468L581.747 246.025L594.633 245.399L593.228 238.468ZM585.883 279.71L590.589 302.912L630.917 276.017L585.883 279.71ZM621.492 216.267L638.368 215.375L630.931 178.734L589.502 206.802L595.044 234.087L620.312 217.05L620.232 216.643L621.492 216.267ZM595.614 236.935L597.178 244.679L622.446 227.642L620.882 219.913L595.614 236.935ZM625.257 225.967L637.082 217.894L623.851 219.052L625.257 225.967Z"/>
</mask>
<path d="M642 217.785L625.84 228.815L635.425 276.049L590.417 306.416L590.337 306.01L534.194 310.25L522.62 253.253L423.643 260.998L424.001 258.307L423.921 257.9L452.901 35.7499L453.326 35.6247L496.716 6.13302L496.636 5.72624L497.909 5.36639L498.413 5.64801L579.4 0L615.009 175.48L633.158 174.228L642 217.785ZM455.261 38.5348L427.077 255.725L467.829 228.705L492.845 35.656L455.261 38.5348ZM469.579 230.786L429.264 257.681L522.554 250.687L562.882 223.793L469.579 230.786ZM496.093 9.76277L458.151 35.1241L493.176 32.9806L496.093 9.76277ZM580.395 276.956L582.595 276.768L576.484 246.635L592.644 235.605L586.864 207.099L568.795 208.757L533.107 32.8868L495.536 35.7499L470.785 227.861L568.901 220.366L580.395 276.956ZM539.855 70.5923L562.577 182.551L518.683 211.746L518.842 212.559L517.914 212.387L517.49 212.512L480.768 215.141L493.07 101.023L493.495 100.898L538.078 70.6393C538.356 70.5611 538.529 70.6549 538.582 70.9209L539.855 70.5923ZM511.498 191.829L494.979 110.394L483.777 209.993L511.498 191.829ZM485.54 212.074L515.143 209.743L512.081 194.677L485.54 212.074ZM533.465 30.2114L573.7 2.91006L499.328 8.01048L496.226 32.5582L533.465 30.2114ZM524.94 182.864L536.699 74.9261L496.451 102.227L514.215 189.764L524.94 182.864ZM514.799 192.611L518.1 208.898L557.235 182.77L526.279 185.055L514.799 192.611ZM525.086 252.127L536.076 306.276L577.505 278.208L566.594 224.466L525.086 252.127ZM527.486 182.145L559.289 179.61L539.125 80.2612L527.486 182.145ZM570.598 204.392L612.026 176.324L577.08 4.09911L535.572 31.7603L570.598 204.392ZM539.377 307.074L587.978 303.24L583.192 279.631L580.143 280.069L539.377 307.074ZM588.15 204.596L628.399 177.294L613.816 178.405L573.581 205.707L588.15 204.596ZM631.7 273.217L623.029 230.473L597.761 247.511L597.841 247.918L597.337 247.636L596.993 248.168L596.913 247.762L579.692 249.185L585.313 276.878L631.7 273.217ZM593.228 238.468L581.747 246.025L594.633 245.399L593.228 238.468ZM585.883 279.71L590.589 302.912L630.917 276.017L585.883 279.71ZM621.492 216.267L638.368 215.375L630.931 178.734L589.502 206.802L595.044 234.087L620.312 217.05L620.232 216.643L621.492 216.267ZM595.614 236.935L597.178 244.679L622.446 227.642L620.882 219.913L595.614 236.935ZM625.257 225.967L637.082 217.894L623.851 219.052L625.257 225.967Z" fill="#0075FF"/>
<path d="M642 217.785L625.84 228.815L635.425 276.049L590.417 306.416L590.337 306.01L534.194 310.25L522.62 253.253L423.643 260.998L424.001 258.307L423.921 257.9L452.901 35.7499L453.326 35.6247L496.716 6.13302L496.636 5.72624L497.909 5.36639L498.413 5.64801L579.4 0L615.009 175.48L633.158 174.228L642 217.785ZM455.261 38.5348L427.077 255.725L467.829 228.705L492.845 35.656L455.261 38.5348ZM469.579 230.786L429.264 257.681L522.554 250.687L562.882 223.793L469.579 230.786ZM496.093 9.76277L458.151 35.1241L493.176 32.9806L496.093 9.76277ZM580.395 276.956L582.595 276.768L576.484 246.635L592.644 235.605L586.864 207.099L568.795 208.757L533.107 32.8868L495.536 35.7499L470.785 227.861L568.901 220.366L580.395 276.956ZM539.855 70.5923L562.577 182.551L518.683 211.746L518.842 212.559L517.914 212.387L517.49 212.512L480.768 215.141L493.07 101.023L493.495 100.898L538.078 70.6393C538.356 70.5611 538.529 70.6549 538.582 70.9209L539.855 70.5923ZM511.498 191.829L494.979 110.394L483.777 209.993L511.498 191.829ZM485.54 212.074L515.143 209.743L512.081 194.677L485.54 212.074ZM533.465 30.2114L573.7 2.91006L499.328 8.01048L496.226 32.5582L533.465 30.2114ZM524.94 182.864L536.699 74.9261L496.451 102.227L514.215 189.764L524.94 182.864ZM514.799 192.611L518.1 208.898L557.235 182.77L526.279 185.055L514.799 192.611ZM525.086 252.127L536.076 306.276L577.505 278.208L566.594 224.466L525.086 252.127ZM527.486 182.145L559.289 179.61L539.125 80.2612L527.486 182.145ZM570.598 204.392L612.026 176.324L577.08 4.09911L535.572 31.7603L570.598 204.392ZM539.377 307.074L587.978 303.24L583.192 279.631L580.143 280.069L539.377 307.074ZM588.15 204.596L628.399 177.294L613.816 178.405L573.581 205.707L588.15 204.596ZM631.7 273.217L623.029 230.473L597.761 247.511L597.841 247.918L597.337 247.636L596.993 248.168L596.913 247.762L579.692 249.185L585.313 276.878L631.7 273.217ZM593.228 238.468L581.747 246.025L594.633 245.399L593.228 238.468ZM585.883 279.71L590.589 302.912L630.917 276.017L585.883 279.71ZM621.492 216.267L638.368 215.375L630.931 178.734L589.502 206.802L595.044 234.087L620.312 217.05L620.232 216.643L621.492 216.267ZM595.614 236.935L597.178 244.679L622.446 227.642L620.882 219.913L595.614 236.935ZM625.257 225.967L637.082 217.894L623.851 219.052L625.257 225.967Z" stroke="#0075FF" mask="url(#path-3-outside-3_61_1724)"/>
</svg>
