<svg width="801" height="583" viewBox="0 0 801 583" fill="none" xmlns="http://www.w3.org/2000/svg">
<mask id="path-1-outside-1_67_5681" maskUnits="userSpaceOnUse" x="257.081" y="125.938" width="250.648" height="325.301" fill="black">
<rect fill="white" x="257.081" y="125.938" width="250.648" height="325.301"/>
<path d="M439.201 153.07C446.166 159.689 450.909 167.675 453.455 177.027L499.477 346.628C504.486 365.071 499.616 380.72 484.865 393.545L485.076 394.347L442.439 427.027L442.333 426.626C437.854 430.272 432.84 433.059 427.296 435.033C423.971 436.205 420.255 437.089 416.16 437.653L380.206 442.901C364.989 445.064 350.643 442.013 337.154 433.747C323.665 425.482 315.006 414.269 311.164 400.094L265.13 230.509C259.332 209.124 265.641 192.095 284.082 179.422L319.576 152.348C327.372 146.371 333.075 142.74 336.672 141.456C340.269 140.188 344.128 139.263 348.222 138.684L384.282 133.836C404.781 130.97 423.092 137.386 439.201 153.07ZM314.074 399.075C317.48 411.647 325.137 421.968 337.06 430.053L376.288 399.915C364.022 391.664 356.116 380.983 352.556 367.887L306.522 198.286C304.2 189.735 304.108 181.557 306.246 173.767C302.781 174.415 299.373 175.326 296.048 176.498C284.399 180.625 276.061 187.672 271.023 197.657C265.985 207.642 264.985 218.242 268.039 229.474L314.074 399.075ZM311.954 161.199L296.125 173.389C299.723 172.121 303.438 171.237 307.261 170.769C308.478 167.414 310.038 164.224 311.954 161.199ZM455.122 403.204C457.402 395.954 457.428 388.176 455.177 379.887L409.142 210.286C405.441 196.651 397.161 185.743 384.301 177.546C371.441 169.35 357.724 166.383 343.136 168.615L309.379 173.532C307.158 181.061 307.192 188.961 309.43 197.251L355.452 366.852C358.422 377.823 364.588 387.065 373.924 394.596C373.215 393.09 372.636 391.528 372.199 389.926L327.923 226.749C325.968 219.538 327.234 214.69 331.724 212.22L331.308 212.372C340.897 205.165 355.075 194.148 373.841 179.307L374.361 179.555C383.922 175.595 390.228 179.216 393.267 190.432L437.664 354.025C438.902 358.57 438.835 362.258 437.477 365.075L437.583 365.475L395.67 397.45C394.919 399.176 393.304 400.488 390.81 401.371C389.421 401.869 387.652 402.047 385.493 401.936C395.356 406.94 406.591 409.128 419.169 408.468C422.907 407.724 434.896 405.974 455.122 403.204ZM426.28 145.787C416.455 138.71 404.039 135.502 389.014 136.132C388.741 136.228 375.258 138.075 348.575 141.656C344.467 142.236 340.893 143.048 337.855 144.138C334.245 145.423 331.026 146.996 328.199 148.872C319.084 155.61 313.15 162.846 310.383 170.567C333.789 167.261 347.166 165.609 350.513 165.596C364.707 165.271 376.886 168.714 387.054 175.956L426.28 145.787ZM339.265 431.478C352.635 439.344 366.205 442.305 379.962 440.362L415.916 435.113C420.011 434.55 423.726 433.666 427.051 432.494C440.077 427.886 449.101 419.132 454.108 406.217C429.787 409.551 416.589 411.301 414.5 411.452C401.565 411.931 389.563 408.57 378.481 401.356L339.265 431.478ZM330.191 225.05L374.918 389.844C375.495 391.986 376.453 393.852 377.803 395.411L392.919 383.91L349.277 223.137C348.475 220.195 347.234 217.861 345.553 216.104L345.243 216.657L343.764 214.543C340.896 212.926 337.656 212.744 334.046 214.029C329.878 215.506 328.601 219.179 330.191 225.05ZM369.314 194.51C368.512 191.568 368.28 189.027 368.604 186.843L337.66 210.549C340.923 210.274 343.723 211.034 346.033 212.859L369.314 194.51ZM395.082 381.826L417.031 365.272C415.623 363.435 414.512 361.046 413.723 358.102L370.067 197.315L347.822 214.421C349.573 216.439 350.934 219.189 351.876 222.655L395.082 381.826ZM393.466 396.025C394.692 393.829 394.805 390.874 393.779 387.131L393.673 386.73L379.698 397.389C382.435 399.641 385.887 400.029 390.044 398.568C391.977 397.862 393.118 397.02 393.466 396.025ZM375.542 182.191C371.659 183.571 370.334 187.107 371.596 192.826L385.261 182.72C382.38 181.104 379.14 180.923 375.542 182.191ZM431.434 366.329C435.589 364.852 436.879 361.178 435.275 355.293L390.667 190.899C389.936 188.234 388.73 186.023 387.049 184.266L372.361 195.614L416.32 357.589C418.63 366.172 423.668 369.075 431.434 366.329ZM395.835 384.63C396.849 388.374 397.294 391.152 397.185 392.946L427.404 369.945C424.057 369.959 421.236 369.06 418.925 367.234L395.835 384.63ZM496.568 347.664L450.533 178.063C447.128 165.506 439.778 155.212 428.484 147.196L389.256 177.334C400.964 185.794 408.562 196.433 412.051 209.251L458.072 378.852C460.324 387.141 460.367 395.182 458.229 402.971C461.708 402.338 465.102 401.412 468.427 400.24C479.79 396.211 488.062 389.183 493.244 379.158C498.438 369.116 499.537 358.618 496.568 347.664ZM451.512 416.781L470.348 402.201C465.704 404.133 461.3 405.265 457.135 405.566C455.773 409.559 453.904 413.302 451.512 416.781Z"/>
</mask>
<path d="M439.201 153.07C446.166 159.689 450.909 167.675 453.455 177.027L499.477 346.628C504.486 365.071 499.616 380.72 484.865 393.545L485.076 394.347L442.439 427.027L442.333 426.626C437.854 430.272 432.84 433.059 427.296 435.033C423.971 436.205 420.255 437.089 416.16 437.653L380.206 442.901C364.989 445.064 350.643 442.013 337.154 433.747C323.665 425.482 315.006 414.269 311.164 400.094L265.13 230.509C259.332 209.124 265.641 192.095 284.082 179.422L319.576 152.348C327.372 146.371 333.075 142.74 336.672 141.456C340.269 140.188 344.128 139.263 348.222 138.684L384.282 133.836C404.781 130.97 423.092 137.386 439.201 153.07ZM314.074 399.075C317.48 411.647 325.137 421.968 337.06 430.053L376.288 399.915C364.022 391.664 356.116 380.983 352.556 367.887L306.522 198.286C304.2 189.735 304.108 181.557 306.246 173.767C302.781 174.415 299.373 175.326 296.048 176.498C284.399 180.625 276.061 187.672 271.023 197.657C265.985 207.642 264.985 218.242 268.039 229.474L314.074 399.075ZM311.954 161.199L296.125 173.389C299.723 172.121 303.438 171.237 307.261 170.769C308.478 167.414 310.038 164.224 311.954 161.199ZM455.122 403.204C457.402 395.954 457.428 388.176 455.177 379.887L409.142 210.286C405.441 196.651 397.161 185.743 384.301 177.546C371.441 169.35 357.724 166.383 343.136 168.615L309.379 173.532C307.158 181.061 307.192 188.961 309.43 197.251L355.452 366.852C358.422 377.823 364.588 387.065 373.924 394.596C373.215 393.09 372.636 391.528 372.199 389.926L327.923 226.749C325.968 219.538 327.234 214.69 331.724 212.22L331.308 212.372C340.897 205.165 355.075 194.148 373.841 179.307L374.361 179.555C383.922 175.595 390.228 179.216 393.267 190.432L437.664 354.025C438.902 358.57 438.835 362.258 437.477 365.075L437.583 365.475L395.67 397.45C394.919 399.176 393.304 400.488 390.81 401.371C389.421 401.869 387.652 402.047 385.493 401.936C395.356 406.94 406.591 409.128 419.169 408.468C422.907 407.724 434.896 405.974 455.122 403.204ZM426.28 145.787C416.455 138.71 404.039 135.502 389.014 136.132C388.741 136.228 375.258 138.075 348.575 141.656C344.467 142.236 340.893 143.048 337.855 144.138C334.245 145.423 331.026 146.996 328.199 148.872C319.084 155.61 313.15 162.846 310.383 170.567C333.789 167.261 347.166 165.609 350.513 165.596C364.707 165.271 376.886 168.714 387.054 175.956L426.28 145.787ZM339.265 431.478C352.635 439.344 366.205 442.305 379.962 440.362L415.916 435.113C420.011 434.55 423.726 433.666 427.051 432.494C440.077 427.886 449.101 419.132 454.108 406.217C429.787 409.551 416.589 411.301 414.5 411.452C401.565 411.931 389.563 408.57 378.481 401.356L339.265 431.478ZM330.191 225.05L374.918 389.844C375.495 391.986 376.453 393.852 377.803 395.411L392.919 383.91L349.277 223.137C348.475 220.195 347.234 217.861 345.553 216.104L345.243 216.657L343.764 214.543C340.896 212.926 337.656 212.744 334.046 214.029C329.878 215.506 328.601 219.179 330.191 225.05ZM369.314 194.51C368.512 191.568 368.28 189.027 368.604 186.843L337.66 210.549C340.923 210.274 343.723 211.034 346.033 212.859L369.314 194.51ZM395.082 381.826L417.031 365.272C415.623 363.435 414.512 361.046 413.723 358.102L370.067 197.315L347.822 214.421C349.573 216.439 350.934 219.189 351.876 222.655L395.082 381.826ZM393.466 396.025C394.692 393.829 394.805 390.874 393.779 387.131L393.673 386.73L379.698 397.389C382.435 399.641 385.887 400.029 390.044 398.568C391.977 397.862 393.118 397.02 393.466 396.025ZM375.542 182.191C371.659 183.571 370.334 187.107 371.596 192.826L385.261 182.72C382.38 181.104 379.14 180.923 375.542 182.191ZM431.434 366.329C435.589 364.852 436.879 361.178 435.275 355.293L390.667 190.899C389.936 188.234 388.73 186.023 387.049 184.266L372.361 195.614L416.32 357.589C418.63 366.172 423.668 369.075 431.434 366.329ZM395.835 384.63C396.849 388.374 397.294 391.152 397.185 392.946L427.404 369.945C424.057 369.959 421.236 369.06 418.925 367.234L395.835 384.63ZM496.568 347.664L450.533 178.063C447.128 165.506 439.778 155.212 428.484 147.196L389.256 177.334C400.964 185.794 408.562 196.433 412.051 209.251L458.072 378.852C460.324 387.141 460.367 395.182 458.229 402.971C461.708 402.338 465.102 401.412 468.427 400.24C479.79 396.211 488.062 389.183 493.244 379.158C498.438 369.116 499.537 358.618 496.568 347.664ZM451.512 416.781L470.348 402.201C465.704 404.133 461.3 405.265 457.135 405.566C455.773 409.559 453.904 413.302 451.512 416.781Z" fill="#0075FF"/>
<path d="M439.201 153.07C446.166 159.689 450.909 167.675 453.455 177.027L499.477 346.628C504.486 365.071 499.616 380.72 484.865 393.545L485.076 394.347L442.439 427.027L442.333 426.626C437.854 430.272 432.84 433.059 427.296 435.033C423.971 436.205 420.255 437.089 416.16 437.653L380.206 442.901C364.989 445.064 350.643 442.013 337.154 433.747C323.665 425.482 315.006 414.269 311.164 400.094L265.13 230.509C259.332 209.124 265.641 192.095 284.082 179.422L319.576 152.348C327.372 146.371 333.075 142.74 336.672 141.456C340.269 140.188 344.128 139.263 348.222 138.684L384.282 133.836C404.781 130.97 423.092 137.386 439.201 153.07ZM314.074 399.075C317.48 411.647 325.137 421.968 337.06 430.053L376.288 399.915C364.022 391.664 356.116 380.983 352.556 367.887L306.522 198.286C304.2 189.735 304.108 181.557 306.246 173.767C302.781 174.415 299.373 175.326 296.048 176.498C284.399 180.625 276.061 187.672 271.023 197.657C265.985 207.642 264.985 218.242 268.039 229.474L314.074 399.075ZM311.954 161.199L296.125 173.389C299.723 172.121 303.438 171.237 307.261 170.769C308.478 167.414 310.038 164.224 311.954 161.199ZM455.122 403.204C457.402 395.954 457.428 388.176 455.177 379.887L409.142 210.286C405.441 196.651 397.161 185.743 384.301 177.546C371.441 169.35 357.724 166.383 343.136 168.615L309.379 173.532C307.158 181.061 307.192 188.961 309.43 197.251L355.452 366.852C358.422 377.823 364.588 387.065 373.924 394.596C373.215 393.09 372.636 391.528 372.199 389.926L327.923 226.749C325.968 219.538 327.234 214.69 331.724 212.22L331.308 212.372C340.897 205.165 355.075 194.148 373.841 179.307L374.361 179.555C383.922 175.595 390.228 179.216 393.267 190.432L437.664 354.025C438.902 358.57 438.835 362.258 437.477 365.075L437.583 365.475L395.67 397.45C394.919 399.176 393.304 400.488 390.81 401.371C389.421 401.869 387.652 402.047 385.493 401.936C395.356 406.94 406.591 409.128 419.169 408.468C422.907 407.724 434.896 405.974 455.122 403.204ZM426.28 145.787C416.455 138.71 404.039 135.502 389.014 136.132C388.741 136.228 375.258 138.075 348.575 141.656C344.467 142.236 340.893 143.048 337.855 144.138C334.245 145.423 331.026 146.996 328.199 148.872C319.084 155.61 313.15 162.846 310.383 170.567C333.789 167.261 347.166 165.609 350.513 165.596C364.707 165.271 376.886 168.714 387.054 175.956L426.28 145.787ZM339.265 431.478C352.635 439.344 366.205 442.305 379.962 440.362L415.916 435.113C420.011 434.55 423.726 433.666 427.051 432.494C440.077 427.886 449.101 419.132 454.108 406.217C429.787 409.551 416.589 411.301 414.5 411.452C401.565 411.931 389.563 408.57 378.481 401.356L339.265 431.478ZM330.191 225.05L374.918 389.844C375.495 391.986 376.453 393.852 377.803 395.411L392.919 383.91L349.277 223.137C348.475 220.195 347.234 217.861 345.553 216.104L345.243 216.657L343.764 214.543C340.896 212.926 337.656 212.744 334.046 214.029C329.878 215.506 328.601 219.179 330.191 225.05ZM369.314 194.51C368.512 191.568 368.28 189.027 368.604 186.843L337.66 210.549C340.923 210.274 343.723 211.034 346.033 212.859L369.314 194.51ZM395.082 381.826L417.031 365.272C415.623 363.435 414.512 361.046 413.723 358.102L370.067 197.315L347.822 214.421C349.573 216.439 350.934 219.189 351.876 222.655L395.082 381.826ZM393.466 396.025C394.692 393.829 394.805 390.874 393.779 387.131L393.673 386.73L379.698 397.389C382.435 399.641 385.887 400.029 390.044 398.568C391.977 397.862 393.118 397.02 393.466 396.025ZM375.542 182.191C371.659 183.571 370.334 187.107 371.596 192.826L385.261 182.72C382.38 181.104 379.14 180.923 375.542 182.191ZM431.434 366.329C435.589 364.852 436.879 361.178 435.275 355.293L390.667 190.899C389.936 188.234 388.73 186.023 387.049 184.266L372.361 195.614L416.32 357.589C418.63 366.172 423.668 369.075 431.434 366.329ZM395.835 384.63C396.849 388.374 397.294 391.152 397.185 392.946L427.404 369.945C424.057 369.959 421.236 369.06 418.925 367.234L395.835 384.63ZM496.568 347.664L450.533 178.063C447.128 165.506 439.778 155.212 428.484 147.196L389.256 177.334C400.964 185.794 408.562 196.433 412.051 209.251L458.072 378.852C460.324 387.141 460.367 395.182 458.229 402.971C461.708 402.338 465.102 401.412 468.427 400.24C479.79 396.211 488.062 389.183 493.244 379.158C498.438 369.116 499.537 358.618 496.568 347.664ZM451.512 416.781L470.348 402.201C465.704 404.133 461.3 405.265 457.135 405.566C455.773 409.559 453.904 413.302 451.512 416.781Z" stroke="#0075FF" mask="url(#path-1-outside-1_67_5681)"/>
<path d="M51.5629 348.44L27.1742 214.686M51.5629 348.44L89.4888 352.269M51.5629 348.44L94.153 316.081M27.1742 214.686L172.45 195.767M27.1742 214.686L69.7642 182.327M172.45 195.767L183.674 233.854M172.45 195.767L215.04 163.408M183.674 233.854L75.32 247.965M183.674 233.854L226.264 201.496M75.32 247.965L86.747 311.584M75.32 247.965L117.91 215.606M86.747 311.584C90.4587 308.489 95.5662 305.336 102.07 302.126C108.697 298.9 116.711 296.675 126.111 295.451C138.851 293.792 150.831 294.346 162.05 297.113C173.393 299.865 183.701 304.554 192.975 311.182C202.161 317.945 210.215 326.535 217.138 336.951C224.025 347.247 229.463 359.162 233.451 372.697C236.981 384.674 238.523 396.226 238.077 407.353C237.72 418.344 235.057 428.267 230.089 437.122C225.244 445.962 217.988 453.374 208.321 459.359M86.747 311.584L129.337 279.225M208.321 459.359C198.654 465.344 186.337 469.311 171.37 471.26C159.991 472.742 148.647 472.602 137.339 470.841C125.996 468.96 115.369 465.369 105.459 460.069C95.5833 454.887 86.6892 448.024 78.7764 439.478C70.952 430.796 64.8863 420.455 60.5793 408.455M208.321 459.359L250.911 427M60.5793 408.455L103.809 402.825M60.5793 408.455L103.169 376.096M103.809 402.825C109.194 415.431 116.912 424.624 126.964 430.404C137.139 436.168 148.535 438.229 161.152 436.586C168.573 435.619 174.617 433.464 179.283 430.12C183.949 426.777 187.431 422.468 189.73 417.193C191.817 412.071 192.756 406.104 192.546 399.291C192.301 392.358 191.032 384.999 188.737 377.214C186.514 369.668 183.433 362.918 179.495 356.964C175.645 350.874 170.991 345.759 165.533 341.619C160.074 337.48 153.944 334.547 147.142 332.821C140.305 330.975 132.866 330.576 124.826 331.623C119.507 332.316 114.992 333.339 111.281 334.693C107.694 336.031 104.61 337.551 102.03 339.256C99.3612 341.096 97.0104 343.143 94.9776 345.397C93.0332 347.516 91.2036 349.807 89.4888 352.269M103.809 402.825L146.399 370.466M89.4888 352.269L132.079 319.91M94.153 316.081L69.7642 182.327M94.153 316.081L132.079 319.91M69.7642 182.327L215.04 163.408M215.04 163.408L226.264 201.496M226.264 201.496L117.91 215.606M117.91 215.606L129.337 279.225M129.337 279.225C133.049 276.13 138.156 272.978 144.66 269.768C151.287 266.542 159.301 264.316 168.701 263.092C181.442 261.433 193.421 261.987 204.64 264.755C215.983 267.506 226.291 272.196 235.565 278.823C244.751 285.586 252.805 294.176 259.728 304.592C266.615 314.888 272.053 326.804 276.041 340.338C279.571 352.315 281.113 363.867 280.667 374.994C280.31 385.985 277.647 395.908 272.679 404.764C267.834 413.603 260.578 421.015 250.911 427M250.911 427C241.244 432.985 228.927 436.952 213.96 438.901C202.581 440.383 191.237 440.243 179.929 438.482C168.586 436.602 157.959 433.011 148.049 427.71C138.173 422.529 129.279 415.665 121.366 407.119C113.542 398.437 107.476 388.096 103.169 376.096M103.169 376.096L146.399 370.466M146.399 370.466C151.784 383.073 159.502 392.266 169.554 398.046C179.73 403.81 191.126 405.87 203.742 404.227C211.164 403.26 217.207 401.105 221.873 397.762C226.539 394.418 230.021 390.109 232.32 384.835C234.407 379.713 235.346 373.745 235.136 366.932C234.891 359.999 233.622 352.64 231.328 344.855C229.104 337.309 226.023 330.559 222.085 324.605C218.235 318.515 213.581 313.4 208.123 309.261C202.664 305.121 196.534 302.188 189.732 300.462C182.895 298.617 175.456 298.217 167.416 299.264C162.097 299.957 157.583 300.98 153.871 302.334C150.284 303.672 147.2 305.193 144.62 306.897C141.951 308.737 139.6 310.784 137.568 313.039C135.623 315.157 133.794 317.448 132.079 319.91" stroke="#0075FF" stroke-width="3"/>
<path d="M731.18 397.301L533.033 416.665M731.18 397.301L722.301 359.091M731.18 397.301L777.53 367.024M533.033 416.665L525.397 383.801M533.033 416.665L579.383 386.389M525.397 383.801L597.791 272.25C603.775 262.891 608.689 254.582 612.533 247.322C616.346 239.931 619.284 233.232 621.345 227.226C623.271 221.234 624.343 215.73 624.56 210.714C624.882 205.553 624.46 200.465 623.295 195.45C621.731 188.718 619.291 182.68 615.974 177.335C612.658 171.99 608.579 167.529 603.738 163.953C598.897 160.377 593.444 157.737 587.379 156.035C581.45 154.32 575.105 153.793 568.344 154.454C559.691 155.299 552.463 157.221 546.66 160.217C540.858 163.214 536.367 167.095 533.187 171.86C529.934 176.902 527.993 182.829 527.363 189.64C526.702 196.318 527.338 203.815 529.27 212.13M525.397 383.801L571.747 353.524M529.27 212.13L480.596 216.887M529.27 212.13L575.62 181.854M480.596 216.887C477.682 204.349 477.303 192.305 479.459 180.756C481.585 169.074 486.075 158.647 492.932 149.473C497.507 143.237 503.144 137.71 509.843 132.893M480.596 216.887L526.946 186.611M584.795 372.529L634.588 297.607C641.156 287.787 647.109 278.296 652.448 269.136C657.921 259.962 662.396 250.953 665.872 242.109C669.213 233.279 671.389 224.495 672.401 215.757C673.517 206.874 673.017 197.879 670.901 188.772C668.079 176.63 663.475 165.741 657.088 156.107C650.67 146.34 642.765 138.204 633.371 131.698C623.842 125.206 612.856 120.475 600.413 117.507C588.104 114.525 574.717 113.741 560.249 115.155C544.836 116.661 531.409 120.471 519.97 126.583C516.361 128.53 512.985 130.634 509.843 132.893M584.795 372.529L722.301 359.091M584.795 372.529L631.145 342.253M722.301 359.091L768.651 328.814M777.53 367.024L579.383 386.389M777.53 367.024L768.651 328.814M579.383 386.389L571.747 353.524M571.747 353.524L644.141 241.973C650.125 232.615 655.039 224.305 658.883 217.046C662.696 209.654 665.634 202.955 667.695 196.949C669.621 190.957 670.693 185.453 670.91 180.437C671.232 175.277 670.81 170.188 669.645 165.173C668.081 158.442 665.641 152.404 662.324 147.058C659.008 141.713 654.929 137.253 650.088 133.676C645.247 130.1 639.794 127.461 633.729 125.759C627.8 124.044 621.455 123.516 614.694 124.177C606.041 125.023 598.813 126.944 593.01 129.941C587.208 132.937 582.717 136.818 579.537 141.584C576.284 146.626 574.343 152.552 573.713 159.363C573.052 166.042 573.688 173.539 575.62 181.854M575.62 181.854L526.946 186.611M526.946 186.611C524.032 174.072 523.653 162.028 525.809 150.479C527.935 138.798 532.425 128.37 539.282 119.196C546.003 110.035 555.015 102.406 566.32 96.3064M566.32 96.3064C577.759 90.1941 591.186 86.3848 606.599 84.8784C621.067 83.4645 634.454 84.2484 646.763 87.2299C659.206 90.1983 670.192 94.9289 679.721 101.422C689.115 107.928 697.02 116.064 703.438 125.83C709.825 135.465 714.43 146.353 717.251 158.496C719.367 167.603 719.867 176.598 718.751 185.481C717.739 194.218 715.563 203.002 712.222 211.833C708.746 220.676 704.271 229.685 698.798 238.859C693.459 248.019 687.506 257.51 680.938 267.331L631.145 342.253M566.32 96.3064L509.843 132.893M631.145 342.253L768.651 328.814" stroke="#0075FF" stroke-width="3"/>
</svg>
