<svg width="27" height="27" viewBox="0 0 27 27" fill="none" xmlns="http://www.w3.org/2000/svg">
<g id="Frame 28">
<g id="&#240;&#159;&#166;&#134; icon &#34;arrow right 1&#34;">
<g id="Group">
<path id="Vector" d="M5.72826 9.81301C5.8879 9.65337 6.10636 9.55254 6.35843 9.55254C6.84576 9.55254 7.24907 9.95585 7.24907 10.4432L7.24907 19.7529L16.5588 19.7529C17.0461 19.7529 17.4494 20.1562 17.4494 20.6436C17.4494 21.1309 17.0461 21.5342 16.5588 21.5342L6.35843 21.5342C5.8711 21.5342 5.46779 21.1309 5.46779 20.6436L5.46779 10.4432C5.46779 10.1911 5.56862 9.97266 5.72826 9.81301Z" fill="white"/>
<path id="Vector_2" d="M5.87053 19.8715L20.0116 5.73042C20.3561 5.38593 20.9274 5.38593 21.2719 5.73042C21.6164 6.07492 21.6164 6.64627 21.2719 6.99077L7.13087 21.1318C6.78637 21.4763 6.21502 21.4763 5.87053 21.1318C5.52603 20.7873 5.52603 20.216 5.87053 19.8715Z" fill="white"/>
</g>
</g>
</g>
</svg>
