<svg width="27" height="27" viewBox="0 0 27 27" fill="none" xmlns="http://www.w3.org/2000/svg">
<g id="Frame 28">
<g id="&#240;&#159;&#166;&#134; icon &#34;arrow right 1&#34;">
<g id="Group">
<path id="Vector" d="M21.2717 17.187C21.1121 17.3466 20.8936 17.4475 20.6416 17.4475C20.1542 17.4475 19.7509 17.0441 19.7509 16.5568L19.7509 7.24707L10.4412 7.24709C9.95387 7.24709 9.55056 6.84378 9.55056 6.35645C9.55056 5.86911 9.95387 5.4658 10.4412 5.4658L20.6416 5.46579C21.1289 5.46579 21.5322 5.8691 21.5322 6.35643L21.5322 16.5568C21.5322 16.8089 21.4314 17.0273 21.2717 17.187Z" fill="white"/>
<path id="Vector_2" d="M21.1295 7.12852L6.98842 21.2696C6.64392 21.6141 6.07257 21.6141 5.72807 21.2696C5.38358 20.9251 5.38358 20.3537 5.72807 20.0092L19.8691 5.86817C20.2136 5.52368 20.785 5.52368 21.1295 5.86817C21.474 6.21267 21.474 6.78402 21.1295 7.12852Z" fill="white"/>
</g>
</g>
</g>
</svg>
