<svg width="232" height="36" viewBox="0 0 232 36" fill="none" xmlns="http://www.w3.org/2000/svg">
<path d="M85.8082 19.3199C86.5643 19.3171 87.3045 19.54 87.9347 19.9605C88.5648 20.3808 89.0565 20.9796 89.3476 21.681C89.639 22.3825 89.7166 23.1551 89.5706 23.9008C89.4247 24.6467 89.0616 25.3321 88.5278 25.8705C87.9939 26.4089 87.3132 26.776 86.5716 26.9253C85.83 27.0745 85.0609 26.9992 84.3619 26.709C83.6629 26.4186 83.0654 25.9265 82.6449 25.2948C82.2244 24.6629 82 23.9199 82 23.16C81.9984 22.6563 82.0956 22.1571 82.2863 21.6914C82.4767 21.2255 82.7569 20.802 83.1108 20.4453C83.4645 20.0886 83.885 19.8055 84.3479 19.6123C84.8107 19.4191 85.3069 19.3199 85.8082 19.3199ZM166.263 5.36292L163.628 0L160.992 5.36292L155.221 6.2104L159.438 10.3021L158.463 16.102L163.654 13.4537L168.859 16.102L167.871 10.3021L172.087 6.2104L166.263 5.36292ZM146.498 5.36292L143.863 0L141.228 5.36292L135.47 6.2104L139.686 10.3021L138.698 16.102L143.969 13.4537L149.239 16.102L148.251 10.3021L152.467 6.2104L146.498 5.36292ZM186.028 5.36292L183.392 0L180.757 5.36292L174.986 6.2104L179.202 10.3021L178.227 16.102L183.419 13.4537L188.689 16.102L187.701 10.3021L191.918 6.2104L186.028 5.36292ZM206.135 5.36292L203.5 0L200.864 5.36292L195.106 6.2104L199.323 10.3021L198.334 16.102L203.539 13.4537L208.81 16.102L207.821 10.3021L212.038 6.2104L206.135 5.36292ZM232 6.2104L226.308 5.36292L223.673 0L221.037 5.36292L215.279 6.2104L219.496 10.3021L218.402 16.102L223.673 13.4537L228.877 16.102L227.889 10.3021L232 6.2104Z" fill="#0075FF"/>
<path d="M84.8336 19.3199C85.5947 19.3171 86.3399 19.54 86.9742 19.9605C87.6086 20.3808 88.1035 20.9796 88.3966 21.681C88.69 22.3825 88.768 23.1551 88.6211 23.9008C88.4742 24.6468 88.1087 25.3321 87.5713 25.8705C87.0339 26.4089 86.3486 26.776 85.6021 26.9253C84.8555 27.0745 84.0813 26.9992 83.3777 26.709C82.674 26.4186 82.0725 25.9265 81.6492 25.2948C81.2259 24.6629 81 23.9199 81 23.16C80.9984 22.6563 81.0962 22.1571 81.2882 21.6914C81.4799 21.2255 81.7619 20.802 82.1182 20.4453C82.4743 20.0886 82.8976 19.8055 83.3635 19.6123C83.8295 19.4191 84.3289 19.3199 84.8336 19.3199ZM165.825 5.36293L163.172 0L160.519 5.36293L154.71 6.2104L158.954 10.3021L157.972 16.102L163.199 13.4537L168.438 16.102L167.443 10.3021L171.688 6.2104L165.825 5.36293ZM145.928 5.36293L143.276 0L140.623 5.36293L134.826 6.2104L139.071 10.3021L138.076 16.102L143.382 13.4537L148.687 16.102L147.693 10.3021L151.937 6.2104L145.928 5.36293ZM185.721 5.36293L183.068 0L180.415 5.36293L174.606 6.2104L178.85 10.3021L177.869 16.102L183.095 13.4537L188.401 16.102L187.406 10.3021L191.65 6.2104L185.721 5.36293ZM205.962 5.36293L203.31 0L200.657 5.36293L194.86 6.2104L199.105 10.3021L198.11 16.102L203.349 13.4537L208.655 16.102L207.66 10.3021L211.905 6.2104L205.962 5.36293ZM232 6.2104L226.27 5.36293L223.617 0L220.964 5.36293L215.168 6.2104L219.412 10.3021L218.311 16.102L223.617 13.4537L228.857 16.102L227.862 10.3021L232 6.2104Z" fill="#212121"/>
<path d="M30.0664 2H35.3273V35.9728H30.0664V2ZM53.7407 25.1015C53.7968 25.8616 53.6923 26.6252 53.4344 27.3394C53.1765 28.0536 52.7715 28.7013 52.2473 29.2378C51.7231 29.7743 51.0925 30.1865 50.3987 30.4459C49.705 30.7057 48.9649 30.8064 48.2298 30.7411C45.0865 30.7411 44.5209 27.6972 44.5209 25.8625V12.8713H39.26V25.8353C39.1961 27.2316 39.4017 28.6269 39.8646 29.9404C40.3273 31.2537 41.0384 32.459 41.9561 33.4861C42.7951 34.2989 43.7811 34.9323 44.8579 35.3496C45.9346 35.7672 47.0806 35.9605 48.2298 35.9185C50.2175 35.9589 52.1627 35.3239 53.7671 34.1112V35.9728H59.0281V12.8713H53.7671L53.7407 25.1015ZM69.5236 4.71782H64.2626V12.8713H60.3169V18.307H64.2626V35.9728H69.5236V18.307H73.4693V12.8713H69.5236V4.71782ZM90.0283 29.0561C88.8421 30.1475 87.3026 30.7392 85.7143 30.7139C84.8714 30.7404 84.0322 30.588 83.2489 30.2656C82.4653 29.9433 81.7545 29.4581 81.1599 28.8401C80.5656 28.2221 80.1005 27.4845 79.7932 26.6731C79.4862 25.8618 79.3438 24.9938 79.3747 24.1231C79.3406 23.2572 79.4818 22.3936 79.7895 21.5873C80.097 20.7811 80.5641 20.0501 81.1609 19.4414C81.7576 18.8323 82.471 18.3589 83.255 18.0512C84.0392 17.7435 84.8767 17.6086 85.7143 17.6547C87.3138 17.6462 88.8615 18.2405 90.0678 19.3263L90.8569 20.0329L94.408 16.3638L93.5267 15.5348C91.3706 13.5716 88.5879 12.5018 85.7143 12.5316C84.216 12.4712 82.7214 12.73 81.3241 13.292C79.9265 13.8539 78.6559 14.707 77.5914 15.798C76.5265 16.8892 75.6906 18.1949 75.1355 19.6342C74.5802 21.0735 74.3174 22.6153 74.3637 24.164C74.3279 25.7165 74.5968 27.2607 75.1538 28.7032C75.711 30.1458 76.5448 31.457 77.6052 32.5578C78.6658 33.6584 79.931 34.5262 81.3245 35.1083C82.7181 35.6906 84.2113 35.9754 85.7143 35.9456C88.6265 35.9931 91.4476 34.8954 93.6057 32.8745L94.4606 32.0592L90.8569 28.3901L90.0283 29.0561ZM113.19 14.8825C111.77 13.4475 109.894 12.5933 107.911 12.4783C105.927 12.3634 103.971 12.9955 102.405 14.2574V2.02718H97.1437V36H102.405V23.2399C102.405 18.0489 105.982 17.6275 107.232 17.6275C110.375 17.6275 110.296 20.6715 110.296 22.5061V35.9728H115.557V22.5333C115.557 19.3126 114.9 16.6491 113.19 14.8825ZM22.701 27.4797C21.7152 28.5224 20.5365 29.3496 19.2351 29.9123C17.9336 30.4748 16.5361 30.7614 15.1252 30.7546C9.2593 30.7546 4.99792 25.9984 4.99792 19.4756C4.99792 12.9528 9.2593 8.15587 15.1252 8.15587C16.5286 8.15753 17.9177 8.44526 19.2131 9.00258C20.5087 9.5599 21.6851 10.3758 22.6748 11.4037L23.464 12.2326L26.9888 8.60432L26.2128 7.77538C24.771 6.2504 23.0454 5.04278 21.14 4.22538C19.2344 3.40795 17.1885 2.99765 15.1252 3.01918C6.48413 3.01918 0 10.0312 0 19.4621C0 28.893 6.51043 35.9185 15.1252 35.9185C17.1973 35.9341 19.251 35.5146 21.1615 34.6853C23.0721 33.856 24.7993 32.6344 26.239 31.0944L27.015 30.2654L23.5297 26.5829L22.701 27.4797ZM141.073 34.5052C140.619 34.5156 140.169 34.418 139.757 34.2199C139.382 34.0507 139.06 33.7766 138.828 33.4282C138.596 33.0801 138.462 32.6717 138.442 32.2494H136.759C136.761 32.7899 136.881 33.3231 137.108 33.8097C137.336 34.2963 137.666 34.7243 138.074 35.0625C138.875 35.6772 139.852 35.9976 140.849 35.9728C141.517 36.0336 142.188 35.9352 142.813 35.6854C143.438 35.4356 143.999 35.0412 144.453 34.5324C145.195 33.5984 145.595 32.4248 145.584 31.2166C145.599 30.6556 145.496 30.0978 145.283 29.5819C145.07 29.0658 144.75 28.6035 144.348 28.227C143.536 27.4429 142.46 27.0186 141.349 27.0449C140.78 27.0312 140.213 27.1278 139.679 27.3301C139.378 27.4774 139.091 27.6549 138.824 27.8602L139.376 24.164H144.861V22.5061H138.166L137.193 29.6675L138.587 29.7627C138.856 29.3744 139.207 29.0539 139.613 28.8249C140.057 28.594 140.55 28.482 141.047 28.4988C141.773 28.486 142.478 28.7581 143.019 29.2598C143.299 29.5339 143.518 29.8686 143.659 30.2396C143.799 30.6107 143.86 31.0091 143.835 31.4069C143.838 32.1676 143.597 32.9081 143.151 33.5133C142.902 33.8267 142.586 34.0758 142.227 34.241C141.869 34.4059 141.478 34.4825 141.086 34.4645L141.073 34.5052ZM149.872 33.6083H147.991V35.6332H149.872V33.6083ZM160.131 24.4629C159.794 23.7821 159.273 23.2177 158.63 22.8386C157.988 22.4598 157.252 22.2828 156.514 22.3293C155.641 22.3225 154.79 22.6148 154.095 23.1608C153.4 23.7064 152.9 24.4752 152.673 25.3461C152.27 26.6032 152.079 27.9224 152.108 29.2463C152.03 30.8581 152.356 32.4635 153.055 33.9073C153.375 34.5593 153.87 35.1022 154.481 35.4709C155.093 35.8395 155.794 36.0187 156.5 35.9863C157.298 36.0132 158.083 35.7828 158.748 35.3274C159.412 34.8722 159.923 34.2143 160.21 33.4452C160.772 32.0239 161.036 30.4956 160.986 28.9608C161.07 27.3994 160.781 25.8405 160.144 24.4221L160.131 24.4629ZM158.5 33.3365C158.29 33.6922 157.994 33.9848 157.641 34.185C157.288 34.3854 156.89 34.4863 156.487 34.478C155.968 34.4697 155.466 34.2778 155.066 33.9342C154.667 33.5906 154.393 33.1158 154.291 32.5892C153.976 31.5335 153.829 30.432 153.857 29.3279C153.792 27.9359 154.016 26.5457 154.515 25.2511C154.688 24.8316 154.981 24.4769 155.355 24.2342C155.728 23.9912 156.165 23.8719 156.606 23.8922C157.065 23.8572 157.522 23.983 157.904 24.2493C158.286 24.5154 158.57 24.9065 158.71 25.3598C159.098 26.559 159.281 27.8191 159.249 29.0833C159.361 30.5296 159.107 31.9812 158.513 33.2959L158.5 33.3365Z" fill="#212121"/>
</svg>
