<svg width="280" height="259" viewBox="0 0 280 259" fill="none" xmlns="http://www.w3.org/2000/svg">
<path d="M54.7353 0.907144L53.6948 1.9886C52.6487 3.06466 43.519 12.7225 43.6365 19.7967C43.7339 25.9881 43.9035 36.5227 45.3747 46.8381C46.7143 56.163 42.8262 62.1189 42.7889 62.1853L14.4805 104.498C5.31466 115.945 0.458367 127.66 0.563169 133.966C0.592423 135.727 1.00959 137.069 1.82337 137.857C5.5743 141.469 20.4936 136.323 34.8603 123.995L41.9057 118.935C45.1405 122.507 61.3895 139.291 81.0255 139.113C91.9374 139.009 101.84 133.638 110.463 123.155C118.94 112.85 128.82 107.091 139.826 106.046C156.001 104.511 170.28 113.598 174.914 116.928L170.423 121.572C166.525 125.597 164.678 128.634 164.724 131.436C164.743 132.582 165.113 133.689 165.746 134.809C157.033 136.923 142.956 141.896 133.704 153.147C131.937 154.69 114.62 170.019 107.522 183.154C103.089 183.37 87.1 184.864 83.0878 195.227L82.4408 196.883L114.745 210.872L115.566 209.465C119.987 201.926 121.913 199.672 122.447 199.115C136.409 194.094 152.593 175.323 154.696 172.836C159.009 170.307 164.188 169.799 169.203 169.287C171.481 169.057 173.693 168.829 175.781 168.427C171.198 173.829 166.174 180.413 162.101 187.408C159.881 189.447 143.021 205.24 138.125 219.189C136.552 219.878 133.161 221.761 126.686 226.828L125.446 227.797L142.283 258.488L143.897 257.605C153.429 252.373 154.25 238.394 154.28 234.235C167.231 226.812 182.129 209.165 183.634 207.368C195.119 197.512 204.565 184.744 209.335 177.759C211.39 179.634 213.188 180.898 215.395 181.081C218.356 181.339 221.349 179.589 225.727 175.068L227.43 173.311C227.81 177.359 228.56 181.532 229.897 185.464L227.027 195.929C226.433 196.772 225.017 199.007 225.055 201.293C225.064 201.869 225.167 202.438 225.396 202.999C226.15 204.868 228.877 207.9 232.566 208.76C234.636 209.236 237.783 209.184 241.036 206.25C246.92 200.93 246.664 190.139 246.504 187.476C253.839 175.44 254.108 160.592 254.08 157.586C256.746 152.676 257.72 147.224 257.796 141.93L267.824 131.566C275.901 123.203 274.343 119.57 269.456 114.594C269.824 114.253 270.186 113.957 270.553 113.583C282.384 101.456 283.062 82.8601 272.057 72.1051C261.053 61.3502 242.469 62.4544 230.632 74.5708C230.201 75.0113 229.824 75.4455 229.442 75.8797C227.169 73.7507 225.241 72.2578 222.852 72.0562C219.892 71.8037 216.899 73.5484 212.521 78.0753L209.804 80.8796C204.868 78.6029 201.466 77.8366 200.245 77.6155C199.737 73.4551 197.556 59.0319 190.671 47.6709L191.26 36.8714C191.766 35.6836 193.061 32.1021 191.359 29.6291C190.223 27.953 186.915 25.5615 183.13 25.5092C181.012 25.484 177.953 26.1931 175.396 29.7517C173.225 32.7828 172.632 36.7147 172.692 40.2956C172.76 44.3811 173.664 47.9645 174.037 49.2912C171.949 55.3379 171.363 61.6284 171.452 66.9807C171.577 74.5319 172.966 80.1917 173.071 80.5904C174.612 91.8208 180.054 100.496 185.126 106.385L177.513 114.263C172.988 110.893 157.632 100.682 139.513 102.393C127.483 103.525 116.75 109.732 107.622 120.833C99.7197 130.437 90.7742 135.347 81.0028 135.438C63.6754 135.6 48.5481 120.64 44.9355 116.773L76.0871 94.4016C76.1358 94.3624 82.0404 90.2873 91.3311 91.3068C101.704 92.4454 112.165 92.2551 118.415 92.1458C125.488 92.0337 134.83 82.5753 135.865 81.4939L136.916 80.4178L115.04 48.094L113.936 47.0262L120.785 42.014L112.302 33.8062L114.599 32.1279L103.836 21.7145L102.23 24.078L93.6404 15.7568L88.8493 22.8138L87.4559 21.4711L54.7353 0.907144ZM187.053 46.42L177.338 47.3055C176.573 44.1367 175.172 36.3927 178.393 31.8796C179.701 30.0641 181.276 29.1493 183.086 29.1796C185.588 29.2093 187.844 30.993 188.322 31.6872C188.839 32.4465 188.346 34.4514 187.784 35.6127L187.603 36.3123L187.053 46.42ZM227.198 78.8132C226.931 79.2291 226.664 79.6449 226.434 80.0492C224.522 82.8072 223.729 85.5685 223.775 88.3104C223.781 88.6943 223.864 89.0714 223.903 89.4547C219.988 86.5138 216.403 84.2696 213.26 82.5939L215.168 80.6204C218.543 77.1304 220.887 75.5665 222.534 75.7092C223.863 75.8188 225.337 77.0504 227.198 78.8132ZM259.277 85.1643C265.994 91.7338 269.401 97.7221 269.49 103.074C269.55 106.666 268.118 109.97 265.185 112.97C264.521 113.645 263.856 114.21 263.184 114.715C255.198 119.258 247.531 114.597 238.823 106.102C230.104 97.5688 225.272 89.9805 229.695 81.8655C230.172 81.2048 230.704 80.5542 231.335 79.8964C238.647 72.4245 248.044 74.1937 259.277 85.1643ZM276.202 90.8182C276.274 95.1669 275.23 99.6384 273.105 103.782C273.254 97.2357 269.492 89.9917 261.854 82.5323C254.228 75.0783 246.924 71.4861 240.397 71.7701C250.142 66.4958 261.903 67.3316 269.474 74.7262C273.873 79.0359 276.096 84.8025 276.202 90.8182ZM257.607 136.815C257.007 130.116 255.263 124.139 253.956 120.441C257.89 121.21 261.567 120.359 264.96 117.96C265.504 117.649 266.046 117.306 266.599 116.918C270.999 121.261 271.355 122.604 265.171 128.988L257.607 136.815ZM233.172 187.489L242.855 188.683C242.931 191.94 242.667 199.81 238.561 203.521C236.897 205.03 235.157 205.585 233.4 205.181C230.956 204.618 229.126 202.405 228.817 201.626C228.479 200.781 229.402 198.873 230.175 197.89L230.499 197.242L233.172 187.489ZM211.406 174.664C211.855 173.971 212.208 173.427 212.416 173.078C216.608 170.578 222.455 164.343 227.362 158.612C227.161 161.083 227.019 164.064 227.073 167.344C227.079 167.706 227.113 168.095 227.125 168.456L227.064 168.397L223.079 172.501C219.704 175.996 217.361 177.554 215.707 177.412C214.466 177.312 213.1 176.248 211.406 174.664ZM165.241 138.778C167.821 145.169 173.289 149.478 179.347 149.662C184.899 149.828 189.479 146.565 191.59 140.934C194.846 132.208 202.798 130.935 205.23 130.746L222.78 147.893L244.889 125.255L219.546 100.492L197.431 123.125L201.98 127.569C197.719 128.567 191.207 131.424 188.141 139.642C186.592 143.788 183.428 146.095 179.461 145.985C175.719 145.872 171.228 143.308 168.858 137.928C171.885 137.274 173.867 137.044 173.927 137.037L174.918 136.938L175.375 136.053C179.371 128.335 199.773 112.209 199.978 112.046L197.698 109.155C197.53 109.284 196.648 109.984 195.322 111.065C190.893 107.524 179.008 96.6187 176.695 79.8719C176.618 79.5221 172.928 64.3999 177.318 51.0085L187.831 50.0494C195.084 62.4026 196.691 78.9143 196.71 79.084L196.811 80.1684L199.29 81.1804C199.4 81.2006 210.516 82.8424 225.767 95.6387C228.042 100.242 231.988 104.679 236.208 108.8C241.415 113.892 245.598 117.086 249.434 118.898C251.069 122.919 258.378 142.6 250.63 156.228L250.374 156.682L250.394 157.203C250.396 157.346 250.809 172.928 243.678 185.082L233.198 183.786C229.337 171.881 231.121 157.107 231.652 153.455C234.42 150.03 236.362 147.453 236.588 147.153L233.644 144.947C233.483 145.153 217.837 165.939 210.222 170.103L209.788 170.346L209.531 170.767C209.409 170.967 197.036 191.084 181.133 204.7L180.912 204.918C180.751 205.112 164.507 224.63 151.57 231.56L150.553 232.103L150.6 233.26C150.608 233.408 151.084 247.563 143.684 253.385L130.202 228.815C137.523 223.203 139.957 222.455 140.066 222.431L141.015 222.152L141.367 221.192C145.76 207.339 164.62 190.153 164.809 189.985L165.169 189.541C170.884 179.654 178.656 170.502 184.174 164.568L182.82 163.312L181.531 161.99C178.79 164.663 174.191 165.123 168.858 165.662C163.596 166.188 157.628 166.786 152.552 169.871L152.098 170.268C151.926 170.48 134.659 191.09 120.916 195.794L120.498 195.999C119.917 196.381 118.082 198.151 113.253 206.229L87.3453 195.003C92.3244 187.048 108.521 186.834 108.702 186.831L109.821 186.824L110.331 185.822C116.946 172.712 136.077 156.02 136.267 155.858L136.482 155.635C144.517 145.754 156.931 140.989 165.241 138.778ZM202.635 123.061L219.6 105.697L239.669 125.319L222.71 142.683L202.635 123.061ZM187.634 109.092C189.469 110.965 191.122 112.435 192.406 113.478C186.138 118.738 176.139 127.62 172.585 133.494C171.901 133.588 170.845 133.748 169.566 133.994C167.803 131.906 167.351 130.07 173.076 124.144L187.634 109.092ZM83.5941 23.3948C80.4259 26.799 78.1381 29.7169 76.5122 32.2013L64.729 20.7956L70.2985 15.0366L83.5941 23.3948ZM86.5382 25.6497L97.9533 36.6886L84.7063 50.3918L76.4851 42.4485C76.3027 41.7055 75.772 37.1614 86.5382 25.6497ZM113.481 52.2943L122.28 65.3294L116.711 71.0993L104.911 59.6829C107.334 57.975 110.184 55.5635 113.481 52.2943ZM94.678 60.0449L86.4678 52.1069L99.7203 38.4036L101.682 40.2964L102.424 41.0191L111.13 49.4371C99.9742 60.6096 95.4267 60.219 94.678 60.0449ZM100.131 27.1627L97.4438 31.1075L91.5412 25.4075L94.2287 21.4573L100.131 27.1627ZM108.894 31.74L102.761 36.2193L100.141 33.6847L104.418 27.4041L108.894 31.74ZM111.239 44.4271L105.442 38.8296L109.284 36.0176L115.075 41.6261L111.239 44.4271ZM128.884 82.8716L118.483 72.8032L123.691 67.4123L132.165 79.9811C131.29 80.8184 130.15 81.8357 128.884 82.8716ZM54.8003 105.145L94.8597 63.7171C96.5449 63.8098 99.1082 63.2844 102.795 61.0619L126.919 84.4017C124.015 86.5509 120.788 88.4202 118.348 88.4552C112.175 88.5578 101.862 88.7457 91.7198 87.6306C80.9622 86.46 74.2075 91.1909 73.9312 91.3985L54.8003 105.145ZM7.18402 123.16C8.01176 124.457 9.27738 126.032 11.295 127.979C13.3573 129.974 14.9955 131.198 16.336 131.998C9.79107 135.163 5.28215 135.77 4.35642 135.176C3.77694 134.297 4.23942 129.786 7.18402 123.16ZM83.9122 54.7494L91.3979 61.9919L38.0159 117.19L32.5855 121.092C27.6108 125.349 22.9894 128.432 18.9622 130.633C17.9686 130.243 16.0755 129.194 13.0824 126.298C9.98897 123.311 8.87205 121.442 8.46573 120.423C10.5152 116.363 13.4047 111.702 17.4451 106.665L21.2342 101.023L74.6593 45.7755L82.1451 53.0289M51.0864 11.0225L75.2042 34.3459C73.244 37.8343 72.7037 40.3062 72.7311 41.9513C72.734 42.1268 72.7582 42.2636 72.7773 42.4223L32.7394 83.8221L45.8555 64.2188C46.0481 63.9303 50.5458 57.0373 49.0238 46.3058C47.584 36.2256 47.4129 25.9324 47.3152 19.7246C47.2801 17.2787 49.0462 13.991 51.0864 11.0225ZM55.3348 5.63106L68.1702 13.6897L62.962 19.0806L52.5501 9.00696C53.5431 7.71236 54.5218 6.53868 55.3348 5.63106Z" fill="#0075FF"/>
</svg>
