<svg width="129" height="29" viewBox="0 0 129 29" fill="none" xmlns="http://www.w3.org/2000/svg">
<path fill-rule="evenodd" clip-rule="evenodd" d="M0 14.4997C0 6.50448 6.56538 0 14.6348 0C22.704 0 29.2701 6.50448 29.2703 14.4997C29.2703 22.4957 22.704 29 14.6348 29C6.56538 29 0 22.4957 0 14.4997ZM0.671039 14.4997C0.671039 22.1286 6.93542 28.3354 14.6348 28.3354C22.3339 28.3354 28.5978 22.1286 28.5978 14.4997C28.5978 6.87112 22.3339 0.664863 14.6348 0.664863C6.93519 0.664863 0.671039 6.87112 0.671039 14.4997ZM22.0748 10.4413C22.5528 11.27 23.1101 12.3346 23.1101 13.8719C23.1101 14.8711 22.7465 16.0207 22.2532 17.58L22.1543 17.8931L20.902 22.0392L16.3651 8.66756C17.1204 8.62833 17.802 8.549 17.802 8.549C18.4783 8.46974 18.3988 7.48485 17.7215 7.52437C17.7215 7.52437 15.6885 7.68224 14.3756 7.68224C13.142 7.68224 11.0687 7.52437 11.0687 7.52437C10.3921 7.48485 10.3128 8.5097 10.9893 8.549C10.9893 8.549 11.6299 8.62833 12.3059 8.66756L14.2619 13.9775L11.5144 22.1417L6.94259 8.66807C7.69939 8.62877 8.3795 8.54951 8.3795 8.54951C9.05558 8.47018 8.97576 7.48536 8.29902 7.52488C8.29902 7.52488 6.26629 7.68275 4.95312 7.68275C4.71734 7.68275 4.43975 7.67656 4.1452 7.66783C6.39004 4.29072 10.2488 2.0611 14.6348 2.0611C17.9033 2.0611 20.8792 3.29898 23.1128 5.32647C23.0935 5.32538 23.0744 5.32382 23.0554 5.32224C23.0207 5.31939 22.986 5.31654 22.9501 5.31654C21.7172 5.31654 20.8419 6.38093 20.8419 7.52437C20.8419 8.46974 21.3496 9.28148 21.928 10.2062C21.9765 10.2837 22.0255 10.3621 22.0748 10.4413ZM9.15592 25.6946C4.96817 23.6782 2.08024 19.4232 2.08024 14.4997C2.08024 12.6963 2.47059 10.9843 3.16719 9.43731L9.15592 25.6946ZM14.8551 15.5877L11.0883 26.4326C12.2129 26.7602 13.4024 26.9394 14.6348 26.9394C16.0968 26.9394 17.4989 26.6889 18.8039 26.2343C18.7702 26.181 18.7397 26.1244 18.7145 26.0629L14.8551 15.5877ZM25.7355 9.81082C25.7355 9.35332 25.7049 8.92798 25.6509 8.53175C26.6315 10.3036 27.1892 12.3372 27.1889 14.4999C27.1889 19.0888 24.6784 23.0953 20.946 25.2518L24.7809 14.2663C25.4976 12.492 25.7355 11.0731 25.7355 9.81082ZM87.6394 20.2124V20.7745H81.1432V20.2124C83.0445 20.2124 83.3846 19.7348 83.3846 16.9236V12.4267C83.3846 9.61555 83.0445 9.16605 81.1432 9.16605V8.60366H87.0156C89.9372 8.60366 91.5548 10.0934 91.5548 12.0894C91.5548 14.0288 89.9372 15.5465 87.0156 15.5465H85.3987V16.9233C85.3987 19.7348 85.7388 20.2124 87.6394 20.2124ZM87.0156 9.61555H85.3987V14.5065H87.0156C88.6047 14.5065 89.342 13.4104 89.342 12.0894C89.342 10.7403 88.6047 9.61555 87.0156 9.61555ZM45.2866 11.3022L43.3292 17.0365L40.5208 8.60395H39.9816L37.1164 17.0365L35.2158 11.3022C34.6198 9.55965 35.0739 9.16627 36.7478 9.16627V8.60395H30.4499V9.16627C32.0954 9.16627 32.5493 9.58782 33.2302 11.6397L36.379 21.2524H36.7478L39.6978 12.4546L42.5918 21.2524H42.9604L46.1947 11.6397C46.904 9.58782 47.3294 9.16627 49.1165 9.16627V8.60395H43.7833V9.16627C45.5989 9.16627 45.8542 9.64394 45.2866 11.3022ZM69.7395 11.4149H74.8178C78.8747 11.4149 80.6331 13.5228 80.6331 16.0805C80.6331 18.6387 78.874 20.7745 74.8178 20.7745H66.5623L63.4133 16.8679H62.9312V17.8796C62.9312 19.8751 63.1866 20.2406 64.7749 20.2406V20.7745H59.1298V20.2406C60.7182 20.2406 60.9735 19.8751 60.9735 17.8796V14.2816C60.9735 12.2859 60.7182 11.9486 59.1298 11.9486V11.4149H64.1225C66.6192 11.4149 67.9522 12.5955 67.9522 14.1411C67.9522 15.378 67.0162 16.4739 65.2575 16.7834L66.5623 18.1887C67.6971 19.4254 68.52 20.072 69.7395 20.2406C71.3281 20.2406 71.5833 19.8751 71.5833 17.8796V14.2816C71.5833 12.2859 71.3279 11.9486 69.7395 11.9486V11.4149ZM62.9315 12.2582V15.996L64.0944 15.9962C65.3708 15.9962 65.9384 15.1252 65.9384 14.1413C65.9384 13.1294 65.3708 12.2582 64.0944 12.2582H62.9315ZM74.9028 19.9032H74.7042C73.6832 19.9032 73.541 19.6505 73.541 18.3574V12.2582H74.9028C77.853 12.2582 78.3917 14.3941 78.3917 16.0526C78.3917 17.7669 77.853 19.9032 74.9028 19.9032ZM47.3005 16.0803C47.3005 18.8633 49.8537 21.1397 52.9741 21.1397C56.0947 21.1397 58.6477 18.8633 58.6477 16.0803C58.6477 13.3259 56.0947 11.0489 52.9741 11.0489C49.854 11.0489 47.3005 13.3259 47.3005 16.0803ZM49.4565 16.0805C49.4565 14.2535 50.3645 11.9209 52.9741 11.9209C55.6126 11.9209 56.5204 14.2535 56.5204 16.0805C56.5204 17.9359 55.6126 20.2406 52.9741 20.2406C50.3645 20.2406 49.4565 17.9359 49.4565 16.0805ZM110.902 18.6384L111.043 18.1328H111.469L111.299 20.7745H99.64L96.4913 16.8679H96.009V17.8796C96.009 19.8751 96.2641 20.2406 97.8524 20.2406V20.7745H92.2072V20.2406C93.7962 20.2406 94.0513 19.8751 94.0513 17.8796V14.2816C94.0513 12.2859 93.7955 11.9486 92.2072 11.9486V11.4149H97.2C99.6965 11.4149 101.03 12.5955 101.03 14.1411C101.03 15.378 100.094 16.4739 98.3347 16.7834L99.6393 18.1887C100.758 19.4072 101.575 20.0505 102.765 20.2306C104.018 20.165 104.235 19.7051 104.235 17.8796V14.2816C104.235 12.2859 103.979 11.9486 102.391 11.9486V11.4149H110.731L110.93 14.0568H110.476L110.334 13.5231C110.079 12.5955 109.767 12.2582 107.752 12.2582H106.193V15.406C108.405 15.406 108.575 15.2092 108.575 13.7477H109.114V17.9359H108.575C108.575 16.4741 108.405 16.2777 106.193 16.2777V17.5704C106.193 19.566 106.448 19.9032 107.922 19.9032H108.32C110.334 19.9032 110.646 19.566 110.902 18.6384ZM96.0083 12.2582V15.996L97.1714 15.9962C98.4483 15.9962 99.0156 15.1252 99.0156 14.1413C99.0156 13.1294 98.4483 12.2582 97.1714 12.2582H96.0083ZM114.249 20.184C114.674 20.5497 115.668 21.1397 116.802 21.1397C118.703 21.1397 120.263 19.9032 120.263 18.1328C120.263 17.2897 119.724 16.2493 118.363 15.6028L116.802 14.844C115.44 14.2256 114.844 13.8322 114.844 13.1015C114.844 12.3985 115.583 11.9488 116.377 11.9488C117.88 11.9488 118.618 13.045 118.816 14.3661H119.412V11.0491H118.874C118.788 11.3867 118.646 11.696 118.504 11.8085C118.022 11.4151 117.228 11.0778 116.291 11.0778C114.533 11.0778 113.256 12.23 113.256 13.5791C113.256 14.8156 114.107 15.7432 115.242 16.2777L116.859 17.0365C118.022 17.5704 118.675 18.1328 118.675 18.8635C118.675 19.7066 117.937 20.2124 117.029 20.2124C115.355 20.2124 114.051 19.1162 113.823 17.2613H113.256V21.1397H113.795C113.852 20.7464 114.107 20.3248 114.249 20.184ZM125.54 21.1397C124.404 21.1397 123.411 20.5497 122.986 20.184C122.845 20.3248 122.589 20.7464 122.532 21.1397H121.994V17.2613H122.561C122.787 19.1162 124.093 20.2124 125.766 20.2124C126.674 20.2124 127.412 19.7066 127.412 18.8635C127.412 18.1328 126.759 17.5704 125.596 17.0365L123.979 16.2777C122.845 15.7432 121.993 14.8156 121.993 13.5791C121.993 12.23 123.27 11.0778 125.029 11.0778C125.965 11.0778 126.759 11.4151 127.242 11.8085C127.383 11.696 127.525 11.3867 127.61 11.0491H128.149V14.3661H127.554C127.355 13.045 126.617 11.9488 125.114 11.9488C124.319 11.9488 123.582 12.3985 123.582 13.1015C123.582 13.8322 124.178 14.2256 125.54 14.844L127.099 15.6028C128.461 16.2493 129 17.2897 129 18.1328C129 19.9032 127.44 21.1397 125.54 21.1397Z" fill="#212121"/>
</svg>
