<svg width="57" height="57" viewBox="0 0 57 57" fill="none" xmlns="http://www.w3.org/2000/svg">
<g clip-path="url(#clip0_1_6726)">
<path fill-rule="evenodd" clip-rule="evenodd" d="M5.5 5.5H51.5V51.5H5.5V5.5ZM26.7014 34.7055H24.5871L19.0172 25.9181C18.8763 25.6958 18.7597 25.4651 18.6676 25.2262H18.6187C18.6621 25.4818 18.6838 26.0293 18.6838 26.8685V34.7055H16.8136V22.75H19.066L24.449 31.3289C24.6766 31.6847 24.823 31.9292 24.8881 32.0626H24.9206C24.8663 31.7459 24.8392 31.2095 24.8392 30.4535V22.75H26.7014V34.7055ZM13.6989 34.8888C13.3737 34.8888 13.0972 34.7805 12.8695 34.5637C12.6419 34.3414 12.528 34.0774 12.528 33.7717C12.528 33.4604 12.6419 33.1937 12.8695 32.9713C13.0972 32.749 13.3737 32.6378 13.6989 32.6378C14.0296 32.6378 14.3088 32.749 14.5365 32.9713C14.7696 33.1937 14.8861 33.4604 14.8861 33.7717C14.8861 34.0774 14.7696 34.3414 14.5365 34.5637C14.3088 34.7805 14.0296 34.8888 13.6989 34.8888ZM29.2626 34.7055H35.8082V33.0297H31.1979V29.4947H35.2067V27.819H31.1979V24.4342H35.5481V22.75H29.2626V34.7055ZM45.1112 24.4342H41.761V34.7055H39.8257V24.4342H36.4838V22.75H45.1112V24.4342Z" fill="#212121"/>
</g>
<defs>
<clipPath id="clip0_1_6726">
<rect width="46" height="46" fill="white" transform="translate(5.5 5.5)"/>
</clipPath>
</defs>
</svg>
