<svg width="122" height="33" viewBox="0 0 122 33" fill="none" xmlns="http://www.w3.org/2000/svg">
<path d="M33.6477 11L41.4419 21.4724V11H43V24H41.3525L33.559 13.4356V24H32V11H33.6477Z" fill="#CCCCCC"/>
<path d="M55 23.4081C53.9976 23.8032 52.9158 24 51.7565 24C47.2529 24 45 21.7738 45 17.3209C45 13.1072 47.174 11 51.5211 11C52.7685 11 53.9281 11.1798 54.9998 11.5388V12.9732C53.928 12.5547 52.8259 12.3451 51.6951 12.3451C48.3044 12.3451 46.6093 14.0043 46.6093 17.3209C46.6093 20.8768 48.2778 22.6557 51.618 22.6557C52.1506 22.6557 52.7418 22.5837 53.3917 22.4397V18.083H55V23.4081Z" fill="#CCCCCC"/>
<path d="M57 18.9258V11H58.5536V18.9256C58.5536 21.4052 59.7026 22.6463 61.9999 22.6463C64.2966 22.6463 65.4455 21.405 65.4455 18.9256V11H67V18.9256C67 22.3092 65.3333 24 61.9999 24C58.6667 24.0002 57 22.3092 57 18.9258Z" fill="#CCCCCC"/>
<path d="M78 22.6368V24H70V11H71.5853V22.6368H78Z" fill="#CCCCCC"/>
<path d="M84.9999 9L91 23H89.2702L87.7088 19.1072H83.7179L84.1476 17.8114H87.1862L84.933 12.2059L80.62 23H79L84.9999 9Z" fill="#CCCCCC"/>
<path d="M93 23.9994V11H98.4953C100.946 11 102.171 12.0397 102.171 14.1178C102.171 15.8091 100.974 17.0608 98.5767 17.8719L103 23.9994H100.801L96.7033 18.1545V17.0555C99.1648 16.6605 100.396 15.7062 100.396 14.1916C100.396 12.9921 99.7117 12.3912 98.3432 12.3912H94.666V24L93 23.9994Z" fill="#CCCCCC"/>
<path d="M109 11V20.255C109 22.7518 107.667 24 105 24V22.6367C106.65 22.6367 107.474 21.8418 107.474 20.2548V11H109Z" fill="#CCCCCC"/>
<path d="M111.413 23.4619V21.9376C112.652 22.4156 113.989 22.6556 115.426 22.6556C117.457 22.6556 118.473 21.8485 118.473 20.2336C118.473 18.8611 117.723 18.1722 116.227 18.1722H114.707C112.236 18.1722 111 17.0075 111 14.6764C111 12.2264 112.583 11 115.749 11C117.124 11 118.403 11.1807 119.587 11.5389V13.0629C118.403 12.5844 117.124 12.3452 115.749 12.3452C113.601 12.3452 112.528 13.1225 112.528 14.6764C112.528 16.0503 113.254 16.7379 114.707 16.7379H116.227C118.741 16.7379 120 17.9042 120 20.2336C120 22.7447 118.476 24 115.425 24C113.989 24 112.652 23.82 111.413 23.4619Z" fill="#CCCCCC"/>
<path d="M33.6475 11L41.441 21.4726V11H43V24H41.3523L33.5583 13.4356V24H32V11H33.6475Z" fill="#212121"/>
<path d="M54.9998 22.4083C53.9973 22.8033 52.9161 23 51.7565 23C47.2525 23 45 20.774 45 16.3211C45 12.1074 47.174 10 51.522 10C52.7683 10 53.9281 10.18 54.9998 10.5389V11.973C53.928 11.5545 52.8259 11.345 51.6957 11.345C48.3048 11.345 46.6095 13.0042 46.6095 16.3207C46.6095 19.8769 48.2786 21.6557 51.6179 21.6557C52.1507 21.6557 52.7426 21.5839 53.3923 21.4396V17.0828H55L54.9998 22.4083Z" fill="#212121"/>
<path d="M58 18.9267V11H59.5536V18.9265C59.5536 21.4059 60.7025 22.6463 63.0001 22.6463C65.2966 22.6463 66.4455 21.4058 66.4455 18.9265V11H68V18.9265C68 22.3099 66.3334 24 63.0001 24C59.6666 24 58 22.3103 58 18.9267Z" fill="#212121"/>
<path d="M79 22.6369V24H71V11H72.5854V22.6369H79Z" fill="#212121"/>
<path d="M85.0001 9L91 23H89.2694L87.7089 19.1078H83.7173L84.1486 17.8109H87.1855L84.9324 12.2057L80.6198 23H79L85.0001 9Z" fill="#212121"/>
<path d="M94 24V11H99.4956C101.946 11 103.17 12.0391 103.17 14.1181C103.17 15.8087 101.973 17.0611 99.5763 17.8721L104 24H101.801L97.703 18.1547V17.0545C100.165 16.6595 101.397 15.706 101.397 14.1905C101.397 12.9909 100.711 12.3908 99.3419 12.3908H95.6667V24H94Z" fill="#212121"/>
<path d="M109 11V20.2551C109 22.7526 107.666 24 105 24V22.6369C106.649 22.6369 107.474 21.8418 107.474 20.2549V11H109Z" fill="#212121"/>
<path d="M112.413 22.4617V20.9378C113.652 21.4156 114.989 21.6557 116.426 21.6557C118.457 21.6557 119.473 20.8484 119.473 19.2343C119.473 17.8611 118.723 17.1728 117.227 17.1728H115.707C113.236 17.1728 112 16.0075 112 13.6762C112 11.2262 113.583 10 116.749 10C118.124 10 119.403 10.1806 120.587 10.5388V12.063C119.403 11.5843 118.124 11.3451 116.749 11.3451C114.601 11.3451 113.528 12.1224 113.528 13.6764C113.528 15.0504 114.254 15.7378 115.707 15.7378H117.227C119.741 15.7378 121 16.9036 121 19.2343C121 21.7448 119.476 23 116.426 23C114.989 22.9998 113.652 22.8199 112.413 22.4617Z" fill="#212121"/>
<path d="M3.28405 25.2419L15.4691 32L27.7168 25.1504L30 6.04202L15.4537 1L1 6.13286L3.28405 25.2419Z" fill="#B3B3B3"/>
<path d="M15 30L25.8946 23.7977L28 6.56022L15 2V30Z" fill="#212121"/>
<path d="M15 30V2L2 6.64285L3.98811 23.8802L15 30Z" fill="#212121"/>
<path d="M19 16.7279L15.2547 18.4292H11.3072L9.45153 22.9379L6 23L15.2547 3L19 16.7279ZM18.6379 15.8713L15.2795 9.4126L12.5247 15.7602H15.2545L18.6379 15.8713Z" fill="#F2F2F2"/>
<path d="M17.9291 15.7269H15.0066L15 18.3789L19.0411 18.3829L20.9298 22.9407L24 23L15 3L15.0231 9.39337L17.9291 15.7269Z" fill="#B3B3B3"/>
</svg>
