<svg width="71" height="46" viewBox="0 0 71 46" fill="none" xmlns="http://www.w3.org/2000/svg">
<g clip-path="url(#clip0_1_6763)">
<mask id="mask0_1_6763" style="mask-type:luminance" maskUnits="userSpaceOnUse" x="0" y="0" width="71" height="46">
<path d="M71 0H0V46H71V0Z" fill="white"/>
</mask>
<g mask="url(#mask0_1_6763)">
<path d="M15.9805 46L2.9122 42.3014L0 9H32L29.0847 42.2961L15.9805 46Z" fill="#8B8B8B"/>
<path d="M26.524 40.0496L29 12H16V43L26.524 40.0496Z" fill="#CFCFCF"/>
<path d="M7 24L7.34658 28H16V24H7Z" fill="#EBEBEB"/>
<path d="M6 16L6.36252 20H16V16H15.9862H6Z" fill="#EBEBEB"/>
<path d="M16 34.6166L15.9821 34.6215L11.4117 33.3561L11.1195 30H8.89867H7L7.57493 36.6071L15.9811 39L16 38.9947V34.6166Z" fill="#EBEBEB"/>
<path d="M8 0H13V2.00001H10.0909V4H13V6H8V0Z" fill="#212121"/>
<path d="M14 0H19V1.71429H16.0909V2.05714H19V6H14V4.19999H16.9091V3.85714H14V0Z" fill="#212121"/>
<path d="M19 0H24V1.71429H21.0909V2.05714H24V6H19V4.19999H21.9091V3.85714H19V0Z" fill="#212121"/>
<path d="M25.2793 24.2215L26 16H16V20.062H21.6251L21.2618 24.2215H16V28.2833H20.9157L20.4523 33.5513L16 34.7741V39L24.1839 36.6921L24.2438 36.0059L25.182 25.3122L25.2793 24.2215Z" fill="#212121"/>
<path d="M70 9L67.0846 42.2961L53.9804 46L40.9122 42.3014L38 9H70Z" fill="#8B8B8B"/>
<path d="M55 43L65.524 40.0496L68 12H55V43Z" fill="#CFCFCF"/>
<path d="M48.3584 19.9683H54V16H53.9862H44L44.0954 17.0646L45.0757 28H54V24.0319H48.7228L48.3584 19.9683Z" fill="#EBEBEB"/>
<path d="M50.1196 30H47.8986H46L46.575 36.6071L54.981 39L55 38.9947V34.6166L54.982 34.6215L50.4116 33.3561L50.1196 30Z" fill="#EBEBEB"/>
<path d="M41 0H43.0585V1.98135H44.9414V0H47V6H44.9415V3.99085H43.0586V6H41.0001L41 0Z" fill="#212121"/>
<path d="M49.913 1.98969H48V0H54V1.98969H52.0861V6H49.9131L49.913 1.98969Z" fill="#212121"/>
<path d="M55 0H57.1671L58.5002 2.10822L59.8321 0H62V6H59.9302V3.02607L58.5002 5.15941H58.4645L57.0336 3.02607V6H55V0Z" fill="#212121"/>
<path d="M63 0H65.0782V4.01674H68V6H63V0Z" fill="#212121"/>
<path d="M55 28.1228H59.7678L59.3183 33.4697L55 34.7108V39L62.9376 36.6576L62.9957 35.961L63.9056 25.1071L64 24H62.9566H55V28.1228Z" fill="#212121"/>
<path d="M55 19.9902V20H64.6297H64.6425L64.7226 19.1009L64.9045 17.0731L65 16H55V18.4844V19.9902Z" fill="#212121"/>
</g>
</g>
<defs>
<clipPath id="clip0_1_6763">
<rect width="71" height="46" fill="white"/>
</clipPath>
</defs>
</svg>
