<svg width="79" height="42" viewBox="0 0 79 42" fill="none" xmlns="http://www.w3.org/2000/svg">
<path fill-rule="evenodd" clip-rule="evenodd" d="M46.9242 1.07106C47.2533 0.262196 47.8928 -0.0177982 48.6245 0.000868082C49.8427 0.0195344 51.3183 0.834628 52.0671 1.30129C52.1874 1.37982 52.3139 1.49007 52.4427 1.60242C52.6329 1.76823 52.8282 1.93864 53.017 2.01838C53.5474 2.04794 54.0653 2.07905 54.5957 2.11483C54.7282 2.14634 54.8597 2.1767 54.9901 2.20678C55.8181 2.39788 56.5952 2.57728 57.2583 2.96569C60.8648 5.06876 63.1937 7.21383 65.3573 10.7558C65.6596 11.2534 65.8657 11.7831 66.077 12.3258C66.1807 12.5922 66.2858 12.8622 66.4039 13.1326C66.9355 14.3537 67.5067 15.5572 68.1167 16.7414C68.2095 16.918 68.2934 17.1001 68.3769 17.2813C68.5515 17.6602 68.7245 18.0357 68.9746 18.3514C69.0784 18.4823 69.2911 18.5536 69.4922 18.6211C69.5994 18.657 69.7033 18.6919 69.7857 18.734C70.0525 18.8683 70.3367 18.9908 70.6229 19.1142C71.0896 19.3154 71.5617 19.519 71.9726 19.7794C73.1737 20.5322 74.3374 21.4375 75.4044 22.3428C75.6348 22.5385 75.8206 22.786 76.0054 23.0323C76.1483 23.2226 76.2907 23.4123 76.4526 23.5764V23.7708C76.1172 23.8626 75.7818 23.959 75.4464 24.0571C75.0797 24.1507 74.7382 24.1859 74.3989 24.2208C74.0569 24.2558 73.7172 24.2908 73.3563 24.3853C73.2787 24.4062 73.1973 24.429 73.1132 24.4525L73.1101 24.4533C72.7334 24.5588 72.303 24.6791 71.9305 24.7197L71.9804 24.7679C72.1746 25.3158 72.9988 25.8002 73.6847 26.2032C73.9411 26.3539 74.1787 26.4935 74.3561 26.6205C75.1851 27.2028 75.9223 27.9053 76.5431 28.7049L77.1717 29.3303C77.2382 29.4254 77.2813 29.5356 77.3245 29.646C77.3724 29.7685 77.4205 29.8914 77.5008 29.9945V30.0411C77.3106 29.9746 77.1821 29.8438 77.0539 29.7134C76.9845 29.6429 76.9153 29.5724 76.8363 29.5122C76.6989 29.4127 76.5597 29.309 76.4196 29.2044L76.4178 29.203L76.4163 29.2019L76.4153 29.2011C76.097 28.9637 75.7733 28.7223 75.4528 28.5167C75.0439 28.2594 74.6017 28.0586 74.1573 27.8568C73.7419 27.6682 73.3245 27.4786 72.9304 27.2412C72.5609 27.0129 72.2073 26.746 71.86 26.484C71.7719 26.4175 71.6842 26.3513 71.5967 26.2861C71.2005 25.989 70.7607 25.4244 70.4985 25.0044C70.4418 24.9122 70.4037 24.8112 70.3663 24.7119C70.3153 24.5764 70.2655 24.444 70.171 24.3417C70.2054 24.0562 70.4844 23.9803 70.7531 23.9072C70.8505 23.8807 70.9464 23.8546 71.0289 23.819C72.1192 23.357 73.3999 23.2062 75.0752 23.2482C75.0324 22.9102 74.3859 22.5196 73.9442 22.2526C73.8229 22.1794 73.7169 22.1154 73.6433 22.0644C73.5222 21.9785 73.4006 21.8913 73.2784 21.8039C72.7171 21.4018 72.1424 20.9902 71.5468 20.6365C71.3118 20.4937 70.9619 20.3708 70.6363 20.2566C70.4473 20.1902 70.2665 20.1268 70.121 20.064C69.9487 19.9921 69.7126 19.9201 69.4583 19.8426C68.877 19.6656 68.2009 19.4595 67.9763 19.1587C67.3758 18.3598 66.956 17.3984 66.5352 16.4343L66.5022 16.3588C66.3014 15.9077 66.076 15.4439 65.8491 14.9768C65.5806 14.4244 65.3098 13.8669 65.0749 13.3208C64.9852 13.1158 64.9139 12.9181 64.8438 12.7236C64.7432 12.4444 64.6448 12.1716 64.4977 11.8928C62.995 8.98287 60.7423 6.5244 57.9712 4.7701C57.0759 4.20545 56.0822 3.68279 54.9731 3.34836C54.6388 3.24365 54.2669 3.22735 53.8895 3.21081C53.566 3.19663 53.2383 3.18227 52.9266 3.11192H52.4992C52.2564 3.03788 52.0414 2.84804 51.8362 2.66694C51.7224 2.56644 51.6116 2.46864 51.5009 2.39482C50.855 1.97016 50.214 1.66528 49.4527 1.3495C49.161 1.22817 48.3935 0.948182 48.119 1.16129C47.9537 1.21573 47.8804 1.28262 47.832 1.44751C47.6682 1.69016 47.8195 2.0666 47.924 2.29838C48.1369 2.75581 48.4098 3.08898 48.6879 3.42867C48.8156 3.5845 48.9444 3.74181 49.069 3.91301C49.1158 3.9776 49.1637 4.04323 49.2123 4.10978C49.5385 4.5561 49.8946 5.04342 50.1172 5.53075C50.4189 6.17899 50.7013 6.87957 50.9804 7.57219C51.2036 8.1261 51.4248 8.67491 51.6521 9.18779C51.8581 9.65697 52.1138 10.1028 52.4149 10.5177C52.4968 10.6312 52.6041 10.7339 52.7132 10.8385C52.9033 11.0205 53.0988 11.2078 53.1762 11.4666C53.3778 11.7879 53.0229 12.7165 52.7949 13.3131C52.7338 13.4731 52.6817 13.6094 52.652 13.7034C52.0983 15.399 52.2199 17.7789 52.8408 19.2567L52.8662 19.3178L52.8884 19.3719C53.1171 19.9265 53.366 20.5304 53.9857 20.6831C53.9937 20.6757 53.9991 20.6704 54.0029 20.6667L54.0092 20.6606C54.0107 20.6593 54.012 20.6582 54.0134 20.6575L54.0151 20.6566C54.0174 20.6556 54.0203 20.6548 54.025 20.6535C54.0338 20.6511 54.0486 20.647 54.0777 20.6365C54.1045 20.4195 54.1282 20.2039 54.1516 19.9908C54.2508 19.0871 54.345 18.228 54.6517 17.5005C54.7997 17.1481 55.0304 16.8666 55.2587 16.5879C55.3962 16.42 55.5328 16.2532 55.6502 16.0726C55.8025 16.1626 55.8521 16.3628 55.9018 16.5622C55.9258 16.659 55.9498 16.7556 55.9854 16.8394L56.0895 17.0818C56.3377 17.6609 56.5993 18.2714 56.8933 18.8305C57.5685 20.1563 58.3483 21.4265 59.2253 22.6291C59.5562 23.0702 59.9213 23.4847 60.3173 23.8688C60.3753 23.9238 60.4382 23.9694 60.5005 24.0145C60.6088 24.0931 60.7157 24.1706 60.793 24.295H60.8414V24.3417C60.4304 24.2018 60.1225 23.8858 59.8237 23.5792C59.6575 23.4087 59.4941 23.241 59.3174 23.1082C58.3674 22.3864 57.2397 21.3225 56.6001 20.302C56.3146 19.7374 56.0276 19.1649 55.7468 18.594V18.5458C55.6697 18.6454 55.6565 18.7531 55.6413 18.8772C55.6325 18.9489 55.6231 19.0262 55.6002 19.1105C55.5247 19.4078 55.4873 19.7159 55.451 20.0133C55.3591 20.7682 55.2754 21.4555 54.6019 21.73C53.5287 22.1609 52.744 21.0253 52.4087 20.4902C51.3293 18.7636 51.0501 15.8532 51.7925 13.5137C51.8491 13.3338 51.8883 13.1398 51.9275 12.9459C52.002 12.5783 52.0763 12.211 52.2683 11.941C52.236 11.6964 52.091 11.5667 51.9459 11.4368C51.8742 11.3727 51.8024 11.3084 51.7441 11.2302C51.4571 10.8414 51.2076 10.384 50.983 9.94843L50.8893 9.76677C50.4626 8.93954 49.959 7.96319 49.6352 7.09872C49.5745 6.93344 49.5356 6.77172 49.4972 6.61215C49.4477 6.40678 49.3992 6.20496 49.3061 6.00364C49.1149 5.59016 48.8057 5.17669 48.5158 4.78909C48.4271 4.67069 48.3404 4.55471 48.2594 4.44189C48.1786 4.33017 48.0745 4.20195 47.959 4.05979C47.3591 3.32115 46.4532 2.20596 46.9242 1.07106ZM52.9266 5.25076C53.208 5.18379 53.4967 5.15139 53.7861 5.15431V5.15276C53.8564 5.22283 53.9423 5.28279 54.0289 5.34321C54.1519 5.42899 54.2762 5.51567 54.3585 5.63342C54.3985 5.69377 54.425 5.75597 54.4512 5.81686C54.4883 5.9035 54.5242 5.98747 54.5957 6.05963C54.5957 6.56362 54.4553 6.89806 54.1635 7.10339L54.1137 7.15317L53.6457 6.14985C53.5648 6.03653 53.4701 5.93409 53.3748 5.83108C53.2254 5.66967 53.0749 5.50693 52.975 5.29898H52.9266V5.25076ZM2.91853 24.8814C2.45056 24.9001 1.93736 24.9903 1.3836 25.1677C0.457043 25.4477 0 25.9999 0 27.1245V38.889H3.12599V27.4108L7.45776 37.2245C7.99436 38.4456 8.72594 38.8828 10.1563 38.8828C11.5961 38.8828 12.2965 38.4456 12.8331 37.2245L17.1648 27.658V38.889H20.2846V27.1245C20.2846 26.0015 19.8322 25.4477 18.901 25.1692C16.6828 24.4692 15.1901 25.0713 14.5209 26.5847L10.0721 36.5618L5.76998 26.5847C5.2833 25.4493 4.30837 24.827 2.91853 24.883V24.8814ZM35.8834 27.9988C35.8834 25.0339 39.716 24.8877 40.9483 24.8877L48.3624 24.8892V26.4448H40.5084C39.4243 26.5412 39.1498 27.3812 39.0032 28.0002V29.5558C39.1498 30.3694 39.3385 31.1113 40.563 31.1113H43.6827C45.3893 31.1113 48.3624 31.2094 48.3624 33.5939V35.8183C48.3624 36.8886 47.8196 37.702 46.503 38.3041C45.7121 38.6743 44.7185 38.8874 43.6952 38.8874H35.8834V37.3319H43.664C45.1943 37.3319 45.2426 35.9895 45.2426 35.7763V34.2209C45.2426 34.2075 45.2436 34.1887 45.2446 34.1654C45.2601 33.8466 45.3176 32.6653 43.6827 32.6653C43.5969 32.6466 40.563 32.7073 40.563 32.7073C40.3193 32.7073 40.0744 32.691 39.8302 32.6747L39.6863 32.6653C37.0845 32.3916 35.8834 31.2793 35.8834 29.9183V27.9988ZM53.0108 24.8877C50.7084 25.2035 49.8973 26.3468 49.8973 27.9988V35.7763C49.8973 37.2899 50.7443 38.2014 52.4867 38.6743C53.0732 38.8392 53.602 38.9061 54.1027 38.9061L57.575 38.889H59.6169L61.353 40.4444H64.8627L62.4496 38.2745C63.5836 37.8079 63.9362 37.0907 63.9362 35.7468V28.0002C63.9362 26.3468 62.8583 25.205 60.5544 24.8892L53.0108 24.8877ZM65.521 35.711V24.8892H68.6407V35.7001C68.6407 36.6583 69.1836 37.3334 70.7918 37.3334H78V38.889H70.2006C70.0023 38.889 69.8004 38.8782 69.6002 38.8676L69.5083 38.8628L69.4082 38.8579C66.588 38.6463 65.521 37.5885 65.521 35.711ZM54.8702 26.4448H58.8853C59.9461 26.4448 60.6589 27.2956 60.8164 28.0002C60.8164 28.0002 60.8414 35.2428 60.8414 35.7779C60.8414 36.313 60.5434 36.5556 60.5434 36.5556L59.6965 35.7779H56.1618L57.8979 37.3334H54.8702C53.7861 37.3334 53.1762 36.5308 53.017 35.7779V28.159C53.017 27.3314 53.6519 26.4448 54.8702 26.4448ZM21.8466 36.035C21.8572 34.7657 21.8998 29.6109 21.8445 29.5558H24.9642V36.1248C24.9392 36.453 25.0672 37.3085 26.5725 37.3334C27.2718 37.3447 30.5011 37.3355 31.1063 37.3337C31.1653 37.3335 31.1995 37.3334 31.2038 37.3334V29.5558H34.3235C34.3352 29.5558 34.325 38.0989 34.3236 39.1582L34.3235 39.2654C34.3422 41.6469 31.3566 41.958 29.9792 42H21.8445V40.4445H29.6439C31.2683 40.2721 31.2256 39.442 31.207 39.0789C31.2053 39.0456 31.2038 39.0162 31.2038 38.9916V38.889H26.3105C23.5993 38.8641 21.8694 37.6741 21.8445 36.313C21.8445 36.2984 21.8453 36.1992 21.8466 36.035Z" fill="#212121"/>
</svg>
