<svg width="110" height="31" viewBox="0 0 110 31" fill="none" xmlns="http://www.w3.org/2000/svg">
<g clip-path="url(#clip0_1_6821)">
<path fill-rule="evenodd" clip-rule="evenodd" d="M56.2684 0.0578157C56.1303 -0.0209473 55.9616 -0.0191246 55.8251 0.0626043C55.6887 0.144333 55.6051 0.293703 55.6053 0.455024V12.0284C55.7344 12.1058 55.7907 12.2661 55.7393 12.4095C55.6879 12.5529 55.5432 12.6383 55.3957 12.6125C55.2481 12.5867 55.1397 12.4571 55.138 12.3045L53.2913 11.2161C53.0159 11.0537 52.6764 11.0537 52.4011 11.2161L45.0248 15.5712C44.7488 15.7333 44.5793 16.0343 44.5793 16.3594V25.0695C44.5793 25.3945 44.7488 25.6947 45.0248 25.8576L52.4011 30.2145C52.6763 30.3774 53.0161 30.3774 53.2921 30.2145L60.6693 25.8576C60.9445 25.6947 61.1148 25.3945 61.1148 25.0685V3.35838C61.1148 3.02886 60.9402 2.72339 60.658 2.56219L56.2684 0.0578157ZM55.5844 22.207C55.5843 22.2883 55.5417 22.3634 55.4725 22.4039L52.9392 23.8974C52.8706 23.9378 52.786 23.9378 52.7173 23.8974L50.1841 22.4039C50.1152 22.3632 50.0729 22.2882 50.0731 22.207V19.2164C50.0731 19.1345 50.115 19.0597 50.1841 19.0187L52.7173 17.5225C52.7862 17.4817 52.8713 17.4817 52.9401 17.5225L55.4734 19.0187C55.5415 19.0597 55.5835 19.1345 55.5835 19.2164V22.207H55.5844ZM16.1503 15.7458C16.4254 15.9004 16.5967 16.1949 16.5976 16.5152V16.5161L16.5827 27.8829C16.5793 28.0436 16.4929 28.1905 16.3553 28.2691C16.2179 28.3478 16.0499 28.3466 15.9135 28.2658L11.5143 25.7695C11.2405 25.6138 11.0695 25.3205 11.0662 25.0009V19.6894C11.0652 19.3695 10.8939 19.0755 10.619 18.9216L8.74605 17.8529C8.46882 17.6931 8.12967 17.6931 7.85236 17.8529L5.97861 18.9225C5.7017 19.0793 5.53223 19.3723 5.53223 19.6894V25.0018C5.52932 25.3215 5.3582 25.615 5.0841 25.7704L0.683994 28.2676C0.546668 28.3495 0.37668 28.3495 0.239354 28.2676C0.0987119 28.1892 0.0165976 28.0423 0.0165976 27.8846L0 16.5152C0.00135736 16.1946 0.172824 15.8998 0.448134 15.7449L7.85236 11.5234C7.97993 11.4512 8.11973 11.413 8.26122 11.4067H8.33811C8.48128 11.4117 8.62123 11.4517 8.74605 11.5234L16.1503 15.7458ZM82.5182 19.244C82.8086 19.0704 82.9875 18.7488 82.9875 18.4024V16.1447C82.9875 15.7974 82.8086 15.4768 82.5182 15.3023L74.7502 10.648C74.4584 10.4727 74.0965 10.472 73.8041 10.6462L65.9884 15.3031C65.6966 15.4768 65.5167 15.7983 65.5167 16.1465V25.4586C65.5167 25.8086 65.6992 26.1319 65.9937 26.3047L73.7596 30.8717C74.047 31.0409 74.3973 31.0427 74.6855 30.877L79.3835 28.183C79.5341 28.0974 79.6273 27.936 79.6289 27.7605C79.6304 27.5848 79.5387 27.4221 79.3896 27.3343L71.525 22.6764C71.3774 22.5887 71.2869 22.4275 71.2874 22.2534V19.3349C71.2874 19.1612 71.3774 19 71.5233 18.9127L73.9718 17.4566C74.1173 17.3699 74.2972 17.3699 74.4427 17.4566L76.8909 18.9127C77.0377 19 77.1271 19.1612 77.1271 19.3349V21.6308C77.1271 21.8054 77.2181 21.9666 77.3648 22.053C77.5101 22.14 77.6905 22.14 77.8364 22.053L82.5182 19.244ZM30.5631 11.5314C30.8392 11.3659 31.1815 11.3659 31.4576 11.5314L38.8627 15.9631C39.1397 16.1287 39.31 16.4351 39.31 16.7664V25.6368C39.31 25.9681 39.1397 26.2745 38.8627 26.4401L31.4576 30.8753C31.1815 31.0408 30.8392 31.0408 30.5631 30.8753L23.1597 26.4401C22.8818 26.2718 22.7116 25.9663 22.7125 25.6368V16.7664C22.7125 16.4342 22.8828 16.1287 23.1597 15.9631L30.5631 11.5306V11.5314ZM96.2056 30.7987C96.4364 30.9314 96.6994 31 96.9631 31C97.2306 31 97.492 30.9314 97.7228 30.7987L104.942 26.653C105.409 26.3822 105.7 25.8817 105.7 25.3428V17.0576C105.7 16.5188 105.409 16.0174 104.942 15.7484L97.7228 11.5991C97.2489 11.342 96.6802 11.342 96.2056 11.5991L88.9862 15.7484C88.5184 16.0156 88.2295 16.5188 88.2295 17.0567V25.3438C88.2318 25.8873 88.5214 26.3874 88.9862 26.653L90.8795 27.7368C91.7967 28.1866 92.1254 28.1866 92.5428 28.1866C93.9003 28.1866 94.6807 27.3699 94.6807 25.9449V17.7638C94.6807 17.648 94.5851 17.5573 94.4705 17.5573H93.5555C93.4394 17.5573 93.3453 17.648 93.3453 17.7638V25.9449C93.3453 26.5764 92.6888 27.2051 91.6156 26.6717L89.6382 25.5352C89.5686 25.4978 89.5243 25.423 89.5243 25.3428V17.0567C89.5258 16.9752 89.5686 16.9003 89.6382 16.8599L96.853 12.7186C96.9225 12.6796 97.0066 12.6796 97.0754 12.7186L104.292 16.859C104.361 16.9001 104.404 16.9752 104.405 17.0567V25.3428C104.404 25.4233 104.362 25.4977 104.294 25.5379L97.0747 29.6819C97.0043 29.7189 96.921 29.7189 96.8515 29.6819L94.9994 28.5882C94.9444 28.5562 94.8725 28.5446 94.8198 28.5749C94.3077 28.8634 94.2106 28.9017 93.7298 29.0683C93.6121 29.1083 93.4355 29.1796 93.7955 29.38L96.2056 30.7987ZM109.999 13.1095C109.997 14.0131 109.278 14.7449 108.393 14.7474C107.507 14.7449 106.789 14.013 106.787 13.1095C106.787 12.205 107.506 11.4717 108.393 11.4717C109.281 11.4717 109.999 12.205 109.999 13.1095ZM108.389 14.4829C107.649 14.4829 107.047 13.8675 107.047 13.1051C107.047 12.3338 107.658 11.7363 108.389 11.7363C109.129 11.7363 109.74 12.3427 109.74 13.1051C109.74 13.855 109.137 14.4829 108.389 14.4829ZM107.789 12.1905H108.41C108.623 12.1905 109.039 12.1905 109.039 12.6767C109.039 13.0131 108.828 13.0833 108.7 13.1261L108.698 13.1265C108.938 13.1438 108.961 13.2998 108.993 13.5233L108.996 13.5433L109 13.5801C109.018 13.7285 109.044 13.9484 109.09 14.0278H108.708C108.704 13.9907 108.691 13.8831 108.678 13.7703L108.677 13.7689C108.659 13.6196 108.639 13.4618 108.639 13.4471C108.614 13.3438 108.58 13.2913 108.452 13.2913H108.137V14.0278H107.789V12.1905ZM108.41 12.9965H108.13V12.4853H108.419C108.513 12.4853 108.682 12.4853 108.682 12.7373C108.682 12.8326 108.639 12.9965 108.41 12.9965ZM99.6903 24.7658C96.7146 24.7658 96.0909 23.3123 96.0909 22.094C96.0909 21.9782 96.1788 21.8847 96.2874 21.8847H97.1664C97.2657 21.8864 97.3491 21.9622 97.3621 22.0628C97.495 23.0148 97.891 23.4949 99.6895 23.4949C101.122 23.4949 101.732 23.1502 101.732 22.3415C101.732 21.8758 101.558 21.5293 99.3326 21.2978C97.4721 21.1018 96.3225 20.6645 96.3225 19.0802C96.3225 17.6205 97.4782 16.7503 99.4167 16.7503C101.595 16.7503 102.674 17.5545 102.81 19.2805C102.814 19.3393 102.795 19.3974 102.757 19.4418C102.721 19.4834 102.669 19.5076 102.614 19.5086H101.732C101.638 19.5069 101.558 19.4385 101.54 19.3447C101.329 18.3428 100.814 18.023 99.4174 18.023C97.8543 18.023 97.6716 18.6019 97.6716 19.0366C97.6716 19.5629 97.8856 19.7161 99.9976 20.0135C102.087 20.3074 103.079 20.7233 103.079 22.2863C103.079 23.8627 101.844 24.7658 99.6903 24.7658ZM74.1579 18.5538C74.217 18.5239 74.2865 18.5239 74.3457 18.5538L75.905 19.3598C75.9615 19.3864 75.9981 19.4434 75.9994 19.5068V21.1188C75.9994 21.1793 75.9635 21.2345 75.905 21.2657L74.3457 22.0717C74.2865 22.1016 74.217 22.1016 74.1579 22.0717L72.5986 21.2657C72.5429 21.2389 72.5068 21.1824 72.5051 21.1196V19.5068C72.5051 19.4453 72.5409 19.391 72.5986 19.3598L74.1579 18.5538Z" fill="#212121"/>
</g>
<defs>
<clipPath id="clip0_1_6821">
<rect width="110" height="31" fill="white"/>
</clipPath>
</defs>
</svg>
