<svg width="62" height="79" viewBox="0 0 62 79" fill="none" xmlns="http://www.w3.org/2000/svg">
<g clip-path="url(#clip0_1_6836)">
<path d="M51.5724 38.5183C55.6576 35.7067 58.476 31.0674 58.476 25.7241C58.476 17.2893 51.5724 10.2625 42.977 10.2625H27.6184V1.82774C27.6184 0.843899 26.7724 0 25.7862 0C24.8 0 23.9541 0.843899 23.9541 1.82774V10.2625H15.4989H12.1152H1.83216C0.845938 10.2625 0 11.1064 0 12.0902C0 13.0741 0.845938 13.918 1.83216 13.918H10.2873V39.5021V65.0863H1.83216C0.845938 65.0863 0 65.9302 0 66.914C0 67.8978 0.845938 68.7418 1.83216 68.7418H12.1194H24.0986V77.1765C24.0986 78.1603 24.9445 79.0042 25.9308 79.0042C26.917 79.0042 27.7629 78.1603 27.7629 77.1765V68.7418H46.5053C54.9604 68.7418 62.0042 61.8549 62.0042 53.2802C61.8597 46.389 57.4897 40.6259 51.5724 38.5183ZM15.6392 13.7738H42.977C49.6 13.7738 54.9519 19.1171 54.9519 25.7241C54.9519 32.3311 49.6 37.6744 42.977 37.6744H13.9516V13.7738H15.6392ZM46.3608 64.9421H13.9516V41.1857H42.9813H46.365C52.988 41.1857 58.3399 46.529 58.3399 53.136C58.3357 59.603 52.9837 64.9421 46.3608 64.9421Z" fill="#212121"/>
</g>
<defs>
<clipPath id="clip0_1_6836">
<rect width="62" height="79" fill="white"/>
</clipPath>
</defs>
</svg>
