<svg width="24" height="24" viewBox="0 0 24 24" fill="none" xmlns="http://www.w3.org/2000/svg">
<path d="M23.999 12.074C23.999 5.40511 18.6268 0 11.9995 0C5.37222 0 0 5.40511 0 12.074C0 18.0989 4.38818 23.0934 10.1244 23.999V15.5633H7.07829V12.0729H10.1244V9.41366C10.1244 6.38712 11.9165 4.71588 14.6566 4.71588C15.9697 4.71588 17.3427 4.95133 17.3427 4.95133V7.92253H15.8307C14.3406 7.92253 13.8756 8.85323 13.8756 9.80807V12.074H17.2037L16.6717 15.5643H13.8756V24C19.6118 23.0945 24 18.0999 24 12.074H23.999Z" fill="#0075FF"/>
</svg>
