<svg width="216" height="70" viewBox="0 0 216 70" fill="none" xmlns="http://www.w3.org/2000/svg">
<path d="M197.856 10.56H198.502C198.908 10.56 199.278 10.7719 199.474 11.1299C200.243 12.5181 201.803 13.4094 203.537 13.1683C205.344 12.9199 206.78 11.4295 206.976 9.60291C207.237 7.16264 205.329 5.09498 202.964 5.1096C201.447 5.1169 200.134 5.97173 199.459 7.22109C199.263 7.57909 198.893 7.79097 198.487 7.79828H197.783C197.152 7.79828 196.55 7.9371 195.998 8.1782C195.578 5.13151 192.966 2.77892 189.831 2.79353C189.41 2.79353 189.026 2.56704 188.837 2.19442C188.097 0.747794 186.515 -0.1874 184.745 0.0317864C182.924 0.265585 181.458 1.76336 181.262 3.60452C181.001 6.04479 182.909 8.11244 185.275 8.09783C186.74 8.09053 188.017 7.29415 188.721 6.10324C188.917 5.76715 189.28 5.56258 189.672 5.56258H189.838C191.747 5.55527 193.307 7.10419 193.314 9.03303L193.328 12.1162C193.328 12.1893 193.321 12.2551 193.321 12.3281C193.321 12.9491 193.452 13.5336 193.677 14.067L184.498 14.1108C184.092 14.1108 183.722 13.899 183.526 13.541C182.757 12.1528 181.197 11.2614 179.463 11.5025C177.656 11.7509 176.22 13.2414 176.024 15.0679C175.763 17.5082 177.671 19.5759 180.036 19.5613C181.553 19.554 182.866 18.6991 183.541 17.4498C183.737 17.0918 184.107 16.8799 184.513 16.8726L197.718 16.8141C199.234 16.8068 200.569 17.9539 200.671 19.4736C200.787 21.1467 199.474 22.5422 197.841 22.5495H197.645C197.239 22.5495 196.869 22.3376 196.673 21.9796C195.904 20.5914 194.344 19.7001 192.61 19.9412C190.803 20.1896 189.367 21.6801 189.171 23.5066C188.91 25.9469 190.818 28.0145 193.183 27.9999C194.7 27.9926 196.013 27.1378 196.688 25.8884C196.884 25.5304 197.254 25.3185 197.66 25.3112H197.718C200.751 25.2966 203.326 22.9148 203.428 19.8681C203.537 16.6607 200.968 14.0232 197.805 14.0378C196.775 14.0451 195.948 13.1391 196.078 12.0724C196.194 11.203 196.971 10.56 197.856 10.56ZM202.971 7.87134C203.675 7.87134 204.248 8.44122 204.248 9.14993C204.248 9.85863 203.682 10.4358 202.978 10.4358C202.274 10.4358 201.701 9.86593 201.701 9.15723C201.701 8.44853 202.267 7.87134 202.971 7.87134ZM185.268 5.32878C184.564 5.32878 183.991 4.7589 183.991 4.0502C183.991 3.3415 184.556 2.76431 185.26 2.76431C185.964 2.76431 186.537 3.33419 186.537 4.04289C186.537 4.74429 185.971 5.32148 185.268 5.32878ZM193.176 25.2382C192.472 25.2382 191.899 24.6683 191.899 23.9596C191.899 23.2509 192.465 22.6737 193.169 22.6737C193.873 22.6737 194.446 23.2436 194.446 23.9523C194.446 24.661 193.88 25.2382 193.176 25.2382ZM180.029 16.7922C179.325 16.7922 178.752 16.2223 178.752 15.5136C178.752 14.8049 179.318 14.2277 180.022 14.2277C180.726 14.2277 181.299 14.7976 181.299 15.5063C181.299 16.2077 180.726 16.7849 180.029 16.7922Z" fill="#0075FF"/>
<path d="M13 11H20.4943V25.8641L34.3148 11H43.3688L29.4975 25.4297L44 45H34.9967L24.4409 30.5268L20.5015 34.6031V45H13V11Z" fill="white"/>
<path d="M65 11H73V45H65V11Z" fill="white"/>
<path d="M94 39.5507L98.4322 34.2536C101.506 36.7826 104.717 38.3841 108.619 38.3841C111.692 38.3841 113.545 37.1667 113.545 35.0797C113.545 33.1812 112.375 32.2101 106.672 30.7536C99.7982 29.0072 95.366 27.1087 95.366 20.2536C95.366 14.0797 100.336 10 107.311 10C112.281 10 116.524 11.558 119.983 14.3261L116.081 19.9638C113.058 17.8768 110.087 16.6087 107.209 16.6087C104.332 16.6087 102.821 17.9203 102.821 19.6739C102.821 21.913 104.281 22.6377 110.181 24.1449C117.105 25.942 121 28.4203 121 34.4493C121 41.2029 115.834 45 108.474 45C103.315 44.9928 98.098 43.1957 94 39.5507Z" fill="white"/>
<path d="M140 39.5507L144.433 34.2536C147.508 36.7826 150.72 38.3841 154.623 38.3841C157.697 38.3841 159.55 37.1667 159.55 35.0797C159.55 33.1812 158.38 32.2101 152.675 30.7536C145.8 29.0072 141.366 27.1087 141.366 20.2536C141.366 14.0797 146.338 10 153.307 10C158.279 10 162.523 11.558 165.983 14.3261L162.08 19.9638C159.056 17.8768 156.084 16.6087 153.206 16.6087C150.328 16.6087 148.816 17.9203 148.816 19.6739C148.816 21.913 150.277 22.6377 156.178 24.1449C163.104 25.942 167 28.4203 167 34.4493C167 41.2029 161.833 45 154.47 45C149.317 44.9928 144.099 43.1957 140 39.5507Z" fill="white"/>
<path d="M209.5 19C210.881 19 212 17.8807 212 16.5C212 15.1193 210.881 14 209.5 14C208.119 14 207 15.1193 207 16.5C207 17.8807 208.119 19 209.5 19Z" fill="#2E2E2E" stroke="#0075FF" stroke-width="4" stroke-miterlimit="10"/>
<path d="M175.5 44C176.881 44 178 42.8807 178 41.5C178 40.1193 176.881 39 175.5 39C174.119 39 173 40.1193 173 41.5C173 42.8807 174.119 44 175.5 44Z" stroke="#0075FF" stroke-width="4" stroke-miterlimit="10"/>
<path d="M128.5 44C129.881 44 131 42.8807 131 41.5C131 40.1193 129.881 39 128.5 39C127.119 39 126 40.1193 126 41.5C126 42.8807 127.119 44 128.5 44Z" stroke="#0075FF" stroke-width="4" stroke-miterlimit="10"/>
<path d="M81.5 44C82.8807 44 84 42.8807 84 41.5C84 40.1193 82.8807 39 81.5 39C80.1193 39 79 40.1193 79 41.5C79 42.8807 80.1193 44 81.5 44Z" stroke="#0075FF" stroke-width="4" stroke-miterlimit="10"/>
<path d="M52.5 44C53.8807 44 55 42.8807 55 41.5C55 40.1193 53.8807 39 52.5 39C51.1193 39 50 40.1193 50 41.5C50 42.8807 51.1193 44 52.5 44Z" stroke="#0075FF" stroke-width="4" stroke-miterlimit="10"/>
<path d="M4.5 44C5.88071 44 7 42.8807 7 41.5C7 40.1193 5.88071 39 4.5 39C3.11929 39 2 40.1193 2 41.5C2 42.8807 3.11929 44 4.5 44Z" stroke="#0075FF" stroke-width="4" stroke-miterlimit="10"/>
<path d="M1 66.4288V58.5785C1 58.4174 1.06115 58.2783 1.1758 58.1684C1.29045 58.0586 1.42803 58 1.59618 58C1.76433 58 1.90191 58.0586 2.01656 58.1684C2.13121 58.2783 2.19236 58.4174 2.19236 58.5785V63.2213L5.38726 60.6216C5.52484 60.5118 5.67006 60.4605 5.83057 60.4605C5.99873 60.4605 6.14395 60.5191 6.2586 60.6363C6.37325 60.7535 6.42675 60.8853 6.42675 61.0464C6.42675 61.2148 6.36561 61.3466 6.24331 61.4492L3.75159 63.463L6.81656 66.0407C6.93885 66.1359 7 66.2604 7 66.4142C7 66.5606 6.9465 66.6998 6.83185 66.8169C6.7172 66.9341 6.57962 66.9927 6.41146 66.9927C6.24331 66.9927 6.09809 66.9414 5.9758 66.8389L2.81146 64.2026L2.18471 64.7079V66.4288C2.18471 66.5899 2.12357 66.7217 2.00892 66.8316C1.89427 66.9414 1.75669 67 1.58854 67C1.42038 67 1.2828 66.9414 1.16815 66.8316C1.0535 66.7217 1 66.5899 1 66.4288Z" fill="white"/>
<path d="M15 63.2758V64.7511C15 64.9159 14.9389 65.0572 14.8242 65.1827C14.7096 65.3004 14.5643 65.3632 14.4038 65.3632H10.2076V65.7164C10.2076 65.9282 10.2917 66.1009 10.4675 66.25L10.8115 66.5482C11.0025 66.6973 11.1783 66.7758 11.3465 66.7758H14.4038C14.5643 66.7758 14.7019 66.8386 14.8242 66.9563C14.9389 67.074 15 67.2152 15 67.3879C15 67.5527 14.9389 67.6939 14.8166 67.8195C14.6943 67.9372 14.5567 68 14.4038 68H11.2701C11.0637 68 10.842 67.9529 10.6127 67.8666C10.3834 67.7803 10.2153 67.6861 10.1083 67.5841L9.58089 67.1054C9.41274 66.972 9.27516 66.7836 9.16815 66.5404C9.06115 66.2971 9 66.0774 9 65.8733V63.0796C9 62.9226 9.06115 62.7029 9.18344 62.4361C9.30573 62.1614 9.4586 61.9574 9.64204 61.8083L10.1389 61.4081C10.4675 61.1334 10.8268 61 11.2166 61H12.8828C13.3032 61 13.7006 61.1805 14.0675 61.5336L14.5108 61.9652C14.8395 62.2478 15 62.6872 15 63.2758ZM10.2229 63.1816V64.1233H13.8306V63.2758C13.8306 63.0482 13.7618 62.8756 13.6242 62.75L13.2803 62.4361C13.1045 62.287 12.9439 62.2085 12.7987 62.2085H11.3083C11.1248 62.2085 10.9567 62.2713 10.8038 62.4047L10.4599 62.7029C10.2994 62.8285 10.2229 62.9854 10.2229 63.1816Z" fill="white"/>
<path d="M24 63.2758V64.7511C24 64.9159 23.9389 65.0572 23.8242 65.1827C23.7096 65.3004 23.5643 65.3632 23.4038 65.3632H19.2076V65.7164C19.2076 65.9282 19.2917 66.1009 19.4675 66.25L19.8115 66.5482C20.0025 66.6973 20.1783 66.7758 20.3465 66.7758H23.4038C23.5643 66.7758 23.7019 66.8386 23.8242 66.9563C23.9389 67.074 24 67.2152 24 67.3879C24 67.5527 23.9389 67.6939 23.8166 67.8195C23.6943 67.9372 23.5567 68 23.4038 68H20.2701C20.0637 68 19.842 67.9529 19.6127 67.8666C19.3834 67.7803 19.2153 67.6861 19.1083 67.5841L18.5809 67.1054C18.4127 66.972 18.2752 66.7836 18.1682 66.5404C18.0611 66.2971 18 66.0774 18 65.8733V63.0796C18 62.9226 18.0611 62.7029 18.1834 62.4361C18.3057 62.1614 18.4586 61.9574 18.642 61.8083L19.1389 61.4081C19.4675 61.1334 19.8268 61 20.2166 61H21.8828C22.3032 61 22.7006 61.1805 23.0675 61.5336L23.5108 61.9652C23.8395 62.2478 24 62.6872 24 63.2758ZM19.2229 63.1816V64.1233H22.8306V63.2758C22.8306 63.0482 22.7618 62.8756 22.6242 62.75L22.2803 62.4361C22.1045 62.287 21.9439 62.2085 21.7987 62.2085H20.3083C20.1248 62.2085 19.9567 62.2713 19.8038 62.4047L19.4599 62.7029C19.2994 62.8285 19.2229 62.9854 19.2229 63.1816Z" fill="white"/>
<path d="M27.2123 65.9905V68.4379C27.2123 68.5945 27.1509 68.7296 27.0358 68.8364C26.9207 68.9431 26.7826 69 26.6138 69C26.445 69 26.3069 68.9431 26.1841 68.8364C26.0614 68.7296 26 68.5945 26 68.4379V60.5549C26 60.4055 26.0614 60.2775 26.1765 60.1636C26.2916 60.0569 26.4373 60 26.6061 60C26.7673 60 26.9054 60.0569 27.0281 60.1636C27.1432 60.2704 27.2046 60.4055 27.2046 60.5549V60.9107C27.7801 60.313 28.3555 60.0142 28.9156 60.0142H29.1918C29.6138 60.0142 29.9974 60.1565 30.3581 60.4482L31.3478 61.2451C31.7852 61.5937 32 62.0419 32 62.5826V64.3043C32 64.8451 31.7621 65.3075 31.2941 65.6775L30.3197 66.453C29.9974 66.7233 29.5908 66.8585 29.0997 66.8585H28.8389C28.3785 66.8585 27.9795 66.7091 27.6573 66.4103L27.2123 65.9905ZM28.8926 65.7486H29.1995C29.3453 65.7486 29.4987 65.6775 29.6675 65.5423L30.5959 64.7881C30.7494 64.6743 30.8338 64.5178 30.8338 64.3186V62.5328C30.8338 62.3549 30.7494 62.1984 30.5729 62.0632L29.5754 61.2664C29.4604 61.1739 29.3376 61.1312 29.2072 61.1312H28.8619C28.7315 61.1312 28.555 61.2308 28.3478 61.4372L27.4578 62.2553C27.3043 62.3976 27.2199 62.5613 27.2199 62.7391V64.1549C27.2199 64.3257 27.3043 64.4964 27.4808 64.653L28.3402 65.4498C28.5473 65.649 28.7315 65.7486 28.8926 65.7486Z" fill="white"/>
<path d="M43 62.7212V62.286C43 62.0611 43.1221 61.887 43.3588 61.7492L48.0305 59.1233C48.1603 59.0435 48.2824 59 48.4122 59C48.5649 59 48.6947 59.058 48.8168 59.1668C48.9389 59.2757 49 59.4135 49 59.5731C49 59.7834 48.916 59.9358 48.7405 60.0373L44.3664 62.4964L48.7405 64.9409C48.916 65.0497 49 65.2093 49 65.4197C49 65.5793 48.9389 65.7171 48.8168 65.8332C48.6947 65.9492 48.5649 66 48.4122 66C48.2977 66 48.1679 65.9565 48.0305 65.8767L43.3588 63.258C43.1221 63.1347 43 62.9534 43 62.7212Z" fill="white"/>
<path d="M52.5962 58H57.4038C57.5567 58 57.6943 58.0585 57.8166 58.1683C57.9389 58.2781 58 58.4171 58 58.5707C58 58.7317 57.9389 58.8634 57.8242 58.9805C57.7096 59.0976 57.5643 59.1561 57.4038 59.1561H55.6076V65.8585H57.4038C57.572 65.8585 57.7096 65.9171 57.8242 66.0268C57.9389 66.1366 58 66.2683 58 66.4293C58 66.5902 57.9389 66.7219 57.8242 66.8317C57.7096 66.9415 57.5643 67 57.4038 67H52.5962C52.428 67 52.2904 66.9415 52.1758 66.8317C52.0611 66.7219 52 66.5902 52 66.4293C52 66.2683 52.0611 66.1366 52.1758 66.0268C52.2904 65.9171 52.428 65.8585 52.5962 65.8585H54.4229V59.1561H52.5962C52.428 59.1561 52.2904 59.0976 52.1758 58.9878C52.0611 58.8781 52 58.739 52 58.5854C52 58.4244 52.0611 58.2854 52.1758 58.1756C52.2904 58.0512 52.428 58 52.5962 58Z" fill="#0075FF"/>
<path d="M60 59.5391V58H66V59.5537C66 59.715 65.9388 59.8469 65.824 59.9568C65.7092 60.0668 65.5638 60.1254 65.4031 60.1254C65.2347 60.1254 65.0969 60.0668 64.9745 59.9568C64.852 59.8469 64.7908 59.7077 64.7908 59.5537V59.1433H63.5893V66.4283C63.5893 66.5896 63.5281 66.7215 63.4133 66.8314C63.2985 66.9414 63.1531 67 62.9923 67C62.824 67 62.6786 66.9414 62.5638 66.8314C62.449 66.7215 62.3878 66.5896 62.3878 66.4283V59.1433H61.1862V59.5464C61.1862 59.7077 61.125 59.8396 61.0102 59.9495C60.8954 60.0594 60.7577 60.1181 60.5893 60.1181C60.4209 60.1181 60.2832 60.0594 60.1684 59.9495C60.0612 59.8323 60 59.7003 60 59.5391Z" fill="#0075FF"/>
<path d="M74.8538 58.9886L70 66.8242C69.9231 66.9414 69.8 67 69.6385 67C69.4846 67 69.3385 66.9487 69.2 66.8462C69.0615 66.7437 69 66.6119 69 66.4581C69 66.319 69.0462 66.1725 69.1385 66.0114L73.9923 58.1831C74.0692 58.0586 74.2 58 74.3692 58C74.5231 58 74.6615 58.0513 74.8 58.1465C74.9385 58.2417 75 58.3735 75 58.5273C75 58.6737 74.9538 58.8275 74.8538 58.9886Z" fill="white"/>
<path d="M83 62.286V62.7212C83 62.9534 82.8853 63.1275 82.656 63.258L77.9783 65.8767C77.8408 65.9565 77.7108 66 77.5885 66C77.4357 66 77.3057 65.9492 77.1834 65.8404C77.0611 65.7316 77 65.5938 77 65.4342C77 65.2166 77.0917 65.0642 77.2675 64.9627L81.6395 62.5036L77.2675 60.0591C77.0917 59.9503 77 59.7907 77 59.5731C77 59.4062 77.0611 59.2684 77.1834 59.1596C77.3057 59.0508 77.4357 59 77.5885 59C77.7032 59 77.8331 59.0435 77.9783 59.1233L82.656 61.7492C82.8853 61.8725 83 62.0539 83 62.286Z" fill="white"/>
<path d="M95.6662 61H98.3873C98.8076 61 99.1898 61.1256 99.5108 61.3845C99.8395 61.6435 100 61.8946 100 62.1457C100 62.3184 99.9388 62.4596 99.8166 62.5774C99.6943 62.6872 99.5643 62.7422 99.4191 62.7422C99.228 62.7422 99.0599 62.6558 98.907 62.4832C98.7541 62.3105 98.586 62.2242 98.4178 62.2242H95.735C95.4675 62.2242 95.3376 62.3341 95.3376 62.5617C95.3376 62.7186 95.4293 62.8363 95.6051 62.9226L98.7618 64.3666C99.0828 64.5078 99.3427 64.7433 99.549 65.065C99.7554 65.3868 99.8548 65.7399 99.8548 66.1323C99.8548 66.6581 99.6713 67.0975 99.3121 67.4585C98.9529 67.8195 98.5401 68 98.0892 68H95.6892C95.2764 68 94.8866 67.8744 94.535 67.6155C94.1758 67.3565 94 67.1132 94 66.87C94 66.713 94.0611 66.5717 94.1758 66.4462C94.2904 66.3206 94.4433 66.2578 94.6268 66.2578C94.7796 66.2578 94.9401 66.3442 95.1083 66.5168C95.2764 66.6895 95.5287 66.7758 95.8573 66.7758H98.0662C98.242 66.7758 98.3873 66.7052 98.5019 66.5717C98.6166 66.4305 98.6777 66.2735 98.6777 66.0931C98.6777 65.8184 98.5478 65.6222 98.2803 65.4966L95.093 64.0213C94.7873 63.88 94.5503 63.676 94.3898 63.4092C94.2217 63.1424 94.1452 62.8756 94.1452 62.593C94.1452 62.1614 94.2904 61.7769 94.5885 61.463C94.8713 61.1648 95.2382 61 95.6662 61Z" fill="white"/>
<path d="M108 63.2758V64.7511C108 64.9159 107.939 65.0572 107.824 65.1827C107.71 65.3004 107.564 65.3632 107.404 65.3632H103.208V65.7164C103.208 65.9282 103.292 66.1009 103.468 66.25L103.811 66.5482C104.003 66.6973 104.178 66.7758 104.347 66.7758H107.404C107.564 66.7758 107.702 66.8386 107.824 66.9563C107.939 67.074 108 67.2152 108 67.3879C108 67.5527 107.939 67.6939 107.817 67.8195C107.694 67.9372 107.557 68 107.404 68H104.27C104.064 68 103.842 67.9529 103.613 67.8666C103.383 67.7803 103.215 67.6861 103.108 67.5841L102.581 67.1054C102.413 66.972 102.275 66.7836 102.168 66.5404C102.061 66.2971 102 66.0774 102 65.8733V63.0796C102 62.9226 102.061 62.7029 102.183 62.4361C102.306 62.1614 102.459 61.9574 102.642 61.8083L103.139 61.4081C103.468 61.1334 103.827 61 104.217 61H105.883C106.303 61 106.701 61.1805 107.068 61.5336L107.511 61.9652C107.839 62.2478 108 62.6872 108 63.2758ZM103.223 63.1816V64.1233H106.831V63.2758C106.831 63.0482 106.762 62.8756 106.624 62.75L106.28 62.4361C106.104 62.287 105.944 62.2085 105.799 62.2085H104.308C104.125 62.2085 103.957 62.2713 103.804 62.4047L103.46 62.7029C103.299 62.8285 103.223 62.9854 103.223 63.1816Z" fill="white"/>
<path d="M111 67.4043V61.6271C111 61.4546 111.061 61.3135 111.176 61.1881C111.291 61.0627 111.429 61 111.597 61C111.765 61 111.903 61.0627 112.018 61.1803C112.133 61.2979 112.194 61.4468 112.194 61.6193V62.3796L113.166 61.533C113.564 61.1881 113.962 61.0078 114.344 61.0078H115.217C115.707 61.0078 116.128 61.1881 116.48 61.5409C116.832 61.9015 117 62.3326 117 62.8343V63.1635C117 63.3359 116.939 63.4849 116.824 63.6025C116.709 63.72 116.571 63.7828 116.403 63.7828C116.235 63.7828 116.097 63.72 115.982 63.6025C115.867 63.4849 115.806 63.3438 115.806 63.1713V62.8343C115.806 62.6618 115.745 62.5207 115.63 62.4031C115.515 62.2856 115.378 62.2228 115.209 62.2228H114.436C114.268 62.2228 114.084 62.3091 113.885 62.4894L112.194 63.9866V67.3886C112.194 67.561 112.133 67.7021 112.018 67.8197C111.903 67.9373 111.758 68 111.597 68C111.429 68 111.291 67.9373 111.176 67.8197C111.061 67.7178 111 67.5767 111 67.4043Z" fill="white"/>
<path d="M125 61.6193V62.7794L122.939 67.5767C122.809 67.8589 122.634 68 122.42 68H121.656C121.382 68 121.176 67.8511 121.046 67.5532L119 62.7872V61.6114C119 61.439 119.061 61.2979 119.176 61.1803C119.29 61.0627 119.427 61 119.595 61C119.763 61 119.901 61.0627 120.015 61.1803C120.13 61.2979 120.191 61.439 120.191 61.6114L120.198 62.5442L122.008 66.7223L123.802 62.5286V61.6114C123.802 61.439 123.863 61.2979 123.977 61.1803C124.092 61.0627 124.237 61 124.405 61C124.573 61 124.71 61.0627 124.824 61.1803C124.947 61.3057 125 61.4468 125 61.6193Z" fill="white"/>
<path d="M132.381 67H128.619C128.444 67 128.302 66.9444 128.183 66.8403C128.063 66.7361 128 66.6111 128 66.4583C128 66.3125 128.063 66.1875 128.183 66.0764C128.302 65.9722 128.444 65.9167 128.619 65.9167H129.881V61.8889H128.635C128.46 61.8889 128.317 61.8333 128.198 61.7292C128.079 61.625 128.016 61.4931 128.016 61.3472C128.016 61.1944 128.079 61.0694 128.198 60.9583C128.317 60.8472 128.46 60.7917 128.635 60.7917H130.516C130.69 60.7917 130.833 60.8472 130.952 60.9583C131.071 61.0694 131.135 61.1944 131.135 61.3472V65.9167H132.365C132.54 65.9167 132.683 65.9722 132.81 66.0764C132.937 66.1806 133 66.3056 133 66.4583C133 66.6111 132.937 66.7361 132.817 66.8403C132.69 66.9444 132.548 67 132.381 67ZM129.873 58H130.516C130.69 58 130.833 58.0556 130.952 58.1597C131.071 58.2639 131.135 58.3889 131.135 58.5417V59.0069C131.135 59.1597 131.071 59.2847 130.952 59.3958C130.833 59.5069 130.69 59.5625 130.516 59.5625H129.857C129.683 59.5625 129.532 59.5069 129.413 59.3958C129.294 59.2847 129.238 59.1597 129.238 59.0208L129.254 58.5486C129.254 58.3958 129.317 58.2708 129.437 58.1667C129.556 58.0556 129.698 58 129.873 58Z" fill="white"/>
<path d="M141.389 68H138.851C138.4 68 138.018 67.8589 137.705 67.5845L136.551 66.5577C136.184 66.2441 136.001 65.8208 136.001 65.28V63.6887C135.986 63.1713 136.192 62.7245 136.62 62.3404L137.659 61.4233C137.995 61.1411 138.355 61 138.737 61H141.404C141.572 61 141.71 61.0627 141.824 61.1803C141.939 61.2979 142 61.439 142 61.6114C142 61.7839 141.939 61.9328 141.824 62.0426C141.71 62.1601 141.572 62.215 141.404 62.215H138.851C138.691 62.215 138.538 62.2777 138.393 62.411L137.438 63.2419C137.285 63.3751 137.201 63.5554 137.201 63.7828V65.2721C137.201 65.4289 137.262 65.57 137.384 65.6797L138.431 66.5969C138.561 66.7144 138.737 66.7772 138.951 66.7772H141.389C141.549 66.7772 141.687 66.8399 141.809 66.9575C141.924 67.075 141.985 67.2161 141.985 67.3886C141.985 67.561 141.924 67.7021 141.809 67.8197C141.694 67.9373 141.549 68 141.389 68Z" fill="white"/>
<path d="M150 63.2758V64.7511C150 64.9159 149.939 65.0572 149.824 65.1827C149.71 65.3004 149.564 65.3632 149.404 65.3632H145.208V65.7164C145.208 65.9282 145.292 66.1009 145.468 66.25L145.811 66.5482C146.003 66.6973 146.178 66.7758 146.346 66.7758H149.404C149.564 66.7758 149.702 66.8386 149.824 66.9563C149.939 67.074 150 67.2152 150 67.3879C150 67.5527 149.939 67.6939 149.817 67.8195C149.694 67.9372 149.557 68 149.404 68H146.27C146.064 68 145.842 67.9529 145.613 67.8666C145.383 67.7803 145.215 67.6861 145.108 67.5841L144.581 67.1054C144.413 66.972 144.275 66.7836 144.168 66.5404C144.061 66.2971 144 66.0774 144 65.8733V63.0796C144 62.9226 144.061 62.7029 144.183 62.4361C144.306 62.1614 144.459 61.9574 144.642 61.8083L145.139 61.4081C145.468 61.1334 145.827 61 146.217 61H147.883C148.303 61 148.701 61.1805 149.068 61.5336L149.511 61.9652C149.839 62.2478 150 62.6872 150 63.2758ZM145.215 63.1816V64.1233H148.823V63.2758C148.823 63.0482 148.754 62.8756 148.617 62.75L148.273 62.4361C148.097 62.287 147.936 62.2085 147.791 62.2085H146.301C146.117 62.2085 145.949 62.2713 145.796 62.4047L145.452 62.7029C145.292 62.8285 145.215 62.9854 145.215 63.1816Z" fill="white"/>
<path d="M154.672 61H157.389C157.809 61 158.191 61.1256 158.511 61.3845C158.84 61.6435 159 61.8946 159 62.1457C159 62.3184 158.939 62.4596 158.817 62.5774C158.695 62.6872 158.565 62.7422 158.42 62.7422C158.229 62.7422 158.061 62.6558 157.908 62.4832C157.756 62.3105 157.588 62.2242 157.42 62.2242H154.74C154.473 62.2242 154.344 62.3341 154.344 62.5617C154.344 62.7186 154.435 62.8363 154.611 62.9226L157.763 64.3666C158.084 64.5078 158.344 64.7433 158.55 65.065C158.756 65.3868 158.855 65.7399 158.855 66.1323C158.855 66.6581 158.672 67.0975 158.313 67.4585C157.954 67.8195 157.542 68 157.092 68H154.687C154.275 68 153.886 67.8744 153.534 67.6155C153.176 67.3565 153 67.1132 153 66.87C153 66.713 153.061 66.5717 153.176 66.4462C153.29 66.3206 153.443 66.2578 153.626 66.2578C153.779 66.2578 153.939 66.3442 154.107 66.5168C154.275 66.6895 154.527 66.7758 154.855 66.7758H157.061C157.237 66.7758 157.382 66.7052 157.496 66.5717C157.611 66.4305 157.672 66.2735 157.672 66.0931C157.672 65.8184 157.542 65.6222 157.275 65.4966L154.092 64.0213C153.786 63.88 153.55 63.676 153.389 63.4092C153.221 63.1424 153.145 62.8756 153.145 62.593C153.145 62.1614 153.29 61.7769 153.588 61.463C153.878 61.1648 154.244 61 154.672 61Z" fill="white"/>
<path d="M169.666 61H172.387C172.808 61 173.19 61.1256 173.511 61.3845C173.839 61.6435 174 61.8946 174 62.1457C174 62.3184 173.939 62.4596 173.817 62.5774C173.694 62.6872 173.564 62.7422 173.419 62.7422C173.228 62.7422 173.06 62.6558 172.907 62.4832C172.754 62.3105 172.586 62.2242 172.418 62.2242H169.735C169.468 62.2242 169.338 62.3341 169.338 62.5617C169.338 62.7186 169.429 62.8363 169.605 62.9226L172.762 64.3666C173.083 64.5078 173.343 64.7433 173.549 65.065C173.755 65.3868 173.855 65.7399 173.855 66.1323C173.855 66.6581 173.671 67.0975 173.312 67.4585C172.953 67.8195 172.54 68 172.089 68H169.689C169.276 68 168.887 67.8744 168.535 67.6155C168.176 67.3565 168 67.1132 168 66.87C168 66.713 168.061 66.5717 168.176 66.4462C168.29 66.3206 168.443 66.2578 168.627 66.2578C168.78 66.2578 168.94 66.3442 169.108 66.5168C169.276 66.6895 169.529 66.7758 169.857 66.7758H172.066C172.242 66.7758 172.387 66.7052 172.502 66.5717C172.617 66.4305 172.678 66.2735 172.678 66.093C172.678 65.8184 172.548 65.6222 172.28 65.4966L169.093 64.0213C168.787 63.88 168.55 63.676 168.39 63.4092C168.222 63.1424 168.145 62.8756 168.145 62.593C168.145 62.1614 168.29 61.7769 168.589 61.463C168.864 61.1569 169.231 61 169.666 61Z" fill="white"/>
<path d="M181.373 67H177.619C177.444 67 177.302 66.9444 177.183 66.8403C177.063 66.7361 177 66.6111 177 66.4583C177 66.3125 177.063 66.1875 177.183 66.0764C177.302 65.9792 177.444 65.9236 177.619 65.9236H178.881V61.8958H177.635C177.46 61.8958 177.317 61.8403 177.198 61.7361C177.079 61.6319 177.016 61.5 177.016 61.3542C177.016 61.2014 177.079 61.0764 177.198 60.9653C177.317 60.8542 177.46 60.7986 177.635 60.7986H179.516C179.69 60.7986 179.833 60.8542 179.952 60.9653C180.071 61.0764 180.135 61.2014 180.135 61.3542V65.9236H181.365C181.54 65.9236 181.683 65.9792 181.81 66.0833C181.937 66.1875 182 66.3125 182 66.4653C182 66.6181 181.936 66.7431 181.817 66.8472C181.69 66.9514 181.54 67 181.373 67ZM178.865 58H179.508C179.683 58 179.825 58.0556 179.944 58.1597C180.063 58.2639 180.127 58.3889 180.127 58.5417V59.0069C180.127 59.1597 180.063 59.2847 179.944 59.3958C179.825 59.5069 179.683 59.5625 179.508 59.5625H178.849C178.675 59.5625 178.524 59.5069 178.405 59.3958C178.286 59.2847 178.23 59.1597 178.23 59.0208L178.246 58.5486C178.246 58.3958 178.31 58.2708 178.429 58.1667C178.548 58.0556 178.698 58 178.865 58Z" fill="white"/>
<path d="M185 67.3899V61.6257C185 61.4536 185.059 61.3128 185.169 61.1955C185.279 61.0782 185.411 61.0156 185.572 61.0156C185.866 61.0156 186.049 61.1721 186.13 61.4771C186.445 61.1564 186.797 61 187.186 61C187.641 61 188.015 61.2112 188.308 61.6257C188.667 61.2112 189.064 61 189.504 61C189.856 61 190.164 61.133 190.421 61.3989C190.677 61.6648 190.817 62.0089 190.839 62.4235L191 67.3821C191 67.5464 190.941 67.6872 190.831 67.8123C190.721 67.9296 190.582 67.9922 190.428 67.9922C190.266 67.9922 190.134 67.9296 190.024 67.8123C189.914 67.695 189.856 67.5464 189.848 67.3821L189.709 62.619C189.702 62.3609 189.628 62.2279 189.482 62.2279C189.408 62.2279 189.328 62.267 189.247 62.3374L188.572 62.9475V67.3899C188.572 67.5542 188.513 67.695 188.403 67.8123C188.293 67.9296 188.161 67.9844 188 67.9844C187.846 67.9844 187.714 67.9218 187.597 67.8045C187.487 67.6872 187.428 67.5464 187.428 67.3743V62.5486C187.428 62.3374 187.347 62.2358 187.178 62.2358C187.098 62.2358 187.024 62.267 186.958 62.3296L186.144 63.0648V67.3899C186.144 67.5542 186.093 67.695 185.983 67.8201C185.873 67.9374 185.741 68 185.587 68C185.425 68 185.293 67.9374 185.176 67.8201C185.059 67.695 185 67.5542 185 67.3899Z" fill="white"/>
<path d="M194.212 66.9905V69.4379C194.212 69.5945 194.151 69.7296 194.036 69.8364C193.921 69.9431 193.783 70 193.614 70C193.445 70 193.307 69.9431 193.184 69.8364C193.061 69.7296 193 69.5945 193 69.4379V61.5549C193 61.4055 193.061 61.2775 193.176 61.1636C193.292 61.0569 193.437 61 193.606 61C193.767 61 193.905 61.0569 194.028 61.1636C194.143 61.2704 194.205 61.4055 194.205 61.5549V61.9107C194.78 61.313 195.356 61.0142 195.916 61.0142H196.192C196.614 61.0142 196.997 61.1565 197.358 61.4482L198.348 62.2451C198.785 62.5937 199 63.0419 199 63.5826V65.3043C199 65.8451 198.762 66.3075 198.294 66.6775L197.32 67.453C196.997 67.7233 196.591 67.8585 196.1 67.8585H195.839C195.379 67.8585 194.98 67.7091 194.657 67.4103L194.212 66.9905ZM195.893 66.7486H196.199C196.345 66.7486 196.499 66.6775 196.668 66.5423L197.596 65.7881C197.749 65.6743 197.834 65.5178 197.834 65.3186V63.5328C197.834 63.3549 197.749 63.1984 197.573 63.0632L196.575 62.2664C196.46 62.1739 196.338 62.1312 196.207 62.1312H195.862C195.731 62.1312 195.555 62.2308 195.348 62.4372L194.458 63.2553C194.304 63.3976 194.22 63.5613 194.22 63.7391V65.1549C194.22 65.3257 194.304 65.4964 194.481 65.653L195.34 66.4498C195.547 66.649 195.731 66.7486 195.893 66.7486Z" fill="white"/>
<path d="M206.379 67H202.637C202.462 67 202.318 66.9415 202.199 66.8245C202.08 66.7076 202.016 66.576 202.016 66.4151C202.016 66.2616 202.08 66.13 202.199 66.013C202.318 65.9033 202.462 65.8448 202.637 65.8448H203.871V59.1405H202.621C202.446 59.1405 202.303 59.082 202.183 58.9724C202.064 58.8627 202 58.7311 202 58.5703C202 58.4094 202.064 58.2778 202.183 58.1682C202.303 58.0585 202.446 58 202.621 58H204.508C204.675 58 204.818 58.0585 204.946 58.1682C205.065 58.2778 205.129 58.4167 205.129 58.5703V65.8522H206.379C206.546 65.8522 206.689 65.9106 206.817 66.0203C206.936 66.13 207 66.2689 207 66.4224C207 66.5833 206.936 66.7149 206.817 66.8318C206.689 66.9415 206.546 67 206.379 67Z" fill="white"/>
<path d="M216 63.2864V64.7584C216 64.9228 215.939 65.0638 215.824 65.189C215.71 65.3065 215.564 65.3691 215.404 65.3691H211.208V65.7215C211.208 65.9329 211.292 66.1051 211.468 66.2539L211.811 66.5515C212.003 66.7002 212.178 66.7785 212.346 66.7785H215.404C215.564 66.7785 215.702 66.8412 215.824 66.9586C215.939 67.0761 216 67.217 216 67.3893C216 67.5537 215.939 67.6946 215.817 67.8199C215.694 67.9374 215.557 68 215.404 68H212.27C212.064 68 211.842 67.953 211.613 67.8669C211.383 67.7808 211.215 67.6868 211.108 67.585L210.581 67.1074C210.413 66.9743 210.275 66.7864 210.168 66.5436C210.061 66.3009 210 66.0817 210 65.8781V63.0749C210 62.9183 210.061 62.6991 210.183 62.4329C210.306 62.1588 210.459 61.9553 210.642 61.8065L211.139 61.4072C211.468 61.1331 211.827 61 212.217 61H213.883C214.303 61 214.701 61.1801 215.068 61.5324L215.511 61.9631C215.84 62.2606 216 62.6991 216 63.2864ZM211.223 63.1924V64.132H214.831V63.2864C214.831 63.0593 214.762 62.887 214.624 62.7617L214.28 62.4485C214.104 62.2998 213.944 62.2215 213.799 62.2215H212.308C212.125 62.2215 211.957 62.2841 211.804 62.4172L211.46 62.7148C211.299 62.84 211.223 62.9966 211.223 63.1924Z" fill="white"/>
</svg>
