<svg width="58" height="51" viewBox="0 0 58 51" fill="none" xmlns="http://www.w3.org/2000/svg">
<g clip-path="url(#clip0_202_2588)">
<path opacity="0.35" d="M2.71725 1.8781L1.2876 3.96905V12.1725H57.3961V3.66065L54.1756 1.34766H3.57382L2.71725 1.8781Z" fill="#0075FF"/>
<path d="M38.0382 27.722C37.3904 27.3427 37.1694 26.5023 37.5444 25.8469C37.9193 25.1916 38.75 24.968 39.3977 25.3473L48.439 30.6811C49.0868 31.0604 49.3078 31.9008 48.9328 32.5562C48.8063 32.7751 48.6311 32.9463 48.4268 33.0635L39.3977 38.3896C38.75 38.7689 37.9209 38.5453 37.5444 37.8899C37.1694 37.2346 37.3904 36.3957 38.0382 36.0149L45.0661 31.8684L38.0382 27.722ZM5.99448 8.25585C5.24308 8.25585 4.63646 7.63905 4.63646 6.88039C4.63646 6.12173 5.24612 5.50647 5.99448 5.50647H9.2714C10.0228 5.50647 10.6309 6.12327 10.6309 6.88039C10.6309 7.64059 10.0213 8.25585 9.2714 8.25585H5.99448ZM32.1199 23.3489C32.5025 22.6966 33.3332 22.4792 33.9794 22.8663C34.6241 23.2533 34.839 24.0937 34.4565 24.7475L25.8801 39.341C25.4975 39.9932 24.6668 40.2107 24.0206 39.8236C23.3759 39.4366 23.161 38.5962 23.5435 37.9424L32.1199 23.3489ZM2.71756 11.0669H55.2824V4.44249C55.2824 3.97835 55.0934 3.5543 54.7886 3.24745C54.4853 2.94059 54.0677 2.74938 53.6074 2.74938H4.39108C3.93231 2.74938 3.51317 2.94059 3.20986 3.24745C2.90655 3.5543 2.71604 3.97681 2.71604 4.44249V11.0669H2.71756ZM55.284 13.8178H2.71756V46.556C2.71756 47.0201 2.90655 47.4442 3.21138 47.751C3.51469 48.0579 3.93231 48.2491 4.3926 48.2491H53.6104C54.0692 48.2491 54.4884 48.0579 54.7917 47.751C55.095 47.4442 55.2855 47.0217 55.2855 46.556V13.8178H55.284ZM4.39108 0H53.6089C54.8176 0 55.9165 0.499607 56.7106 1.30453C57.5062 2.10945 58 3.21969 58 4.44249V46.5575C58 47.7803 57.5062 48.8905 56.7106 49.6955C55.915 50.5004 54.8161 51 53.6089 51H4.39108C3.18242 51 2.08351 50.5004 1.28943 49.6955C0.493825 48.8921 0 47.7803 0 46.5575V4.44249C0 3.21969 0.493825 2.10945 1.28943 1.30453C2.08504 0.499607 3.18395 0 4.39108 0ZM18.6038 25.3489C19.2515 24.9696 20.0807 25.1931 20.4571 25.8485C20.8321 26.5038 20.6111 27.3427 19.9633 27.7236L12.9355 31.87L19.9633 36.0164C20.6111 36.3958 20.8321 37.2361 20.4571 37.8915C20.0822 38.5468 19.2515 38.7704 18.6038 38.3911L9.57471 33.065C9.37047 32.9478 9.1952 32.7782 9.06869 32.5577C8.69375 31.9024 8.91475 31.0635 9.56252 30.6827L18.6038 25.3489Z" fill="#0075FF"/>
</g>
<defs>
<clipPath id="clip0_202_2588">
<rect width="58" height="51" fill="white"/>
</clipPath>
</defs>
</svg>
