<svg width="128" height="111" viewBox="0 0 128 111" fill="none" xmlns="http://www.w3.org/2000/svg">
<g clip-path="url(#clip0_1_6712)">
<path opacity="0.35" d="M5.99689 4.08785L2.8418 8.63874V26.4932H126.668V7.96752L119.56 2.93335H7.88726L5.99689 4.08785Z" fill="#0075FF"/>
<path d="M83.9464 60.3362C82.5168 59.5106 82.0291 57.6815 82.8566 56.2551C83.684 54.8288 85.5172 54.3421 86.9468 55.1678L106.9 66.7765C108.329 67.6021 108.817 69.4312 107.99 70.8576C107.711 71.3341 107.324 71.7067 106.873 71.9617L86.9468 83.5537C85.5172 84.3793 83.6874 83.8927 82.8566 82.4664C82.0291 81.04 82.5168 79.2143 83.9464 78.3853L99.4561 69.3607L83.9464 60.3362ZM13.2292 17.9686C11.5709 17.9686 10.2322 16.6262 10.2322 14.975C10.2322 13.3238 11.5777 11.9847 13.2292 11.9847H20.461C22.1193 11.9847 23.4614 13.3271 23.4614 14.975C23.4614 16.6295 22.1159 17.9686 20.461 17.9686H13.2292ZM70.8854 50.8182C71.7297 49.3986 73.5628 48.9254 74.989 49.7678C76.4118 50.6101 76.8861 52.4392 76.0418 53.8622L57.1146 85.6245C56.2704 87.0441 54.4372 87.5173 53.011 86.6749C51.5882 85.8325 51.1139 84.0034 51.9582 82.5805L70.8854 50.8182ZM5.99737 24.0868H122.003V9.66895C122.003 8.65877 121.586 7.73584 120.913 7.06797C120.243 6.4001 119.322 5.98395 118.306 5.98395H9.69065C8.67819 5.98395 7.75319 6.4001 7.08383 7.06797C6.41446 7.73584 5.99401 8.65541 5.99401 9.66895V24.0868H5.99737ZM122.006 30.0741H5.99737V101.328C5.99737 102.338 6.41446 103.261 7.08719 103.929C7.75656 104.597 8.67819 105.013 9.69401 105.013H118.313C119.325 105.013 120.25 104.597 120.92 103.929C121.589 103.261 122.009 102.341 122.009 101.328V30.0741H122.006ZM9.69065 0H118.309C120.977 0 123.402 1.08738 125.154 2.83927C126.91 4.59116 128 7.00756 128 9.66895V101.331C128 103.992 126.91 106.409 125.154 108.161C123.399 109.913 120.973 111 118.309 111H9.69065C7.02328 111 4.5981 109.913 2.84564 108.161C1.08982 106.412 0 103.992 0 101.331V9.66895C0 7.00756 1.08982 4.59116 2.84564 2.83927C4.60146 1.08738 7.02665 0 9.69065 0ZM41.0566 55.1711C42.4862 54.3455 44.316 54.8321 45.1468 56.2585C45.9742 57.6848 45.4865 59.5106 44.057 60.3395L28.5472 69.3641L44.057 78.3887C45.4865 79.2143 45.9742 81.0434 45.1468 82.4697C44.3193 83.8961 42.4862 84.3827 41.0566 83.5571L21.1304 71.9651C20.6797 71.71 20.2928 71.3408 20.0137 70.8609C19.1862 69.4346 19.6739 67.6088 21.1035 66.7799L41.0566 55.1711Z" fill="#0075FF"/>
</g>
<defs>
<clipPath id="clip0_1_6712">
<rect width="128" height="111" fill="white"/>
</clipPath>
</defs>
</svg>
