<svg width="72" height="72" viewBox="0 0 72 72" fill="none" xmlns="http://www.w3.org/2000/svg">
<path d="M28.989 51H43.008M36 9V12M55.092 16.908L52.971 19.029M63 36H60M12 36H9M19.029 19.029L16.908 16.908M25.392 46.608C23.2946 44.5101 21.8664 41.8373 21.2879 38.9277C20.7095 36.0181 21.0068 33.0023 22.1422 30.2616C23.2776 27.521 25.2002 25.1785 27.6669 23.5305C30.1335 21.8824 33.0334 21.0028 36 21.0028C38.9666 21.0028 41.8665 21.8824 44.3331 23.5305C46.7998 25.1785 48.7224 27.521 49.8578 30.2616C50.9932 33.0023 51.2905 36.0181 50.7121 38.9277C50.1336 41.8373 48.7054 44.5101 46.608 46.608L44.964 48.249C44.0241 49.1891 43.2786 50.305 42.7701 51.5332C42.2615 52.7614 41.9998 54.0777 42 55.407V57C42 58.5913 41.3679 60.1174 40.2426 61.2426C39.1174 62.3679 37.5913 63 36 63C34.4087 63 32.8826 62.3679 31.7574 61.2426C30.6321 60.1174 30 58.5913 30 57V55.407C30 52.722 28.932 50.145 27.036 48.249L25.392 46.608Z" stroke="#0075FF" stroke-width="4" stroke-linecap="round" stroke-linejoin="round"/>
</svg>
