<svg width="239" height="51" viewBox="0 0 239 51" fill="none" xmlns="http://www.w3.org/2000/svg">
<path d="M58.5 48C59.8807 48 61 46.8807 61 45.5C61 44.1193 59.8807 43 58.5 43C57.1193 43 56 44.1193 56 45.5C56 46.8807 57.1193 48 58.5 48Z" stroke="#0075FF" stroke-width="4" stroke-miterlimit="10"/>
<path d="M220.676 11.6915H221.405C221.864 11.6915 222.282 11.926 222.503 12.3224C223.371 13.8593 225.132 14.8462 227.09 14.5792C229.13 14.3042 230.752 12.654 230.973 10.6318C231.268 7.93006 229.113 5.64087 226.443 5.65705C224.731 5.66514 223.248 6.61156 222.486 7.99478C222.265 8.39114 221.847 8.62572 221.389 8.63381H220.594C219.881 8.63381 219.201 8.7875 218.579 9.05444C218.104 5.68132 215.155 3.07666 211.616 3.09284C211.141 3.09284 210.707 2.84208 210.494 2.42954C209.658 0.827915 207.872 -0.207478 205.874 0.0351921C203.817 0.29404 202.163 1.95229 201.941 3.99072C201.647 6.69244 203.801 8.98163 206.472 8.96546C208.126 8.95737 209.568 8.07567 210.363 6.75716C210.584 6.38506 210.993 6.15857 211.436 6.15857H211.624C213.779 6.15048 215.54 7.86535 215.548 10.0008L215.564 13.4144C215.564 13.4953 215.556 13.5681 215.556 13.649C215.556 14.3366 215.704 14.9837 215.958 15.5742L205.595 15.6227C205.136 15.6227 204.718 15.3881 204.497 14.9918C203.629 13.4549 201.868 12.468 199.91 12.7349C197.87 13.01 196.248 14.6601 196.027 16.6824C195.732 19.3841 197.887 21.6733 200.557 21.6571C202.269 21.649 203.752 20.7026 204.514 19.3194C204.735 18.923 205.153 18.6884 205.611 18.6804L220.52 18.6156C222.232 18.6076 223.74 19.8775 223.854 21.56C223.985 23.4124 222.503 24.9574 220.66 24.9655H220.438C219.98 24.9655 219.562 24.7309 219.341 24.3346C218.472 22.7977 216.711 21.8108 214.753 22.0777C212.714 22.3528 211.092 24.0029 210.87 26.0252C210.576 28.7269 212.73 31.0161 215.4 30.9999C217.113 30.9918 218.595 30.0454 219.357 28.6622C219.578 28.2658 219.996 28.0312 220.455 28.0232H220.52C223.944 28.007 226.852 25.37 226.967 21.9968C227.09 18.4458 224.19 15.5256 220.619 15.5418C219.455 15.5499 218.522 14.5469 218.669 13.3659C218.8 12.4033 219.677 11.6915 220.676 11.6915ZM226.451 8.7147C227.246 8.7147 227.893 9.34564 227.893 10.1303C227.893 10.9149 227.254 11.5539 226.459 11.5539C225.665 11.5539 225.018 10.923 225.018 10.1384C225.018 9.35373 225.657 8.7147 226.451 8.7147ZM206.463 5.89972C205.669 5.89972 205.022 5.26878 205.022 4.48415C205.022 3.69951 205.661 3.06048 206.455 3.06048C207.25 3.06048 207.897 3.69142 207.897 4.47606C207.897 5.2526 207.258 5.89163 206.463 5.89972ZM215.392 27.9423C214.598 27.9423 213.951 27.3113 213.951 26.5267C213.951 25.7421 214.59 25.103 215.384 25.103C216.179 25.103 216.826 25.734 216.826 26.5186C216.826 27.3032 216.187 27.9423 215.392 27.9423ZM200.549 18.5914C199.754 18.5914 199.107 17.9604 199.107 17.1758C199.107 16.3912 199.746 15.7521 200.541 15.7521C201.335 15.7521 201.982 16.3831 201.982 17.1677C201.982 17.9443 201.335 18.5833 200.549 18.5914Z" fill="#0075FF"/>
<path d="M15 12H23.4613V28.6129L39.0651 12H49.2874L33.6263 28.1273L50 50H39.835L27.9172 33.8241L23.4695 38.3799V50H15V12Z" fill="white"/>
<path d="M72 12H80V50H72V12Z" fill="white"/>
<path d="M104 44.928L108.925 39.0255C112.34 41.8435 115.908 43.628 120.243 43.628C123.658 43.628 125.717 42.2714 125.717 39.946C125.717 37.8304 124.417 36.7484 118.08 35.1255C110.442 33.1795 105.518 31.064 105.518 23.4255C105.518 16.546 111.04 12 118.79 12C124.312 12 129.027 13.736 132.87 16.8205L128.534 23.1025C125.176 20.777 121.874 19.364 118.677 19.364C115.48 19.364 113.801 20.8255 113.801 22.7795C113.801 25.2745 115.424 26.082 121.979 27.7615C129.673 29.764 134 32.5255 134 39.2435C134 46.7689 128.26 51 120.082 51C114.35 50.9919 108.553 48.9894 104 44.928Z" fill="white"/>
<path d="M156 44.928L160.926 39.0255C164.342 41.8435 167.911 43.628 172.248 43.628C175.664 43.628 177.723 42.2714 177.723 39.946C177.723 37.8304 176.423 36.7484 170.083 35.1255C162.444 33.1795 157.518 31.064 157.518 23.4255C157.518 16.546 163.042 12 170.786 12C176.31 12 181.026 13.736 184.869 16.8205L180.533 23.1025C177.174 20.777 173.871 19.364 170.673 19.364C167.475 19.364 165.795 20.8255 165.795 22.7795C165.795 25.2745 167.419 26.082 173.976 27.7615C181.672 29.764 186 32.5255 186 39.2435C186 46.7689 180.258 51 172.078 51C166.353 50.9919 160.555 48.9894 156 44.928Z" fill="white"/>
<path d="M234 22C235.657 22 237 20.6569 237 19C237 17.3431 235.657 16 234 16C232.343 16 231 17.3431 231 19C231 20.6569 232.343 22 234 22Z" fill="#2E2E2E" stroke="#0075FF" stroke-width="4" stroke-miterlimit="10"/>
<path d="M194.5 48C195.881 48 197 46.8807 197 45.5C197 44.1193 195.881 43 194.5 43C193.119 43 192 44.1193 192 45.5C192 46.8807 193.119 48 194.5 48Z" stroke="#0075FF" stroke-width="4" stroke-miterlimit="10"/>
<path d="M143.5 48C144.881 48 146 46.8807 146 45.5C146 44.1193 144.881 43 143.5 43C142.119 43 141 44.1193 141 45.5C141 46.8807 142.119 48 143.5 48Z" stroke="#0075FF" stroke-width="4" stroke-miterlimit="10"/>
<path d="M90.5 48C91.8807 48 93 46.8807 93 45.5C93 44.1193 91.8807 43 90.5 43C89.1193 43 88 44.1193 88 45.5C88 46.8807 89.1193 48 90.5 48Z" stroke="#0075FF" stroke-width="4" stroke-miterlimit="10"/>
<path d="M4.5 48C5.88071 48 7 46.8807 7 45.5C7 44.1193 5.88071 43 4.5 43C3.11929 43 2 44.1193 2 45.5C2 46.8807 3.11929 48 4.5 48Z" stroke="#0075FF" stroke-width="4" stroke-miterlimit="10"/>
</svg>
