<svg width="128" height="117" viewBox="0 0 128 117" fill="none" xmlns="http://www.w3.org/2000/svg">
<path d="M121.195 86.2793H6.80438C3.05248 86.2793 0 83.2266 0 79.4749V6.80438C0 3.05248 3.05272 0 6.80438 0H121.195C124.946 0.00093978 127.998 3.05272 127.998 6.80438V79.4749C127.998 83.2268 124.945 86.2793 121.194 86.2793H121.195ZM6.80438 3.91743C5.21323 3.91743 3.91815 5.21253 3.91815 6.80366V79.4742C3.91815 81.0653 5.21231 82.3604 6.80438 82.3604H121.195C122.786 82.3604 124.081 81.0653 124.081 79.4742L124.08 6.80125C124.08 5.2101 122.785 3.91503 121.194 3.91503L6.80438 3.91743Z" fill="#0075FF"/>
<path d="M126.04 69.5939H1.96102C0.878328 69.5939 0.00146484 68.7171 0.00146484 67.6344C0.00146484 66.5517 0.878328 65.6748 1.96102 65.6748H126.04C127.123 65.6748 128 66.5517 128 67.6344C127.999 68.7171 127.122 69.5939 126.039 69.5939H126.04Z" fill="#0075FF"/>
<path d="M95.0704 77.9352H91.2686C90.1859 77.9352 89.3091 77.0584 89.3091 75.9757C89.3091 74.893 90.1859 74.0161 91.2686 74.0161H95.0704C96.153 74.0161 97.0299 74.893 97.0299 75.9757C97.0299 77.0584 96.153 77.9352 95.0704 77.9352Z" fill="#0075FF"/>
<path d="M109.403 77.9352H105.6C104.517 77.9352 103.641 77.0584 103.641 75.9757C103.641 74.893 104.517 74.0161 105.6 74.0161H109.403C110.486 74.0161 111.362 74.893 111.362 75.9757C111.361 77.0584 110.485 77.9352 109.403 77.9352Z" fill="#0075FF"/>
<path d="M90.9705 116.225H37.0282C35.0132 116.225 33.374 114.585 33.374 112.57V112.257C33.374 105.828 38.6051 100.597 45.0347 100.597L82.9627 100.598C89.3922 100.598 94.6233 105.829 94.6233 112.258V112.571C94.6233 114.585 92.9842 116.224 90.97 116.224L90.9705 116.225ZM37.2953 112.306H90.7059V112.258C90.7059 107.99 87.2331 104.516 82.9634 104.516L45.0378 104.517C40.7691 104.517 37.2953 107.99 37.2953 112.259V112.306Z" fill="#0075FF"/>
<path d="M77.9734 104.517H50.0255C49.423 104.517 48.8554 104.239 48.4832 103.766C48.1119 103.293 47.9794 102.674 48.1232 102.09L52.6053 83.8553C52.8206 82.9794 53.6063 82.3638 54.5076 82.3638H73.4903C74.3916 82.3638 75.1773 82.9794 75.3926 83.8553L79.8747 102.09C80.0185 102.675 79.886 103.293 79.5147 103.766C79.1425 104.239 78.5749 104.517 77.9724 104.517H77.9734ZM52.5253 100.598H75.4743L71.9556 86.281H56.044L52.5253 100.598Z" fill="#0075FF"/>
</svg>
