<svg width="12" height="13" viewBox="0 0 12 13" fill="none" xmlns="http://www.w3.org/2000/svg">
<path d="M11.9026 8.62445C11.8036 8.45728 11.525 8.19724 10.8315 8.32107C10.4476 8.38917 10.0576 8.42013 9.66749 8.40156C8.22486 8.33964 6.91844 7.67715 6.00829 6.65554C5.20338 5.75777 4.70808 4.58755 4.70189 3.32448C4.70189 2.61864 4.83808 1.93757 5.1167 1.29365C5.38913 0.668305 5.19719 0.340154 5.06098 0.20394C4.91857 0.0615342 4.58425 -0.136595 3.92794 0.135833C1.3956 1.20078 -0.170859 3.73931 0.0148871 6.45741C0.200633 9.01452 1.99618 11.2001 4.37373 12.0236C4.94334 12.2217 5.54392 12.3394 6.16307 12.3641C6.26214 12.3703 6.3612 12.3765 6.46027 12.3765C8.53444 12.3765 10.4786 11.3983 11.7045 9.73274C12.1193 9.15693 12.0079 8.79163 11.9026 8.62445Z" fill="white"/>
</svg>
