<svg width="262" height="1307" viewBox="0 0 262 1307" fill="none" xmlns="http://www.w3.org/2000/svg">
    <path d="M243.676 11.6915H244.405C244.864 11.6915 245.282 11.926 245.503 12.3224C246.371 13.8593 248.132 14.8462 250.09 14.5792C252.13 14.3042 253.752 12.654 253.973 10.6318C254.268 7.93006 252.113 5.64087 249.443 5.65705C247.731 5.66514 246.248 6.61156 245.486 7.99478C245.265 8.39114 244.847 8.62572 244.389 8.63381H243.594C242.881 8.63381 242.201 8.7875 241.579 9.05444C241.104 5.68132 238.155 3.07666 234.616 3.09284C234.141 3.09284 233.707 2.84208 233.494 2.42954C232.658 0.827915 230.872 -0.207478 228.874 0.0351921C226.817 0.29404 225.163 1.95229 224.941 3.99072C224.647 6.69244 226.801 8.98163 229.472 8.96546C231.126 8.95737 232.568 8.07567 233.363 6.75716C233.584 6.38506 233.993 6.15857 234.436 6.15857H234.624C236.779 6.15048 238.54 7.86535 238.548 10.0008L238.564 13.4144C238.564 13.4953 238.556 13.5681 238.556 13.649C238.556 14.3366 238.704 14.9837 238.958 15.5742L228.595 15.6227C228.136 15.6227 227.718 15.3881 227.497 14.9918C226.629 13.4549 224.868 12.468 222.91 12.7349C220.87 13.01 219.248 14.6601 219.027 16.6824C218.732 19.3841 220.887 21.6733 223.557 21.6571C225.269 21.649 226.752 20.7026 227.514 19.3194C227.735 18.923 228.153 18.6884 228.611 18.6804L243.52 18.6156C245.232 18.6076 246.74 19.8775 246.854 21.56C246.985 23.4124 245.503 24.9574 243.66 24.9655H243.438C242.98 24.9655 242.562 24.7309 242.341 24.3346C241.472 22.7977 239.711 21.8108 237.753 22.0777C235.714 22.3528 234.092 24.0029 233.87 26.0252C233.576 28.7269 235.73 31.0161 238.4 30.9999C240.113 30.9918 241.595 30.0454 242.357 28.6622C242.578 28.2658 242.996 28.0312 243.455 28.0232H243.52C246.944 28.007 249.852 25.37 249.967 21.9968C250.09 18.4458 247.19 15.5256 243.619 15.5418C242.455 15.5499 241.522 14.5469 241.669 13.3659C241.8 12.4033 242.677 11.6915 243.676 11.6915ZM249.451 8.7147C250.246 8.7147 250.893 9.34564 250.893 10.1303C250.893 10.9149 250.254 11.5539 249.459 11.5539C248.665 11.5539 248.018 10.923 248.018 10.1384C248.018 9.35373 248.657 8.7147 249.451 8.7147ZM229.463 5.89972C228.669 5.89972 228.022 5.26878 228.022 4.48415C228.022 3.69951 228.661 3.06048 229.455 3.06048C230.25 3.06048 230.897 3.69142 230.897 4.47606C230.897 5.2526 230.258 5.89163 229.463 5.89972ZM238.392 27.9423C237.598 27.9423 236.951 27.3113 236.951 26.5267C236.951 25.7421 237.59 25.103 238.384 25.103C239.179 25.103 239.826 25.734 239.826 26.5186C239.826 27.3032 239.187 27.9423 238.392 27.9423ZM223.549 18.5914C222.754 18.5914 222.107 17.9604 222.107 17.1758C222.107 16.3912 222.746 15.7521 223.541 15.7521C224.335 15.7521 224.982 16.3831 224.982 17.1677C224.982 17.9443 224.335 18.5833 223.549 18.5914Z"
          fill="#0075FF"/>
    <path d="M38 12H46.4613V28.6129L62.0651 12H72.2874L56.6263 28.1273L73 50H62.835L50.9172 33.8241L46.4695 38.3799V50H38V12Z"
          fill="#212121"/>
    <path d="M95 12H103V50H95V12Z" fill="#212121"/>
    <path d="M127 44.928L131.925 39.0255C135.34 41.8435 138.908 43.628 143.243 43.628C146.658 43.628 148.717 42.2714 148.717 39.946C148.717 37.8304 147.417 36.7484 141.08 35.1255C133.442 33.1795 128.518 31.064 128.518 23.4255C128.518 16.546 134.04 12 141.79 12C147.312 12 152.027 13.736 155.87 16.8205L151.534 23.1025C148.176 20.777 144.874 19.364 141.677 19.364C138.48 19.364 136.801 20.8255 136.801 22.7795C136.801 25.2745 138.424 26.082 144.979 27.7615C152.673 29.764 157 32.5255 157 39.2435C157 46.7689 151.26 51 143.082 51C137.35 50.9919 131.553 48.9894 127 44.928Z"
          fill="#212121"/>
    <path d="M179 44.928L183.926 39.0255C187.342 41.8435 190.911 43.628 195.248 43.628C198.664 43.628 200.723 42.2714 200.723 39.946C200.723 37.8304 199.423 36.7484 193.083 35.1255C185.444 33.1795 180.518 31.064 180.518 23.4255C180.518 16.546 186.042 12 193.786 12C199.31 12 204.026 13.736 207.869 16.8205L203.533 23.1025C200.174 20.777 196.871 19.364 193.673 19.364C190.475 19.364 188.795 20.8255 188.795 22.7795C188.795 25.2745 190.419 26.082 196.976 27.7615C204.672 29.764 209 32.5255 209 39.2435C209 46.7689 203.258 51 195.078 51C189.353 50.9919 183.555 48.9894 179 44.928Z"
          fill="#212121"/>
    <path d="M257 22C258.657 22 260 20.6569 260 19C260 17.3431 258.657 16 257 16C255.343 16 254 17.3431 254 19C254 20.6569 255.343 22 257 22Z"
          stroke="#0075FF" stroke-width="3" stroke-miterlimit="10"/>
    <path d="M217.5 48C218.881 48 220 46.8807 220 45.5C220 44.1193 218.881 43 217.5 43C216.119 43 215 44.1193 215 45.5C215 46.8807 216.119 48 217.5 48Z"
          stroke="#0075FF" stroke-width="3" stroke-miterlimit="10"/>
    <path d="M166.5 48C167.881 48 169 46.8807 169 45.5C169 44.1193 167.881 43 166.5 43C165.119 43 164 44.1193 164 45.5C164 46.8807 165.119 48 166.5 48Z"
          stroke="#0075FF" stroke-width="3" stroke-miterlimit="10"/>
    <path d="M113.5 48C114.881 48 116 46.8807 116 45.5C116 44.1193 114.881 43 113.5 43C112.119 43 111 44.1193 111 45.5C111 46.8807 112.119 48 113.5 48Z"
          stroke="#0075FF" stroke-width="3" stroke-miterlimit="10"/>
    <g>
        <path d="M81.5 48C82.8807 48 84 46.8807 84 45.5C84 44.1193 82.8807 43 81.5 43C80.1193 43 79 44.1193 79 45.5C79 46.8807 80.1193 48 81.5 48Z"
              stroke="#0075FF" stroke-width="3" stroke-miterlimit="10"/>
        <path d="M27.5 48C28.8807 48 30 46.8807 30 45.5C30 44.1193 28.8807 43 27.5 43C26.1193 43 25 44.1193 25 45.5C25 46.8807 26.1193 48 27.5 48Z"
              stroke="#0075FF" stroke-width="3" stroke-miterlimit="10"/>
        <path d="M81.5 1305.41C83.9853 1305.41 86 1303.29 86 1300.66C86 1298.04 83.9853 1295.91 81.5 1295.91C79.0147 1295.91 77 1298.04 77 1300.66C77 1303.29 79.0147 1305.41 81.5 1305.41Z"
              stroke="#0075FF" stroke-width="2.5" stroke-miterlimit="10"/>
        <path d="M82 272.5L45.136 310.448C36.0709 319.78 31 332.278 31 345.287V468" stroke="#0075FF"
              stroke-width="2.5"/>
        <path d="M82 140L117.631 182.007C125.294 191.041 129.5 202.503 129.5 214.349V314" stroke="#0075FF"
              stroke-width="2.5"/>
        <path d="M30.5 411L15.9388 428.641C8.54447 437.6 4.5 448.854 4.5 460.47V517" stroke="#0075FF"
              stroke-width="2.5"/>
        <path d="M82 612.5L106.983 642.616C114.426 651.589 118.5 662.881 118.5 674.539V750" stroke="#0075FF"
              stroke-width="2.5"/>
        <path d="M82 50L82.0001 1296" stroke="#0075FF" stroke-width="2.5"/>
        <path d="M4.04539 521.297C5.17502 521.297 6.09077 520.335 6.09077 519.148C6.09077 517.962 5.17502 517 4.04539 517C2.91575 517 2 517.962 2 519.148C2 520.335 2.91575 521.297 4.04539 521.297Z"
              stroke="#0075FF" stroke-width="2.5" stroke-miterlimit="10"/>
        <path d="M129.045 317.07C130.175 317.07 131.091 316.159 131.091 315.035C131.091 313.911 130.175 313 129.045 313C127.916 313 127 313.911 127 315.035C127 316.159 127.916 317.07 129.045 317.07Z"
              stroke="#0075FF" stroke-width="2.5" stroke-miterlimit="10"/>
        <path d="M31.0454 471.07C32.175 471.07 33.0908 470.159 33.0908 469.035C33.0908 467.911 32.175 467 31.0454 467C29.9158 467 29 467.911 29 469.035C29 470.159 29.9158 471.07 31.0454 471.07Z"
              stroke="#0075FF" stroke-width="2.5" stroke-miterlimit="10"/>
        <path d="M118.045 754.07C119.175 754.07 120.091 753.159 120.091 752.035C120.091 750.911 119.175 750 118.045 750C116.916 750 116 750.911 116 752.035C116 753.159 116.916 754.07 118.045 754.07Z"
              stroke="#0075FF" stroke-width="2.5" stroke-miterlimit="10"/>
    </g>
</svg>
