<svg width="613" height="543" viewBox="0 0 613 543" fill="none" xmlns="http://www.w3.org/2000/svg">
<mask id="mask0_1_299" style="mask-type:luminance" maskUnits="userSpaceOnUse" x="0" y="-61" width="614" height="604">
<path d="M440.603 -60.9999L0 117.76L172.488 542.904L613.091 364.144L440.603 -60.9999Z" fill="white"/>
</mask>
<g mask="url(#mask0_1_299)">
<path d="M394.57 197.6L134.053 347.014C133.746 347.186 133.376 347.085 133.205 346.78L22.2138 147.957C22.0426 147.651 22.1651 147.257 22.4775 147.099L291.579 13.0796C291.877 12.9272 292.239 13.0463 292.405 13.339L394.813 196.766C394.979 197.059 394.864 197.434 394.57 197.6Z" stroke="#0075FF" stroke-width="1.5" stroke-miterlimit="10"/>
<path d="M143.73 376.976C139.936 375.823 138.158 372.522 138.084 372.379L12.8201 148.043C11.5233 145.736 11.2397 143.065 12.0415 140.517C12.8298 137.975 14.5889 135.931 16.9698 134.761L285.179 2.52771C285.341 2.46204 285.524 2.37206 285.686 2.30638C288.29 1.10889 291.024 1.73714 292.652 4.47334" stroke="#0075FF" stroke-width="1.5" stroke-miterlimit="10"/>
<path d="M405.916 208.51L137.465 363.929C137.136 364.125 136.696 364.006 136.514 363.673L14.4104 146.006C12.3877 142.413 13.8126 137.843 17.5238 136.009L286.75 3.45678C289.184 2.26563 292.13 3.18362 293.44 5.56328L406.166 207.579C406.348 207.912 406.231 208.32 405.902 208.515L405.916 208.51Z" stroke="#0075FF" stroke-width="1.5" stroke-miterlimit="10"/>
<path d="M397.906 223.42L162.027 359.974C161.711 360.164 161.309 360.14 161.014 359.915L153.45 354.688L389.126 218.249L397.916 222.978C398.097 223.077 398.09 223.33 397.912 223.434L397.906 223.42Z" stroke="#0075FF" stroke-width="1.5" stroke-miterlimit="10"/>
<path d="M587.379 302.276L587.253 303.939C587.525 305.77 586.543 307.874 584.826 308.978L309.429 486.64C308.681 487.116 307.892 487.53 307.084 487.858C302.53 489.705 297.265 489.023 293.332 486.096L237.061 448.209L205.813 425.982L156.295 388.768L144.973 378.648C144.894 378.57 144.084 377.85 143.632 376.813C143.346 376.146 142.038 372.576 141.296 370.513C141.296 370.513 141.29 370.5 141.285 370.486C140.671 368.779 141.416 366.864 142.917 365.849C143.235 365.626 143.625 365.389 144.056 365.136" stroke="#0075FF" stroke-width="1.5" stroke-miterlimit="10"/>
<path d="M136.342 363.367L140.2 370.285C140.2 370.285 140.92 371.558 142.055 372.538" stroke="#0075FF" stroke-width="1.5" stroke-miterlimit="10"/>
<path d="M407.768 212.031L405.859 208.642" stroke="#0075FF" stroke-width="1.5" stroke-miterlimit="10"/>
<path d="M498.987 352.805L393.231 421.319C391.678 422.325 389.676 422.34 388.119 421.327L330.931 384.658C329.894 383.999 329.905 382.476 330.96 381.829L435.216 318.008C436.586 317.17 438.297 317.133 439.696 317.912L498.912 350.378C499.829 350.898 499.875 352.21 498.976 352.778L498.987 352.805Z" stroke="#0075FF" stroke-width="1.5" stroke-miterlimit="10"/>
<path d="M505.979 267.838L240.365 431.372C239.062 432.183 237.399 432.106 236.168 431.197L162.471 376.807C161.64 376.19 161.707 374.926 162.596 374.409L419.536 223.331C420.535 222.738 421.763 222.71 422.79 223.232L505.89 265.339C506.893 265.839 506.95 267.256 505.997 267.846L505.979 267.838Z" stroke="#0075FF" stroke-width="1.5" stroke-miterlimit="10"/>
<path d="M412.422 217.202L404.917 221.672C404.705 221.805 404.705 222.118 404.943 222.24L411.05 225.303C411.282 225.413 411.549 225.414 411.776 225.275L419.281 220.806C419.494 220.673 419.492 220.36 419.254 220.237L413.154 217.187C412.921 217.078 412.654 217.077 412.428 217.216L412.422 217.202Z" stroke="#0075FF" stroke-width="1.5" stroke-miterlimit="10"/>
<path d="M133.944 82.1059L136.591 87.1209C136.71 87.3385 136.978 87.4178 137.188 87.3169L141.502 85.1909C141.739 85.0792 141.828 84.7929 141.707 84.5755L139.061 79.5602C138.941 79.3428 138.674 79.2633 138.464 79.3642L134.149 81.4906C133.913 81.6022 133.825 81.8883 133.944 82.1059Z" stroke="#0075FF" stroke-width="1.5" stroke-miterlimit="10"/>
<path d="M153.997 72.718L156.113 76.6963C156.227 76.9005 156.142 77.1541 155.937 77.2686L145.531 82.3985C145.334 82.4938 145.086 82.4225 144.971 82.2186L142.85 78.2269C142.736 78.0227 142.821 77.7691 143.026 77.6546L153.438 72.5381C153.634 72.4428 153.883 72.5141 153.997 72.718Z" stroke="#0075FF" stroke-width="1.5" stroke-miterlimit="10"/>
<path d="M175.026 62.3704L177.142 66.3484C177.256 66.5526 177.171 66.8065 176.966 66.9207L166.56 72.0506C166.363 72.1461 166.115 72.0746 166 71.8707L163.879 67.879C163.765 67.6748 163.85 67.4212 164.055 67.3069L174.467 62.1902C174.663 62.0949 174.912 62.1662 175.026 62.3704Z" stroke="#0075FF" stroke-width="1.5" stroke-miterlimit="10"/>
<path d="M168.825 64.9495L165.4 66.6368C165.171 66.7297 165.104 66.9915 165.205 67.201L167.321 71.1792C167.43 71.3697 167.633 71.444 167.84 71.3756L167.88 71.3592L176.951 66.8808" stroke="#0075FF" stroke-width="1.5" stroke-miterlimit="10"/>
<path d="M143.039 77.6488L144.071 77.1363L152.156 73.1675C152.347 73.0585 152.601 73.1433 152.697 73.3393L154.799 77.3232C154.908 77.5136 154.831 77.7485 154.639 77.8574C154.639 77.8574 154.613 77.8683 154.599 77.8739L147.734 81.2538L145.456 82.3661" stroke="#0075FF" stroke-width="1.5" stroke-miterlimit="10"/>
<path d="M154.668 70.7717L158.16 77.369C158.286 77.5998 158.559 77.6926 158.791 77.5672L165.119 74.4517C165.356 74.34 165.452 74.035 165.327 73.8039L161.835 67.2067C161.71 66.9756 161.437 66.8829 161.205 67.0081L154.876 70.1239C154.639 70.2356 154.543 70.5406 154.668 70.7717Z" stroke="#0075FF" stroke-width="1.5" stroke-miterlimit="10"/>
<path d="M179.465 406.165L177.903 399.957C177.873 399.845 177.811 399.729 177.705 399.663L158.041 384.991C157.93 384.911 157.779 385.003 157.821 385.143L159.294 390.979" stroke="#0075FF" stroke-width="1.5" stroke-miterlimit="10"/>
<path d="M185.923 411.026L184.406 405.005C184.365 404.865 184.538 404.748 184.654 404.842L204.288 419.478C204.423 419.58 204.511 419.716 204.562 419.883L206.159 426.216" stroke="#0075FF" stroke-width="1.5" stroke-miterlimit="10"/>
<path d="M218.747 431.775C219.143 431.562 218.94 430.418 218.294 429.219C217.649 428.02 216.804 427.221 216.408 427.433C216.012 427.647 216.215 428.791 216.861 429.991C217.507 431.19 218.351 431.989 218.747 431.775Z" stroke="#0075FF" stroke-width="1.5" stroke-miterlimit="10"/>
<path d="M239.154 375.719C234.061 378.787 231.508 380.308 226.402 383.381C225.997 383.623 225.415 383.656 225.12 383.432C221.312 380.735 219.412 379.377 215.604 376.68C215.295 376.461 215.382 376.097 215.786 375.854C220.863 372.824 223.402 371.309 228.479 368.278C228.883 368.037 229.452 368.009 229.761 368.228C233.59 370.901 235.506 372.221 239.336 374.893C239.645 375.113 239.571 375.471 239.154 375.719Z" stroke="#0075FF" stroke-width="1.5" stroke-miterlimit="10"/>
<path d="M257.181 382.147C252.053 385.245 249.485 386.804 244.363 389.915C243.946 390.163 243.376 390.191 243.067 389.971C239.245 387.28 237.351 385.935 233.535 383.257C233.227 383.038 233.314 382.674 233.718 382.432C238.825 379.358 241.371 377.824 246.478 374.75C246.882 374.508 247.464 374.476 247.773 374.694C251.61 377.348 253.532 378.682 257.369 381.335C257.673 381.541 257.604 381.913 257.187 382.161L257.181 382.147Z" stroke="#0075FF" stroke-width="1.5" stroke-miterlimit="10"/>
<path d="M279.977 385.624C274.819 388.766 272.229 390.349 267.077 393.503C266.66 393.751 266.077 393.783 265.774 393.578C261.944 390.905 260.028 389.585 256.198 386.913C255.89 386.694 255.977 386.33 256.389 386.069C261.525 382.952 264.093 381.393 269.229 378.276C269.647 378.029 270.216 378.001 270.533 378.202C274.392 380.831 276.308 382.151 280.167 384.78C280.47 384.986 280.401 385.358 279.977 385.624Z" stroke="#0075FF" stroke-width="1.5" stroke-miterlimit="10"/>
<path d="M297.931 374.661C292.773 377.802 290.183 379.385 285.031 382.54C284.614 382.788 284.031 382.821 283.728 382.615C279.869 379.986 277.939 378.671 274.072 376.061C273.769 375.855 273.838 375.483 274.255 375.235C279.391 372.119 281.959 370.56 287.095 367.443C287.513 367.195 288.095 367.163 288.399 367.368C292.287 369.954 294.225 371.25 298.114 373.836C298.417 374.042 298.348 374.414 297.931 374.661Z" stroke="#0075FF" stroke-width="1.5" stroke-miterlimit="10"/>
<path d="M315.892 363.712C310.735 366.854 308.144 368.436 302.992 371.591C302.575 371.839 301.998 371.885 301.675 371.671C297.787 369.086 295.836 367.795 291.953 365.223C291.65 365.017 291.718 364.645 292.136 364.397C297.272 361.28 299.84 359.722 304.976 356.605C305.394 356.358 305.976 356.324 306.292 356.525C310.211 359.067 312.17 360.339 316.08 362.9C316.396 363.101 316.315 363.478 315.897 363.725L315.892 363.712Z" stroke="#0075FF" stroke-width="1.5" stroke-miterlimit="10"/>
<path d="M333.846 352.749C328.689 355.891 326.098 357.473 320.946 360.628C320.529 360.876 319.952 360.922 319.635 360.722C315.717 358.179 313.745 356.914 309.827 354.371C309.51 354.17 309.597 353.806 309.996 353.551C315.132 350.434 317.7 348.875 322.836 345.759C323.254 345.511 323.831 345.465 324.147 345.665C328.095 348.164 330.062 349.416 334.015 351.929C334.332 352.129 334.244 352.494 333.846 352.749Z" stroke="#0075FF" stroke-width="1.5" stroke-miterlimit="10"/>
<path d="M351.82 341.794C346.662 344.935 344.073 346.518 338.921 349.672C338.503 349.92 337.926 349.966 337.609 349.766C333.662 347.267 331.681 346.02 327.72 343.526C327.403 343.326 327.491 342.962 327.894 342.719C333.03 339.602 335.599 338.044 340.735 334.927C341.152 334.679 341.729 334.633 342.046 334.834C346.023 337.29 348.018 338.531 351.995 340.987C352.311 341.187 352.224 341.552 351.82 341.794Z" stroke="#0075FF" stroke-width="1.5" stroke-miterlimit="10"/>
<path d="M369.776 330.831C364.618 333.973 362.028 335.555 356.876 338.71C356.459 338.957 355.868 339.01 355.552 338.809C351.561 336.359 349.572 335.13 345.595 332.674C345.278 332.474 345.352 332.115 345.756 331.873C350.892 328.756 353.46 327.198 358.596 324.081C359.014 323.833 359.591 323.787 359.921 323.981C363.934 326.408 365.93 327.617 369.937 330.03C370.253 330.231 370.179 330.589 369.776 330.831Z" stroke="#0075FF" stroke-width="1.5" stroke-miterlimit="10"/>
<path d="M387.735 319.882C382.578 323.023 379.988 324.606 374.836 327.761C374.418 328.008 373.827 328.06 373.511 327.86C369.491 325.453 367.494 324.243 363.474 321.836C363.157 321.636 363.218 321.283 363.635 321.035C368.771 317.918 371.34 316.36 376.476 313.242C376.893 312.995 377.484 312.943 377.801 313.144C381.842 315.527 383.86 316.711 387.897 319.081C388.221 319.262 388.147 319.621 387.735 319.882Z" stroke="#0075FF" stroke-width="1.5" stroke-miterlimit="10"/>
<path d="M405.691 308.919C400.533 312.06 397.943 313.642 392.791 316.797C392.373 317.045 391.783 317.097 391.458 316.915C387.409 314.551 385.39 313.366 381.335 310.989C381.011 310.808 381.085 310.449 381.497 310.188C386.633 307.071 389.201 305.513 394.337 302.395C394.755 302.148 395.345 302.097 395.67 302.278C399.741 304.617 401.781 305.778 405.852 308.117C406.176 308.299 406.102 308.658 405.691 308.919Z" stroke="#0075FF" stroke-width="1.5" stroke-miterlimit="10"/>
<path d="M423.651 297.97C418.493 301.111 415.904 302.693 410.752 305.848C410.334 306.096 409.744 306.148 409.419 305.966C405.34 303.645 403.3 302.485 399.229 300.145C398.904 299.964 398.978 299.605 399.382 299.363C404.519 296.246 407.087 294.688 412.223 291.571C412.64 291.323 413.23 291.271 413.556 291.453C417.656 293.75 419.704 294.891 423.818 297.181C424.142 297.363 424.082 297.717 423.665 297.964L423.651 297.97Z" stroke="#0075FF" stroke-width="1.5" stroke-miterlimit="10"/>
<path d="M441.62 287C436.462 290.141 433.873 291.724 428.721 294.879C428.304 295.127 427.713 295.178 427.374 295.003C423.266 292.725 421.212 291.57 417.104 289.293C416.78 289.112 416.84 288.758 417.257 288.511C422.394 285.394 424.962 283.835 430.098 280.718C430.515 280.471 431.106 280.419 431.444 280.594C435.574 282.848 437.643 283.965 441.774 286.218C442.098 286.399 442.037 286.753 441.62 287Z" stroke="#0075FF" stroke-width="1.5" stroke-miterlimit="10"/>
<path d="M275.028 371.338C269.899 374.436 267.331 375.994 262.209 379.106C261.792 379.353 261.223 379.381 260.919 379.175C257.068 376.527 255.152 375.207 251.301 372.559C250.998 372.353 251.066 371.981 251.483 371.733C256.59 368.66 259.137 367.126 264.244 364.052C264.647 363.81 265.23 363.777 265.533 363.983C269.4 366.593 271.344 367.902 275.211 370.512C275.514 370.718 275.445 371.09 275.028 371.338Z" stroke="#0075FF" stroke-width="1.5" stroke-miterlimit="10"/>
<path d="M292.886 360.524C287.757 363.622 285.189 365.181 280.066 368.292C279.649 368.539 279.067 368.572 278.763 368.366C274.883 365.762 272.945 364.466 269.078 361.856C268.775 361.65 268.844 361.278 269.261 361.03C274.368 357.957 276.914 356.423 282.02 353.349C282.425 353.107 283.007 353.074 283.324 353.274C287.221 355.841 289.172 357.131 293.068 359.698C293.385 359.899 293.303 360.276 292.886 360.524Z" stroke="#0075FF" stroke-width="1.5" stroke-miterlimit="10"/>
<path d="M310.73 349.715C305.602 352.813 303.034 354.371 297.911 357.482C297.494 357.73 296.911 357.763 296.608 357.558C292.698 354.996 290.752 353.719 286.842 351.158C286.526 350.958 286.613 350.593 287.011 350.338C292.118 347.264 294.664 345.73 299.771 342.656C300.175 342.414 300.771 342.376 301.075 342.582C305 345.105 306.973 346.371 310.9 348.895C311.216 349.095 311.129 349.459 310.73 349.715Z" stroke="#0075FF" stroke-width="1.5" stroke-miterlimit="10"/>
<path d="M328.588 338.901C323.46 341.999 320.892 343.557 315.756 346.674C315.338 346.922 314.756 346.955 314.439 346.755C310.499 344.236 308.532 342.984 304.592 340.466C304.276 340.265 304.363 339.901 304.767 339.659C309.874 336.585 312.42 335.051 317.527 331.978C317.931 331.736 318.527 331.697 318.844 331.897C322.8 334.377 324.78 335.625 328.755 338.113C329.072 338.313 328.984 338.678 328.58 338.92L328.588 338.901Z" stroke="#0075FF" stroke-width="1.5" stroke-miterlimit="10"/>
<path d="M346.435 328.092C341.307 331.19 338.738 332.749 333.602 335.866C333.185 336.113 332.608 336.16 332.291 335.96C328.322 333.484 326.342 332.238 322.372 329.763C322.056 329.562 322.13 329.203 322.533 328.961C327.64 325.888 330.187 324.354 335.293 321.28C335.697 321.038 336.293 321 336.605 321.187C340.595 323.637 342.592 324.847 346.583 327.297C346.899 327.497 346.825 327.856 346.421 328.098L346.435 328.092Z" stroke="#0075FF" stroke-width="1.5" stroke-miterlimit="10"/>
<path d="M364.293 317.278C359.165 320.376 356.597 321.935 351.46 325.051C351.043 325.299 350.466 325.345 350.136 325.15C346.137 322.719 344.135 321.496 340.136 319.065C339.82 318.865 339.881 318.511 340.298 318.264C345.405 315.19 347.951 313.656 353.057 310.582C353.462 310.34 354.052 310.288 354.382 310.483C358.402 312.891 360.42 314.075 364.441 316.482C364.771 316.677 364.691 317.022 364.28 317.284L364.293 317.278Z" stroke="#0075FF" stroke-width="1.5" stroke-miterlimit="10"/>
<path d="M382.15 306.464L369.33 314.231C368.913 314.48 368.322 314.531 368.006 314.331C363.977 311.943 361.954 310.744 357.926 308.356C357.596 308.161 357.675 307.816 358.079 307.574C363.186 304.5 365.733 302.966 370.839 299.892C371.243 299.65 371.834 299.598 372.164 299.793C376.227 302.152 378.245 303.336 382.303 305.682C382.627 305.863 382.553 306.222 382.15 306.464Z" stroke="#0075FF" stroke-width="1.5" stroke-miterlimit="10"/>
<path d="M400 295.668C394.872 298.766 392.304 300.325 387.181 303.436C386.763 303.683 386.173 303.736 385.848 303.554C381.791 301.209 379.759 300.029 375.701 297.684C375.377 297.503 375.451 297.144 375.855 296.902C380.961 293.829 383.508 292.294 388.615 289.221C389.018 288.979 389.623 288.921 389.947 289.103C394.04 291.418 396.08 292.579 400.167 294.881C400.491 295.062 400.431 295.415 400.014 295.663L400 295.668Z" stroke="#0075FF" stroke-width="1.5" stroke-miterlimit="10"/>
<path d="M417.859 284.853C412.731 287.952 410.163 289.51 405.04 292.621C404.623 292.869 404.032 292.921 403.707 292.74C399.62 290.438 397.567 289.282 393.48 286.981C393.155 286.799 393.216 286.446 393.619 286.204C398.726 283.13 401.273 281.597 406.379 278.522C406.783 278.281 407.388 278.223 407.712 278.405C411.834 280.677 413.895 281.813 418.004 284.091C418.329 284.272 418.268 284.625 417.864 284.867L417.859 284.853Z" stroke="#0075FF" stroke-width="1.5" stroke-miterlimit="10"/>
<path d="M435.704 274.045C430.576 277.143 428.008 278.701 422.885 281.813C422.468 282.061 421.878 282.112 421.552 281.931C417.436 279.673 415.375 278.537 411.239 276.269C410.915 276.088 410.975 275.735 411.379 275.493C416.485 272.419 419.032 270.885 424.139 267.811C424.542 267.569 425.147 267.512 425.472 267.694C429.623 269.922 431.693 271.039 435.844 273.268C436.182 273.444 436.116 273.784 435.704 274.045Z" stroke="#0075FF" stroke-width="1.5" stroke-miterlimit="10"/>
<path d="M256.882 365.051C251.789 368.119 249.237 369.64 244.13 372.713C243.726 372.955 243.143 372.988 242.835 372.77C238.997 370.116 237.076 368.783 233.238 366.129C232.93 365.91 233.004 365.551 233.421 365.304C238.498 362.273 241.037 360.758 246.114 357.728C246.518 357.485 247.101 357.453 247.409 357.671C251.268 360.301 253.193 361.602 257.065 364.226C257.368 364.431 257.3 364.804 256.882 365.051Z" stroke="#0075FF" stroke-width="1.5" stroke-miterlimit="10"/>
<path d="M274.63 354.391C269.537 357.459 266.984 358.98 261.878 362.053C261.474 362.295 260.891 362.328 260.588 362.122C256.721 359.512 254.791 358.198 250.924 355.587C250.621 355.382 250.69 355.01 251.093 354.768C256.17 351.737 258.709 350.222 263.787 347.191C264.19 346.949 264.773 346.917 265.076 347.122C268.964 349.708 270.915 350.998 274.799 353.571C275.102 353.776 275.034 354.149 274.63 354.391Z" stroke="#0075FF" stroke-width="1.5" stroke-miterlimit="10"/>
<path d="M292.378 343.731C287.285 346.799 284.733 348.32 279.627 351.393C279.223 351.636 278.64 351.669 278.323 351.468C274.426 348.901 272.475 347.611 268.578 345.044C268.262 344.843 268.35 344.48 268.753 344.237C273.831 341.207 276.369 339.692 281.446 336.662C281.851 336.42 282.433 336.386 282.749 336.587C286.668 339.129 288.641 340.395 292.558 342.938C292.875 343.138 292.788 343.502 292.384 343.744L292.378 343.731Z" stroke="#0075FF" stroke-width="1.5" stroke-miterlimit="10"/>
<path d="M310.126 333.07C305.034 336.139 302.481 337.659 297.375 340.733C296.971 340.975 296.389 341.008 296.072 340.808C292.145 338.284 290.173 337.018 286.241 334.481C285.924 334.281 286.012 333.916 286.403 333.68C291.48 330.649 294.018 329.134 299.095 326.104C299.499 325.862 300.082 325.829 300.398 326.029C304.346 328.528 306.327 329.775 310.288 332.269C310.605 332.469 310.517 332.834 310.126 333.07Z" stroke="#0075FF" stroke-width="1.5" stroke-miterlimit="10"/>
<path d="M327.87 322.397C322.776 325.465 320.225 326.986 315.118 330.059C314.714 330.302 314.117 330.34 313.801 330.14C309.84 327.646 307.864 326.412 303.903 323.919C303.587 323.718 303.661 323.359 304.065 323.117C309.142 320.087 311.68 318.572 316.758 315.541C317.162 315.299 317.744 315.266 318.074 315.461C322.065 317.912 324.054 319.14 328.031 321.596C328.347 321.796 328.273 322.155 327.87 322.397Z" stroke="#0075FF" stroke-width="1.5" stroke-miterlimit="10"/>
<path d="M345.619 311.737C340.526 314.805 337.974 316.326 332.867 319.399C332.463 319.642 331.867 319.68 331.556 319.493C327.565 317.042 325.568 315.834 321.577 313.383C321.261 313.183 321.322 312.829 321.726 312.587C326.803 309.557 329.342 308.042 334.419 305.011C334.822 304.769 335.419 304.731 335.73 304.917C339.75 307.325 341.746 308.534 345.767 310.941C346.083 311.141 346.017 311.482 345.619 311.737Z" stroke="#0075FF" stroke-width="1.5" stroke-miterlimit="10"/>
<path d="M363.366 301.077C358.272 304.145 355.72 305.666 350.613 308.739C350.21 308.981 349.619 309.033 349.289 308.838C345.269 306.431 343.259 305.227 339.23 302.839C338.9 302.644 338.98 302.299 339.384 302.057C344.461 299.026 347 297.511 352.077 294.481C352.481 294.239 353.077 294.2 353.401 294.382C357.451 296.746 359.469 297.93 363.519 300.295C363.844 300.476 363.77 300.835 363.366 301.077Z" stroke="#0075FF" stroke-width="1.5" stroke-miterlimit="10"/>
<path d="M381.101 290.422C376.007 293.491 373.456 295.011 368.349 298.085C367.945 298.327 367.354 298.379 367.024 298.184C362.975 295.82 360.943 294.641 356.893 292.277C356.569 292.095 356.629 291.742 357.046 291.494C362.124 288.465 364.662 286.949 369.74 283.919C370.143 283.677 370.734 283.625 371.064 283.82C375.143 286.14 377.183 287.301 381.254 289.64C381.579 289.822 381.518 290.175 381.101 290.422Z" stroke="#0075FF" stroke-width="1.5" stroke-miterlimit="10"/>
<path d="M398.843 279.749C393.751 282.817 391.199 284.338 386.092 287.412C385.688 287.654 385.097 287.705 384.767 287.511C380.688 285.19 378.635 284.035 374.556 281.714C374.231 281.533 374.292 281.179 374.696 280.938C379.773 277.907 382.311 276.392 387.388 273.362C387.792 273.119 388.383 273.067 388.713 273.262C392.822 275.54 394.875 276.695 398.984 278.972C399.308 279.154 399.248 279.507 398.843 279.749Z" stroke="#0075FF" stroke-width="1.5" stroke-miterlimit="10"/>
<path d="M416.593 269.089C411.5 272.157 408.948 273.678 403.841 276.751C403.437 276.994 402.833 277.051 402.509 276.87C398.4 274.592 396.339 273.456 392.216 271.184C391.892 271.003 391.958 270.663 392.362 270.421C397.439 267.39 399.978 265.875 405.055 262.845C405.458 262.603 406.049 262.551 406.387 262.727C410.525 264.961 412.6 266.092 416.738 268.326C417.063 268.507 417.01 268.841 416.593 269.089Z" stroke="#0075FF" stroke-width="1.5" stroke-miterlimit="10"/>
<path d="M434.34 258.429C429.247 261.497 426.695 263.018 421.588 266.091C421.185 266.333 420.58 266.391 420.256 266.21C416.104 263.981 414.035 262.864 409.897 260.629C409.572 260.448 409.625 260.114 410.029 259.872C415.106 256.841 417.644 255.326 422.721 252.296C423.126 252.054 423.729 251.996 424.054 252.178C428.228 254.382 430.318 255.475 434.486 257.665C434.824 257.842 434.758 258.182 434.354 258.424L434.34 258.429Z" stroke="#0075FF" stroke-width="1.5" stroke-miterlimit="10"/>
<path d="M411.475 255.778C406.411 258.803 403.872 260.319 398.803 263.33C398.399 263.572 397.808 263.624 397.471 263.448C393.34 261.195 391.271 260.078 387.141 257.825C386.817 257.643 386.869 257.309 387.273 257.067C392.321 254.08 394.838 252.589 399.885 249.602C400.289 249.36 400.88 249.308 401.218 249.484C405.377 251.694 407.447 252.811 411.612 255.034C411.95 255.21 411.884 255.55 411.48 255.792L411.475 255.778Z" stroke="#0075FF" stroke-width="1.5" stroke-miterlimit="10"/>
<path d="M393.823 266.29C388.759 269.315 386.221 270.83 381.152 273.842C380.748 274.084 380.157 274.136 379.827 273.941C375.726 271.645 373.679 270.503 369.578 268.207C369.253 268.025 369.319 267.685 369.71 267.448C374.757 264.462 377.274 262.971 382.322 259.984C382.726 259.741 383.322 259.703 383.647 259.885C387.764 262.143 389.838 263.273 393.955 265.532C394.28 265.713 394.227 266.048 393.823 266.29Z" stroke="#0075FF" stroke-width="1.5" stroke-miterlimit="10"/>
<path d="M376.177 276.815C371.114 279.84 368.575 281.355 363.506 284.366C363.102 284.608 362.506 284.647 362.181 284.465C358.11 282.126 356.084 280.96 352.013 278.62C351.688 278.439 351.749 278.086 352.152 277.844C357.2 274.856 359.717 273.366 364.765 270.378C365.169 270.136 365.765 270.098 366.089 270.279C370.177 272.581 372.23 273.736 376.317 276.038C376.642 276.219 376.581 276.573 376.177 276.815Z" stroke="#0075FF" stroke-width="1.5" stroke-miterlimit="10"/>
<path d="M358.544 287.334C353.481 290.358 350.942 291.874 345.872 294.885C345.469 295.127 344.873 295.165 344.561 294.979C340.52 292.596 338.502 291.411 334.46 289.028C334.13 288.833 334.196 288.493 334.6 288.251C339.647 285.264 342.165 283.773 347.212 280.786C347.616 280.544 348.212 280.506 348.524 280.692C352.581 283.038 354.613 284.217 358.684 286.557C359.009 286.738 358.948 287.091 358.544 287.334Z" stroke="#0075FF" stroke-width="1.5" stroke-miterlimit="10"/>
<path d="M340.934 297.829C335.87 300.854 333.331 302.369 328.262 305.381C327.858 305.623 327.262 305.661 326.951 305.474C322.939 303.048 320.941 301.839 316.93 299.413C316.613 299.212 316.679 298.873 317.083 298.63C322.131 295.643 324.648 294.153 329.696 291.165C330.099 290.923 330.682 290.891 331.007 291.072C335.035 293.46 337.058 294.658 341.087 297.047C341.417 297.241 341.337 297.587 340.934 297.829Z" stroke="#0075FF" stroke-width="1.5" stroke-miterlimit="10"/>
<path d="M323.3 308.348C318.237 311.373 315.698 312.888 310.629 315.9C310.225 316.142 309.642 316.175 309.325 315.974C305.343 313.505 303.355 312.277 299.391 309.816C299.074 309.615 299.135 309.262 299.544 309.033C304.592 306.046 307.109 304.556 312.157 301.568C312.56 301.326 313.143 301.293 313.46 301.494C317.458 303.925 319.455 305.134 323.454 307.566C323.77 307.767 323.704 308.106 323.3 308.348Z" stroke="#0075FF" stroke-width="1.5" stroke-miterlimit="10"/>
<path d="M305.662 318.854C300.599 321.879 298.06 323.394 292.991 326.405C292.587 326.647 292.004 326.681 291.687 326.48C287.74 323.981 285.767 322.715 281.819 320.216C281.503 320.015 281.577 319.657 281.981 319.415C287.028 316.427 289.546 314.937 294.593 311.95C294.997 311.707 295.58 311.675 295.896 311.875C299.866 314.35 301.854 315.578 305.823 318.053C306.14 318.253 306.066 318.612 305.662 318.854Z" stroke="#0075FF" stroke-width="1.5" stroke-miterlimit="10"/>
<path d="M288.056 329.363C282.993 332.387 280.454 333.903 275.385 336.914C274.981 337.156 274.398 337.189 274.082 336.988C270.164 334.446 268.212 333.156 264.294 330.614C263.978 330.413 264.065 330.049 264.455 329.812C269.503 326.825 272.02 325.334 277.067 322.347C277.472 322.105 278.054 322.072 278.371 322.272C282.311 324.791 284.278 326.043 288.218 328.561C288.534 328.762 288.447 329.126 288.056 329.363Z" stroke="#0075FF" stroke-width="1.5" stroke-miterlimit="10"/>
<path d="M270.403 339.874C265.339 342.898 262.801 344.413 257.732 347.426C257.328 347.667 256.745 347.7 256.437 347.481C252.548 344.896 250.61 343.599 246.729 340.995C246.426 340.789 246.5 340.43 246.904 340.188C251.952 337.201 254.469 335.71 259.517 332.723C259.92 332.481 260.504 332.448 260.812 332.668C264.722 335.229 266.668 336.506 270.578 339.067C270.894 339.268 270.807 339.631 270.403 339.874Z" stroke="#0075FF" stroke-width="1.5" stroke-miterlimit="10"/>
<path d="M252.757 350.398C247.694 353.423 245.155 354.938 240.086 357.95C239.683 358.192 239.1 358.225 238.791 358.006C234.945 355.371 233.015 354.057 229.157 351.427C228.853 351.221 228.922 350.85 229.331 350.621C234.379 347.634 236.896 346.143 241.944 343.156C242.348 342.914 242.922 342.9 243.239 343.1C247.12 345.704 249.057 347.001 252.938 349.605C253.241 349.811 253.173 350.183 252.763 350.412L252.757 350.398Z" stroke="#0075FF" stroke-width="1.5" stroke-miterlimit="10"/>
<path d="M235.125 360.918C230.061 363.943 227.522 365.458 222.453 368.469C222.049 368.711 221.474 368.725 221.172 368.52C217.355 365.841 215.434 364.508 211.617 361.831C211.309 361.611 211.383 361.252 211.786 361.01C216.834 358.023 219.351 356.532 224.399 353.545C224.803 353.303 225.377 353.289 225.68 353.495C229.532 356.143 231.448 357.463 235.294 360.097C235.597 360.303 235.528 360.676 235.125 360.918Z" stroke="#0075FF" stroke-width="1.5" stroke-miterlimit="10"/>
<path d="M217.486 371.423C212.423 374.448 209.885 375.963 204.815 378.975C204.412 379.217 203.837 379.231 203.533 379.025C199.747 376.304 197.847 374.946 194.06 372.225C193.752 372.006 193.839 371.642 194.243 371.4C199.291 368.412 201.808 366.922 206.855 363.935C207.259 363.693 207.834 363.678 208.137 363.884C211.954 366.562 213.867 367.915 217.669 370.598C217.978 370.817 217.904 371.176 217.486 371.423Z" stroke="#0075FF" stroke-width="1.5" stroke-miterlimit="10"/>
<path d="M199.854 381.943C194.79 384.968 192.251 386.483 187.182 389.495C186.778 389.737 186.203 389.75 185.908 389.526C182.151 386.761 180.272 385.379 176.502 382.621C176.207 382.396 176.281 382.037 176.685 381.795C181.733 378.808 184.249 377.317 189.297 374.329C189.701 374.088 190.275 374.074 190.571 374.298C194.358 377.02 196.25 378.396 200.036 381.117C200.345 381.337 200.257 381.701 199.854 381.943Z" stroke="#0075FF" stroke-width="1.5" stroke-miterlimit="10"/>
<path d="M456.691 244.994C449.729 249.181 446.26 251.262 439.298 255.448C438.894 255.69 438.29 255.747 437.952 255.572C433.771 253.386 431.693 252.288 427.513 250.102C427.174 249.926 427.24 249.587 427.644 249.345C434.563 245.207 438.025 243.145 444.957 239.002C445.36 238.76 445.965 238.702 446.303 238.878C450.513 241.021 452.612 242.094 456.823 244.237C457.161 244.412 457.108 244.747 456.691 244.994Z" stroke="#0075FF" stroke-width="1.5" stroke-miterlimit="10"/>
<path d="M221.418 386.373C212.951 391.452 208.728 393.995 200.267 399.087C199.863 399.329 199.288 399.343 198.985 399.137C195.228 396.373 193.35 394.991 189.579 392.232C189.284 392.007 189.366 391.629 189.77 391.387C198.193 386.358 202.401 383.852 210.811 378.828C211.214 378.585 211.789 378.572 212.092 378.778C215.887 381.48 217.787 382.837 221.587 385.554C221.896 385.773 221.809 386.137 221.391 386.384L221.418 386.373Z" stroke="#0075FF" stroke-width="1.5" stroke-miterlimit="10"/>
<path d="M239.31 392.966C228.935 399.258 223.745 402.396 213.365 408.674C212.948 408.921 212.378 408.949 212.083 408.724C208.326 405.96 206.447 404.578 202.677 401.818C202.382 401.594 202.464 401.216 202.867 400.974C213.197 394.764 218.365 391.649 228.689 385.426C229.093 385.184 229.676 385.151 229.984 385.37C233.793 388.067 235.687 389.412 239.496 392.109C239.804 392.328 239.716 392.692 239.304 392.953L239.31 392.966Z" stroke="#0075FF" stroke-width="1.5" stroke-miterlimit="10"/>
<path d="M293.375 394.792C288.175 397.982 285.59 399.578 280.39 402.768C279.978 403.029 279.395 403.062 279.086 402.843C275.257 400.17 273.341 398.85 269.511 396.178C269.202 395.959 269.29 395.595 269.702 395.334C274.868 392.173 277.458 390.591 282.629 387.444C283.046 387.196 283.628 387.163 283.932 387.369C287.791 389.998 289.707 391.318 293.566 393.947C293.869 394.153 293.787 394.531 293.375 394.792Z" stroke="#0075FF" stroke-width="1.5" stroke-miterlimit="10"/>
<path d="M275.306 405.896C270.106 409.086 267.521 410.682 262.321 413.872C261.909 414.133 261.32 414.153 261.018 413.947C257.223 411.245 255.323 409.887 251.523 407.171C251.214 406.952 251.31 406.568 251.727 406.321C256.893 403.161 259.482 401.578 264.653 398.431C265.071 398.184 265.653 398.151 265.956 398.356C269.786 401.029 271.694 402.368 275.511 405.046C275.819 405.265 275.724 405.648 275.306 405.896Z" stroke="#0075FF" stroke-width="1.5" stroke-miterlimit="10"/>
<path d="M257.235 416.999C250.155 421.358 246.613 423.532 239.527 427.877C239.116 428.138 238.528 428.158 238.233 427.933C234.475 425.169 232.597 423.787 228.826 421.028C228.531 420.803 228.613 420.425 229.03 420.178C236.086 415.876 239.601 413.713 246.656 409.41C247.074 409.163 247.657 409.13 247.952 409.355C251.739 412.076 253.639 413.434 257.439 416.15C257.747 416.368 257.652 416.752 257.235 416.999Z" stroke="#0075FF" stroke-width="1.5" stroke-miterlimit="10"/>
<path d="M311.446 383.689C306.246 386.879 303.662 388.475 298.461 391.665C298.049 391.926 297.466 391.959 297.144 391.745C293.285 389.116 291.361 387.815 287.488 385.191C287.185 384.986 287.254 384.614 287.679 384.347C292.845 381.186 295.434 379.604 300.606 376.457C301.023 376.209 301.6 376.163 301.922 376.377C305.811 378.963 307.748 380.258 311.637 382.844C311.94 383.05 311.871 383.422 311.446 383.689Z" stroke="#0075FF" stroke-width="1.5" stroke-miterlimit="10"/>
<path d="M401.751 328.173C373.333 345.635 344.934 363.104 316.516 380.566C316.104 380.828 315.508 380.866 315.205 380.66C311.316 378.074 309.365 376.784 305.482 374.212C305.179 374.006 305.248 373.634 305.665 373.386C333.938 356.108 362.211 338.83 390.496 321.547C390.914 321.299 391.505 321.248 391.829 321.429C395.871 323.812 397.889 324.996 401.925 327.366C402.25 327.547 402.182 327.92 401.764 328.167L401.751 328.173Z" stroke="#0075FF" stroke-width="1.5" stroke-miterlimit="10"/>
<path d="M262.03 396.569C250.186 403.801 238.336 411.019 226.478 418.256C226.061 418.503 225.492 418.531 225.183 418.311C221.426 415.547 219.547 414.165 215.776 411.406C215.481 411.181 215.564 410.803 215.981 410.556C227.78 403.405 239.565 396.26 251.358 389.096C251.775 388.849 252.345 388.821 252.654 389.041C256.483 391.713 258.391 393.051 262.208 395.73C262.516 395.949 262.428 396.313 262.017 396.574L262.03 396.569Z" stroke="#0075FF" stroke-width="1.5" stroke-miterlimit="10"/>
<path d="M419.857 317.039C414.656 320.229 412.073 321.825 406.872 325.015C406.46 325.276 405.851 325.32 405.539 325.134C401.49 322.769 399.471 321.584 395.422 319.22C395.097 319.039 395.171 318.681 395.583 318.419C400.748 315.259 403.339 313.676 408.509 310.53C408.927 310.282 409.517 310.23 409.842 310.412C413.913 312.751 415.953 313.912 420.024 316.251C420.349 316.432 420.275 316.791 419.863 317.053L419.857 317.039Z" stroke="#0075FF" stroke-width="1.5" stroke-miterlimit="10"/>
<path d="M437.927 305.935C432.727 309.125 430.143 310.722 424.942 313.912C424.53 314.172 423.926 314.23 423.596 314.035C419.516 311.715 417.477 310.554 413.406 308.214C413.082 308.033 413.156 307.674 413.567 307.413C418.733 304.253 421.323 302.67 426.494 299.523C426.911 299.276 427.515 299.219 427.839 299.4C431.94 301.696 433.988 302.838 438.102 305.129C438.427 305.31 438.353 305.669 437.941 305.93L437.927 305.935Z" stroke="#0075FF" stroke-width="1.5" stroke-miterlimit="10"/>
<path d="M458.808 293.096C452.49 296.975 449.33 298.93 443.012 302.808C442.6 303.069 441.996 303.126 441.671 302.945C437.562 300.667 435.51 299.513 431.4 297.235C431.076 297.054 431.136 296.7 431.553 296.453C437.837 292.605 440.994 290.682 447.283 286.847C447.7 286.599 448.299 286.529 448.623 286.71C452.767 288.958 454.836 290.075 458.961 292.314C459.286 292.496 459.225 292.849 458.808 293.096Z" stroke="#0075FF" stroke-width="1.5" stroke-miterlimit="10"/>
<path d="M473.522 276.969C467.212 280.828 464.06 282.764 457.742 286.642C457.325 286.89 456.726 286.961 456.402 286.78C454.733 285.876 453.889 285.419 452.207 284.521C451.882 284.34 451.943 283.987 452.36 283.739C458.656 279.886 461.8 277.968 468.096 274.115C468.514 273.867 469.112 273.796 469.451 273.972C471.141 274.851 471.985 275.307 473.675 276.186C474.014 276.363 473.947 276.703 473.535 276.963L473.522 276.969Z" stroke="#0075FF" stroke-width="1.5" stroke-miterlimit="10"/>
<path d="M479.729 280.241C473.398 284.125 470.239 286.08 463.908 289.964C463.496 290.224 462.891 290.282 462.553 290.106C460.884 289.202 460.041 288.746 458.358 287.848C458.034 287.667 458.094 287.313 458.511 287.066C464.829 283.187 467.987 281.265 474.291 277.392C474.708 277.145 475.307 277.074 475.645 277.25C477.336 278.129 478.18 278.585 479.87 279.464C480.208 279.641 480.128 279.986 479.716 280.246L479.729 280.241Z" stroke="#0075FF" stroke-width="1.5" stroke-miterlimit="10"/>
<path d="M500.623 267.398C494.306 271.276 491.145 273.231 484.827 277.109C484.416 277.37 483.811 277.428 483.474 277.252C479.292 275.066 477.202 273.973 473.02 271.788C472.682 271.612 472.749 271.272 473.16 271.011C479.443 267.163 482.601 265.24 488.889 261.405C489.306 261.158 489.905 261.087 490.243 261.263C494.454 263.405 496.552 264.479 500.763 266.621C501.101 266.797 501.035 267.137 500.623 267.398Z" stroke="#0075FF" stroke-width="1.5" stroke-miterlimit="10"/>
<path d="M485.987 259.937C472.87 267.935 459.758 275.948 446.64 283.946C446.222 284.194 445.624 284.265 445.299 284.083C441.161 281.848 439.087 280.718 434.948 278.484C434.623 278.303 434.69 277.963 435.088 277.707C448.147 269.795 461.186 261.875 474.245 253.963C474.662 253.716 475.261 253.644 475.599 253.821C479.81 255.963 481.908 257.037 486.119 259.179C486.457 259.354 486.392 259.695 485.974 259.942L485.987 259.937Z" stroke="#0075FF" stroke-width="1.5" stroke-miterlimit="10"/>
<path d="M457.463 245.354C450.475 249.55 446.983 251.656 439.994 255.854C439.605 256.09 439.546 256.411 439.865 256.579C440.498 256.901 440.817 257.069 441.442 257.41C436.486 260.391 434.002 261.884 429.045 264.866C428.655 265.102 428.597 265.423 428.916 265.592C433.1 267.823 435.188 268.948 439.359 271.185C439.678 271.353 440.25 271.292 440.627 271.061C450.864 264.857 461.115 258.648 471.358 252.457C471.749 252.221 471.806 251.9 471.487 251.732C470.616 251.287 470.184 251.072 469.313 250.626C465.949 248.908 464.27 248.055 460.892 246.342C460.021 245.897 459.588 245.681 458.717 245.236C458.398 245.068 457.826 245.128 457.436 245.365L457.463 245.354Z" stroke="#0075FF" stroke-width="1.5" stroke-miterlimit="10"/>
<path d="M210.665 358.241C205.63 361.223 203.113 362.714 198.074 365.682C197.67 365.924 197.095 365.938 196.787 365.719C194.602 364.163 193.498 363.375 191.3 361.825C190.991 361.605 191.066 361.247 191.47 361.004C196.496 358.042 199.005 356.57 204.031 353.608C204.435 353.365 205.01 353.351 205.318 353.57C207.529 355.115 208.623 355.877 210.834 357.422C211.142 357.64 211.068 357.999 210.665 358.241Z" stroke="#0075FF" stroke-width="1.5" stroke-miterlimit="10"/>
<path d="M228.201 347.871C223.166 350.852 220.649 352.343 215.61 355.312C215.206 355.554 214.631 355.567 214.328 355.362C212.122 353.83 211.01 353.061 208.804 351.53C208.496 351.31 208.57 350.951 208.979 350.723C214.005 347.761 216.514 346.289 221.54 343.326C221.945 343.084 222.519 343.07 222.822 343.275C225.05 344.782 226.161 345.552 228.389 347.059C228.692 347.264 228.624 347.637 228.214 347.865L228.201 347.871Z" stroke="#0075FF" stroke-width="1.5" stroke-miterlimit="10"/>
<path d="M245.722 337.506C240.688 340.487 238.171 341.978 233.131 344.946C232.727 345.188 232.152 345.203 231.849 344.997C229.622 343.49 228.515 342.734 226.283 341.213C225.98 341.008 226.054 340.649 226.457 340.407C231.484 337.444 233.993 335.972 239.019 333.009C239.423 332.767 239.997 332.753 240.314 332.953C242.549 334.442 243.683 335.187 245.919 336.675C246.222 336.881 246.147 337.239 245.757 337.476L245.722 337.506Z" stroke="#0075FF" stroke-width="1.5" stroke-miterlimit="10"/>
<path d="M263.246 327.141C258.212 330.123 255.695 331.614 250.655 334.582C250.251 334.824 249.677 334.838 249.36 334.637C247.111 333.155 245.991 332.405 243.742 330.922C243.426 330.721 243.513 330.357 243.903 330.121C248.93 327.158 251.439 325.686 256.465 322.723C256.868 322.481 257.443 322.467 257.76 322.668C260.017 324.131 261.145 324.863 263.407 326.34C263.724 326.541 263.636 326.905 263.246 327.141Z" stroke="#0075FF" stroke-width="1.5" stroke-miterlimit="10"/>
<path d="M280.783 316.771C275.748 319.752 273.232 321.243 268.192 324.211C267.788 324.453 267.205 324.486 266.902 324.281C264.632 322.823 263.504 322.091 261.247 320.627C260.93 320.427 261.004 320.068 261.408 319.826C266.434 316.863 268.943 315.391 273.969 312.428C274.373 312.186 274.943 312.159 275.259 312.359C277.537 313.799 278.68 314.525 280.957 315.964C281.274 316.164 281.2 316.523 280.796 316.765L280.783 316.771Z" stroke="#0075FF" stroke-width="1.5" stroke-miterlimit="10"/>
<path d="M298.305 306.406C293.271 309.386 290.754 310.878 285.714 313.846C285.31 314.088 284.727 314.121 284.41 313.921C282.132 312.482 280.996 311.769 278.704 310.335C278.388 310.135 278.462 309.776 278.858 309.552C283.883 306.59 286.393 305.118 291.419 302.155C291.823 301.913 292.405 301.88 292.722 302.08C295.022 303.495 296.172 304.203 298.458 305.623C298.775 305.823 298.709 306.163 298.305 306.406Z" stroke="#0075FF" stroke-width="1.5" stroke-miterlimit="10"/>
<path d="M315.84 296.034C310.806 299.016 308.289 300.507 303.249 303.476C302.845 303.718 302.263 303.751 301.946 303.55C299.647 302.135 298.497 301.428 296.196 300.013C295.88 299.812 295.946 299.473 296.35 299.231C301.377 296.268 303.885 294.796 308.912 291.833C309.315 291.591 309.898 291.558 310.215 291.759C312.523 293.154 313.68 293.843 316.002 295.234C316.318 295.434 316.252 295.774 315.848 296.016L315.84 296.034Z" stroke="#0075FF" stroke-width="1.5" stroke-miterlimit="10"/>
<path d="M333.364 285.67C328.33 288.652 325.813 290.142 320.773 293.11C320.369 293.352 319.786 293.385 319.456 293.191C317.135 291.8 315.977 291.112 313.656 289.721C313.339 289.521 313.406 289.181 313.796 288.945C318.821 285.982 321.331 284.51 326.357 281.548C326.761 281.305 327.344 281.272 327.674 281.467C330.003 282.839 331.175 283.521 333.504 284.893C333.828 285.074 333.768 285.428 333.364 285.67Z" stroke="#0075FF" stroke-width="1.5" stroke-miterlimit="10"/>
<path d="M350.9 275.299C345.866 278.28 343.349 279.772 338.309 282.74C337.906 282.982 337.323 283.015 336.998 282.834C334.656 281.467 333.503 280.792 331.16 279.426C330.835 279.244 330.897 278.891 331.3 278.649C336.326 275.686 338.835 274.215 343.862 271.252C344.265 271.01 344.848 270.976 345.173 271.158C347.524 272.506 348.703 273.169 351.053 274.517C351.378 274.698 351.317 275.051 350.908 275.28L350.9 275.299Z" stroke="#0075FF" stroke-width="1.5" stroke-miterlimit="10"/>
<path d="M368.423 264.934C363.389 267.916 360.872 269.406 355.832 272.374C355.428 272.616 354.832 272.655 354.507 272.474C352.157 271.126 350.977 270.462 348.632 269.129C348.307 268.947 348.368 268.594 348.764 268.37C353.79 265.408 356.299 263.936 361.325 260.973C361.729 260.731 362.312 260.698 362.65 260.874C365.022 262.197 366.196 262.848 368.568 264.17C368.893 264.352 368.84 264.686 368.437 264.928L368.423 264.934Z" stroke="#0075FF" stroke-width="1.5" stroke-miterlimit="10"/>
<path d="M385.96 254.563C380.926 257.544 378.409 259.036 373.369 262.004C372.966 262.246 372.369 262.284 372.045 262.103C369.678 260.794 368.485 260.135 366.113 258.812C365.788 258.631 365.841 258.296 366.244 258.054C371.271 255.091 373.78 253.62 378.806 250.657C379.21 250.414 379.806 250.376 380.131 250.558C382.524 251.856 383.712 252.501 386.086 253.792C386.411 253.974 386.359 254.308 385.955 254.55L385.96 254.563Z" stroke="#0075FF" stroke-width="1.5" stroke-miterlimit="10"/>
<path d="M403.488 244.212C398.454 247.194 395.937 248.685 390.897 251.653C390.494 251.895 389.897 251.933 389.573 251.752C387.184 250.467 385.997 249.822 383.603 248.523C383.279 248.342 383.331 248.007 383.735 247.765C388.761 244.803 391.27 243.33 396.296 240.368C396.7 240.126 397.296 240.087 397.629 240.25C400.025 241.516 401.24 242.15 403.641 243.43C403.98 243.606 403.914 243.946 403.523 244.182L403.488 244.212Z" stroke="#0075FF" stroke-width="1.5" stroke-miterlimit="10"/>
<path d="M427.399 230.066C419.807 234.555 416.011 236.799 408.42 241.288C408.016 241.53 407.425 241.581 407.087 241.406C404.677 240.145 403.476 239.505 401.067 238.245C400.728 238.069 400.781 237.734 401.19 237.506C408.761 233.041 412.549 230.816 420.119 226.351C420.522 226.109 421.113 226.057 421.452 226.234C423.883 227.47 425.091 228.091 427.523 229.327C427.861 229.502 427.803 229.824 427.399 230.066Z" stroke="#0075FF" stroke-width="1.5" stroke-miterlimit="10"/>
<path d="M193.114 368.617C185.508 373.111 181.699 375.362 174.099 379.87C173.695 380.112 173.134 380.12 172.826 379.901C170.657 378.308 169.567 377.514 167.398 375.92C167.103 375.695 167.177 375.337 167.581 375.094C175.165 370.625 178.953 368.399 186.537 363.929C186.94 363.687 187.501 363.678 187.81 363.898C190 365.467 191.098 366.242 193.288 367.811C193.597 368.03 193.523 368.389 193.106 368.636L193.114 368.617Z" stroke="#0075FF" stroke-width="1.5" stroke-miterlimit="10"/>
<path d="M442.054 237.534C431.797 243.651 426.666 246.704 416.423 252.816C416.019 253.058 415.428 253.11 415.09 252.934C410.93 250.725 408.847 249.613 404.688 247.403C404.35 247.227 404.416 246.887 404.819 246.645C415.026 240.595 420.121 237.572 430.333 231.535C430.736 231.293 431.327 231.242 431.666 231.418C435.876 233.56 437.975 234.634 442.186 236.776C442.523 236.952 442.471 237.286 442.067 237.528L442.054 237.534Z" stroke="#0075FF" stroke-width="1.5" stroke-miterlimit="10"/>
<path d="M405.771 212.716L393.653 219.777C393.297 219.984 393.316 220.493 393.66 220.682L401.024 224.644C401.13 224.71 401.139 224.848 401.028 224.924L165.705 362.504C165.39 362.695 164.988 362.67 164.685 362.464L157.949 357.809C157.597 357.56 157.122 357.549 156.753 357.762L144.075 365.144C142.059 366.322 141.884 369.179 143.769 370.575L295.893 483.977C299.396 486.579 304.141 486.751 307.822 484.38L417.478 413.721C417.862 413.47 418.286 413.314 418.739 413.271C419.192 413.228 419.793 413.126 420.445 412.798L484.121 371.766C484.347 371.627 485.037 370.736 485.48 370.165C485.748 369.822 486.065 369.521 486.437 369.276L585.958 305.154C588.012 303.835 587.848 300.803 585.679 299.71L411.898 212.546C409.968 211.577 407.674 211.646 405.795 212.738L405.771 212.716Z" stroke="#0075FF" stroke-width="1.5" stroke-miterlimit="10"/>
<path d="M484.719 369.879L483.94 370.086C483.474 370.212 483.021 370.412 482.61 370.673L429.998 404.368" stroke="#0075FF" stroke-width="1.5" stroke-miterlimit="10"/>
<path d="M427.524 405.966L421.646 409.728" stroke="#0075FF" stroke-width="1.5" stroke-miterlimit="10"/>
<path d="M418.178 413.358L418.857 412.207" stroke="#0075FF" stroke-width="1.5" stroke-miterlimit="10"/>
</g>
</svg>
