<svg width="658" height="751" viewBox="0 0 658 751" fill="none" xmlns="http://www.w3.org/2000/svg">
<g clip-path="url(#clip0_115_68112)">
<path d="M197.398 749.136C199.206 744.599 202.673 743.195 206.063 741.357C268.896 707.281 330.68 671.351 392.418 635.352C466.74 592.007 540.828 548.266 615.143 504.9C620.33 501.874 621.446 498.62 619.85 493.257C614.166 474.153 608.789 454.952 603.079 435.845C596.267 413.078 589.861 390.145 582.12 367.685C573.549 342.843 566.346 317.554 557.142 292.962C551.366 277.523 546.859 261.67 540.74 246.328C536.087 234.652 527.779 228.692 516.273 226.127C509.047 224.522 501.773 224.744 494.684 227.069C491.806 228.008 489.304 228.005 486.418 226.676C473.388 220.682 460.247 221.753 447.42 227.231C442.453 229.353 438.106 230.155 432.627 228.501C417.339 223.877 403.037 227.299 389.968 236.006C386.976 237.996 384.547 238.562 381.017 237.377C366.855 232.648 353.688 236.144 341.484 243.622C337.268 246.206 336.066 245.767 334.587 241.151C326.349 215.418 305.706 206.299 281.23 217.314C275.144 220.058 274.7 219.571 273.13 212.846C265.764 181.304 265.687 149.776 272.873 118.224C275.388 107.169 278.889 96.405 283.494 86.0387C284.175 84.4936 284.922 82.3597 286.208 81.8061C290.076 80.142 291.262 76.8419 292.592 73.4236C293.585 70.8853 295.351 68.8385 297.317 66.9692C298.952 65.423 300.219 63.6313 298.793 61.4267C296.837 58.3883 293.984 56.5168 290.327 56.0722C287.678 55.7546 286.633 57.5239 285.803 59.6239C284.233 63.5777 282.163 67.2914 279.334 70.4374C276.334 73.7703 277.858 78.0697 276.308 81.8235C260.889 119.169 256.109 157.954 261.769 197.963C262.63 204.019 263.992 210.012 265.346 215.984C266.364 220.481 265.383 223.172 260.394 224.311C254.235 225.724 248.256 227.854 242.873 231.364C229.681 239.99 224.459 254.804 228.841 271.289C230.535 277.648 233.186 283.558 236.816 289.049C237.842 290.607 239.043 291.916 237.763 294.195C229.506 308.887 220.427 323.042 210.976 336.978C184.341 376.245 153.607 412.345 124.011 449.328C118.615 456.068 113.306 462.889 107.572 469.326C104.405 472.893 104.398 476.29 105.796 480.423C112.612 500.58 119.319 520.772 126.036 540.961C136.939 573.71 147.729 606.484 158.741 639.199C170.05 672.81 181.51 706.362 193.002 739.903C194.104 743.104 195.912 746.057 197.398 749.136ZM157.118 621.511C157.031 621.539 156.943 621.567 156.855 621.595C154.648 614.65 152.602 607.641 150.168 600.78C148.669 596.558 149.663 594.213 153.728 592.063C184.859 575.575 216.179 559.449 247.013 542.366C289.579 518.789 332.041 495.003 374.66 471.518C436.245 437.585 497.398 402.859 559.643 370.129C563.359 368.175 564.557 369.171 565.716 372.704C569.899 385.448 574.118 398.192 578.714 410.792C580.344 415.275 579.499 417.633 575.29 419.937C562.863 426.749 550.638 433.932 538.367 441.045C497.269 464.868 456.558 489.341 414.615 511.682C373.856 533.38 334.433 557.456 293.724 579.271C252.86 601.172 212.44 623.898 170.942 644.599C166.095 647.021 164.623 645.774 163.339 641.277C161.456 634.628 159.207 628.083 157.118 621.511ZM139.107 568.407C139.052 568.424 138.997 568.442 138.943 568.459C137.084 562.611 135.438 556.672 133.298 550.926C131.561 546.259 132.359 543.674 137.332 541.647C146.186 538.036 154.84 533.873 163.377 529.529C234.069 493.499 302.29 452.927 372.676 416.317C412.254 395.731 450.751 373.072 490.031 351.892C507.223 342.624 523.829 332.274 541.73 324.29C549.241 320.936 549.072 320.519 551.481 328.1C554.63 337.971 557.38 347.993 561.034 357.667C563.309 363.685 561.712 366.717 556.21 369.359C534.253 379.864 513.233 392.173 491.801 403.683C436.255 433.511 381.544 464.861 326.31 495.291C268.424 527.179 211.151 560.201 152.189 590.112C147.664 592.408 146.189 591.415 144.973 587.054C143.225 580.797 141.084 574.628 139.107 568.407ZM588.423 441.686C589.877 446.262 591.327 450.826 592.781 455.401C595.448 463.794 595.466 463.849 587.549 468.129C533.09 497.575 480.117 529.605 426.507 560.545C381.861 586.318 336.967 611.613 292.054 636.89C257.33 656.441 222.765 676.304 187.475 694.839C184.391 696.459 182.396 697.177 181.009 693.004C176.713 680.091 173.012 666.965 167.651 654.427C166.068 650.738 167.664 648.805 170.895 647.187C181.517 641.879 192.107 636.508 202.623 630.98C257.225 602.249 311.561 573.023 364.885 541.944C393.188 525.449 422.314 510.443 450.887 494.417C477.798 479.318 504.171 463.327 531.003 448.132C545.849 439.73 560.513 431.023 575.305 422.53C580.535 419.527 581.458 419.958 583.353 425.77C585.077 431.081 586.739 436.387 588.423 441.686ZM542.387 300.091C542.442 300.073 542.497 300.056 542.562 300.035C543.549 303.14 544.536 306.245 545.523 309.35C548.472 318.632 548.472 318.632 539.699 322.688C516.205 333.524 493.592 346.183 471.168 358.902C437.858 377.81 404.245 396.186 370.665 414.588C331.541 436.033 292.07 456.839 253.017 478.43C214.312 499.826 175.958 521.943 135.43 539.884C131.459 541.641 130.035 540.886 128.781 537.129C125.574 527.494 122.323 517.873 118.75 508.378C117.143 504.117 118.169 501.798 122.113 499.651C178.996 468.746 235.743 437.57 292.686 406.778C356.368 372.335 420.224 338.212 484.006 303.967C497.172 296.896 510.331 289.839 523.562 282.892C531.55 278.687 536.053 280.578 538.9 289.119C540.12 292.766 541.226 296.437 542.387 300.091ZM187.803 711.38C187.529 711.467 187.266 711.551 186.992 711.638C186.294 709.444 185.758 707.186 184.87 705.077C183.277 701.319 184.469 699.176 188.016 697.264C208.59 686.172 229.118 675.01 249.532 663.642C287.512 642.477 325.546 621.403 363.303 599.837C413.204 571.332 462.939 542.529 512.589 513.572C538.403 498.52 564.267 483.548 590.465 469.171C595.063 466.647 597.004 467.093 598.273 472.379C600.341 480.939 602.631 489.476 605.558 497.774C607.445 503.142 606.344 505.872 601.384 508.777C532.542 548.954 463.907 589.477 395.044 629.625C332.652 666.001 270.189 702.267 206.803 736.918C200.452 740.386 196.595 738.894 194.425 732.179C192.185 725.244 190.007 718.314 187.803 711.38ZM113.657 468.213C133.891 442.975 154.089 417.7 174.359 392.499C194.665 367.262 213.577 341.019 231.124 313.748C231.282 314.93 231.032 315.855 230.753 316.765C226.318 331.353 232.514 342.297 247.277 345.917C253.866 347.531 260.566 347.745 267.278 347.086C290.061 344.847 311.361 337.293 332.21 328.396C342.433 324.036 352.353 318.915 360.567 311.159C372.64 299.736 372.837 288.343 361.279 276.3C360.432 275.422 358.407 273.952 360.094 273.295C365.099 271.33 369.016 266.207 375.229 267.664C388.546 270.8 401.087 268.337 413.198 262.543C415.61 261.39 417.94 260.094 420.841 260.972C431.061 264.054 441.323 263.354 451.509 260.89C459.911 258.86 467.919 256.424 476.752 260.539C482.196 263.073 488.833 262.026 494.964 261.552C498.547 261.271 502.128 260.87 505.701 260.519C371.9 323.901 243.663 397.606 113.657 468.213ZM574.989 393.18C574.003 390.075 573.012 386.959 572.026 383.854C561.881 352.047 551.781 320.226 541.564 288.454C538.271 278.206 531.989 275.733 522.601 280.745C461.922 313.159 401.165 345.404 340.632 378.085C269.984 416.228 199.563 454.781 129.02 493.143C115.691 500.387 115.769 500.326 111.579 486.002C110.537 482.42 111.131 480.564 114.652 478.757C128.807 471.528 142.85 464.058 156.825 456.452C228.519 417.421 298.73 375.698 371.55 338.725C425.877 311.145 480.314 283.795 534.959 256.875C539.439 254.666 540.459 256.166 541.757 259.945C550.707 286.056 560.147 311.998 568.746 338.221C585.676 389.784 601.98 441.546 616.127 493.969C617.31 498.34 616.208 500.877 612.388 501.97C608.104 503.199 608.703 498.925 608.026 496.833C596.922 462.311 585.972 427.74 574.989 393.18ZM288.569 228.016C286.636 228.812 285.88 228.943 285.339 229.369C281.989 231.943 279.93 231.619 278.03 227.391C276.103 223.111 277.424 221.568 281.454 220.602C284.99 219.756 288.354 218.179 291.896 217.428C304.652 214.727 316.181 216.91 324.398 227.792C333.681 240.086 336.379 254.05 332.923 269.137C332.108 272.73 330.101 275.119 326.859 277.007C304.35 290.067 279.688 295.706 254.142 298.376C251.218 298.677 249.004 297.412 246.922 295.537C236.952 286.589 232.065 274.975 231.06 262.08C229.643 243.976 245.679 227.308 264.39 226.205C266.394 226.088 266.969 226.908 267.524 228.616C269.366 234.3 267.141 237.181 259.69 237.568C272.406 241.584 281.078 238.502 288.569 228.016ZM300.857 316.556C289.211 320.656 276.168 323.593 262.624 323.85C255.672 323.982 248.772 323.481 242.489 320.09C234.207 315.619 232.059 306.01 237.404 298.465C239.83 295.036 242.162 294.887 244.603 298.158C245.904 299.895 246.888 301.321 249.567 301.122C278.98 298.915 307.105 292.465 332.43 276.517C335.027 274.883 336.505 273.036 336.404 269.637C336.287 265.278 338.459 263.524 343.062 265.045C349.948 267.326 354.063 273.206 353.306 280.404C352.488 288.13 347.657 293.228 341.851 297.574C329.859 306.555 316.149 311.914 300.857 316.556ZM234.003 316.119C240.803 323.948 249.415 325.922 258.687 326.322C269.33 326.781 279.716 325.026 289.95 322.45C309.389 317.554 328.109 310.892 344.433 298.819C350.684 294.199 355.081 288.308 355.805 280.287C356.113 276.807 357.19 276.356 359.955 278.521C367.907 284.764 369.666 295.354 363.854 303.676C360.064 309.12 355.014 313.298 349.364 316.616C325.957 330.347 300.586 338.736 274.036 343.682C264.925 345.382 255.695 345.682 246.665 343.079C233.637 339.331 228.65 329.114 234.003 316.119ZM112.748 477.212C111.427 477.426 110.007 478.699 109.125 476.949C107.903 474.548 109.86 473.636 111.628 472.699C127.709 464.195 143.865 455.811 159.84 447.086C225.581 411.18 290.059 373.005 356.713 338.753C415.321 308.641 474.233 279.144 533.411 250.179C534.823 249.489 536.592 247.453 537.849 249.663C539.338 252.294 536.798 253.234 534.91 254.173C507.8 267.62 480.666 281.026 453.581 294.513C408.666 316.892 363.665 339.153 319.618 363.201C266.986 391.934 214.802 421.467 162.351 450.541C145.923 459.627 129.278 468.335 112.748 477.212ZM436.156 233.674C427.923 240.155 422.052 247.565 417.902 256.325C417.527 257.121 416.669 257.841 415.858 258.255C403.909 264.481 391.498 268.267 377.79 265.69C373.923 264.962 373.979 263.313 375.134 260.108C380.49 245.372 391.603 236.743 405.808 232.18C415.508 229.062 425.632 228.876 436.156 233.674ZM458.855 256.828C446.982 259.949 436.804 261.335 426.42 259.791C420.346 258.883 419.839 257.667 422.788 252.465C428.788 241.886 437.674 234.689 448.913 230.332C458.757 226.527 468.841 225.038 479.233 227.824C480.843 228.254 483.144 228.236 483.633 230.001C484.24 232.176 481.672 232.497 480.417 233.415C474.752 237.558 470.097 242.637 467.096 248.93C464.935 253.458 462.096 256.535 458.855 256.828ZM524.948 233.964C516.541 237.119 513.572 243.172 515.267 251.621C515.746 254.042 515.16 255.847 512.52 256.359C498.958 258.99 485.41 261.097 471.729 256.856C467.668 255.598 467.387 253.875 469.146 250.212C478.409 231.009 500.021 226.339 517.65 230.195C520.173 230.759 522.848 231.346 524.948 233.964ZM360.519 269.765C357.266 271.427 354.186 271.464 351.502 267.618C349.485 264.731 346.102 263.475 342.756 262.449C336.92 260.655 335.052 253.107 339.846 249.301C351.444 240.107 364.516 236.69 379.127 240.514C382.171 241.31 382.864 242.769 380.701 245.353C377.491 249.2 374.71 253.526 373.348 258.247C371.438 264.858 366.774 267.705 360.519 269.765ZM282.386 78.6358C282.553 82.847 280.448 85.7264 279.268 88.8556C261.565 136.047 258.459 183.48 276.891 231.256C277.386 232.548 278.161 233.655 276.909 234.886C275.58 236.215 273.985 236.746 272.179 236.233C270.438 235.735 270.691 234.096 270.697 232.862C270.739 226.265 268.96 219.945 267.545 213.63C257.606 169.05 261.78 125.699 278.522 83.3911C279.182 81.7438 279.329 79.5831 282.386 78.6358ZM517.729 250.778C516.11 245.229 519.155 238.922 524.311 236.861C528.159 235.324 532.531 237.715 534.927 242.329C537.408 247.134 533.144 247.172 530.766 248.471C528.092 249.937 525.229 251.04 522.618 252.595C519.861 254.22 518.359 253.634 517.729 250.778Z" fill="#0075FF"/>
</g>
<defs>
<clipPath id="clip0_115_68112">
<rect width="488.281" height="632.76" fill="white" transform="matrix(-0.953035 0.302861 0.302861 0.953035 465.469 0.00390625)"/>
</clipPath>
</defs>
</svg>
