<svg width="230" height="600" viewBox="0 0 230 600" fill="none" xmlns="http://www.w3.org/2000/svg">
<path d="M1.50005 307.007L32.8858 331.786C46.1207 342.234 53.8423 358.168 53.8423 375.03V593.512" stroke="#0075FF" stroke-width="2.75485"/>
<path d="M54.3433 598.548C53.0985 598.548 52.0894 597.544 52.0894 596.306C52.0894 595.067 53.0985 594.063 54.3433 594.063C55.5881 594.063 56.5972 595.067 56.5972 596.306C56.5972 597.544 55.5881 598.548 54.3433 598.548Z" stroke="#0075FF" stroke-width="2.75485" stroke-miterlimit="10"/>
<path d="M53.8416 451.362L82.8837 480.404C93.2164 490.737 99.0212 504.751 99.0212 519.364V541.17" stroke="#0075FF" stroke-width="2.75485"/>
<path d="M98.4202 545.655C97.1754 545.655 96.1663 544.651 96.1663 543.412C96.1663 542.174 97.1754 541.17 98.4202 541.17C99.665 541.17 100.674 542.174 100.674 543.412C100.674 544.651 99.665 545.655 98.4202 545.655Z" stroke="#0075FF" stroke-width="2.75485" stroke-miterlimit="10"/>
<path d="M53.2886 381.465L84.6744 356.687C97.9093 346.238 105.631 330.304 105.631 313.442V94.9603" stroke="#0075FF" stroke-width="2.75485"/>
<path d="M106.133 89.925C104.888 89.925 103.879 90.9289 103.879 92.1672C103.879 93.4056 104.888 94.4094 106.133 94.4094C107.377 94.4094 108.386 93.4056 108.386 92.1672C108.386 90.9289 107.377 89.925 106.133 89.925Z" stroke="#0075FF" stroke-width="2.75485" stroke-miterlimit="10"/>
<path d="M105.634 237.111L134.676 208.069C145.008 197.736 150.813 183.722 150.813 169.109V147.303" stroke="#0075FF" stroke-width="2.75485"/>
<path d="M150.212 142.818C148.967 142.818 147.958 143.822 147.958 145.06C147.958 146.299 148.967 147.302 150.212 147.302C151.456 147.302 152.466 146.299 152.466 145.06C152.466 143.822 151.456 142.818 150.212 142.818Z" stroke="#0075FF" stroke-width="2.75485" stroke-miterlimit="10"/>
<path d="M129.325 212.241L160.71 237.019C173.945 247.467 181.667 263.401 181.667 280.264V498.745" stroke="#0075FF" stroke-width="2.75485"/>
<path d="M182.168 503.781C180.923 503.781 179.914 502.777 179.914 501.539C179.914 500.3 180.923 499.296 182.168 499.296C183.413 499.296 184.422 500.3 184.422 501.539C184.422 502.777 183.413 503.781 182.168 503.781Z" stroke="#0075FF" stroke-width="2.75485" stroke-miterlimit="10"/>
<path d="M181.667 356.595L210.709 385.637C221.042 395.97 226.846 409.984 226.846 424.597V446.403" stroke="#0075FF" stroke-width="2.75485"/>
<path d="M226.246 450.888C225.001 450.888 223.992 449.884 223.992 448.645C223.992 447.407 225.001 446.403 226.246 446.403C227.491 446.403 228.5 447.407 228.5 448.645C228.5 449.884 227.491 450.888 226.246 450.888Z" stroke="#0075FF" stroke-width="2.75485" stroke-miterlimit="10"/>
<path d="M105.081 293.31L73.6957 268.532C60.4608 258.083 52.7393 242.149 52.7393 225.287V6.80512" stroke="#0075FF" stroke-width="2.75485"/>
<path d="M52.2385 1.76958C53.4833 1.76958 54.4924 2.77345 54.4924 4.01177C54.4924 5.2501 53.4833 6.25397 52.2385 6.25397C50.9937 6.25397 49.9846 5.2501 49.9846 4.01177C49.9846 2.77345 50.9937 1.76958 52.2385 1.76958Z" stroke="#0075FF" stroke-width="2.75485" stroke-miterlimit="10"/>
<path d="M52.7387 148.955L23.6966 119.913C13.3639 109.581 7.55908 95.5664 7.55908 80.9537V59.1471" stroke="#0075FF" stroke-width="2.75485"/>
<path d="M8.16039 54.6625C9.40518 54.6625 10.4143 55.6664 10.4143 56.9047C10.4143 58.143 9.40518 59.1469 8.16039 59.1469C6.9156 59.1469 5.90649 58.143 5.90649 56.9047C5.90649 55.6664 6.9156 54.6625 8.16039 54.6625Z" stroke="#0075FF" stroke-width="2.75485" stroke-miterlimit="10"/>
</svg>
