<svg width="120" height="120" viewBox="0 0 120 120" fill="none" xmlns="http://www.w3.org/2000/svg">
<path d="M109.067 99.9492H10.7991C5.20899 99.9492 0.659424 95.401 0.659424 89.8095V85.5511C0.659424 84.8227 1.24952 84.2339 1.97661 84.2339H44.1306C44.8577 84.2339 45.4478 84.8227 45.4478 85.5511V89.3143H74.418V85.5511C74.418 84.8227 75.0068 84.2339 75.7352 84.2339H117.889C118.618 84.2339 119.206 84.8227 119.206 85.5511V89.8095C119.206 95.401 114.658 99.9492 109.067 99.9492ZM3.2938 86.8669V89.8082C3.2938 93.9468 6.66053 97.3136 10.7991 97.3136H109.067C113.205 97.3136 116.572 93.9455 116.572 89.8082V86.8669H77.0524V90.6301C77.0524 91.3586 76.4636 91.9473 75.7352 91.9473H44.1306C43.4035 91.9473 42.8134 91.3586 42.8134 90.6301V86.8669H3.2938Z" fill="#0075FF"/>
<path d="M111.19 86.8668C110.461 86.8668 109.873 86.2781 109.873 85.5497V24.2464C109.873 23.3112 109.113 22.5499 108.177 22.5499H11.6896C10.7544 22.5499 9.99302 23.3112 9.99302 24.2464V85.5497C9.99302 86.2781 9.40292 86.8668 8.67583 86.8668C7.94874 86.8668 7.35864 86.2781 7.35864 85.5497V24.2464C7.35864 21.8584 9.30149 19.9155 11.6896 19.9155H108.177C110.566 19.9155 112.507 21.8584 112.507 24.2464V85.5497C112.507 86.2781 111.918 86.8668 111.19 86.8668Z" fill="#0075FF"/>
<path d="M104.059 80.2812H15.8072C15.0801 80.2812 14.49 79.6924 14.49 78.964V31.1369C14.49 28.8819 16.3248 27.0483 18.5785 27.0483H101.286C103.541 27.0483 105.375 28.8832 105.375 31.1369V78.964C105.376 79.6924 104.787 80.2812 104.059 80.2812ZM17.1244 77.6468H102.742V31.1369C102.742 30.3347 102.09 29.6827 101.287 29.6827H18.5785C17.7764 29.6827 17.1244 30.336 17.1244 31.1369V77.6468Z" fill="#0075FF"/>
<path d="M59.9329 71.129C50.1278 71.129 42.1509 63.1521 42.1509 53.347C42.1509 43.5418 50.1278 35.5649 59.9329 35.5649C69.7381 35.5649 77.7149 43.5418 77.7149 53.347C77.7149 63.1521 69.7381 71.129 59.9329 71.129ZM59.9329 38.1993C51.5806 38.1993 44.7853 44.9947 44.7853 53.347C44.7853 61.6993 51.5806 68.4946 59.9329 68.4946C68.2852 68.4946 75.0806 61.6993 75.0806 53.347C75.0806 44.9947 68.2852 38.1993 59.9329 38.1993Z" fill="#0075FF"/>
<path d="M53.7367 58.4511C53.3995 58.4511 53.0623 58.322 52.8054 58.0652L49.336 54.5957C48.821 54.0807 48.821 53.2482 49.336 52.7332L52.8054 49.2637C53.3205 48.7487 54.1529 48.7487 54.6679 49.2637C55.183 49.7787 55.183 50.6112 54.6679 51.1262L52.1297 53.6644L54.6679 56.2026C55.183 56.7177 55.183 57.5514 54.6679 58.0652C54.4111 58.3233 54.0739 58.4511 53.7367 58.4511Z" fill="#0075FF"/>
<path d="M66.1276 58.4511C65.7904 58.4511 65.4532 58.322 65.1963 58.0652C64.6813 57.5501 64.6813 56.7164 65.1963 56.2026L67.7359 53.6644L65.1963 51.1262C64.6813 50.6125 64.6813 49.7787 65.1963 49.2637C65.7113 48.7487 66.5438 48.7487 67.0588 49.2637L70.5296 52.7332C70.7772 52.9808 70.9156 53.3154 70.9156 53.6644C70.9156 54.0135 70.7772 54.3494 70.5296 54.5957L67.0588 58.0652C66.802 58.3233 66.4648 58.4511 66.1276 58.4511Z" fill="#0075FF"/>
<path d="M57.6805 60.9446C57.5251 60.9446 57.3683 60.9169 57.2142 60.859C56.5332 60.6021 56.1908 59.8421 56.4476 59.1611L60.9537 47.2392C61.2119 46.5569 61.9759 46.2171 62.6516 46.4726C63.3326 46.7295 63.675 47.4895 63.4182 48.1705L58.9121 60.0924C58.7132 60.6192 58.2113 60.9446 57.6805 60.9446Z" fill="#0075FF"/>
</svg>
