<svg width="120" height="120" viewBox="0 0 120 120" fill="none" xmlns="http://www.w3.org/2000/svg">
<path d="M117.889 104.765H1.97661C1.24952 104.765 0.659424 104.176 0.659424 103.447V17.7354C0.659424 17.0083 1.24952 16.4182 1.97661 16.4182H117.889C118.618 16.4182 119.206 17.0083 119.206 17.7354V103.447C119.206 104.176 118.618 104.765 117.889 104.765ZM3.2938 102.13H116.572V19.0526H3.2938V102.13Z" fill="#0075FF"/>
<path d="M117.889 37.4906H1.97661C1.24952 37.4906 0.659424 36.9005 0.659424 36.1734V17.7354C0.659424 17.0083 1.24952 16.4182 1.97661 16.4182H117.889C118.618 16.4182 119.206 17.0083 119.206 17.7354V36.1734C119.206 36.9005 118.618 37.4906 117.889 37.4906ZM3.2938 34.8562H116.572V19.0526H3.2938V34.8562Z" fill="#0075FF"/>
<path d="M79.5233 28.2716H12.0267C11.2996 28.2716 10.7095 27.6815 10.7095 26.9544C10.7095 26.2273 11.2996 25.6372 12.0267 25.6372H79.5233C80.2517 25.6372 80.8405 26.2273 80.8405 26.9544C80.8405 27.6815 80.2517 28.2716 79.5233 28.2716Z" fill="#0075FF"/>
<path d="M107.839 28.2716H101.584C100.855 28.2716 100.266 27.6815 100.266 26.9544C100.266 26.2273 100.855 25.6372 101.584 25.6372H107.839C108.567 25.6372 109.156 26.2273 109.156 26.9544C109.156 27.6815 108.567 28.2716 107.839 28.2716Z" fill="#0075FF"/>
<path d="M55.1909 90.8302H12.0267C11.2996 90.8302 10.7095 90.2414 10.7095 89.513V49.9974C10.7095 49.2703 11.2996 48.6802 12.0267 48.6802H55.1909C55.918 48.6802 56.5081 49.2703 56.5081 49.9974V89.513C56.5081 90.2414 55.918 90.8302 55.1909 90.8302ZM13.3438 88.1958H53.8737V51.3146H13.3438V88.1958Z" fill="#0075FF"/>
<path d="M55.1911 90.8301H12.0268C11.5408 90.8301 11.0943 90.5627 10.8664 90.1346C10.6372 89.7078 10.6622 89.1875 10.9309 88.7832L21.6752 72.6502C21.8781 72.3473 22.1982 72.1392 22.5591 72.0799C22.9187 72.0219 23.2888 72.1155 23.5786 72.3394L31.865 78.7607L44.9025 60.1976C45.1133 59.8985 45.4373 59.6997 45.7995 59.6496C46.167 59.6022 46.5293 59.7036 46.8125 59.9328L56.0235 67.4355C56.3304 67.6858 56.5096 68.0612 56.5096 68.4563V89.5116C56.5083 90.2413 55.9182 90.8301 55.1911 90.8301ZM14.486 88.1957H53.8739V69.0833L46.2447 62.8688L33.2257 81.4043C33.0189 81.6993 32.7001 81.8956 32.3445 81.9496C31.9888 81.997 31.6266 81.9074 31.3408 81.6875L23.082 75.2873L14.486 88.1957Z" fill="#0075FF"/>
<path d="M107.839 51.3146H68.1429C67.4145 51.3146 66.8257 50.7245 66.8257 49.9974C66.8257 49.2703 67.4145 48.6802 68.1429 48.6802H107.839C108.567 48.6802 109.156 49.2703 109.156 49.9974C109.156 50.7245 108.567 51.3146 107.839 51.3146Z" fill="#0075FF"/>
<path d="M107.839 64.4864H68.1429C67.4145 64.4864 66.8257 63.8976 66.8257 63.1692C66.8257 62.4408 67.4145 61.8521 68.1429 61.8521H107.839C108.567 61.8521 109.156 62.4408 109.156 63.1692C109.156 63.8976 108.567 64.4864 107.839 64.4864Z" fill="#0075FF"/>
<path d="M107.839 77.6583H68.1429C67.4145 77.6583 66.8257 77.0695 66.8257 76.3411C66.8257 75.6127 67.4145 75.0239 68.1429 75.0239H107.839C108.567 75.0239 109.156 75.6127 109.156 76.3411C109.156 77.0695 108.567 77.6583 107.839 77.6583Z" fill="#0075FF"/>
<path d="M107.839 90.8302H68.1429C67.4145 90.8302 66.8257 90.2414 66.8257 89.513C66.8257 88.7846 67.4145 88.1958 68.1429 88.1958H107.839C108.567 88.1958 109.156 88.7846 109.156 89.513C109.156 90.2414 108.567 90.8302 107.839 90.8302Z" fill="#0075FF"/>
<path d="M94.667 28.2716H88.4117C87.6833 28.2716 87.0945 27.6815 87.0945 26.9544C87.0945 26.2273 87.6833 25.6372 88.4117 25.6372H94.667C95.3954 25.6372 95.9842 26.2273 95.9842 26.9544C95.9842 27.6815 95.3954 28.2716 94.667 28.2716Z" fill="#0075FF"/>
</svg>
