<svg width="120" height="120" viewBox="0 0 120 120" fill="none" xmlns="http://www.w3.org/2000/svg">
<path d="M110.01 103.935H96.7614C96.033 103.935 95.4442 103.346 95.4442 102.617C95.4442 101.889 96.033 101.3 96.7614 101.3H110.01C113.628 101.3 116.572 98.3563 116.572 94.738V25.1273C116.572 21.5076 113.628 18.565 110.01 18.565H9.85603C6.23771 18.565 3.2938 21.509 3.2938 25.1273V94.738C3.2938 98.3563 6.23771 101.3 9.85603 101.3H59.7695C60.4966 101.3 61.0867 101.889 61.0867 102.617C61.0867 103.346 60.4966 103.935 59.7695 103.935H9.85603C4.78485 103.935 0.659424 99.8092 0.659424 94.738V25.1273C0.659424 20.0561 4.78485 15.9307 9.85603 15.9307H110.008C115.081 15.9307 119.205 20.0561 119.205 25.1273V94.738C119.206 99.8092 115.081 103.935 110.01 103.935Z" fill="#0075FF"/>
<path d="M117.889 45.6886C117.161 45.6886 116.572 45.0985 116.572 44.3714V25.1273C116.572 21.509 113.628 18.565 110.01 18.565H9.85603C6.23771 18.565 3.2938 21.509 3.2938 25.1273V43.0529H104.039C104.767 43.0529 105.356 43.643 105.356 44.3701C105.356 45.0972 104.767 45.6873 104.039 45.6873H1.97661C1.24952 45.6873 0.659424 45.0972 0.659424 44.3701V25.1273C0.659424 20.0561 4.78485 15.9307 9.85603 15.9307H110.008C115.081 15.9307 119.205 20.0561 119.205 25.1273V44.3701C119.206 45.0985 118.618 45.6886 117.889 45.6886Z" fill="#0075FF"/>
<path d="M80.7866 37.0374H15.3698C11.9358 37.0374 9.14209 34.2436 9.14209 30.8097C9.14209 27.3758 11.9358 24.582 15.3698 24.582H80.7866C84.2191 24.582 87.0142 27.3758 87.0142 30.8097C87.0142 34.2436 84.2191 37.0374 80.7866 37.0374ZM15.3698 27.2164C13.3887 27.2164 11.7765 28.8286 11.7765 30.8097C11.7765 32.7907 13.3887 34.403 15.3698 34.403H80.7866C82.7676 34.403 84.3798 32.7907 84.3798 30.8097C84.3798 28.8286 82.7676 27.2164 80.7866 27.2164H15.3698Z" fill="#0075FF"/>
<path d="M104.496 37.0374H99.6698C96.2372 37.0374 93.4421 34.2436 93.4421 30.8097C93.4421 27.3758 96.2359 24.582 99.6698 24.582H104.496C107.929 24.582 110.724 27.3758 110.724 30.8097C110.724 34.2436 107.929 37.0374 104.496 37.0374ZM99.6698 27.2164C97.6887 27.2164 96.0765 28.8286 96.0765 30.8097C96.0765 32.7907 97.6887 34.403 99.6698 34.403H104.496C106.477 34.403 108.089 32.7907 108.089 30.8097C108.089 28.8286 106.477 27.2164 104.496 27.2164H99.6698Z" fill="#0075FF"/>
<path d="M86.295 103.937C86.0711 103.937 85.8446 103.881 85.6378 103.761C85.0068 103.397 84.7908 102.591 85.1557 101.962C86.0237 100.457 85.5074 98.5278 84.0018 97.6584C82.1182 96.5717 81.0144 94.5459 81.1198 92.3686C81.1527 91.6876 81.1527 90.9961 81.1198 90.3111C81.0144 88.1391 82.1182 86.1146 84.0005 85.0292C85.5047 84.1612 86.0224 82.2289 85.1544 80.7246L81.7376 74.8078C81.3174 74.0781 80.639 73.5578 79.8263 73.3405C79.011 73.1232 78.1614 73.2364 77.4356 73.6553C75.5573 74.7393 73.2509 74.684 71.424 73.5104C70.8484 73.1403 70.2491 72.7939 69.6418 72.483C67.7016 71.4846 66.499 69.5154 66.499 67.3447C66.499 65.6073 65.087 64.1926 63.3496 64.1926H56.5161C54.78 64.1926 53.3667 65.6047 53.3667 67.342C53.3667 69.5114 52.1417 71.4938 50.1699 72.5146C49.8853 72.6621 49.6048 72.8149 49.3242 72.9756C49.0463 73.1363 48.7736 73.3036 48.5049 73.4748C46.6345 74.6735 44.3057 74.7433 42.4274 73.6593C41.699 73.2378 40.8521 73.1245 40.038 73.3444C39.2253 73.5618 38.5457 74.0834 38.1242 74.8118L34.7087 80.7286C33.8407 82.2328 34.357 84.1625 35.8612 85.0319C37.7448 86.1185 38.8486 88.1457 38.7432 90.323C38.709 91.004 38.709 91.6942 38.7432 92.3804C38.7788 93.1062 38.219 93.7253 37.4919 93.7609C36.7675 93.7964 36.1471 93.2366 36.1115 92.5095C36.0733 91.739 36.0733 90.9592 36.1115 90.1939C36.1681 89.0111 35.5688 87.906 34.5454 87.3145C33.2071 86.5427 32.2495 85.2953 31.8491 83.8029C31.4487 82.3092 31.6541 80.7523 32.426 79.4127L35.8415 73.4959C36.6147 72.1577 37.8621 71.2014 39.3544 70.801C40.8481 70.4005 42.4063 70.6073 43.7446 71.3779C44.7667 71.9706 46.0471 71.9219 47.0837 71.258C47.3853 71.0644 47.6935 70.876 48.0083 70.6943C48.3245 70.5125 48.6393 70.3399 48.958 70.1753C50.0513 69.6089 50.731 68.5235 50.731 67.3433C50.731 64.1544 53.3258 61.5596 56.5147 61.5596H63.3483C66.5372 61.5596 69.1321 64.1544 69.1321 67.3433C69.1321 68.5249 69.788 69.5984 70.8444 70.1424C71.5267 70.4927 72.2011 70.8813 72.8479 71.2975C73.841 71.9364 75.095 71.9667 76.1158 71.3779C77.4528 70.606 79.0097 70.3979 80.5047 70.7996C81.9984 71.2001 83.2457 72.1563 84.0176 73.4946L87.4344 79.4114C89.0282 82.1749 88.0772 85.7194 85.3164 87.3132C84.2942 87.9033 83.6936 89.0045 83.7515 90.186C83.7884 90.9552 83.7884 91.735 83.7515 92.5016C83.6936 93.6845 84.2942 94.7883 85.3164 95.3797C86.6546 96.1529 87.6122 97.3989 88.0126 98.8926C88.4131 100.385 88.2076 101.943 87.4357 103.281C87.192 103.702 86.7495 103.937 86.295 103.937ZM59.7695 103.903C59.0424 103.903 58.4523 103.314 58.4523 102.586C58.4523 101.858 59.0424 101.269 59.7695 101.269C65.1515 101.269 69.5299 96.8905 69.5299 91.5098C69.5299 86.1278 65.1515 81.7494 59.7695 81.7494C54.3875 81.7494 50.0092 86.1278 50.0092 91.5098C50.0092 92.2382 49.4191 92.827 48.692 92.827C47.9649 92.827 47.3748 92.2382 47.3748 91.5098C47.3748 84.6762 52.9346 79.115 59.7695 79.115C66.6031 79.115 72.1642 84.6762 72.1642 91.5098C72.1642 98.3433 66.6031 103.903 59.7695 103.903Z" fill="#0075FF"/>
</svg>
