<svg width="120" height="120" viewBox="0 0 120 120" fill="none" xmlns="http://www.w3.org/2000/svg">
<path d="M109.067 99.949H10.7991C5.20899 99.949 0.659424 95.4008 0.659424 89.8093V85.5508C0.659424 84.8224 1.24952 84.2336 1.97661 84.2336H44.1306C44.8577 84.2336 45.4478 84.8224 45.4478 85.5508V89.314H74.418V85.5508C74.418 84.8224 75.0068 84.2336 75.7352 84.2336H117.889C118.618 84.2336 119.206 84.8224 119.206 85.5508V89.8093C119.206 95.4008 114.658 99.949 109.067 99.949ZM3.2938 86.8667V89.808C3.2938 93.9466 6.66053 97.3133 10.7991 97.3133H109.067C113.205 97.3133 116.572 93.9453 116.572 89.808V86.8667H77.0524V90.6299C77.0524 91.3583 76.4636 91.9471 75.7352 91.9471H44.1306C43.4035 91.9471 42.8134 91.3583 42.8134 90.6299V86.8667H3.2938Z" fill="#0075FF"/>
<path d="M111.19 86.8666C110.461 86.8666 109.873 86.2778 109.873 85.5494V24.2462C109.873 23.311 109.113 22.5497 108.177 22.5497H11.6896C10.7544 22.5497 9.99302 23.311 9.99302 24.2462V85.5494C9.99302 86.2778 9.40292 86.8666 8.67583 86.8666C7.94874 86.8666 7.35864 86.2778 7.35864 85.5494V24.2462C7.35864 21.8581 9.30149 19.9153 11.6896 19.9153H108.177C110.566 19.9153 112.507 21.8581 112.507 24.2462V85.5494C112.507 86.2778 111.918 86.8666 111.19 86.8666Z" fill="#0075FF"/>
<path d="M104.059 80.2807H15.8072C15.0801 80.2807 14.49 79.6919 14.49 78.9635V31.1364C14.49 28.8814 16.3248 27.0479 18.5785 27.0479H101.286C103.541 27.0479 105.375 28.8827 105.375 31.1364V78.9635C105.376 79.6919 104.787 80.2807 104.059 80.2807ZM17.1244 77.6463H102.742V31.1364C102.742 30.3342 102.09 29.6822 101.287 29.6822H18.5785C17.7764 29.6822 17.1244 30.3356 17.1244 31.1364V77.6463Z" fill="#0075FF"/>
<path d="M56.1276 62.612C52.5488 62.612 48.9686 61.25 46.2447 58.5247C43.6051 55.8851 42.1509 52.3748 42.1509 48.6419C42.1509 44.909 43.6051 41.3987 46.2447 38.759C51.6939 33.3085 60.5638 33.3098 66.0104 38.759C71.4596 44.2082 71.4596 53.0755 66.0104 58.5247C63.2865 61.25 59.7077 62.612 56.1276 62.612ZM56.1276 37.3049C53.2232 37.3049 50.3188 38.41 48.1072 40.6215C45.9655 42.7633 44.7853 45.6124 44.7853 48.6419C44.7853 51.6714 45.9655 54.5192 48.1072 56.6622C52.529 61.084 59.7261 61.084 64.1479 56.6622C68.5697 52.2404 68.5697 45.0446 64.1479 40.6215C61.9364 38.4113 59.032 37.3049 56.1276 37.3049Z" fill="#0075FF"/>
<path d="M76.3978 70.2292C76.0606 70.2292 75.7234 70.1001 75.4666 69.8432L64.148 58.5246C63.633 58.0096 63.633 57.1772 64.148 56.6621C64.663 56.1471 65.4955 56.1471 66.0105 56.6621L77.3291 67.9807C77.8441 68.4958 77.8441 69.3282 77.3291 69.8432C77.0722 70.1014 76.735 70.2292 76.3978 70.2292Z" fill="#0075FF"/>
<path d="M51.2763 54.8103C50.9391 54.8103 50.6019 54.6812 50.3451 54.4243C48.8 52.8806 47.9504 50.8271 47.9504 48.6419C47.9504 46.4567 48.8013 44.4045 50.3451 42.8594C50.8601 42.3444 51.6926 42.3444 52.2076 42.8594C52.7226 43.3744 52.7226 44.2069 52.2076 44.7219C51.1604 45.7691 50.5848 47.1613 50.5848 48.6419C50.5848 50.1224 51.1617 51.5147 52.2076 52.5618C52.7226 53.0755 52.7226 53.9093 52.2076 54.4243C51.9507 54.6812 51.6135 54.8103 51.2763 54.8103Z" fill="#0075FF"/>
</svg>
