<svg width="95" height="95" viewBox="0 0 95 95" fill="none" xmlns="http://www.w3.org/2000/svg">
<path d="M67.8211 45.2386L86.8835 26.1771C87.2242 25.8349 87.4237 25.3861 87.4691 24.91C87.9265 24.8646 88.3737 24.6758 88.7238 24.3243C93.7039 19.3435 93.7039 11.2392 88.7238 6.25843C86.3116 3.84365 83.1041 2.51455 79.6916 2.51455C76.2789 2.51455 73.0716 3.84437 70.6594 6.25843C70.3014 6.61646 70.1119 7.07463 70.0716 7.54143C69.6049 7.58466 69.1518 7.76547 68.814 8.10406L49.7553 27.1693L23.1716 0.581618C22.3973 -0.194951 21.0251 -0.192793 20.2501 0.581618L0.605034 20.237C-0.201678 21.0438 -0.201678 22.3513 0.605034 23.1574L27.1832 49.7451L9.95202 66.9796C9.74026 67.1913 9.57748 67.4456 9.4752 67.7259L3.10946 85.0079C1.81872 88.5018 2.98773 90.3863 3.79949 91.1982C4.34979 91.75 5.39346 92.4653 7.10046 92.4653C7.90789 92.4653 8.86442 92.3054 9.98527 91.8897L27.2244 85.5382C27.5103 85.4402 27.7797 85.2766 28.0081 85.0483L45.2466 67.8109L71.8266 94.3949C72.2141 94.7825 72.7392 95 73.2866 95C73.8347 95 74.3605 94.7824 74.7481 94.3949L94.395 74.7395C95.2017 73.9327 95.2017 72.6252 94.395 71.8191L67.8211 45.2386ZM79.6913 6.64717C81.9992 6.64717 84.17 7.54693 85.8022 9.18071C89.1716 12.5513 89.1716 18.0343 85.8022 21.4056C85.6683 21.5396 85.5638 21.6916 85.4752 21.8494L73.1369 9.50773C73.2946 9.41768 73.4466 9.31322 73.5805 9.17924C75.2127 7.54684 77.3827 6.64717 79.6913 6.64717ZM25.4802 42.1976L30.7937 36.8819C31.6004 36.0751 31.6004 34.7668 30.7937 33.96C29.9869 33.1546 28.6796 33.1531 27.8722 33.96L22.5595 39.2756L15.4007 32.1143L20.7113 26.8028C21.518 25.996 21.518 24.6885 20.7113 23.8824C19.9046 23.0756 18.5965 23.0756 17.7913 23.8824L12.4806 29.1938L4.98605 21.6968L21.7116 4.96306L46.835 30.0901L30.1051 46.8232L25.4802 42.1976ZM26.5513 80.6655L19.7568 73.8687C18.9516 73.0619 17.642 73.0619 16.8368 73.8687C16.0301 74.6756 16.0301 75.9831 16.8368 76.7892L22.8094 82.7634L8.55727 88.0151C7.37528 88.451 6.79905 88.3263 6.73136 88.2889C6.67374 88.2003 6.5477 87.624 6.98562 86.4382V86.4361L13.1945 69.5798L31.5263 51.2453C31.54 51.233 31.5551 51.2237 31.5688 51.2114C31.5825 51.1992 31.5904 51.1826 31.6026 51.1689L51.1297 31.6371C51.1599 31.6105 51.1938 31.5903 51.2226 31.5608C51.2514 31.532 51.2709 31.4981 51.2989 31.4678L70.2728 12.4893L82.4996 24.7192L43.8586 63.3623C43.8341 63.3854 43.8045 63.4012 43.7801 63.4264C43.7556 63.4509 43.739 63.479 43.716 63.5042L26.5513 80.6655ZM73.2871 90.0138L65.7876 82.5139L71.101 77.1997C71.9077 76.3929 71.9077 75.0853 71.101 74.2792C70.2957 73.4724 68.9862 73.4724 68.181 74.2792L62.8675 79.5935L55.7109 72.4343L61.0258 67.1186C61.8326 66.3118 61.8326 65.0043 61.0258 64.1982C60.2206 63.3913 58.9111 63.3913 58.1058 64.1982L52.7909 69.5139L48.1682 64.8912L64.9003 48.1595L90.0144 73.2791L73.2871 90.0138Z" fill="#0075FF"/>
</svg>
