<svg width="51" height="49" viewBox="0 0 51 49" fill="none" xmlns="http://www.w3.org/2000/svg">
<path d="M50.25 24.5006V24.5008C50.2511 28.3176 49.2109 31.8963 47.4002 34.9866L47.1607 35.3954L47.427 35.7873C48.2933 37.0621 48.7995 38.5907 48.7995 40.2378C48.7995 44.652 45.1641 48.25 40.6556 48.25C38.1055 48.25 35.8338 47.0964 34.3403 45.2931L34.0472 44.9392L33.5988 45.0396C32.0719 45.3815 30.4868 45.5682 28.8584 45.5682C20.1074 45.5682 12.5751 40.3643 9.26377 32.9417L9.07292 32.5139L8.60473 32.4977C4.23156 32.3467 0.75 28.8187 0.75 24.5006C0.75 20.1823 4.23168 16.6532 8.60491 16.5012L9.07303 16.4849L9.26381 16.0571C12.574 8.63471 20.1062 3.43178 28.8573 3.43178C30.4857 3.43178 32.0707 3.61845 33.5977 3.9604L34.046 4.06078L34.3391 3.7071C35.8338 1.90355 38.1056 0.75 40.6545 0.75C45.1618 0.75 48.7983 4.34796 48.7983 8.76329C48.7983 10.4094 48.2921 11.939 47.4261 13.2125L47.1595 13.6044L47.3991 14.0133C49.2097 17.1048 50.25 20.6847 50.25 24.5006ZM12.6095 31.6239L11.9405 31.9628L12.2793 32.6318C15.3198 38.6351 21.6001 42.776 28.8562 42.776C29.9474 42.776 31.0036 42.6648 32.0261 42.4916L32.7713 42.3653L32.6392 41.621C32.5579 41.1627 32.5095 40.7047 32.5095 40.24C32.5095 35.8245 36.144 32.2267 40.6523 32.2267C41.9873 32.2267 43.242 32.5482 44.3558 33.1096L45.018 33.4434L45.3593 32.785C46.6479 30.2984 47.3928 27.4878 47.3928 24.5028C47.3928 21.5166 46.6479 18.707 45.3581 16.2193L45.0169 15.5613L44.3549 15.8947C43.2418 16.4552 41.9859 16.7777 40.6523 16.7777C36.145 16.7777 32.5095 13.1798 32.5095 8.7655C32.5095 8.29966 32.5579 7.84167 32.6392 7.38338L32.7711 6.64072L32.0277 6.51312C31.004 6.33741 29.9463 6.22617 28.8562 6.22617C21.6001 6.22617 15.3198 10.3672 12.2793 16.3704L11.9405 17.0394L12.6095 17.3783C15.2419 18.7117 17.0354 21.402 17.0354 24.5017C17.0354 27.6012 15.242 30.2905 12.6095 31.6239Z" stroke="#0075FF" stroke-width="1.5"/>
</svg>
