<svg width="16" height="16" viewBox="0 0 16 16" fill="none" xmlns="http://www.w3.org/2000/svg">
<path d="M8 13C10.7614 13 13 10.7614 13 8C13 5.23858 10.7614 3 8 3C5.23858 3 3 5.23858 3 8C3 10.7614 5.23858 13 8 13Z" fill="#D9D9D9"/>
<path d="M8.01457 16C7.61384 16 7.28597 15.7013 7.28597 15.3005V15.2423C7.28597 14.8415 7.61384 14.5137 8.01457 14.5137C8.4153 14.5137 8.74317 14.8415 8.74317 15.2423C8.74317 15.643 8.4153 16 8.01457 16ZM13.2168 13.9454C13.0273 13.9454 12.8452 13.8725 12.6995 13.7341L12.6047 13.6393C12.3206 13.3552 12.3206 12.8962 12.6047 12.612C12.8889 12.3279 13.3479 12.3279 13.6321 12.612L13.7268 12.7067C14.0109 12.9909 14.0109 13.4499 13.7268 13.7341C13.5883 13.8725 13.4062 13.9454 13.2168 13.9454ZM2.81239 13.9454C2.62295 13.9454 2.4408 13.8725 2.29508 13.7341C2.01093 13.4499 2.01093 12.9909 2.29508 12.7067L2.3898 12.612C2.67395 12.3279 3.13297 12.3279 3.41712 12.612C3.70128 12.8962 3.70128 13.3552 3.41712 13.6393L3.3224 13.7341C3.18397 13.8725 2.99454 13.9454 2.81239 13.9454ZM15.3005 8.74317H15.2423C14.8415 8.74317 14.5137 8.4153 14.5137 8.01457C14.5137 7.61384 14.8415 7.28597 15.2423 7.28597C15.643 7.28597 16 7.61384 16 8.01457C16 8.4153 15.7013 8.74317 15.3005 8.74317ZM0.786885 8.74317H0.728597C0.327869 8.74317 0 8.4153 0 8.01457C0 7.61384 0.327869 7.28597 0.728597 7.28597C1.12933 7.28597 1.48634 7.61384 1.48634 8.01457C1.48634 8.4153 1.18761 8.74317 0.786885 8.74317ZM13.122 3.6357C12.9326 3.6357 12.7505 3.56284 12.6047 3.42441C12.3206 3.14025 12.3206 2.68124 12.6047 2.39709L12.6995 2.30237C12.9836 2.01821 13.4426 2.01821 13.7268 2.30237C14.0109 2.58652 14.0109 3.04554 13.7268 3.32969L13.6321 3.42441C13.4936 3.56284 13.3115 3.6357 13.122 3.6357ZM2.9071 3.6357C2.71767 3.6357 2.53552 3.56284 2.3898 3.42441L2.29508 3.3224C2.01093 3.03825 2.01093 2.57924 2.29508 2.29508C2.57924 2.01093 3.03825 2.01093 3.3224 2.29508L3.41712 2.3898C3.70128 2.67395 3.70128 3.13297 3.41712 3.41712C3.27869 3.56284 3.08925 3.6357 2.9071 3.6357ZM8.01457 1.48634C7.61384 1.48634 7.28597 1.18761 7.28597 0.786885V0.728597C7.28597 0.327869 7.61384 0 8.01457 0C8.4153 0 8.74317 0.327869 8.74317 0.728597C8.74317 1.12933 8.4153 1.48634 8.01457 1.48634Z" fill="#D9D9D9"/>
</svg>
