<svg width="24" height="25" viewBox="0 0 24 25" fill="none" xmlns="http://www.w3.org/2000/svg">
<path d="M23.9931 4.57008C23.991 3.18694 23.3022 1.89924 22.163 1.1529C21.0244 0.406568 19.5926 0.303302 18.3632 0.879091C17.6355 1.21974 16.9303 1.70104 16.2227 2.18394C14.896 3.08944 13.561 4.00055 12.0544 4.00055H10.8947C9.4276 4.00055 8.21261 2.92926 7.07428 1.92556C6.88598 1.75953 6.69979 1.59536 6.5149 1.43819C5.7536 0.791471 4.78426 0.458723 3.79605 0.504098C2.80785 0.549472 1.87114 0.970361 1.17002 1.68436C0.468891 2.39836 0.0538242 3.35384 0.00487281 4.36459C-0.0440786 5.37535 0.277165 6.36838 0.906394 7.14966C1.07764 7.36246 1.25855 7.57663 1.44157 7.7933C2.39492 8.92194 3.40546 10.1183 3.40546 11.5411V13.4588C3.40546 14.8816 2.39492 16.078 1.44157 17.2066C1.25855 17.4233 1.07764 17.6375 0.906394 17.8503C0.277165 18.6315 -0.0440786 19.6246 0.00487281 20.6353C0.0538242 21.6461 0.469401 22.6016 1.17053 23.3156C1.87165 24.0296 2.80785 24.4504 3.79605 24.4958C4.78426 24.5412 5.75411 24.2079 6.5149 23.5617C6.69966 23.4047 6.88574 23.2406 7.07393 23.0747C8.21236 22.0709 9.42773 20.9994 10.8948 20.9994H13.1053C14.5724 20.9994 15.7874 22.0707 16.9257 23.0744C17.114 23.2404 17.3002 23.4046 17.4851 23.5617C18.2464 24.2084 19.2157 24.5417 20.2039 24.4958C21.1922 24.4504 22.1283 24.0296 22.8295 23.3156C23.5306 22.6016 23.9462 21.6456 23.9951 20.6353C24.0441 19.6246 23.7228 18.6315 23.0936 17.8508C22.9224 17.638 22.7414 17.4238 22.5584 17.2071C21.6051 16.0785 20.5945 14.8821 20.5945 13.4593V11.4354C20.5945 10.0159 21.6271 8.83114 22.5902 7.72612C22.7373 7.55733 22.8828 7.39039 23.0227 7.22476C23.6469 6.48729 23.991 5.54538 23.9931 4.57008ZM17.222 17.5535L17.2024 17.5734C16.1676 18.6274 14.9864 19.8306 13.512 19.8306H10.4886C9.01593 19.8306 7.83617 18.6299 6.80182 17.5772L6.77852 17.5535C6.74777 17.5222 6.71687 17.4907 6.68584 17.4591C5.6807 16.4359 4.54715 15.2819 4.54715 13.8596V11.1402C4.54715 9.71633 5.68297 8.56092 6.68934 7.53717C6.71919 7.50681 6.74893 7.47656 6.77852 7.44642L6.79806 7.42652C7.83287 6.37249 9.01409 5.16934 10.4885 5.16934H13.512C14.9864 5.16934 16.1677 6.37257 17.2025 7.42661L17.222 7.44642C17.2516 7.47656 17.2813 7.50681 17.3112 7.53717C18.3175 8.56091 19.4534 9.71633 19.4534 11.1402V13.8597C19.4534 15.2836 18.3175 16.439 17.3112 17.4627C17.2813 17.4931 17.2516 17.5234 17.222 17.5535ZM20.0245 1.66976C20.7766 1.66976 21.4981 1.97538 22.0299 2.51936C22.5618 3.06333 22.8601 3.80132 22.8601 4.57113C22.8601 5.34041 22.5608 6.0784 22.0284 6.62185C21.4966 7.16583 20.7745 7.47093 20.0224 7.47041C19.2703 7.46989 18.5493 7.16374 18.0175 6.61925C17.4861 6.07475 17.1878 5.33676 17.1888 4.56748C17.1904 3.79924 17.4897 3.06281 18.021 2.51936C18.5529 1.97591 19.2728 1.6708 20.0245 1.66976ZM1.14962 4.57008C1.14962 3.8008 1.44843 3.06333 1.98026 2.51936C2.5121 1.97538 3.23311 1.66976 3.98523 1.66976C4.73735 1.66976 5.45836 1.97538 5.9902 2.51936C6.52203 3.06333 6.82033 3.8008 6.82033 4.57008C6.82033 5.33937 6.52152 6.07684 5.9902 6.62081C5.45836 7.16478 4.73735 7.46989 3.98523 7.46989C3.23311 7.46937 2.51261 7.16374 1.98128 6.61977C1.44996 6.07579 1.15013 5.33885 1.14962 4.57008ZM3.97656 23.3296C3.22445 23.3296 2.50292 23.024 1.9716 22.48C1.43976 21.9361 1.14095 21.1986 1.14095 20.4293C1.14095 19.66 1.43976 18.9226 1.9716 18.3786C2.50343 17.8346 3.22445 17.529 3.97656 17.529C4.72868 17.529 5.44969 17.8346 5.98153 18.3786C6.51337 18.9226 6.81166 19.66 6.81166 20.4293C6.81115 21.1986 6.51235 21.9355 5.98051 22.479C5.44867 23.0224 4.72817 23.3291 3.97656 23.3296ZM22.8514 20.4293C22.8514 21.1986 22.5526 21.9361 22.0208 22.48C21.4889 23.024 20.7679 23.3296 20.0158 23.3296C19.2637 23.3296 18.5427 23.024 18.0108 22.48C17.479 21.9361 17.1802 21.1986 17.1802 20.4293C17.1802 19.66 17.479 18.9226 18.0108 18.3786C18.5427 17.8346 19.2637 17.529 20.0158 17.529C20.7679 17.5295 21.4884 17.8357 22.0197 18.3791C22.5516 18.9231 22.8504 19.6605 22.8514 20.4293Z" fill="#0075FF"/>
<path d="M23.9931 4.57008C23.991 3.18694 23.3022 1.89924 22.163 1.1529C21.0244 0.406568 19.5926 0.303302 18.3632 0.879091C17.6355 1.21974 16.9303 1.70104 16.2227 2.18394C14.896 3.08944 13.561 4.00055 12.0544 4.00055H10.8947C9.4276 4.00055 8.21261 2.92926 7.07428 1.92556C6.88598 1.75953 6.69979 1.59536 6.5149 1.43819C5.7536 0.791471 4.78426 0.458723 3.79605 0.504098C2.80785 0.549472 1.87114 0.970361 1.17002 1.68436C0.468891 2.39836 0.0538242 3.35384 0.00487281 4.36459C-0.0440786 5.37535 0.277165 6.36838 0.906394 7.14966C1.07764 7.36246 1.25855 7.57663 1.44157 7.7933C2.39492 8.92194 3.40546 10.1183 3.40546 11.5411V13.4588C3.40546 14.8816 2.39492 16.078 1.44157 17.2066C1.25855 17.4233 1.07764 17.6375 0.906394 17.8503C0.277165 18.6315 -0.0440786 19.6246 0.00487281 20.6353C0.0538242 21.6461 0.469401 22.6016 1.17053 23.3156C1.87165 24.0296 2.80785 24.4504 3.79605 24.4958C4.78426 24.5412 5.75411 24.2079 6.5149 23.5617C6.69966 23.4047 6.88574 23.2406 7.07393 23.0747C8.21236 22.0709 9.42773 20.9994 10.8948 20.9994H13.1053C14.5724 20.9994 15.7874 22.0707 16.9257 23.0744C17.114 23.2404 17.3002 23.4046 17.4851 23.5617C18.2464 24.2084 19.2157 24.5417 20.2039 24.4958C21.1922 24.4504 22.1283 24.0296 22.8295 23.3156C23.5306 22.6016 23.9462 21.6456 23.9951 20.6353C24.0441 19.6246 23.7228 18.6315 23.0936 17.8508C22.9224 17.638 22.7414 17.4238 22.5584 17.2071C21.6051 16.0785 20.5945 14.8821 20.5945 13.4593V11.4354C20.5945 10.0159 21.6271 8.83114 22.5902 7.72612C22.7373 7.55733 22.8828 7.39039 23.0227 7.22476C23.6469 6.48729 23.991 5.54538 23.9931 4.57008ZM17.222 17.5535L17.2024 17.5734C16.1676 18.6274 14.9864 19.8306 13.512 19.8306H10.4886C9.01593 19.8306 7.83617 18.6299 6.80182 17.5772L6.77852 17.5535C6.74777 17.5222 6.71687 17.4907 6.68584 17.4591C5.6807 16.4359 4.54715 15.2819 4.54715 13.8596V11.1402C4.54715 9.71633 5.68297 8.56092 6.68934 7.53717C6.71919 7.50681 6.74893 7.47656 6.77852 7.44642L6.79806 7.42652C7.83287 6.37249 9.01409 5.16934 10.4885 5.16934H13.512C14.9864 5.16934 16.1677 6.37257 17.2025 7.42661L17.222 7.44642C17.2516 7.47656 17.2813 7.50681 17.3112 7.53717C18.3175 8.56091 19.4534 9.71633 19.4534 11.1402V13.8597C19.4534 15.2836 18.3175 16.439 17.3112 17.4627C17.2813 17.4931 17.2516 17.5234 17.222 17.5535ZM20.0245 1.66976C20.7766 1.66976 21.4981 1.97538 22.0299 2.51936C22.5618 3.06333 22.8601 3.80132 22.8601 4.57113C22.8601 5.34041 22.5608 6.0784 22.0284 6.62185C21.4966 7.16583 20.7745 7.47093 20.0224 7.47041C19.2703 7.46989 18.5493 7.16374 18.0175 6.61925C17.4861 6.07475 17.1878 5.33676 17.1888 4.56748C17.1904 3.79924 17.4897 3.06281 18.021 2.51936C18.5529 1.97591 19.2728 1.6708 20.0245 1.66976ZM1.14962 4.57008C1.14962 3.8008 1.44843 3.06333 1.98026 2.51936C2.5121 1.97538 3.23311 1.66976 3.98523 1.66976C4.73735 1.66976 5.45836 1.97538 5.9902 2.51936C6.52203 3.06333 6.82033 3.8008 6.82033 4.57008C6.82033 5.33937 6.52152 6.07684 5.9902 6.62081C5.45836 7.16478 4.73735 7.46989 3.98523 7.46989C3.23311 7.46937 2.51261 7.16374 1.98128 6.61977C1.44996 6.07579 1.15013 5.33885 1.14962 4.57008ZM3.97656 23.3296C3.22445 23.3296 2.50292 23.024 1.9716 22.48C1.43976 21.9361 1.14095 21.1986 1.14095 20.4293C1.14095 19.66 1.43976 18.9226 1.9716 18.3786C2.50343 17.8346 3.22445 17.529 3.97656 17.529C4.72868 17.529 5.44969 17.8346 5.98153 18.3786C6.51337 18.9226 6.81166 19.66 6.81166 20.4293C6.81115 21.1986 6.51235 21.9355 5.98051 22.479C5.44867 23.0224 4.72817 23.3291 3.97656 23.3296ZM22.8514 20.4293C22.8514 21.1986 22.5526 21.9361 22.0208 22.48C21.4889 23.024 20.7679 23.3296 20.0158 23.3296C19.2637 23.3296 18.5427 23.024 18.0108 22.48C17.479 21.9361 17.1802 21.1986 17.1802 20.4293C17.1802 19.66 17.479 18.9226 18.0108 18.3786C18.5427 17.8346 19.2637 17.529 20.0158 17.529C20.7679 17.5295 21.4884 17.8357 22.0197 18.3791C22.5516 18.9231 22.8504 19.6605 22.8514 20.4293Z" stroke="#0075FF"/>
</svg>
