<svg width="24" height="25" viewBox="0 0 24 25" fill="none" xmlns="http://www.w3.org/2000/svg">
<path d="M12 12C11.337 12 10.7011 11.7366 10.2322 11.2678C9.76339 10.7989 9.5 10.163 9.5 9.5C9.5 8.83696 9.76339 8.20107 10.2322 7.73223C10.7011 7.26339 11.337 7 12 7C12.663 7 13.2989 7.26339 13.7678 7.73223C14.2366 8.20107 14.5 8.83696 14.5 9.5C14.5 9.8283 14.4353 10.1534 14.3097 10.4567C14.1841 10.76 13.9999 11.0356 13.7678 11.2678C13.5356 11.4999 13.26 11.6841 12.9567 11.8097C12.6534 11.9353 12.3283 12 12 12ZM12 2.5C10.1435 2.5 8.36301 3.2375 7.05025 4.55025C5.7375 5.86301 5 7.64348 5 9.5C5 14.75 12 22.5 12 22.5C12 22.5 19 14.75 19 9.5C19 7.64348 18.2625 5.86301 16.9497 4.55025C15.637 3.2375 13.8565 2.5 12 2.5Z" fill="#0075FF"/>
</svg>
