<svg width="24" height="20" viewBox="0 0 24 20" fill="none" xmlns="http://www.w3.org/2000/svg">
<path d="M23.953 2.38216C23.0545 2.78776 22.1027 3.05548 21.1281 3.17673C22.1542 2.54441 22.9225 1.55279 23.291 0.384985C22.3401 0.953997 21.2861 1.3682 20.1642 1.59888C19.424 0.787322 18.4431 0.249059 17.3739 0.067673C16.3047 -0.113713 15.2071 0.0719267 14.2513 0.595766C13.2956 1.11961 12.5353 1.95233 12.0886 2.96463C11.6418 3.97693 11.5335 5.11216 11.7805 6.19403C7.69068 5.99616 4.06583 3.98257 1.63993 0.938618C1.19874 1.70736 0.968624 2.58416 0.973959 3.4761C0.973959 5.22927 1.84392 6.77022 3.16187 7.67551C2.38076 7.65002 1.6169 7.43349 0.933961 7.04396V7.1065C0.933518 8.27158 1.32621 9.40094 2.04542 10.303C2.76463 11.205 3.76606 11.8241 4.8798 12.0554C4.15813 12.2536 3.40227 12.2834 2.66789 12.1425C2.98413 13.1451 3.59768 14.0216 4.42297 14.6496C5.24825 15.2776 6.24413 15.6258 7.2717 15.6458C5.53126 17.0461 3.38232 17.8062 1.16995 17.8039C0.779967 17.8039 0.390984 17.7803 0 17.7352C2.25561 19.216 4.87831 20.002 7.55669 20C16.6103 20 21.5551 12.3147 21.5551 5.6609C21.5551 5.44663 21.5551 5.2303 21.5401 5.015C22.506 4.30229 23.3392 3.41746 24 2.40267L23.953 2.38216Z" fill="#0075FF"/>
</svg>
