<svg width="124" height="128" viewBox="0 0 124 128" fill="none" xmlns="http://www.w3.org/2000/svg">
<g id="Frame 153">
<path id="Vector" d="M122.043 116.3H103.354C103.685 115.637 103.933 114.922 104.04 114.156L110.149 70.2721C110.43 68.2577 109.826 66.2204 108.491 64.6844C107.253 63.2592 105.495 62.4318 103.624 62.3151C97.2344 55.043 89.1149 49.5518 80.0597 46.4403C79.3851 46.2031 78.6292 46.3657 78.0998 46.8497C73.6889 50.9071 67.9734 53.1414 62.0049 53.1414C56.0355 53.1414 50.32 50.9071 45.91 46.8497C45.3826 46.3657 44.6296 46.2031 43.9501 46.4403C34.894 49.5518 26.7745 55.042 20.3865 62.3141C18.5126 62.428 16.7506 63.2573 15.5091 64.6843C14.1732 66.2204 13.5683 68.2559 13.8492 70.272L19.9593 114.156C20.0664 114.922 20.3129 115.637 20.6445 116.3H1.95703C0.876261 116.3 0 117.177 0 118.259V126.041C0 127.124 0.876261 128 1.95703 128H122.043C123.124 128 124 127.124 124 126.041V118.259C123.999 117.177 123.124 116.3 122.042 116.3L122.043 116.3ZM44.1581 50.526C49.1595 54.7479 55.4511 57.0608 62.0065 57.0608C68.5608 57.0608 74.8524 54.748 79.8539 50.526C86.7255 53.0608 92.997 57.074 98.2372 62.2697H25.7757C31.0151 57.074 37.2877 53.0608 44.1591 50.526H44.1581ZM17.7259 69.7341C17.6007 68.8273 17.8616 67.9473 18.4617 67.2568C19.0618 66.5681 19.896 66.1874 20.8096 66.1874H103.191C104.104 66.1874 104.939 66.5681 105.539 67.2587C106.139 67.9474 106.4 68.8273 106.274 69.734L100.164 113.615C99.9504 115.148 98.625 116.301 97.0809 116.301H26.9164C25.3722 116.301 24.0469 115.148 23.8336 113.617L17.7259 69.7341ZM120.086 124.083H3.91416V120.219H120.086V124.083Z" fill="#0075FF"/>
<path id="Vector_2" d="M61.9989 45.9936C74.668 45.9936 84.9749 35.6769 84.9749 22.9958C84.9749 10.3167 74.668 0 61.9989 0C49.3308 0 39.0238 10.3167 39.0238 22.9958C39.0238 35.6769 49.3298 45.9936 61.9989 45.9936ZM61.9989 3.91679C72.5094 3.91679 81.0609 12.4754 81.0609 22.9948C81.0609 33.5162 72.5094 42.0749 61.9989 42.0749C51.4884 42.0749 42.9379 33.5162 42.9379 22.9948C42.9379 12.4754 51.4884 3.91679 61.9989 3.91679Z" fill="#0075FF"/>
<path id="Vector_3" d="M61.9989 99.4834C67.7668 99.4834 72.4588 95.7875 72.4588 91.2443C72.4588 86.7009 67.7668 83.0033 61.9989 83.0033C56.232 83.0033 51.54 86.7012 51.54 91.2443C51.54 95.7877 56.231 99.4834 61.9989 99.4834ZM61.9989 86.9208C65.547 86.9208 68.5447 88.9007 68.5447 91.2441C68.5447 93.5875 65.547 95.5654 61.9989 95.5654C58.4508 95.5654 55.4541 93.5874 55.4541 91.2441C55.4541 88.9007 58.4508 86.9208 61.9989 86.9208Z" fill="#0075FF"/>
</g>
</svg>
