<svg width="857" height="843" viewBox="0 0 857 843" fill="none" xmlns="http://www.w3.org/2000/svg">
<mask id="mask0_105_49512" style="mask-type:luminance" maskUnits="userSpaceOnUse" x="0" y="0" width="857" height="843">
<path d="M615.489 0.326897L0.982788 249.559L241.604 842.437L856.11 593.206L615.489 0.326897Z" fill="white"/>
</mask>
<g mask="url(#mask0_105_49512)">
<path d="M551.318 360.952L187.977 569.282C187.549 569.521 187.033 569.381 186.794 568.955L31.9682 291.684C31.7293 291.257 31.9001 290.707 32.3358 290.487L407.65 103.625C408.066 103.412 408.571 103.578 408.803 103.986L551.656 359.788C551.887 360.197 551.727 360.72 551.318 360.952Z" stroke="#0075FF" stroke-width="2" stroke-miterlimit="10"/>
<path d="M201.477 611.063C196.186 609.454 193.705 604.851 193.602 604.652L18.8667 291.803C17.0578 288.586 16.6619 284.861 17.7799 281.308C18.8791 277.762 21.3324 274.912 24.6529 273.282L398.72 88.912C398.946 88.8204 399.201 88.695 399.427 88.6034C403.059 86.9338 406.873 87.8102 409.143 91.626" stroke="#0075FF" stroke-width="2" stroke-miterlimit="10"/>
<path d="M567.142 376.165L192.738 592.869C192.28 593.142 191.666 592.976 191.412 592.511L21.0846 288.961C18.2631 283.95 20.2499 277.578 25.4259 275.02L400.913 90.2053C404.308 88.5445 408.417 89.8249 410.245 93.1435L567.49 374.868C567.745 375.332 567.582 375.9 567.123 376.173L567.142 376.165Z" stroke="#0075FF" stroke-width="2" stroke-miterlimit="10"/>
<path d="M555.97 396.936L226.979 587.352C226.54 587.617 225.979 587.583 225.567 587.269L215.015 579.979L543.722 389.723L555.983 396.32C556.236 396.457 556.226 396.811 555.978 396.955L555.97 396.936Z" stroke="#0075FF" stroke-width="2" stroke-miterlimit="10"/>
<path d="M820.24 506.911L820.065 509.23C820.445 511.783 819.075 514.717 816.68 516.256L432.581 763.986C431.538 764.65 430.437 765.228 429.31 765.685C422.959 768.261 415.616 767.309 410.129 763.227L331.64 710.384L288.053 679.384L218.982 627.481L203.189 613.368C203.079 613.259 201.95 612.254 201.319 610.808C200.919 609.878 199.096 604.899 198.06 602.022C198.06 602.022 198.052 602.004 198.044 601.985C197.188 599.604 198.226 596.934 200.321 595.518C200.764 595.207 201.308 594.877 201.909 594.524" stroke="#0075FF" stroke-width="2" stroke-miterlimit="10"/>
<path d="M191.149 592.083L196.53 601.73C196.53 601.73 197.535 603.506 199.118 604.872" stroke="#0075FF" stroke-width="2" stroke-miterlimit="10"/>
<path d="M569.729 381.054L567.067 376.327" stroke="#0075FF" stroke-width="2" stroke-miterlimit="10"/>
<path d="M696.957 577.362L549.459 672.897C547.293 674.3 544.501 674.319 542.33 672.907L462.561 621.764C461.115 620.844 461.129 618.722 462.6 617.819L608.007 528.83C609.918 527.661 612.305 527.61 614.255 528.696L696.853 573.977C698.131 574.703 698.196 576.532 696.942 577.325L696.957 577.362Z" stroke="#0075FF" stroke-width="2" stroke-miterlimit="10"/>
<path d="M706.706 458.885L336.25 686.915C334.432 688.045 332.113 687.938 330.396 686.67L227.599 610.812C226.439 609.951 226.533 608.188 227.773 607.467L586.132 396.807C587.526 395.98 589.238 395.94 590.671 396.669L706.582 455.399C707.981 456.097 708.061 458.073 706.732 458.896L706.706 458.885Z" stroke="#0075FF" stroke-width="2" stroke-miterlimit="10"/>
<path d="M576.221 388.263L565.753 394.496C565.457 394.681 565.458 395.117 565.79 395.288L574.308 399.561C574.631 399.713 575.004 399.715 575.32 399.521L585.788 393.29C586.084 393.104 586.082 392.668 585.75 392.497L577.241 388.243C576.916 388.09 576.544 388.089 576.229 388.282L576.221 388.263Z" stroke="#0075FF" stroke-width="2" stroke-miterlimit="10"/>
<path d="M187.806 199.879L191.497 206.873C191.664 207.177 192.038 207.287 192.33 207.146L198.347 204.182C198.678 204.026 198.801 203.627 198.633 203.324L194.942 196.33C194.775 196.027 194.402 195.916 194.109 196.057L188.091 199.021C187.761 199.177 187.639 199.576 187.806 199.879Z" stroke="#0075FF" stroke-width="2" stroke-miterlimit="10"/>
<path d="M215.774 186.789L218.726 192.337C218.885 192.622 218.767 192.976 218.48 193.135L203.966 200.288C203.693 200.421 203.346 200.321 203.186 200.037L200.227 194.47C200.068 194.185 200.186 193.832 200.472 193.672L214.994 186.538C215.268 186.405 215.615 186.505 215.774 186.789Z" stroke="#0075FF" stroke-width="2" stroke-miterlimit="10"/>
<path d="M245.105 172.36L248.057 177.908C248.216 178.192 248.097 178.546 247.812 178.706L233.298 185.858C233.023 185.992 232.677 185.892 232.517 185.607L229.558 180.041C229.399 179.756 229.518 179.402 229.803 179.243L244.325 172.108C244.599 171.976 244.946 172.075 245.105 172.36Z" stroke="#0075FF" stroke-width="2" stroke-miterlimit="10"/>
<path d="M236.457 175.956L231.679 178.308C231.359 178.438 231.267 178.803 231.408 179.095L234.359 184.643C234.511 184.909 234.794 185.012 235.083 184.917L235.14 184.894L247.79 178.65" stroke="#0075FF" stroke-width="2" stroke-miterlimit="10"/>
<path d="M200.492 193.664L201.931 192.95L213.206 187.416C213.473 187.264 213.828 187.382 213.961 187.655L216.893 193.211C217.046 193.477 216.938 193.804 216.671 193.956C216.671 193.956 216.634 193.972 216.614 193.979L207.04 198.692L203.862 200.243" stroke="#0075FF" stroke-width="2" stroke-miterlimit="10"/>
<path d="M216.711 184.074L221.582 193.275C221.758 193.596 222.138 193.726 222.461 193.551L231.288 189.207C231.618 189.052 231.752 188.626 231.577 188.304L226.706 179.104C226.532 178.782 226.151 178.652 225.828 178.827L217.001 183.171C216.67 183.327 216.537 183.752 216.711 184.074Z" stroke="#0075FF" stroke-width="2" stroke-miterlimit="10"/>
<path d="M251.296 651.763L249.118 643.107C249.076 642.951 248.989 642.789 248.842 642.696L221.415 622.235C221.26 622.123 221.05 622.252 221.108 622.448L223.163 630.585" stroke="#0075FF" stroke-width="2" stroke-miterlimit="10"/>
<path d="M260.305 658.539L258.189 650.143C258.132 649.948 258.372 649.785 258.534 649.916L285.919 670.328C286.108 670.469 286.23 670.66 286.302 670.893L288.529 679.724" stroke="#0075FF" stroke-width="2" stroke-miterlimit="10"/>
<path d="M306.086 687.475C306.638 687.178 306.356 685.582 305.455 683.91C304.555 682.238 303.376 681.123 302.824 681.42C302.272 681.717 302.555 683.314 303.455 684.986C304.356 686.658 305.534 687.772 306.086 687.475Z" stroke="#0075FF" stroke-width="2" stroke-miterlimit="10"/>
<path d="M334.549 609.308C327.446 613.586 323.886 615.707 316.764 619.992C316.2 620.33 315.388 620.376 314.976 620.063C309.665 616.301 307.014 614.408 301.703 610.646C301.272 610.34 301.394 609.832 301.957 609.495C309.038 605.269 312.579 603.157 319.66 598.931C320.223 598.594 321.017 598.555 321.448 598.862C326.789 602.589 329.462 604.43 334.804 608.157C335.234 608.463 335.131 608.963 334.549 609.308Z" stroke="#0075FF" stroke-width="2" stroke-miterlimit="10"/>
<path d="M359.694 618.272C352.542 622.592 348.96 624.765 341.816 629.104C341.234 629.449 340.44 629.487 340.009 629.181C334.678 625.427 332.036 623.552 326.713 619.817C326.283 619.512 326.404 619.004 326.968 618.666C334.09 614.381 337.642 612.241 344.764 607.956C345.327 607.618 346.14 607.572 346.57 607.878C351.923 611.579 354.604 613.439 359.956 617.139C360.379 617.426 360.283 617.946 359.702 618.291L359.694 618.272Z" stroke="#0075FF" stroke-width="2" stroke-miterlimit="10"/>
<path d="M391.488 623.121C384.294 627.501 380.683 629.708 373.497 634.106C372.915 634.451 372.102 634.497 371.68 634.211C366.337 630.483 363.665 628.642 358.323 624.915C357.893 624.61 358.015 624.102 358.589 623.738C365.752 619.392 369.334 617.218 376.498 612.873C377.08 612.527 377.874 612.489 378.315 612.769C383.699 616.435 386.371 618.276 391.754 621.943C392.177 622.23 392.081 622.749 391.488 623.121Z" stroke="#0075FF" stroke-width="2" stroke-miterlimit="10"/>
<path d="M416.53 607.833C409.337 612.213 405.725 614.421 398.539 618.82C397.957 619.165 397.145 619.211 396.722 618.924C391.339 615.257 388.647 613.423 383.253 609.783C382.831 609.496 382.926 608.977 383.508 608.631C390.672 604.286 394.254 602.113 401.417 597.766C401.999 597.421 402.811 597.375 403.234 597.662C408.658 601.269 411.361 603.076 416.785 606.682C417.208 606.969 417.112 607.488 416.53 607.833Z" stroke="#0075FF" stroke-width="2" stroke-miterlimit="10"/>
<path d="M441.582 592.566C434.389 596.946 430.776 599.152 423.591 603.551C423.009 603.896 422.204 603.961 421.754 603.663C416.331 600.057 413.609 598.257 408.193 594.669C407.77 594.382 407.866 593.864 408.448 593.518C415.611 589.172 419.193 586.999 426.357 582.653C426.938 582.308 427.751 582.261 428.192 582.541C433.658 586.087 436.39 587.861 441.845 591.433C442.286 591.713 442.172 592.239 441.59 592.584L441.582 592.566Z" stroke="#0075FF" stroke-width="2" stroke-miterlimit="10"/>
<path d="M466.624 577.278C459.431 581.658 455.818 583.865 448.633 588.264C448.051 588.609 447.246 588.674 446.804 588.395C441.339 584.848 438.588 583.083 433.123 579.536C432.681 579.257 432.803 578.749 433.359 578.393C440.522 574.047 444.104 571.874 451.267 567.528C451.849 567.183 452.654 567.118 453.096 567.397C458.602 570.883 461.346 572.63 466.86 576.134C467.302 576.414 467.179 576.922 466.624 577.278Z" stroke="#0075FF" stroke-width="2" stroke-miterlimit="10"/>
<path d="M491.694 562.001C484.5 566.381 480.889 568.589 473.703 572.987C473.121 573.332 472.315 573.397 471.874 573.117C466.368 569.632 463.605 567.893 458.08 564.414C457.638 564.135 457.761 563.628 458.323 563.289C465.487 558.944 469.068 556.771 476.232 552.424C476.814 552.079 477.619 552.015 478.061 552.294C483.609 555.72 486.39 557.451 491.938 560.876C492.379 561.156 492.257 561.664 491.694 562.001Z" stroke="#0075FF" stroke-width="2" stroke-miterlimit="10"/>
<path d="M516.738 546.715C509.545 551.095 505.933 553.301 498.747 557.701C498.165 558.046 497.341 558.119 496.9 557.839C491.333 554.421 488.56 552.708 483.012 549.283C482.57 549.003 482.673 548.503 483.236 548.165C490.4 543.82 493.982 541.647 501.145 537.3C501.727 536.955 502.532 536.89 502.993 537.162C508.59 540.546 511.374 542.233 516.963 545.598C517.404 545.877 517.301 546.377 516.738 546.715Z" stroke="#0075FF" stroke-width="2" stroke-miterlimit="10"/>
<path d="M541.788 531.447C534.595 535.827 530.983 538.034 523.796 542.432C523.214 542.777 522.39 542.85 521.949 542.57C516.341 539.213 513.557 537.526 507.95 534.169C507.508 533.889 507.592 533.398 508.174 533.052C515.337 528.706 518.919 526.533 526.082 522.186C526.664 521.841 527.489 521.769 527.931 522.049C533.567 525.372 536.383 527.024 542.013 530.329C542.465 530.582 542.362 531.083 541.788 531.447Z" stroke="#0075FF" stroke-width="2" stroke-miterlimit="10"/>
<path d="M566.832 516.159C559.639 520.539 556.027 522.745 548.84 527.145C548.258 527.49 547.435 527.562 546.982 527.309C541.334 524.012 538.518 522.359 532.862 519.043C532.41 518.791 532.513 518.29 533.087 517.926C540.251 513.58 543.833 511.407 550.996 507.061C551.578 506.716 552.401 506.644 552.855 506.897C558.533 510.16 561.378 511.779 567.057 515.042C567.509 515.295 567.406 515.795 566.832 516.159Z" stroke="#0075FF" stroke-width="2" stroke-miterlimit="10"/>
<path d="M591.882 500.891C584.689 505.271 581.077 507.477 573.892 511.876C573.31 512.222 572.486 512.294 572.033 512.041C566.343 508.804 563.497 507.186 557.82 503.922C557.366 503.67 557.469 503.169 558.033 502.832C565.197 498.486 568.779 496.313 575.942 491.966C576.524 491.621 577.347 491.549 577.801 491.802C583.52 495.006 586.377 496.597 592.115 499.792C592.567 500.046 592.483 500.538 591.901 500.883L591.882 500.891Z" stroke="#0075FF" stroke-width="2" stroke-miterlimit="10"/>
<path d="M616.945 485.595C609.752 489.975 606.14 492.182 598.955 496.581C598.373 496.926 597.548 496.998 597.077 496.753C591.346 493.577 588.482 491.966 582.751 488.79C582.299 488.537 582.383 488.044 582.965 487.699C590.129 483.353 593.71 481.179 600.874 476.834C601.456 476.488 602.28 476.416 602.751 476.661C608.512 479.804 611.398 481.362 617.159 484.504C617.612 484.757 617.527 485.25 616.945 485.595Z" stroke="#0075FF" stroke-width="2" stroke-miterlimit="10"/>
<path d="M384.586 603.199C377.433 607.519 373.851 609.692 366.707 614.031C366.125 614.376 365.331 614.414 364.908 614.127C359.536 610.433 356.864 608.592 351.492 604.9C351.069 604.613 351.165 604.094 351.746 603.748C358.869 599.463 362.421 597.324 369.543 593.038C370.106 592.7 370.918 592.654 371.341 592.941C376.736 596.582 379.447 598.408 384.84 602.048C385.263 602.335 385.167 602.854 384.586 603.199Z" stroke="#0075FF" stroke-width="2" stroke-miterlimit="10"/>
<path d="M409.494 588.12C402.341 592.44 398.759 594.613 391.615 598.951C391.033 599.296 390.22 599.342 389.797 599.054C384.384 595.422 381.682 593.615 376.287 589.974C375.865 589.687 375.96 589.168 376.542 588.823C383.665 584.538 387.216 582.399 394.338 578.113C394.902 577.775 395.714 577.73 396.156 578.009C401.592 581.589 404.313 583.388 409.748 586.968C410.189 587.248 410.076 587.775 409.494 588.12Z" stroke="#0075FF" stroke-width="2" stroke-miterlimit="10"/>
<path d="M434.382 573.047C427.23 577.367 423.649 579.54 416.504 583.878C415.922 584.223 415.108 584.269 414.686 583.983C409.232 580.409 406.519 578.629 401.064 575.056C400.623 574.777 400.745 574.269 401.301 573.913C408.423 569.627 411.974 567.488 419.096 563.202C419.66 562.865 420.492 562.811 420.915 563.098C426.39 566.618 429.142 568.384 434.619 571.904C435.06 572.182 434.938 572.69 434.382 573.047Z" stroke="#0075FF" stroke-width="2" stroke-miterlimit="10"/>
<path d="M459.29 557.967C452.138 562.287 448.556 564.46 441.393 568.806C440.811 569.152 439.998 569.197 439.556 568.918C434.062 565.406 431.317 563.659 425.822 560.147C425.38 559.868 425.503 559.359 426.066 559.022C433.188 554.736 436.74 552.597 443.862 548.311C444.425 547.974 445.257 547.92 445.699 548.2C451.216 551.658 453.979 553.398 459.523 556.869C459.965 557.148 459.842 557.656 459.28 557.994L459.29 557.967Z" stroke="#0075FF" stroke-width="2" stroke-miterlimit="10"/>
<path d="M484.182 542.895C477.03 547.215 473.449 549.388 466.285 553.735C465.703 554.08 464.899 554.145 464.456 553.865C458.92 550.413 456.158 548.674 450.621 545.222C450.18 544.943 450.283 544.442 450.846 544.105C457.968 539.819 461.52 537.681 468.642 533.394C469.205 533.057 470.037 533.003 470.472 533.264C476.037 536.682 478.822 538.369 484.389 541.786C484.831 542.066 484.727 542.565 484.163 542.903L484.182 542.895Z" stroke="#0075FF" stroke-width="2" stroke-miterlimit="10"/>
<path d="M509.09 527.816C501.939 532.136 498.357 534.309 491.193 538.654C490.611 538.999 489.806 539.064 489.346 538.792C483.768 535.402 480.975 533.696 475.398 530.305C474.956 530.026 475.041 529.532 475.623 529.187C482.746 524.902 486.297 522.763 493.419 518.477C493.983 518.139 494.807 518.067 495.267 518.339C500.874 521.696 503.689 523.348 509.297 526.706C509.758 526.978 509.646 527.459 509.072 527.823L509.09 527.816Z" stroke="#0075FF" stroke-width="2" stroke-miterlimit="10"/>
<path d="M533.997 512.735L516.118 523.567C515.536 523.913 514.712 523.984 514.271 523.705C508.652 520.374 505.829 518.703 500.211 515.372C499.751 515.1 499.861 514.619 500.425 514.281C507.547 509.995 511.099 507.856 518.221 503.57C518.784 503.233 519.608 503.16 520.068 503.432C525.736 506.722 528.551 508.374 534.211 511.645C534.663 511.898 534.56 512.398 533.997 512.735Z" stroke="#0075FF" stroke-width="2" stroke-miterlimit="10"/>
<path d="M558.895 497.682C551.743 502.002 548.161 504.175 541.015 508.513C540.433 508.858 539.609 508.931 539.157 508.678C533.497 505.407 530.663 503.762 525.004 500.491C524.551 500.238 524.654 499.738 525.217 499.4C532.34 495.115 535.892 492.975 543.014 488.69C543.577 488.352 544.42 488.272 544.873 488.526C550.581 491.754 553.426 493.373 559.127 496.584C559.58 496.836 559.496 497.329 558.914 497.674L558.895 497.682Z" stroke="#0075FF" stroke-width="2" stroke-miterlimit="10"/>
<path d="M583.804 482.602C576.652 486.921 573.07 489.094 565.925 493.433C565.343 493.779 564.519 493.85 564.066 493.598C558.365 490.387 555.502 488.776 549.801 485.566C549.347 485.313 549.432 484.82 549.995 484.482C557.117 480.197 560.67 478.058 567.792 473.772C568.355 473.434 569.198 473.355 569.651 473.607C575.4 476.776 578.275 478.36 584.006 481.538C584.459 481.79 584.374 482.283 583.811 482.621L583.804 482.602Z" stroke="#0075FF" stroke-width="2" stroke-miterlimit="10"/>
<path d="M608.694 467.529C601.542 471.849 597.96 474.022 590.815 478.361C590.233 478.706 589.41 478.778 588.956 478.525C583.214 475.375 580.339 473.791 574.571 470.629C574.119 470.376 574.203 469.883 574.766 469.546C581.888 465.261 585.44 463.121 592.562 458.835C593.125 458.498 593.969 458.419 594.421 458.671C600.212 461.78 603.098 463.337 608.889 466.446C609.36 466.692 609.268 467.166 608.694 467.529Z" stroke="#0075FF" stroke-width="2" stroke-miterlimit="10"/>
<path d="M359.277 594.432C352.173 598.711 348.614 600.831 341.492 605.116C340.928 605.454 340.115 605.5 339.685 605.194C334.332 601.493 331.652 599.634 326.299 595.933C325.869 595.627 325.972 595.127 326.554 594.782C333.635 590.557 337.175 588.444 344.256 584.218C344.82 583.881 345.633 583.835 346.063 584.14C351.446 587.807 354.13 589.622 359.532 593.282C359.954 593.568 359.859 594.087 359.277 594.432Z" stroke="#0075FF" stroke-width="2" stroke-miterlimit="10"/>
<path d="M384.03 579.568C376.927 583.846 373.367 585.966 366.245 590.252C365.682 590.589 364.87 590.635 364.447 590.348C359.053 586.708 356.361 584.874 350.967 581.233C350.544 580.947 350.64 580.427 351.203 580.09C358.284 575.865 361.824 573.752 368.906 569.526C369.469 569.189 370.282 569.143 370.704 569.43C376.128 573.037 378.85 574.836 384.267 578.423C384.69 578.711 384.594 579.23 384.03 579.568Z" stroke="#0075FF" stroke-width="2" stroke-miterlimit="10"/>
<path d="M408.786 564.702C401.682 568.981 398.124 571.101 391.001 575.387C390.437 575.725 389.625 575.771 389.183 575.491C383.748 571.911 381.026 570.111 375.591 566.531C375.149 566.252 375.271 565.745 375.835 565.406C382.916 561.182 386.457 559.069 393.538 554.843C394.101 554.506 394.914 554.459 395.355 554.739C400.821 558.285 403.572 560.051 409.037 563.597C409.479 563.876 409.357 564.384 408.794 564.721L408.786 564.702Z" stroke="#0075FF" stroke-width="2" stroke-miterlimit="10"/>
<path d="M433.541 549.837C426.438 554.116 422.878 556.235 415.756 560.522C415.193 560.859 414.38 560.905 413.938 560.625C408.462 557.106 405.71 555.34 400.226 551.802C399.784 551.523 399.907 551.014 400.451 550.684C407.532 546.459 411.073 544.346 418.154 540.121C418.717 539.784 419.53 539.737 419.972 540.017C425.478 543.503 428.24 545.242 433.766 548.72C434.208 548.999 434.085 549.507 433.541 549.837Z" stroke="#0075FF" stroke-width="2" stroke-miterlimit="10"/>
<path d="M458.289 534.954C451.185 539.232 447.626 541.352 440.503 545.638C439.94 545.976 439.108 546.029 438.667 545.749C433.142 542.272 430.386 540.551 424.861 537.073C424.42 536.793 424.523 536.293 425.086 535.956C432.167 531.73 435.708 529.617 442.79 525.392C443.352 525.054 444.165 525.009 444.625 525.28C450.192 528.698 452.966 530.411 458.514 533.837C458.955 534.116 458.851 534.617 458.289 534.954Z" stroke="#0075FF" stroke-width="2" stroke-miterlimit="10"/>
<path d="M483.044 520.088C475.942 524.367 472.382 526.487 465.26 530.773C464.696 531.111 463.865 531.164 463.431 530.904C457.864 527.485 455.079 525.8 449.512 522.381C449.072 522.102 449.156 521.61 449.72 521.272C456.801 517.046 460.341 514.934 467.422 510.708C467.985 510.371 468.817 510.317 469.251 510.578C474.858 513.936 477.643 515.622 483.251 518.979C483.692 519.258 483.6 519.733 483.044 520.088Z" stroke="#0075FF" stroke-width="2" stroke-miterlimit="10"/>
<path d="M507.798 505.224C500.694 509.502 497.134 511.622 490.012 515.908C489.449 516.245 488.625 516.318 488.165 516.046C482.557 512.689 479.754 511.009 474.135 507.679C473.675 507.407 473.786 506.926 474.348 506.588C481.43 502.362 484.971 500.25 492.052 496.024C492.615 495.687 493.446 495.633 493.899 495.886C499.548 499.184 502.363 500.836 508.012 504.133C508.464 504.386 508.361 504.886 507.798 505.224Z" stroke="#0075FF" stroke-width="2" stroke-miterlimit="10"/>
<path d="M532.534 490.367C525.43 494.645 521.872 496.765 514.749 501.051C514.186 501.389 513.361 501.461 512.901 501.189C507.253 497.892 504.419 496.247 498.77 492.951C498.318 492.697 498.402 492.205 498.984 491.859C506.065 487.634 509.606 485.522 516.688 481.296C517.25 480.959 518.074 480.886 518.535 481.158C524.224 484.395 527.069 486.013 532.748 489.276C533.201 489.529 533.116 490.022 532.534 490.367Z" stroke="#0075FF" stroke-width="2" stroke-miterlimit="10"/>
<path d="M557.281 475.483C550.178 479.762 546.619 481.883 539.496 486.168C538.934 486.506 538.109 486.577 537.649 486.306C531.959 483.069 529.095 481.458 523.406 478.221C522.953 477.969 523.038 477.476 523.601 477.139C530.682 472.913 534.222 470.8 541.303 466.575C541.867 466.237 542.691 466.165 543.151 466.437C548.882 469.613 551.746 471.224 557.477 474.4C557.93 474.654 557.845 475.146 557.281 475.483Z" stroke="#0075FF" stroke-width="2" stroke-miterlimit="10"/>
<path d="M582.038 460.618C574.934 464.897 571.375 467.017 564.253 471.302C563.69 471.641 562.847 471.72 562.394 471.467C556.663 468.291 553.788 466.707 548.038 463.537C547.586 463.284 547.678 462.811 548.241 462.473C555.322 458.248 558.863 456.135 565.944 451.91C566.507 451.572 567.331 451.5 567.802 451.745C573.574 454.861 576.469 456.438 582.24 459.555C582.693 459.807 582.62 460.273 582.038 460.618Z" stroke="#0075FF" stroke-width="2" stroke-miterlimit="10"/>
<path d="M606.792 445.754C599.688 450.032 596.129 452.152 589.006 456.438C588.444 456.775 587.6 456.856 587.148 456.603C581.357 453.494 578.47 451.936 572.699 448.82C572.246 448.567 572.32 448.101 572.883 447.763C579.964 443.538 583.504 441.425 590.585 437.2C591.149 436.862 591.991 436.782 592.444 437.035C598.266 440.11 601.182 441.634 606.995 444.689C607.467 444.935 607.374 445.409 606.811 445.746L606.792 445.754Z" stroke="#0075FF" stroke-width="2" stroke-miterlimit="10"/>
<path d="M574.899 442.058C567.836 446.276 564.296 448.388 557.226 452.587C556.662 452.925 555.838 452.997 555.368 452.752C549.606 449.609 546.72 448.052 540.959 444.909C540.507 444.656 540.58 444.19 541.144 443.852C548.183 439.687 551.694 437.608 558.734 433.443C559.297 433.106 560.121 433.033 560.592 433.278C566.394 436.361 569.28 437.919 575.091 441.019C575.561 441.265 575.47 441.739 574.907 442.077L574.899 442.058Z" stroke="#0075FF" stroke-width="2" stroke-miterlimit="10"/>
<path d="M550.279 456.716C543.217 460.934 539.676 463.046 532.606 467.245C532.043 467.583 531.219 467.655 530.758 467.384C525.038 464.181 522.183 462.589 516.463 459.386C516.01 459.133 516.102 458.658 516.646 458.328C523.686 454.164 527.197 452.085 534.237 447.92C534.8 447.582 535.632 447.528 536.085 447.782C541.827 450.932 544.72 452.508 550.462 455.659C550.916 455.911 550.842 456.379 550.279 456.716Z" stroke="#0075FF" stroke-width="2" stroke-miterlimit="10"/>
<path d="M525.667 471.392C518.605 475.61 515.064 477.722 507.994 481.921C507.431 482.259 506.599 482.312 506.147 482.059C500.468 478.796 497.642 477.17 491.963 473.907C491.51 473.654 491.595 473.161 492.157 472.824C499.198 468.658 502.708 466.58 509.749 462.415C510.312 462.077 511.143 462.024 511.596 462.277C517.297 465.487 520.161 467.098 525.862 470.309C526.315 470.562 526.23 471.054 525.667 471.392Z" stroke="#0075FF" stroke-width="2" stroke-miterlimit="10"/>
<path d="M501.072 486.06C494.01 490.278 490.47 492.391 483.399 496.589C482.836 496.927 482.004 496.98 481.57 496.72C475.934 493.397 473.118 491.745 467.48 488.421C467.02 488.149 467.112 487.675 467.676 487.337C474.716 483.172 478.226 481.094 485.266 476.928C485.829 476.591 486.661 476.537 487.095 476.798C492.755 480.068 495.589 481.714 501.267 484.977C501.72 485.23 501.636 485.722 501.072 486.06Z" stroke="#0075FF" stroke-width="2" stroke-miterlimit="10"/>
<path d="M476.51 500.695C469.447 504.913 465.907 507.026 458.836 511.225C458.273 511.562 457.441 511.616 457.008 511.355C451.412 507.971 448.626 506.285 443.031 502.901C442.589 502.622 442.68 502.148 443.244 501.81C450.284 497.645 453.795 495.567 460.835 491.401C461.397 491.064 462.21 491.018 462.664 491.271C468.282 494.602 471.104 496.273 476.724 499.604C477.184 499.875 477.073 500.358 476.51 500.695Z" stroke="#0075FF" stroke-width="2" stroke-miterlimit="10"/>
<path d="M451.915 515.364C444.853 519.581 441.313 521.694 434.242 525.893C433.679 526.23 432.866 526.276 432.424 525.997C426.87 522.553 424.096 520.84 418.567 517.407C418.126 517.127 418.21 516.635 418.781 516.316C425.821 512.151 429.331 510.073 436.372 505.907C436.935 505.57 437.747 505.524 438.189 505.803C443.766 509.195 446.551 510.881 452.13 514.273C452.571 514.552 452.479 515.026 451.915 515.364Z" stroke="#0075FF" stroke-width="2" stroke-miterlimit="10"/>
<path d="M427.314 530.014C420.252 534.231 416.711 536.344 409.641 540.543C409.078 540.88 408.264 540.926 407.823 540.647C402.317 537.161 399.565 535.396 394.059 531.91C393.618 531.63 393.721 531.13 394.284 530.793C401.324 526.627 404.835 524.549 411.874 520.384C412.438 520.046 413.251 520 413.692 520.28C419.229 523.732 422.002 525.444 427.539 528.896C427.98 529.176 427.877 529.676 427.314 530.014Z" stroke="#0075FF" stroke-width="2" stroke-miterlimit="10"/>
<path d="M402.757 544.667C395.696 548.885 392.154 550.998 385.084 555.196C384.522 555.534 383.708 555.58 383.267 555.3C377.802 551.754 375.08 549.954 369.615 546.409C369.174 546.129 369.295 545.622 369.84 545.292C376.879 541.126 380.39 539.048 387.43 534.883C387.994 534.545 388.806 534.499 389.248 534.778C394.743 538.291 397.487 540.038 402.982 543.55C403.424 543.829 403.302 544.337 402.757 544.667Z" stroke="#0075FF" stroke-width="2" stroke-miterlimit="10"/>
<path d="M378.135 559.324C371.073 563.541 367.532 565.654 360.462 569.854C359.899 570.191 359.087 570.237 358.656 569.931C353.232 566.325 350.529 564.517 345.116 560.885C344.693 560.598 344.796 560.097 345.36 559.76C352.4 555.595 355.911 553.516 362.95 549.351C363.513 549.013 364.327 548.967 364.757 549.274C370.211 552.846 372.925 554.627 378.379 558.199C378.82 558.479 378.699 558.986 378.135 559.324Z" stroke="#0075FF" stroke-width="2" stroke-miterlimit="10"/>
<path d="M353.524 574C346.462 578.218 342.921 580.33 335.851 584.53C335.288 584.867 334.475 584.913 334.045 584.607C328.68 580.933 325.989 579.099 320.606 575.432C320.183 575.145 320.279 574.627 320.85 574.308C327.889 570.143 331.4 568.064 338.44 563.9C339.004 563.562 339.805 563.542 340.247 563.821C345.66 567.454 348.362 569.261 353.775 572.894C354.198 573.181 354.103 573.7 353.531 574.019L353.524 574Z" stroke="#0075FF" stroke-width="2" stroke-miterlimit="10"/>
<path d="M328.93 588.669C321.867 592.887 318.326 594.999 311.256 599.198C310.693 599.536 309.892 599.555 309.469 599.268C304.146 595.533 301.466 593.674 296.143 589.939C295.712 589.633 295.815 589.133 296.378 588.795C303.418 584.63 306.929 582.552 313.968 578.386C314.532 578.049 315.333 578.03 315.756 578.317C321.128 582.009 323.801 583.85 329.165 587.525C329.588 587.812 329.492 588.331 328.93 588.669Z" stroke="#0075FF" stroke-width="2" stroke-miterlimit="10"/>
<path d="M304.328 603.318C297.266 607.535 293.726 609.648 286.656 613.848C286.093 614.185 285.291 614.204 284.868 613.917C279.586 610.123 276.936 608.229 271.654 604.433C271.224 604.128 271.346 603.62 271.909 603.282C278.949 599.117 282.46 597.039 289.5 592.874C290.063 592.536 290.864 592.516 291.287 592.803C296.611 596.538 299.279 598.425 304.583 602.167C305.014 602.473 304.91 602.973 304.328 603.318Z" stroke="#0075FF" stroke-width="2" stroke-miterlimit="10"/>
<path d="M279.735 617.987C272.672 622.205 269.131 624.318 262.062 628.517C261.498 628.854 260.697 628.873 260.285 628.56C255.044 624.705 252.424 622.777 247.165 618.929C246.753 618.616 246.856 618.115 247.419 617.778C254.459 613.613 257.97 611.534 265.01 607.369C265.573 607.031 266.374 607.012 266.786 607.325C272.069 611.121 274.708 613.041 279.989 616.836C280.42 617.142 280.298 617.65 279.735 617.987Z" stroke="#0075FF" stroke-width="2" stroke-miterlimit="10"/>
<path d="M637.966 427.02C628.256 432.858 623.417 435.759 613.707 441.596C613.144 441.933 612.301 442.014 611.83 441.769C605.998 438.72 603.1 437.189 597.269 434.14C596.797 433.895 596.889 433.421 597.452 433.084C607.102 427.314 611.93 424.439 621.598 418.662C622.161 418.325 623.004 418.245 623.476 418.49C629.349 421.478 632.276 422.976 638.15 425.964C638.621 426.209 638.548 426.675 637.966 427.02Z" stroke="#0075FF" stroke-width="2" stroke-miterlimit="10"/>
<path d="M309.812 624.165C298.003 631.246 292.113 634.793 280.312 641.892C279.749 642.231 278.947 642.25 278.524 641.963C273.283 638.107 270.664 636.18 265.404 632.332C264.992 632.018 265.107 631.491 265.67 631.154C277.418 624.141 283.287 620.648 295.016 613.642C295.579 613.303 296.38 613.285 296.803 613.572C302.097 617.34 304.747 619.234 310.048 623.022C310.478 623.327 310.356 623.835 309.775 624.18L309.812 624.165Z" stroke="#0075FF" stroke-width="2" stroke-miterlimit="10"/>
<path d="M334.767 633.359C320.297 642.132 313.059 646.508 298.581 655.261C298 655.606 297.205 655.645 296.794 655.331C291.553 651.476 288.932 649.548 283.673 645.7C283.261 645.387 283.376 644.86 283.939 644.522C298.345 635.863 305.553 631.52 319.952 622.843C320.515 622.506 321.329 622.46 321.759 622.765C327.071 626.526 329.714 628.402 335.026 632.163C335.456 632.468 335.333 632.977 334.759 633.341L334.767 633.359Z" stroke="#0075FF" stroke-width="2" stroke-miterlimit="10"/>
<path d="M410.176 635.904C402.923 640.353 399.319 642.579 392.065 647.026C391.491 647.391 390.679 647.436 390.248 647.13C384.907 643.403 382.234 641.562 376.892 637.835C376.461 637.529 376.584 637.022 377.158 636.658C384.363 632.251 387.975 630.045 395.187 625.657C395.768 625.311 396.581 625.265 397.004 625.552C402.387 629.219 405.059 631.06 410.443 634.727C410.866 635.014 410.751 635.541 410.176 635.904Z" stroke="#0075FF" stroke-width="2" stroke-miterlimit="10"/>
<path d="M384.974 651.388C377.721 655.836 374.116 658.062 366.863 662.51C366.289 662.873 365.468 662.901 365.046 662.614C359.752 658.845 357.102 656.952 351.802 653.163C351.371 652.858 351.504 652.324 352.086 651.978C359.291 647.573 362.903 645.365 370.115 640.978C370.697 640.633 371.51 640.587 371.932 640.873C377.275 644.601 379.936 646.468 385.259 650.203C385.689 650.508 385.556 651.043 384.974 651.388Z" stroke="#0075FF" stroke-width="2" stroke-miterlimit="10"/>
<path d="M359.768 666.871C349.895 672.949 344.954 675.98 335.072 682.039C334.497 682.403 333.677 682.431 333.266 682.117C328.025 678.261 325.404 676.334 320.145 672.486C319.733 672.172 319.848 671.646 320.43 671.301C330.27 665.302 335.174 662.287 345.013 656.287C345.595 655.942 346.409 655.896 346.82 656.21C352.102 660.004 354.753 661.899 360.053 665.686C360.483 665.992 360.35 666.526 359.768 666.871Z" stroke="#0075FF" stroke-width="2" stroke-miterlimit="10"/>
<path d="M435.382 620.421C428.128 624.869 424.524 627.096 417.271 631.544C416.696 631.908 415.884 631.953 415.434 631.655C410.051 627.988 407.367 626.174 401.966 622.515C401.543 622.228 401.639 621.709 402.232 621.337C409.437 616.93 413.048 614.723 420.26 610.335C420.842 609.99 421.648 609.926 422.096 610.224C427.521 613.831 430.223 615.637 435.647 619.244C436.07 619.531 435.974 620.05 435.382 620.421Z" stroke="#0075FF" stroke-width="2" stroke-miterlimit="10"/>
<path d="M561.335 543.009C521.699 567.358 482.091 591.718 442.456 616.067C441.881 616.431 441.049 616.485 440.627 616.198C435.203 612.591 432.481 610.791 427.065 607.204C426.642 606.916 426.738 606.398 427.32 606.052C466.752 581.959 506.185 557.867 545.637 533.767C546.219 533.422 547.043 533.35 547.496 533.603C553.133 536.926 555.948 538.578 561.578 541.884C562.031 542.136 561.936 542.656 561.354 543.001L561.335 543.009Z" stroke="#0075FF" stroke-width="2" stroke-miterlimit="10"/>
<path d="M366.456 638.383C349.937 648.467 333.41 658.531 316.871 668.623C316.289 668.968 315.496 669.006 315.065 668.7C309.825 664.845 307.204 662.917 301.944 659.069C301.532 658.756 301.647 658.228 302.229 657.883C318.685 647.913 335.122 637.95 351.57 627.96C352.152 627.615 352.947 627.577 353.377 627.883C358.719 631.61 361.38 633.477 366.704 637.213C367.133 637.518 367.012 638.026 366.438 638.39L366.456 638.383Z" stroke="#0075FF" stroke-width="2" stroke-miterlimit="10"/>
<path d="M586.591 527.482C579.337 531.93 575.734 534.156 568.48 538.604C567.906 538.968 567.056 539.029 566.622 538.769C560.973 535.471 558.158 533.818 552.51 530.522C552.056 530.269 552.16 529.769 552.734 529.405C559.938 524.998 563.551 522.791 570.762 518.404C571.344 518.059 572.168 517.986 572.621 518.239C578.3 521.502 581.145 523.12 586.824 526.384C587.276 526.636 587.173 527.137 586.599 527.501L586.591 527.482Z" stroke="#0075FF" stroke-width="2" stroke-miterlimit="10"/>
<path d="M611.795 511.999C604.542 516.447 600.937 518.673 593.685 523.121C593.11 523.484 592.267 523.564 591.807 523.292C586.116 520.056 583.272 518.437 577.593 515.174C577.141 514.921 577.244 514.421 577.818 514.057C585.023 509.651 588.635 507.444 595.847 503.056C596.429 502.711 597.271 502.631 597.724 502.884C603.444 506.087 606.3 507.679 612.039 510.874C612.491 511.127 612.388 511.627 611.814 511.991L611.795 511.999Z" stroke="#0075FF" stroke-width="2" stroke-miterlimit="10"/>
<path d="M640.918 494.096C632.106 499.504 627.699 502.23 618.888 507.638C618.313 508.001 617.471 508.081 617.017 507.829C611.286 504.651 608.423 503.041 602.691 499.864C602.239 499.611 602.323 499.119 602.905 498.773C611.668 493.408 616.072 490.726 624.843 485.379C625.425 485.034 626.26 484.936 626.712 485.189C632.492 488.324 635.378 489.881 641.132 493.005C641.585 493.259 641.5 493.751 640.918 494.096Z" stroke="#0075FF" stroke-width="2" stroke-miterlimit="10"/>
<path d="M661.441 471.605C652.641 476.987 648.244 479.687 639.432 485.094C638.85 485.44 638.016 485.539 637.563 485.286C635.235 484.025 634.058 483.389 631.712 482.136C631.258 481.883 631.344 481.391 631.925 481.045C640.707 475.672 645.092 472.998 653.873 467.625C654.455 467.28 655.291 467.18 655.763 467.426C658.12 468.653 659.297 469.288 661.655 470.515C662.127 470.761 662.034 471.235 661.459 471.598L661.441 471.605Z" stroke="#0075FF" stroke-width="2" stroke-miterlimit="10"/>
<path d="M670.099 476.169C661.269 481.585 656.862 484.311 648.032 489.727C647.458 490.09 646.615 490.17 646.143 489.925C643.815 488.664 642.639 488.028 640.292 486.775C639.839 486.523 639.923 486.03 640.505 485.685C649.317 480.276 653.721 477.595 662.513 472.196C663.095 471.851 663.931 471.751 664.403 471.997C666.76 473.224 667.937 473.86 670.295 475.086C670.767 475.332 670.656 475.813 670.081 476.177L670.099 476.169Z" stroke="#0075FF" stroke-width="2" stroke-miterlimit="10"/>
<path d="M699.241 458.26C690.43 463.668 686.022 466.394 677.211 471.801C676.637 472.165 675.793 472.246 675.323 472C669.49 468.952 666.574 467.428 660.742 464.379C660.27 464.134 660.363 463.66 660.937 463.296C669.7 457.93 674.104 455.249 682.874 449.902C683.456 449.557 684.291 449.459 684.763 449.704C690.636 452.691 693.563 454.19 699.436 457.177C699.908 457.422 699.816 457.897 699.241 458.26Z" stroke="#0075FF" stroke-width="2" stroke-miterlimit="10"/>
<path d="M678.827 447.857C660.532 459.01 642.244 470.182 623.949 481.335C623.366 481.68 622.532 481.779 622.079 481.526C616.307 478.409 613.413 476.833 607.641 473.716C607.187 473.464 607.28 472.99 607.835 472.634C626.049 461.601 644.235 450.557 662.449 439.525C663.031 439.18 663.865 439.081 664.337 439.327C670.211 442.314 673.138 443.812 679.011 446.8C679.483 447.045 679.391 447.519 678.809 447.864L678.827 447.857Z" stroke="#0075FF" stroke-width="2" stroke-miterlimit="10"/>
<path d="M639.042 427.519C629.295 433.371 624.424 436.307 614.678 442.16C614.134 442.49 614.053 442.937 614.498 443.171C615.38 443.621 615.826 443.855 616.697 444.331C609.785 448.488 606.32 450.57 599.407 454.727C598.863 455.057 598.782 455.505 599.227 455.739C605.063 458.851 607.975 460.42 613.793 463.54C614.238 463.775 615.036 463.691 615.561 463.368C629.84 454.718 644.137 446.059 658.423 437.427C658.967 437.097 659.048 436.65 658.603 436.416C657.388 435.795 656.785 435.495 655.57 434.873C650.878 432.476 648.536 431.287 643.824 428.897C642.609 428.277 642.006 427.976 640.791 427.355C640.345 427.121 639.548 427.205 639.003 427.535L639.042 427.519Z" stroke="#0075FF" stroke-width="2" stroke-miterlimit="10"/>
<path d="M294.814 584.936C287.792 589.094 284.281 591.173 277.253 595.311C276.689 595.649 275.888 595.669 275.457 595.363C272.411 593.193 270.87 592.093 267.804 589.932C267.374 589.625 267.477 589.126 268.041 588.787C275.051 584.656 278.551 582.605 285.561 578.474C286.123 578.135 286.925 578.116 287.356 578.421C290.44 580.576 291.965 581.638 295.049 583.793C295.48 584.098 295.376 584.599 294.814 584.936Z" stroke="#0075FF" stroke-width="2" stroke-miterlimit="10"/>
<path d="M319.272 570.475C312.251 574.633 308.74 576.711 301.712 580.85C301.148 581.188 300.347 581.207 299.924 580.92C296.847 578.784 295.296 577.712 292.219 575.576C291.789 575.27 291.892 574.769 292.462 574.451C299.473 570.32 302.972 568.267 309.982 564.136C310.546 563.798 311.347 563.78 311.77 564.066C314.877 566.168 316.428 567.241 319.535 569.343C319.958 569.629 319.862 570.149 319.291 570.467L319.272 570.475Z" stroke="#0075FF" stroke-width="2" stroke-miterlimit="10"/>
<path d="M343.711 556.022C336.69 560.179 333.179 562.258 326.15 566.397C325.587 566.734 324.785 566.754 324.362 566.467C321.256 564.366 319.712 563.311 316.598 561.19C316.175 560.903 316.279 560.403 316.841 560.066C323.852 555.935 327.351 553.882 334.361 549.751C334.925 549.413 335.726 549.393 336.168 549.673C339.285 551.748 340.867 552.788 343.985 554.863C344.408 555.15 344.304 555.65 343.759 555.98L343.711 556.022Z" stroke="#0075FF" stroke-width="2" stroke-miterlimit="10"/>
<path d="M368.153 541.569C361.131 545.726 357.621 547.805 350.592 551.944C350.029 552.282 349.227 552.3 348.785 552.021C345.649 549.954 344.086 548.907 340.949 546.839C340.508 546.56 340.63 546.052 341.174 545.722C348.184 541.591 351.684 539.538 358.694 535.407C359.257 535.07 360.059 535.05 360.5 535.33C363.648 537.371 365.222 538.391 368.377 540.452C368.819 540.731 368.697 541.239 368.153 541.569Z" stroke="#0075FF" stroke-width="2" stroke-miterlimit="10"/>
<path d="M392.612 527.108C385.591 531.266 382.081 533.344 375.052 537.482C374.489 537.82 373.675 537.866 373.254 537.579C370.086 535.546 368.513 534.525 365.365 532.484C364.922 532.204 365.026 531.704 365.59 531.366C372.6 527.235 376.099 525.183 383.109 521.052C383.672 520.714 384.466 520.676 384.908 520.955C388.086 522.963 389.679 523.976 392.856 525.983C393.298 526.262 393.194 526.763 392.632 527.1L392.612 527.108Z" stroke="#0075FF" stroke-width="2" stroke-miterlimit="10"/>
<path d="M417.052 512.654C410.031 516.811 406.52 518.89 399.491 523.029C398.928 523.366 398.115 523.412 397.673 523.133C394.496 521.126 392.911 520.131 389.714 518.131C389.273 517.853 389.376 517.352 389.928 517.04C396.937 512.91 400.437 510.857 407.448 506.726C408.011 506.388 408.823 506.343 409.265 506.622C412.473 508.595 414.077 509.582 417.266 511.564C417.707 511.842 417.616 512.316 417.052 512.654Z" stroke="#0075FF" stroke-width="2" stroke-miterlimit="10"/>
<path d="M441.51 498.192C434.489 502.35 430.978 504.429 423.95 508.568C423.386 508.906 422.573 508.952 422.132 508.672C418.924 506.698 417.32 505.712 414.112 503.738C413.671 503.459 413.763 502.985 414.326 502.647C421.336 498.516 424.836 496.464 431.846 492.333C432.409 491.995 433.221 491.95 433.663 492.229C436.883 494.176 438.497 495.136 441.736 497.076C442.176 497.355 442.085 497.829 441.521 498.167L441.51 498.192Z" stroke="#0075FF" stroke-width="2" stroke-miterlimit="10"/>
<path d="M465.952 483.739C458.931 487.897 455.42 489.975 448.391 494.114C447.828 494.452 447.015 494.497 446.554 494.226C443.317 492.287 441.701 491.327 438.464 489.387C438.022 489.108 438.115 488.634 438.659 488.304C445.668 484.172 449.169 482.12 456.178 477.99C456.742 477.652 457.555 477.606 458.015 477.877C461.264 479.791 462.898 480.743 466.147 482.656C466.6 482.909 466.515 483.402 465.952 483.739Z" stroke="#0075FF" stroke-width="2" stroke-miterlimit="10"/>
<path d="M490.411 469.278C483.39 473.435 479.879 475.514 472.85 479.653C472.287 479.991 471.475 480.036 471.021 479.784C467.754 477.878 466.146 476.936 462.878 475.032C462.425 474.778 462.511 474.286 463.074 473.948C470.083 469.816 473.583 467.765 480.593 463.634C481.156 463.296 481.969 463.249 482.422 463.503C485.701 465.382 487.346 466.308 490.624 468.187C491.077 468.441 490.993 468.932 490.422 469.252L490.411 469.278Z" stroke="#0075FF" stroke-width="2" stroke-miterlimit="10"/>
<path d="M514.851 454.824C507.831 458.982 504.32 461.06 497.29 465.199C496.728 465.536 495.896 465.59 495.443 465.337C492.165 463.458 490.519 462.531 487.248 460.671C486.795 460.419 486.879 459.926 487.431 459.614C494.442 455.483 497.941 453.432 504.951 449.3C505.515 448.962 506.327 448.916 506.799 449.162C510.108 451.007 511.745 451.914 515.054 453.759C515.507 454.013 515.433 454.479 514.87 454.816L514.851 454.824Z" stroke="#0075FF" stroke-width="2" stroke-miterlimit="10"/>
<path d="M539.312 440.363C532.291 444.52 528.78 446.599 521.751 450.738C521.188 451.075 520.356 451.129 519.904 450.876C516.602 449.05 514.939 448.131 511.63 446.286C511.177 446.033 511.25 445.566 511.813 445.229C518.824 441.098 522.323 439.046 529.333 434.914C529.897 434.576 530.728 434.523 531.181 434.777C534.519 436.587 536.176 437.487 539.488 439.287C539.941 439.541 539.868 440.006 539.304 440.344L539.312 440.363Z" stroke="#0075FF" stroke-width="2" stroke-miterlimit="10"/>
<path d="M563.76 425.929C556.738 430.086 553.228 432.165 546.199 436.304C545.636 436.641 544.804 436.695 544.352 436.442C541.021 434.65 539.364 433.75 536.025 431.939C535.572 431.686 535.646 431.219 536.209 430.881C543.219 426.75 546.718 424.698 553.728 420.567C554.292 420.229 555.123 420.176 555.587 420.403C558.93 422.168 560.624 423.053 563.974 424.838C564.445 425.083 564.353 425.557 563.809 425.887L563.76 425.929Z" stroke="#0075FF" stroke-width="2" stroke-miterlimit="10"/>
<path d="M597.11 406.202C586.521 412.462 581.227 415.591 570.639 421.851C570.076 422.188 569.252 422.26 568.78 422.015C565.419 420.256 563.744 419.364 560.383 417.606C559.911 417.361 559.984 416.894 560.555 416.576C571.114 410.35 576.397 407.247 586.955 401.022C587.518 400.684 588.342 400.612 588.814 400.858C592.205 402.582 593.891 403.448 597.283 405.172C597.754 405.417 597.673 405.865 597.11 406.202Z" stroke="#0075FF" stroke-width="2" stroke-miterlimit="10"/>
<path d="M270.333 599.405C259.726 605.672 254.413 608.809 243.814 615.095C243.251 615.433 242.468 615.444 242.037 615.139C239.013 612.916 237.491 611.809 234.467 609.587C234.055 609.273 234.159 608.773 234.722 608.435C245.299 602.202 250.582 599.099 261.159 592.867C261.722 592.529 262.505 592.517 262.936 592.823C265.99 595.011 267.522 596.092 270.577 598.281C271.007 598.586 270.904 599.087 270.322 599.432L270.333 599.405Z" stroke="#0075FF" stroke-width="2" stroke-miterlimit="10"/>
<path d="M617.55 416.617C603.244 425.147 596.088 429.403 581.802 437.927C581.239 438.264 580.415 438.336 579.943 438.091C574.141 435.009 571.236 433.458 565.434 430.376C564.963 430.131 565.054 429.657 565.617 429.319C579.852 420.883 586.959 416.668 601.201 408.251C601.764 407.913 602.588 407.842 603.06 408.087C608.932 411.074 611.86 412.572 617.734 415.56C618.204 415.805 618.132 416.272 617.568 416.61L617.55 416.617Z" stroke="#0075FF" stroke-width="2" stroke-miterlimit="10"/>
<path d="M566.929 382L550.028 391.846C549.532 392.134 549.558 392.843 550.038 393.107L560.31 398.633C560.457 398.726 560.47 398.918 560.315 399.024L232.108 590.859C231.669 591.125 231.108 591.09 230.686 590.804L221.29 584.311C220.798 583.964 220.136 583.949 219.622 584.245L201.94 594.538C199.128 596.181 198.885 600.165 201.513 602.112L413.703 760.273C418.59 763.901 425.209 764.142 430.343 760.837L583.279 662.31C583.816 661.961 584.406 661.744 585.038 661.684C585.67 661.624 586.509 661.481 587.418 661.025L676.227 603.81C676.542 603.616 677.504 602.374 678.122 601.578C678.496 601.099 678.939 600.679 679.456 600.338L818.26 510.928C821.124 509.089 820.895 504.86 817.869 503.336L575.475 381.764C572.783 380.412 569.584 380.508 566.962 382.03L566.929 382Z" stroke="#0075FF" stroke-width="2" stroke-miterlimit="10"/>
<path d="M677.058 601.164L675.971 601.452C675.321 601.628 674.69 601.906 674.116 602.27L600.737 649.257" stroke="#0075FF" stroke-width="2" stroke-miterlimit="10"/>
<path d="M597.285 651.485L589.086 656.731" stroke="#0075FF" stroke-width="2" stroke-miterlimit="10"/>
<path d="M584.249 661.793L585.196 660.187" stroke="#0075FF" stroke-width="2" stroke-miterlimit="10"/>
</g>
</svg>
