<svg width="129" height="113" viewBox="0 0 129 113" fill="none" xmlns="http://www.w3.org/2000/svg">
<g id="Frame" clip-path="url(#clip0_105_49508)">
<path id="Vector" opacity="0.35" d="M6.19525 5.36274L3.07603 10.0259L3.23375 28.2132L127.229 27.1379L127.065 8.26685L119.904 3.20055L8.07801 4.1703L6.19525 5.36274Z" fill="#0075FF"/>
<path id="Vector_2" d="M84.4662 60.8462C83.0296 60.033 82.526 58.2082 83.341 56.7747C84.1561 55.3413 85.985 54.8388 87.4216 55.6519L107.475 67.0873C108.911 67.9004 109.415 69.7252 108.6 71.1587C108.325 71.6377 107.941 72.0135 107.493 72.2725L87.6678 84.0369C86.2455 84.8748 84.4115 84.4041 83.5683 82.985C82.7285 81.5659 83.2004 79.736 84.6227 78.8947L100.054 69.7359L84.4662 60.8462ZM13.3843 19.0935C11.7261 19.1078 10.3757 17.7771 10.3614 16.1259C10.3471 14.4748 11.6809 13.1241 13.3324 13.1097L20.5639 13.047C22.2222 13.0326 23.5758 14.3634 23.5901 16.0112C23.6045 17.6657 22.2707 19.0164 20.6158 19.0307L13.3843 19.0935ZM71.3231 51.4419C72.1551 50.015 73.9841 49.5259 75.4175 50.3559C76.8476 51.1859 77.3377 53.0108 76.5058 54.441L57.8547 86.3662C57.0228 87.7931 55.1938 88.2822 53.7604 87.4522C52.3303 86.6222 51.8402 84.7973 52.6721 83.367L71.3231 51.4419ZM6.20577 25.2741L122.207 24.2682L122.082 9.85087C122.073 8.84072 121.648 7.92144 120.969 7.25943C120.294 6.5974 119.369 6.18925 118.353 6.19805L9.74193 7.13992C8.72951 7.1487 7.80816 7.57286 7.14461 8.24651C6.48106 8.92015 6.0686 9.84334 6.07738 10.8568L6.20241 25.2742L6.20577 25.2741ZM122.262 30.2552L6.25769 31.2612L6.87557 102.512C6.88433 103.522 7.30941 104.442 7.98791 105.104C8.66304 105.766 9.58825 106.174 10.604 106.165L119.219 105.223C120.231 105.214 121.152 104.79 121.816 104.116C122.48 103.443 122.892 102.52 122.883 101.506L122.265 30.2552L122.262 30.2552ZM9.69004 1.1562L118.305 0.214305C120.972 0.191175 123.406 1.25748 125.174 2.99411C126.945 4.73071 128.056 7.13757 128.079 9.79886L128.874 101.458C128.897 104.119 127.828 106.545 126.087 108.312C124.347 110.079 121.931 111.187 119.267 111.21L10.6526 112.152C7.98532 112.175 5.5508 111.109 3.78321 109.372C2.0123 107.639 0.901535 105.229 0.878456 102.567L0.083601 10.9088C0.0605225 8.24753 1.12935 5.82177 2.86991 4.05472C4.61047 2.28767 7.02614 1.1793 9.69004 1.1562ZM41.5332 56.0532C42.9556 55.2153 44.7895 55.686 45.6327 57.1051C46.4725 58.5242 46.0006 60.3541 44.5783 61.1954L29.1474 70.3542L44.7348 79.2439C46.1715 80.0571 46.675 81.8819 45.86 83.3153C45.0449 84.7488 43.216 85.2513 41.7794 84.4382L21.7534 73.0194C21.3005 72.7682 20.9105 72.4024 20.6271 71.9249C19.7874 70.5058 20.2592 68.6759 21.6815 67.8346L41.5332 56.0532Z" fill="#0075FF"/>
</g>
<defs>
<clipPath id="clip0_105_49508">
<rect width="128" height="111" fill="white" transform="translate(-0.000244141 1.24023) rotate(-0.496851)"/>
</clipPath>
</defs>
</svg>
