<svg width="45" height="45" viewBox="0 0 45 45" fill="none" xmlns="http://www.w3.org/2000/svg">
<g id="Frame 28">
<g id="&#240;&#159;&#166;&#134; icon &#34;arrow right 1&#34;">
<g id="Group">
<path id="Vector" d="M35.4527 28.6448C35.1866 28.9109 34.8225 29.079 34.4024 29.079C33.5902 29.079 32.918 28.4068 32.918 27.5945L32.918 12.0783L17.4018 12.0783C16.5896 12.0783 15.9174 11.4062 15.9174 10.5939C15.9174 9.78171 16.5896 9.10953 17.4018 9.10953L34.4024 9.1095C35.2146 9.1095 35.8868 9.78169 35.8868 10.5939L35.8868 27.5945C35.8868 28.0147 35.7188 28.3788 35.4527 28.6448Z" fill="white"/>
<path id="Vector_2" d="M35.2159 11.8808L11.6474 35.4492C11.0733 36.0234 10.121 36.0234 9.54687 35.4492C8.97271 34.8751 8.97271 33.9228 9.54687 33.3486L33.1153 9.78021C33.6895 9.20605 34.6417 9.20605 35.2159 9.78021C35.79 10.3544 35.79 11.3066 35.2159 11.8808Z" fill="white"/>
</g>
</g>
</g>
</svg>
