<svg width="45" height="45" viewBox="0 0 45 45" fill="none" xmlns="http://www.w3.org/2000/svg">
<path d="M35.4527 28.6449C35.1866 28.911 34.8225 29.079 34.4024 29.079C33.5902 29.079 32.918 28.4068 32.918 27.5946L32.918 12.0784L17.4018 12.0784C16.5896 12.0784 15.9174 11.4062 15.9174 10.594C15.9174 9.78177 16.5896 9.10959 17.4018 9.10959L34.4024 9.10956C35.2146 9.10956 35.8868 9.78175 35.8868 10.594L35.8868 27.5946C35.8868 28.0147 35.7188 28.3788 35.4527 28.6449Z" fill="#0075FF"/>
<path d="M35.2159 11.8808L11.6474 35.4492C11.0733 36.0234 10.121 36.0234 9.54687 35.4492C8.97271 34.8751 8.97271 33.9228 9.54687 33.3486L33.1153 9.78021C33.6895 9.20605 34.6417 9.20605 35.2159 9.78021C35.79 10.3544 35.79 11.3066 35.2159 11.8808Z" fill="#0075FF"/>
</svg>
