<svg width="150" height="150" viewBox="0 0 150 150" fill="none" xmlns="http://www.w3.org/2000/svg">
<g id="Frame" clip-path="url(#clip0_105_47756)">
<path id="Vector" opacity="0.26" d="M74.9986 144.054C113.137 144.054 144.054 113.137 144.054 74.9986C144.054 36.8601 113.137 5.94275 74.9986 5.94275C36.8601 5.94275 5.94275 36.8601 5.94275 74.9986C5.94275 113.137 36.8601 144.054 74.9986 144.054Z" fill="#0075FF"/>
<g id="Group">
<path id="Vector_2" d="M74.9986 150C55.1075 150 36.0307 142.097 21.9653 128.035C7.9027 113.966 0 94.8896 0 74.9986C0 55.1075 7.9027 36.0307 21.9653 21.9653C36.0307 7.90271 55.1075 0 74.9986 0C94.8896 0 113.966 7.90271 128.032 21.9653C142.097 36.0307 149.997 55.1075 149.997 74.9986C149.997 88.164 146.531 101.095 139.949 112.498C133.366 123.9 123.898 133.366 112.498 139.949C101.098 146.531 88.164 149.997 74.9986 150ZM74.9986 10.0027C57.7589 10.0027 41.2278 16.8511 29.0366 29.0394C16.8482 41.2278 9.99981 57.7618 9.99981 75.0014C9.99981 92.2411 16.8482 108.772 29.0366 120.963C41.2249 133.152 57.7589 140 74.9986 140C92.2382 140 108.769 133.152 120.961 120.963C133.149 108.775 139.997 92.2411 139.997 75.0014C139.997 57.7618 133.149 41.2306 120.961 29.0394C108.772 16.8483 92.2382 10.0027 74.9986 10.0027Z" fill="#0075FF"/>
<path id="Vector_3" d="M69.9986 95.0011C68.673 95.0011 67.4015 94.4754 66.4616 93.5382C65.5216 92.6011 64.9987 91.3297 64.9987 90.0012V85.0013C64.9987 81.0213 66.5787 77.2071 69.3929 74.3958C72.2072 71.5844 76.0214 70.0015 79.9984 70.0015H84.9984C86.324 70.0015 87.5954 69.4758 88.5354 68.5387C89.4754 67.6016 89.9983 66.3302 89.9983 65.0016V50.0019C89.9983 48.6762 89.4726 47.4048 88.5354 46.4649C87.5983 45.5277 86.3269 45.002 84.9984 45.002H64.9987C63.673 45.002 62.4016 45.5277 61.4617 46.4649C60.5245 47.402 59.9988 48.6734 59.9988 50.0019V55.0018C59.9988 56.7875 59.0446 58.4389 57.4989 59.3332C55.9532 60.2274 54.0447 60.2246 52.499 59.3332C50.9533 58.4418 49.999 56.7904 49.999 55.0018V50.0019C49.999 46.022 51.579 42.2078 54.3932 39.3964C57.2075 36.585 61.0217 35.0051 64.9987 35.0051H84.9984C88.9783 35.0051 92.7925 36.585 95.6039 39.3964C98.4152 42.2106 99.9981 46.0249 99.9981 50.0019V65.0016C99.9981 68.9816 98.4181 72.7958 95.6039 75.6072C92.7896 78.4185 88.9754 80.0014 84.9984 80.0014H79.9984C78.6728 80.0014 77.4014 80.5271 76.4614 81.4642C75.5214 82.4013 74.9985 83.6727 74.9985 85.0013V90.0012C74.9985 91.3269 74.4728 92.5983 73.5357 93.5382C72.5986 94.4782 71.3243 95.0011 69.9986 95.0011Z" fill="#0075FF"/>
<path id="Vector_4" d="M74.9986 110.001C74.9986 112.761 72.7586 115.001 69.9987 115.001C67.2387 115.001 64.9988 112.761 64.9988 110.001C64.9988 107.241 67.2387 105.001 69.9987 105.001C72.7586 105.001 74.9986 107.238 74.9986 110.001Z" fill="#0075FF"/>
</g>
</g>
<defs>
<clipPath id="clip0_105_47756">
<rect width="150" height="150" fill="white"/>
</clipPath>
</defs>
</svg>
