<svg width="116" height="116" viewBox="0 0 116 116" fill="none" xmlns="http://www.w3.org/2000/svg">
<g id="Group 3047">
<path id="Vector" d="M58 116C26.0193 116 0 89.9807 0 58C0 26.0193 26.0193 0 58 0C89.9807 0 116 26.0193 116 58C116 89.9807 89.9807 116 58 116ZM58 4.93654C28.7405 4.93654 4.93654 28.7405 4.93654 58C4.93654 87.2595 28.7427 111.063 58 111.063C87.2573 111.063 111.063 87.2595 111.063 58C111.063 28.7405 87.2573 4.93654 58 4.93654Z" fill="#0075FF"/>
<path id="Vector_2" d="M41.3414 77.1269C40.7103 77.1269 40.0783 76.8859 39.5962 76.4038C38.632 75.4405 38.632 73.8775 39.5962 72.9133L55.5331 56.9764L55.5322 22.5209C55.5322 21.1582 56.6369 20.0527 58.0005 20.0527C59.3633 20.0527 60.4688 21.1574 60.4688 22.5209V57.9991C60.4688 58.6532 60.2082 59.2809 59.7457 59.7443L43.0857 76.4034C42.6036 76.8854 41.9725 77.1265 41.3413 77.1265L41.3414 77.1269Z" fill="#0075FF"/>
</g>
</svg>
