<svg width="140" height="106" viewBox="0 0 140 106" fill="none" xmlns="http://www.w3.org/2000/svg">
<g id="Group 3048">
<path id="Vector" d="M122.492 28.9669C122.492 29.6333 122.46 30.2996 122.412 30.966C122.38 31.3309 122.349 31.6958 122.301 32.0607C122.285 32.1559 122.238 32.5367 122.301 32.0766C122.269 32.2987 122.238 32.505 122.206 32.7271C121.984 34.0282 121.682 35.3133 121.27 36.5666C121.079 37.1695 120.857 37.7724 120.619 38.3595C120.461 38.7403 120.857 37.8518 120.572 38.4706C120.508 38.5975 120.461 38.7244 120.397 38.8513C120.254 39.1687 120.096 39.486 119.937 39.7875C119.334 40.9616 118.652 42.1039 117.89 43.1668C117.732 43.3889 117.573 43.6111 117.398 43.8332C117.668 43.4683 117.398 43.8332 117.319 43.9284C117.208 44.0553 117.097 44.1981 116.986 44.3251C116.558 44.8328 116.129 45.3246 115.669 45.7847C115.257 46.2131 114.844 46.6098 114.4 47.0064C114.146 47.2444 113.876 47.4665 113.622 47.6887C113.511 47.7839 113.416 47.8632 113.305 47.9584C113.273 47.9901 112.734 48.4026 113.13 48.1012C112.083 48.8945 110.973 49.6243 109.814 50.259C109.259 50.5604 108.704 50.846 108.133 51.0999C108.006 51.1633 107.308 51.4489 107.736 51.2744C107.403 51.4013 107.085 51.5282 106.752 51.6552C105.483 52.1153 104.182 52.4802 102.849 52.7499C102.532 52.8134 102.215 52.8769 101.897 52.9245C101.723 52.9562 101.532 52.9879 101.358 53.0038C101.453 52.9879 101.818 52.9562 101.342 53.0038C100.644 53.0831 99.9616 53.1307 99.2634 53.1625C97.899 53.21 96.5345 53.1307 95.1701 53.0038C94.472 52.9403 95.4715 53.0514 95.0431 52.9879C94.8686 52.9562 94.6782 52.9403 94.5037 52.9086C94.2181 52.861 93.9325 52.8134 93.6469 52.7499C92.9488 52.6071 92.2507 52.4485 91.5685 52.2422C90.9497 52.0677 90.3468 51.8773 89.7597 51.6552C89.49 51.56 89.2361 51.4489 88.9664 51.3537C88.3317 51.1157 89.2361 51.4806 88.8553 51.3061C88.6649 51.2268 88.4745 51.1316 88.2841 51.0523C87.11 50.5128 85.9835 49.8781 84.9048 49.1801C84.3812 48.831 83.8735 48.482 83.3816 48.1011C83.7624 48.3867 83.0802 47.8473 82.9691 47.768C82.6835 47.53 82.3821 47.2761 82.1123 47.0223C81.1604 46.1655 80.2719 45.2453 79.4627 44.2616C79.3834 44.1505 78.8439 43.4683 79.1295 43.849C78.955 43.6269 78.7963 43.4048 78.6377 43.1827C78.241 42.6115 77.8602 42.0403 77.4953 41.4374C77.178 40.8979 76.8765 40.3585 76.5909 39.7873C76.4482 39.5017 76.3054 39.2161 76.1784 38.9464C76.0991 38.7878 76.0356 38.6291 75.9563 38.4704C75.75 38.0103 76.0674 38.7878 75.877 38.2642C75.4169 37.0742 75.0202 35.8684 74.7187 34.631C74.5601 33.9963 74.4331 33.3617 74.3379 32.727C74.3062 32.5525 74.2745 32.3621 74.2586 32.1876C74.1951 31.775 74.3062 32.7588 74.2427 32.0606C74.211 31.6957 74.1634 31.3308 74.1317 30.9659C74.0365 29.6014 74.0365 28.2369 74.1476 26.8725C74.1793 26.5394 74.211 26.222 74.2427 25.8888C74.2903 25.4129 74.2586 25.7778 74.2427 25.873C74.2745 25.6984 74.2903 25.5081 74.3221 25.3335C74.4331 24.6671 74.5601 23.9849 74.7187 23.3344C75.0361 22.0334 75.4486 20.7482 75.9563 19.4949C75.7818 19.9233 76.0673 19.241 76.1308 19.0982C76.2736 18.7809 76.4323 18.4636 76.5909 18.1621C76.8924 17.5751 77.2097 16.988 77.5587 16.4327C77.8761 15.8933 78.2251 15.3697 78.59 14.862C78.7646 14.6081 78.955 14.3543 79.1454 14.1004C78.8598 14.4812 79.4468 13.7196 79.542 13.6086C80.3829 12.5931 81.3032 11.657 82.2869 10.7844C82.4931 10.594 82.6994 10.4195 82.9215 10.2449C83.0484 10.1339 83.1912 10.0228 83.3182 9.91175C83.4134 9.83242 83.7783 9.5627 83.4134 9.83242C83.9052 9.45163 84.4129 9.10258 84.9365 8.7535C86.0471 8.02367 87.2054 7.38902 88.4113 6.8337C88.5382 6.77024 88.6652 6.72264 88.7921 6.65917C89.4109 6.37358 88.5224 6.77024 88.9032 6.61158C89.2046 6.50051 89.4902 6.37358 89.7917 6.26253C90.458 6.02454 91.1244 5.80242 91.8067 5.61201C92.3937 5.45335 92.9808 5.31054 93.5837 5.18362C93.901 5.12015 94.2183 5.05669 94.5356 5.00909C94.6784 4.99322 94.8212 4.96149 94.964 4.94563C95.5352 4.85043 94.6625 4.96149 95.202 4.91389C96.5982 4.7711 97.9944 4.70763 99.4065 4.75523C100.073 4.78697 100.723 4.85043 101.374 4.91389C101.469 4.92976 101.85 4.97736 101.39 4.91389C101.533 4.92976 101.675 4.96149 101.818 4.97736C102.215 5.04082 102.596 5.10429 102.992 5.18362C104.277 5.45334 105.547 5.80239 106.784 6.26253C107.117 6.38946 107.435 6.51639 107.768 6.64332C107.308 6.45292 108.069 6.77025 108.164 6.81784C108.799 7.10343 109.418 7.42075 110.037 7.7698C110.576 8.07126 111.116 8.40444 111.639 8.73762C111.877 8.89628 112.099 9.03909 112.321 9.19773C112.464 9.29293 112.607 9.40399 112.75 9.49919C112.813 9.54679 113.305 9.91172 113.083 9.75305C112.813 9.54679 113.353 9.95931 113.337 9.95931C113.448 10.0386 113.559 10.1338 113.654 10.229C113.892 10.4353 114.13 10.6257 114.352 10.8478C114.844 11.2921 115.32 11.7363 115.764 12.2123C116.193 12.6565 116.605 13.1167 117.018 13.6085C117.113 13.7196 117.192 13.8148 117.287 13.9258C117.272 13.91 117.7 14.4494 117.494 14.1797C117.287 13.91 117.7 14.4494 117.684 14.4336C117.811 14.6081 117.922 14.7667 118.049 14.9413C118.763 15.9726 119.414 17.0356 119.985 18.1622C120.143 18.4796 120.302 18.781 120.445 19.0983C120.508 19.2411 120.794 19.9234 120.619 19.495C120.889 20.1455 121.127 20.8119 121.349 21.4783C121.746 22.7317 122.063 24.0327 122.269 25.3337C122.301 25.5082 122.333 25.6986 122.349 25.8732C122.333 25.778 122.301 25.4131 122.349 25.889C122.381 26.2222 122.412 26.5395 122.444 26.8727C122.46 27.555 122.492 28.2529 122.492 28.9669C122.492 30.2044 123.586 31.4105 124.872 31.347C126.157 31.2835 127.251 30.2998 127.251 28.9671C127.22 23.0332 125.427 17.0993 121.952 12.276C118.462 7.40509 113.654 3.73996 108.037 1.67747C96.8201 -2.41588 83.6354 1.16975 76.0513 10.3878C72.2118 15.0684 69.8952 20.7009 69.4034 26.7459C68.9116 32.7274 70.3871 38.8835 73.5127 44.0082C76.4955 48.8951 80.9697 52.9408 86.2056 55.2891C91.854 57.8277 98.0734 58.5417 104.15 57.3358C115.685 55.0352 125.094 45.2934 126.87 33.6478C127.108 32.0929 127.251 30.538 127.267 28.9513C127.267 27.7138 126.172 26.5079 124.887 26.5714C123.586 26.6349 122.507 27.6344 122.491 28.9672L122.492 28.9669Z" fill="#0075FF"/>
<path id="Vector_2" d="M53.8394 41.947C53.8394 42.5658 53.8076 43.2004 53.76 43.8192C53.7442 44.0889 53.7124 44.3428 53.6807 44.6125C53.7124 44.2952 53.6648 44.7394 53.649 44.7553C53.6172 44.9298 53.5855 45.1043 53.5538 45.2789C53.3317 46.5006 52.9985 47.7223 52.5701 48.8964C52.348 49.4993 52.3004 49.6104 52.0782 50.0864C51.8085 50.6576 51.507 51.2129 51.1897 51.7682C50.8883 52.2759 50.571 52.7678 50.2378 53.2596C49.8411 53.8308 49.7936 53.8943 49.4127 54.3544C48.6829 55.227 47.8737 56.0521 47.017 56.8137C46.8424 56.9723 46.652 57.1151 46.4775 57.2738C46.3506 57.3689 46.2395 57.48 46.1126 57.5752C46.1602 57.5435 46.3347 57.4007 46.1284 57.5594C45.6525 57.9084 45.1606 58.2416 44.6529 58.5589C42.6379 59.8123 41.1465 60.447 38.8142 61.0023C38.2588 61.1451 37.6877 61.2403 37.1324 61.3355C37.0848 61.3514 36.6722 61.399 37.0213 61.3514C36.8944 61.3672 36.7674 61.3831 36.6564 61.399C36.3232 61.4307 35.99 61.4624 35.6568 61.4783C34.4827 61.5576 33.2928 61.5259 32.1188 61.4148C32.0236 61.399 31.262 61.3038 31.6428 61.3672C31.3572 61.3196 31.0716 61.272 30.786 61.2244C30.2307 61.1134 29.6595 60.9864 29.1201 60.8436C28.5806 60.7008 28.0412 60.5263 27.5017 60.3359C27.232 60.2407 26.9781 60.1455 26.7084 60.0345C26.7084 60.0345 26.3435 59.8758 26.5498 59.971C26.7401 60.0503 26.169 59.7965 26.169 59.7965C22.1072 57.8925 19.0609 55.0367 16.9509 51.1177C15.9037 49.1662 15.2056 47.056 14.8407 44.6445C14.7772 44.2161 14.8724 44.9301 14.8248 44.4858C14.809 44.3589 14.7931 44.2161 14.7772 44.0892C14.7455 43.7718 14.7296 43.4704 14.7138 43.153C14.682 42.5343 14.6662 41.8996 14.6979 41.2808C14.7138 40.8049 14.7455 40.3289 14.7931 39.8529C14.809 39.7101 14.8883 39.0596 14.8248 39.5197C14.8566 39.2341 14.9042 38.9485 14.9676 38.6629C15.1421 37.6793 15.396 36.7114 15.6975 35.7753C15.8561 35.2993 16.0306 34.8551 16.2052 34.395C16.221 34.3632 16.348 34.0459 16.2528 34.2839C16.1417 34.5536 16.3162 34.1411 16.348 34.0935C16.459 33.8397 16.586 33.5858 16.7129 33.3319C17.1413 32.4593 17.649 31.6184 18.1884 30.8251C18.3312 30.6188 18.4581 30.4284 18.601 30.2381C18.6803 30.127 18.9817 29.7462 18.7279 30.0635C19.0452 29.651 19.3784 29.2702 19.7274 28.8736C20.3938 28.1279 21.1237 27.4456 21.8852 26.7951C22.0439 26.6682 22.2026 26.5254 22.3612 26.3984C22.0122 26.684 22.504 26.2874 22.6309 26.208C23.0593 25.9066 23.4877 25.621 23.9161 25.3354C24.7411 24.8277 25.6138 24.3835 26.4864 23.9709C26.5182 23.9551 26.8355 23.8123 26.5816 23.9233C26.3119 24.0344 26.7244 23.8599 26.7879 23.844C27.01 23.7488 27.248 23.6695 27.4701 23.5901C27.9302 23.4156 28.4062 23.2728 28.8822 23.13C29.3582 22.9872 29.85 22.8762 30.326 22.7651C30.564 22.7175 30.8179 22.6699 31.0718 22.6223C31.1828 22.6065 31.278 22.5906 31.3891 22.5747C31.4526 22.5589 32.0237 22.4954 31.7223 22.5271C31.4843 22.5589 32.0713 22.4954 32.1665 22.4795C32.4204 22.4478 32.6742 22.4319 32.9281 22.4161C33.4834 22.3843 34.0387 22.3685 34.594 22.3843C35.07 22.3843 35.546 22.4161 36.022 22.4478C36.2758 22.4637 36.5297 22.4954 36.7836 22.5271C37.1643 22.5589 36.4186 22.4637 36.7994 22.5271C36.9422 22.543 37.085 22.5747 37.2278 22.5906C38.2433 22.7651 39.2587 23.0031 40.2425 23.3046C40.6709 23.4474 41.1151 23.5901 41.5435 23.7647C41.6704 23.8123 42.2734 24.0661 41.845 23.8916C42.0988 24.0027 42.3527 24.1137 42.6066 24.2406C43.4792 24.669 44.336 25.145 45.1451 25.6845C45.5418 25.9542 45.9385 26.2239 46.3351 26.5254C46.0178 26.2874 46.3827 26.573 46.5096 26.6682C46.7159 26.8427 46.938 27.0172 47.1443 27.2076C47.89 27.874 48.604 28.588 49.2545 29.3337C49.4131 29.5241 49.5559 29.6986 49.7146 29.889C50.0002 30.238 49.5877 29.6986 49.8574 30.0635C50.1588 30.4919 50.4603 30.9044 50.7459 31.3487C51.2695 32.1737 51.7454 33.0146 52.158 33.9031C52.2214 34.0301 52.4753 34.6012 52.3008 34.2046C52.396 34.4267 52.4912 34.6647 52.5705 34.8868C52.7609 35.3787 52.9195 35.8864 53.0782 36.3941C53.3638 37.3619 53.5701 38.3298 53.7287 39.3293C53.7287 39.361 53.7763 39.7101 53.7446 39.4404C53.7129 39.1389 53.7605 39.599 53.7605 39.6625C53.7763 39.8846 53.808 40.0909 53.8239 40.313C53.8239 40.8366 53.8398 41.3919 53.8398 41.9472C53.8398 43.1848 54.9345 44.3906 56.2197 44.3271C57.5049 44.2636 58.5996 43.28 58.5996 41.9472C58.552 32.7132 53.1575 23.9073 44.7326 19.9884C36.0062 15.9266 25.6932 17.307 18.3473 23.5583C10.8743 29.9364 7.97073 40.789 11.3185 50.0388C14.9836 60.1931 25.1695 67.0789 36.0379 66.2065C41.4165 65.7781 46.446 63.652 50.4918 60.0823C54.49 56.5442 57.3144 51.5622 58.2027 46.2947C58.4407 44.8509 58.5835 43.4071 58.5994 41.9475C58.5994 40.71 57.5046 39.5041 56.2195 39.5676C54.9184 39.6152 53.8554 40.6148 53.8395 41.9475L53.8394 41.947Z" fill="#0075FF"/>
<path id="Vector_3" d="M134.471 87.2121V95.5418V99.4449V99.6987C134.502 100.222 134.598 99.4766 134.455 99.9208C134.407 100.048 134.375 100.191 134.328 100.318C134.502 99.8415 134.264 100.381 134.201 100.476C134.439 100.095 134.233 100.444 134.122 100.54C134.074 100.587 133.741 100.857 133.979 100.682C134.249 100.476 133.693 100.825 133.709 100.825C134.122 100.73 133.804 100.762 133.709 100.825C133.566 100.857 133.439 100.905 133.297 100.92C133.741 100.825 133.392 100.905 133.281 100.889H133.265C130.203 100.778 127.125 100.889 124.078 100.889H103.817H81.4778H65.8337C64.977 100.889 64.1361 100.873 63.2793 100.889C63.2 100.889 63.0254 100.873 63.0413 100.873C63.5014 100.889 62.8351 100.809 62.6447 100.746C63.0889 100.92 62.6764 100.746 62.5653 100.667C62.8192 100.92 62.2797 100.444 62.5653 100.667C62.4384 100.555 62.3273 100.429 62.2163 100.302C62.4701 100.619 62.2163 100.254 62.1369 100.111C62.3591 100.508 62.0735 99.8574 62.0418 99.6987C62.1211 100.143 62.0576 99.7939 62.0735 99.667V99.3338V95.2405C62.0735 92.3687 62.0259 89.4969 62.0735 86.6252C62.1369 83.3091 62.724 80.2153 63.8822 77.0103C63.9774 76.7247 64.0885 76.4549 64.1996 76.1852C64.1837 76.2169 64.4693 75.5506 64.3265 75.852C64.1996 76.1535 64.4852 75.4871 64.4693 75.5189C64.739 74.916 65.0246 74.313 65.3419 73.726C65.9607 72.5519 66.643 71.4254 67.3887 70.3466C67.579 70.0769 67.7694 69.8072 67.9599 69.5533C68.0233 69.474 68.3089 69.0932 68.055 69.4264C68.1502 69.3153 68.2296 69.2043 68.3248 69.0773C68.7532 68.5379 69.2133 68.0143 69.6734 67.5066C70.5619 66.5387 71.498 65.6344 72.4976 64.7776C72.7514 64.5714 73.0053 64.3651 73.2591 64.1588C73.3226 64.1112 73.6082 63.8732 73.2909 64.1271C73.4019 64.0319 73.5289 63.9526 73.6399 63.8574C74.2269 63.429 74.8299 63.0006 75.4487 62.604C76.5593 61.89 77.7175 61.2395 78.9075 60.6842C79.1772 60.5572 79.447 60.4303 79.7167 60.3192C79.8595 60.2558 79.9864 60.1923 80.1292 60.1447C79.7326 60.3192 80.1768 60.1288 80.272 60.0812C80.9225 59.8274 81.5889 59.5894 82.2711 59.3673C83.5563 58.9548 84.8732 58.6216 86.2058 58.3836C86.539 58.3201 86.888 58.2725 87.2212 58.2091C87.2847 58.1932 87.7607 58.1297 87.4751 58.1773C87.126 58.2249 87.8876 58.1297 87.84 58.1297C88.5381 58.0504 89.2204 58.0028 89.9185 57.9711C90.5055 57.9393 91.0926 57.9393 91.6796 57.9393H101.247H104.944C105.689 57.9393 106.419 57.9552 107.165 58.0028C107.816 58.0504 108.466 58.1139 109.117 58.1773C108.704 58.1297 109.085 58.1773 109.164 58.1773L109.735 58.2725C110.116 58.336 110.481 58.3995 110.862 58.4788C112.226 58.7485 113.559 59.1134 114.876 59.5735C115.162 59.6687 115.431 59.7639 115.717 59.875C115.86 59.9226 115.987 59.9861 116.129 60.0337C116.098 60.0178 116.764 60.2875 116.463 60.1606C116.209 60.0495 116.637 60.2399 116.685 60.2558C116.859 60.3351 117.018 60.3986 117.192 60.4779C117.526 60.6366 117.859 60.7953 118.192 60.9539C119.366 61.5409 120.508 62.2073 121.603 62.953C122.143 63.3179 122.682 63.6987 123.206 64.0954C122.841 63.8257 123.507 64.3492 123.587 64.3968C123.872 64.6348 124.142 64.857 124.412 65.1108C125.395 65.9834 126.331 66.9037 127.188 67.8874C127.617 68.3792 128.045 68.8869 128.442 69.3947C128.188 69.0773 128.648 69.6644 128.727 69.7913C128.965 70.1087 129.187 70.4418 129.409 70.775C130.139 71.8698 130.806 73.0121 131.409 74.1863C131.694 74.7416 131.948 75.3128 132.202 75.884C132.027 75.4873 132.376 76.3441 132.424 76.4393C132.583 76.8359 132.725 77.2485 132.852 77.6451C133.979 80.8977 134.455 83.8804 134.471 87.2125C134.471 88.4501 135.565 89.6559 136.851 89.5924C138.136 89.5289 139.231 88.5452 139.231 87.2125C139.167 74.6943 132.138 62.8738 121 57.0658C116.098 54.5113 110.64 53.1944 105.118 53.1787H95.8684C92.2828 53.1787 88.7444 53.1152 85.1904 53.7499C79.4468 54.7653 74.0842 57.3674 69.5939 61.0642C65.1356 64.7293 61.756 69.5683 59.6299 74.9153C57.8053 79.5163 57.3293 84.3396 57.3293 89.2584V99.254C57.3293 101.65 58.3924 103.951 60.6295 105.029C61.5815 105.489 62.5969 105.664 63.6598 105.664H75.7499H97.8196H120.08H132.757C133.312 105.664 133.82 105.632 134.375 105.553C137.294 105.109 139.23 102.395 139.262 99.5554C139.294 96.382 139.262 93.2089 139.262 90.0358V87.2275C139.262 85.99 138.167 84.7841 136.882 84.8476C135.565 84.8793 134.47 85.8789 134.47 87.2117L134.471 87.2121Z" fill="#0075FF"/>
<path id="Vector_4" d="M63.0422 100.874C61.2969 100.937 59.5357 100.89 57.7904 100.89H45.4781H15.6969H6.82785H5.93935H5.74895H5.71722C5.65375 100.89 4.54312 100.842 5.4951 100.89C6.12974 100.922 4.93977 100.636 5.4951 100.906C5.41576 100.874 4.87632 100.509 5.3047 100.842C5.14604 100.715 5.00323 100.573 4.8763 100.414C5.20948 100.826 4.84457 100.287 4.81284 100.224C5.03496 100.699 4.81284 100.112 4.79697 100.017C4.89217 100.477 4.81284 100.097 4.81284 99.9538V99.5413V96.3838C4.81284 94.115 4.73351 91.8144 4.95564 89.5456C4.9715 89.3235 5.00323 89.1172 5.03497 88.8951C4.9715 89.4504 5.0667 88.7365 5.0667 88.673C5.13017 88.2446 5.2095 87.8162 5.28883 87.4037C5.47922 86.4993 5.70135 85.595 5.97108 84.7064C6.22494 83.8973 6.51053 83.104 6.82784 82.3107C7.0817 81.6601 6.62158 82.7391 6.92304 82.1044C7.01824 81.914 7.09756 81.7236 7.1769 81.5332C7.38316 81.089 7.60529 80.6606 7.82741 80.2163C8.22407 79.4865 8.65247 78.7566 9.0967 78.0585C9.31883 77.7095 9.55681 77.3604 9.7948 77.0272C9.92173 76.8527 10.0487 76.694 10.1597 76.5195C10.3184 76.2974 10.3342 76.2974 10.1597 76.5036C10.239 76.3926 10.3342 76.2815 10.4136 76.1863C11.4607 74.9011 12.619 73.6953 13.8724 72.6007C14.1898 72.3309 14.5071 72.0612 14.8244 71.8074C15.348 71.379 14.4436 72.0771 14.9989 71.6646C15.1734 71.5376 15.3321 71.4107 15.5066 71.2996C16.2365 70.776 16.998 70.2842 17.7755 69.8241C18.5053 69.3957 19.2351 69.0149 19.9967 68.65C20.1871 68.5548 20.3775 68.4755 20.5679 68.3961C21.2026 68.1106 20.1237 68.5707 20.7742 68.3009C21.2343 68.1264 21.6944 67.936 22.1545 67.7774C23.8522 67.1903 25.5815 66.7778 27.3588 66.5081C28.0727 66.397 26.8669 66.5557 27.5967 66.4763C27.8189 66.4605 28.0251 66.4287 28.2473 66.4129C28.6915 66.3653 29.1199 66.3494 29.5642 66.3177C30.0877 66.2859 30.5955 66.2859 31.1191 66.2859H37.2908C37.7192 66.2859 38.1476 66.2859 38.576 66.3018C39.0679 66.3177 39.5597 66.3494 40.0515 66.397C40.2895 66.4129 40.5434 66.4446 40.7814 66.4763C40.94 66.4922 41.0987 66.5081 41.2574 66.5398C41.0194 66.5081 41.0511 66.5081 41.3525 66.5557C43.3199 66.8889 45.2396 67.3649 47.0961 68.0788C47.7942 68.3485 48.3813 68.6024 49.3174 69.0784C50.2217 69.5385 51.0944 70.0462 51.9353 70.6015C53.5536 71.6646 54.6325 72.5372 56.1081 74.0285C56.7586 74.679 57.3774 75.3771 57.9644 76.0911C57.9803 76.1069 58.4404 76.694 58.1707 76.3291C58.3135 76.5194 58.4563 76.694 58.5832 76.8844C58.853 77.2652 59.1227 77.646 59.3765 78.0267C59.2972 77.408 59.2179 76.8051 59.1386 76.1863C57.9486 79.6292 57.3298 83.2943 57.2981 86.9435C57.2822 87.9589 57.2981 88.9585 57.2981 89.9738C57.2981 93.1472 57.2822 96.3043 57.2981 99.4777C57.3139 102.857 59.678 105.364 63.0257 105.665C64.2632 105.776 65.4532 104.491 65.4056 103.286C65.3739 101.873 64.3743 101.001 63.0415 100.874C63.5017 100.921 62.8988 100.826 62.7401 100.779C62.391 100.668 63.0733 100.921 62.7401 100.763C62.6449 100.715 62.5656 100.652 62.4704 100.604C62.8511 100.842 62.2958 100.43 62.2006 100.303C62.5497 100.715 62.0102 99.7791 62.2006 100.303C62.153 100.176 62.1213 100.033 62.0737 99.906C62.0578 99.8584 62.0261 99.5411 62.042 99.8108C62.0578 100.065 62.0578 99.7949 62.0578 99.6839V99.4459V96.4155V88.0699C62.0578 86.7054 62.0896 85.3567 62.2165 84.0081C62.3434 82.7864 62.5814 81.4695 62.9146 80.1367C63.0733 79.5021 63.2478 78.8674 63.4541 78.2328C63.581 77.852 63.7079 77.5029 63.7555 77.1222C63.8507 76.3923 63.6127 75.8053 63.2161 75.2182C60.4712 71.1725 56.822 67.7612 52.5381 65.3813C48.1273 62.9379 43.1294 61.6051 38.0682 61.5259C35.7358 61.4783 33.4036 61.5259 31.0872 61.5259C22.5352 61.5259 14.1898 65.0323 8.33515 71.3152C5.28886 74.5837 2.98818 78.4708 1.57615 82.7072C0.417916 86.166 0.0212577 89.7836 0.0212577 93.4168V97.8116C0.0212577 98.9698 -0.0898038 100.223 0.195785 101.366C0.81456 103.904 3.13097 105.586 5.6855 105.65H6.28841H16.7917H34.6253H52.3002H62.3434C62.5656 105.65 62.7877 105.65 63.0098 105.634C64.2474 105.586 65.4532 104.571 65.3897 103.254C65.3739 102 64.3743 100.826 63.0415 100.874L63.0422 100.874Z" fill="#0075FF"/>
</g>
</svg>
