<svg width="278" height="342" viewBox="0 0 278 342" fill="none" xmlns="http://www.w3.org/2000/svg">
<path d="M64.1493 82.5756C74.0726 80.8031 81.8694 72.2992 81.8694 61.6665C81.8694 49.9712 72.2999 40.4011 60.604 40.4011C48.9081 40.4011 39.3386 49.9706 39.3386 61.6665C39.3386 71.9429 46.7823 80.803 57.0587 82.5756L57.0612 133.963L96.3998 167.278V341.998H103.487V163.734L64.1486 130.419L64.1493 82.5756ZM46.4292 62.0203C46.4292 54.2234 52.8072 47.8455 60.604 47.8455C68.4009 47.8455 74.7788 54.2234 74.7788 62.0203C74.7788 69.8171 68.4009 76.1951 60.604 76.1951C52.8097 76.1951 46.4292 69.8171 46.4292 62.0203Z" fill="#0075FF"/>
<path d="M220.795 42.1745C230.718 40.402 238.515 31.8981 238.515 21.2654C238.515 9.57012 228.946 0 217.25 0C205.555 0 195.984 9.56949 195.984 21.2654C195.984 31.5418 203.428 40.4018 213.705 42.1745L213.707 130.421L174.368 163.735V341.999H181.456V167.279L220.794 133.965L220.795 42.1745ZM203.431 21.2654C203.431 13.4685 209.809 7.09057 217.606 7.09057C225.402 7.09057 231.78 13.4685 231.78 21.2654C231.78 29.0622 225.402 35.4402 217.606 35.4402C209.809 35.4402 203.431 29.0597 203.431 21.2654Z" fill="#0075FF"/>
<path d="M138.928 110.928C127.233 110.928 117.663 120.497 117.663 132.193C117.663 142.47 125.107 151.33 135.383 153.102V341.999H142.47L142.473 153.102C152.396 151.33 160.193 142.826 160.193 132.193C160.193 120.498 150.623 110.93 138.928 110.93L138.928 110.928ZM138.928 146.368C131.131 146.368 124.753 139.99 124.753 132.193C124.753 124.396 131.131 118.018 138.928 118.018C146.725 118.018 153.103 124.396 153.103 132.193C153.103 139.987 146.725 146.368 138.928 146.368Z" fill="#0075FF"/>
<path d="M42.5308 165.506C42.5308 153.81 32.9613 144.24 21.2654 144.24C9.56949 144.24 0 153.81 0 165.506C0 177.201 9.56949 186.771 21.2654 186.771C25.8734 186.771 30.1254 185.355 33.6707 182.519L56.7056 200.239V342H63.793V196.695L38.6292 177.559C41.1137 174.014 42.5302 169.759 42.5302 165.507L42.5308 165.506ZM21.2654 179.681C13.4685 179.681 7.09057 173.303 7.09057 165.506C7.09057 157.709 13.4685 151.331 21.2654 151.331C29.0622 151.331 35.4402 157.709 35.4402 165.506C35.4427 173.303 29.0622 179.681 21.2654 179.681Z" fill="#0075FF"/>
<path d="M256.59 181.454C244.894 181.454 235.324 191.023 235.324 202.719C235.324 206.971 236.741 211.225 238.869 214.414L213.706 233.551V341.998H220.793V237.095L243.828 219.375C247.373 221.857 251.625 223.627 256.233 223.627C267.928 223.627 277.499 214.057 277.499 202.361C277.499 190.668 267.929 181.452 256.59 181.452L256.59 181.454ZM256.59 216.54C248.793 216.54 242.415 210.162 242.415 202.365C242.415 194.569 248.793 188.191 256.59 188.191C264.387 188.191 270.765 194.569 270.765 202.365C270.765 210.16 264.03 216.54 256.59 216.54Z" fill="#0075FF"/>
</svg>
