<svg width="1002" height="912" viewBox="0 0 1002 912" fill="none" xmlns="http://www.w3.org/2000/svg">
<g clip-path="url(#clip0_115_61803)">
<path d="M326.307 570.167C182.565 543.584 82.6447 458.833 169.448 267.18C189.294 229.062 193.891 184.972 198.743 145.209C204.225 105.914 243.318 99.1622 302.798 112.241C408.53 135.917 491.739 135.713 561.624 157.156C690.629 202.652 697.954 347.545 734.497 496.368C745.89 564.837 695.165 616.571 582.723 582.466C406.316 526.814 387.225 563.765 326.307 570.167Z" stroke="#0075FF" stroke-miterlimit="10"/>
<path d="M328.787 571.576C186.254 545.055 86.952 460.805 171.906 270.927C190.731 232.288 191.677 187.744 197.387 147.072C203.816 107.045 244.397 100.187 304.797 113.641C410.373 137.453 493.56 137.428 563.12 158.615C691.363 203.823 700.051 348.531 736.056 497.066C747.179 565.447 696.432 617.024 584.609 583.644C409.696 529.114 389.696 565.544 328.787 571.576Z" stroke="#0075FF" stroke-miterlimit="10"/>
<path d="M331.167 573.065C189.832 546.639 91.1144 462.878 174.253 274.787C192.013 235.649 189.319 190.618 195.953 149.058C203.33 108.3 245.433 101.345 306.708 115.198C412.127 139.145 495.327 139.31 564.516 160.264C692.063 205.095 702.094 349.685 737.56 497.931C748.459 566.202 697.621 617.601 586.429 585.023C413.009 531.504 392.134 567.424 331.167 573.065Z" stroke="#0075FF" stroke-miterlimit="10"/>
<path d="M333.514 574.654C193.388 548.29 95.2882 465.029 176.6 278.758C193.305 239.088 186.994 193.615 194.486 151.145C202.8 109.689 246.39 102.627 308.585 116.857C413.848 140.938 497.06 141.293 565.89 161.98C692.719 206.501 704.081 350.896 739.008 498.853C749.638 567.035 698.777 618.278 588.204 586.424C416.29 533.995 394.482 569.348 333.514 574.654Z" stroke="#0075FF" stroke-miterlimit="10"/>
<path d="M335.76 576.321C196.833 550.052 99.3615 467.259 178.825 282.763C194.509 242.572 184.547 196.646 192.896 153.266C202.157 111.079 247.236 103.91 310.35 118.515C415.491 142.742 498.681 143.277 567.14 163.731C693.252 207.942 705.945 352.14 740.333 499.809C750.739 567.88 699.788 618.944 589.812 587.882C419.48 536.531 396.798 571.373 335.76 576.321Z" stroke="#0075FF" stroke-miterlimit="10"/>
<path d="M337.985 578.056C200.266 551.849 103.379 469.545 181.016 286.87C195.634 246.18 182.077 199.744 191.306 155.499C201.549 112.592 248.082 105.304 312.105 120.319C417.09 144.682 500.259 145.395 568.392 165.593C693.796 209.461 707.798 353.53 741.693 500.888C751.83 568.871 700.855 619.778 591.498 589.44C422.638 539.168 399.046 573.488 337.985 578.056Z" stroke="#0075FF" stroke-miterlimit="10"/>
<path d="M340.176 579.892C203.656 553.78 107.398 471.943 183.174 291.077C196.772 249.866 179.53 202.966 189.65 157.822C200.841 114.183 248.85 106.822 313.793 122.213C418.622 146.711 501.803 147.614 569.565 167.579C694.219 211.125 709.619 355.021 742.93 502.113C752.809 569.974 701.811 620.725 593.051 591.178C425.74 541.861 401.273 575.671 340.176 579.892Z" stroke="#0075FF" stroke-miterlimit="10"/>
<path d="M342.312 581.784C207 555.734 111.316 474.42 185.311 295.351C197.853 253.608 176.995 206.265 188.006 160.223C200.133 115.887 249.675 108.395 315.503 124.152C420.177 148.784 503.37 149.878 570.762 169.609C694.686 212.768 711.406 356.5 744.178 503.304C753.833 571.054 702.733 621.66 594.626 592.849C428.809 544.655 403.433 577.943 342.312 581.784Z" stroke="#0075FF" stroke-miterlimit="10"/>
<path d="M344.392 583.732C210.289 557.744 115.223 476.931 187.368 299.637C198.879 257.407 174.381 209.577 186.249 162.624C199.324 117.557 250.354 109.958 317.091 126.125C421.608 150.892 504.802 152.209 571.846 171.64C695.075 214.533 713.125 358.07 745.359 504.585C754.745 572.247 703.633 622.663 596.123 594.643C431.823 547.505 405.537 580.271 344.392 583.732Z" stroke="#0075FF" stroke-miterlimit="10"/>
<path d="M346.439 585.781C213.534 559.888 119.097 479.542 189.382 304.058C199.838 261.295 171.723 213.022 184.448 165.16C198.471 119.361 250.978 111.689 318.645 128.198C423.007 153.1 506.179 154.596 572.886 173.805C695.397 216.388 714.768 359.762 746.496 506.001C755.658 573.551 704.445 623.822 597.554 596.527C434.803 550.455 407.619 582.667 346.439 585.781Z" stroke="#0075FF" stroke-miterlimit="10"/>
<path d="M348.453 587.931C216.757 562.1 122.904 482.243 191.363 308.579C200.798 265.295 169.032 216.569 182.648 167.808C197.652 121.289 251.614 113.498 320.19 130.417C424.395 155.454 507.579 157.14 573.927 176.083C695.687 218.344 716.455 361.544 747.612 507.483C756.504 574.946 705.279 625.027 598.996 598.489C437.727 553.462 409.669 585.163 348.453 587.931Z" stroke="#0075FF" stroke-miterlimit="10"/>
<path d="M350.422 590.103C219.924 564.367 126.7 484.978 193.344 313.1C201.713 269.318 166.308 220.104 180.815 170.445C196.755 123.228 252.216 115.296 321.7 132.625C425.783 157.808 508.946 159.674 574.923 178.382C695.976 220.301 718.064 363.338 748.682 508.989C757.317 576.329 706.035 626.243 600.383 600.508C440.63 556.536 411.662 587.716 350.422 590.103Z" stroke="#0075FF" stroke-miterlimit="10"/>
<path d="M352.324 592.365C223.035 566.691 130.429 487.802 195.213 317.733C202.527 273.419 163.505 223.763 178.87 173.194C195.758 125.246 252.729 117.251 323.11 134.912C427.037 160.229 510.212 162.285 575.83 180.727C696.165 222.335 719.573 365.211 749.697 510.55C758.096 577.813 706.757 627.559 601.724 602.548C443.466 559.7 413.6 590.324 352.324 592.365Z" stroke="#0075FF" stroke-miterlimit="10"/>
<path d="M354.216 594.661C226.159 569.093 134.103 490.682 197.071 322.4C203.365 277.565 160.692 227.456 176.947 175.987C194.783 127.308 253.242 119.206 324.499 137.265C428.269 162.718 511.457 164.964 576.704 183.173C696.332 224.437 721.06 367.15 750.634 512.235C758.775 579.376 707.38 628.954 602.977 604.746C446.291 562.898 415.549 593.011 354.216 594.661Z" stroke="#0075FF" stroke-miterlimit="10"/>
<path d="M356.074 597.057C229.226 571.551 137.789 493.641 198.896 327.168C204.124 281.834 157.845 231.249 174.958 178.871C193.731 129.494 253.689 121.251 325.853 139.72C429.468 165.308 512.634 167.733 577.555 185.686C696.466 226.64 722.558 369.168 751.56 513.953C759.466 581.017 708.014 630.428 604.197 606.933C449.082 566.196 417.398 595.777 356.074 597.057Z" stroke="#0075FF" stroke-miterlimit="10"/>
<path d="M357.877 599.51C232.227 574.099 141.385 496.645 200.677 331.959C204.884 286.103 154.921 235.054 172.958 181.788C192.678 131.68 254.113 123.364 327.209 142.175C430.667 167.897 513.845 170.512 578.396 188.232C696.555 228.866 724.012 371.208 752.476 515.705C760.123 582.648 708.648 631.902 605.428 609.198C451.829 569.517 419.27 598.587 357.877 599.51Z" stroke="#0075FF" stroke-miterlimit="10"/>
<path d="M359.691 602.041C235.25 576.692 145.026 499.738 202.492 336.872C205.644 290.485 152.075 238.959 170.958 184.817C191.66 133.989 254.549 125.554 328.553 144.775C431.856 170.632 515.035 173.471 579.237 190.89C696.69 231.18 725.455 373.394 753.425 517.58C760.837 584.445 709.271 633.521 606.704 611.553C454.543 572.939 421.086 601.454 359.691 602.041Z" stroke="#0075FF" stroke-miterlimit="10"/>
<path d="M361.461 604.594C238.228 579.307 148.623 502.854 204.228 341.797C206.349 294.922 149.139 242.909 168.88 187.857C190.53 136.298 254.907 127.756 329.819 147.387C432.988 173.424 516.157 176.408 579.989 193.594C696.724 233.574 726.82 375.591 754.24 519.522C761.394 586.266 709.805 635.185 607.835 614.008C457.246 576.394 422.913 604.398 361.461 604.594Z" stroke="#0075FF" stroke-miterlimit="10"/>
<path d="M363.208 607.215C241.174 582.023 152.153 506.06 205.942 346.789C207.008 299.382 146.182 246.927 166.814 190.976C189.4 138.719 255.299 130.081 331.108 150.043C434.121 176.215 517.269 179.378 580.775 196.308C696.792 235.979 728.252 377.811 755.1 521.442C761.985 588.098 710.34 636.849 609.022 616.408C459.927 579.917 424.685 607.399 363.208 607.215Z" stroke="#0075FF" stroke-miterlimit="10"/>
<path d="M364.934 609.903C244.108 584.773 155.705 509.31 207.646 351.815C207.657 303.875 143.214 250.978 164.703 194.117C188.236 141.129 255.623 132.383 332.341 152.755C435.198 179.062 518.358 182.415 581.493 199.113C696.77 238.428 729.573 380.143 755.893 523.452C762.554 589.996 710.852 638.581 610.142 618.897C462.597 583.473 426.446 610.434 364.934 609.903Z" stroke="#0075FF" stroke-miterlimit="10"/>
<path d="M366.671 612.669C247.043 587.634 159.269 512.638 209.383 356.963C208.363 308.536 140.246 255.141 162.659 197.392C187.141 143.673 256.016 134.82 333.642 155.602C436.343 182.044 519.515 185.587 582.291 202.017C696.85 241.023 730.984 382.541 756.799 525.573C763.191 592.029 711.432 640.446 611.33 621.52C465.234 587.13 428.184 613.535 366.671 612.669Z" stroke="#0075FF" stroke-miterlimit="10"/>
<path d="M368.363 615.458C249.945 590.485 162.755 515.978 211.043 362.124C208.967 313.164 137.234 259.326 160.504 200.668C185.923 146.251 256.285 137.291 334.843 158.415C437.388 184.992 520.571 188.725 583.01 204.933C696.862 243.595 732.317 384.951 757.582 527.729C763.749 594.074 711.933 642.323 612.44 624.155C467.893 590.831 429.935 616.715 368.363 615.458Z" stroke="#0075FF" stroke-miterlimit="10"/>
<path d="M370.067 618.325C252.847 593.447 166.286 519.407 212.725 367.328C209.628 317.848 134.244 263.556 158.372 203.988C184.771 148.851 256.589 139.772 336.054 161.307C438.443 188.018 521.605 191.931 583.719 207.883C696.853 246.235 733.672 387.406 758.365 529.884C764.274 596.107 712.424 644.233 613.539 626.823C470.508 594.555 431.674 619.929 370.067 618.325Z" stroke="#0075FF" stroke-miterlimit="10"/>
<path d="M371.76 621.225C255.749 596.409 169.772 522.859 214.384 372.6C210.222 322.621 131.232 267.854 156.251 207.387C183.598 151.518 256.937 142.343 337.277 164.277C439.544 191.134 522.685 195.226 584.428 210.945C696.844 248.987 734.982 389.995 759.182 532.162C764.856 598.308 712.926 646.222 614.682 629.581C473.134 598.358 433.391 623.21 371.76 621.225Z" stroke="#0075FF" stroke-miterlimit="10"/>
<path d="M373.442 624.16C258.64 599.405 173.27 526.389 216.067 377.917C210.884 327.417 128.209 272.185 154.119 210.819C182.414 154.219 257.23 144.97 338.501 167.246C440.611 194.239 523.753 198.554 585.148 213.972C696.824 251.66 736.315 392.517 759.976 534.395C765.392 600.419 713.428 648.211 615.793 632.327C475.749 602.194 435.097 626.524 373.442 624.16Z" stroke="#0075FF" stroke-miterlimit="10"/>
<path d="M375.136 627.172C261.531 602.513 176.791 529.964 217.727 383.301C211.49 332.268 125.198 276.594 151.999 214.33C181.23 157.032 257.545 147.642 339.691 170.317C441.646 197.444 524.799 201.949 585.824 217.135C696.782 254.512 737.604 395.173 760.715 536.797C765.862 602.733 713.853 650.323 616.825 635.197C478.343 606.097 436.826 629.883 375.136 627.172Z" stroke="#0075FF" stroke-miterlimit="10"/>
<path d="M376.818 630.218C264.423 605.62 180.267 533.561 219.388 388.685C212.118 337.165 122.186 281.003 149.845 217.829C180.024 159.8 257.827 150.303 340.881 173.387C442.68 200.65 525.846 205.345 586.51 220.264C696.751 257.331 738.927 397.841 761.477 539.131C766.399 604.956 714.322 652.412 617.902 638.045C480.969 610.011 438.533 633.309 376.818 630.218Z" stroke="#0075FF" stroke-miterlimit="10"/>
<path d="M378.49 633.298C267.292 608.795 183.765 537.203 221.026 394.136C212.702 342.084 119.164 285.446 147.68 221.362C178.807 162.602 258.086 153.031 342.071 176.458C443.714 203.855 526.858 208.73 587.186 223.426C696.72 260.15 740.216 400.497 762.261 541.51C766.914 607.247 714.791 654.502 619.013 640.903C483.574 613.993 440.229 636.769 378.49 633.298Z" stroke="#0075FF" stroke-miterlimit="10"/>
<path d="M380.173 636.456C270.218 612.026 187.241 540.912 222.709 399.676C213.33 347.092 116.176 290.012 145.571 225.063C177.669 165.616 258.447 155.904 343.307 179.73C444.794 207.262 527.95 212.327 587.919 226.756C696.701 263.159 741.561 403.321 763.067 544.046C767.496 609.671 715.306 656.793 620.147 643.918C486.201 618.019 441.991 640.251 380.173 636.456Z" stroke="#0075FF" stroke-miterlimit="10"/>
<path d="M381.889 639.625C273.132 615.29 190.774 544.677 224.404 405.183C213.993 352.111 113.165 294.533 143.462 228.651C176.507 168.473 258.774 158.654 344.553 182.856C445.918 210.534 529.053 215.778 588.651 229.974C696.726 266.033 742.895 406.066 763.863 546.503C768.023 612.04 715.786 658.96 621.258 646.889C488.84 622.123 443.699 643.789 381.889 639.625Z" stroke="#0075FF" stroke-miterlimit="10"/>
<path d="M383.629 642.838C276.081 618.566 194.34 548.453 226.11 410.768C214.645 357.164 110.199 299.143 141.388 232.363C175.381 171.453 259.124 161.561 345.823 186.139C447.031 213.952 530.178 219.385 589.417 233.315C696.775 269.064 744.308 408.912 764.737 549.06C768.639 614.476 716.369 661.273 622.426 649.915C491.479 626.227 445.462 647.383 383.629 642.838Z" stroke="#0075FF" stroke-miterlimit="10"/>
<path d="M385.346 646.119C279.007 621.908 197.851 552.285 227.794 416.42C215.308 362.295 107.212 303.82 139.258 236.13C174.198 174.49 259.429 164.49 347.037 189.478C448.089 217.426 531.215 223.038 590.116 236.746C696.756 272.185 745.621 411.837 765.511 551.696C769.178 617.035 716.861 663.631 623.516 653.064C494.141 630.376 447.215 651.01 385.346 646.119Z" stroke="#0075FF" stroke-miterlimit="10"/>
<path d="M387.097 649.411C281.956 625.295 201.429 556.139 229.545 422.094C215.993 367.47 104.291 308.52 137.194 239.92C173.071 177.582 259.802 167.441 348.329 192.805C449.225 220.888 532.363 226.691 590.894 240.165C696.794 275.25 747.012 414.75 766.363 554.321C769.772 619.538 717.388 666 624.695 656.168C496.825 634.57 448.99 654.682 387.097 649.411Z" stroke="#0075FF" stroke-miterlimit="10"/>
<path d="M388.87 652.747C284.938 628.693 205.029 560.038 231.297 427.768C216.724 372.623 101.337 313.209 135.165 243.721C171.99 180.651 260.197 170.437 349.644 196.177C450.384 224.395 533.523 230.421 591.706 243.595C696.887 278.37 748.425 417.708 767.238 556.99C770.411 622.13 717.981 668.391 625.886 659.35C499.543 638.775 450.832 658.376 388.87 652.747Z" stroke="#0075FF" stroke-miterlimit="10"/>
<path d="M390.677 656.095C287.943 632.136 208.63 563.937 233.071 433.487C217.443 377.81 98.4397 317.953 133.125 247.555C170.931 183.766 260.626 173.444 350.948 199.583C451.532 227.935 534.683 234.152 592.495 247.093C696.959 281.557 749.861 420.71 768.136 559.705C771.051 624.722 718.553 670.849 627.11 662.544C502.272 643.058 452.664 662.104 390.677 656.095Z" stroke="#0075FF" stroke-miterlimit="10"/>
<path d="M392.496 659.52C290.971 635.624 212.264 567.958 234.856 439.284C218.163 383.109 95.5534 322.776 131.129 251.479C169.872 186.992 261.066 176.529 352.308 203.044C452.725 231.565 535.865 237.928 593.352 250.612C697.109 284.733 751.331 423.724 769.067 562.43C771.758 627.336 719.203 673.296 628.323 665.771C505.035 647.352 454.517 665.876 392.496 659.52Z" stroke="#0075FF" stroke-miterlimit="10"/>
<path d="M394.359 662.923C294.032 639.122 215.921 571.912 236.731 445.036C219.017 388.339 92.7566 327.553 129.19 255.347C168.88 190.128 261.551 179.591 353.712 206.483C454.007 235.15 537.126 241.691 594.242 254.142C697.281 287.954 752.823 426.781 770.032 565.165C772.453 629.984 719.842 675.776 629.615 668.987C507.832 651.656 456.394 669.693 394.359 662.923Z" stroke="#0075FF" stroke-miterlimit="10"/>
<path d="M396.267 666.416C297.15 642.676 219.656 575.967 238.606 450.9C219.837 393.671 89.9601 332.442 127.251 259.326C167.889 193.376 262.048 182.732 355.084 210.023C455.222 238.825 538.353 245.556 595.11 257.74C697.398 291.23 754.338 429.884 770.963 568.002C773.127 632.699 720.492 678.334 630.874 672.303C510.651 656.006 458.315 673.487 396.267 666.416Z" stroke="#0075FF" stroke-miterlimit="10"/>
<path d="M398.176 669.908C300.267 646.23 223.392 580.022 240.482 456.764C220.681 399.047 87.1414 337.287 125.345 263.316C166.931 196.635 262.578 185.884 356.534 213.55C456.516 242.487 539.659 249.409 596.046 261.36C697.627 294.507 755.887 432.998 772.007 570.839C773.935 635.458 721.21 680.915 632.233 675.652C513.493 660.4 460.282 677.371 398.176 669.908Z" stroke="#0075FF" stroke-miterlimit="10"/>
<path d="M400.152 673.423C303.441 649.84 227.161 584.088 242.424 462.65C221.569 404.401 84.4122 342.198 123.473 267.318C165.996 199.939 263.165 189.092 358.006 217.123C457.833 246.195 540.954 253.295 597.015 264.991C697.878 297.827 757.469 436.123 773.05 573.675C774.721 638.172 721.972 683.473 633.603 678.968C516.402 664.817 462.282 681.266 400.152 673.423Z" stroke="#0075FF" stroke-miterlimit="10"/>
<path d="M402.15 676.982C306.648 653.461 230.986 588.209 244.401 468.547C222.524 409.777 81.7167 347.12 121.635 271.331C165.139 203.231 263.762 192.266 359.512 220.707C459.183 249.914 542.316 257.204 598.04 268.678C698.197 301.171 759.096 439.337 774.15 576.567C775.585 640.987 722.78 686.12 634.985 682.363C519.345 669.244 464.315 685.172 402.15 676.982Z" stroke="#0075FF" stroke-miterlimit="10"/>
<path d="M404.227 680.529C309.923 657.104 234.879 592.353 246.478 474.477C223.535 415.208 79.1221 352.076 119.932 275.387C164.383 206.557 264.494 195.484 361.164 224.301C460.678 253.643 543.813 261.157 599.188 272.33C698.593 304.502 760.891 442.494 775.395 579.47C776.572 643.768 723.71 688.733 636.558 685.745C522.31 673.716 466.416 689.099 404.227 680.529Z" stroke="#0075FF" stroke-miterlimit="10"/>
<path d="M406.326 684.122C313.231 660.758 238.772 596.496 248.544 480.44C224.547 420.64 76.4829 357.053 118.183 279.466C163.572 209.938 265.171 198.758 362.759 227.951C462.152 257.439 545.265 265.132 600.27 276.072C698.957 307.934 762.586 445.73 776.551 582.417C777.493 646.638 724.574 691.436 638.029 689.205C525.343 678.21 468.54 693.072 406.326 684.122Z" stroke="#0075FF" stroke-miterlimit="10"/>
<path d="M408.482 687.77C316.618 664.512 242.754 600.706 250.677 486.426C225.659 426.104 73.9446 362.065 116.536 283.579C162.872 213.319 265.959 202.032 364.456 231.635C463.692 261.258 546.818 269.141 601.463 279.814C699.399 311.355 764.348 448.989 777.775 585.387C778.458 649.486 725.483 694.117 639.58 692.655C528.443 682.726 470.741 697.033 408.482 687.77Z" stroke="#0075FF" stroke-miterlimit="10"/>
<path d="M410.682 691.395C320.028 668.199 246.748 604.883 252.844 492.423C226.761 431.602 71.44 367.087 114.889 287.691C162.172 216.7 266.781 205.316 366.164 235.285C465.244 265.042 548.348 273.105 602.657 283.555C699.92 314.764 766.188 452.235 779.087 588.312C779.502 652.323 726.514 696.763 641.208 696.092C531.576 687.253 472.966 701.038 410.682 691.395Z" stroke="#0075FF" stroke-miterlimit="10"/>
<path d="M412.949 695.042C323.504 671.908 250.842 609.093 255.112 498.453C228.008 437.111 69.0362 372.142 113.342 291.836C161.607 220.125 267.659 208.657 367.962 239.002C466.886 268.894 550.002 277.147 603.951 287.33C700.463 318.218 768.084 455.538 780.479 591.337C780.669 655.237 727.58 699.532 642.893 699.586C534.788 691.769 475.258 705.066 412.949 695.042Z" stroke="#0075FF" stroke-miterlimit="10"/>
<path d="M415.284 698.712C327.037 675.673 254.993 613.358 257.414 504.493C229.254 442.62 66.6659 377.208 111.863 296.004C161.065 223.595 268.615 211.986 369.827 242.74C468.595 272.768 551.723 281.21 605.302 291.161C701.106 321.704 770.092 458.839 781.904 594.373C781.825 658.184 728.724 702.29 644.634 703.135C538.022 696.329 477.616 709.115 415.284 698.712Z" stroke="#0075FF" stroke-miterlimit="10"/>
<path d="M417.686 702.403C330.647 679.426 259.188 617.601 259.793 510.523C230.602 448.162 64.3403 382.252 110.428 300.149C160.578 227.009 269.616 215.292 371.747 246.423C470.359 276.585 553.5 285.218 606.719 294.901C701.806 325.135 772.112 462.108 783.395 597.319C783.092 661.02 729.889 704.98 646.452 706.561C541.357 700.923 480.053 713.153 417.686 702.403Z" stroke="#0075FF" stroke-miterlimit="10"/>
<path d="M420.121 706.106C334.281 683.224 263.451 621.866 262.196 516.597C231.95 453.704 62.0712 387.352 109.05 304.349C160.147 230.478 270.663 218.688 373.713 250.195C472.203 280.503 555.288 289.304 608.17 298.765C702.551 328.655 774.176 465.465 784.91 600.422C784.338 664.034 731.123 707.804 648.294 710.143C544.726 705.527 482.524 717.203 420.121 706.106Z" stroke="#0075FF" stroke-miterlimit="10"/>
<path d="M422.658 709.842C338.027 687.022 267.814 626.164 264.733 522.715C233.466 459.301 59.9474 392.461 107.772 308.583C159.806 234.014 271.821 222.083 375.791 253.966C474.125 284.409 557.222 293.4 609.745 302.594C703.407 332.175 776.397 468.8 786.593 603.468C785.762 666.958 732.514 710.606 650.293 713.702C548.174 710.12 485.085 721.319 422.658 709.842Z" stroke="#0075FF" stroke-miterlimit="10"/>
<path d="M425.239 713.555C341.806 690.83 272.188 630.428 267.292 528.766C234.959 464.853 57.8346 397.538 106.517 312.749C159.498 237.449 273.035 225.422 377.846 257.693C476.024 288.271 559.122 297.485 611.286 306.413C704.197 335.672 778.54 472.146 788.208 606.492C787.153 669.871 733.814 713.34 652.201 717.194C551.722 714.746 487.735 725.389 425.239 713.555Z" stroke="#0075FF" stroke-miterlimit="10"/>
<path d="M427.921 717.301C345.696 694.638 276.697 634.737 269.941 534.884C236.553 470.439 55.7782 402.67 105.385 316.994C159.348 240.973 274.328 228.861 380.058 261.508C478.08 292.221 561.191 301.626 612.995 310.287C705.199 339.202 780.862 475.513 789.991 609.571C788.668 672.862 735.305 716.175 654.3 720.787C555.303 719.383 490.408 729.505 427.921 717.301Z" stroke="#0075FF" stroke-miterlimit="10"/>
<path d="M430.681 721.036C349.666 698.435 281.24 639.056 272.668 540.99C238.259 476.023 53.8335 407.801 104.298 321.215C159.208 244.464 275.676 232.244 382.326 265.267C480.192 296.115 563.281 305.699 614.748 314.138C706.235 342.743 783.229 478.858 791.842 612.672C790.294 675.853 736.841 718.986 656.478 724.367C558.997 724.02 493.192 733.62 430.681 721.036Z" stroke="#0075FF" stroke-miterlimit="10"/>
<path d="M433.508 724.793C353.691 702.287 285.894 643.375 275.496 547.129C240.022 481.664 51.9897 412.966 103.345 325.481C159.192 248.032 277.159 235.671 384.718 269.104C482.416 300.121 565.528 309.861 616.636 318.033C707.405 346.328 785.763 482.258 793.804 615.773C791.987 678.865 738.511 721.842 658.756 727.981C562.769 728.645 496.055 737.723 433.508 724.793Z" stroke="#0075FF" stroke-miterlimit="10"/>
<path d="M436.414 728.538C357.806 706.094 290.627 647.683 278.379 553.212C241.884 487.226 50.2018 418.074 102.414 329.68C159.209 251.499 278.653 239.065 387.131 272.874C484.707 304.036 567.798 313.956 618.535 321.894C708.564 349.835 788.265 485.647 795.778 618.84C793.736 681.821 740.17 724.62 661.057 731.528C566.608 733.292 499.019 741.859 436.414 728.538Z" stroke="#0075FF" stroke-miterlimit="10"/>
<path d="M439.421 732.316C362.011 709.967 295.427 652.012 281.353 559.362C243.803 492.843 48.5037 423.249 101.573 333.945C159.316 255.033 280.281 242.503 389.646 276.677C487.066 307.974 570.169 318.084 620.546 325.755C709.857 353.386 790.889 489.002 797.864 621.907C795.553 684.8 741.964 727.442 663.458 735.107C570.525 737.927 502.027 745.973 439.421 732.316Z" stroke="#0075FF" stroke-miterlimit="10"/>
<path d="M442.517 736.049C366.316 713.762 300.35 656.308 284.416 565.466C245.834 498.461 46.8612 428.368 100.855 338.176C159.535 258.567 281.999 245.895 392.272 280.479C489.536 311.912 572.651 322.211 622.658 329.65C711.251 356.971 793.636 492.435 800.072 625.051C797.504 687.822 743.858 730.297 665.96 738.72C574.543 742.596 505.147 750.087 442.517 736.049Z" stroke="#0075FF" stroke-miterlimit="10"/>
<path d="M445.68 739.804C370.677 717.612 305.329 660.659 287.59 571.57C247.954 504.032 45.3642 433.497 100.216 342.396C159.876 262.066 283.784 249.31 394.977 284.27C492.085 315.837 575.178 326.316 624.848 333.532C712.734 360.51 796.44 495.812 802.337 628.139C799.533 690.833 745.83 733.14 668.552 742.288C578.64 747.253 508.368 754.233 445.68 739.804Z" stroke="#0075FF" stroke-miterlimit="10"/>
<path d="M448.978 743.604C375.217 721.485 310.421 665.01 290.855 577.741C250.165 509.671 43.9573 438.694 99.6997 346.693C160.308 265.632 285.704 252.769 397.816 288.105C494.768 319.807 577.862 330.509 627.184 337.425C714.319 364.082 799.355 499.188 804.703 631.26C801.641 693.832 747.915 735.983 671.233 745.922C582.849 751.91 511.679 758.334 448.978 743.604Z" stroke="#0075FF" stroke-miterlimit="10"/>
<path d="M452.331 747.347C379.78 725.29 315.601 669.315 294.175 583.856C252.453 515.298 42.6168 443.8 99.2054 350.923C160.762 269.131 287.645 256.16 400.666 291.907C497.462 323.744 580.568 334.636 629.52 341.319C715.948 367.632 802.337 502.586 807.191 634.347C803.894 696.842 750.077 738.814 674.049 749.489C587.169 756.566 515.09 762.469 452.331 747.347Z" stroke="#0075FF" stroke-miterlimit="10"/>
<path d="M455.83 751.101C384.477 729.139 320.893 673.62 297.641 589.981C254.864 520.891 41.3774 448.94 98.857 355.164C161.35 272.674 289.755 259.607 403.661 295.719C500.301 327.69 583.42 338.773 632.012 345.189C717.722 371.192 805.443 505.95 809.747 637.457C806.191 699.83 752.352 741.645 676.92 753.111C591.568 761.21 518.613 766.603 455.83 751.101Z" stroke="#0075FF" stroke-miterlimit="10"/>
<path d="M459.408 754.843C389.263 732.943 326.298 677.924 301.196 596.061C257.398 526.45 40.2608 454.045 98.6314 359.371C162.072 276.149 291.965 262.975 406.791 299.463C503.309 331.58 586.372 342.831 634.661 349.036C719.653 374.729 808.727 509.335 812.47 640.509C808.679 702.805 754.749 744.442 679.937 756.632C596.089 765.82 522.226 770.692 459.408 754.843Z" stroke="#0075FF" stroke-miterlimit="10"/>
<path d="M463.097 758.585C394.15 736.78 331.814 682.229 304.886 602.185C260.022 532.076 39.2788 459.195 98.5066 363.611C162.895 279.658 294.276 266.376 409.977 303.263C506.338 335.516 589.414 346.956 637.344 352.894C721.629 378.243 812.023 512.688 815.227 643.573C811.178 705.747 757.225 747.227 683.01 760.209C600.712 770.464 525.939 774.814 463.097 758.585Z" stroke="#0075FF" stroke-miterlimit="10"/>
<path d="M466.898 762.326C399.16 740.583 337.397 686.555 308.654 608.297C262.769 537.667 38.3752 464.332 98.494 367.85C163.853 283.211 296.688 269.81 413.308 307.073C509.514 339.461 592.602 351.091 640.161 356.796C723.695 381.824 815.453 516.084 818.152 646.692C813.835 708.777 759.825 750.09 686.262 763.807C605.446 775.107 529.776 778.901 466.898 762.326Z" stroke="#0075FF" stroke-miterlimit="10"/>
<path d="M470.811 766.067C404.271 744.419 343.137 690.858 312.545 614.376C265.605 543.213 37.5943 469.436 98.5704 372.044C164.877 286.673 299.2 273.166 416.74 310.805C512.79 343.327 595.89 355.148 643.089 360.586C725.905 385.304 818.983 519.401 821.144 649.721C816.602 711.695 762.535 752.841 689.57 767.349C610.304 779.716 533.724 782.989 470.811 766.067Z" stroke="#0075FF" stroke-miterlimit="10"/>
<path d="M474.847 769.774C409.516 748.187 349 695.127 316.548 620.454C268.576 548.804 36.8918 474.529 98.7588 376.237C166.013 290.136 301.824 276.521 420.273 314.57C516.166 347.227 599.245 359.227 646.107 364.442C728.217 388.817 822.648 522.763 824.237 652.783C819.437 714.636 765.302 755.647 692.989 770.891C615.239 784.314 537.784 787.076 474.847 769.774Z" stroke="#0075FF" stroke-miterlimit="10"/>
<path d="M478.995 773.48C414.873 751.955 354.942 699.384 320.696 626.543C271.67 554.36 36.3685 479.643 99.1264 380.453C167.328 293.62 304.627 279.898 423.996 318.322C519.733 351.115 602.813 363.338 649.327 368.253C730.719 392.318 826.481 526.068 827.531 655.799C822.495 717.575 768.315 758.385 696.576 774.376C620.332 788.888 541.967 791.128 478.995 773.48Z" stroke="#0075FF" stroke-miterlimit="10"/>
<path d="M483.266 777.152C420.342 755.722 361.04 703.618 324.934 632.586C274.853 559.871 35.9345 484.712 99.5498 384.611C168.688 297.081 307.509 283.263 427.763 322.053C523.378 354.991 606.436 367.393 652.58 372.075C733.265 395.797 830.347 529.383 830.892 658.838C825.598 720.491 771.384 761.179 700.254 777.928C625.525 793.495 546.296 795.191 483.266 777.152Z" stroke="#0075FF" stroke-miterlimit="10"/>
<path d="M487.682 780.834C425.967 759.466 367.238 707.886 329.328 638.606C278.215 565.404 35.657 489.757 100.13 388.747C170.216 300.486 310.524 286.56 431.687 325.76C527.146 358.833 610.216 371.426 656.001 375.841C735.934 399.241 834.37 532.676 834.376 661.842C828.813 723.408 774.553 763.894 704.065 781.411C630.885 798.046 550.703 799.243 487.682 780.834Z" stroke="#0075FF" stroke-miterlimit="10"/>
<path d="M492.188 784.472C431.671 763.199 373.571 712.085 333.801 644.615C281.633 570.881 35.4243 494.781 100.821 392.883C171.889 303.901 313.641 289.891 435.723 329.466C531.026 362.675 614.109 375.457 659.522 379.639C738.772 402.74 838.538 535.98 838.006 664.857C832.219 726.312 777.891 766.664 708.01 784.94C636.325 802.586 555.267 803.272 492.188 784.472Z" stroke="#0075FF" stroke-miterlimit="10"/>
<path d="M496.873 788.131C437.565 766.92 380.083 716.307 338.486 650.657C285.298 576.401 35.449 499.814 101.692 397.04C173.696 307.36 316.947 293.209 439.949 333.161C535.096 366.504 618.157 379.466 663.245 383.392C741.754 406.138 842.874 539.226 841.803 667.815C835.747 729.182 781.373 769.333 712.134 788.377C641.909 807.135 559.953 807.266 496.873 788.131Z" stroke="#0075FF" stroke-miterlimit="10"/>
<path d="M501.647 791.744C443.537 770.629 386.65 720.472 343.238 656.608C288.984 581.854 35.5293 504.791 102.664 401.118C175.615 310.707 320.388 296.459 444.265 336.81C539.245 370.322 622.329 383.44 667.046 387.133C744.838 409.57 847.277 542.495 845.679 670.762C839.398 732.018 784.957 772.035 716.292 791.826C647.616 811.651 564.785 811.271 501.647 791.744Z" stroke="#0075FF" stroke-miterlimit="10"/>
<path d="M671.544 393.746C748.385 416.354 849.352 547.978 847.479 675.038C840.874 736.373 786.87 776.534 718.787 796.256C650.882 815.775 568.765 814.922 506.14 795.08C448.713 774.04 392.489 724.36 349.572 661.144C295.869 586.98 45.8202 510.55 111.963 407.855C149.438 360.855 206.408 334.36 269.764 325.409C328.122 317.162 391.913 323.801 450.977 343.033C545.116 376.269 627.339 389.626 671.544 393.746Z" stroke="#0075FF" stroke-miterlimit="10"/>
<path d="M676.42 399.775C752.243 422.534 851.726 552.889 849.657 678.731C842.695 740.135 789.184 780.495 721.615 800.124C654.448 819.327 573.089 818.091 510.944 797.922C454.2 776.957 398.639 727.756 356.218 665.185C303.066 591.612 56.4332 515.782 121.574 414.098C158.545 367.156 214.966 340.631 277.875 331.569C335.829 323.19 399.284 329.719 457.977 348.829C551.309 381.688 632.683 395.25 676.42 399.775Z" stroke="#0075FF" stroke-miterlimit="10"/>
<path d="M681.539 405.289C756.412 428.22 854.378 557.295 852.124 681.885C844.826 743.402 791.763 783.872 724.732 803.455C658.301 822.341 577.679 820.677 516.047 800.192C459.987 779.303 405.099 730.546 363.129 668.644C310.551 595.706 67.312 520.431 131.45 419.758C167.873 372.898 223.825 346.329 286.251 337.147C343.791 328.669 406.898 335.009 465.289 354.02C557.791 386.57 638.281 400.326 681.539 405.289Z" stroke="#0075FF" stroke-miterlimit="10"/>
<path d="M686.902 410.287C760.824 433.39 857.285 561.152 854.789 684.546C847.167 746.143 794.564 786.801 728.092 806.27C662.421 824.884 582.536 822.791 521.394 801.947C466.017 781.132 411.792 732.853 370.328 671.565C318.302 599.217 78.468 524.576 141.615 424.88C177.524 378.111 232.949 351.445 294.883 342.175C352.018 333.565 414.767 339.75 472.855 358.662C564.549 390.946 644.168 404.863 686.902 410.287Z" stroke="#0075FF" stroke-miterlimit="10"/>
<path d="M692.509 414.77C765.447 438.033 860.423 564.527 857.709 686.658C849.763 748.335 797.631 789.148 731.662 808.558C666.728 826.856 587.58 824.334 526.951 803.174C472.257 782.435 418.694 734.634 377.727 673.993C326.251 602.235 89.834 528.194 151.979 429.509C187.373 382.832 242.294 356.112 303.757 346.688C360.49 337.945 422.868 344.008 480.62 362.81C571.507 394.83 650.287 408.918 692.509 414.77Z" stroke="#0075FF" stroke-miterlimit="10"/>
<path d="M698.348 418.77C770.335 442.206 863.795 567.42 860.885 688.333C852.615 750.09 800.909 791.079 735.521 810.42C671.313 828.435 592.912 825.452 532.797 803.976C478.786 783.312 425.897 735.956 385.414 675.994C334.49 604.827 101.489 531.385 162.632 433.712C197.489 387.082 251.895 360.342 312.91 350.808C369.239 341.933 431.258 347.841 488.707 366.543C578.675 398.187 656.639 412.491 698.348 418.77Z" stroke="#0075FF" stroke-miterlimit="10"/>
<path d="M704.375 422.311C775.379 445.908 867.366 569.82 864.226 689.504C855.631 751.34 804.396 792.484 739.523 811.733C676.052 829.431 598.41 826.065 538.786 804.229C485.458 783.641 433.231 736.762 393.255 677.413C342.871 606.87 113.298 533.995 173.483 437.31C207.826 390.772 261.739 363.944 322.261 354.323C378.186 345.315 439.88 351.08 496.948 369.694C586.065 401.096 663.179 415.605 704.375 422.311Z" stroke="#0075FF" stroke-miterlimit="10"/>
<path d="M710.59 425.393C780.643 449.162 871.113 571.794 867.743 690.249C858.825 752.165 808.016 793.486 743.691 812.654C680.98 830.08 604.052 826.241 544.941 804.09C492.284 783.61 440.732 737.176 401.251 678.473C351.452 608.531 125.25 536.279 184.444 440.572C218.273 394.125 271.648 367.233 331.688 357.491C387.21 348.351 448.546 353.96 505.311 372.476C593.642 403.545 669.874 418.249 710.59 425.393Z" stroke="#0075FF" stroke-miterlimit="10"/>
<path d="M716.949 428.038C786.052 451.979 875.016 573.298 871.449 690.534C862.207 752.53 811.868 794.006 748.08 813.126C686.106 830.237 609.938 826.013 551.317 803.502C499.344 783.097 448.454 737.141 409.469 679.086C360.221 609.734 137.436 538.081 195.627 443.385C228.919 396.986 281.813 370.085 341.383 360.188C396.501 350.916 457.466 356.404 513.94 374.786C601.363 405.557 676.711 420.455 716.949 428.038Z" stroke="#0075FF" stroke-miterlimit="10"/>
<path d="M723.451 430.246C791.57 454.348 879.05 574.399 875.254 690.405C865.653 752.47 815.809 794.145 752.546 813.14C691.309 829.934 615.877 825.282 557.77 802.455C506.479 782.126 456.23 736.603 417.729 679.228C369.022 610.5 149.664 539.414 206.853 445.729C239.63 399.421 291.998 372.422 351.108 362.449C405.812 353.078 466.429 358.377 522.556 376.683C609.183 407.156 683.715 422.269 723.451 430.246Z" stroke="#0075FF" stroke-miterlimit="10"/>
<path d="M730.041 432.073C797.209 456.347 883.172 575.118 879.146 689.896C869.221 752.04 819.814 793.858 757.088 812.806C696.577 829.317 621.892 824.204 564.299 801.061C513.691 780.807 464.104 735.763 426.11 679C377.954 610.863 162.002 540.41 218.2 447.703C250.462 401.487 302.326 374.433 360.955 364.34C415.255 354.836 475.547 359.992 531.337 378.187C617.135 408.35 690.828 423.636 730.041 432.073Z" stroke="#0075FF" stroke-miterlimit="10"/>
<path d="M736.729 433.486C802.913 457.921 887.404 575.39 883.148 688.938C872.899 751.162 823.951 793.169 761.773 812.036C702.033 828.242 628.074 822.733 570.971 799.231C521.013 779.041 472.122 734.485 434.624 678.369C387.019 610.822 174.483 540.969 229.679 449.273C261.427 403.149 312.754 376.031 370.9 365.817C424.797 356.18 484.719 361.215 540.184 379.266C625.185 409.131 697.985 424.644 736.729 433.486Z" stroke="#0075FF" stroke-miterlimit="10"/>
<path d="M743.494 434.552C808.728 459.159 891.701 575.349 887.249 687.679C876.676 749.982 828.154 792.165 766.535 810.918C707.522 826.841 634.31 820.871 577.72 797.053C528.445 776.939 480.228 732.827 443.214 677.391C396.15 610.468 187.041 541.182 241.234 450.497C272.446 404.42 323.302 377.259 380.967 366.924C434.493 357.166 494.023 362.034 549.174 380.02C633.313 409.564 705.262 425.283 743.494 434.552Z" stroke="#0075FF" stroke-miterlimit="10"/>
<path d="M750.302 435.26C814.552 460.028 896.042 574.949 891.371 686.016C880.474 748.399 832.423 790.737 771.307 809.432C713.03 825.038 640.578 818.684 584.479 794.506C535.887 774.467 488.333 730.834 451.825 676.011C405.346 609.689 199.609 541.025 252.811 451.318C283.508 405.333 333.827 378.107 391.043 367.662C444.166 357.772 503.337 362.485 558.186 380.371C641.483 409.64 712.561 425.519 750.302 435.26Z" stroke="#0075FF" stroke-miterlimit="10"/>
<path d="M757.108 435.632C820.407 460.572 900.391 574.18 895.48 684.052C884.258 746.515 836.667 789.041 776.1 807.655C718.56 822.944 646.844 816.162 591.258 791.669C543.35 771.705 496.458 728.549 460.446 674.373C414.518 608.641 212.197 540.577 264.442 451.858C294.624 405.965 344.439 378.686 401.174 368.12C453.893 358.098 512.694 362.689 567.218 380.432C649.652 409.38 719.913 425.475 757.108 435.632Z" stroke="#0075FF" stroke-miterlimit="10"/>
<path d="M763.947 435.68C826.262 460.781 904.762 573.121 899.665 681.74C888.109 744.316 840.966 786.952 780.946 805.485C724.132 820.492 653.164 813.248 598.092 788.439C550.855 768.584 504.637 725.873 469.087 672.332C423.699 607.225 224.806 539.727 276.048 452.019C305.694 406.173 355.005 378.84 411.257 368.153C463.562 358.032 522.049 362.446 576.225 380.112C657.841 408.829 727.231 425.084 763.947 435.68Z" stroke="#0075FF" stroke-miterlimit="10"/>
<path d="M770.772 435.426C832.137 460.699 909.087 571.748 903.793 679.149C891.879 741.794 845.229 784.629 785.724 803.07C729.681 817.772 659.439 810.133 604.857 784.964C558.303 765.184 512.759 722.917 477.693 670.056C432.857 605.539 237.369 538.675 287.62 451.945C316.751 406.191 365.559 378.916 421.329 367.996C473.242 357.821 531.359 362.002 585.198 379.557C665.995 407.931 734.569 424.402 770.772 435.426Z" stroke="#0075FF" stroke-miterlimit="10"/>
<path d="M777.541 434.892C837.921 460.326 913.398 570.073 907.875 676.245C895.637 738.97 849.424 781.948 790.49 800.354C735.173 814.772 665.678 806.671 611.609 781.187C565.739 761.482 520.857 719.694 486.298 667.445C442.013 603.519 249.942 537.255 299.19 451.535C327.807 405.873 376.111 378.544 431.399 367.504C482.898 357.23 540.666 361.222 594.203 378.678C674.16 406.776 741.817 423.43 777.541 434.892Z" stroke="#0075FF" stroke-miterlimit="10"/>
<path d="M784.251 434.079C843.682 459.685 917.675 568.164 911.922 673.106C899.36 735.911 853.607 779.077 795.198 797.357C740.618 811.459 671.882 802.975 618.304 777.13C573.117 757.501 528.898 716.19 494.835 664.589C451.101 601.253 262.446 535.588 310.692 450.88C338.761 405.298 386.605 377.894 441.367 366.755C492.496 356.359 549.861 360.219 603.095 377.576C682.233 405.331 749.04 422.19 784.251 434.079Z" stroke="#0075FF" stroke-miterlimit="10"/>
<path d="M790.883 433.054C849.329 458.821 921.806 566.02 915.857 669.744C902.97 732.629 857.654 775.938 799.816 794.182C745.962 808.002 677.974 799.055 624.909 772.895C580.405 753.341 536.859 712.475 503.281 661.553C460.121 598.852 274.859 533.743 322.103 450.046C349.669 404.523 396.965 377.087 451.29 365.804C502.015 355.276 559.054 358.992 611.919 376.228C690.193 403.662 756.185 420.738 790.883 433.054Z" stroke="#0075FF" stroke-miterlimit="10"/>
<path d="M797.391 431.84C854.886 457.778 925.857 563.664 919.678 666.159C906.467 729.123 861.611 772.621 804.287 790.773C751.204 804.287 683.919 794.901 631.367 768.426C587.546 748.947 544.663 708.559 511.591 658.25C468.982 596.139 287.126 531.664 333.379 448.944C360.43 403.513 407.222 376.023 461.065 364.62C511.387 353.959 568.068 357.52 620.629 374.656C698.052 401.848 763.171 419.085 797.391 431.84Z" stroke="#0075FF" stroke-miterlimit="10"/>
<path d="M803.763 430.469C860.308 456.58 929.762 561.186 923.386 662.463C909.851 725.507 865.466 769.159 808.657 787.219C756.311 800.417 689.784 790.647 637.724 763.812C594.585 744.408 552.331 704.487 519.789 654.836C477.731 593.315 299.292 529.44 344.542 447.731C371.046 402.38 417.334 374.837 470.729 363.324C520.635 352.565 576.957 355.971 629.183 372.996C705.787 399.845 770.046 417.32 803.763 430.469Z" stroke="#0075FF" stroke-miterlimit="10"/>
<path d="M809.934 429.032C865.495 455.304 933.476 558.608 926.871 658.655C913.012 721.779 869.053 765.609 812.825 783.599C761.205 796.514 695.426 786.282 643.845 759.12C601.39 739.792 559.799 700.348 527.718 651.333C486.201 590.436 311.189 527.127 355.481 446.407C381.481 401.115 427.254 373.551 480.134 361.906C529.637 351.015 585.6 354.266 637.523 371.192C713.32 397.776 776.74 415.423 809.934 429.032Z" stroke="#0075FF" stroke-miterlimit="10"/>
<path d="M815.881 427.596C870.492 454.04 936.955 556.065 930.131 654.849C915.914 718.041 872.46 762.036 816.746 779.935C765.863 792.533 700.844 781.918 649.753 754.396C607.936 735.165 567.064 696.144 535.468 647.809C494.502 587.502 322.895 524.826 366.196 445.084C391.682 399.883 436.962 372.233 489.36 360.467C538.46 349.443 594.064 352.539 645.684 369.366C720.629 395.708 783.166 413.548 815.881 427.596Z" stroke="#0075FF" stroke-miterlimit="10"/>
<path d="M821.67 425.96C875.297 452.564 940.277 553.321 933.223 650.875C918.682 714.148 875.654 758.32 820.488 776.138C770.365 788.464 706.059 777.376 655.482 749.538C614.348 730.383 574.138 691.839 543.049 644.117C502.668 584.412 334.444 522.325 376.743 443.594C401.714 398.485 446.457 370.77 498.406 358.894C547.102 347.738 602.381 350.69 653.62 367.429C727.736 393.461 789.457 411.518 821.67 425.96Z" stroke="#0075FF" stroke-miterlimit="10"/>
<path d="M827.202 424.201C879.878 450.978 943.352 550.421 936.091 646.791C921.225 710.143 878.668 754.47 824.039 772.241C774.653 784.251 711.084 772.734 661.02 744.581C620.569 725.501 581.022 687.435 550.428 640.36C510.587 581.279 345.791 519.758 387.087 442.038C411.511 397.01 455.783 369.252 507.217 357.244C555.499 345.989 610.419 348.786 661.366 365.392C734.663 391.081 795.512 409.299 827.202 424.201Z" stroke="#0075FF" stroke-miterlimit="10"/>
<path d="M832.553 422.31C884.245 449.247 946.236 547.422 938.745 642.563C923.555 705.994 881.457 750.509 827.354 768.155C778.694 779.882 715.895 767.948 666.322 739.435C626.554 720.43 587.68 682.809 557.571 636.413C518.282 577.922 356.891 517.035 397.196 440.293C421.116 395.323 464.84 367.534 515.837 355.383C563.748 344.006 618.276 346.637 668.876 363.166C741.343 388.546 801.332 407.002 832.553 422.31Z" stroke="#0075FF" stroke-miterlimit="10"/>
<path d="M837.613 420.285C888.354 447.395 948.828 544.29 941.118 638.168C925.604 701.679 883.933 746.371 830.377 763.936C782.455 775.346 720.392 762.984 671.332 734.155C632.248 715.225 594.036 678.083 564.423 632.333C525.685 574.433 367.71 514.146 407.013 438.415C430.419 393.536 473.65 365.66 524.154 353.422C571.662 341.912 625.831 344.389 676.128 360.819C747.766 385.889 806.904 404.55 837.613 420.285Z" stroke="#0075FF" stroke-miterlimit="10"/>
<path d="M842.404 418.172C892.161 445.443 951.162 541.036 943.256 633.695C927.407 697.32 886.218 742.132 833.199 759.65C786.047 770.755 724.71 757.998 676.141 728.809C637.74 709.955 600.191 673.29 571.084 628.154C532.897 570.844 378.339 511.157 416.64 436.437C439.497 391.639 482.224 363.709 532.28 351.361C579.385 339.719 633.217 342.085 683.189 358.371C753.919 383.143 812.219 401.976 842.404 418.172Z" stroke="#0075FF" stroke-miterlimit="10"/>
<path d="M846.926 415.97C895.733 443.413 953.216 537.727 945.08 629.157C928.907 692.861 888.144 737.851 835.684 755.255C789.259 766.077 728.669 752.858 680.613 723.353C642.895 704.574 606.009 668.387 577.364 623.886C539.717 567.201 388.586 508.08 425.896 434.337C448.25 389.598 490.462 361.648 540.003 349.167C586.704 337.393 640.177 339.604 689.802 355.814C759.803 380.31 817.22 399.336 846.926 415.97Z" stroke="#0075FF" stroke-miterlimit="10"/>
<path d="M851.1 413.692C898.923 441.296 954.923 534.341 946.558 624.542C930.027 688.315 889.768 733.47 837.812 750.816C792.123 761.321 732.27 747.674 684.727 717.854C647.692 699.15 611.48 663.408 583.319 619.587C546.257 563.503 398.498 505.004 434.85 432.25C456.69 387.603 498.399 359.599 547.468 346.964C593.754 335.091 646.88 337.114 696.202 353.224C765.34 377.399 821.907 396.631 851.1 413.692Z" stroke="#0075FF" stroke-miterlimit="10"/>
<path d="M854.961 411.349C901.822 439.158 956.317 530.89 947.755 619.873C930.899 683.725 891.1 729.069 839.692 746.333C794.729 756.556 735.647 742.492 688.595 712.312C652.242 693.683 616.693 658.418 589.039 615.211C552.528 559.716 408.186 501.818 443.535 430.075C464.827 385.508 506.043 357.417 554.653 344.706C600.536 332.701 653.303 334.568 702.289 350.568C770.552 374.457 826.27 393.894 854.961 411.349Z" stroke="#0075FF" stroke-miterlimit="10"/>
<path d="M858.486 409.006C904.375 436.943 957.352 527.396 948.56 615.149C931.38 679.082 892.019 724.568 841.158 741.752C796.966 751.669 738.587 737.166 692.048 706.67C656.368 688.15 621.458 653.319 594.333 610.769C558.363 555.899 417.448 498.567 451.795 427.835C472.573 383.36 513.284 355.215 561.413 342.383C606.892 330.246 659.289 331.991 707.972 347.892C775.406 371.471 830.251 391.069 858.486 409.006Z" stroke="#0075FF" stroke-miterlimit="10"/>
<path d="M861.575 406.632C906.512 434.741 958.017 523.892 949.029 610.427C931.525 674.439 892.623 720.114 842.311 737.217C798.845 746.851 741.236 731.93 695.187 701.075C660.19 682.63 625.954 648.243 599.314 606.373C563.895 552.093 426.385 495.395 459.742 425.641C480.016 381.224 520.179 353.048 567.826 340.095C612.901 327.825 664.973 329.427 713.32 345.217C779.89 368.476 833.886 388.278 861.575 406.632Z" stroke="#0075FF" stroke-miterlimit="10"/>
<path d="M864.294 404.249C908.281 432.53 958.269 520.401 949.017 605.695C931.189 669.787 892.724 715.606 842.949 732.662C800.22 741.98 743.347 726.63 697.812 695.459C663.498 677.09 629.925 643.181 603.781 601.958C568.913 548.268 434.819 492.169 467.173 423.426C486.933 379.101 526.603 350.838 573.768 337.764C618.44 325.362 670.153 326.809 718.164 342.489C783.971 365.46 837.118 385.468 864.294 404.249Z" stroke="#0075FF" stroke-miterlimit="10"/>
<path d="M866.599 401.879C909.602 430.321 958.106 516.923 948.669 600.966C930.518 665.138 892.512 711.144 843.262 728.075C801.271 737.076 745.168 721.309 700.113 689.812C666.448 671.507 633.571 638.087 607.9 597.465C573.572 544.4 442.906 488.867 474.258 421.136C493.47 376.891 532.636 348.574 579.352 335.391C623.644 322.901 674.964 324.181 722.672 339.762C787.605 362.446 839.902 382.659 866.599 401.879Z" stroke="#0075FF" stroke-miterlimit="10"/>
<path d="M868.479 399.555C910.498 428.158 957.496 513.447 947.852 596.305C929.376 660.557 891.808 706.707 843.129 723.601C801.897 732.331 746.497 716.125 701.966 684.278C668.984 666.048 636.77 633.106 611.594 593.131C577.852 540.667 450.557 485.757 480.918 419.003C499.626 374.816 538.277 346.48 584.512 333.175C628.4 320.553 679.361 321.679 726.733 337.149C790.814 359.479 842.261 379.897 868.479 399.555Z" stroke="#0075FF" stroke-miterlimit="10"/>
<path d="M869.866 397.256C910.935 426.031 956.416 510.041 946.553 591.636C927.719 655.956 890.645 702.305 842.48 719.107C801.985 727.521 747.322 710.886 703.304 678.724C671.005 660.57 639.465 628.072 614.773 588.777C581.582 536.903 457.715 482.56 487.107 416.828C505.301 372.733 543.426 344.298 589.168 330.906C632.652 318.151 683.254 319.122 730.323 334.493C793.586 356.592 844.161 377.17 869.866 397.256Z" stroke="#0075FF" stroke-miterlimit="10"/>
<path d="M870.784 395.026C910.892 424.007 954.866 506.703 944.773 587.069C925.616 651.469 889.012 697.972 841.361 714.683C801.592 722.813 747.699 705.762 704.172 673.24C672.557 655.16 641.679 623.141 617.494 584.459C584.843 533.209 464.393 479.465 492.793 414.711C510.439 370.697 548.094 342.219 593.365 328.673C636.445 315.786 686.711 316.646 733.444 331.906C795.833 353.718 845.547 374.536 870.784 395.026Z" stroke="#0075FF" stroke-miterlimit="10"/>
<path d="M871.188 392.888C910.311 422.029 952.802 503.457 942.513 582.605C923.031 647.085 886.853 693.765 839.785 710.406C800.753 718.22 747.596 700.74 704.583 667.902C673.65 649.898 643.435 618.357 619.746 580.321C587.646 529.662 470.601 476.552 498.01 412.775C515.153 368.819 552.293 340.321 597.082 326.654C639.759 313.634 689.666 314.34 736.062 329.49C797.599 350.948 846.464 371.97 871.188 392.888Z" stroke="#0075FF" stroke-miterlimit="10"/>
<path d="M871.033 390.864C909.217 420.144 950.19 500.293 939.672 578.21C919.854 642.804 884.147 689.639 837.593 706.188C799.287 713.719 746.912 695.788 704.378 662.624C674.117 644.729 644.587 613.598 621.382 576.243C589.834 526.173 476.205 473.663 502.612 410.897C519.24 367.033 555.843 338.471 600.15 324.683C642.423 311.531 691.972 312.081 738.066 327.132C798.839 348.302 846.832 369.485 871.033 390.864Z" stroke="#0075FF" stroke-miterlimit="10"/>
<path d="M870.363 388.932C907.563 418.373 947.053 497.253 936.338 573.953C916.197 638.625 880.927 685.604 834.92 702.073C797.385 709.298 745.702 690.961 703.692 657.448C674.115 639.628 645.247 608.976 622.538 572.267C591.574 522.799 481.328 470.878 506.733 409.123C522.813 365.34 558.956 336.701 602.782 322.792C644.641 309.541 693.841 309.903 739.588 324.877C799.487 345.761 846.675 367.126 870.363 388.932Z" stroke="#0075FF" stroke-miterlimit="10"/>
<path d="M868.829 386.568C905.079 416.181 943.063 493.748 932.118 569.218C911.652 633.971 876.842 681.137 831.384 697.525C794.586 704.434 743.639 685.669 702.142 651.84C673.248 634.096 645.043 603.921 622.807 567.814C592.384 518.97 485.565 467.615 509.967 406.872C525.533 363.18 561.139 334.477 604.516 320.458C645.972 307.075 694.836 307.326 740.257 322.156C799.327 342.73 845.621 364.323 868.829 386.568Z" stroke="#0075FF" stroke-miterlimit="10"/>
<path d="M866.37 382.597C901.669 412.382 938.136 488.669 926.961 562.91C906.172 627.742 871.832 675.064 826.877 691.393C790.805 698.019 740.629 678.837 699.623 644.648C671.412 626.979 643.869 597.282 622.129 561.822C592.257 513.568 488.843 462.847 512.254 403.081C527.317 359.447 562.419 330.69 605.303 316.584C646.355 303.068 694.86 303.165 739.979 317.896C798.219 338.16 843.674 359.925 866.37 382.597Z" stroke="#0075FF" stroke-miterlimit="10"/>
<path d="M863.852 378.123C898.167 408.069 933.151 483.088 921.791 556.077C900.643 620.978 866.764 668.487 822.401 684.713C787.067 691.023 737.626 671.412 697.1 636.897C669.572 619.303 642.669 590.04 621.447 555.27C592.127 507.607 492.096 457.475 514.538 398.731C529.087 355.189 563.651 326.367 606.054 312.141C646.702 298.492 694.848 298.434 739.619 313.088C797.063 333.054 841.669 355.024 863.852 378.123Z" stroke="#0075FF" stroke-miterlimit="10"/>
<path d="M861.299 373.19C894.663 403.308 928.14 477.014 916.54 548.807C895.068 613.788 861.659 661.452 817.8 677.62C783.225 683.658 734.533 663.585 694.486 628.744C667.641 611.225 641.401 582.439 620.686 548.283C591.905 501.244 495.302 451.678 516.753 393.911C530.753 350.45 564.847 321.586 606.779 307.205C647.024 293.424 694.8 293.244 739.28 307.765C795.827 327.512 839.584 349.687 861.299 373.19Z" stroke="#0075FF" stroke-miterlimit="10"/>
<path d="M858.643 367.889C891.023 398.168 923.017 470.606 911.197 541.136C889.401 606.196 856.419 654.037 813.108 670.125C779.27 675.846 731.303 655.379 691.781 620.188C665.619 602.744 640.041 574.437 619.822 540.927C591.592 494.478 498.395 445.545 518.888 388.768C532.385 345.365 565.941 316.436 607.414 301.978C647.255 288.065 694.706 287.741 738.85 302.152C794.545 321.544 837.451 343.924 858.643 367.889Z" stroke="#0075FF" stroke-miterlimit="10"/>
<path d="M855.963 362.208C887.392 392.659 917.869 463.817 905.82 533.118C883.7 598.258 851.188 646.253 808.425 662.26C775.313 667.699 728.094 646.769 689.084 611.263C663.572 593.883 638.702 566.032 618.967 533.202C591.322 487.354 501.507 439.011 520.999 383.244C533.981 339.933 567.034 310.95 608.024 296.372C647.462 282.326 694.554 281.848 738.35 296.181C793.227 315.231 835.25 337.805 855.963 362.208Z" stroke="#0075FF" stroke-miterlimit="10"/>
<path d="M853.202 356.202C883.648 386.814 912.652 456.67 900.396 524.787C877.951 590.007 845.9 638.19 803.651 654.105C771.276 659.227 724.816 637.914 686.297 602.048C661.457 584.777 637.26 557.369 617.987 525.175C590.883 479.952 504.496 432.174 522.984 377.419C535.419 334.189 567.968 305.152 608.477 290.453C647.511 276.275 694.244 275.641 737.737 289.876C791.829 308.593 833.003 331.372 853.202 356.202Z" stroke="#0075FF" stroke-miterlimit="10"/>
<path d="M850.418 349.929C879.903 380.747 907.401 449.289 894.925 516.143C872.157 581.443 840.542 629.769 798.83 645.637C767.226 650.454 721.469 628.702 683.464 592.52C659.306 575.324 635.772 548.395 617.006 516.813C590.453 472.18 507.471 425.036 524.969 371.258C536.889 328.12 568.945 298.996 608.972 284.176C647.602 269.865 693.966 269.11 737.123 283.235C790.396 301.721 830.72 324.705 850.418 349.929Z" stroke="#0075FF" stroke-miterlimit="10"/>
<path d="M847.578 343.488C876.089 374.433 902.104 441.707 889.398 507.331C866.306 572.711 835.151 621.225 793.998 636.979C763.12 641.513 718.144 619.31 680.618 582.801C657.144 565.681 634.273 539.229 616.002 508.295C590 464.252 510.435 417.708 526.93 364.941C538.347 321.861 569.854 292.706 609.433 277.776C647.694 263.344 693.664 262.423 736.519 276.448C788.884 294.636 828.37 317.792 847.578 343.488Z" stroke="#0075FF" stroke-miterlimit="10"/>
<path d="M844.658 336.835C872.207 367.985 896.716 433.946 883.814 498.352C860.364 563.8 829.68 612.47 789.064 628.176C758.923 632.393 714.672 609.795 677.671 572.938C654.88 555.893 632.682 529.886 614.896 499.631C589.435 456.212 513.297 410.235 528.79 358.479C539.659 315.479 570.706 286.248 609.759 271.22C647.616 256.656 693.262 255.591 735.78 269.505C787.36 287.361 825.963 310.711 844.658 336.835Z" stroke="#0075FF" stroke-miterlimit="10"/>
<path d="M841.737 330.069C868.303 361.381 891.328 426.074 878.196 489.25C854.422 554.778 824.198 603.635 784.096 619.25C754.681 623.184 711.178 600.125 674.69 562.952C652.582 545.982 631.047 520.453 613.767 490.811C588.858 447.983 516.136 402.605 530.637 351.827C540.992 308.919 571.502 279.623 610.106 264.485C647.549 249.822 692.836 248.602 735.018 262.406C785.768 279.953 823.521 303.508 841.737 330.069Z" stroke="#0075FF" stroke-miterlimit="10"/>
<path d="M838.738 323.204C864.353 354.687 885.861 418.101 872.51 480.014C848.401 545.655 818.625 594.623 779.105 610.168C750.461 613.796 707.683 590.342 671.686 552.809C650.261 535.914 629.388 510.863 612.604 481.868C588.279 439.641 518.929 394.886 532.44 345.085C542.291 302.236 572.264 272.875 610.42 257.627C647.459 242.831 692.387 241.456 734.266 255.161C784.12 272.488 821.034 296.215 838.738 323.204Z" stroke="#0075FF" stroke-miterlimit="10"/>
<path d="M835.671 316.316C860.302 347.961 880.338 410.072 866.78 470.801C842.346 536.522 813.03 585.677 774.024 601.13C746.106 604.476 704.076 580.56 668.592 542.711C647.85 525.892 627.652 501.285 611.352 472.97C587.578 431.334 521.645 387.178 534.186 338.4C543.523 295.642 572.992 266.228 610.666 250.859C647.302 235.931 691.871 234.401 733.414 247.996C782.416 264.968 818.481 288.9 835.671 316.316Z" stroke="#0075FF" stroke-miterlimit="10"/>
<path d="M832.593 309.463C856.274 341.279 874.792 402.111 861.016 461.576C836.258 527.377 807.401 576.721 768.91 592.082C741.729 595.112 700.469 570.778 665.465 532.603C645.406 515.859 625.87 491.73 610.032 464.051C586.799 423.038 524.292 379.449 535.832 331.682C544.621 289.005 573.597 259.503 610.778 244.047C647.01 228.986 691.22 227.301 732.449 240.83C780.7 257.482 815.882 281.608 832.593 309.463Z" stroke="#0075FF" stroke-miterlimit="10"/>
<path d="M829.426 302.654C852.123 334.631 869.157 394.194 855.151 452.431C830.069 518.311 801.65 567.798 763.74 583.09C737.296 585.803 696.762 561.075 662.282 522.55C642.895 505.915 623.999 482.22 608.702 455.164C586.02 414.742 526.919 371.786 537.467 324.997C545.741 282.411 574.214 252.856 610.924 237.246C646.719 222.042 690.626 220.257 731.53 233.642C778.895 250.041 813.227 274.372 829.426 302.654Z" stroke="#0075FF" stroke-miterlimit="10"/>
<path d="M826.249 295.99C847.995 328.14 863.523 386.39 849.276 443.431C823.87 509.391 795.91 559.066 758.515 574.266C732.831 576.707 693.011 551.506 659.044 512.666C640.34 496.106 622.107 472.889 607.305 446.48C585.174 406.648 529.49 364.292 539.036 318.513C546.807 275.986 574.73 246.4 610.993 230.68C646.384 215.343 689.932 213.404 730.5 226.679C777.08 242.745 810.563 267.281 826.249 295.99Z" stroke="#0075FF" stroke-miterlimit="10"/>
<path d="M823.038 289.428C843.834 321.749 857.845 378.72 843.413 434.509C817.649 500.538 790.16 550.367 753.335 565.531C728.388 567.656 689.327 542.071 655.851 502.871C637.83 486.386 620.271 463.613 605.954 437.884C584.363 398.676 532.106 356.887 540.649 312.119C547.873 269.673 575.337 240.011 611.107 224.203C646.094 208.734 689.284 206.64 729.538 219.849C775.187 235.572 807.82 260.314 823.038 289.428Z" stroke="#0075FF" stroke-miterlimit="10"/>
<path d="M819.75 283.1C839.562 315.583 852.056 371.274 837.427 425.844C811.339 491.953 784.31 541.971 748.011 557.009C723.79 558.851 685.477 532.804 652.514 493.289C635.142 476.868 618.279 454.585 604.469 429.468C583.463 390.862 534.577 349.695 542.13 305.905C548.839 263.551 575.766 233.823 611.053 217.895C645.637 202.294 688.457 200.078 728.386 213.143C773.262 228.613 805.045 253.559 819.75 283.1Z" stroke="#0075FF" stroke-miterlimit="10"/>
<path d="M816.453 277.031C835.314 309.685 846.302 364.063 831.444 417.404C805.031 483.593 778.473 533.765 742.677 548.745C719.193 550.27 681.65 523.806 649.167 483.964C632.478 467.619 616.278 445.813 602.963 421.344C582.508 383.327 537.039 342.761 543.6 299.948C549.806 257.652 576.195 227.86 611.035 211.821C645.215 196.088 687.71 193.728 727.302 206.683C771.326 221.91 802.238 247.017 816.453 277.031Z" stroke="#0075FF" stroke-miterlimit="10"/>
<path d="M813.1 271.24C830.978 304.056 840.482 357.165 825.427 409.288C798.691 475.557 772.559 525.906 737.356 540.783C714.643 542.002 677.791 515.133 645.832 474.942C629.827 458.672 614.3 437.31 601.47 413.521C581.555 376.128 539.514 336.128 545.073 294.327C550.73 252.111 576.649 222.276 611.007 206.117C644.784 190.251 686.919 187.736 726.198 200.625C769.336 215.488 799.387 240.833 813.1 271.24Z" stroke="#0075FF" stroke-miterlimit="10"/>
<path d="M809.705 265.808C826.632 298.796 834.63 350.592 819.346 401.486C792.285 467.834 766.624 518.338 731.924 533.156C709.937 534.093 673.833 506.761 642.387 466.255C627.065 450.06 612.201 429.177 599.832 406.023C580.469 369.221 541.833 329.854 546.434 289.041C551.577 246.917 576.97 216.984 610.835 200.738C644.208 184.739 685.974 182.103 724.927 194.848C767.27 209.412 796.482 234.929 809.705 265.808Z" stroke="#0075FF" stroke-miterlimit="10"/>
<path d="M806.256 260.768C822.198 293.917 828.713 344.444 813.199 394.109C785.814 460.536 760.579 511.217 726.427 525.955C705.177 526.576 669.832 498.86 638.877 457.994C624.238 441.874 610.036 421.469 598.175 398.928C579.363 362.716 544.143 323.949 547.742 284.147C552.371 242.115 577.226 212.118 610.643 195.761C643.612 179.63 685.019 176.839 723.67 189.485C765.216 203.751 793.545 229.462 806.256 260.768Z" stroke="#0075FF" stroke-miterlimit="10"/>
<path d="M802.775 256.164C817.767 289.485 822.765 338.733 807.065 387.145C779.356 453.653 754.592 504.488 720.988 519.145C700.464 519.483 665.867 491.305 635.425 450.123C621.469 434.079 607.93 414.152 596.564 392.257C578.326 356.68 546.5 318.469 549.097 279.678C553.222 237.704 577.517 207.597 610.508 191.176C643.063 174.834 684.122 171.966 722.426 184.535C763.098 198.514 790.611 224.441 802.775 256.164Z" stroke="#0075FF" stroke-miterlimit="10"/>
<path d="M799.285 252.041C813.293 285.523 816.819 333.469 800.878 380.686C772.811 447.262 748.54 498.296 715.451 512.861C695.664 512.883 661.837 484.288 631.875 442.779C618.591 426.844 605.737 407.327 594.855 386.113C577.169 351.127 548.759 313.515 550.353 275.736C553.931 233.842 577.767 203.659 610.265 187.15C642.416 170.676 683.15 167.665 721.117 180.123C760.937 193.748 787.6 219.88 799.285 252.041Z" stroke="#0075FF" stroke-miterlimit="10"/>
<path d="M795.742 248.422C808.8 282.076 810.808 328.742 794.637 374.729C766.235 441.419 742.413 492.563 709.86 507.081C690.833 506.831 657.709 477.797 628.238 435.928C615.636 420.068 603.445 401.029 593.07 380.428C575.935 346.032 550.931 309.054 551.534 272.252C554.597 230.451 577.895 200.203 609.911 183.573C641.659 166.966 682.023 163.833 719.699 176.159C758.745 189.53 784.525 215.856 795.742 248.422Z" stroke="#0075FF" stroke-miterlimit="10"/>
<path d="M792.112 245.407C804.186 279.222 804.711 324.62 788.355 369.355C759.629 436.124 736.266 487.457 704.272 501.86C685.982 501.293 653.595 471.831 624.637 429.647C612.719 413.862 601.19 395.301 591.31 375.346C574.727 341.541 553.139 305.162 552.739 269.372C555.299 227.629 578.083 197.361 609.628 180.576C640.961 163.871 680.977 160.549 718.306 172.798C756.477 185.882 781.419 212.38 792.112 245.407Z" stroke="#0075FF" stroke-miterlimit="10"/>
<path d="M788.474 242.985C799.598 276.971 798.616 321.056 782.02 364.596C752.969 431.445 730.033 482.954 698.587 497.277C681.034 496.394 649.417 466.514 620.938 424.004C609.703 408.294 598.814 390.167 589.42 370.892C573.376 337.71 555.216 301.898 553.825 267.085C555.837 225.423 578.127 195.067 609.214 178.207C640.143 161.369 679.8 157.893 716.826 170.042C754.191 182.861 778.294 209.531 788.474 242.985Z" stroke="#0075FF" stroke-miterlimit="10"/>
<path d="M784.762 241.245C794.934 275.404 792.436 318.21 775.62 360.486C746.246 427.415 723.78 479.079 692.871 493.355C676.045 492.188 645.164 461.88 617.21 419.021C606.658 403.386 596.431 385.737 587.532 367.109C572.04 334.517 557.285 299.339 554.903 265.503C556.4 223.933 578.187 193.524 608.791 176.542C639.317 159.572 678.638 155.985 715.294 168.013C751.84 180.489 775.06 207.353 784.762 241.245Z" stroke="#0075FF" stroke-miterlimit="10"/>
<path d="M687.036 490.137C670.98 488.665 640.835 457.929 613.361 414.743C585.92 371.568 561.16 315.909 555.895 264.638C556.878 223.159 578.127 192.685 608.249 175.583C638.372 158.48 677.334 154.738 713.687 166.667C749.359 178.856 771.729 205.925 780.951 240.256C790.14 274.576 786.158 316.113 769.113 357.16C739.436 424.101 717.43 475.953 687.036 490.137Z" stroke="#0075FF" stroke-miterlimit="10"/>
</g>
<defs>
<clipPath id="clip0_115_61803">
<rect width="664.345" height="898.211" fill="white" transform="translate(1060.57 280.045) rotate(108.167)"/>
</clipPath>
</defs>
</svg>
