<svg width="567" height="181" viewBox="0 0 567 181" fill="none" xmlns="http://www.w3.org/2000/svg">
<mask id="mask0_118_83661" style="mask-type:alpha" maskUnits="userSpaceOnUse" x="0" y="0" width="567" height="181">
<mask id="mask1_118_83661" style="mask-type:alpha" maskUnits="userSpaceOnUse" x="0" y="0" width="567" height="181">
<path d="M449.964 180.779C426.243 180.779 406.936 161.47 406.936 137.747C406.936 114.024 426.243 94.7145 449.964 94.7145C473.684 94.7145 492.991 114.024 492.991 137.747C492.991 161.47 473.684 180.779 449.964 180.779ZM449.964 96.3077C427.12 96.3077 408.529 114.9 408.529 137.747C408.529 160.593 427.12 179.186 449.964 179.186C472.808 179.186 491.398 160.593 491.398 137.747C491.398 114.9 472.808 96.3077 449.964 96.3077Z" fill="#0075FF"/>
<path d="M449.964 168.289C433.125 168.289 419.425 154.587 419.425 137.747C419.425 120.907 433.125 107.205 449.964 107.205C466.802 107.205 480.502 120.907 480.502 137.747C480.502 154.587 466.802 168.289 449.964 168.289ZM449.964 107.843C433.476 107.843 420.062 121.257 420.062 137.747C420.062 154.237 433.476 167.651 449.964 167.651C466.451 167.651 479.865 154.237 479.865 137.747C479.865 121.257 466.451 107.843 449.964 107.843ZM447.192 162.346L446.825 162.298C442.46 161.741 438.303 160.02 434.814 157.312L434.527 157.089L443.751 147.864L443.958 147.991C444.882 148.533 445.901 148.947 446.953 149.234L447.192 149.298V162.346ZM435.499 157.041C438.749 159.478 442.556 161.056 446.554 161.629V149.808C445.615 149.537 444.707 149.17 443.846 148.692L435.499 157.041ZM452.735 162.346V149.314L452.974 149.25C454.026 148.979 455.029 148.565 455.969 148.007L456.176 147.88L465.4 157.104L465.113 157.327C461.624 160.036 457.467 161.757 453.102 162.314L452.735 162.346ZM453.373 149.792V161.613C457.371 161.04 461.178 159.462 464.428 157.025L456.065 148.66C455.221 149.154 454.313 149.537 453.373 149.792ZM430.608 153.185L430.385 152.898C427.677 149.409 425.957 145.251 425.399 140.886L425.351 140.519H438.382L438.446 140.758C438.717 141.81 439.131 142.813 439.689 143.753L439.816 143.961L430.608 153.185ZM426.1 141.156C426.674 145.155 428.251 148.963 430.688 152.213L439.051 143.849C438.573 143.005 438.207 142.096 437.936 141.141H426.1V141.156ZM469.319 153.185L460.095 143.961L460.223 143.753C460.764 142.813 461.194 141.81 461.465 140.758L461.529 140.519H474.56L474.512 140.886C473.954 145.251 472.234 149.409 469.526 152.898L469.319 153.185ZM460.892 143.865L469.255 152.229C471.692 148.979 473.27 145.171 473.843 141.172H462.023C461.752 142.096 461.37 143.005 460.892 143.865ZM438.398 134.975H425.367L425.415 134.608C425.973 130.243 427.693 126.085 430.401 122.596L430.624 122.309L439.848 131.534L439.72 131.741C439.179 132.665 438.765 133.684 438.478 134.736L438.398 134.975ZM426.1 134.338H437.92C438.191 133.398 438.558 132.489 439.035 131.629L430.672 123.265C428.235 126.515 426.658 130.339 426.1 134.338ZM474.56 134.975H461.529L461.465 134.736C461.194 133.684 460.78 132.681 460.223 131.741L460.095 131.534L469.319 122.309L469.542 122.596C472.25 126.085 473.97 130.243 474.528 134.608L474.56 134.975ZM462.023 134.338H473.843C473.27 130.339 471.692 126.515 469.255 123.281L460.892 131.645C461.37 132.489 461.752 133.398 462.023 134.338ZM456.176 127.614L455.969 127.487C455.045 126.945 454.026 126.515 452.974 126.244L452.735 126.18V113.148L453.102 113.196C457.467 113.753 461.624 115.474 465.113 118.182L465.4 118.406L456.176 127.614ZM453.373 125.686C454.313 125.957 455.221 126.324 456.081 126.802L464.444 118.437C461.194 116 457.387 114.423 453.389 113.849V125.686H453.373ZM443.751 127.614L434.527 118.39L434.814 118.167C438.303 115.458 442.46 113.737 446.825 113.18L447.192 113.132V126.164L446.953 126.228C445.901 126.499 444.898 126.913 443.958 127.471L443.751 127.614ZM435.499 118.453L443.862 126.818C444.707 126.34 445.615 125.957 446.57 125.702V113.881C442.556 114.438 438.749 116.016 435.499 118.453Z" fill="#0075FF"/>
<path d="M449.963 162.585C436.263 162.585 425.128 151.433 425.128 137.747C425.128 124.045 436.279 112.909 449.963 112.909C463.663 112.909 474.798 124.061 474.798 137.747C474.814 151.449 463.663 162.585 449.963 162.585ZM449.963 113.546C436.614 113.546 425.765 124.412 425.765 137.747C425.765 151.098 436.63 161.948 449.963 161.948C463.313 161.948 474.161 151.082 474.161 137.747C474.161 124.396 463.313 113.546 449.963 113.546Z" fill="#0075FF"/>
<path d="M449.963 147.274C444.706 147.274 440.437 143.004 440.437 137.747C440.437 132.489 444.706 128.219 449.963 128.219C455.22 128.219 459.49 132.489 459.49 137.747C459.49 142.988 455.22 147.274 449.963 147.274ZM449.963 128.857C445.057 128.857 441.074 132.84 441.074 137.747C441.074 142.654 445.057 146.637 449.963 146.637C454.87 146.637 458.852 142.654 458.852 137.747C458.852 132.84 454.87 128.857 449.963 128.857Z" fill="#0075FF"/>
<path d="M449.963 177.688C427.932 177.688 410.026 159.765 410.026 137.747C410.026 115.729 427.948 97.8053 449.963 97.8053C471.995 97.8053 489.901 115.729 489.901 137.747C489.901 159.765 471.995 177.688 449.963 177.688ZM449.963 99.3985C428.824 99.3985 411.619 116.605 411.619 137.747C411.619 158.889 428.824 176.095 449.963 176.095C471.103 176.095 488.308 158.889 488.308 137.747C488.308 116.605 471.119 99.3985 449.963 99.3985Z" fill="#0075FF"/>
<path d="M123.951 180.779C100.231 180.779 80.9233 161.47 80.9233 137.747C80.9233 114.024 100.231 94.7145 123.951 94.7145C147.671 94.7145 166.978 114.024 166.978 137.747C166.963 161.47 147.671 180.779 123.951 180.779ZM123.951 96.3077C101.107 96.3077 82.5164 114.9 82.5164 137.747C82.5164 160.593 101.107 179.186 123.951 179.186C146.795 179.186 165.385 160.593 165.385 137.747C165.37 114.9 146.795 96.3077 123.951 96.3077Z" fill="#0075FF"/>
<path d="M123.951 168.289C107.113 168.289 93.4126 154.587 93.4126 137.747C93.4126 120.907 107.113 107.205 123.951 107.205C140.789 107.205 154.489 120.907 154.489 137.747C154.489 154.587 140.789 168.289 123.951 168.289ZM123.951 107.843C107.463 107.843 94.0498 121.257 94.0498 137.747C94.0498 154.237 107.463 167.651 123.951 167.651C140.439 167.651 153.852 154.237 153.852 137.747C153.852 121.257 140.439 107.843 123.951 107.843ZM126.723 162.346V149.314L126.962 149.25C128.013 148.979 129.017 148.565 129.957 148.007L130.164 147.88L139.387 157.104L139.101 157.327C135.612 160.036 131.454 161.757 127.089 162.314L126.723 162.346ZM127.36 149.792V161.613C131.358 161.04 135.166 159.462 138.416 157.025L130.052 148.66C129.208 149.154 128.3 149.537 127.36 149.792ZM121.179 162.346L120.813 162.298C116.448 161.741 112.29 160.02 108.801 157.312L108.514 157.089L117.738 147.864L117.945 147.991C118.869 148.533 119.889 148.947 120.94 149.234L121.179 149.298V162.346ZM109.486 157.041C112.736 159.478 116.543 161.056 120.542 161.629V149.808C119.602 149.537 118.694 149.17 117.834 148.692L109.486 157.041ZM104.596 153.185L104.373 152.898C101.664 149.409 99.944 145.251 99.3864 140.886L99.3386 140.519H112.37L112.433 140.758C112.704 141.81 113.118 142.813 113.676 143.753L113.803 143.961L104.596 153.185ZM100.071 141.156C100.645 145.155 102.222 148.979 104.659 152.213L113.023 143.849C112.545 143.005 112.178 142.096 111.908 141.141H100.071V141.156ZM143.29 153.185L134.067 143.961L134.194 143.753C134.736 142.813 135.15 141.81 135.437 140.758L135.5 140.519H148.547L148.499 140.886C147.942 145.251 146.221 149.409 143.513 152.898L143.29 153.185ZM134.879 143.865L143.242 152.229C145.68 148.979 147.257 145.171 147.83 141.172H136.01C135.723 142.096 135.357 143.005 134.879 143.865ZM112.386 134.975H99.3546L99.3864 134.608C99.944 130.243 101.664 126.085 104.373 122.596L104.596 122.309L113.819 131.534L113.692 131.741C113.15 132.665 112.736 133.684 112.449 134.736L112.386 134.975ZM100.071 134.338H111.892C112.162 133.398 112.529 132.489 113.007 131.629L104.643 123.265C102.222 126.515 100.645 130.323 100.071 134.338ZM148.547 134.975H135.516L135.453 134.736C135.182 133.684 134.767 132.681 134.21 131.741L134.083 131.534L143.306 122.309L143.529 122.596C146.237 126.085 147.958 130.243 148.515 134.608L148.547 134.975ZM135.994 134.338H147.814C147.241 130.339 145.664 126.515 143.226 123.281L134.863 131.645C135.357 132.489 135.723 133.398 135.994 134.338ZM130.164 127.614L129.957 127.487C129.033 126.945 128.013 126.515 126.962 126.244L126.723 126.18V113.148L127.089 113.196C131.454 113.753 135.612 115.474 139.101 118.182L139.387 118.406L130.164 127.614ZM127.36 125.686C128.3 125.957 129.208 126.324 130.068 126.802L138.431 118.437C135.182 116 131.374 114.423 127.376 113.849V125.686H127.36ZM117.738 127.614L108.514 118.39L108.801 118.167C112.29 115.458 116.448 113.737 120.813 113.18L121.179 113.132V126.164L120.94 126.228C119.889 126.499 118.885 126.913 117.945 127.471L117.738 127.614ZM109.486 118.453L117.85 126.818C118.694 126.34 119.602 125.973 120.558 125.702V113.881C116.527 114.438 112.72 116.016 109.486 118.453Z" fill="#0075FF"/>
<path d="M123.951 162.585C110.251 162.585 99.1157 151.433 99.1157 137.747C99.1157 124.045 110.267 112.909 123.951 112.909C137.651 112.909 148.786 124.061 148.786 137.747C148.786 151.449 137.651 162.585 123.951 162.585ZM123.951 113.546C110.601 113.546 99.7529 124.412 99.7529 137.747C99.7529 151.098 110.617 161.948 123.951 161.948C137.301 161.948 148.149 151.082 148.149 137.747C148.149 124.396 137.285 113.546 123.951 113.546Z" fill="#0075FF"/>
<path d="M123.951 147.274C118.694 147.274 114.424 143.004 114.424 137.747C114.424 132.489 118.694 128.219 123.951 128.219C129.208 128.219 133.477 132.489 133.477 137.747C133.461 142.988 129.192 147.274 123.951 147.274ZM123.951 128.857C119.044 128.857 115.062 132.84 115.062 137.747C115.062 142.654 119.044 146.637 123.951 146.637C128.857 146.637 132.84 142.654 132.84 137.747C132.824 132.84 128.841 128.857 123.951 128.857Z" fill="#0075FF"/>
<path d="M123.951 177.688C101.919 177.688 84.0137 159.765 84.0137 137.747C84.0137 115.729 101.919 97.8053 123.951 97.8053C145.982 97.8053 163.888 115.729 163.888 137.747C163.888 159.765 145.966 177.688 123.951 177.688ZM123.951 99.3985C102.811 99.3985 85.6067 116.605 85.6067 137.747C85.6067 158.889 102.811 176.095 123.951 176.095C145.09 176.095 162.295 158.889 162.295 137.747C162.295 116.605 145.09 99.3985 123.951 99.3985Z" fill="#0075FF"/>
<path d="M403.065 150.62H171.471L171.583 137.747C171.583 111.491 150.22 90.1102 123.951 90.1102C97.6822 90.1102 76.3197 111.475 76.3197 137.747L76.2719 150.62H27.9396C17.123 150.62 6.609 148.358 3.00877 131.884C0.0935363 118.501 -0.113557 111.81 2.30784 108.814C3.59819 107.221 5.47796 106.855 7.1347 106.791C8.01087 103.366 12.7262 86.6529 21.5834 82.7018C33.2444 77.492 66.7935 66.6423 160.638 52.4469C165.306 51.7459 174.45 46.8069 186.015 40.5456C207.219 29.0905 236.275 13.3975 268.661 5.68636C280.768 2.78673 308.423 0.779297 335.935 0.779297C357.281 0.779297 374.247 1.9742 383.741 4.14095C406.872 9.43039 441.281 23.9285 461.832 32.5956C471.119 36.5148 478.463 39.6056 480.486 40.0358C481.665 40.2907 484.914 40.689 489.391 41.2466C521.665 45.2297 551.821 50.0889 553.892 58.6285C556.616 69.8128 559.818 97.5504 559.978 101.279C560.248 101.406 560.87 101.549 561.332 101.661C563.196 102.107 566.015 102.776 566.015 105.325C566.015 106.265 566.031 107.269 566.031 108.336C566.127 118.166 566.254 133.031 559.277 143.307C556.266 147.752 507.981 149.903 498.328 150.285L497.547 150.317L496.878 137.795C496.878 111.889 475.834 90.8431 449.963 90.8431C424.093 90.8431 403.065 111.889 403.065 137.747V150.62ZM173.064 149.027H401.456V137.747C401.456 110.997 423.217 89.2498 449.948 89.2498C476.694 89.2498 498.439 111.013 498.439 137.747L499.045 148.676C526.445 147.545 556.202 144.996 557.955 142.415C564.661 132.553 564.518 117.991 564.438 108.352C564.422 107.285 564.422 106.281 564.422 105.325C564.422 104.13 562.861 103.652 560.965 103.206C559.579 102.872 558.385 102.585 558.385 101.518C558.385 99.6057 555.119 70.4979 552.331 59.0109C550.228 50.3757 505.879 44.8951 489.184 42.8399C484.66 42.2822 481.394 41.8839 480.135 41.6131C477.969 41.1511 470.944 38.1877 461.21 34.0772C440.708 25.4261 406.378 10.9599 383.375 5.70229C374.008 3.55147 357.154 2.3725 335.935 2.3725C308.535 2.3725 281.023 4.364 269.044 7.21584C236.849 14.8951 207.904 30.5244 186.78 41.9317C174.609 48.5117 165.816 53.2594 160.877 54.0082C67.2236 68.1718 33.8179 78.9578 22.2366 84.1357C14.5741 87.5611 9.66761 102.696 8.53656 107.731L8.39319 108.352H7.75598C5.62133 108.352 4.36284 108.783 3.5504 109.802C1.52726 112.319 1.84586 119.027 4.56993 131.533C8.09052 147.673 18.493 149.027 27.9396 149.027H74.663L74.7108 137.747C74.7108 110.599 96.7901 88.517 123.935 88.517C151.08 88.517 173.16 110.599 173.16 137.747L173.064 149.027Z" fill="#0075FF"/>
<path d="M395.53 137.747H394.893C394.893 107.365 419.6 82.6541 449.979 82.6541C468.076 82.6541 485.121 91.6238 495.588 106.664L495.062 107.03C484.723 92.1655 467.869 83.2913 449.979 83.2913C419.951 83.2913 395.53 107.715 395.53 137.747Z" fill="#0075FF"/>
<path d="M179.755 137.747H179.118C179.118 107.317 154.362 82.5743 123.951 82.5743C105.568 82.5743 87.7579 92.2132 77.451 107.731L76.9253 107.38C87.3437 91.6874 105.361 81.937 123.951 81.937C154.713 81.937 179.755 106.966 179.755 137.747Z" fill="#0075FF"/>
<path d="M389.875 137.11H389.237C389.444 117.354 398.541 99.3187 413.563 88.8355C421.146 83.562 425.495 66.1323 425.495 41.0553H426.132C426.132 66.3554 421.687 83.9602 413.929 89.3612C399.066 99.717 390.082 117.561 389.875 137.11Z" fill="#0075FF"/>
<path d="M8.6958 104.481V103.844C20.9939 103.844 51.1021 99.3666 51.1021 95.4474C51.1021 86.7644 41.8307 83.6895 39.4571 83.6895H21.886V83.0522H39.4571C42.0537 83.0522 51.7393 86.159 51.7393 95.4474C51.7393 100.418 19.2416 104.481 8.6958 104.481Z" fill="#0075FF"/>
<path d="M179.755 137.747H179.118C179.118 74.7676 186.43 61.9901 189.17 59.4091C162.709 59.9827 50.3853 80.6943 39.5369 83.6895C30.7274 86.5732 27.7166 102.84 27.6848 102.999L27.0635 102.888C27.1909 102.203 30.1699 86.0953 39.3457 83.0841C50.3535 80.0411 165.864 58.7719 190.221 58.7719L190.285 59.4091C190.205 59.4251 179.755 63.0257 179.755 137.747Z" fill="#0075FF"/>
<path d="M31.6037 137.89H5.39845V137.253H30.9665C30.7435 132.171 25.1519 125.814 19.2259 125.814H2.59473V125.177H19.2259C25.6139 125.177 31.6196 132.155 31.6196 137.572V137.89H31.6037Z" fill="#0075FF"/>
<path d="M189.6 59.4092L196.099 50.8537C196.131 43.9551 199.938 40.8165 203.459 40.8165C210.166 40.8165 214.849 45.1022 214.849 48.9419C214.849 53.9923 208.397 59.3773 196.418 59.3773L189.6 59.4092ZM203.459 41.4379C200.225 41.4379 196.736 44.4172 196.736 50.9493V51.0608L190.89 58.7719L196.418 58.7401C207.983 58.7401 214.212 53.6896 214.212 48.9419C214.212 45.389 209.799 41.4379 203.459 41.4379Z" fill="#0075FF"/>
<path d="M559.144 101.223L486.852 107.245L486.904 107.88L559.197 101.858L559.144 101.223Z" fill="#0075FF"/>
<path d="M486.826 108.942V107.349C521.745 107.349 564.757 104.576 565.187 104.545L565.283 106.138C564.852 106.154 521.809 108.942 486.826 108.942Z" fill="#0075FF"/>
<path d="M402.268 136.95H172.379V138.544H402.268V136.95Z" fill="#0075FF"/>
<path d="M86.0853 106.759H7.75635V108.352H86.0853V106.759Z" fill="#0075FF"/>
<path d="M203.778 58.5807L203.762 57.9434C205.259 57.8956 353.713 52.9248 383.646 52.9248C414.598 52.9248 425.495 43.1426 425.495 41.0555C425.495 33.1373 385.621 12.3778 365.406 9.74903C343.119 6.86533 304.728 7.80532 286.997 9.74903C251.282 13.6683 212.141 43.6843 211.743 43.987L211.345 43.4771C211.743 43.1744 251.011 13.047 286.918 9.09582C304.664 7.15211 343.151 6.19619 365.47 9.09582C384.267 11.5334 426.116 32.3088 426.116 41.0236C426.116 43.5727 415.029 53.5302 383.63 53.5302C353.729 53.5621 205.275 58.5329 203.778 58.5807Z" fill="#0075FF"/>
<path d="M534.983 86.6052C534.473 86.6052 534.043 86.2388 533.708 85.5378C531.813 81.4592 533.278 65.9095 538.838 59.3137L538.934 59.2021H553.223V59.8394H539.236C533.597 66.6743 532.657 81.746 534.298 85.2669C534.441 85.5856 534.696 85.968 534.999 85.968C540.224 85.968 557.269 85.9042 557.269 85.9042V86.5415C557.269 86.5415 540.208 86.6052 534.983 86.6052Z" fill="#0075FF"/>
<path d="M555.453 71.0077H534.489V71.645H555.453V71.0077Z" fill="#0075FF"/>
<path d="M556.346 77.0459H533.342V77.6832H556.346V77.0459Z" fill="#0075FF"/>
<path d="M39.5049 83.7215L39.4253 83.0842C209.544 60.1262 514.401 59.2499 537.691 59.2021C530.825 56.0316 495.269 41.3582 425.813 41.3582V40.7209C503.473 40.7209 538.886 59.0428 539.237 59.234L540.368 59.8394H539.093C535.923 59.8553 215.55 59.9668 39.5049 83.7215Z" fill="#0075FF"/>
<path d="M304.489 55.1871L314.254 7.40698L326.919 7.58223L326.887 7.91681L323.478 54.8685L304.489 55.1871ZM314.764 8.04426L305.269 54.5339L322.904 54.2471L326.234 8.21952L314.764 8.04426Z" fill="#0075FF"/>
<path d="M309.921 137.747H309.284C309.284 103.35 320.116 8.74523 320.228 7.78931L320.865 7.85303C320.753 8.80896 309.921 103.381 309.921 137.747Z" fill="#0075FF"/>
<path d="M386.956 15.8407L385.157 52.8223L385.794 52.8532L387.593 15.8716L386.956 15.8407Z" fill="#0075FF"/>
<path d="M416.797 71.6451H397.967C396.231 71.6451 394.829 70.243 394.829 68.5065V68.1241C394.829 66.3875 396.231 64.9855 397.967 64.9855H416.797C418.533 64.9855 419.935 66.3875 419.935 68.1241V68.5065C419.951 70.243 418.533 71.6451 416.797 71.6451ZM397.967 65.6068C396.581 65.6068 395.466 66.738 395.466 68.1081V68.4905C395.466 69.8766 396.597 70.9918 397.967 70.9918H416.797C418.183 70.9918 419.298 69.8607 419.298 68.4905V68.1081C419.298 66.7221 418.167 65.6068 416.797 65.6068H397.967Z" fill="#0075FF"/>
<path d="M411.508 74.1782H400.803C399.066 74.1782 397.665 72.7762 397.665 71.0396V65.3041H398.302V71.0396C398.302 72.4257 399.433 73.5409 400.803 73.5409H411.508C412.894 73.5409 414.009 72.4098 414.009 71.0396V65.3041H414.646V71.0396C414.646 72.7603 413.244 74.1782 411.508 74.1782Z" fill="#0075FF"/>
<path d="M307.898 71.6451H289.068C287.332 71.6451 285.93 70.243 285.93 68.5065V68.1241C285.93 66.3875 287.348 64.9855 289.068 64.9855H307.898C309.634 64.9855 311.036 66.3875 311.036 68.1241V68.5065C311.036 70.243 309.618 71.6451 307.898 71.6451ZM289.068 65.6068C287.683 65.6068 286.567 66.738 286.567 68.1081V68.4905C286.567 69.8766 287.698 70.9918 289.068 70.9918H307.898C309.284 70.9918 310.399 69.8607 310.399 68.4905V68.1081C310.399 66.7221 309.268 65.6068 307.898 65.6068H289.068Z" fill="#0075FF"/>
<path d="M302.593 74.1782H291.888C290.152 74.1782 288.75 72.7762 288.75 71.0396V65.3041H289.387V71.0396C289.387 72.4257 290.518 73.5409 291.888 73.5409H302.593C303.979 73.5409 305.094 72.4098 305.094 71.0396V65.3041H305.732V71.0396C305.748 72.7603 304.33 74.1782 302.593 74.1782Z" fill="#0075FF"/>
<path d="M188.962 59.6481C176.441 59.6481 166.134 51.8254 166.023 51.7458L166.405 51.236C166.517 51.3156 177.509 59.664 190.476 58.963L190.508 59.6003C190.014 59.6321 189.488 59.6481 188.962 59.6481Z" fill="#0075FF"/>
<path d="M176.68 57.1946L176.298 56.6848C176.855 56.2546 233.153 13.7958 289.243 3.21692L289.355 3.83827C233.424 14.4012 177.238 56.7645 176.68 57.1946Z" fill="#0075FF"/>
</mask>
<g mask="url(#mask1_118_83661)">
<rect x="1" y="-1" width="678.386" height="401" rx="10" transform="matrix(1 0 0 -1 -23.3574 197.779)" fill="#212121" stroke="#0075FF" stroke-width="2"/>
</g>
</mask>
<g mask="url(#mask0_118_83661)">
<path d="M-12.3574 198.779H521.922C527.445 198.779 531.922 194.302 531.922 188.779V-192.221C531.922 -197.744 527.445 -202.221 521.922 -202.221H-12.3574C-17.8803 -202.221 -22.3574 -197.744 -22.3574 -192.221V188.779C-22.3574 194.302 -17.8803 198.779 -12.3574 198.779Z" fill="#0075FF" stroke="#0075FF" stroke-width="2"/>
</g>
</svg>
