<svg width="46" height="46" viewBox="0 0 46 46" fill="none" xmlns="http://www.w3.org/2000/svg">
<g clip-path="url(#clip0_118_81473)">
<path d="M32.8403 21.9056L42.0708 12.6754C42.2362 12.51 42.3319 12.2927 42.3546 12.0624C42.5768 12.0396 42.7924 11.9488 42.9627 11.7785C45.3741 9.36678 45.3741 5.44343 42.9627 3.03168C41.7951 1.8623 40.2416 1.21841 38.5891 1.21841C36.9366 1.21841 35.3831 1.8623 34.2155 3.03168C34.042 3.20522 33.9511 3.42742 33.9317 3.65286C33.7063 3.67395 33.4857 3.76153 33.3219 3.92534L24.0931 13.1571L11.2203 0.282577C10.8457 -0.0937008 10.1809 -0.092079 9.80626 0.282577L0.293603 9.79982C-0.0972167 10.1907 -0.0972167 10.8232 0.293603 11.2141L13.1631 24.0887L4.81966 32.4333C4.71749 32.5354 4.63803 32.6587 4.58938 32.795L1.50498 41.1623C0.880644 42.8539 1.4466 43.767 1.83905 44.1595C2.105 44.4271 2.61095 44.7726 3.438 44.7726C3.82882 44.7726 4.29262 44.6947 4.83425 44.4936L13.1809 41.4185C13.3188 41.3715 13.4501 41.292 13.5604 41.1817L13.562 41.1801L21.9087 32.8355L34.7782 45.7068C34.9663 45.8949 35.2193 46.0004 35.4852 46.0004C35.7512 46.0004 36.0058 45.8949 36.1923 45.7068L45.7049 36.1896C46.0958 35.7987 46.0958 35.1662 45.7049 34.7753L32.8403 21.9056ZM38.5875 3.2182C39.7048 3.2182 40.7556 3.65448 41.547 4.44434C43.1784 6.07596 43.1784 8.73099 41.547 10.3642C41.4821 10.4291 41.4319 10.5021 41.3881 10.5783L35.4139 4.60167C35.4901 4.55788 35.5631 4.5076 35.6279 4.44272C36.4193 3.65448 37.4701 3.2182 38.5875 3.2182ZM12.3377 20.4329L14.9112 17.859C15.3021 17.4681 15.3021 16.8356 14.9112 16.4447C14.5204 16.0554 13.888 16.0538 13.4972 16.4447L10.9252 19.0186L7.45647 15.551L10.0284 12.9787C10.4192 12.5878 10.4192 11.9553 10.0284 11.5644C9.63761 11.1736 9.00516 11.1736 8.61434 11.5644L6.04401 14.1367L2.41473 10.5053L10.5133 2.40239L22.679 14.5698L14.5788 22.6727L12.3377 20.4329ZM12.8566 39.0587L9.56625 35.7679C9.17706 35.377 8.54299 35.377 8.15217 35.7679C7.76135 36.1587 7.76135 36.7913 8.15217 37.1822L11.0436 40.0756L4.1418 42.6187C3.56936 42.8296 3.29043 42.7696 3.258 42.7517C3.23043 42.7096 3.16881 42.429 3.38124 41.8564V41.8548L6.3878 33.6935L15.2648 24.8153C15.2713 24.8088 15.2794 24.8055 15.2858 24.799C15.2923 24.7926 15.2956 24.7844 15.3021 24.778L24.758 15.3207C24.7726 15.3078 24.7888 15.298 24.8034 15.2834C24.818 15.2688 24.8261 15.2526 24.8407 15.238L34.0274 6.04839L39.948 11.9699L21.2373 30.68C21.226 30.6914 21.2114 30.6995 21.2 30.7108C21.1887 30.7222 21.1806 30.7368 21.1692 30.7481L12.8566 39.0587ZM35.4869 43.5854L31.856 39.954L34.4295 37.38C34.8204 36.9892 34.8204 36.3566 34.4295 35.9657C34.0403 35.5749 33.4063 35.5749 33.0155 35.9657L30.4419 38.5397L26.9764 35.0737L29.55 32.4998C29.9408 32.1089 29.9408 31.4764 29.55 31.0855C29.1608 30.6946 28.5267 30.6946 28.1359 31.0855L25.5623 33.6594L23.3244 31.4212L31.4262 23.3199L43.5871 35.4824L35.4869 43.5854Z" fill="#0075FF"/>
<path opacity="0.35" d="M35.4141 3.218L5.9777 33.1159L1.89111 42.7726L2.89654 43.9825L13.113 40.4144L43.5856 9.5385V5.29239L41.1677 2.94876L37.8384 2.40381L35.4141 3.218Z" fill="#0075FF"/>
</g>
<defs>
<clipPath id="clip0_118_81473">
<rect width="46" height="46" fill="white"/>
</clipPath>
</defs>
</svg>
