<svg width="47" height="41" viewBox="0 0 47 41" fill="none" xmlns="http://www.w3.org/2000/svg">
<g clip-path="url(#clip0_118_83658)">
<path opacity="0.35" d="M2.20197 1.50993L1.04346 3.19089V9.7858H46.5107V2.94296L43.901 1.0835H2.89609L2.20197 1.50993Z" fill="#0075FF"/>
<path d="M30.8241 22.2863C30.2992 21.9814 30.1201 21.3058 30.4239 20.7789C30.7277 20.2521 31.4008 20.0723 31.9258 20.3773L39.2523 24.6652C39.7772 24.9702 39.9563 25.6458 39.6525 26.1726C39.55 26.3486 39.4079 26.4862 39.2424 26.5805L31.9258 30.8622C31.4008 31.1671 30.729 30.9874 30.4239 30.4605C30.1201 29.9337 30.2992 29.2593 30.8241 28.9531L36.5191 25.6197L30.8241 22.2863ZM4.8576 6.63706C4.2487 6.63706 3.75713 6.1412 3.75713 5.53129C3.75713 4.92139 4.25117 4.42677 4.8576 4.42677H7.51303C8.12193 4.42677 8.61473 4.92263 8.61473 5.53129C8.61473 6.14244 8.1207 6.63706 7.51303 6.63706H4.8576ZM26.0282 18.7707C26.3382 18.2463 27.0114 18.0715 27.535 18.3827C28.0575 18.6938 28.2316 19.3694 27.9216 19.8951L20.9718 31.627C20.6618 32.1514 19.9886 32.3262 19.465 32.0151C18.9425 31.7039 18.7684 31.0283 19.0784 30.5027L26.0282 18.7707ZM2.20216 8.89693H44.7978V3.57142C44.7978 3.19828 44.6447 2.85738 44.3977 2.61069C44.1519 2.364 43.8135 2.21029 43.4405 2.21029H3.55829C3.18652 2.21029 2.84688 2.364 2.60109 2.61069C2.35531 2.85738 2.20092 3.19704 2.20092 3.57142V8.89693H2.20216ZM44.7991 11.1085H2.20216V37.4273C2.20216 37.8005 2.35531 38.1414 2.60233 38.3881C2.84811 38.6348 3.18652 38.7885 3.55952 38.7885H43.4429C43.8147 38.7885 44.1544 38.6348 44.4001 38.3881C44.6459 38.1414 44.8003 37.8017 44.8003 37.4273V11.1085H44.7991ZM3.55829 0H43.4417C44.4211 0 45.3116 0.401645 45.9551 1.04874C46.5998 1.69583 47 2.58838 47 3.57142V37.4286C47 38.4116 46.5998 39.3042 45.9551 39.9513C45.3104 40.5984 44.4199 41 43.4417 41H3.55829C2.57886 41 1.68836 40.5984 1.04488 39.9513C0.400168 39.3054 0 38.4116 0 37.4286V3.57142C0 2.58838 0.400168 1.69583 1.04488 1.04874C1.6896 0.401645 2.5801 0 3.55829 0ZM15.0755 20.3785C15.6004 20.0736 16.2723 20.2533 16.5773 20.7802C16.8812 21.307 16.7021 21.9814 16.1772 22.2876L10.4822 25.621L16.1772 28.9544C16.7021 29.2593 16.8812 29.9349 16.5773 30.4618C16.2735 30.9886 15.6004 31.1684 15.0755 30.8634L7.75882 26.5817C7.59331 26.4875 7.45128 26.3511 7.34877 26.1739C7.04494 25.647 7.22402 24.9726 7.74894 24.6664L15.0755 20.3785Z" fill="#0075FF"/>
</g>
<defs>
<clipPath id="clip0_118_83658">
<rect width="47" height="41" fill="white"/>
</clipPath>
</defs>
</svg>
