<svg width="40" height="27" viewBox="0 0 40 27" fill="none" xmlns="http://www.w3.org/2000/svg">
<mask id="path-1-outside-1_118_81479" maskUnits="userSpaceOnUse" x="0" y="0" width="40" height="27" fill="black">
<rect fill="white" width="40" height="27"/>
<path d="M38.2237 11.9942C38.5654 11.8086 38.8169 11.4961 38.9326 11.1133C39.0484 10.7308 39.0142 10.3241 38.836 9.96834L34.752 1.80811C34.3842 1.07385 33.5122 0.788021 32.8068 1.17047L29.1793 3.13951C27.2491 0.978731 22.1352 1.91481 20.5557 2.27119C20.5524 2.27211 20.5498 2.27457 20.5468 2.27518C20.5436 2.2761 20.5403 2.27487 20.5371 2.27549L20.0035 2.4224L19.4633 2.27549C19.4592 2.27426 19.4548 2.27579 19.4504 2.27457C19.4492 2.27426 19.4477 2.27334 19.4465 2.27273C17.8641 1.91511 12.7417 0.974768 10.8183 3.13767L7.19321 1.17012C6.48845 0.786736 5.6158 1.0735 5.24795 1.80776L1.16397 9.96878C0.985785 10.3246 0.951624 10.7312 1.06737 11.1137C1.18312 11.4962 1.43463 11.8093 1.77625 11.9946L6.08816 14.3345C6.20626 15.2997 6.60237 16.2134 7.22617 16.9307C7.45088 17.1856 7.69385 17.4223 7.94566 17.6484L7.14844 18.0814C6.62863 18.3612 6.24604 18.8356 6.07082 19.4169C5.89559 19.9971 5.94918 20.6127 6.22014 21.1479C6.48991 21.6877 6.94493 22.0852 7.50449 22.2683C7.71771 22.3364 7.93595 22.3705 8.15389 22.3705C8.50141 22.3705 8.84687 22.2843 9.16463 22.1138L9.33869 22.0193C9.25121 22.5021 9.30276 23.0158 9.53542 23.4844C9.80578 24.0212 10.2617 24.4184 10.8198 24.602C11.0398 24.675 11.2648 24.7106 11.4874 24.7106C11.8332 24.7106 12.1736 24.6241 12.4838 24.453L14.6058 23.301C14.5242 23.7929 14.5904 24.2999 14.8181 24.7609C15.0858 25.2943 15.532 25.6927 16.0745 25.8825C16.2986 25.9607 16.5274 26 16.7542 26C17.0823 26 17.4057 25.9181 17.7019 25.7568L20.0006 24.5103L22.2957 25.7565C22.6002 25.9215 22.9265 25.9997 23.2502 25.9997C24.0303 25.9997 24.7945 25.5455 25.1895 24.7584C25.4151 24.3023 25.4796 23.795 25.3969 23.3012L27.5135 24.4532C27.8263 24.6244 28.1688 24.7108 28.5166 24.7108C28.7405 24.7108 28.9658 24.6747 29.1875 24.6026C29.7427 24.4173 30.2083 24.0082 30.4624 23.4844C30.6972 23.016 30.7499 22.5026 30.663 22.0199L30.838 22.1149C31.1537 22.2861 31.4979 22.3726 31.8461 22.3726C32.0652 22.3726 32.2861 22.3382 32.5022 22.2689C33.0527 22.0867 33.5071 21.6917 33.7836 21.1525C34.054 20.6157 34.1061 20.0002 33.9309 19.4196C33.8275 19.0776 33.6458 18.7795 33.4146 18.5292C33.8988 18.3302 34.3141 17.9597 34.5623 17.4769C34.8327 16.9408 34.8848 16.3259 34.7102 15.7459C34.5659 15.2659 34.274 14.865 33.8796 14.574C33.8935 14.4948 33.9047 14.4148 33.9147 14.3353L38.2237 11.9942ZM33.197 1.9503C33.4892 1.79143 33.8511 1.91043 34.0034 2.21499L38.0871 10.3752C38.161 10.5224 38.1748 10.6908 38.1271 10.8497C38.0794 11.0086 37.9751 11.138 37.8338 11.215L33.9356 13.3306C33.8862 12.6807 33.7183 12.0489 33.4311 11.4747L29.6626 3.86967L33.197 1.9503ZM19.2678 3.13269C19.269 3.13299 19.2705 3.13269 19.2717 3.13269L19.861 3.29309C19.866 3.29494 19.871 3.29586 19.8763 3.29708L24.7546 4.62543C24.7705 4.62972 24.787 4.6334 24.8032 4.63555C24.9619 4.65855 25.0788 4.70456 25.1168 4.75915C25.1831 4.85515 25.1333 5.13149 25.0971 5.33391C25.0847 5.40292 25.0726 5.47009 25.0638 5.52959L25.0111 5.86605C24.9504 6.32457 24.6041 6.6141 24.4032 6.74536C24.0595 6.97048 23.6337 7.07292 23.2632 7.02017L20.6373 6.63893L19.1126 6.3813C18.8817 6.34204 18.6655 6.5049 18.6284 6.74505C18.5913 6.98459 18.7474 7.21063 18.9777 7.24928L19.2575 7.29682L7.98824 13.4831C7.51761 13.7376 7.18272 14.152 6.9931 14.6262C6.94804 14.4265 6.91683 14.2235 6.9024 14.0171C6.84909 13.277 6.99399 12.5363 7.32031 11.8751L11.1537 4.13262C11.1878 4.06851 11.2211 4.00411 11.2644 3.94062C12.1812 2.5592 15.3231 2.24175 19.2676 3.13276L19.2678 3.13269ZM1.8735 10.8494C1.82549 10.6911 1.83963 10.5221 1.91355 10.3749L5.99723 2.21467C6.14979 1.91011 6.51145 1.79172 6.80328 1.94998L10.3354 3.86689L6.57008 11.4729C6.28293 12.0541 6.11566 12.6865 6.06647 13.3315L2.16682 11.2153C2.02546 11.138 1.92121 11.0083 1.8735 10.8494ZM17.3106 24.9761C17.0149 25.1374 16.6709 25.1629 16.3428 25.0479C16.0085 24.931 15.7323 24.6838 15.5671 24.355C15.3969 24.0103 15.3627 23.6232 15.4705 23.2669C15.5715 22.9384 15.7812 22.6715 16.0598 22.5105L19.9927 20.3753L20.16 20.2848C20.1723 20.2796 20.1841 20.2737 20.1959 20.2676L21.5796 19.5162C21.5834 19.514 21.5854 19.51 21.5893 19.5079L22.2725 19.1377C22.479 19.0248 22.5585 18.7592 22.4498 18.5436C22.3415 18.3289 22.0867 18.2458 21.88 18.3584L19.806 19.4827C19.7945 19.4889 19.7833 19.4959 19.7718 19.5033L15.9897 21.5524L15.6811 21.722C15.6752 21.7251 15.6711 21.73 15.6652 21.7331L12.0904 23.6739C11.7797 23.8454 11.4192 23.876 11.0746 23.7635C10.7306 23.65 10.4497 23.4055 10.2842 23.0777C9.94548 22.3962 10.2023 21.5524 10.8558 21.1966L19.9635 16.2519L20.617 15.9007C20.8244 15.7894 20.9054 15.5238 20.7984 15.3082C20.6912 15.0922 20.4371 15.007 20.2294 15.1192L19.5871 15.468C19.583 15.4701 19.5786 15.4698 19.5745 15.4719L8.77566 21.3325C8.45729 21.503 8.09328 21.5365 7.75429 21.4285C7.41325 21.3172 7.13434 21.0734 6.96822 20.74C6.80182 20.4115 6.76943 20.0351 6.87663 19.6803C6.98383 19.3245 7.21826 19.0344 7.5378 18.8626L10.6794 17.1561L19.3837 12.4313C19.5392 12.347 19.6231 12.1758 19.6093 12.0044C19.6052 11.9464 19.5907 11.8885 19.5633 11.8333C19.4553 11.6179 19.2008 11.5342 18.9938 11.6468L9.7036 16.6933L9.61702 16.7402C8.93051 17.0978 8.13325 16.7926 7.81049 16.1476C7.46886 15.4631 7.72301 14.6181 8.38007 14.2623L20.6445 7.52825L23.1458 7.89139C23.2454 7.9058 23.3476 7.91255 23.4507 7.91255C24.5168 7.91255 25.6913 7.16112 25.8451 5.99713L25.8969 5.66773C25.9054 5.61222 25.9154 5.55487 25.926 5.49506C25.9902 5.13683 26.0786 4.64614 25.8012 4.24492C25.6251 3.99004 25.3367 3.82994 24.9445 3.7683L21.8156 2.91655C25.2083 2.32062 27.8524 2.68407 28.7116 3.90845C28.7204 3.92501 28.7307 3.94158 28.7419 3.95691C28.7778 4.0066 28.8073 4.06027 28.837 4.12192L32.6813 11.8798C33.0067 12.5309 33.1516 13.271 33.1001 14.0197C33.0847 14.238 33.0512 14.4497 32.9958 14.6726C32.8488 15.3011 32.5576 15.8777 32.1564 16.3374C31.801 16.7377 31.4369 17.0766 31.0434 17.3747C31.0387 17.3781 31.0346 17.3818 31.0299 17.3851C31.0211 17.3913 31.0113 17.3983 31.0055 17.4032C30.6394 17.6946 30.2138 17.9743 29.7426 18.2347L23.6557 21.5392C23.6539 21.5401 23.6518 21.541 23.6501 21.5419C23.6498 21.5419 23.6492 21.5422 23.6489 21.5422C23.6389 21.5465 23.6283 21.5514 23.6186 21.5573L17.3106 24.9761ZM24.5302 23.2644C24.6392 23.6266 24.6065 24.0139 24.4395 24.3525C24.097 25.0349 23.3109 25.3147 22.6857 24.9754L20.9142 24.0133L23.816 22.4396L23.927 22.5003C24.2169 22.6604 24.431 22.931 24.5302 23.2644ZM29.7107 23.0812C29.5552 23.4014 29.2707 23.6499 28.9317 23.7628C28.583 23.8762 28.219 23.844 27.9042 23.6726L24.7308 21.9455L27.6276 20.3728L29.1446 21.1959C29.7993 21.5526 30.0544 22.3957 29.7107 23.0812ZM33.0366 20.7396C32.8664 21.072 32.5857 21.3168 32.2496 21.4278C31.9062 21.5376 31.5434 21.5039 31.2265 21.3327L28.5418 19.8768L30.136 19.0116C30.5657 18.7742 30.9576 18.5214 31.2999 18.2663L31.6074 18.4313C31.7037 18.4859 31.81 18.5279 31.9219 18.5668L32.465 18.8619C32.7825 19.0333 33.0169 19.325 33.125 19.6823C33.2322 20.0378 33.2004 20.4147 33.0367 20.7395L33.0366 20.7396ZM33.815 17.0634C33.6477 17.3888 33.3585 17.6394 33.0253 17.7492C32.7744 17.8296 32.5094 17.8305 32.2543 17.756L32.0614 17.6514C32.3061 17.4312 32.5444 17.1944 32.7782 16.9312C33.1402 16.5166 33.4256 16.028 33.6247 15.4996C33.7487 15.6456 33.845 15.8161 33.903 16.0078C34.0105 16.3629 33.9784 16.7393 33.815 17.0634Z"/>
</mask>
<path d="M38.2237 11.9942C38.5654 11.8086 38.8169 11.4961 38.9326 11.1133C39.0484 10.7308 39.0142 10.3241 38.836 9.96834L34.752 1.80811C34.3842 1.07385 33.5122 0.788021 32.8068 1.17047L29.1793 3.13951C27.2491 0.978731 22.1352 1.91481 20.5557 2.27119C20.5524 2.27211 20.5498 2.27457 20.5468 2.27518C20.5436 2.2761 20.5403 2.27487 20.5371 2.27549L20.0035 2.4224L19.4633 2.27549C19.4592 2.27426 19.4548 2.27579 19.4504 2.27457C19.4492 2.27426 19.4477 2.27334 19.4465 2.27273C17.8641 1.91511 12.7417 0.974768 10.8183 3.13767L7.19321 1.17012C6.48845 0.786736 5.6158 1.0735 5.24795 1.80776L1.16397 9.96878C0.985785 10.3246 0.951624 10.7312 1.06737 11.1137C1.18312 11.4962 1.43463 11.8093 1.77625 11.9946L6.08816 14.3345C6.20626 15.2997 6.60237 16.2134 7.22617 16.9307C7.45088 17.1856 7.69385 17.4223 7.94566 17.6484L7.14844 18.0814C6.62863 18.3612 6.24604 18.8356 6.07082 19.4169C5.89559 19.9971 5.94918 20.6127 6.22014 21.1479C6.48991 21.6877 6.94493 22.0852 7.50449 22.2683C7.71771 22.3364 7.93595 22.3705 8.15389 22.3705C8.50141 22.3705 8.84687 22.2843 9.16463 22.1138L9.33869 22.0193C9.25121 22.5021 9.30276 23.0158 9.53542 23.4844C9.80578 24.0212 10.2617 24.4184 10.8198 24.602C11.0398 24.675 11.2648 24.7106 11.4874 24.7106C11.8332 24.7106 12.1736 24.6241 12.4838 24.453L14.6058 23.301C14.5242 23.7929 14.5904 24.2999 14.8181 24.7609C15.0858 25.2943 15.532 25.6927 16.0745 25.8825C16.2986 25.9607 16.5274 26 16.7542 26C17.0823 26 17.4057 25.9181 17.7019 25.7568L20.0006 24.5103L22.2957 25.7565C22.6002 25.9215 22.9265 25.9997 23.2502 25.9997C24.0303 25.9997 24.7945 25.5455 25.1895 24.7584C25.4151 24.3023 25.4796 23.795 25.3969 23.3012L27.5135 24.4532C27.8263 24.6244 28.1688 24.7108 28.5166 24.7108C28.7405 24.7108 28.9658 24.6747 29.1875 24.6026C29.7427 24.4173 30.2083 24.0082 30.4624 23.4844C30.6972 23.016 30.7499 22.5026 30.663 22.0199L30.838 22.1149C31.1537 22.2861 31.4979 22.3726 31.8461 22.3726C32.0652 22.3726 32.2861 22.3382 32.5022 22.2689C33.0527 22.0867 33.5071 21.6917 33.7836 21.1525C34.054 20.6157 34.1061 20.0002 33.9309 19.4196C33.8275 19.0776 33.6458 18.7795 33.4146 18.5292C33.8988 18.3302 34.3141 17.9597 34.5623 17.4769C34.8327 16.9408 34.8848 16.3259 34.7102 15.7459C34.5659 15.2659 34.274 14.865 33.8796 14.574C33.8935 14.4948 33.9047 14.4148 33.9147 14.3353L38.2237 11.9942ZM33.197 1.9503C33.4892 1.79143 33.8511 1.91043 34.0034 2.21499L38.0871 10.3752C38.161 10.5224 38.1748 10.6908 38.1271 10.8497C38.0794 11.0086 37.9751 11.138 37.8338 11.215L33.9356 13.3306C33.8862 12.6807 33.7183 12.0489 33.4311 11.4747L29.6626 3.86967L33.197 1.9503ZM19.2678 3.13269C19.269 3.13299 19.2705 3.13269 19.2717 3.13269L19.861 3.29309C19.866 3.29494 19.871 3.29586 19.8763 3.29708L24.7546 4.62543C24.7705 4.62972 24.787 4.6334 24.8032 4.63555C24.9619 4.65855 25.0788 4.70456 25.1168 4.75915C25.1831 4.85515 25.1333 5.13149 25.0971 5.33391C25.0847 5.40292 25.0726 5.47009 25.0638 5.52959L25.0111 5.86605C24.9504 6.32457 24.6041 6.6141 24.4032 6.74536C24.0595 6.97048 23.6337 7.07292 23.2632 7.02017L20.6373 6.63893L19.1126 6.3813C18.8817 6.34204 18.6655 6.5049 18.6284 6.74505C18.5913 6.98459 18.7474 7.21063 18.9777 7.24928L19.2575 7.29682L7.98824 13.4831C7.51761 13.7376 7.18272 14.152 6.9931 14.6262C6.94804 14.4265 6.91683 14.2235 6.9024 14.0171C6.84909 13.277 6.99399 12.5363 7.32031 11.8751L11.1537 4.13262C11.1878 4.06851 11.2211 4.00411 11.2644 3.94062C12.1812 2.5592 15.3231 2.24175 19.2676 3.13276L19.2678 3.13269ZM1.8735 10.8494C1.82549 10.6911 1.83963 10.5221 1.91355 10.3749L5.99723 2.21467C6.14979 1.91011 6.51145 1.79172 6.80328 1.94998L10.3354 3.86689L6.57008 11.4729C6.28293 12.0541 6.11566 12.6865 6.06647 13.3315L2.16682 11.2153C2.02546 11.138 1.92121 11.0083 1.8735 10.8494ZM17.3106 24.9761C17.0149 25.1374 16.6709 25.1629 16.3428 25.0479C16.0085 24.931 15.7323 24.6838 15.5671 24.355C15.3969 24.0103 15.3627 23.6232 15.4705 23.2669C15.5715 22.9384 15.7812 22.6715 16.0598 22.5105L19.9927 20.3753L20.16 20.2848C20.1723 20.2796 20.1841 20.2737 20.1959 20.2676L21.5796 19.5162C21.5834 19.514 21.5854 19.51 21.5893 19.5079L22.2725 19.1377C22.479 19.0248 22.5585 18.7592 22.4498 18.5436C22.3415 18.3289 22.0867 18.2458 21.88 18.3584L19.806 19.4827C19.7945 19.4889 19.7833 19.4959 19.7718 19.5033L15.9897 21.5524L15.6811 21.722C15.6752 21.7251 15.6711 21.73 15.6652 21.7331L12.0904 23.6739C11.7797 23.8454 11.4192 23.876 11.0746 23.7635C10.7306 23.65 10.4497 23.4055 10.2842 23.0777C9.94548 22.3962 10.2023 21.5524 10.8558 21.1966L19.9635 16.2519L20.617 15.9007C20.8244 15.7894 20.9054 15.5238 20.7984 15.3082C20.6912 15.0922 20.4371 15.007 20.2294 15.1192L19.5871 15.468C19.583 15.4701 19.5786 15.4698 19.5745 15.4719L8.77566 21.3325C8.45729 21.503 8.09328 21.5365 7.75429 21.4285C7.41325 21.3172 7.13434 21.0734 6.96822 20.74C6.80182 20.4115 6.76943 20.0351 6.87663 19.6803C6.98383 19.3245 7.21826 19.0344 7.5378 18.8626L10.6794 17.1561L19.3837 12.4313C19.5392 12.347 19.6231 12.1758 19.6093 12.0044C19.6052 11.9464 19.5907 11.8885 19.5633 11.8333C19.4553 11.6179 19.2008 11.5342 18.9938 11.6468L9.7036 16.6933L9.61702 16.7402C8.93051 17.0978 8.13325 16.7926 7.81049 16.1476C7.46886 15.4631 7.72301 14.6181 8.38007 14.2623L20.6445 7.52825L23.1458 7.89139C23.2454 7.9058 23.3476 7.91255 23.4507 7.91255C24.5168 7.91255 25.6913 7.16112 25.8451 5.99713L25.8969 5.66773C25.9054 5.61222 25.9154 5.55487 25.926 5.49506C25.9902 5.13683 26.0786 4.64614 25.8012 4.24492C25.6251 3.99004 25.3367 3.82994 24.9445 3.7683L21.8156 2.91655C25.2083 2.32062 27.8524 2.68407 28.7116 3.90845C28.7204 3.92501 28.7307 3.94158 28.7419 3.95691C28.7778 4.0066 28.8073 4.06027 28.837 4.12192L32.6813 11.8798C33.0067 12.5309 33.1516 13.271 33.1001 14.0197C33.0847 14.238 33.0512 14.4497 32.9958 14.6726C32.8488 15.3011 32.5576 15.8777 32.1564 16.3374C31.801 16.7377 31.4369 17.0766 31.0434 17.3747C31.0387 17.3781 31.0346 17.3818 31.0299 17.3851C31.0211 17.3913 31.0113 17.3983 31.0055 17.4032C30.6394 17.6946 30.2138 17.9743 29.7426 18.2347L23.6557 21.5392C23.6539 21.5401 23.6518 21.541 23.6501 21.5419C23.6498 21.5419 23.6492 21.5422 23.6489 21.5422C23.6389 21.5465 23.6283 21.5514 23.6186 21.5573L17.3106 24.9761ZM24.5302 23.2644C24.6392 23.6266 24.6065 24.0139 24.4395 24.3525C24.097 25.0349 23.3109 25.3147 22.6857 24.9754L20.9142 24.0133L23.816 22.4396L23.927 22.5003C24.2169 22.6604 24.431 22.931 24.5302 23.2644ZM29.7107 23.0812C29.5552 23.4014 29.2707 23.6499 28.9317 23.7628C28.583 23.8762 28.219 23.844 27.9042 23.6726L24.7308 21.9455L27.6276 20.3728L29.1446 21.1959C29.7993 21.5526 30.0544 22.3957 29.7107 23.0812ZM33.0366 20.7396C32.8664 21.072 32.5857 21.3168 32.2496 21.4278C31.9062 21.5376 31.5434 21.5039 31.2265 21.3327L28.5418 19.8768L30.136 19.0116C30.5657 18.7742 30.9576 18.5214 31.2999 18.2663L31.6074 18.4313C31.7037 18.4859 31.81 18.5279 31.9219 18.5668L32.465 18.8619C32.7825 19.0333 33.0169 19.325 33.125 19.6823C33.2322 20.0378 33.2004 20.4147 33.0367 20.7395L33.0366 20.7396ZM33.815 17.0634C33.6477 17.3888 33.3585 17.6394 33.0253 17.7492C32.7744 17.8296 32.5094 17.8305 32.2543 17.756L32.0614 17.6514C32.3061 17.4312 32.5444 17.1944 32.7782 16.9312C33.1402 16.5166 33.4256 16.028 33.6247 15.4996C33.7487 15.6456 33.845 15.8161 33.903 16.0078C34.0105 16.3629 33.9784 16.7393 33.815 17.0634Z" fill="#0075FF"/>
<path d="M38.2237 11.9942C38.5654 11.8086 38.8169 11.4961 38.9326 11.1133C39.0484 10.7308 39.0142 10.3241 38.836 9.96834L34.752 1.80811C34.3842 1.07385 33.5122 0.788021 32.8068 1.17047L29.1793 3.13951C27.2491 0.978731 22.1352 1.91481 20.5557 2.27119C20.5524 2.27211 20.5498 2.27457 20.5468 2.27518C20.5436 2.2761 20.5403 2.27487 20.5371 2.27549L20.0035 2.4224L19.4633 2.27549C19.4592 2.27426 19.4548 2.27579 19.4504 2.27457C19.4492 2.27426 19.4477 2.27334 19.4465 2.27273C17.8641 1.91511 12.7417 0.974768 10.8183 3.13767L7.19321 1.17012C6.48845 0.786736 5.6158 1.0735 5.24795 1.80776L1.16397 9.96878C0.985785 10.3246 0.951624 10.7312 1.06737 11.1137C1.18312 11.4962 1.43463 11.8093 1.77625 11.9946L6.08816 14.3345C6.20626 15.2997 6.60237 16.2134 7.22617 16.9307C7.45088 17.1856 7.69385 17.4223 7.94566 17.6484L7.14844 18.0814C6.62863 18.3612 6.24604 18.8356 6.07082 19.4169C5.89559 19.9971 5.94918 20.6127 6.22014 21.1479C6.48991 21.6877 6.94493 22.0852 7.50449 22.2683C7.71771 22.3364 7.93595 22.3705 8.15389 22.3705C8.50141 22.3705 8.84687 22.2843 9.16463 22.1138L9.33869 22.0193C9.25121 22.5021 9.30276 23.0158 9.53542 23.4844C9.80578 24.0212 10.2617 24.4184 10.8198 24.602C11.0398 24.675 11.2648 24.7106 11.4874 24.7106C11.8332 24.7106 12.1736 24.6241 12.4838 24.453L14.6058 23.301C14.5242 23.7929 14.5904 24.2999 14.8181 24.7609C15.0858 25.2943 15.532 25.6927 16.0745 25.8825C16.2986 25.9607 16.5274 26 16.7542 26C17.0823 26 17.4057 25.9181 17.7019 25.7568L20.0006 24.5103L22.2957 25.7565C22.6002 25.9215 22.9265 25.9997 23.2502 25.9997C24.0303 25.9997 24.7945 25.5455 25.1895 24.7584C25.4151 24.3023 25.4796 23.795 25.3969 23.3012L27.5135 24.4532C27.8263 24.6244 28.1688 24.7108 28.5166 24.7108C28.7405 24.7108 28.9658 24.6747 29.1875 24.6026C29.7427 24.4173 30.2083 24.0082 30.4624 23.4844C30.6972 23.016 30.7499 22.5026 30.663 22.0199L30.838 22.1149C31.1537 22.2861 31.4979 22.3726 31.8461 22.3726C32.0652 22.3726 32.2861 22.3382 32.5022 22.2689C33.0527 22.0867 33.5071 21.6917 33.7836 21.1525C34.054 20.6157 34.1061 20.0002 33.9309 19.4196C33.8275 19.0776 33.6458 18.7795 33.4146 18.5292C33.8988 18.3302 34.3141 17.9597 34.5623 17.4769C34.8327 16.9408 34.8848 16.3259 34.7102 15.7459C34.5659 15.2659 34.274 14.865 33.8796 14.574C33.8935 14.4948 33.9047 14.4148 33.9147 14.3353L38.2237 11.9942ZM33.197 1.9503C33.4892 1.79143 33.8511 1.91043 34.0034 2.21499L38.0871 10.3752C38.161 10.5224 38.1748 10.6908 38.1271 10.8497C38.0794 11.0086 37.9751 11.138 37.8338 11.215L33.9356 13.3306C33.8862 12.6807 33.7183 12.0489 33.4311 11.4747L29.6626 3.86967L33.197 1.9503ZM19.2678 3.13269C19.269 3.13299 19.2705 3.13269 19.2717 3.13269L19.861 3.29309C19.866 3.29494 19.871 3.29586 19.8763 3.29708L24.7546 4.62543C24.7705 4.62972 24.787 4.6334 24.8032 4.63555C24.9619 4.65855 25.0788 4.70456 25.1168 4.75915C25.1831 4.85515 25.1333 5.13149 25.0971 5.33391C25.0847 5.40292 25.0726 5.47009 25.0638 5.52959L25.0111 5.86605C24.9504 6.32457 24.6041 6.6141 24.4032 6.74536C24.0595 6.97048 23.6337 7.07292 23.2632 7.02017L20.6373 6.63893L19.1126 6.3813C18.8817 6.34204 18.6655 6.5049 18.6284 6.74505C18.5913 6.98459 18.7474 7.21063 18.9777 7.24928L19.2575 7.29682L7.98824 13.4831C7.51761 13.7376 7.18272 14.152 6.9931 14.6262C6.94804 14.4265 6.91683 14.2235 6.9024 14.0171C6.84909 13.277 6.99399 12.5363 7.32031 11.8751L11.1537 4.13262C11.1878 4.06851 11.2211 4.00411 11.2644 3.94062C12.1812 2.5592 15.3231 2.24175 19.2676 3.13276L19.2678 3.13269ZM1.8735 10.8494C1.82549 10.6911 1.83963 10.5221 1.91355 10.3749L5.99723 2.21467C6.14979 1.91011 6.51145 1.79172 6.80328 1.94998L10.3354 3.86689L6.57008 11.4729C6.28293 12.0541 6.11566 12.6865 6.06647 13.3315L2.16682 11.2153C2.02546 11.138 1.92121 11.0083 1.8735 10.8494ZM17.3106 24.9761C17.0149 25.1374 16.6709 25.1629 16.3428 25.0479C16.0085 24.931 15.7323 24.6838 15.5671 24.355C15.3969 24.0103 15.3627 23.6232 15.4705 23.2669C15.5715 22.9384 15.7812 22.6715 16.0598 22.5105L19.9927 20.3753L20.16 20.2848C20.1723 20.2796 20.1841 20.2737 20.1959 20.2676L21.5796 19.5162C21.5834 19.514 21.5854 19.51 21.5893 19.5079L22.2725 19.1377C22.479 19.0248 22.5585 18.7592 22.4498 18.5436C22.3415 18.3289 22.0867 18.2458 21.88 18.3584L19.806 19.4827C19.7945 19.4889 19.7833 19.4959 19.7718 19.5033L15.9897 21.5524L15.6811 21.722C15.6752 21.7251 15.6711 21.73 15.6652 21.7331L12.0904 23.6739C11.7797 23.8454 11.4192 23.876 11.0746 23.7635C10.7306 23.65 10.4497 23.4055 10.2842 23.0777C9.94548 22.3962 10.2023 21.5524 10.8558 21.1966L19.9635 16.2519L20.617 15.9007C20.8244 15.7894 20.9054 15.5238 20.7984 15.3082C20.6912 15.0922 20.4371 15.007 20.2294 15.1192L19.5871 15.468C19.583 15.4701 19.5786 15.4698 19.5745 15.4719L8.77566 21.3325C8.45729 21.503 8.09328 21.5365 7.75429 21.4285C7.41325 21.3172 7.13434 21.0734 6.96822 20.74C6.80182 20.4115 6.76943 20.0351 6.87663 19.6803C6.98383 19.3245 7.21826 19.0344 7.5378 18.8626L10.6794 17.1561L19.3837 12.4313C19.5392 12.347 19.6231 12.1758 19.6093 12.0044C19.6052 11.9464 19.5907 11.8885 19.5633 11.8333C19.4553 11.6179 19.2008 11.5342 18.9938 11.6468L9.7036 16.6933L9.61702 16.7402C8.93051 17.0978 8.13325 16.7926 7.81049 16.1476C7.46886 15.4631 7.72301 14.6181 8.38007 14.2623L20.6445 7.52825L23.1458 7.89139C23.2454 7.9058 23.3476 7.91255 23.4507 7.91255C24.5168 7.91255 25.6913 7.16112 25.8451 5.99713L25.8969 5.66773C25.9054 5.61222 25.9154 5.55487 25.926 5.49506C25.9902 5.13683 26.0786 4.64614 25.8012 4.24492C25.6251 3.99004 25.3367 3.82994 24.9445 3.7683L21.8156 2.91655C25.2083 2.32062 27.8524 2.68407 28.7116 3.90845C28.7204 3.92501 28.7307 3.94158 28.7419 3.95691C28.7778 4.0066 28.8073 4.06027 28.837 4.12192L32.6813 11.8798C33.0067 12.5309 33.1516 13.271 33.1001 14.0197C33.0847 14.238 33.0512 14.4497 32.9958 14.6726C32.8488 15.3011 32.5576 15.8777 32.1564 16.3374C31.801 16.7377 31.4369 17.0766 31.0434 17.3747C31.0387 17.3781 31.0346 17.3818 31.0299 17.3851C31.0211 17.3913 31.0113 17.3983 31.0055 17.4032C30.6394 17.6946 30.2138 17.9743 29.7426 18.2347L23.6557 21.5392C23.6539 21.5401 23.6518 21.541 23.6501 21.5419C23.6498 21.5419 23.6492 21.5422 23.6489 21.5422C23.6389 21.5465 23.6283 21.5514 23.6186 21.5573L17.3106 24.9761ZM24.5302 23.2644C24.6392 23.6266 24.6065 24.0139 24.4395 24.3525C24.097 25.0349 23.3109 25.3147 22.6857 24.9754L20.9142 24.0133L23.816 22.4396L23.927 22.5003C24.2169 22.6604 24.431 22.931 24.5302 23.2644ZM29.7107 23.0812C29.5552 23.4014 29.2707 23.6499 28.9317 23.7628C28.583 23.8762 28.219 23.844 27.9042 23.6726L24.7308 21.9455L27.6276 20.3728L29.1446 21.1959C29.7993 21.5526 30.0544 22.3957 29.7107 23.0812ZM33.0366 20.7396C32.8664 21.072 32.5857 21.3168 32.2496 21.4278C31.9062 21.5376 31.5434 21.5039 31.2265 21.3327L28.5418 19.8768L30.136 19.0116C30.5657 18.7742 30.9576 18.5214 31.2999 18.2663L31.6074 18.4313C31.7037 18.4859 31.81 18.5279 31.9219 18.5668L32.465 18.8619C32.7825 19.0333 33.0169 19.325 33.125 19.6823C33.2322 20.0378 33.2004 20.4147 33.0367 20.7395L33.0366 20.7396ZM33.815 17.0634C33.6477 17.3888 33.3585 17.6394 33.0253 17.7492C32.7744 17.8296 32.5094 17.8305 32.2543 17.756L32.0614 17.6514C32.3061 17.4312 32.5444 17.1944 32.7782 16.9312C33.1402 16.5166 33.4256 16.028 33.6247 15.4996C33.7487 15.6456 33.845 15.8161 33.903 16.0078C34.0105 16.3629 33.9784 16.7393 33.815 17.0634Z" stroke="#0075FF" mask="url(#path-1-outside-1_118_81479)"/>
</svg>
