<svg width="967" height="630" viewBox="0 0 967 630" fill="none" xmlns="http://www.w3.org/2000/svg">
<g clip-path="url(#clip0_118_83646)">
<path d="M941.202 628.346H25.7974C12.5166 628.346 1.64795 617.477 1.64795 604.196V25.7978C1.64795 12.5168 12.5166 1.64795 25.7974 1.64795H941.202C954.483 1.64795 965.352 12.5168 965.352 25.7978V604.202C965.346 617.483 954.483 628.346 941.202 628.346Z" stroke="#0075FF" stroke-width="2" stroke-miterlimit="10"/>
<path d="M1.64795 52.3997H965.346" stroke="#0075FF" stroke-width="2" stroke-miterlimit="10"/>
<path d="M928.281 37.0032C933.32 37.0032 937.405 32.9183 937.405 27.8793C937.405 22.8403 933.32 18.7554 928.281 18.7554C923.242 18.7554 919.157 22.8403 919.157 27.8793C919.157 32.9183 923.242 37.0032 928.281 37.0032Z" stroke="#0075FF" stroke-width="2" stroke-miterlimit="10"/>
<path d="M899.769 37.0032C904.808 37.0032 908.893 32.9183 908.893 27.8793C908.893 22.8403 904.808 18.7554 899.769 18.7554C894.73 18.7554 890.645 22.8403 890.645 27.8793C890.645 32.9183 894.73 37.0032 899.769 37.0032Z" stroke="#0075FF" stroke-width="2" stroke-miterlimit="10"/>
<path d="M872.968 37.0032C878.007 37.0032 882.092 32.9183 882.092 27.8793C882.092 22.8403 878.007 18.7554 872.968 18.7554C867.929 18.7554 863.844 22.8403 863.844 27.8793C863.844 32.9183 867.929 37.0032 872.968 37.0032Z" stroke="#0075FF" stroke-width="2" stroke-miterlimit="10"/>
<path d="M1.07764 581.586H964.776" stroke="#0075FF" stroke-width="2" stroke-miterlimit="10"/>
<path d="M58.6717 615.801H35.292C29.333 615.801 24.4575 610.925 24.4575 604.966C24.4575 599.007 29.333 594.132 35.292 594.132H58.6717C64.6306 594.132 69.5061 599.007 69.5061 604.966C69.5061 610.925 64.6306 615.801 58.6717 615.801Z" stroke="#0075FF" stroke-width="2" stroke-miterlimit="10"/>
</g>
<defs>
<clipPath id="clip0_118_83646">
<rect width="967" height="630" fill="white"/>
</clipPath>
</defs>
</svg>
