<svg width="1156" height="666" viewBox="0 0 1156 666" fill="none" xmlns="http://www.w3.org/2000/svg">
<g clip-path="url(#clip0_118_79328)">
<path d="M1153.46 628.916H1046.7C1047.93 625.342 1048.62 621.514 1048.62 617.525V35.0593C1048.62 15.7271 1032.9 0 1013.58 0H142.167C122.847 0 107.129 15.728 107.129 35.0593V617.524C107.129 621.513 107.81 625.34 109.043 628.915H2.11458C1.11147 628.915 0.294922 629.725 0.294922 630.72V648.626C0.294922 649.185 0.294922 650.671 1.62691 651.64C1.9419 651.877 2.28119 652.121 2.64217 652.37C2.64304 652.37 2.64304 652.37 2.64304 652.371C10.6002 657.849 30.5592 666 52.9383 666H1102.65C1125.03 666 1144.99 657.849 1152.95 652.371C1152.95 652.37 1152.95 652.37 1152.95 652.37C1153.4 652.056 1153.84 651.738 1154.24 651.423C1155.29 650.607 1155.29 649.349 1155.29 648.876V630.739C1155.29 629.769 1154.44 628.916 1153.46 628.916ZM109.559 617.525V35.0593C109.559 17.0686 124.187 2.43117 142.167 2.43117H1013.58C1031.56 2.43117 1046.18 17.0686 1046.18 35.0593V617.524C1046.18 621.531 1045.44 625.365 1044.12 628.915H948.729L948.609 628.38L945.75 615.692H1030.81C1037.52 615.692 1042.96 610.249 1042.96 603.533V546.841V543.801V34.6321C1042.96 18.6523 1029.97 5.65161 1014 5.65161H141.745C125.775 5.65161 112.783 18.6514 112.783 34.6321V543.803V546.843V603.534C112.783 610.25 118.223 615.694 124.935 615.694H207.194L204.335 628.382L204.215 628.917H111.628C110.299 625.366 109.559 621.532 109.559 617.525ZM496.088 628.916H376.523H338.62H206.706L209.668 615.769H338.62H376.523H943.275L946.236 628.916H659.508H496.088ZM656.956 631.347C656.242 635.265 652.393 641.935 645.585 641.935H510.012C503.204 641.935 499.355 635.265 498.641 631.347H656.956ZM124.935 613.261C119.575 613.261 115.214 608.897 115.214 603.534V546.842V543.802V34.6321C115.214 19.9929 127.116 8.08365 141.745 8.08365H1014C1028.63 8.08365 1040.53 19.9929 1040.53 34.6321V543.803V546.843V603.534C1040.53 608.898 1036.17 613.262 1030.81 613.262H124.935V613.261ZM2.72547 631.347H203.667H206.706H338.62H376.523H496.182C496.887 636.381 501.709 644.367 510.012 644.367H645.585C653.888 644.367 658.709 636.381 659.415 631.347H946.237H949.276H1152.86V648.876C1152.86 649.108 1152.85 649.425 1152.75 649.503C1152.47 649.718 1152.18 649.935 1151.88 650.151H3.7121C3.49343 649.997 3.2817 649.842 3.07344 649.685C2.84262 649.518 2.72547 649.307 2.72547 648.626V631.347ZM1102.65 663.569H52.9383C33.999 663.569 16.8966 657.624 7.66901 652.584H1147.92C1138.69 657.624 1121.59 663.569 1102.65 663.569Z" fill="#0075FF"/>
<path d="M1016.98 74.1445H138.607C136.927 74.1445 135.565 75.3018 135.565 76.7301V543.742C135.565 545.171 136.927 546.328 138.607 546.328H1016.98C1018.66 546.328 1020.02 545.171 1020.02 543.742V76.7301C1020.03 75.3018 1018.66 74.1445 1016.98 74.1445ZM1016.98 543.742H138.607V76.7301H1016.98V543.742H1016.98Z" fill="#0075FF"/>
<path d="M578.029 48.2323C580.714 48.2323 582.889 46.0555 582.889 43.3691C582.889 40.6826 580.714 38.5059 578.029 38.5059C575.345 38.5059 573.169 40.6826 573.169 43.3691C573.168 46.0555 575.344 48.2323 578.029 48.2323ZM578.029 40.937C579.369 40.937 580.46 42.0276 580.46 43.3691C580.46 44.7106 579.369 45.8011 578.029 45.8011C576.689 45.8011 575.599 44.7106 575.599 43.3691C575.599 42.0276 576.689 40.937 578.029 40.937Z" fill="#0075FF"/>
<path d="M398.173 662.123C398.413 662.123 398.652 662.12 398.892 662.113C402.264 662.022 404.223 661.4 404.715 660.264C404.964 659.689 404.849 659.049 404.41 658.553C403.027 656.994 398.076 656.915 397.098 656.915C396.86 656.915 396.621 656.918 396.382 656.925C393.01 657.016 391.051 657.638 390.559 658.773C390.31 659.349 390.424 659.989 390.864 660.485C392.246 662.043 397.195 662.123 398.173 662.123Z" fill="#0075FF"/>
<path d="M755.3 662.113C755.541 662.12 755.78 662.123 756.02 662.123C756.999 662.123 761.946 662.043 763.33 660.485C763.77 659.988 763.884 659.348 763.634 658.773C763.142 657.638 761.183 657.016 757.812 656.925C757.572 656.918 757.334 656.915 757.095 656.915C756.117 656.915 751.166 656.994 749.783 658.553C749.343 659.049 749.228 659.689 749.478 660.264C749.969 661.401 751.929 662.022 755.3 662.113Z" fill="#0075FF"/>
</g>
<defs>
<clipPath id="clip0_118_79328">
<rect width="1155" height="666" fill="white" transform="translate(0.294922)"/>
</clipPath>
</defs>
</svg>
