<svg width="859" height="675" viewBox="0 0 859 675" fill="none" xmlns="http://www.w3.org/2000/svg">
<path d="M198.174 2V26.3044C191.468 26.3044 186.038 20.853 186.038 14.1575C186.028 7.4408 191.468 2 198.174 2Z" stroke="#0075FF" stroke-width="2.40648" stroke-miterlimit="10"/>
<path d="M647.693 2L670.542 6.47074V21.8336L647.693 26.3044H198.173V2H647.693Z" stroke="#0075FF" stroke-width="2.40648" stroke-miterlimit="10"/>
<path d="M694.521 17.131L671.534 21.6334V6.66064L694.521 11.163C697.8 11.8062 697.8 16.4984 694.521 17.131Z" stroke="#0075FF" stroke-width="2.40648" stroke-miterlimit="10"/>
<path d="M671.536 6.66074V21.644L670.545 21.8338V6.47095L671.536 6.66074Z" stroke="#0075FF" stroke-width="2.40648" stroke-miterlimit="10"/>
<path d="M823.91 26.3047H39.8012C21.6335 26.3047 6.85059 41.0771 6.85059 59.2553V640.683C6.85059 658.851 21.623 673.634 39.8012 673.634H823.92C842.088 673.634 856.871 658.861 856.871 640.683V59.2447C856.86 41.0771 842.088 26.3047 823.91 26.3047ZM833.315 640.673C833.315 645.86 829.097 650.078 823.91 650.078H39.8012C34.6134 650.078 30.3958 645.86 30.3958 640.673V59.2447C30.3958 54.057 34.6134 49.8393 39.8012 49.8393H823.92C829.108 49.8393 833.326 54.057 833.326 59.2447V640.673H833.315Z" stroke="#0075FF" stroke-width="2.40648" stroke-miterlimit="10"/>
<path d="M101.158 26.3048H54.3418V23.1205C54.3418 22.1504 55.1326 21.3596 56.1027 21.3596H99.3971C100.367 21.3596 101.158 22.1504 101.158 23.1205V26.3048Z" stroke="#0075FF" stroke-width="2.40648" stroke-miterlimit="10"/>
<path d="M154.29 26.3046H107.474V23.1203C107.474 22.1502 108.264 21.3594 109.235 21.3594H152.529C153.499 21.3594 154.29 22.1502 154.29 23.1203V26.3046Z" stroke="#0075FF" stroke-width="2.40648" stroke-miterlimit="10"/>
<path d="M7.38766 99.7029V157.675H3.63393C2.66386 157.675 1.87305 156.884 1.87305 155.914V101.464C1.87305 100.494 2.66386 99.7029 3.63393 99.7029H7.38766Z" stroke="#0075FF" stroke-width="2.40648" stroke-miterlimit="10"/>
</svg>
