<svg width="333" height="697" viewBox="0 0 333 697" fill="none" xmlns="http://www.w3.org/2000/svg">
<path d="M329.612 15.5295C329.612 15.52 329.602 15.5105 329.602 15.5009C325.879 7.57984 317.811 2.05418 308.474 2.05418L25.5991 1.85377C16.2333 1.84423 8.14676 7.36989 4.44243 15.3196C4.43289 15.3291 4.42334 15.3387 4.42334 15.3482C3.03899 18.3162 2.25612 21.6374 2.25612 25.1207L1.79785 672.348C1.79785 675.364 2.37069 678.246 3.43043 680.89C6.83879 689.517 15.269 695.644 25.1122 695.653L307.997 695.854C317.821 695.863 326.251 689.775 329.688 681.166C330.757 678.513 331.34 675.612 331.34 672.587L331.798 25.3593C331.788 21.8473 331.015 18.5166 329.612 15.5295Z" stroke="#0075FF" stroke-width="1.99125" stroke-miterlimit="10"/>
<path d="M185.926 25.9893L148.119 25.9606C147.183 25.9606 146.429 25.2067 146.429 24.2714V23.3266C146.429 22.3914 147.183 21.6375 148.119 21.6375L185.926 21.6661C186.861 21.6661 187.615 22.42 187.615 23.3553V24.3001C187.615 25.2258 186.861 25.9893 185.926 25.9893Z" stroke="#0075FF" stroke-width="1.99125" stroke-miterlimit="10"/>
<path d="M307.539 34.4546L26.4973 34.2542C15.6803 34.2446 6.90641 43.0055 6.89687 53.8182L6.48634 643.661C6.47679 654.474 15.2411 663.244 26.0582 663.254L307.1 663.454C317.917 663.464 326.691 654.703 326.7 643.89L327.111 54.0473C327.111 43.225 318.356 34.4546 307.539 34.4546Z" stroke="#0075FF" stroke-width="1.99125" stroke-miterlimit="10"/>
</svg>
