<svg width="347" height="698" viewBox="0 0 347 698" fill="none" xmlns="http://www.w3.org/2000/svg">
<path d="M298.341 2H48.6593C22.8942 2 2 22.9497 2 48.7825V649.218C2 675.05 22.8942 696 48.6593 696H298.341C324.106 696 345 675.05 345 649.218V48.7825C345 22.9497 324.106 2 298.341 2Z" stroke="#0075FF" stroke-width="3" stroke-miterlimit="10"/>
<path d="M340.133 49.9125V648.856C340.133 650.959 339.976 653.034 339.67 655.063C339.586 655.563 339.503 656.072 339.41 656.554C338.928 659.074 338.214 661.51 337.297 663.844C337.121 664.326 336.917 664.808 336.713 665.271C335.415 668.217 333.774 670.987 331.856 673.534C331.67 673.766 331.476 674.025 331.29 674.257C329.965 675.952 328.481 677.517 326.915 678.99C326.275 679.583 325.617 680.148 324.94 680.695C324.709 680.899 324.458 681.093 324.217 681.269C323.494 681.834 322.753 682.372 321.983 682.89C321.937 682.927 321.891 682.964 321.844 682.992C321.372 683.289 320.899 683.594 320.435 683.882C319.907 684.206 319.369 684.511 318.832 684.817C318.285 685.104 317.738 685.401 317.182 685.669C316.913 685.799 316.626 685.938 316.357 686.068C316.079 686.207 315.791 686.336 315.513 686.457C314.66 686.837 313.789 687.17 312.908 687.494C312.324 687.707 311.731 687.911 311.138 688.087C310.841 688.18 310.535 688.272 310.239 688.356C309.33 688.597 308.403 688.838 307.467 689.023C307.171 689.088 306.855 689.152 306.531 689.208C306.207 689.264 305.901 689.319 305.586 689.366C304.955 689.467 304.316 689.56 303.676 689.625C303.222 689.69 302.777 689.718 302.323 689.755C301.943 689.782 301.572 689.801 301.192 689.819C300.487 689.856 299.792 689.875 299.078 689.875H49.2069C48.4839 689.875 47.7794 689.856 47.0749 689.819C46.6948 689.801 46.3241 689.782 45.944 689.755C45.2117 689.699 44.4887 689.634 43.7471 689.551C44.0252 689.579 44.3033 689.597 44.5814 689.625C24.1048 687.318 8.1333 669.912 8.1333 648.847V49.9125C8.1333 28.0042 25.4026 10.0515 47.0656 8.93058H47.0934C47.7886 8.89353 48.4839 8.875 49.1976 8.875H299.06C299.773 8.875 300.459 8.89353 301.164 8.93058H301.173C301.553 8.94911 301.924 8.96764 302.304 8.99543C302.666 9.02322 303.036 9.06027 303.407 9.08806C324.023 11.2743 340.133 28.7546 340.133 49.9125Z" stroke="#0075FF" stroke-width="3" stroke-miterlimit="10"/>
<path d="M300.365 25.2994H300.588C313.717 26.1596 323.963 37.056 323.945 50.2186V648.269C323.945 661.21 313.81 672.152 300.894 673.161C300.764 673.17 300.662 673.179 300.56 673.188H300.476L300.411 673.198H300.263L300.207 673.207C299.781 673.225 299.345 673.244 298.909 673.244H177.431H170.458H48.9804C48.5553 673.244 48.1209 673.225 47.6866 673.207L47.6822 673.207L47.6266 673.198H47.4782L47.4133 673.188H47.3299C47.2279 673.179 47.1259 673.17 46.9961 673.161C34.0703 672.152 23.9448 661.21 23.9448 648.269V50.2186C23.9448 37.056 34.1909 26.1596 47.3299 25.2994H47.5524L47.8862 25.2624C48.2849 25.2439 48.6558 25.2439 48.9896 25.2439H262.867H298.928C299.271 25.2439 299.632 25.2439 300.031 25.2624L300.365 25.2994Z" stroke="#0075FF" stroke-width="3" stroke-miterlimit="10"/>
</svg>
