<svg width="278" height="274" viewBox="0 0 278 274" fill="none" xmlns="http://www.w3.org/2000/svg">
<path d="M167.674 97.5104C166.45 97.5104 165.411 96.5706 165.309 95.3296C165.201 94.0206 166.174 92.8751 167.481 92.7669C196.197 90.4057 222.789 85.6367 251.16 77.7554C252.423 77.4053 253.734 78.1436 254.086 79.408C254.436 80.6724 253.698 81.9813 252.431 82.3334C223.762 90.2973 196.889 95.1172 167.872 97.5019C167.806 97.5061 167.741 97.5104 167.677 97.5104L167.674 97.5104ZM109.303 97.5104C109.248 97.5104 109.193 97.5083 109.136 97.5041C81.2301 95.5672 55.6985 90.8849 26.3473 82.3253C25.0871 81.9583 24.3637 80.6387 24.7307 79.3786C25.0977 78.1185 26.4173 77.393 27.6774 77.762C56.6859 86.2223 81.9096 90.8494 109.461 92.7627C110.77 92.8539 111.756 93.9889 111.667 95.2978C111.58 96.5516 110.537 97.5105 109.3 97.5105L109.303 97.5104Z" fill="#0075FF"/>
<path d="M167.674 122.129C166.45 122.129 165.411 121.189 165.309 119.948C165.201 118.639 166.175 117.493 167.481 117.385C195.518 115.081 222.116 110.433 251.188 102.762C252.454 102.427 253.757 103.184 254.092 104.453C254.427 105.721 253.67 107.022 252.401 107.357C223.053 115.102 196.191 119.793 167.869 122.12C167.801 122.127 167.736 122.129 167.672 122.129L167.674 122.129ZM109.303 122.129C109.248 122.129 109.193 122.126 109.136 122.122C81.4974 120.202 56.7489 115.785 26.3799 107.349C25.1156 106.999 24.3752 105.688 24.7273 104.423C25.0774 103.159 26.3884 102.418 27.6528 102.771C57.6986 111.116 82.168 115.486 109.469 117.383C110.778 117.474 111.764 118.609 111.675 119.918C111.586 121.17 110.542 122.129 109.306 122.129L109.303 122.129Z" fill="#0075FF"/>
<path d="M167.674 141.37H109.298C107.985 141.37 106.922 140.307 106.922 138.994V79.5912C106.922 78.278 107.985 77.2152 109.298 77.2152H167.674C168.988 77.2152 170.05 78.278 170.05 79.5912V138.994C170.05 140.305 168.986 141.37 167.674 141.37ZM111.677 136.618H165.3V81.9727H111.677V136.618Z" fill="#0075FF"/>
<path d="M251 273.824H231.543C230.229 273.824 229.167 272.761 229.167 271.448C229.167 270.135 230.229 269.072 231.543 269.072C241.401 269.072 249.42 260.875 249.42 250.798V167.836C249.42 167.193 249.681 166.578 250.141 166.13C250.602 165.683 251.227 165.441 251.868 165.46C266.277 165.897 277.998 178.006 277.998 192.455V246.824C277.998 261.712 265.886 273.821 251 273.821L251 273.824ZM245.296 269.072H251C263.266 269.072 273.246 259.093 273.246 246.827V192.458C273.246 181.382 264.891 171.973 254.172 170.425V250.802C254.172 258.237 250.689 264.861 245.296 269.074V269.072Z" fill="#0075FF"/>
<path d="M257.751 111.006H251.794C250.481 111.006 249.418 109.943 249.418 108.63L249.42 39.1366C249.42 37.8234 250.483 36.7606 251.796 36.7606H257.753C268.916 36.7606 278 45.8426 278 57.0074V90.7614C277.998 101.925 268.916 111.006 257.751 111.006ZM254.172 106.254H257.753C266.296 106.254 273.248 99.3042 273.248 90.7593V57.0053C273.248 48.4625 266.298 41.5104 257.753 41.5104H254.172V106.254Z" fill="#0075FF"/>
<path d="M46.4679 273.824H46.4552H26.9975C12.1114 273.824 0 261.715 0 246.827V192.458C0 178.009 11.7231 165.9 26.1296 165.463C26.7809 165.45 27.394 165.685 27.8565 166.133C28.3168 166.581 28.5777 167.196 28.5777 167.839V250.801C28.5777 260.878 36.597 269.075 46.4551 269.075H46.4615H46.4678C47.781 269.075 48.8438 270.138 48.8438 271.451C48.8438 272.762 47.7789 273.825 46.4678 273.825L46.4679 273.824ZM23.8261 170.425C13.1088 171.974 4.75226 181.383 4.75226 192.459V246.827C4.75226 259.093 14.7315 269.073 26.9977 269.073H32.7023C27.3096 264.859 23.8261 258.236 23.8261 250.799V170.425Z" fill="#0075FF"/>
<path d="M26.2052 111.006H20.2503C9.08494 111.006 0.00341797 101.924 0.00341797 90.7614V57.0074C0.00341797 45.8443 9.08548 36.7606 20.2503 36.7606H26.2074C27.5206 36.7606 28.5834 37.8234 28.5834 39.1366V108.63C28.5813 109.943 27.5184 111.006 26.2052 111.006ZM20.2503 41.5126C11.7053 41.5126 4.75544 48.4625 4.75544 57.0053V90.7593C4.75544 99.3021 11.7053 106.254 20.2503 106.254H23.8313L23.8292 41.5126H20.2503Z" fill="#0075FF"/>
<path d="M231.466 273.824H46.4682C33.9473 273.824 23.7622 263.472 23.7622 250.743V40.5024C23.7622 27.9946 33.9473 17.8198 46.4682 17.8198H231.466C243.987 17.8198 254.172 27.994 254.172 40.5024V250.743C254.172 263.472 243.984 273.824 231.466 273.824ZM46.4682 22.5751C36.5693 22.5751 28.5142 30.6193 28.5142 40.5057V250.746C28.5142 260.852 36.5693 269.075 46.4682 269.075H231.466C241.365 269.075 249.42 260.852 249.42 250.746V40.5057C249.42 30.6177 241.365 22.5751 231.466 22.5751H46.4682Z" fill="#0075FF"/>
<path d="M251.059 46.4341H31.6741C29.942 46.4341 28.54 45.3409 28.54 43.9902C28.54 42.6395 29.942 41.5463 31.6741 41.5463H251.059C252.791 41.5463 254.193 42.6395 254.193 43.9902C254.193 45.3387 252.791 46.4341 251.059 46.4341Z" fill="#0075FF"/>
<path d="M164.812 105.733H111.352C110.039 105.733 108.976 104.67 108.976 103.357C108.976 102.044 110.039 100.981 111.352 100.981H164.812C166.126 100.981 167.188 102.044 167.188 103.357C167.188 104.668 166.123 105.733 164.812 105.733Z" fill="#0075FF"/>
<path d="M138.999 123.552C137.686 123.552 136.623 122.489 136.623 121.175V103.356C136.623 102.042 137.686 100.98 138.999 100.98C140.312 100.98 141.375 102.042 141.375 103.356V121.175C141.375 122.487 140.312 123.552 138.999 123.552Z" fill="#0075FF"/>
<path d="M107.913 248.293H69.1053C57.2041 248.293 47.5241 238.611 47.5241 226.712L47.522 168.699C47.522 167.386 48.5848 166.323 49.898 166.323H127.12C128.433 166.323 129.496 167.386 129.496 168.699V226.712C129.496 238.611 119.814 248.293 107.914 248.293H107.913ZM52.2734 171.072V226.711C52.2734 235.99 59.8234 243.54 69.1026 243.54H107.91C117.189 243.54 124.739 235.99 124.739 226.711L124.741 171.072H52.2734Z" fill="#0075FF"/>
<path d="M208.895 248.293H170.085C158.184 248.293 148.504 238.611 148.504 226.712V168.699C148.504 167.386 149.567 166.323 150.88 166.323H228.102C229.415 166.323 230.478 167.386 230.478 168.699V226.712C230.478 238.611 220.795 248.293 208.896 248.293H208.895ZM153.255 171.072V226.711C153.255 235.99 160.805 243.54 170.085 243.54H208.894C218.173 243.54 225.723 235.99 225.723 226.711V171.072H153.255Z" fill="#0075FF"/>
<path d="M251.858 171.072H26.1402C24.827 171.072 23.7642 170.009 23.7642 168.696C23.7642 167.382 24.827 166.32 26.1402 166.32H251.858C253.172 166.32 254.234 167.382 254.234 168.696C254.234 170.007 253.172 171.072 251.858 171.072Z" fill="#0075FF"/>
<path d="M228.098 194.832H150.877C149.564 194.832 148.501 193.769 148.501 192.456C148.501 191.143 149.564 190.08 150.877 190.08H228.098C229.412 190.08 230.474 191.143 230.474 192.456C230.474 193.767 229.412 194.832 228.098 194.832Z" fill="#0075FF"/>
<path d="M127.116 194.832H49.8946C48.5814 194.832 47.5186 193.769 47.5186 192.456C47.5186 191.143 48.5814 190.08 49.8946 190.08H127.116C128.429 190.08 129.492 191.143 129.492 192.456C129.492 193.767 128.429 194.832 127.116 194.832Z" fill="#0075FF"/>
<path d="M174.637 22.5724H103.356C102.043 22.5724 100.98 21.5095 100.98 20.1964C100.98 9.06088 110.041 0 121.177 0H156.817C167.952 0 177.013 9.06088 177.013 20.1964C177.013 21.5074 175.951 22.5724 174.637 22.5724H174.637ZM105.914 17.8204H172.079C170.933 10.4295 164.527 4.75256 156.817 4.75256H121.177C113.468 4.75256 107.061 10.4273 105.915 17.8204H105.914Z" fill="#0075FF"/>
</svg>
