<svg width="291" height="293" viewBox="0 0 291 293" fill="none" xmlns="http://www.w3.org/2000/svg">
<path d="M3.47453 292.676H2.49297C0.529831 292.025 -0.451734 290.399 0.201124 288.448L76.777 2.66127C77.1034 0.71085 79.0689 -0.26436 81.0319 0.38427C82.9951 1.03516 83.9766 2.66127 83.3238 4.61162L6.74789 290.074C6.42146 291.7 5.11346 292.675 3.47675 292.675L3.47453 292.676ZM288.507 292.676C290.47 292.025 291.452 290.399 290.799 288.448L214.223 2.66127C213.568 0.71085 211.931 -0.26436 209.968 0.38427C208.005 1.03516 207.023 2.66127 207.676 4.61162L284.252 290.399C284.579 292.025 286.215 293 287.526 293C287.854 292.676 288.181 292.676 288.507 292.676ZM38.49 290.074L98.049 4.28731C98.3755 2.33689 97.3939 0.71079 95.4308 0.386476C93.4676 0.0621667 91.8309 1.03737 91.5045 2.98779L31.6182 288.45C31.2918 290.4 32.2734 292.026 34.2365 292.351H34.8916C36.8525 292.677 38.1628 291.702 38.4891 290.076L38.49 290.074ZM256.437 292.676C258.4 292.351 259.381 290.399 259.055 288.775L199.496 2.66266C199.17 0.712243 197.204 -0.262966 195.57 0.0613483C193.607 0.385657 192.625 2.33834 192.951 3.96218L252.511 289.749C252.837 291.375 254.147 292.351 255.784 292.351C256.11 292.677 256.11 292.677 256.437 292.677V292.676ZM156.626 72.8895C156.626 74.8399 155.971 76.466 154.663 78.0921C153.355 79.3916 151.39 80.0425 149.755 80.0425H141.246C139.283 80.0425 137.646 79.3916 136.338 78.0921C135.03 76.7925 134.375 74.8399 134.375 72.8895L135.03 51.4305C135.03 47.5297 138.303 44.6017 142.229 44.6017H149.101C153.027 44.6017 155.974 47.5273 156.3 51.4305L156.626 72.8895ZM149.755 73.2138L149.1 51.4303H141.901L141.246 73.2138H149.755ZM158.589 152.545C158.589 154.495 157.934 156.121 156.626 157.747C155.318 159.047 153.353 159.698 151.718 159.698H139.282C137.319 159.698 135.682 159.047 134.375 157.747C133.067 156.448 132.411 154.495 132.411 152.545L133.393 115.48C133.393 111.58 136.666 108.652 140.592 108.652H150.737C154.663 108.652 157.61 111.577 157.936 115.48L158.589 152.545ZM151.718 152.545L150.737 115.48H140.264L139.282 152.545H151.718ZM154.989 3.3114C154.989 1.36098 153.353 0.0591945 151.389 0.0591945C149.426 0.0591945 148.116 1.6853 148.116 3.63571L148.443 20.2166H142.556L142.882 3.63571C142.882 1.6853 141.245 0.0591945 139.609 0.0591945C137.645 0.0591945 136.335 1.6853 136.009 3.3114L135.682 20.2163C135.682 24.1171 138.956 27.3691 142.882 27.3691H148.445C152.371 27.3691 155.644 24.1169 155.644 20.2163L154.989 3.3114ZM160.226 216.595C160.226 212.694 156.952 209.766 153.352 209.766H137.645C133.719 209.766 130.772 212.692 130.772 216.595L129.137 289.098C129.137 291.049 130.445 292.675 132.411 292.675C134.047 292.675 136.011 291.049 136.011 289.423L137.974 216.594L145.5 216.596H153.354L154.989 289.425C154.989 291.375 156.952 292.677 158.589 292.677C160.552 292.677 161.862 291.051 161.862 289.101L160.226 216.595Z" fill="#0075FF"/>
</svg>
