<svg width="32" height="32" viewBox="0 0 32 32" fill="none" xmlns="http://www.w3.org/2000/svg">
<path d="M0.75 16C0.75 24.4089 7.59106 31.25 16 31.25C24.4089 31.25 31.25 24.4089 31.25 16C31.25 7.59106 24.4089 0.75 16 0.75C7.59106 0.75 0.75 7.59106 0.75 16ZM2.52669 16C2.52669 8.57097 8.57097 2.52669 16 2.52669C23.4285 2.52669 29.4733 8.57097 29.4733 16C29.4733 23.429 23.4285 29.4733 16 29.4733C8.57152 29.4733 2.52669 23.429 2.52669 16Z" fill="#0075FF" stroke="#0075FF" stroke-width="0.5"/>
<path d="M11.6916 21.1966H11.9681L11.9638 21.1538C12.0939 21.112 12.2163 21.0395 12.3195 20.9363L16.6281 16.6279L16.6283 16.6277C16.7945 16.4612 16.8883 16.2354 16.8883 15.9998V6.82438C16.8883 6.33361 16.4904 5.93604 16 5.93604C15.5092 5.93604 15.1116 6.33392 15.1116 6.82438L15.1119 15.6317L11.0635 19.6801L11.0635 19.6801C10.7165 20.027 10.7164 20.5895 11.0635 20.9364C11.2369 21.1098 11.4647 21.1966 11.6916 21.1966Z" fill="#0075FF" stroke="#0075FF" stroke-width="0.5"/>
</svg>
