<svg width="379" height="677" viewBox="0 0 379 677" fill="none" xmlns="http://www.w3.org/2000/svg">
<path d="M321.25 121.38C310.76 108.79 304.09 93.45 302.04 77.18L295.44 24.93C294.04 9.69 241.74 2.07 189.44 2C137.15 2.07 84.8401 9.69 83.4401 24.94L76.8501 77.19C74.8001 93.45 68.1301 108.79 57.6301 121.39C57.6301 121.39 52.1301 128.19 41.8301 136.74C41.8301 136.74 69.8301 120.74 87.8301 121.74C105.84 122.74 287.83 121.42 287.83 121.42C287.83 121.42 317.83 122.74 333.83 134.74C333.83 134.73 328.83 130.73 321.25 121.38Z" stroke="#0075FF" stroke-width="3" stroke-miterlimit="10"/>
<path d="M376.88 465.2C376.88 489.09 367.58 511.55 350.68 528.44C333.79 545.33 311.33 554.64 287.44 554.64H91.43C67.54 554.64 45.08 545.34 28.19 528.44C11.3 511.55 2 489.09 2 465.2V211.3C2 187.41 11.3 164.95 28.2 148.06C45.09 131.17 67.55 121.86 91.44 121.86H287.46C311.35 121.86 333.81 131.16 350.7 148.06C367.59 164.95 376.9 187.41 376.9 211.3V465.2H376.88Z" stroke="#0075FF" stroke-width="3" stroke-miterlimit="10"/>
<path d="M367.34 211.3V465.2C367.34 486.53 359.03 506.59 343.94 521.68C342.88 522.74 341.8 523.76 340.7 524.74C340.33 525.08 339.95 525.41 339.57 525.74C339.17 526.09 338.77 526.43 338.36 526.76C338.08 527 337.79 527.23 337.51 527.46C337.25 527.68 336.98 527.89 336.71 528.1C336.53 528.25 336.34 528.39 336.16 528.53C335.82 528.8 335.48 529.06 335.13 529.32C335 529.42 334.86 529.52 334.73 529.61C334.39 529.87 334.04 530.12 333.7 530.37C333.39 530.59 333.09 530.8 332.77 531.02C332.64 531.11 332.52 531.2 332.38 531.28C332.07 531.5 331.77 531.71 331.45 531.91C331.04 532.19 330.63 532.45 330.21 532.71C330.16 532.75 330.11 532.78 330.06 532.81C329.63 533.08 329.21 533.35 328.77 533.6C328.08 534.03 327.38 534.43 326.68 534.83C326.15 535.14 325.61 535.43 325.07 535.71C324.5 536.02 323.92 536.32 323.35 536.61C322.77 536.9 322.19 537.19 321.6 537.46C321.01 537.74 320.42 538.01 319.83 538.27C319.24 538.53 318.65 538.79 318.05 539.03C317.45 539.28 316.85 539.52 316.24 539.75C315.15 540.17 314.05 540.57 312.94 540.94C312.58 541.06 312.21 541.18 311.85 541.29C311.58 541.38 311.3 541.47 311.03 541.54C310.78 541.62 310.53 541.7 310.28 541.76C309.88 541.89 309.46 542.01 309.05 542.12C308.89 542.16 308.73 542.21 308.57 542.25C308.09 542.38 307.61 542.51 307.12 542.63C307 542.66 306.87 542.69 306.75 542.72C306.37 542.82 305.98 542.91 305.6 543C305.28 543.07 304.95 543.15 304.62 543.22C304.2 543.32 303.78 543.41 303.35 543.49C303.25 543.51 303.15 543.53 303.04 543.55C302.52 543.65 302 543.75 301.47 543.84C301.35 543.86 301.24 543.88 301.12 543.9C300.51 544 299.9 544.1 299.28 544.19C298.73 544.27 298.18 544.35 297.63 544.41C297.5 544.43 297.37 544.45 297.24 544.46C296.06 544.61 294.87 544.72 293.67 544.81C293.38 544.83 293.09 544.85 292.79 544.88C292.72 544.89 292.64 544.89 292.57 544.9C292.19 544.92 291.81 544.94 291.43 544.96C290.82 544.99 290.22 545.01 289.61 545.03C289.42 545.04 289.24 545.04 289.04 545.05C288.51 545.06 287.98 545.07 287.44 545.07H91.4196C90.8996 545.07 90.3796 545.06 89.8596 545.05C89.6596 545.04 89.4596 545.04 89.2696 545.03C88.6596 545.01 88.0596 544.99 87.4596 544.96H87.3896C87.0096 544.94 86.6296 544.92 86.2496 544.89C85.9896 544.87 85.7296 544.86 85.4696 544.84C85.1096 544.82 84.7496 544.79 84.3896 544.76C84.0996 544.73 83.7996 544.7 83.4996 544.67C82.6696 544.59 81.8396 544.5 81.0196 544.39C80.5596 544.34 80.0996 544.27 79.6296 544.2C79.1396 544.13 78.6396 544.05 78.1496 543.97C77.7696 543.91 77.3896 543.84 76.9996 543.77C76.6496 543.71 76.2996 543.64 75.9696 543.58C75.5096 543.5 75.0596 543.41 74.6096 543.3C74.1196 543.2 73.6396 543.09 73.1596 542.98C72.7896 542.9 72.4096 542.8 72.0396 542.71C71.9696 542.7 71.9096 542.68 71.8496 542.67C71.3496 542.54 70.8496 542.42 70.3396 542.27C69.8796 542.15 69.4296 542.02 68.9796 541.89C68.4996 541.76 68.0196 541.61 67.5396 541.46C66.9596 541.28 66.3896 541.09 65.8096 540.9C65.2296 540.71 64.6596 540.51 64.0896 540.3C63.5996 540.13 63.1196 539.95 62.6396 539.76C62.1696 539.58 61.6996 539.39 61.2196 539.2C59.1696 538.37 57.1596 537.45 55.1896 536.44C54.7296 536.21 54.2696 535.97 53.8096 535.72C53.3296 535.47 52.8596 535.21 52.3896 534.94C52.0796 534.77 51.7796 534.6 51.4696 534.41C51.1896 534.25 50.9196 534.1 50.6396 533.92C50.4396 533.81 50.2396 533.69 50.0396 533.56C49.7096 533.37 49.3796 533.16 49.0496 532.95C48.6596 532.7 48.2596 532.46 47.8796 532.19C47.8596 532.18 47.8396 532.17 47.8096 532.15C47.3096 531.84 46.8096 531.5 46.3196 531.15C46.3096 531.15 46.2996 531.14 46.2896 531.13C45.8896 530.87 45.4996 530.59 45.1096 530.3C44.8296 530.11 44.5596 529.91 44.2896 529.71C43.7996 529.36 43.3296 529.01 42.8596 528.63C42.6096 528.44 42.3596 528.26 42.1096 528.05C41.6296 527.68 41.1596 527.29 40.6896 526.9C40.2296 526.52 39.7696 526.14 39.3196 525.74C38.9596 525.43 38.5996 525.12 38.2496 524.8C37.1296 523.8 36.0296 522.76 34.9496 521.68C19.8596 506.59 11.5596 486.53 11.5596 465.2V211.3C11.5596 211.08 11.5596 210.85 11.5696 210.63C11.5796 210 11.5796 209.38 11.6096 208.76C11.6096 208.66 11.6196 208.55 11.6196 208.45C11.6396 207.87 11.6596 207.29 11.6996 206.71V206.67C11.7396 206.03 11.7796 205.39 11.8296 204.74C11.8796 204.13 11.9296 203.52 11.9996 202.91C11.9996 202.81 12.0196 202.72 12.0296 202.61C12.0796 202.03 12.1496 201.46 12.2196 200.89C12.2896 200.39 12.3496 199.88 12.4396 199.38C12.4996 198.92 12.5696 198.46 12.6596 198C12.6996 197.76 12.7296 197.53 12.7796 197.29C12.8396 196.92 12.9096 196.53 12.9896 196.16C13.0696 195.71 13.1596 195.25 13.2596 194.8C13.3596 194.28 13.4796 193.74 13.5996 193.22C13.7096 192.73 13.8196 192.24 13.9496 191.75C14.0796 191.2 14.2296 190.65 14.3796 190.1C14.3996 190 14.4196 189.91 14.4496 189.82C14.5596 189.41 14.6796 189 14.7996 188.59C14.9296 188.16 15.0496 187.73 15.1896 187.3C15.3496 186.8 15.4996 186.3 15.6796 185.8C15.8696 185.22 16.0796 184.63 16.2896 184.05C16.3396 183.91 16.3896 183.77 16.4496 183.63C16.6196 183.17 16.7896 182.7 16.9696 182.24C16.9996 182.16 17.0396 182.08 17.0696 181.99C17.2696 181.47 17.4796 180.96 17.6996 180.45C17.7296 180.37 17.7596 180.29 17.7996 180.21C18.0196 179.69 18.2496 179.16 18.4796 178.64C18.7396 178.06 19.0096 177.47 19.2896 176.89C19.8096 175.8 20.3496 174.73 20.9196 173.68C21.1196 173.3 21.3196 172.92 21.5396 172.54C21.9596 171.78 22.3896 171.03 22.8396 170.29C23.1796 169.73 23.5096 169.17 23.8696 168.63C25.9596 165.33 28.2996 162.17 30.8996 159.18C31.2096 158.82 31.5296 158.45 31.8596 158.09C32.8596 156.97 33.8896 155.87 34.9596 154.8C49.5096 140.25 68.7096 132 89.2096 131.44H89.2696C89.9896 131.42 90.7196 131.41 91.4396 131.41H287.46C288.19 131.41 288.91 131.42 289.63 131.44H289.69C310.19 132 329.38 140.25 343.94 154.8C359.02 169.9 367.34 189.97 367.34 211.3Z" stroke="#0075FF" stroke-width="3" stroke-miterlimit="10"/>
<path d="M348.23 211.3V465.2C348.23 481.43 341.9 496.69 330.42 508.17C329.62 508.97 328.79 509.75 327.97 510.48L327.86 510.58L327.75 510.69C327.59 510.84 327.42 510.99 327.24 511.14L327.06 511.29L326.88 511.45C326.75 511.58 326.55 511.74 326.28 511.95L326.17 512.05L326.05 512.15C325.92 512.26 325.79 512.37 325.66 512.47L325.36 512.71L325.15 512.89C325.09 512.93 325.02 512.98 324.96 513.03L324.77 513.18L324.59 513.31L324.21 513.61C324.08 513.71 323.96 513.8 323.83 513.9L323.63 514.03L323.14 514.4C322.97 514.53 322.79 514.66 322.61 514.79C322.42 514.92 322.23 515.06 322.03 515.19L321.86 515.29L321.33 515.67C321.19 515.77 321.13 515.81 321.11 515.82L320.95 515.93L320.78 516.04C320.51 516.22 320.23 516.39 319.96 516.57L319.52 516.85C319.36 516.95 319.22 517.04 319.12 517.1L318.92 517.22L318.72 517.35C318.33 517.59 317.89 517.85 317.31 518.17L317.23 518.22L317.14 518.27C316.89 518.41 316.58 518.58 316.17 518.8L316.1 518.84L316.02 518.88C315.63 519.09 315.21 519.31 314.74 519.55C314.36 519.74 313.95 519.94 313.48 520.16C313.02 520.37 312.57 520.58 312.12 520.78C311.64 520.99 311.21 521.18 310.79 521.35C310.3 521.55 309.86 521.72 309.44 521.88L309.41 521.89L309.39 521.9C308.59 522.21 307.75 522.51 306.9 522.8C306.7 522.87 306.5 522.93 306.29 523L306.07 523.07L305.85 523.14L305.8 523.15L305.49 523.23L305.2 523.33L304.94 523.4L304.58 523.51C304.43 523.56 304.26 523.61 304.06 523.66L303.99 523.68L303.81 523.72L303.44 523.82C303.16 523.9 302.88 523.98 302.59 524.04L302.58 524.05L302.54 524.06L302.48 524.08L302.17 524.15L302.13 524.16L302.08 524.18C301.92 524.22 301.77 524.26 301.62 524.29L301.47 524.33L301.33 524.36C301.17 524.4 301 524.44 300.84 524.47L300.6 524.52L300.35 524.57C300.21 524.61 300.06 524.64 299.91 524.67L299.84 524.68L299.47 524.75L299.46 524.76H299.45L299.31 524.79C299 524.85 298.69 524.91 298.38 524.96L297.97 525.03C297.51 525.11 297.05 525.19 296.58 525.25L296.54 525.26H296.5C296.13 525.32 295.74 525.37 295.36 525.42L294.87 525.48L294.78 525.5C294.04 525.6 293.23 525.67 292.31 525.74H292.3L292.28 525.75L291.54 525.8C291.49 525.81 291.45 525.81 291.41 525.81C291.31 525.82 291.22 525.82 291.13 525.82C290.92 525.84 290.71 525.84 290.5 525.86C290.07 525.88 289.65 525.89 289.22 525.9H289.03C288.92 525.91 288.81 525.91 288.69 525.92C288.3 525.92 287.92 525.93 287.53 525.93H91.4199C91.0399 525.93 90.6599 525.92 90.2899 525.92C90.1699 525.91 90.0499 525.91 89.9299 525.9H89.7399C89.2899 525.88 88.8499 525.87 88.4099 525.85L87.9299 525.83H87.8499C87.8099 525.83 87.7799 525.82 87.7299 525.82L87.5399 525.81L87.3399 525.79C87.2499 525.79 87.1599 525.78 87.0999 525.77L86.8799 525.75L86.6599 525.74C86.4899 525.73 86.3199 525.72 86.1499 525.7L85.3999 525.63L85.2999 525.61L85.1999 525.6C84.7199 525.56 84.1999 525.5 83.5999 525.41L83.3799 525.38L83.1599 525.36C82.9299 525.34 82.6999 525.3 82.4799 525.26L82.3899 525.25L82.2999 525.23L82.2199 525.21C81.9099 525.17 81.6099 525.12 81.2999 525.07L81.2099 525.05L81.1299 525.03C80.9799 525.01 80.8399 524.98 80.6899 524.96L80.4599 524.91L80.2299 524.87C80.0599 524.84 79.8899 524.81 79.7299 524.77L79.5599 524.74L79.3799 524.7C79.0999 524.65 78.9999 524.62 78.9799 524.62L78.6799 524.55L78.3799 524.49C78.0999 524.43 77.8299 524.36 77.5499 524.3L77.4499 524.28L77.3199 524.25C77.2199 524.23 77.1199 524.21 77.0099 524.17L76.5299 524.06L76.4299 524.04C76.1499 523.97 75.8699 523.9 75.5799 523.82L75.3999 523.77L75.2199 523.72C74.9399 523.65 74.6799 523.57 74.4099 523.49L74.2899 523.46L74.1699 523.42C73.8799 523.34 73.5899 523.24 73.2899 523.15L73.2599 523.14H73.2499C72.8199 523 72.3799 522.86 71.9499 522.71C71.5399 522.57 71.1299 522.43 70.7299 522.28L70.6099 522.24L70.4899 522.2C70.2299 522.1 69.9399 522 69.6299 521.88L69.5599 521.85L69.4899 521.82C69.1799 521.7 68.8699 521.58 68.5599 521.45L68.5199 521.43L68.4799 521.41C66.9399 520.78 65.4199 520.09 63.9799 519.35L63.8899 519.3L63.7999 519.26C63.5199 519.13 63.2399 518.98 62.9599 518.83L62.8999 518.8L62.8399 518.76C62.5399 518.6 62.1999 518.42 61.9299 518.27L61.8599 518.23L61.7899 518.19C61.6699 518.12 61.5599 518.06 61.4699 518.01L61.2099 517.85L60.9499 517.7C60.8799 517.66 60.7999 517.62 60.7299 517.57L60.3899 517.35L60.1999 517.25L60.0599 517.16L59.9299 517.08L59.8799 517.03L58.6399 516.26L58.0399 515.86L56.4999 514.92L56.4599 514.91L56.2199 514.74L55.8799 514.5L55.7799 514.43L55.6499 514.33L55.5199 514.23C55.2099 514.01 54.9699 513.83 54.7699 513.67L54.4899 513.45L54.2099 513.24L54.1699 513.21L54.0699 513.14L53.8999 513.01C53.5599 512.74 53.2199 512.46 52.8499 512.16C52.5999 511.94 52.2599 511.67 51.9899 511.43L51.8799 511.33L51.7599 511.22C51.5699 511.06 51.3599 510.88 51.1799 510.71L51.0699 510.61L50.9299 510.5C50.1199 509.78 49.2899 509 48.4699 508.17C36.9899 496.69 30.6699 481.44 30.6699 465.2V211.07L30.6799 210.86C30.6799 210.38 30.6899 209.92 30.6999 209.44L30.7099 209.1V209C30.7199 208.65 30.7399 208.3 30.7599 207.94L30.7999 207.33V207.26C30.8199 206.94 30.8399 206.62 30.8699 206.29V206.22L30.8799 206.15C30.8999 205.83 30.9399 205.45 30.9799 205.02L30.9899 204.92L30.9999 204.83L31.0099 204.7L31.0899 203.97V203.88C31.1099 203.74 31.1299 203.58 31.1499 203.41L31.1599 203.34C31.1999 203.06 31.2299 202.77 31.2799 202.49L31.3299 202.16L31.3799 201.83C31.3899 201.79 31.3999 201.66 31.4499 201.4L31.4899 201.18L31.5299 200.96L31.5499 200.81L31.5899 200.6L31.6299 200.35C31.6599 200.21 31.6899 200.07 31.7099 199.93L31.7399 199.77L31.7699 199.62C31.8099 199.37 31.8699 199.12 31.9199 198.86L31.9499 198.72L31.9799 198.57C32.0499 198.21 32.1099 197.94 32.1599 197.75L32.1799 197.65L32.2099 197.55L32.2399 197.41C32.2999 197.15 32.3599 196.88 32.4299 196.62L32.4699 196.46L32.5099 196.31C32.5999 195.97 32.6699 195.67 32.7399 195.43L32.8799 194.94L32.9299 194.76C32.9999 194.52 33.0599 194.3 33.1299 194.06L33.1399 194.03L33.1499 194C33.2399 193.7 33.3299 193.39 33.4299 193.09V193.08L33.4399 193.06C33.5399 192.75 33.6299 192.44 33.7399 192.13L33.7799 192.01L33.8199 191.89C33.9499 191.49 34.0999 191.07 34.2399 190.66L34.2499 190.65L34.3799 190.31C34.5099 189.97 34.6299 189.62 34.7699 189.28L34.7799 189.24C34.8199 189.14 34.8599 189.03 34.8999 188.93C35.0299 188.59 35.1599 188.28 35.2799 187.99L35.4899 187.51L35.5099 187.44C35.6399 187.13 35.7799 186.82 35.9099 186.51C36.0999 186.08 36.3099 185.64 36.5099 185.21L36.5199 185.18L36.5299 185.14C36.9299 184.31 37.3299 183.51 37.7299 182.79L37.7599 182.72L37.7999 182.65C37.8799 182.49 37.9699 182.32 38.0599 182.16L38.1499 182L38.2399 181.84C38.5999 181.19 38.8899 180.68 39.1699 180.23L39.1899 180.19L39.2099 180.15C39.4299 179.78 39.6899 179.36 39.9099 179L39.9499 178.95L39.9799 178.89C41.5799 176.38 43.3699 173.96 45.3199 171.71L45.3599 171.67L45.3999 171.63C45.5899 171.41 45.7599 171.21 45.9099 171.05L46.0199 170.94L46.1199 170.82C46.8399 170 47.6199 169.18 48.4299 168.36C59.2799 157.51 73.6399 151.22 88.9299 150.61L89.5399 150.59H90.3899L90.5799 150.57C90.8299 150.57 91.1099 150.56 91.4099 150.56H287.43C287.73 150.56 288.01 150.57 288.26 150.57L288.45 150.59H289.3L289.89 150.61C305.18 151.22 319.54 157.5 330.39 168.36C341.9 179.82 348.23 195.07 348.23 211.3Z" stroke="#0075FF" stroke-width="3" stroke-miterlimit="10"/>
<path d="M321.25 555.35C310.76 567.94 304.09 583.28 302.04 599.55L295.44 651.8C294.05 667.05 241.75 674.67 189.45 674.74C137.16 674.67 84.8596 667.05 83.4596 651.8L76.8696 599.55C74.8196 583.29 68.1496 567.95 57.6496 555.35C57.6496 555.35 52.1496 548.55 41.8496 540C41.8496 540 69.8496 556 87.8496 555C105.86 554 287.85 555.32 287.85 555.32C287.85 555.32 317.85 554 333.85 542C333.83 542 328.83 546 321.25 555.35Z" stroke="#0075FF" stroke-width="3" stroke-miterlimit="10"/>
</svg>
