<svg width="897" height="721" viewBox="0 0 897 721" fill="none" xmlns="http://www.w3.org/2000/svg">
<path d="M332.72 702.388L332.892 702.782L332.72 702.389C331.172 703.064 327.98 703.781 324.046 704.498C320.132 705.212 315.54 705.916 311.227 706.577C303.523 707.758 299.111 708.486 296.625 709.104C295.391 709.41 294.578 709.702 294.07 710.038C293.809 710.212 293.61 710.408 293.48 710.643C293.348 710.88 293.304 711.124 293.304 711.362V713.565C293.304 713.689 293.3 713.897 293.374 714.105C293.456 714.335 293.617 714.526 293.863 714.683C294.274 714.945 294.983 715.146 296.189 715.32V715.321V715.326V715.331V715.336V715.341V715.346V715.351V715.356V715.361V715.366V715.371V715.376V715.38V715.385V715.39V715.395V715.4V715.405V715.41V715.415V715.42V715.425V715.43V715.435V715.44V715.445V715.45V715.455V715.46V715.465V715.47V715.476V715.481V715.486V715.491V715.496V715.501V715.506V715.511V715.516V715.521V715.526V715.531V715.536V715.542V715.547V715.552V715.557V715.562V715.567V715.572V715.577V715.582V715.588V715.593V715.598V715.603V715.608V715.613V715.619V715.624V715.629V715.634V715.639V715.644V715.65V715.655V715.66V715.665V715.67V715.676V715.681V715.686V715.691V715.696V715.702V715.707V715.712V715.717V715.722V715.728V715.733V715.738V715.743V715.749V715.754V715.759V715.764V715.77V715.775V715.78V715.785V715.791V715.796V715.801V715.807V715.812V715.817V715.822V715.828V715.833V715.838V715.844V715.849V715.854V715.859V715.865V715.87V715.875V715.881V715.886V715.891V715.897V715.902V715.907V715.912V715.918V715.923V715.928V715.934V715.939V715.944V715.95V715.955V715.96V715.966V715.971V715.976V715.982V715.987V715.992V715.998V716.003V716.009V716.014V716.019V716.025V716.03V716.035V716.041V716.046V716.051V716.057V716.062V716.067V716.073V716.078V716.084V716.089V716.094V716.1V716.105V716.11V716.116V716.121V716.127V716.132V716.137V716.143V716.148V716.153V716.159V716.164V716.17V716.175V716.18V716.186V716.191V716.196V716.202V716.207V716.213V716.218V716.223V716.229V716.234V716.24V716.245V716.25V716.256V716.261V716.266V716.272V716.277V716.283V716.288V716.293V716.299V716.304V716.309V716.315V716.32V716.326V716.331V716.336V716.342V716.347V716.352V716.358V716.363V716.369V716.374V716.379V716.385V716.39V716.395V716.401V716.406V716.412V716.417V716.422V716.428V716.433V716.438V716.444V716.449V716.454V716.46V716.465V716.471V716.476V716.481V716.487V716.492V716.497V716.503V716.508V716.513V716.519V716.524V716.529V716.535V716.54V716.545V716.551V716.556V716.561V716.567V716.572V716.577V716.583V716.588V716.593V716.599V716.604V716.609V716.615V716.62V716.625V716.63V716.636V716.641V716.646V716.652V716.657V716.662V716.668V716.673V716.678V716.683V716.689V716.694V716.699V716.705V716.71V716.715V716.72V716.726V716.731V716.736V716.741V716.747V716.752V716.757V716.762V716.768V716.773V716.778V716.783V716.789V716.794V716.799V716.804V716.809V716.815V716.82V716.825V716.83V716.835V716.841V716.846V716.851V716.856V716.861V716.867V716.872V716.877V716.882V716.887V716.892V716.898V716.903V716.908V716.913V716.918V716.923V716.928V716.933V716.939V716.944V716.949V716.954V716.959V716.964V716.969V716.974V716.979V716.985V716.99V716.995V717V717.005V717.01V717.015V717.02V717.025V717.03V717.035V717.04V717.045V717.05V717.055V717.06V717.065V717.07V717.075V717.08V717.085V717.09V717.095V717.1V717.105V717.11V717.115V717.12V717.125V717.13V717.135V717.14V717.145V717.15V717.155V717.16V717.165V717.169V717.174V717.179V717.184V717.189V717.194V717.199V717.204V717.209V717.213V717.218V717.223V717.228V717.233V717.238V717.242V717.247V717.252V717.257V717.262V717.266V717.271V717.276V717.281V717.286V717.29V717.295V717.3V717.305V717.309V717.314V717.319V717.323V717.328V717.333V717.338V717.342V717.347V717.352V717.356V717.361V717.366V717.37V717.375V717.38V717.384V717.389V717.393V717.398V717.403V717.407V717.412V717.416V717.421V717.426V717.43V717.435V717.439V717.444V717.448V717.453V717.457V717.462V717.466V717.471V717.475V717.48V717.484V717.489V717.493V717.498V717.502V717.507V717.511V717.515V717.52V717.524V717.529C296.189 717.698 296.27 717.824 296.342 717.9C296.412 717.974 296.494 718.025 296.563 718.061C296.702 718.134 296.882 718.191 297.078 718.24C297.478 718.341 298.051 718.431 298.773 718.515C300.221 718.683 302.331 718.831 304.991 718.961C310.313 719.222 317.87 719.414 326.815 719.554C344.708 719.833 368.174 719.906 390.47 719.906C404.289 719.906 417.659 719.879 428.976 719.856C436.132 719.841 442.467 719.828 447.575 719.825C452.684 719.828 459.02 719.841 466.177 719.856C477.494 719.879 490.865 719.906 504.68 719.906C526.977 719.906 550.441 719.833 568.333 719.554C577.278 719.414 584.834 719.222 590.156 718.961C592.815 718.831 594.925 718.683 596.374 718.515C597.095 718.431 597.669 718.341 598.068 718.24C598.264 718.191 598.444 718.134 598.583 718.061C598.652 718.025 598.734 717.974 598.804 717.9C598.876 717.824 598.957 717.698 598.957 717.529V717.524V717.52V717.515V717.511V717.507V717.502V717.498V717.493V717.489V717.484V717.48V717.475V717.471V717.466V717.462V717.457V717.453V717.448V717.444V717.439V717.435V717.43V717.426V717.421V717.416V717.412V717.407V717.403V717.398V717.393V717.389V717.384V717.38V717.375V717.37V717.366V717.361V717.356V717.352V717.347V717.342V717.338V717.333V717.328V717.323V717.319V717.314V717.309V717.305V717.3V717.295V717.29V717.286V717.281V717.276V717.271V717.266V717.262V717.257V717.252V717.247V717.242V717.238V717.233V717.228V717.223V717.218V717.213V717.209V717.204V717.199V717.194V717.189V717.184V717.179V717.174V717.169V717.165V717.16V717.155V717.15V717.145V717.14V717.135V717.13V717.125V717.12V717.115V717.11V717.105V717.1V717.095V717.09V717.085V717.08V717.075V717.07V717.065V717.06V717.055V717.05V717.045V717.04V717.035V717.03V717.025V717.02V717.015V717.01V717.005V717V716.995V716.99V716.985V716.979V716.974V716.969V716.964V716.959V716.954V716.949V716.944V716.939V716.933V716.928V716.923V716.918V716.913V716.908V716.903V716.898V716.892V716.887V716.882V716.877V716.872V716.867V716.861V716.856V716.851V716.846V716.841V716.835V716.83V716.825V716.82V716.815V716.809V716.804V716.799V716.794V716.789V716.783V716.778V716.773V716.768V716.762V716.757V716.752V716.747V716.741V716.736V716.731V716.726V716.72V716.715V716.71V716.705V716.699V716.694V716.689V716.683V716.678V716.673V716.668V716.662V716.657V716.652V716.646V716.641V716.636V716.63V716.625V716.62V716.615V716.609V716.604V716.599V716.593V716.588V716.583V716.577V716.572V716.567V716.561V716.556V716.551V716.545V716.54V716.535V716.529V716.524V716.519V716.513V716.508V716.503V716.497V716.492V716.487V716.481V716.476V716.471V716.465V716.46V716.454V716.449V716.444V716.438V716.433V716.428V716.422V716.417V716.412V716.406V716.401V716.395V716.39V716.385V716.379V716.374V716.369V716.363V716.358V716.352V716.347V716.342V716.336V716.331V716.326V716.32V716.315V716.309V716.304V716.299V716.293V716.288V716.283V716.277V716.272V716.266V716.261V716.256V716.25V716.245V716.24V716.234V716.229V716.223V716.218V716.213V716.207V716.202V716.196V716.191V716.186V716.18V716.175V716.17V716.164V716.159V716.153V716.148V716.143V716.137V716.132V716.127V716.121V716.116V716.11V716.105V716.1V716.094V716.089V716.084V716.078V716.073V716.067V716.062V716.057V716.051V716.046V716.041V716.035V716.03V716.025V716.019V716.014V716.009V716.003V715.998V715.992V715.987V715.982V715.976V715.971V715.966V715.96V715.955V715.95V715.944V715.939V715.934V715.928V715.923V715.918V715.912V715.907V715.902V715.897V715.891V715.886V715.881V715.875V715.87V715.865V715.859V715.854V715.849V715.844V715.838V715.833V715.828V715.822V715.817V715.812V715.807V715.801V715.796V715.791V715.785V715.78V715.775V715.77V715.764V715.759V715.754V715.749V715.743V715.738V715.733V715.728V715.722V715.717V715.712V715.707V715.702V715.696V715.691V715.686V715.681V715.676V715.67V715.665V715.66V715.655V715.65V715.644V715.639V715.634V715.629V715.624V715.619V715.613V715.608V715.603V715.598V715.593V715.588V715.582V715.577V715.572V715.567V715.562V715.557V715.552V715.547V715.542V715.536V715.531V715.526V715.521V715.516V715.511V715.506V715.501V715.496V715.491V715.486V715.481V715.476V715.47V715.465V715.46V715.455V715.45V715.445V715.44V715.435V715.43V715.425V715.42V715.415V715.41V715.405V715.4V715.395V715.39V715.385V715.38V715.376V715.371V715.366V715.361V715.356V715.351V715.346V715.341V715.336V715.331V715.326V715.321V715.321C600.163 715.146 600.872 714.946 601.282 714.685C601.529 714.528 601.69 714.337 601.772 714.106C601.847 713.898 601.842 713.69 601.842 713.565V711.362C601.842 711.124 601.798 710.88 601.666 710.643C601.536 710.409 601.337 710.212 601.075 710.039C600.568 709.703 599.755 709.412 598.521 709.105C596.036 708.488 591.623 707.761 583.919 706.577L583.745 706.55C579.483 705.895 574.962 705.2 571.1 704.497C567.166 703.78 563.974 703.064 562.426 702.389L562.255 702.782L562.426 702.388C562.405 702.379 562.12 702.229 561.639 701.281C561.167 700.351 560.535 698.712 559.777 695.845C558.262 690.113 556.262 679.536 554.012 660.045C552.374 645.852 551.087 630.901 550.386 619.881H869.866C884.538 619.881 896.429 607.985 896.429 593.317V538.469V536.765V27.5496C896.429 12.8814 884.538 0.985576 869.866 0.985576H27.134C12.466 0.985576 0.570537 12.8813 0.570537 27.5496V536.765V538.469V593.317C0.570537 607.99 12.466 619.881 27.134 619.881H344.76C344.059 630.901 342.772 645.852 341.134 660.045C338.884 679.536 336.884 690.113 335.369 695.845C334.611 698.712 333.979 700.351 333.507 701.281C333.026 702.229 332.741 702.379 332.72 702.388ZM325.324 716.445L325.331 716.016L325.324 716.445C340.739 716.68 361.897 716.799 390.01 716.799C403.904 716.799 417.065 716.773 428.675 716.748C435.975 716.731 442.419 716.718 447.575 716.718C451.681 716.721 456.602 716.73 462.123 716.74L466.476 716.748C478.09 716.773 491.251 716.799 505.141 716.799C533.253 716.799 554.412 716.684 569.826 716.445C584.758 716.215 592.647 715.93 596.82 715.562V716.316C594.504 716.66 587.298 717.146 566.191 717.449C551.243 717.662 531.125 717.768 504.676 717.768C491.004 717.768 478.002 717.743 466.525 717.717C459.224 717.7 452.762 717.687 447.571 717.687C442.375 717.692 435.918 717.704 428.617 717.717L423.274 717.727C413.169 717.747 402.06 717.768 390.47 717.768C364.03 717.768 343.907 717.662 328.96 717.449C307.85 717.146 300.645 716.664 298.331 716.317V715.562C302.503 715.93 310.392 716.215 325.324 716.445ZM551.467 660.344C553.888 681.321 556.013 692.235 557.689 697.978C558.526 700.847 559.26 702.453 559.88 703.384C560.193 703.854 560.482 704.158 560.748 704.367C561.014 704.576 561.242 704.675 561.398 704.743L561.401 704.744C563.159 705.511 566.426 706.252 570.353 706.975C574.252 707.692 578.853 708.399 583.378 709.095L583.529 709.118C586.79 709.619 590.427 710.178 593.442 710.707C594.949 710.972 596.297 711.229 597.361 711.467C598.234 711.662 598.885 711.838 599.279 711.986V712.725C598.76 712.823 597.951 712.921 596.838 713.015C595.47 713.13 593.669 713.237 591.435 713.337C586.967 713.535 580.78 713.701 572.884 713.835C557.093 714.101 534.479 714.235 505.141 714.235C491.252 714.235 478.091 714.21 466.478 714.184C459.177 714.167 452.733 714.154 447.571 714.154C443.466 714.158 438.552 714.166 433.038 714.176L428.664 714.184C417.055 714.21 403.894 714.235 390.001 714.235C360.663 714.235 338.049 714.101 322.258 713.835C314.362 713.701 308.175 713.535 303.707 713.337C301.473 713.237 299.672 713.13 298.304 713.015C297.191 712.921 296.382 712.823 295.863 712.725V711.985C296.256 711.838 296.906 711.662 297.779 711.467C298.842 711.229 300.189 710.972 301.697 710.707C304.711 710.178 308.349 709.619 311.613 709.118L311.782 709.092C316.301 708.398 320.896 707.691 324.791 706.975C328.718 706.252 331.985 705.511 333.741 704.744L333.742 704.744C333.899 704.675 334.128 704.576 334.395 704.367C334.661 704.158 334.95 703.854 335.263 703.384C335.884 702.453 336.618 700.847 337.455 697.978C339.131 692.235 341.255 681.321 343.679 660.344C345.33 646.049 346.624 630.976 347.325 619.885H547.817C548.518 630.976 549.816 646.049 551.467 660.344ZM893.866 593.321C893.866 606.556 883.101 617.322 869.866 617.322H27.134C13.8994 617.322 3.13422 606.552 3.13422 593.321V538.899H893.866V593.321ZM3.13422 536.335V27.5496C3.13422 14.3188 13.8994 3.5493 27.134 3.5493H869.866C883.101 3.5493 893.866 14.3188 893.866 27.5496V536.335H3.13422Z" fill="#0075FF" stroke="#0075FF" stroke-width="0.858925"/>
<path d="M857.643 36.7864H39.3569C37.7091 36.7864 36.3703 38.1251 36.3703 39.773V500.069C36.3703 501.717 37.7091 503.055 39.3569 503.055H857.643C859.291 503.055 860.629 501.717 860.629 500.069V39.773C860.629 38.1251 859.291 36.7864 857.643 36.7864ZM857.213 499.639H39.7864V40.2025H857.213V499.639Z" fill="#0075FF" stroke="#0075FF" stroke-width="0.858925"/>
<path d="M448.5 24.0792C450.621 24.0792 452.339 22.3611 452.339 20.2402C452.339 18.1192 450.621 16.4011 448.5 16.4011C446.379 16.4011 444.661 18.1192 444.661 20.2402C444.661 22.3565 446.379 24.0792 448.5 24.0792ZM448.5 18.9648C449.205 18.9648 449.776 19.5354 449.776 20.2402C449.776 20.9449 449.205 21.5155 448.5 21.5155C447.799 21.5155 447.225 20.9442 447.225 20.2402C447.225 19.5361 447.799 18.9648 448.5 18.9648Z" fill="#0075FF" stroke="#0075FF" stroke-width="0.858925"/>
</svg>
