<svg width="86" height="86" viewBox="0 0 86 86" fill="none" xmlns="http://www.w3.org/2000/svg">
<path d="M63.291 27.5518L35.9094 53.9509L22.7091 41.225C21.8363 40.3835 20.5275 40.3835 19.6546 41.225C18.7818 42.0665 18.7818 43.3283 19.6546 44.1699L34.3821 58.3691C34.8182 58.7894 35.3638 59 35.9094 59C36.455 59 37.0006 58.7894 37.4366 58.3691L66.3454 30.4975C67.2182 29.656 67.2182 28.3941 66.3454 27.5525C65.4726 26.8159 64.1639 26.8159 63.291 27.5518Z" fill="#0075FF"/>
<path d="M63.7282 0H22.2718C10.0333 0 0 10.0327 0 22.2718V63.7282C0 75.9675 10.0327 86 22.2718 86H63.7282C75.9674 86 86 75.9673 86 63.7282V22.2718C86 10.0333 75.9673 0 63.7282 0ZM81.5895 63.7282C81.5895 73.541 73.541 81.5895 63.7282 81.5895H22.2718C12.459 81.5895 4.41045 73.541 4.41045 63.7282V22.2718C4.41045 12.459 12.459 4.41045 22.2718 4.41045H63.7282C73.5418 4.41045 81.5903 12.459 81.5903 22.2718L81.5895 63.7282Z" fill="#0075FF"/>
</svg>
