<svg width="98" height="107" viewBox="0 0 98 107" fill="none" xmlns="http://www.w3.org/2000/svg">
<path d="M93.082 69.3447L79.3349 55.5976C79.3187 55.5805 79.3007 55.5634 79.2818 55.549C79.2665 55.531 79.2512 55.5112 79.2341 55.4931L74.661 50.9201C74.0173 50.2772 73.5509 49.4777 73.3069 48.6008L67.6346 16.9674C67.5445 16.4622 67.1817 16.049 66.6919 15.895C66.2021 15.742 65.6681 15.8734 65.3053 16.2363L47.658 33.8836C45.1063 31.9892 41.7983 31.4417 38.7721 32.4124C35.7459 33.3839 33.3743 35.7546 32.4018 38.7799C31.4285 41.8052 31.975 45.1139 33.8676 47.6667L16.2203 65.314C15.8574 65.676 15.726 66.2108 15.879 66.6997C16.033 67.1895 16.4463 67.5533 16.9514 67.6433L48.5987 73.3156C49.4756 73.5596 50.2743 74.026 50.9179 74.6689L55.4938 79.2374L55.5541 79.2905L55.5973 79.3382L57.9292 81.6702L36.1698 93.222C35.156 93.7586 34.4573 94.7454 34.2871 95.8808C34.117 97.0153 34.496 98.1641 35.3082 98.9745L41.311 104.977C41.8566 105.527 42.5661 105.887 43.3324 106.001C44.0995 106.116 44.8828 105.981 45.5662 105.615L69.2844 93.0248L69.3447 93.0851C73.5847 97.3258 79.7666 98.9817 85.5588 97.4296C91.3519 95.8782 95.8763 91.3539 97.4275 85.5608C98.9798 79.7686 97.324 73.5876 93.0831 69.3476L93.082 69.3447ZM44.2742 103.186C43.9411 103.362 43.5323 103.299 43.2658 103.032L37.263 97.0322C37.0676 96.8396 36.9775 96.565 37.0181 96.2939C37.0586 96.0229 37.2251 95.787 37.4673 95.6583L59.9355 83.731L67.2142 91.0115L44.2742 103.186ZM34.6367 41.738C34.6358 40.0138 35.2624 38.349 36.3996 37.0534C37.5368 35.7577 39.1061 34.9195 40.8159 34.6961C42.5249 34.4728 44.2573 34.8789 45.6889 35.8387L35.837 45.6906C35.0519 44.5219 34.634 43.1452 34.6367 41.738ZM49.259 70.6285C49.2239 70.6285 49.186 70.6105 49.1482 70.606L20.0387 65.3874L65.3798 20.0347L70.5985 49.1442C70.6039 49.182 70.6129 49.2189 70.6237 49.255C70.9857 50.6217 71.7033 51.8688 72.7036 52.8682L76.4042 56.5689L56.5688 76.4124L52.8682 72.7117C51.8651 71.7105 50.6154 70.992 49.245 70.6292L49.259 70.6285ZM91.1357 91.132C88.5039 93.7629 84.9349 95.2413 81.2135 95.2413C77.4921 95.2413 73.924 93.7628 71.2922 91.132L58.5203 78.3601L78.3639 58.5166L91.1357 71.2885C93.7629 73.923 95.2379 77.4911 95.237 81.2107C95.237 84.9311 93.7612 88.4992 91.133 91.132H91.1357Z" fill="#0075FF"/>
<path d="M46.978 16.9225C46.7412 16.9531 23.1999 20.2529 16.9442 46.841C16.8595 47.1967 16.9208 47.5713 17.1134 47.8819C17.3061 48.1925 17.6141 48.414 17.9697 48.4977C18.0732 48.5221 18.1786 48.5347 18.2848 48.5356C18.9241 48.5347 19.4787 48.0935 19.6237 47.4713C25.4221 22.7896 46.4374 19.7724 47.3272 19.6549C48.0817 19.5576 48.6156 18.8679 48.5184 18.1134C48.422 17.358 47.7314 16.825 46.9769 16.9222L46.978 16.9225Z" fill="#0075FF"/>
<path d="M47.4505 2.74301C48.1915 2.63226 48.7092 1.94977 48.6147 1.20515C48.5201 0.46143 47.8485 -0.0706962 47.102 0.00764986C46.7266 0.056271 9.85598 5.22634 0.0367976 46.9669C-0.136977 47.707 0.321323 48.448 1.06143 48.6218C1.80153 48.7955 2.54256 48.3372 2.71633 47.5971C12.0874 7.7649 47.0986 2.78846 47.4513 2.74236L47.4505 2.74301Z" fill="#0075FF"/>
</svg>
