<svg width="105" height="105" viewBox="0 0 105 105" fill="none" xmlns="http://www.w3.org/2000/svg">
<path d="M98.8024 29.9063H76.9874V6.19707C76.9874 2.78037 74.207 0 70.7903 0H6.19705C2.78036 0 0 2.78037 0 6.19707V49.0077C0 52.2432 2.4921 54.9074 5.65802 55.182L19.6838 68.1825C19.931 68.4123 20.2515 68.5322 20.5756 68.5322C20.7541 68.5322 20.9317 68.4965 21.1011 68.4224C21.579 68.2145 21.8884 67.7421 21.8884 67.2203V55.2049H28.0124V85.4766C28.0124 88.8933 30.7928 91.6736 34.2095 91.6736H59.0601V103.687C59.0601 104.209 59.3686 104.681 59.8474 104.889C60.0168 104.964 60.1944 105 60.3729 105C60.697 105 61.0175 104.879 61.2646 104.65L75.2675 91.6737H98.8033C102.22 91.6737 105 88.8943 105 85.4767V36.1036C105 32.685 102.22 29.9056 98.8033 29.9056L98.8024 29.9063ZM20.5756 52.58C19.8505 52.58 19.2628 53.1669 19.2628 53.8929V64.2145L7.08917 52.9299C6.84655 52.7055 6.52799 52.5801 6.19748 52.5801C4.22729 52.5801 2.62515 50.978 2.62515 49.0078V6.19716C2.62515 4.22697 4.22731 2.62484 6.19748 2.62484H70.7908C72.761 2.62484 74.3631 4.22699 74.3631 6.19716V29.9064H34.2103C30.7936 29.9064 28.0132 32.6867 28.0132 36.1044V36.5173H15.0997C14.3746 36.5173 13.7868 37.1041 13.7868 37.8301C13.7868 38.5552 14.3737 39.143 15.0997 39.143H28.0132V52.581L20.5756 52.58ZM102.374 85.4767C102.374 87.4469 100.772 89.049 98.8019 89.049H74.7505C74.42 89.049 74.1005 89.1735 73.8588 89.3987L61.6834 100.682V90.3611C61.6834 89.636 61.0966 89.0482 60.3705 89.0482L34.2098 89.0491C32.2396 89.0491 30.6375 87.447 30.6375 85.4768V36.1037C30.6375 34.1335 32.2396 32.5304 34.2098 32.5304H98.803C100.773 32.5304 102.375 34.1335 102.375 36.1037L102.374 85.4767Z" fill="#0075FF"/>
<path d="M15.0983 19.8188H61.8886C62.6137 19.8188 63.2015 19.2319 63.2015 18.5059C63.2015 17.7808 62.6146 17.1931 61.8886 17.1931L15.0983 17.194C14.3732 17.194 13.7855 17.7808 13.7855 18.5068C13.7855 19.2319 14.3732 19.8188 15.0983 19.8188Z" fill="#0075FF"/>
<path d="M92.315 76.7036H91.0754V49.835C91.0754 49.1099 90.4885 48.5221 89.7625 48.5221H71.3286C70.6034 48.5221 70.0157 49.109 70.0157 49.835V76.7059H62.9983V45.2202C62.9983 44.4951 62.4115 43.9073 61.6855 43.9073H43.2506C42.5255 43.9073 41.9377 44.4942 41.9377 45.2202V76.7059H40.6981C39.973 76.7059 39.3853 77.2928 39.3853 78.0188C39.3853 78.7439 39.9721 79.3316 40.6981 79.3316H92.3141C93.0393 79.3316 93.627 78.7448 93.627 78.0188C93.6279 77.2919 93.0411 76.705 92.3151 76.705L92.315 76.7036ZM72.6405 51.1452H88.4506V76.7036H72.6405V51.1452ZM44.5626 46.5308H60.3727V76.7017H44.5626V46.5308Z" fill="#0075FF"/>
</svg>
