<svg width="22" height="22" viewBox="0 0 22 22" fill="none" xmlns="http://www.w3.org/2000/svg">
<g id="Frame 28">
<g id="&#240;&#159;&#166;&#134; icon &#34;arrow right 1&#34;">
<g id="Group">
<path id="Vector" d="M17.0952 14.2432C16.9707 14.3677 16.8004 14.4463 16.6038 14.4463C16.2239 14.4463 15.9094 14.1318 15.9094 13.7518L15.9094 6.49279L8.65035 6.4928C8.27036 6.4928 7.95589 6.17833 7.95589 5.79834C7.95589 5.41835 8.27036 5.10388 8.65035 5.10388L16.6039 5.10387C16.9838 5.10387 17.2983 5.41834 17.2983 5.79833L17.2983 13.7518C17.2983 13.9484 17.2197 14.1187 17.0952 14.2432Z" fill="#0075FF"/>
<path id="Vector_2" d="M16.9837 6.40038L5.95748 17.4265C5.68887 17.6952 5.24337 17.6952 4.97476 17.4265C4.70615 17.1579 4.70615 16.7124 4.97476 16.4438L16.0009 5.41765C16.2695 5.14904 16.715 5.14904 16.9837 5.41765C17.2523 5.68626 17.2523 6.13177 16.9837 6.40038Z" fill="#0075FF"/>
</g>
</g>
</g>
</svg>
