<svg width="45" height="45" viewBox="0 0 45 45" fill="none" xmlns="http://www.w3.org/2000/svg">
<path id="Vector" d="M42.6709 9.31154H33.5768C34.2483 8.85754 34.8135 8.24275 35.2107 7.50501C36.0454 5.95148 36.0194 4.07402 35.1374 2.5465C34.2554 1.01663 32.6452 0.0566101 30.8812 0.00222499C29.1172 -0.0497956 27.4526 0.813273 26.4807 2.2864L22.4066 8.45793L18.3325 2.2864C17.3606 0.815637 15.696 -0.0497956 13.9296 0.00222499C12.1657 0.0542455 10.5554 1.01663 9.67343 2.5465C8.79145 4.07402 8.76307 5.95148 9.60013 7.50501C9.99737 8.24275 10.5625 8.85754 11.234 9.31154H2.32673C1.04041 9.31154 0 10.3543 0 11.6383V15.5185C0 16.8049 1.04277 17.8453 2.32673 17.8453H2.45915C2.37166 18.0912 2.32673 18.3537 2.32673 18.6209V42.6614C2.32673 43.2786 2.57264 43.8721 3.00772 44.3072C3.4428 44.7423 4.03631 44.9882 4.65346 44.9882H18.4838C18.5287 44.9953 18.5736 45 18.6209 45H26.3791C26.4264 45 26.4713 44.9953 26.5162 44.9882H40.3465C40.9637 44.9882 41.5572 44.7423 41.9923 44.3072C42.4297 43.8697 42.6733 43.2786 42.6733 42.6614V18.6209C42.6733 18.3537 42.6283 18.0912 42.5409 17.8453H42.6733C43.9596 17.8453 45 16.8025 45 15.5185V11.6383C45 10.3519 43.9572 9.31154 42.6709 9.31154ZM27.7718 3.14237C28.4481 2.11852 29.6067 1.51791 30.8315 1.55575C32.0587 1.59122 33.1772 2.26275 33.7896 3.32445C34.402 4.38614 34.4209 5.69138 33.8416 6.77199C33.2599 7.8526 32.1628 8.55488 30.9379 8.62818L23.8703 9.05144L27.7718 3.14237ZM10.9621 6.76963C10.3804 5.68902 10.3993 4.38614 11.0141 3.32208C11.6289 2.26039 12.7474 1.59122 13.9722 1.55338C15.1994 1.51791 16.3557 2.11615 17.0319 3.14001L20.9335 9.04907L13.8658 8.62581C12.6433 8.55251 11.5438 7.85023 10.9621 6.76963ZM17.843 43.437H4.65346C4.44774 43.437 4.24912 43.3543 4.10488 43.21C3.95828 43.0634 3.87788 42.8672 3.87788 42.6614V18.6209C3.87788 18.4151 3.95828 18.2165 4.10488 18.0723C4.24912 17.9257 4.44774 17.8453 4.65346 17.8453H17.843V43.437ZM25.6011 43.437H19.3941V17.8453H25.6011V43.437ZM41.1198 42.6614C41.1198 42.8672 41.0394 43.0658 40.8928 43.21C40.7485 43.3543 40.5499 43.437 40.3442 43.437H27.1546V17.8453H40.3442C40.5499 17.8453 40.7485 17.928 40.8928 18.0723C41.0394 18.2165 41.1198 18.4151 41.1198 18.6209V42.6614ZM43.4465 15.5185C43.4465 15.9465 43.0989 16.2941 42.6709 16.2941H2.32673C1.89874 16.2941 1.55115 15.9465 1.55115 15.5185V11.6383C1.55115 11.2103 1.89874 10.8627 2.32673 10.8627H42.6709C43.0989 10.8627 43.4465 11.2103 43.4465 11.6383V15.5185Z" fill="white"/>
</svg>
