<svg width="57" height="57" viewBox="0 0 57 57" fill="none" xmlns="http://www.w3.org/2000/svg">
<g clip-path="url(#clip0_56_1242)">
<path fill-rule="evenodd" clip-rule="evenodd" d="M5.5 5.5H51.5V51.5H5.5V5.5ZM17.5951 43.9409C18.614 46.1022 20.6215 47.8929 24.0794 47.8929C27.9084 47.8929 30.533 45.855 30.533 41.3776V26.6184H26.2101V41.3165C26.2101 43.4777 25.3146 44.0334 23.8941 44.0334C22.4122 44.0334 21.7945 43.0146 21.1154 41.8106L17.5951 43.9409ZM36.4007 41.4398L32.8809 43.4777C34.1467 45.979 36.7406 47.8933 40.7547 47.8933C44.8614 47.8933 47.9183 45.7629 47.9183 41.8721C47.9183 38.2595 45.8494 36.654 42.1749 35.0791L41.0942 34.616C39.2417 33.8131 38.4389 33.2881 38.4389 31.9912C38.4389 30.9415 39.2417 30.1386 40.5077 30.1386C41.7428 30.1386 42.5454 30.6635 43.2866 31.9912L46.6523 29.8297C45.232 27.3286 43.2559 26.3713 40.5077 26.3713C36.6479 26.3713 34.1777 28.8417 34.1777 32.0839C34.1777 35.604 36.2465 37.2714 39.3654 38.599L40.4459 39.0624C42.4221 39.9267 43.5954 40.4517 43.5954 41.9338C43.5954 43.1689 42.4533 44.0646 40.6621 44.0646C38.5316 44.0646 37.3274 42.953 36.4007 41.4398Z" fill="black"/>
</g>
<defs>
<clipPath id="clip0_56_1242">
<rect width="46" height="46" fill="white" transform="translate(5.5 5.5)"/>
</clipPath>
</defs>
</svg>
