<svg width="92" height="48" viewBox="0 0 92 48" fill="none" xmlns="http://www.w3.org/2000/svg">
<g clip-path="url(#clip0_56_1257)">
<path fill-rule="evenodd" clip-rule="evenodd" d="M4 24C4 11.1023 22.4503 1 46 1C69.5497 1 88 11.1023 88 24C88 36.8977 69.5497 47 46 47C22.4503 47 4 36.8977 4 24ZM46.224 8.07693H41.639L37.25 29.3077H41.8437L44.0593 18.6923H47.729C48.898 18.6923 49.6785 18.8851 50.0337 19.2797C50.3873 19.6743 50.4713 20.4209 50.2647 21.4913L48.59 29.3077H53.252L55.072 20.8561C55.4606 18.8303 55.1664 17.3441 54.197 16.4401C53.2047 15.5201 51.4617 15.1539 48.8647 15.1539H44.7697L46.224 8.07693ZM21.5 15.1539H30.831C35.2813 15.1539 37.9745 18.1669 36.921 22.666C35.6977 27.8923 32.4182 29.3077 26.3877 29.3077H23.5038L22.5867 34.6154H17.9527L21.5 15.1539ZM67.581 15.1539H58.25L54.7046 34.6154H59.3385L60.2555 29.3077H63.1395C69.1682 29.3077 72.4496 27.8923 73.671 22.666C74.7245 18.1669 72.0313 15.1539 67.581 15.1539ZM25.4726 18.6923L24.153 25.7693H27.1455C29.7373 25.7693 32.1435 25.472 32.546 21.5673C32.6966 20.0546 32.0753 18.6923 29.081 18.6923H25.4726ZM60.903 25.7693L62.2226 18.6923H65.831C68.8253 18.6923 69.4466 20.0546 69.2977 21.5673C68.8935 25.472 66.4873 25.7693 63.8955 25.7693H60.903Z" fill="black"/>
</g>
<defs>
<clipPath id="clip0_56_1257">
<rect width="84" height="46" fill="white" transform="translate(4 1)"/>
</clipPath>
</defs>
</svg>
