<svg width="73" height="46" viewBox="0 0 73 46" fill="none" xmlns="http://www.w3.org/2000/svg">
<g clip-path="url(#clip0_56_13911)">
<path d="M3.8838 42.3063L0.917969 9.04102H33.5074L30.5384 42.3011L17.1927 46.0009L3.8838 42.3063Z" fill="black"/>
<path d="M27.9968 40.182L30.534 11.7598H17.2129V43.1717L27.9968 40.182Z" fill="black"/>
<path d="M7.7168 24.0977L8.08246 28.1775H17.2124V24.0977H7.7168Z" fill="#F5F5F5"/>
<path d="M7.3533 19.9197H17.2127V15.8398H17.1986H6.98242L7.3533 19.9197Z" fill="#F5F5F5"/>
<path d="M17.1935 38.9428L17.2123 38.9376V34.6928L17.1944 34.6976L12.6506 33.4707L12.3602 30.2168H10.1523H8.26465L8.83623 36.6227L17.1935 38.9428Z" fill="#F5F5F5"/>
<path d="M8.58789 0H13.5293V2.06641H10.6543V4.13281H13.5293V6.19922H8.58789V0Z" fill="black"/>
<path d="M14.5176 0H19.459V1.79687H16.584V2.15625H19.459V6.28906H14.5176V4.40234H17.3926V4.04297H14.5176V0Z" fill="black"/>
<path d="M20.4473 0H25.3887V1.79687H22.5137V2.15625H25.3887V6.28906H20.4473V4.40234H23.3223V4.04297H20.4473V0Z" fill="black"/>
<path d="M27.4183 15.8398H17.1982V19.9197H22.9472L22.5759 24.0976H17.1982V28.1774H22.2221L21.7486 33.4686L17.1982 34.6968V38.9414L25.5622 36.6233L25.6235 35.934L26.5822 25.1931L26.6818 24.0976L27.4183 15.8398Z" fill="#F5F5F5"/>
</g>
<g clip-path="url(#clip1_56_13911)">
<path fill-rule="evenodd" clip-rule="evenodd" d="M72.646 9.01758L69.677 42.1936L56.3314 45.8841L43.0225 42.1988L40.0566 9.01758H72.646Z" fill="black"/>
<path fill-rule="evenodd" clip-rule="evenodd" d="M56.3516 43.0631L67.1355 40.0809L69.6727 11.7305H56.3516V43.0631Z" fill="black"/>
<path fill-rule="evenodd" clip-rule="evenodd" d="M50.5799 19.8704H56.3514V15.8008H46.1211L46.2188 16.8926L47.2215 28.1071H56.3514V24.0376H50.9527L50.5799 19.8704Z" fill="#F5F5F5"/>
<path fill-rule="evenodd" clip-rule="evenodd" d="M51.4988 30.1406H47.4033L47.9749 36.5304L56.3322 38.8446L56.3509 38.8394V34.6053L56.3331 34.6101L51.7893 33.3863L51.4988 30.1406Z" fill="#F5F5F5"/>
<path fill-rule="evenodd" clip-rule="evenodd" d="M43.0889 0H45.1622V2.04326H47.0588V0H49.1322V6.1875H47.0589V4.11556H45.1623V6.1875H43.089V0H43.0889Z" fill="black"/>
<path fill-rule="evenodd" clip-rule="evenodd" d="M51.8585 2.05187H50.0332V0H55.758V2.05187H53.932V6.1875H51.8586V2.05187H51.8585Z" fill="black"/>
<path fill-rule="evenodd" clip-rule="evenodd" d="M56.667 0H58.8289L60.1588 2.1741L61.4873 0H63.65V6.1875H61.5852V3.12063L60.1588 5.32064H60.1231L58.6957 3.12063V6.1875H56.667V0Z" fill="black"/>
<path fill-rule="evenodd" clip-rule="evenodd" d="M64.6816 0H66.7556V4.14227H69.6713V6.1875H64.6816V0Z" fill="black"/>
<path fill-rule="evenodd" clip-rule="evenodd" d="M56.3369 28.1066H61.3608L60.8872 33.3845L56.3369 34.6096V38.8434L64.7008 36.5312L64.7622 35.8437L65.7209 25.1299L65.8205 24.0371H56.3369V28.1066Z" fill="#F5F5F5"/>
<path fill-rule="evenodd" clip-rule="evenodd" d="M56.3369 19.8604V19.8704H66.1917L66.2735 18.9556L66.4594 16.8926L66.557 15.8008H56.3369V19.8604Z" fill="#F5F5F5"/>
</g>
<defs>
<clipPath id="clip0_56_13911">
<rect width="34" height="46" fill="white"/>
</clipPath>
<clipPath id="clip1_56_13911">
<rect width="32.7031" height="46" fill="white" transform="translate(40)"/>
</clipPath>
</defs>
</svg>
