<svg width="84" height="46" viewBox="0 0 84 46" fill="none" xmlns="http://www.w3.org/2000/svg">
<path fill-rule="evenodd" clip-rule="evenodd" d="M54.1778 34.1459C54.1667 34.464 53.4361 34.8887 53.1963 35.0444C52.095 35.7575 50.5141 36.233 49.4815 35.1739C48.4824 34.1509 48.7638 32.2376 49.8411 31.5622C50.383 31.2244 51.0847 31.0671 51.8217 31.0048C52.4099 30.9539 53.6152 30.8441 54.1667 30.9097L54.1778 34.1459ZM46.7321 24.2748L47.1637 26.0158C47.8894 25.8355 48.3274 25.5732 49.4208 25.3519C50.2728 25.1831 51.1983 25.0863 52.111 25.206C53.0302 25.3273 53.5416 25.6798 53.8581 26.3782C54.018 26.7323 54.1043 27.1472 54.1491 27.5833L54.1378 28.9915C54.0771 29.0243 51.3901 29.1981 51.0049 29.2489C48.3242 29.6014 45.6244 31.0965 46.0432 34.5525C46.3037 36.7036 47.4339 37.6823 49.5535 37.9446C50.7139 38.0889 51.4812 37.9511 52.4419 37.5347C52.8479 37.3576 53.2251 37.1561 53.5672 36.9331C54.026 36.6413 54.4272 36.2199 54.5199 36.1658L54.8044 37.6429H56.9799C57.0199 37.1921 56.9879 31.6639 56.9879 31.0507C56.9879 29.9473 56.9879 28.8489 56.9879 27.7455C56.9879 26.6782 56.9095 25.8355 56.4221 25.0437C54.9482 22.6353 51.7417 22.7501 49.093 23.4042C48.5017 23.5502 47.095 23.9485 46.7321 24.2748Z" fill="black"/>
<path fill-rule="evenodd" clip-rule="evenodd" d="M80.174 33.5743C79.9868 33.6753 79.79 33.8577 79.5739 34.0077C78.9611 34.4305 78.1977 34.8226 77.3881 34.9191C74.9877 35.2025 74.4229 32.8345 75.1942 31.6121C76.0183 30.3086 78.633 30.3806 80.182 30.3729L80.174 33.5743ZM72.7364 24.1818C72.7507 24.436 73.0787 25.617 73.1859 25.8023C73.5908 25.7241 74.4805 25.3658 75.4534 25.1834C76.8663 24.9154 79.1882 24.6918 79.8668 26.1485C80.1452 26.7458 80.3452 28.3925 80.15 28.5808C80.0268 28.6666 78.849 28.6757 78.577 28.6926C77.0184 28.7861 75.7287 28.8994 74.3781 29.581C72.9427 30.301 71.7506 31.563 72.045 33.7917C72.3155 35.8167 73.4452 36.7006 75.5606 36.9532C77.1144 37.1401 78.3354 36.7556 79.5804 36.0066C80.1227 35.6803 80.3516 35.3971 80.5356 35.2806L80.8093 36.6684L83 36.6714V27.4244C83 26.3828 82.9151 25.6552 82.4206 24.8772C80.9933 22.6393 77.6969 22.7879 75.1045 23.3669C74.4981 23.5016 73.114 23.8723 72.7364 24.1818Z" fill="black"/>
<path fill-rule="evenodd" clip-rule="evenodd" d="M63.2718 37.9984L66.7078 38C66.8211 37.9712 67.0619 37.4084 67.1296 37.274C67.2587 37.0021 67.3609 36.7559 67.4821 36.4873C67.7135 35.9755 67.926 35.4063 68.1274 34.8609C68.9569 32.603 69.6275 30.1404 70.1988 27.7865C70.3389 27.206 71 24.406 71 24.0062L68.4328 24.003C67.8709 23.9966 68.0991 23.9246 67.9481 25.0872C67.7938 26.2913 67.5451 27.497 67.2587 28.6324C67.0477 29.4624 65.5933 34.7331 65.3022 35.072L64.5687 32.2496C64.2932 31.3094 64.0414 30.4059 63.7534 29.4831L62.4848 25.3878C62.3416 24.9273 62.203 24.4332 62.0362 24.011L59 24.003C59.0126 24.2765 60.9942 30.569 61.128 31.0135C61.4917 32.2112 61.8426 33.3114 62.2 34.4899C62.5478 35.6493 62.9554 36.8486 63.2718 37.9984Z" fill="black"/>
<path fill-rule="evenodd" clip-rule="evenodd" d="M40.984 23.7055L40.9855 35.7971C40.9855 38.0443 40.2522 40.6075 38 41.3433C38.1323 41.6178 39.1014 42.6138 39.3596 43C40.1232 42.8643 41.2438 42.1652 41.6662 41.763C42.3117 41.1533 42.7102 40.6778 43.1869 39.7009C44.1417 37.7538 43.9887 35.6901 43.9887 33.3551C43.9887 28.5845 44.0141 23.806 43.9887 19.0354C43.6363 18.9717 41.5754 19.0131 40.9824 19.0147L40.984 23.7055Z" fill="black"/>
<path fill-rule="evenodd" clip-rule="evenodd" d="M16.5438 25L15.6334 23.6407C15.3342 23.1944 15.0409 22.6976 14.7632 22.2024C14.2519 21.2894 13.6395 20.1303 13.3586 18.9791C12.8443 16.8723 14.1122 15.5666 15.2298 14.1851C15.3986 13.9738 15.5966 13.7783 15.7793 13.5796C16.9505 12.3133 18.5531 10.7978 19.801 9.5488C21.0704 8.27302 21.8348 6.86321 21.9837 4.80052C22.0636 3.72186 21.861 1.41632 21.1196 1C21.3406 2.6164 21.3912 3.71555 20.7542 5.33984C20.0159 7.22749 18.814 8.35502 17.4201 9.47153C16.2797 10.383 14.4147 12.0262 13.4307 12.9787C12.7953 13.5985 11.7192 14.7086 11.2725 15.7905C10.614 17.3912 11.268 18.4382 11.974 19.5579C12.3102 20.0909 12.6509 20.5467 13.0102 21.0245C13.4292 21.5812 13.8022 21.9659 14.1368 22.4027C14.4898 22.8633 14.9273 23.289 15.3126 23.729C15.5536 24.0002 16.3058 24.8298 16.5438 25Z" fill="black"/>
<path fill-rule="evenodd" clip-rule="evenodd" d="M31.3707 39.4321C31.8335 40.252 31.3754 40.5974 30.7441 40.9235C27.932 42.3661 18.4272 42.6365 15.4593 42.6837C12.4326 42.7325 9.38361 42.5998 6.46187 42.0382C5.98789 41.9493 3.90435 41.5847 3.80732 40.9794C3.74371 40.5974 4.1127 40.3113 4.30196 40.1804C4.97475 39.7217 6.20739 39.4059 7.05353 39.2367C7.29846 39.1897 7.89173 39.1199 8.07463 39.0379C6.65909 38.8076 2.17229 39.6398 1.18936 41.1713C0.570656 42.1342 1.60766 42.5807 2.29794 42.8284C4.88409 43.7546 10.2679 43.9413 13.107 43.9867C17.3504 44.0495 27.5615 44.0041 31.3039 41.1834C31.5217 41.0213 31.9513 40.6775 31.9958 40.3444C32.0482 39.9292 31.5997 39.5386 31.3707 39.4321Z" fill="black"/>
<path fill-rule="evenodd" clip-rule="evenodd" d="M18.5264 27C18.9858 26.8448 20.3441 25.746 20.711 25.3782C21.1898 24.8872 22.0077 23.9788 22.0774 22.9296C22.1407 21.9763 21.4737 20.7336 21.0663 20.1258C19.7778 18.2017 18.7488 17.0998 20.4918 14.9645C21.0761 14.2544 21.7075 13.6978 22.4475 13.0965C23.332 12.3751 24.7798 11.3898 25.8184 10.7485L27 10C26.3735 10.0816 24.7165 10.7341 24.064 10.974C23.186 11.3003 22.1732 11.7978 21.4056 12.2327C18.7732 13.7315 16.1845 16.0793 17.2427 19.3245C17.96 21.5189 20.0471 22.8336 19.8962 24.4793C19.8053 25.487 18.8217 26.4962 18.5264 27Z" fill="black"/>
<path fill-rule="evenodd" clip-rule="evenodd" d="M24 38.3809C23.2099 38.0402 22.615 37.6455 21.9073 37.1697C21.4981 36.8904 21.6551 36.9137 21.1315 37.0615C18.9912 37.6598 15.5182 37.6689 13.2701 37.5914C12.6926 37.5698 11.0663 37.5121 10.7379 36.8939C10.5301 36.5046 10.814 36.2217 10.9251 36C9.45118 36.337 7.95187 37.7266 10.0001 38.8837C12.3054 40.1831 17.1508 40.1975 19.6734 39.6875C20.3922 39.5433 23.6573 38.698 24 38.3809Z" fill="black"/>
<path fill-rule="evenodd" clip-rule="evenodd" d="M25 32.8345C24.3907 32.7009 23.8433 32.3703 23.4704 32.0866C23.1436 31.8442 23.2562 31.9048 22.5548 32.0067C20.035 32.3703 12.5311 33.008 10.3826 32.2395C10.1049 32.1389 9.78282 31.9902 9.76378 31.7051C9.73997 31.3677 10.07 31.1845 10.2081 31C8.48166 31.1859 6.82347 32.632 9.13699 33.3219C11.7457 34.0973 17.3724 34.1235 20.146 33.8191C21.0601 33.7186 24.3003 33.1704 25 32.8345Z" fill="black"/>
<path fill-rule="evenodd" clip-rule="evenodd" d="M26 27.7039C25.6758 27.7188 25.242 27.8249 24.9147 27.8812C24.5342 27.9409 24.1724 27.9989 23.7935 28.052C21.5149 28.3901 18.9872 28.6634 16.7056 28.8043C14.925 28.9153 8.20513 29.1507 7.2013 28.1596C7.12769 27.7155 7.61003 27.4355 7.90445 27.2647C9.05705 26.6102 10.2817 26.3897 11.4171 26.0135C9.84946 25.8595 5.90775 27.0527 4.48109 27.9956C2.9401 29.0115 5.50997 29.4174 6.46995 29.5584C12.0952 30.3869 17.3555 29.9429 22.918 29.1059C23.8247 28.9717 24.019 29.0264 24.636 28.6104C25.0635 28.3221 25.6226 28.0205 26 27.7039Z" fill="black"/>
<path fill-rule="evenodd" clip-rule="evenodd" d="M7 44.709C8.54656 45.3441 11.9141 45.7318 13.6627 45.8705C16.119 46.0682 18.8158 46.0213 21.2736 45.8524C24.4515 45.6307 28.2231 45.2748 31.0202 43.8855C31.6862 43.5537 32.8843 42.7603 33 42C32.8011 42.089 32.6268 42.2669 32.4403 42.3891C27.5061 45.7122 16.2284 45.3954 10.4077 44.9897L7 44.709Z" fill="black"/>
<path fill-rule="evenodd" clip-rule="evenodd" d="M27.99 25.7317C29.2521 25.3311 30.6863 25.5976 31.4865 26.3187C32.3508 27.1019 32.3605 28.5848 31.7375 29.7341C30.9037 31.2678 29.1538 32.6347 27.7052 33.5586C27.4571 33.7172 27.2157 33.8381 27 34C27.9353 33.8986 30.1503 32.8816 30.9939 32.3535C32.0707 31.6783 33.2717 30.6939 33.7674 29.417C34.4742 27.6037 33.4456 26.2205 32.3493 25.5665C31.7183 25.1921 30.9584 24.9665 30.0714 25.0041C29.3938 25.0319 28.2959 25.3066 27.99 25.7317Z" fill="black"/>
</svg>
