<svg width="125" height="41" viewBox="0 0 125 41" fill="none" xmlns="http://www.w3.org/2000/svg">
<path fill-rule="evenodd" clip-rule="evenodd" d="M22.0556 4.0365C25.5682 0.932034 29.0322 -0.361523 31.109 0.85507C33.2737 2.12288 33.9198 6.04846 32.9265 10.9446C32.8548 11.2977 32.7734 11.6576 32.6828 12.0233C33.193 12.1699 33.6865 12.3264 34.1613 12.4925C38.5639 14.031 41.3948 16.4294 41.3948 18.8573C41.3948 21.3926 38.3665 23.9244 33.6914 25.4967C33.3932 25.597 33.0867 25.6933 32.7725 25.7854C32.8821 26.2203 32.9776 26.6462 33.0586 27.0621C33.9808 31.792 33.2741 35.661 31.1391 36.9172C29.0697 38.1324 25.6639 36.9155 22.2001 33.8884C21.7939 33.5335 21.3854 33.1529 20.9761 32.7486C20.6519 33.0708 20.3282 33.3754 20.0058 33.6613C16.4266 36.8378 12.7681 38.1502 10.6274 36.8968C8.56026 35.6866 7.89868 32.0886 8.7508 27.5326C8.85113 26.9957 8.97248 26.4438 9.11388 25.8794C8.67618 25.7549 8.25392 25.6223 7.84824 25.4814C3.35281 23.9232 0.40625 21.3605 0.40625 18.8573C0.40625 16.4373 3.14705 14.0558 7.46139 12.5282C7.99579 12.3391 8.55604 12.1621 9.13888 11.9978C9.00681 11.4719 8.89183 10.9559 8.79461 10.4516C7.90205 5.81355 8.52814 2.12718 10.5991 0.910693C12.7644 -0.364601 16.4425 1.0295 20.1265 4.3514C20.3903 4.58929 20.655 4.83886 20.9201 5.09948C21.2989 4.72513 21.6778 4.37029 22.0556 4.0365ZM33.2379 24.126C32.961 24.2191 32.6762 24.3087 32.3841 24.3945C31.852 22.6523 31.12 20.7911 30.2156 18.8654C31.0785 16.9861 31.7832 15.1478 32.3011 13.416C32.7815 13.5542 33.2456 13.7015 33.6917 13.8576C37.5773 15.2155 39.9615 17.2354 39.9615 18.8573C39.9615 20.5795 37.3894 22.7299 33.2379 24.126ZM30.9967 24.7621C30.5862 23.4275 30.0512 22.0137 29.4055 20.5493C28.9828 21.3896 28.5309 22.2341 28.0521 23.0772C27.5748 23.9176 27.0881 24.7316 26.5942 25.5154C28.1607 25.3373 29.6409 25.0847 30.9967 24.7621ZM30.9129 13.0524C30.5157 14.3719 30.0041 15.7608 29.3915 17.1862C28.9714 16.3645 28.5223 15.5344 28.0463 14.6995C27.5759 13.8746 27.0915 13.0717 26.5964 12.2956C28.1149 12.4778 29.5648 12.7322 30.9129 13.0524ZM26.8037 15.4196C26.1468 14.2677 25.4625 13.161 24.7611 12.1135C23.5038 12.014 22.2109 11.9626 20.9001 11.9626C19.5958 11.9626 18.3048 12.0137 17.047 12.1122C16.3346 13.1678 15.6458 14.2781 14.992 15.4297L14.8482 15.6829C14.2501 16.7498 13.6957 17.8271 13.1906 18.8997C13.7361 20.0551 14.3403 21.2174 14.9973 22.3695C15.6551 23.5234 16.3502 24.6393 17.0693 25.7015C18.3015 25.7845 19.5828 25.8265 20.9001 25.8265C22.2228 25.8265 23.5204 25.7789 24.7753 25.6857C25.466 24.6378 26.1462 23.5253 26.8082 22.3594C27.4707 21.1931 28.0795 20.0251 28.628 18.8721C28.0783 17.74 27.4683 16.5851 26.8037 15.4196ZM31.2957 11.6591C29.5241 11.2351 27.5893 10.9222 25.56 10.7323C24.3779 9.01754 23.1507 7.46491 21.9211 6.13352C22.2816 5.77717 22.6418 5.43985 23.0004 5.12303C26.0979 2.38534 29.0114 1.29737 30.389 2.10438C31.8553 2.96312 32.4051 6.30388 31.5224 10.6549C31.4557 10.9833 31.3801 11.3183 31.2957 11.6591ZM23.702 10.5944C22.7871 9.33556 21.8528 8.18453 20.9205 7.17043C19.9727 8.19768 19.0304 9.34751 18.1158 10.5934C19.0332 10.5433 19.9635 10.5177 20.9001 10.5177C21.8446 10.5177 22.7805 10.5437 23.702 10.5944ZM19.1709 5.42836C19.4195 5.65244 19.6692 5.88783 19.9196 6.13394C18.6685 7.48441 17.4307 9.03472 16.2511 10.7302C14.2284 10.9174 12.2951 11.225 10.5274 11.64C10.4023 11.1415 10.2935 10.653 10.2016 10.1762C9.41327 6.07998 9.94164 2.96916 11.3214 2.15868C12.7823 1.29823 15.9021 2.48071 19.1709 5.42836ZM7.93608 13.8914C8.44031 13.7131 8.96983 13.5458 9.52151 13.3901C10.0489 15.1615 10.7527 17.0203 11.6088 18.9003C10.7419 20.8076 10.028 22.6958 9.49581 24.4868C9.08662 24.3703 8.6925 24.2464 8.31454 24.1152C4.33431 22.7355 1.83947 20.5656 1.83947 18.8573C1.83947 17.2317 4.13454 15.2376 7.93608 13.8914ZM10.9116 13.0333C11.3134 14.374 11.8215 15.7707 12.4244 17.1909C12.839 16.3617 13.2807 15.5332 13.7473 14.7118L13.9537 14.3484C14.3597 13.647 14.7783 12.9609 15.2069 12.293C13.697 12.4719 12.2528 12.721 10.9116 13.0333ZM10.8865 24.8414C11.2938 23.4799 11.8115 22.0559 12.4258 20.608C12.8414 21.4369 13.2851 22.266 13.7548 23.0897C14.2333 23.9289 14.731 24.7491 15.2437 25.5446C13.684 25.3803 12.2216 25.1451 10.8865 24.8414ZM10.5029 26.2352C12.2497 26.6368 14.1954 26.9234 16.2812 27.0919C17.4705 28.7968 18.7191 30.3587 19.9754 31.7142C19.6685 32.0194 19.3627 32.3071 19.0589 32.5768C15.892 35.3873 12.7984 36.497 11.3472 35.6474C9.96271 34.8369 9.40771 31.8183 10.1592 27.8002C10.2541 27.2928 10.3689 26.7702 10.5029 26.2352ZM25.5784 27.07C24.3956 28.8142 23.1825 30.3769 21.9707 31.7082C22.3618 32.0949 22.7518 32.4585 23.1388 32.7965C26.189 35.4622 29.0367 36.4797 30.4171 35.669C31.87 34.8142 32.4694 31.532 31.6524 27.3407C31.5771 26.9547 31.4884 26.5587 31.3866 26.1537C29.6196 26.5778 27.6586 26.886 25.5784 27.07ZM18.1324 27.2089C19.059 28.4697 20.0134 29.6341 20.9697 30.6707C21.8933 29.6505 22.8219 28.4848 23.7387 27.1987C22.8089 27.247 21.8606 27.2714 20.9001 27.2714C19.959 27.2714 19.0349 27.2505 18.1324 27.2089ZM24.5895 18.8573C24.5895 20.9263 22.9378 22.6036 20.9001 22.6036C18.8625 22.6036 17.2106 20.9263 17.2106 18.8573C17.2106 16.7882 18.8625 15.1108 20.9001 15.1108C22.9378 15.1108 24.5895 16.7882 24.5895 18.8573ZM62.2806 18.432C61.6175 18.8913 60.7165 19.1209 59.5775 19.1209H53.9638V12.9449H59.8948C60.7247 12.9449 61.3877 13.068 61.884 13.314C62.8114 13.7815 63.2752 14.6592 63.2752 15.9468C63.2752 17.1443 62.9436 17.9727 62.2806 18.432ZM59.8338 10.8412H51.5353V28.9139H53.9638V21.1632H59.4921C60.4847 21.1632 61.2128 21.2739 61.6765 21.4953C62.4901 21.8972 62.9253 22.6887 62.9823 23.8698L63.1288 26.884C63.1613 27.5894 63.202 28.065 63.2508 28.3111C63.2996 28.5572 63.3647 28.7581 63.446 28.9139H66.4237V28.5079C66.0495 28.3439 65.7892 27.9748 65.6427 27.4007C65.5533 27.0645 65.4963 26.5518 65.4718 25.8629L65.3864 23.4393C65.3457 22.3894 65.1485 21.6307 64.7945 21.1632C64.4407 20.6956 63.9139 20.3184 63.2142 20.0313C64.0115 19.6131 64.6318 19.0594 65.0753 18.3705C65.5187 17.6815 65.7403 16.7958 65.7403 15.7131C65.7403 13.638 64.8983 12.215 63.2142 11.444C62.3274 11.0421 61.2006 10.8412 59.8338 10.8412ZM77.1385 16.1006C76.268 15.6618 75.369 15.4424 74.4415 15.4424C72.6029 15.4424 71.114 16.1026 69.975 17.4231C68.836 18.7437 68.2665 20.462 68.2665 22.578C68.2665 24.7269 68.8319 26.3981 69.9628 27.5914C71.0937 28.7848 72.4727 29.3814 74.0998 29.3814C74.7669 29.3814 75.3649 29.3158 75.8937 29.1846C76.8782 28.955 77.7039 28.5121 78.3711 27.8559C78.7698 27.4786 79.1297 26.9926 79.4511 26.3981C79.7724 25.8034 79.9617 25.2641 80.0186 24.7802H77.8585C77.6958 25.3625 77.4192 25.8752 77.0287 26.3181C76.3453 27.0808 75.43 27.4622 74.2829 27.4622C73.0544 27.4622 72.1472 27.0583 71.5614 26.2504C70.9757 25.4425 70.6625 24.3702 70.6218 23.0332H80.2016C80.2016 21.7045 80.1365 20.7367 80.0064 20.1297C79.8599 19.2439 79.567 18.4689 79.1277 17.8046C78.6721 17.1073 78.0091 16.5394 77.1385 16.1006ZM77.3215 18.9733C77.647 19.5474 77.8544 20.3143 77.9439 21.2739H70.6828C70.7235 20.1421 71.0855 19.2091 71.769 18.4751C72.4524 17.741 73.2984 17.3739 74.3073 17.3739C75.7148 17.3739 76.7195 17.907 77.3215 18.9733ZM85.2783 26.9209C84.8146 26.5518 84.5827 26.0474 84.5827 25.4076C84.5827 24.5628 84.9204 23.9477 85.5956 23.5623C85.9942 23.3326 86.5922 23.1645 87.3895 23.0578L88.7198 22.8856C89.1265 22.8364 89.5415 22.7544 89.9646 22.6396C90.3876 22.5247 90.7334 22.3811 91.0018 22.2089V23.9928C91.0018 25.3543 90.3916 26.3344 89.1712 26.9332C88.4472 27.2941 87.6987 27.4745 86.9258 27.4745C86.2913 27.4745 85.7421 27.29 85.2783 26.9209ZM90.9164 20.2897C90.7456 20.6505 90.4079 20.8639 89.9035 20.9294L86.4011 21.3723C85.1726 21.5282 84.18 21.9423 83.4234 22.6149C82.6668 23.2875 82.2884 24.2348 82.2884 25.4569C82.2884 26.5723 82.6729 27.5012 83.4417 28.2434C84.2105 28.9857 85.201 29.3568 86.4133 29.3568C87.4221 29.3568 88.3455 29.1395 89.1834 28.7048C90.0215 28.2701 90.6642 27.7575 91.1116 27.1669C91.1849 27.6919 91.311 28.0978 91.49 28.3849C91.8317 28.9263 92.3808 29.1969 93.1378 29.1969C93.4465 29.1969 93.6905 29.1846 93.8699 29.16C94.0483 29.1354 94.309 29.0738 94.651 28.9755V27.3392C94.5123 27.3638 94.382 27.3823 94.26 27.3945C94.1379 27.4069 94.0279 27.413 93.9309 27.413C93.6295 27.413 93.4326 27.3433 93.3393 27.2039C93.245 27.0645 93.1988 26.8799 93.1988 26.6502V19.0594C93.1988 17.8127 92.7227 16.8941 91.7707 16.3036C90.8106 15.7131 89.5618 15.4178 88.0241 15.4178C86.698 15.4178 85.5326 15.7356 84.5278 16.3713C83.523 17.0069 83.0004 18.1367 82.9596 19.7607H85.0099C85.0912 19.0799 85.2661 18.5674 85.5346 18.2228C86.0146 17.5995 86.8282 17.2878 87.9753 17.2878C88.9679 17.2878 89.7306 17.458 90.2635 17.7984C90.7964 18.1387 91.0628 18.6863 91.0628 19.4408C91.0628 19.8098 91.014 20.0928 90.9164 20.2897ZM105.433 16.439C104.509 15.7172 103.311 15.3563 101.839 15.3563C100.114 15.3563 98.6942 16.0001 97.5794 17.2878C96.4646 18.5755 95.9081 20.3758 95.9081 22.6887C95.9081 24.5752 96.4165 26.1478 97.4333 27.4069C98.4502 28.6659 99.8127 29.2953 101.521 29.2953C103.042 29.2953 104.291 28.8914 105.267 28.0835C106.245 27.2756 106.855 25.9982 107.099 24.2512H104.962C104.759 25.2272 104.391 25.9962 103.859 26.5579C103.325 27.1198 102.603 27.4007 101.692 27.4007C100.504 27.4007 99.6343 26.9496 99.0806 26.0474C98.5278 25.1452 98.2505 24.0338 98.2505 22.7134C98.2505 21.401 98.4465 20.2979 98.8366 19.4039C99.4383 18.026 100.439 17.337 101.839 17.337C102.864 17.337 103.608 17.6056 104.072 18.1429C104.535 18.6801 104.833 19.3547 104.962 20.1666H107.099C106.911 18.4033 106.356 17.1607 105.433 16.439ZM111.955 12.0591H109.734V15.7376H107.965V17.5462H109.734V26.2689C109.734 27.1137 109.917 27.8005 110.283 28.3295C110.649 28.8586 111.345 29.1231 112.37 29.1231C112.687 29.1231 112.982 29.1067 113.255 29.0738C113.528 29.0411 113.79 28.9877 114.043 28.9139V27.1669C113.88 27.1834 113.738 27.1936 113.616 27.1977C113.494 27.2018 113.379 27.2039 113.274 27.2039C112.875 27.2039 112.59 27.1588 112.419 27.0686C112.11 26.9127 111.955 26.6051 111.955 26.1458V17.5462H114.043V15.7376H111.955V12.0591Z" fill="black"/>
</svg>
