<svg width="951" height="818" viewBox="0 0 951 818" fill="none" xmlns="http://www.w3.org/2000/svg">
<g clip-path="url(#clip0_1045_76309)">
<path d="M292.578 511.233C163.694 487.398 74.1017 411.407 151.933 239.564C169.727 205.386 173.849 165.853 178.2 130.201C183.115 94.9672 218.167 88.9136 271.499 100.64C366.302 121.869 440.91 121.687 503.571 140.913C619.242 181.706 625.809 311.622 658.575 445.062C668.79 506.454 623.309 552.84 522.489 522.261C364.317 472.361 347.199 505.493 292.578 511.233Z" stroke="#0075FF" stroke-width="0.896635" stroke-miterlimit="10"/>
<path d="M294.801 512.496C167.002 488.716 77.9638 413.174 154.137 242.923C171.016 208.278 171.864 168.339 176.984 131.871C182.748 95.9812 219.135 89.8314 273.291 101.895C367.954 123.245 442.543 123.223 504.912 142.22C619.899 182.756 627.69 312.506 659.973 445.687C669.947 507 624.445 553.246 524.18 523.316C367.347 474.423 349.415 507.087 294.801 512.496Z" stroke="#0075FF" stroke-width="0.896635" stroke-miterlimit="10"/>
<path d="M296.936 513.831C170.21 490.137 81.6964 415.034 156.241 246.384C172.165 211.292 169.75 170.916 175.698 133.652C182.313 97.107 220.063 90.8708 275.005 103.292C369.528 124.763 444.127 124.912 506.164 143.7C620.528 183.897 629.522 313.541 661.322 446.464C671.095 507.677 625.511 553.763 525.813 524.553C370.319 476.566 351.601 508.773 296.936 513.831Z" stroke="#0075FF" stroke-width="0.896635" stroke-miterlimit="10"/>
<path d="M299.04 515.256C173.399 491.617 85.4389 416.963 158.346 249.945C173.325 214.376 167.666 173.603 174.383 135.523C181.837 98.3527 220.922 92.0204 276.688 104.779C371.071 126.371 445.682 126.69 507.396 145.239C621.116 185.158 631.304 314.626 662.62 447.29C672.152 508.425 626.548 554.37 527.404 525.809C373.26 478.8 353.707 510.498 299.04 515.256Z" stroke="#0075FF" stroke-width="0.896635" stroke-miterlimit="10"/>
<path d="M301.054 516.751C176.486 493.198 89.0905 418.962 160.34 253.537C174.403 217.5 165.47 176.321 172.957 137.425C181.261 99.5989 221.679 93.1703 278.27 106.266C372.543 127.989 447.134 128.468 508.517 146.808C621.593 186.449 632.974 315.742 663.808 448.148C673.138 509.182 627.453 554.968 528.845 527.117C376.12 481.074 355.782 512.314 301.054 516.751Z" stroke="#0075FF" stroke-width="0.896635" stroke-miterlimit="10"/>
<path d="M303.049 518.307C179.566 494.809 92.6938 421.012 162.305 257.219C175.413 220.735 163.257 179.099 171.532 139.427C180.716 100.955 222.439 94.4207 279.844 107.884C373.977 129.728 448.549 130.368 509.64 148.478C622.082 187.811 634.637 316.989 665.027 449.115C674.117 510.071 628.411 555.716 530.358 528.514C378.952 483.438 357.799 514.211 303.049 518.307Z" stroke="#0075FF" stroke-width="0.896635" stroke-miterlimit="10"/>
<path d="M305.014 519.952C182.604 496.54 96.2964 423.162 164.24 260.991C176.432 224.04 160.973 181.987 170.047 141.51C180.081 102.382 223.128 95.7813 281.357 109.582C375.351 131.547 449.934 132.357 510.692 150.258C622.46 189.304 636.268 318.325 666.136 450.213C674.994 511.059 629.268 556.564 531.75 530.072C381.733 485.852 359.795 516.168 305.014 519.952Z" stroke="#0075FF" stroke-width="0.896635" stroke-miterlimit="10"/>
<path d="M306.929 521.649C185.604 498.292 99.8099 425.383 166.156 264.824C177.402 227.395 158.7 184.946 168.573 143.663C179.446 103.909 223.868 97.1922 282.891 111.32C376.745 133.406 451.339 134.387 511.765 152.079C622.88 190.776 637.871 319.652 667.256 451.281C675.913 512.028 630.095 557.403 533.163 531.57C384.486 488.357 361.732 518.205 306.929 521.649Z" stroke="#0075FF" stroke-width="0.896635" stroke-miterlimit="10"/>
<path d="M308.794 523.396C188.553 500.094 103.313 427.634 168.001 268.666C178.322 230.801 156.356 187.915 166.998 145.816C178.721 105.407 224.476 98.5935 284.315 113.089C378.029 135.296 452.623 136.477 512.737 153.9C623.228 192.359 639.413 321.059 668.315 452.43C676.731 513.098 630.902 558.302 534.505 533.179C387.187 490.913 363.619 520.293 308.794 523.396Z" stroke="#0075FF" stroke-width="0.896635" stroke-miterlimit="10"/>
<path d="M310.629 525.233C191.462 502.016 106.786 429.975 169.806 272.63C179.181 234.287 153.973 191.005 165.383 148.09C177.956 107.025 225.035 100.146 285.708 114.948C379.282 137.276 453.858 138.618 513.669 155.841C623.517 194.023 640.885 322.577 669.334 453.699C677.549 514.267 631.629 559.342 535.787 534.868C389.859 493.559 365.485 522.441 310.629 525.233Z" stroke="#0075FF" stroke-width="0.896635" stroke-miterlimit="10"/>
<path d="M312.434 527.16C194.351 503.999 110.199 432.397 171.582 276.684C180.042 237.874 151.56 194.184 163.768 150.464C177.221 108.753 225.605 101.768 287.093 116.938C380.527 139.387 455.113 140.899 514.602 157.883C623.776 195.776 642.398 324.175 670.334 455.028C678.307 515.518 632.377 560.422 537.08 536.627C392.481 496.255 367.323 524.679 312.434 527.16Z" stroke="#0075FF" stroke-width="0.896635" stroke-miterlimit="10"/>
<path d="M314.2 529.108C197.191 506.032 113.603 434.849 173.358 280.737C180.862 241.48 149.117 197.354 162.124 152.828C176.417 110.492 226.145 103.38 288.447 118.917C381.771 141.497 456.338 143.17 515.496 159.945C624.036 197.53 643.841 325.783 671.294 456.378C679.036 516.758 633.055 561.512 538.323 538.437C395.084 499.011 369.11 526.967 314.2 529.108Z" stroke="#0075FF" stroke-width="0.896635" stroke-miterlimit="10"/>
<path d="M315.905 531.136C199.981 508.116 116.947 437.381 175.034 284.892C181.592 245.158 146.604 200.635 160.38 155.293C175.522 112.301 226.605 105.133 289.711 120.968C382.895 143.668 457.473 145.512 516.308 162.047C624.205 199.355 645.193 327.462 672.204 457.778C679.734 518.089 633.703 562.692 539.526 540.267C397.626 501.848 370.847 529.306 315.905 531.136Z" stroke="#0075FF" stroke-width="0.896635" stroke-miterlimit="10"/>
<path d="M317.602 533.195C202.781 510.27 120.242 439.964 176.701 289.077C182.344 248.876 144.082 203.946 158.657 157.798C174.649 114.15 227.066 106.886 290.956 123.078C384.001 145.9 458.589 147.914 517.092 164.24C624.355 201.24 646.527 329.201 673.045 459.289C680.344 519.49 634.261 563.944 540.65 542.238C400.159 504.715 372.595 531.716 317.602 533.195Z" stroke="#0075FF" stroke-width="0.896635" stroke-miterlimit="10"/>
<path d="M319.268 535.343C205.531 512.473 123.545 442.617 178.337 293.351C183.024 252.703 141.529 207.347 156.873 160.383C173.705 116.11 227.465 108.719 292.171 125.279C385.075 148.221 459.645 150.396 517.855 166.493C624.475 203.214 647.87 331.01 673.874 460.829C680.963 520.961 634.829 565.264 541.743 544.198C402.662 507.672 374.253 534.195 319.268 535.343Z" stroke="#0075FF" stroke-width="0.896635" stroke-miterlimit="10"/>
<path d="M320.884 537.542C208.222 514.758 126.77 445.31 179.933 297.647C183.706 256.531 138.907 210.758 155.079 162.998C172.761 118.07 227.846 110.613 293.386 127.48C386.151 150.543 460.731 152.888 518.609 168.776C624.555 205.21 649.174 332.839 674.695 462.4C681.552 522.423 635.398 566.586 542.847 546.229C405.125 510.65 375.931 536.715 320.884 537.542Z" stroke="#0075FF" stroke-width="0.896635" stroke-miterlimit="10"/>
<path d="M322.512 539.811C210.933 517.082 130.035 448.083 181.561 302.052C184.388 260.459 136.355 214.259 153.287 165.714C171.849 120.139 228.238 112.577 294.592 129.811C387.217 152.995 461.798 155.541 519.364 171.16C624.676 207.285 650.468 334.799 675.547 464.081C682.193 524.034 635.957 568.037 543.992 548.34C407.559 513.717 377.56 539.285 322.512 539.811Z" stroke="#0075FF" stroke-width="0.896635" stroke-miterlimit="10"/>
<path d="M324.098 542.101C213.604 519.427 133.26 450.877 183.118 306.468C185.019 264.438 133.723 217.802 151.424 168.44C170.835 122.21 228.558 114.551 295.727 132.153C388.232 155.498 462.804 158.174 520.038 173.584C624.707 209.431 651.692 336.769 676.278 465.823C682.692 525.667 636.436 569.53 545.006 550.542C409.983 516.816 379.198 541.925 324.098 542.101Z" stroke="#0075FF" stroke-width="0.896635" stroke-miterlimit="10"/>
<path d="M325.665 544.451C216.245 521.862 136.425 453.751 184.655 310.944C185.611 268.437 131.072 221.404 149.571 171.236C169.822 124.381 228.91 116.635 296.883 134.534C389.248 158.001 463.801 160.837 520.742 176.017C624.767 211.587 652.976 338.759 677.049 467.544C683.222 527.309 636.915 571.022 546.07 552.693C412.386 519.974 380.787 544.616 325.665 544.451Z" stroke="#0075FF" stroke-width="0.896635" stroke-miterlimit="10"/>
<path d="M327.212 546.862C218.876 524.329 139.61 456.666 186.182 315.451C186.192 272.467 128.41 225.037 147.678 174.054C168.779 126.542 229.2 118.701 297.988 136.967C390.214 160.555 464.777 163.561 521.387 178.533C624.748 213.784 654.16 340.851 677.76 469.347C683.732 529.013 637.374 572.575 547.074 554.926C414.78 523.163 382.365 547.337 327.212 546.862Z" stroke="#0075FF" stroke-width="0.896635" stroke-miterlimit="10"/>
<path d="M328.769 549.341C221.507 526.894 142.806 459.65 187.74 320.067C186.825 276.645 125.749 228.769 145.846 176.99C167.797 128.823 229.552 120.885 299.155 139.519C391.24 163.227 465.815 166.405 522.102 181.137C624.819 216.11 655.425 343.001 678.572 471.248C684.303 530.835 637.894 574.247 548.139 557.278C417.144 526.442 383.925 550.118 328.769 549.341Z" stroke="#0075FF" stroke-width="0.896635" stroke-miterlimit="10"/>
<path d="M330.287 551.842C224.109 529.45 145.932 462.645 189.228 324.693C187.367 280.795 123.048 232.522 143.914 179.927C166.705 131.134 229.794 123.1 300.231 142.041C392.177 165.871 466.762 169.218 522.747 183.751C624.831 218.417 656.62 345.162 679.274 473.181C684.804 532.668 638.344 575.93 549.135 559.64C419.529 529.761 385.494 552.969 330.287 551.842Z" stroke="#0075FF" stroke-width="0.896635" stroke-miterlimit="10"/>
<path d="M331.815 554.412C226.711 532.106 149.098 465.72 190.736 329.36C187.96 284.994 120.368 236.315 142.002 182.904C165.673 133.466 230.066 125.325 301.318 144.634C393.123 168.584 467.689 172.093 523.383 186.396C624.823 220.784 657.835 347.362 679.976 475.113C685.275 534.491 638.784 577.643 550.12 562.032C421.874 533.1 387.054 555.85 331.815 554.412Z" stroke="#0075FF" stroke-width="0.896635" stroke-miterlimit="10"/>
<path d="M333.332 557.013C229.313 534.762 152.223 468.814 192.224 334.087C188.492 289.274 117.666 240.167 140.099 185.951C164.62 135.857 230.378 127.63 302.414 147.297C394.11 171.378 468.657 175.047 524.018 189.141C624.814 223.251 659.01 349.684 680.708 477.155C685.795 536.464 639.234 579.426 551.145 564.505C424.228 536.509 388.593 558.792 333.332 557.013Z" stroke="#0075FF" stroke-width="0.896635" stroke-miterlimit="10"/>
<path d="M334.841 559.644C231.905 537.448 155.36 471.98 193.733 338.854C189.086 293.574 114.956 244.051 138.188 189.029C163.558 138.279 230.641 129.986 303.511 149.96C395.067 174.162 469.615 178.031 524.663 191.856C624.796 225.648 660.206 351.945 681.421 479.158C686.277 538.358 639.684 581.209 552.141 566.968C426.573 539.949 390.123 561.764 334.841 559.644Z" stroke="#0075FF" stroke-width="0.896635" stroke-miterlimit="10"/>
<path d="M336.359 562.345C234.498 540.235 158.516 475.185 195.222 343.682C189.629 297.924 112.256 248.004 136.287 192.176C162.497 140.801 230.923 132.382 304.578 152.713C395.994 177.036 470.553 181.076 525.269 194.691C624.758 228.205 661.361 354.327 682.083 481.311C686.698 540.432 640.065 583.103 553.067 569.541C428.898 543.448 391.673 564.776 336.359 562.345Z" stroke="#0075FF" stroke-width="0.896635" stroke-miterlimit="10"/>
<path d="M337.868 565.076C237.091 543.021 161.633 478.41 196.711 348.509C190.192 302.314 109.557 251.958 134.356 195.314C161.416 143.283 231.176 134.768 305.646 155.466C396.922 179.91 471.492 184.12 525.886 197.497C624.731 230.733 662.548 356.718 682.767 483.405C687.18 542.425 640.486 584.976 554.033 572.094C431.254 546.958 393.204 567.848 337.868 565.076Z" stroke="#0075FF" stroke-width="0.896635" stroke-miterlimit="10"/>
<path d="M339.367 567.838C239.663 545.868 164.77 481.676 198.179 353.397C190.715 306.725 106.846 255.942 132.414 198.482C160.324 145.795 231.409 137.214 306.713 158.219C397.849 182.785 472.399 187.155 526.491 200.332C624.703 233.26 663.703 359.1 683.469 485.538C687.641 544.479 640.906 586.85 555.028 574.657C433.589 550.528 394.724 570.95 339.367 567.838Z" stroke="#0075FF" stroke-width="0.896635" stroke-miterlimit="10"/>
<path d="M340.876 570.669C242.287 548.764 167.887 485.002 199.689 358.364C191.28 311.215 104.167 260.035 130.524 201.8C159.304 148.497 231.733 139.79 307.821 161.153C398.818 185.839 473.379 190.38 527.148 203.318C624.686 235.958 664.91 361.632 684.193 487.811C688.164 546.653 641.368 588.904 556.046 577.36C435.945 554.138 396.305 574.072 340.876 570.669Z" stroke="#0075FF" stroke-width="0.896635" stroke-miterlimit="10"/>
<path d="M342.415 573.51C244.9 551.691 171.054 488.377 201.208 363.301C191.873 315.716 101.467 264.089 128.633 205.017C158.262 151.059 232.025 142.256 308.938 163.956C399.825 188.773 474.367 193.475 527.804 206.203C624.708 238.535 666.105 364.094 684.906 490.014C688.636 548.777 641.798 590.847 557.041 580.023C438.311 557.818 397.835 577.244 342.415 573.51Z" stroke="#0075FF" stroke-width="0.896635" stroke-miterlimit="10"/>
<path d="M343.974 576.392C247.543 554.628 174.252 491.763 202.737 368.309C192.457 320.246 98.8079 268.223 126.773 208.345C157.252 153.732 232.339 144.862 310.076 166.899C400.823 191.837 475.376 196.709 528.491 209.199C624.752 241.253 667.372 366.646 685.689 492.307C689.188 550.961 642.32 592.921 558.088 582.737C440.677 561.498 399.416 580.467 343.974 576.392Z" stroke="#0075FF" stroke-width="0.896635" stroke-miterlimit="10"/>
<path d="M345.514 579.333C250.167 557.625 177.399 495.199 204.247 373.377C193.052 324.847 96.1292 272.417 124.862 211.724C156.191 156.454 232.613 147.488 311.165 169.893C401.772 194.952 476.305 199.985 529.118 212.275C624.735 244.051 668.549 369.268 686.383 494.671C689.671 553.256 642.762 595.035 559.065 585.561C443.063 565.218 400.988 583.719 345.514 579.333Z" stroke="#0075FF" stroke-width="0.896635" stroke-miterlimit="10"/>
<path d="M347.084 582.285C252.811 560.662 180.608 498.655 205.818 378.465C193.667 329.488 93.511 276.631 123.013 215.122C155.182 159.227 232.947 150.135 312.324 172.877C402.791 198.057 477.335 203.26 529.816 215.341C624.769 246.799 669.796 371.88 687.148 497.025C690.204 555.5 643.234 597.16 560.123 588.344C445.47 568.979 402.58 587.012 347.084 582.285Z" stroke="#0075FF" stroke-width="0.896635" stroke-miterlimit="10"/>
<path d="M348.674 585.277C255.485 563.709 183.836 502.15 207.389 383.553C194.322 334.108 90.8625 280.835 121.193 218.53C154.212 161.979 233.302 152.821 313.503 175.9C403.83 201.201 478.375 206.605 530.544 218.417C624.853 249.597 671.064 374.532 687.932 499.418C690.777 557.824 643.767 599.303 561.191 591.198C447.907 572.749 404.232 590.324 348.674 585.277Z" stroke="#0075FF" stroke-width="0.896635" stroke-miterlimit="10"/>
<path d="M350.294 588.278C258.179 566.796 187.064 505.646 208.979 388.681C194.966 338.759 88.2638 285.089 119.363 221.968C153.262 164.772 233.686 155.517 314.671 178.954C404.858 204.376 479.414 209.95 531.251 221.553C624.917 252.455 672.351 377.225 688.737 501.852C691.35 560.149 644.279 601.508 562.288 594.061C450.354 576.589 405.873 593.666 350.294 588.278Z" stroke="#0075FF" stroke-width="0.896635" stroke-miterlimit="10"/>
<path d="M351.925 591.349C260.895 569.923 190.323 509.252 210.58 393.878C195.612 343.509 85.6764 289.412 117.575 225.486C152.313 167.664 234.081 158.283 315.891 182.057C405.929 207.63 480.475 213.335 532.02 224.708C625.052 255.302 673.669 379.926 689.572 504.294C691.985 562.492 644.862 603.701 563.376 596.954C452.832 580.439 407.536 597.048 351.925 591.349Z" stroke="#0075FF" stroke-width="0.896635" stroke-miterlimit="10"/>
<path d="M353.595 594.401C263.639 573.06 193.601 512.797 212.261 399.035C196.377 348.199 83.1681 293.696 115.835 228.953C151.423 170.476 234.515 161.029 317.15 185.14C407.078 210.844 481.605 216.709 532.817 227.874C625.206 258.19 675.007 382.668 690.436 506.748C692.608 564.866 645.435 605.925 564.534 599.837C455.339 584.299 409.218 600.471 353.595 594.401Z" stroke="#0075FF" stroke-width="0.896635" stroke-miterlimit="10"/>
<path d="M355.307 597.532C266.434 576.246 196.951 516.433 213.942 404.293C197.113 352.98 80.6609 298.08 114.097 232.521C150.534 173.388 234.961 163.845 318.38 188.314C408.168 214.139 482.706 220.174 533.596 231.099C625.311 261.128 676.365 385.45 691.272 509.291C693.212 567.3 646.018 608.219 565.662 602.811C457.867 588.198 410.941 603.873 355.307 597.532Z" stroke="#0075FF" stroke-width="0.896635" stroke-miterlimit="10"/>
<path d="M357.019 600.664C269.23 579.434 200.301 520.069 215.624 409.551C197.87 357.801 78.1341 302.424 112.389 236.1C149.676 176.311 235.437 166.671 319.681 191.478C409.328 217.424 483.877 223.63 534.435 234.346C625.517 264.066 677.754 388.242 692.208 511.835C693.937 569.775 646.662 610.533 566.882 605.814C460.416 592.139 412.705 607.355 357.019 600.664Z" stroke="#0075FF" stroke-width="0.896635" stroke-miterlimit="10"/>
<path d="M358.79 603.815C272.076 582.67 203.681 523.714 217.366 414.829C198.666 362.601 75.687 306.827 110.711 239.688C148.838 179.273 235.963 169.547 321.001 194.681C410.509 220.748 485.038 227.114 535.304 237.601C625.742 267.043 679.173 391.044 693.144 514.378C694.641 572.208 647.346 612.826 568.111 608.787C463.024 596.099 414.498 610.847 358.79 603.815Z" stroke="#0075FF" stroke-width="0.896635" stroke-miterlimit="10"/>
<path d="M360.581 607.007C274.951 585.917 207.11 527.41 219.137 420.116C199.522 367.421 73.2694 311.241 109.062 243.286C148.069 182.225 236.498 172.393 322.35 197.895C411.718 224.082 486.259 230.619 536.223 240.907C626.027 270.041 680.631 393.926 694.129 516.971C695.416 574.733 648.069 615.2 569.349 611.831C465.662 600.069 416.32 614.35 360.581 607.007Z" stroke="#0075FF" stroke-width="0.896635" stroke-miterlimit="10"/>
<path d="M362.444 610.187C277.888 589.183 210.601 531.125 221.001 425.433C200.43 372.291 70.9437 315.684 107.535 246.923C147.392 185.207 237.155 175.278 323.832 201.117C413.06 227.426 487.602 234.164 537.253 244.181C626.383 273.028 682.241 396.757 695.246 519.574C696.302 577.226 648.904 617.543 570.76 614.863C468.321 604.078 418.205 617.871 362.444 610.187Z" stroke="#0075FF" stroke-width="0.896635" stroke-miterlimit="10"/>
<path d="M364.326 613.408C280.854 592.459 214.091 534.84 222.853 430.78C201.337 377.161 68.5773 320.148 105.967 250.58C146.664 188.239 237.761 178.214 325.263 204.39C414.381 230.83 488.904 237.728 538.223 247.537C626.709 276.105 683.761 399.658 696.283 522.217C697.127 579.799 649.678 619.967 572.079 617.966C471.041 608.108 420.109 621.433 364.326 613.408Z" stroke="#0075FF" stroke-width="0.896635" stroke-miterlimit="10"/>
<path d="M366.258 616.679C283.89 595.825 217.661 538.615 224.765 436.147C202.333 382.061 66.3006 324.64 104.489 254.267C146.036 191.27 238.467 181.149 326.784 207.693C415.762 234.253 490.295 241.322 539.292 250.891C627.105 279.172 685.34 402.579 697.379 524.879C697.992 582.353 650.492 622.37 573.469 621.059C473.819 612.157 422.082 624.984 366.258 616.679Z" stroke="#0075FF" stroke-width="0.896635" stroke-miterlimit="10"/>
<path d="M368.231 619.93C286.947 599.131 221.242 542.36 226.708 441.524C203.321 386.991 64.0549 329.144 103.012 257.954C145.409 194.302 239.204 184.095 328.315 210.965C417.154 237.647 491.667 244.876 540.362 254.246C627.572 282.229 686.99 405.491 698.556 527.502C698.927 584.896 651.417 624.743 574.929 624.141C476.629 616.216 424.077 628.576 368.231 619.93Z" stroke="#0075FF" stroke-width="0.896635" stroke-miterlimit="10"/>
<path d="M370.264 623.2C290.064 602.457 224.913 546.134 228.742 446.93C204.439 391.93 61.8996 333.676 101.626 261.671C144.902 197.373 239.992 187.089 329.927 214.298C418.626 241.1 493.15 248.5 541.523 257.631C628.058 285.325 688.69 408.451 699.804 530.214C699.974 587.508 652.373 627.225 576.439 627.273C479.509 620.265 426.132 632.187 370.264 623.2Z" stroke="#0075FF" stroke-width="0.896635" stroke-miterlimit="10"/>
<path d="M372.357 626.49C293.232 605.833 228.635 549.959 230.805 452.347C205.557 396.869 59.7744 338.219 100.299 265.408C144.415 200.484 240.849 190.074 331.599 217.65C420.158 244.574 494.694 252.144 542.734 261.065C628.636 288.452 690.491 411.412 701.081 532.936C701.01 590.152 653.398 629.698 578 630.456C482.409 624.354 428.247 635.818 372.357 626.49Z" stroke="#0075FF" stroke-width="0.896635" stroke-miterlimit="10"/>
<path d="M374.511 629.8C296.47 609.198 232.397 553.763 232.94 457.753C206.766 401.838 57.6896 342.741 99.0135 269.125C143.979 203.545 241.747 193.039 333.321 220.952C421.74 247.997 496.287 255.737 544.005 264.42C629.263 291.529 692.302 414.343 702.419 535.578C702.147 592.694 654.444 632.111 579.631 633.528C485.4 628.473 430.432 639.439 374.511 629.8Z" stroke="#0075FF" stroke-width="0.896635" stroke-miterlimit="10"/>
<path d="M376.695 633.12C299.727 612.604 236.218 557.587 235.093 463.2C207.974 406.807 55.6545 347.314 97.7772 272.891C143.593 206.656 242.685 196.084 335.084 224.334C423.393 251.51 497.89 259.401 545.306 267.884C629.931 294.685 694.153 417.353 703.777 538.36C703.264 595.397 655.55 634.643 581.282 636.74C488.42 632.601 432.647 643.07 376.695 633.12Z" stroke="#0075FF" stroke-width="0.896635" stroke-miterlimit="10"/>
<path d="M378.969 636.47C303.086 616.008 240.131 561.441 237.368 468.685C209.333 411.826 53.7503 351.895 96.6318 276.687C143.287 209.826 243.724 199.128 336.947 227.716C425.116 255.012 499.624 263.073 546.718 271.318C630.699 297.84 696.144 420.343 705.286 541.091C704.541 598.019 656.797 637.155 583.074 639.931C491.511 636.719 434.943 646.76 378.969 636.47Z" stroke="#0075FF" stroke-width="0.896635" stroke-miterlimit="10"/>
<path d="M381.284 639.799C306.475 619.423 244.053 565.265 239.663 474.111C210.672 416.804 51.8564 356.447 95.5066 280.423C143.012 212.907 244.812 202.122 338.79 231.057C426.819 258.475 501.328 266.737 548.1 274.742C631.407 300.976 698.066 423.343 706.734 543.803C705.789 600.631 657.963 639.607 584.786 643.063C494.692 640.867 437.32 650.41 381.284 639.799Z" stroke="#0075FF" stroke-width="0.896635" stroke-miterlimit="10"/>
<path d="M383.688 643.158C309.963 622.838 248.096 569.128 242.037 479.596C212.101 421.813 50.012 361.049 94.4912 284.229C142.876 216.066 245.971 205.206 340.773 234.478C428.663 262.017 503.182 270.449 549.631 278.215C632.305 304.142 700.147 426.363 708.333 546.564C707.146 603.313 659.3 642.148 586.668 646.284C497.903 645.025 439.716 654.1 383.688 643.158Z" stroke="#0075FF" stroke-width="0.896635" stroke-miterlimit="10"/>
<path d="M386.163 646.507C313.522 626.242 252.169 573.001 244.483 485.071C213.631 426.82 48.2687 365.65 93.5166 288.014C142.751 219.196 247.18 208.239 342.807 237.849C430.556 265.508 505.057 274.102 551.204 281.668C633.234 307.317 702.27 429.362 709.993 549.344C708.604 605.994 660.677 644.669 588.62 649.494C501.216 649.182 442.213 657.79 386.163 646.507Z" stroke="#0075FF" stroke-width="0.896635" stroke-miterlimit="10"/>
<path d="M388.699 649.875C317.132 629.696 256.343 576.874 247.019 490.576C215.212 431.878 46.6159 370.28 92.6626 291.839C142.737 222.395 248.51 211.312 344.951 241.289C432.551 269.1 507.072 277.833 552.897 285.16C634.284 310.531 704.543 432.411 711.753 552.124C710.123 608.695 662.175 647.23 590.664 652.734C504.598 653.329 444.78 661.469 388.699 649.875Z" stroke="#0075FF" stroke-width="0.896635" stroke-miterlimit="10"/>
<path d="M391.304 653.233C320.821 633.109 260.586 580.736 249.604 496.03C216.882 436.864 45.0122 374.861 91.8276 295.603C142.752 225.504 249.849 214.355 347.115 244.669C434.605 272.61 509.107 281.504 554.6 288.622C635.322 313.675 706.785 435.449 713.522 554.874C711.691 611.346 663.662 649.72 592.726 655.914C508.04 657.496 447.437 665.178 391.304 653.233Z" stroke="#0075FF" stroke-width="0.896635" stroke-miterlimit="10"/>
<path d="M394 656.621C324.591 636.582 264.89 584.617 252.271 501.544C218.603 441.901 43.4901 379.5 91.0741 299.427C142.848 228.672 251.31 217.437 349.37 248.079C436.72 276.141 511.233 285.205 556.403 292.084C636.482 316.859 709.138 438.457 715.392 557.624C713.32 614.016 665.27 652.25 594.879 659.123C511.553 661.652 450.135 668.866 394 656.621Z" stroke="#0075FF" stroke-width="0.896635" stroke-miterlimit="10"/>
<path d="M396.776 659.969C328.451 639.985 269.305 588.469 255.017 507.018C220.424 446.938 42.0175 384.091 90.4305 303.222C143.045 231.841 252.85 220.479 351.725 251.489C438.935 279.672 513.459 288.907 558.297 295.576C637.732 320.073 711.602 441.536 717.373 560.443C715.07 616.726 666.969 654.811 597.123 662.363C515.156 665.838 452.933 672.555 396.776 659.969Z" stroke="#0075FF" stroke-width="0.896635" stroke-miterlimit="10"/>
<path d="M399.612 663.336C332.361 643.438 273.768 592.371 257.863 512.491C222.324 451.934 40.6745 388.69 89.8562 307.005C143.35 234.979 254.45 223.541 354.149 254.888C441.219 283.192 515.724 292.587 560.26 299.058C639.062 323.247 714.115 444.563 719.403 563.212C716.888 619.426 668.737 657.36 599.446 665.562C518.828 670.014 455.82 676.273 399.612 663.336Z" stroke="#0075FF" stroke-width="0.896635" stroke-miterlimit="10"/>
<path d="M402.569 666.742C336.432 646.909 278.333 596.272 260.79 518.024C224.306 456.99 39.4131 393.349 89.3937 310.858C143.737 238.176 256.171 226.642 356.695 258.326C443.625 286.751 518.131 296.347 562.355 302.548C640.483 326.45 716.729 447.59 721.524 566.011C718.778 622.115 670.606 659.909 601.851 668.821C522.602 674.189 458.788 679.95 402.569 666.742Z" stroke="#0075FF" stroke-width="0.896635" stroke-miterlimit="10"/>
<path d="M405.576 670.098C340.523 650.321 282.978 600.132 263.767 523.506C226.357 462.035 38.2112 397.928 88.9506 314.651C144.144 241.313 257.912 229.683 359.25 261.735C446.041 290.281 520.557 300.047 564.449 306.039C641.943 329.632 719.403 450.637 723.755 568.779C720.798 624.814 672.545 662.448 604.375 672.019C526.476 678.364 461.847 683.657 405.576 670.098Z" stroke="#0075FF" stroke-width="0.896635" stroke-miterlimit="10"/>
<path d="M408.713 673.464C344.735 653.772 287.724 603.992 266.876 528.998C228.52 467.05 37.1004 402.536 88.6386 318.453C144.672 244.49 259.804 232.774 361.937 265.152C448.588 293.819 523.115 303.756 566.684 309.509C643.535 332.824 722.188 453.653 726.047 571.567C722.859 627.492 674.585 664.986 606.95 675.267C530.42 682.528 465.007 687.364 408.713 673.464Z" stroke="#0075FF" stroke-width="0.896635" stroke-miterlimit="10"/>
<path d="M411.92 676.82C349.026 657.183 292.569 607.852 270.063 534.45C230.792 472.034 36.0988 407.114 88.4358 322.225C145.319 247.606 261.785 235.794 364.742 268.51C451.283 297.308 525.761 307.395 569.059 312.959C645.266 335.996 725.132 456.689 728.488 574.304C725.089 630.16 676.734 667.494 609.654 678.424C534.474 686.662 468.245 691.03 411.92 676.82Z" stroke="#0075FF" stroke-width="0.896635" stroke-miterlimit="10"/>
<path d="M415.229 680.174C353.409 660.623 297.516 611.711 273.371 539.941C233.145 477.078 35.2186 411.731 88.3243 326.027C146.057 250.752 263.858 238.843 367.599 271.917C454 300.836 528.489 311.094 571.464 316.418C647.038 339.147 728.088 459.694 730.961 577.051C727.33 632.798 678.954 669.991 612.41 681.631C538.619 690.826 471.575 694.726 415.229 680.174Z" stroke="#0075FF" stroke-width="0.896635" stroke-miterlimit="10"/>
<path d="M418.637 683.529C357.901 664.033 302.522 615.59 276.75 545.422C235.608 482.092 34.4082 416.338 88.3127 329.828C146.915 253.938 266.02 241.923 370.586 275.334C456.847 304.374 531.347 314.802 573.99 319.917C648.89 342.358 731.163 462.74 733.583 579.847C729.712 635.515 681.285 672.558 615.326 684.857C542.864 694.989 475.015 698.391 418.637 683.529Z" stroke="#0075FF" stroke-width="0.896635" stroke-miterlimit="10"/>
<path d="M422.145 686.883C362.483 667.472 307.668 619.448 280.238 550.872C238.151 487.065 33.7079 420.914 88.3811 333.588C147.834 257.042 268.272 244.931 373.663 278.679C459.784 307.84 534.295 318.439 576.615 323.314C650.871 345.478 734.328 465.714 736.266 582.563C732.193 638.131 683.715 675.024 618.291 688.033C547.219 699.121 478.555 702.055 422.145 686.883Z" stroke="#0075FF" stroke-width="0.896635" stroke-miterlimit="10"/>
<path d="M425.764 690.206C367.186 670.851 312.926 623.275 283.828 556.322C240.815 492.077 33.0784 425.48 88.5505 337.348C148.853 260.147 270.626 247.939 376.831 282.055C462.812 311.337 537.303 322.096 579.322 326.773C652.944 348.628 737.615 468.728 739.039 585.308C734.735 640.768 686.196 677.54 621.358 691.208C551.645 703.244 482.196 705.72 425.764 690.206Z" stroke="#0075FF" stroke-width="0.896635" stroke-miterlimit="10"/>
<path d="M429.483 693.53C371.989 674.23 318.252 627.093 287.547 561.781C243.588 497.06 32.6087 430.065 88.8796 341.128C150.032 263.271 273.139 250.967 380.168 285.42C466.01 314.823 540.502 325.783 582.208 330.19C655.187 351.767 741.051 471.691 741.992 588.013C737.477 643.403 688.897 679.995 624.574 694.333C556.21 707.345 485.946 709.354 429.483 693.53Z" stroke="#0075FF" stroke-width="0.896635" stroke-miterlimit="10"/>
<path d="M433.313 696.822C376.893 677.608 323.721 630.89 291.347 567.2C246.443 502.001 32.2203 434.61 89.2599 344.857C151.252 266.374 275.723 253.984 383.547 288.765C469.279 318.298 543.752 329.419 585.126 333.617C657.471 354.886 744.518 474.665 745.007 590.738C740.26 646.019 691.65 682.501 627.872 697.518C560.867 711.477 489.828 712.997 433.313 696.822Z" stroke="#0075FF" stroke-width="0.896635" stroke-miterlimit="10"/>
<path d="M437.272 700.124C381.937 680.965 329.278 634.716 295.287 572.597C249.457 506.962 31.971 439.134 89.7793 348.565C152.621 269.427 278.426 256.94 387.065 292.088C472.657 321.743 547.141 333.034 588.193 336.992C659.864 357.974 748.124 477.617 748.13 593.431C743.142 648.633 694.491 684.935 631.288 700.641C565.673 715.557 493.779 716.63 437.272 700.124Z" stroke="#0075FF" stroke-width="0.896635" stroke-miterlimit="10"/>
<path d="M441.312 703.385C387.051 684.312 334.956 638.481 299.297 577.985C252.521 511.872 31.762 443.638 90.3993 352.273C154.121 272.489 281.221 259.927 390.684 295.412C476.136 325.187 550.63 336.649 591.35 340.398C662.408 361.112 751.862 480.579 751.384 596.135C746.196 651.237 697.483 687.418 634.826 703.805C570.55 719.627 497.871 720.242 441.312 703.385Z" stroke="#0075FF" stroke-width="0.896635" stroke-miterlimit="10"/>
<path d="M445.513 706.666C392.335 687.648 340.795 642.266 303.498 583.402C255.807 516.822 31.7843 448.151 91.1804 356C155.742 275.591 284.186 262.902 394.473 298.724C479.785 328.621 554.261 340.243 594.688 343.763C665.082 364.159 755.75 483.49 754.789 598.787C749.359 653.81 700.606 689.812 638.524 706.887C575.557 723.706 502.073 723.824 445.513 706.666Z" stroke="#0075FF" stroke-width="0.896635" stroke-miterlimit="10"/>
<path d="M449.793 709.906C397.69 690.974 346.683 646.001 307.759 588.739C259.112 521.712 31.8562 452.614 92.0511 359.657C157.462 278.592 287.27 265.817 398.343 301.997C483.505 332.044 558.001 343.807 598.096 347.118C667.847 367.235 759.697 486.421 758.264 601.429C752.633 656.353 703.819 692.234 642.252 709.98C580.675 727.755 506.405 727.415 449.793 709.906Z" stroke="#0075FF" stroke-width="0.896635" stroke-miterlimit="10"/>
<path d="M602.129 353.047C671.027 373.319 761.558 491.337 759.878 605.263C753.956 660.259 705.534 696.268 644.489 713.951C583.603 731.453 509.974 730.689 453.822 712.897C402.331 694.032 351.918 649.488 313.438 592.805C265.286 526.307 41.0834 457.778 100.389 365.698C133.99 323.556 185.072 299.8 241.879 291.774C294.205 284.38 351.403 290.332 404.361 307.576C488.769 337.376 562.493 349.353 602.129 353.047Z" stroke="#0075FF" stroke-width="0.896635" stroke-miterlimit="10"/>
<path d="M606.501 358.453C674.487 378.859 763.687 495.74 761.832 608.574C755.589 663.631 707.61 699.819 647.025 717.42C586.8 734.638 513.852 733.529 458.13 715.445C407.252 696.647 357.433 652.532 319.397 596.429C271.74 530.46 50.6001 462.469 109.008 371.295C142.157 329.206 192.746 305.422 249.153 297.297C301.116 289.784 358.012 295.638 410.639 312.773C494.323 342.236 567.286 354.396 606.501 358.453Z" stroke="#0075FF" stroke-width="0.896635" stroke-miterlimit="10"/>
<path d="M611.091 363.397C678.224 383.958 766.064 499.691 764.043 611.403C757.5 666.561 709.922 702.848 649.819 720.406C590.255 737.341 517.967 735.848 462.705 717.481C412.439 698.751 363.225 655.034 325.593 599.531C278.45 534.132 60.3536 466.638 117.862 376.371C150.52 334.354 200.688 310.532 256.662 302.299C308.254 294.697 364.838 300.382 417.193 317.428C500.134 346.613 572.304 358.947 611.091 363.397Z" stroke="#0075FF" stroke-width="0.896635" stroke-miterlimit="10"/>
<path d="M615.9 367.878C682.181 388.593 768.671 503.149 766.434 613.788C759.6 669.018 712.434 705.474 652.833 722.93C593.95 739.62 522.322 737.744 467.5 719.054C417.847 700.391 369.227 657.102 332.049 602.149C285.401 537.279 70.3573 470.353 126.977 380.963C159.174 339.028 208.87 315.118 264.402 306.807C315.632 299.086 371.894 304.632 423.978 321.589C506.195 350.536 577.584 363.015 615.9 367.878Z" stroke="#0075FF" stroke-width="0.896635" stroke-miterlimit="10"/>
<path d="M620.927 371.898C686.326 392.757 771.486 506.175 769.052 615.683C761.927 670.984 715.184 707.578 656.034 724.982C597.812 741.388 526.844 739.128 472.483 720.155C423.442 701.56 375.416 658.7 338.683 604.326C292.528 539.986 80.5484 473.598 136.27 385.114C168.005 343.262 217.249 319.303 272.359 310.853C323.228 303.014 379.158 308.451 430.94 325.309C512.433 354.019 583.07 366.651 620.927 371.898Z" stroke="#0075FF" stroke-width="0.896635" stroke-miterlimit="10"/>
<path d="M626.162 375.485C690.709 396.498 774.508 508.769 771.899 617.184C764.483 672.557 718.122 709.31 659.493 726.651C601.922 742.804 531.625 740.129 477.724 720.874C429.296 702.346 381.874 659.884 345.575 606.121C299.915 542.31 90.9981 476.459 145.821 388.882C177.075 347.072 225.857 323.096 280.565 314.548C331.072 306.59 386.681 311.887 438.191 328.656C518.86 357.029 588.765 369.855 626.162 375.485Z" stroke="#0075FF" stroke-width="0.896635" stroke-miterlimit="10"/>
<path d="M631.567 378.66C695.231 399.818 777.71 510.921 774.895 618.234C767.189 673.679 721.249 710.57 663.082 727.829C606.172 743.698 536.555 740.679 483.094 721.1C435.278 702.64 388.45 660.607 352.606 607.393C307.43 544.141 101.587 478.799 155.551 392.108C186.344 350.381 234.684 326.326 288.95 317.699C339.095 309.623 394.412 314.791 445.581 331.482C525.486 359.637 594.629 372.647 631.567 378.66Z" stroke="#0075FF" stroke-width="0.896635" stroke-miterlimit="10"/>
<path d="M637.139 381.423C699.951 402.735 781.07 512.692 778.048 618.902C770.052 674.418 724.495 711.468 666.818 728.655C610.589 744.28 541.613 740.837 488.612 720.976C441.399 702.613 395.175 660.979 359.775 608.344C315.124 545.632 112.303 480.848 165.379 395.033C195.71 353.388 243.569 329.275 297.403 320.54C347.186 312.345 402.181 317.374 453.079 333.976C532.28 361.834 600.631 375.017 637.139 381.423Z" stroke="#0075FF" stroke-width="0.896635" stroke-miterlimit="10"/>
<path d="M642.841 383.794C704.801 405.261 784.569 514.04 781.371 619.158C773.084 674.745 727.949 711.934 670.754 729.078C615.186 744.42 546.891 740.633 494.33 720.448C447.729 702.153 402.099 660.947 367.144 608.892C322.987 546.709 123.23 482.463 175.406 397.555C205.256 355.952 252.683 331.831 306.095 322.958C355.516 314.644 410.18 319.565 460.816 336.047C539.203 363.638 606.763 376.995 642.841 383.794Z" stroke="#0075FF" stroke-width="0.896635" stroke-miterlimit="10"/>
<path d="M648.671 385.774C709.749 407.385 788.186 515.027 784.783 619.042C776.175 674.691 731.482 712.058 674.758 729.09C619.851 744.148 552.216 739.977 500.115 719.51C454.127 701.282 409.071 660.465 374.55 609.02C330.877 547.396 134.193 483.658 185.471 399.657C214.86 358.136 261.815 333.927 314.815 324.985C363.865 316.582 418.216 321.334 468.541 337.748C546.214 365.071 613.042 378.622 648.671 385.774Z" stroke="#0075FF" stroke-width="0.896635" stroke-miterlimit="10"/>
<path d="M654.579 387.413C714.804 409.178 791.882 515.672 788.272 618.586C779.373 674.306 735.073 711.802 678.831 728.791C624.575 743.596 557.61 739.011 505.969 718.261C460.593 700.1 416.131 659.711 382.065 608.816C338.886 547.722 145.256 484.551 195.645 401.427C224.573 359.988 271.076 335.731 323.644 326.681C372.331 318.159 426.391 322.782 476.415 339.097C553.344 366.142 619.42 379.848 654.579 387.413Z" stroke="#0075FF" stroke-width="0.896635" stroke-miterlimit="10"/>
<path d="M660.576 388.68C719.919 410.589 795.677 515.916 791.861 617.727C782.671 673.519 738.783 711.183 683.032 728.101C629.467 742.631 563.153 737.692 511.952 716.619C467.158 698.516 423.321 658.566 389.699 608.25C347.015 547.685 156.447 485.053 205.938 402.835C234.404 361.479 280.425 337.164 332.562 328.005C380.887 319.365 434.616 323.879 484.347 340.064C560.563 366.842 625.837 380.752 660.576 388.68Z" stroke="#0075FF" stroke-width="0.896635" stroke-miterlimit="10"/>
<path d="M666.642 389.636C725.133 411.699 799.53 515.879 795.538 616.598C786.058 672.461 742.551 710.284 687.302 727.099C634.388 741.376 568.744 736.022 518.003 714.667C473.822 696.631 430.589 657.079 397.401 607.374C355.201 547.368 167.707 485.243 216.299 403.932C244.284 362.618 289.883 338.265 341.588 328.998C389.581 320.249 442.958 324.614 492.408 340.74C567.85 367.231 632.362 381.324 666.642 389.636Z" stroke="#0075FF" stroke-width="0.896635" stroke-miterlimit="10"/>
<path d="M672.747 390.27C730.355 412.478 803.422 515.52 799.234 615.106C789.463 671.042 746.379 709.003 691.581 725.766C639.328 739.759 574.364 734.061 524.064 712.383C480.495 694.415 437.856 655.292 405.122 606.135C363.447 546.669 178.976 485.102 226.679 404.668C254.203 363.436 299.32 339.025 350.623 329.659C398.255 320.791 451.31 325.017 500.489 341.055C575.176 367.298 638.907 381.535 672.747 390.27Z" stroke="#0075FF" stroke-width="0.896635" stroke-miterlimit="10"/>
<path d="M678.849 390.604C735.605 412.966 807.322 514.831 802.918 613.345C792.856 669.352 750.185 707.482 695.878 724.172C644.285 737.881 579.983 731.8 530.142 709.838C487.186 691.938 445.141 653.243 412.852 604.667C371.671 545.73 190.263 484.701 237.107 405.153C264.17 364.003 308.836 339.544 359.706 330.07C406.976 321.083 459.699 325.201 508.587 341.109C582.5 367.065 645.499 381.496 678.849 390.604Z" stroke="#0075FF" stroke-width="0.896635" stroke-miterlimit="10"/>
<path d="M684.981 390.647C740.855 413.153 811.241 513.881 806.671 611.272C796.309 667.381 754.039 705.609 700.223 722.227C649.282 735.683 585.649 729.187 536.269 706.943C493.915 689.14 452.475 650.844 420.599 602.837C379.903 544.46 201.569 483.939 247.514 405.297C274.095 364.19 318.309 339.682 368.747 330.1C415.646 321.025 468.087 324.983 516.663 340.822C589.843 366.571 652.06 381.146 684.981 390.647Z" stroke="#0075FF" stroke-width="0.896635" stroke-miterlimit="10"/>
<path d="M691.101 390.419C746.122 413.079 815.118 512.65 810.372 608.949C799.689 665.119 757.862 703.527 704.507 720.062C654.257 733.244 591.275 726.394 542.335 703.827C500.594 686.092 459.757 648.194 428.316 600.797C388.114 542.949 212.833 482.996 257.889 405.231C284.01 364.206 327.772 339.75 377.778 329.959C424.325 320.836 476.434 324.585 524.709 340.325C597.154 365.766 658.64 380.535 691.101 390.419Z" stroke="#0075FF" stroke-width="0.896635" stroke-miterlimit="10"/>
<path d="M697.169 389.941C751.309 412.746 818.984 511.149 814.032 606.346C803.058 662.587 761.623 701.123 708.78 717.626C659.181 730.554 596.869 723.291 548.389 700.441C507.26 682.773 467.018 645.303 436.031 598.456C396.324 541.137 224.106 481.722 268.263 404.864C293.923 363.921 337.233 339.417 386.807 329.518C432.982 320.306 484.779 323.886 532.782 339.537C604.474 364.731 665.138 379.664 697.169 389.941Z" stroke="#0075FF" stroke-width="0.896635" stroke-miterlimit="10"/>
<path d="M703.186 389.211C756.473 412.17 822.819 509.436 817.66 603.531C806.396 659.844 765.373 698.548 713.001 714.939C664.063 727.583 602.432 719.976 554.392 696.803C513.876 679.202 474.227 642.162 443.685 595.894C404.472 539.105 235.317 480.228 278.576 404.276C303.744 363.405 346.643 338.833 395.744 328.846C441.588 319.525 493.023 322.986 540.755 338.548C611.713 363.434 671.615 378.551 703.186 389.211Z" stroke="#0075FF" stroke-width="0.896635" stroke-miterlimit="10"/>
<path d="M709.134 388.292C761.538 411.396 826.523 507.514 821.189 600.517C809.634 656.901 769.003 695.734 717.143 712.092C668.856 724.483 607.895 716.461 560.315 693.005C520.411 675.473 481.367 638.83 451.259 593.173C412.56 536.952 246.449 478.573 288.809 403.528C313.526 362.71 355.933 338.11 404.642 327.994C450.124 318.554 501.268 321.886 548.668 337.34C618.851 361.938 678.022 377.249 709.134 388.292Z" stroke="#0075FF" stroke-width="0.896635" stroke-miterlimit="10"/>
<path d="M714.968 387.204C766.521 410.461 830.155 505.402 824.615 597.303C812.77 653.759 772.55 692.76 721.152 709.036C673.555 721.153 613.225 712.737 566.106 688.999C526.814 671.533 488.364 635.32 458.71 590.211C420.506 534.52 257.447 476.709 298.919 402.541C323.174 361.805 365.13 337.157 413.407 326.932C458.527 317.374 509.349 320.567 556.478 335.931C625.898 360.313 684.286 375.767 714.968 387.204Z" stroke="#0075FF" stroke-width="0.896635" stroke-miterlimit="10"/>
<path d="M720.682 385.974C771.382 409.386 833.656 503.18 827.94 593.987C815.804 650.515 776.007 689.655 725.069 705.849C678.134 717.682 618.484 708.922 571.805 684.86C533.126 667.462 495.239 631.668 466.061 587.149C428.35 531.987 268.355 474.714 308.928 401.452C332.692 360.789 374.196 336.092 422.071 325.769C466.82 316.122 517.32 319.176 564.147 334.442C632.833 358.516 690.449 374.184 720.682 385.974Z" stroke="#0075FF" stroke-width="0.896635" stroke-miterlimit="10"/>
<path d="M726.215 384.686C776.032 408.242 836.986 500.869 831.064 590.574C818.637 647.173 779.222 686.472 728.806 702.603C682.522 714.183 623.543 705.009 577.293 680.654C539.226 663.324 501.934 627.958 473.17 584.009C435.944 529.407 279.022 472.641 318.736 400.265C342.049 359.654 383.091 334.94 430.504 324.499C474.891 314.733 525.069 317.648 571.625 332.824C639.587 356.661 696.452 372.483 726.215 384.686Z" stroke="#0075FF" stroke-width="0.896635" stroke-miterlimit="10"/>
<path d="M731.547 383.398C780.513 407.109 840.106 498.588 833.988 587.161C821.24 643.821 782.278 683.269 732.323 699.318C686.7 710.613 628.401 701.095 582.591 676.418C545.097 659.175 508.449 624.187 480.119 580.848C443.387 526.775 289.519 470.578 328.344 399.079C351.196 358.55 391.796 333.757 438.777 323.208C482.802 313.323 532.658 316.099 578.942 331.187C646.141 354.806 702.214 370.802 731.547 383.398Z" stroke="#0075FF" stroke-width="0.896635" stroke-miterlimit="10"/>
<path d="M736.738 381.932C784.821 405.786 843.085 496.128 836.76 583.599C823.722 640.331 785.141 679.937 735.678 695.914C690.736 706.966 633.077 697.024 587.728 672.063C550.846 654.888 514.792 620.329 486.916 577.539C450.709 524.006 299.874 468.336 337.801 397.744C360.191 357.297 400.309 332.447 446.888 321.798C490.551 311.795 540.116 314.442 586.059 329.451C652.513 352.792 707.855 368.983 736.738 381.932Z" stroke="#0075FF" stroke-width="0.896635" stroke-miterlimit="10"/>
<path d="M741.697 380.355C788.928 404.364 845.841 493.528 839.331 579.937C826.002 636.74 787.843 676.485 738.861 692.419C694.58 703.187 637.582 692.861 592.693 667.618C556.423 650.51 520.964 616.38 493.532 574.17C457.81 521.196 310.047 466.034 347.075 396.348C368.974 355.974 408.671 331.085 454.788 320.319C498.079 310.227 547.322 312.735 593.003 327.624C658.724 350.658 713.283 366.993 741.697 380.355Z" stroke="#0075FF" stroke-width="0.896635" stroke-miterlimit="10"/>
<path d="M746.496 378.658C792.844 402.812 848.427 490.839 841.711 576.145C828.091 633.02 790.345 672.933 741.834 688.755C698.204 699.27 641.896 688.569 597.447 663.004C561.79 645.963 526.934 612.231 499.937 570.631C464.709 518.186 320 463.593 356.14 394.783C377.587 354.461 416.791 329.544 462.517 318.649C505.476 308.448 554.367 310.808 599.737 325.628C664.714 348.385 718.501 364.933 746.496 378.658Z" stroke="#0075FF" stroke-width="0.896635" stroke-miterlimit="10"/>
<path d="M751.032 376.843C796.529 401.15 850.751 488.03 843.838 572.204C829.928 629.15 792.564 669.223 744.544 684.972C701.575 695.203 645.928 684.119 601.939 658.27C566.895 641.297 532.633 607.993 506.08 566.973C471.346 515.057 329.701 461.002 364.941 393.099C385.928 352.859 424.69 327.864 469.974 316.891C512.571 306.571 561.141 308.791 606.239 323.523C670.472 346.002 723.498 362.734 751.032 376.843Z" stroke="#0075FF" stroke-width="0.896635" stroke-miterlimit="10"/>
<path d="M755.329 374.949C799.943 399.401 852.845 485.113 845.756 568.194C831.546 625.243 794.614 665.423 747.075 681.13C704.797 691.087 649.8 679.649 606.251 653.477C571.819 636.572 538.152 603.697 512.054 563.226C477.814 511.84 339.232 458.322 373.574 391.326C394.069 351.158 432.379 326.115 477.261 315.044C519.496 304.605 567.764 306.727 612.571 321.329C675.99 343.541 728.264 360.427 755.329 374.949Z" stroke="#0075FF" stroke-width="0.896635" stroke-miterlimit="10"/>
<path d="M759.382 372.975C803.144 397.581 854.686 482.146 847.391 564.125C832.89 621.245 796.34 661.584 749.303 677.189C707.676 686.892 653.349 675.04 610.261 648.585C576.441 631.747 543.368 599.3 517.684 559.399C483.928 508.573 348.419 455.563 381.872 389.443C401.916 349.328 439.765 324.267 484.184 313.077C526.058 302.52 574.004 304.502 618.5 319.036C681.265 341 732.747 358.06 759.382 372.975Z" stroke="#0075FF" stroke-width="0.896635" stroke-miterlimit="10"/>
<path d="M763.125 370.932C806.005 395.682 856.217 479.11 848.716 559.987C833.894 617.168 797.796 657.656 751.21 673.208C710.244 682.628 656.578 670.391 613.95 643.654C580.742 626.883 548.273 594.835 523.024 555.544C489.793 505.257 357.307 452.805 389.901 387.572C409.484 347.539 446.881 322.43 490.878 311.101C532.38 300.455 580.014 302.269 624.239 316.713C686.23 338.39 736.95 355.634 763.125 370.932Z" stroke="#0075FF" stroke-width="0.896635" stroke-miterlimit="10"/>
<path d="M766.587 368.83C808.605 393.765 857.466 476.015 849.789 555.8C834.676 613.053 798.991 653.709 752.896 669.189C712.581 678.355 659.606 665.745 617.417 638.684C584.822 621.981 552.947 590.362 528.152 551.62C495.416 501.862 365.993 449.948 397.689 385.621C416.78 345.661 453.735 320.473 497.321 309.076C538.461 298.312 585.773 299.986 629.696 314.332C690.903 335.752 740.861 353.18 766.587 368.83Z" stroke="#0075FF" stroke-width="0.896635" stroke-miterlimit="10"/>
<path d="M769.748 366.73C810.894 391.779 858.394 472.882 850.511 551.564C835.108 608.889 799.815 649.674 754.212 665.081C714.587 673.973 662.242 660.969 620.514 633.626C588.522 617.02 557.221 585.789 532.9 547.637C500.648 498.439 374.298 447.033 405.095 383.612C423.725 343.734 460.229 318.499 503.382 306.993C544.161 296.11 591.141 297.676 634.792 311.932C695.255 333.074 744.432 350.646 769.748 366.73Z" stroke="#0075FF" stroke-width="0.896635" stroke-miterlimit="10"/>
<path d="M772.517 364.602C812.81 389.805 858.991 469.741 850.932 547.331C835.238 604.726 800.357 645.68 755.245 661.015C716.272 669.654 664.618 656.275 623.329 628.609C591.949 612.071 561.252 581.239 537.366 543.696C505.608 495.027 382.312 444.189 412.22 381.645C430.399 341.819 466.41 316.556 509.132 304.942C549.549 293.94 596.238 295.377 639.587 309.535C699.276 330.389 747.691 348.145 772.517 364.602Z" stroke="#0075FF" stroke-width="0.896635" stroke-miterlimit="10"/>
<path d="M774.956 362.465C814.396 387.823 859.217 466.611 850.922 543.089C834.937 600.556 800.448 641.638 755.817 656.931C717.505 665.286 666.511 651.523 625.683 623.574C594.916 607.104 564.813 576.7 541.371 539.737C510.107 491.598 389.874 441.298 418.884 379.66C436.601 339.917 472.171 314.575 514.46 302.853C554.515 291.732 600.882 293.03 643.931 307.089C702.936 327.685 750.589 345.625 774.956 362.465Z" stroke="#0075FF" stroke-width="0.896635" stroke-miterlimit="10"/>
<path d="M777.022 360.339C815.58 385.841 859.07 463.492 850.609 538.847C834.334 596.386 800.257 637.637 756.098 652.817C718.446 660.888 668.143 646.751 627.745 618.51C597.56 602.097 568.081 572.131 545.063 535.709C514.284 488.128 397.124 438.336 425.235 377.605C442.461 337.934 477.579 312.544 519.467 300.724C559.18 289.524 605.195 290.673 647.972 304.643C706.193 324.982 753.084 343.106 777.022 360.339Z" stroke="#0075FF" stroke-width="0.896635" stroke-miterlimit="10"/>
<path d="M778.708 358.256C816.384 383.902 858.524 460.375 849.877 534.668C833.311 592.279 799.626 633.658 755.978 648.806C719.008 656.634 669.335 642.103 629.407 613.548C599.834 597.202 570.95 567.666 548.376 531.823C518.122 484.781 403.985 435.547 431.207 375.693C447.982 336.074 482.638 310.666 524.094 298.737C563.445 287.419 609.139 288.429 651.614 302.3C709.071 322.322 755.2 340.629 778.708 358.256Z" stroke="#0075FF" stroke-width="0.896635" stroke-miterlimit="10"/>
<path d="M779.952 356.194C816.776 381.995 857.556 457.321 848.712 530.482C831.825 588.154 798.583 629.712 755.397 644.778C719.087 652.321 670.074 637.406 630.607 608.569C601.647 592.29 573.366 563.152 551.227 527.919C521.467 481.407 410.403 432.681 436.757 373.743C453.07 334.206 487.254 308.71 528.268 296.703C567.258 285.266 612.629 286.137 654.833 299.919C711.557 319.734 756.904 338.185 779.952 356.194Z" stroke="#0075FF" stroke-width="0.896635" stroke-miterlimit="10"/>
<path d="M780.775 354.195C816.736 380.18 856.165 454.329 847.116 526.387C829.938 584.131 797.118 625.827 754.393 640.811C718.735 648.1 670.412 632.811 631.385 603.651C603.037 587.44 575.351 558.731 553.666 524.047C524.39 478.095 416.39 429.906 441.855 371.845C457.677 332.381 491.439 306.846 532.031 294.701C570.658 283.145 615.729 283.917 657.631 297.6C713.571 317.157 758.146 335.823 780.775 354.195Z" stroke="#0075FF" stroke-width="0.896635" stroke-miterlimit="10"/>
<path d="M781.137 352.278C816.216 378.407 854.315 451.418 845.09 522.384C827.621 580.199 795.183 622.055 752.98 636.976C717.982 643.982 670.32 628.309 631.753 598.865C604.018 582.722 576.925 554.441 555.685 520.337C526.903 474.914 421.957 427.294 446.533 370.109C461.903 330.697 495.204 305.145 535.364 292.89C573.629 281.216 618.378 281.849 659.979 295.433C715.154 314.673 758.968 333.522 781.137 352.278Z" stroke="#0075FF" stroke-width="0.896635" stroke-miterlimit="10"/>
<path d="M780.997 350.463C815.234 376.717 851.973 448.581 842.541 518.445C824.773 576.361 792.757 618.355 751.014 633.194C716.668 639.946 669.706 623.869 631.569 594.133C604.436 578.087 577.958 550.174 557.152 516.68C528.865 471.786 426.981 424.704 450.659 368.426C465.568 329.096 498.387 303.486 538.115 291.123C576.018 279.33 620.445 279.824 661.774 293.319C716.266 312.301 759.298 331.294 780.997 350.463Z" stroke="#0075FF" stroke-width="0.896635" stroke-miterlimit="10"/>
<path d="M780.398 348.731C813.752 375.129 849.161 445.855 839.553 514.627C821.494 572.615 789.87 614.737 748.619 629.504C714.963 635.982 668.622 619.541 630.955 589.492C604.435 573.514 578.551 546.03 558.189 513.115C530.426 468.761 431.576 422.206 454.354 366.835C468.773 327.577 501.18 301.899 540.475 289.428C578.008 277.546 622.122 277.871 663.14 291.297C716.848 310.022 759.158 329.179 780.398 348.731Z" stroke="#0075FF" stroke-width="0.896635" stroke-miterlimit="10"/>
<path d="M779.022 346.61C811.525 373.162 845.583 442.712 835.769 510.381C817.419 568.44 786.207 610.732 745.448 625.426C712.453 631.62 666.773 614.795 629.565 584.463C603.658 568.553 578.368 541.497 558.43 509.122C531.152 465.327 435.375 419.28 457.254 364.816C471.212 325.64 503.137 299.904 542.03 287.334C579.201 275.334 623.014 275.56 663.74 288.857C716.704 307.304 758.213 326.665 779.022 346.61Z" stroke="#0075FF" stroke-width="0.896635" stroke-miterlimit="10"/>
<path d="M776.817 343.05C808.467 369.757 841.165 438.159 831.145 504.726C812.504 562.857 781.715 605.286 741.406 619.928C709.063 625.869 664.073 608.67 627.305 578.015C602.01 562.172 577.315 535.545 557.822 503.75C531.037 460.484 438.313 415.005 459.304 361.417C472.81 322.294 504.284 296.509 542.735 283.862C579.544 271.743 623.035 271.829 663.49 285.037C715.71 303.207 756.467 322.722 776.817 343.05Z" stroke="#0075FF" stroke-width="0.896635" stroke-miterlimit="10"/>
<path d="M774.56 339.039C805.328 365.889 836.695 433.154 826.51 498.598C807.548 556.791 777.171 599.389 737.394 613.939C705.711 619.596 661.381 602.012 625.044 571.065C600.361 555.289 576.24 529.051 557.211 497.875C530.921 455.139 441.231 410.188 461.353 357.517C474.398 318.476 505.389 292.633 543.409 279.877C579.855 267.639 623.025 267.587 663.169 280.726C714.675 298.629 754.67 318.327 774.56 339.039Z" stroke="#0075FF" stroke-width="0.896635" stroke-miterlimit="10"/>
<path d="M772.27 334.616C802.186 361.621 832.203 427.709 821.801 492.081C802.549 550.345 772.594 593.082 733.268 607.579C702.267 612.993 658.608 594.995 622.7 563.755C598.63 548.046 575.102 522.236 556.528 491.611C530.723 449.434 444.105 404.991 463.339 353.196C475.892 314.227 506.462 288.346 544.059 275.452C580.144 263.095 622.982 262.934 662.864 275.954C713.567 293.659 752.8 313.542 772.27 334.616Z" stroke="#0075FF" stroke-width="0.896635" stroke-miterlimit="10"/>
<path d="M769.889 329.863C798.922 357.012 827.609 421.962 817.011 485.202C797.468 543.538 767.895 586.433 729.06 600.858C698.72 605.988 655.711 587.636 620.274 556.083C596.816 540.442 573.883 515.061 555.753 485.015C530.442 443.367 446.878 399.492 465.253 348.583C477.355 309.667 507.442 283.728 544.628 270.765C580.351 258.29 622.897 258 662.478 270.921C712.416 288.309 750.888 308.375 769.889 329.863Z" stroke="#0075FF" stroke-width="0.896635" stroke-miterlimit="10"/>
<path d="M767.485 324.769C795.667 352.072 822.993 415.875 812.189 478.012C792.355 536.419 763.204 579.454 724.861 593.806C695.172 598.682 652.834 579.916 617.857 548.08C594.981 532.497 572.682 507.524 554.987 478.088C530.2 436.979 449.669 393.633 467.145 343.63C478.786 304.796 508.422 278.809 545.176 265.738C580.537 253.144 622.761 252.715 662.03 265.567C711.234 282.647 748.914 302.888 767.485 324.769Z" stroke="#0075FF" stroke-width="0.896635" stroke-miterlimit="10"/>
<path d="M765.01 319.384C792.309 346.832 818.315 409.467 807.325 470.543C787.201 529.021 758.462 572.224 720.581 586.494C691.552 591.086 649.894 571.977 615.357 539.817C593.084 524.332 571.389 499.758 554.108 470.891C529.806 430.342 452.348 387.503 468.925 338.407C480.075 299.646 509.259 273.611 545.581 260.431C580.58 247.718 622.483 247.15 661.48 259.913C709.981 276.696 746.899 297.121 765.01 319.384Z" stroke="#0075FF" stroke-width="0.896635" stroke-miterlimit="10"/>
<path d="M762.514 313.759C788.951 341.391 813.606 402.849 802.42 462.792C782.005 521.342 753.659 564.673 716.258 578.901C687.921 583.22 646.893 563.716 612.817 531.274C591.156 515.856 570.055 491.71 553.228 463.393C529.42 423.374 455.016 381.103 470.705 332.884C481.393 294.204 510.135 268.091 546.025 254.803C580.662 241.971 622.233 241.294 660.929 253.958C708.696 270.534 744.852 291.142 762.514 313.759Z" stroke="#0075FF" stroke-width="0.896635" stroke-miterlimit="10"/>
<path d="M759.967 307.984C785.531 335.73 808.857 396.051 797.465 454.892C776.759 513.513 748.825 557.013 711.926 571.138C684.239 575.203 643.912 555.295 610.265 522.561C589.217 507.21 568.71 483.493 552.328 455.756C529.014 416.265 457.673 374.532 472.463 327.22C482.7 288.593 510.95 262.451 546.438 249.065C580.744 236.124 621.963 235.299 660.388 247.874C707.34 264.182 742.745 284.944 759.967 307.984Z" stroke="#0075FF" stroke-width="0.896635" stroke-miterlimit="10"/>
<path d="M757.349 302.018C782.051 329.949 804.026 389.092 792.458 446.84C771.432 505.524 743.92 549.162 707.502 563.245C680.477 567.026 640.8 546.764 607.623 513.717C587.188 498.433 567.285 475.115 551.337 447.987C528.508 409.056 460.239 367.831 474.131 321.425C483.876 282.871 511.715 256.661 546.731 243.186C580.675 230.127 621.602 229.172 659.725 241.648C705.974 257.659 740.587 278.595 757.349 302.018Z" stroke="#0075FF" stroke-width="0.896635" stroke-miterlimit="10"/>
<path d="M754.73 295.952C778.55 324.027 799.195 382.033 787.421 438.679C766.104 497.434 739.003 541.241 703.047 555.242C676.673 558.769 637.666 538.093 604.95 504.763C585.127 489.547 565.818 466.657 550.325 440.079C527.989 401.677 462.784 360.99 475.787 315.461C485.072 276.988 512.428 250.72 547.042 237.147C580.614 224 621.22 222.906 659.042 235.283C704.546 251.016 738.397 272.136 754.73 295.952Z" stroke="#0075FF" stroke-width="0.896635" stroke-miterlimit="10"/>
<path d="M752.041 289.797C775.009 318.026 794.294 374.885 782.323 430.398C760.706 489.255 734.007 533.16 698.572 547.098C672.889 550.352 634.533 529.322 602.257 495.669C583.046 480.52 564.332 458.059 549.282 432.061C527.472 394.198 465.29 354.069 477.404 309.416C486.237 270.996 513.112 244.67 547.324 230.998C580.534 217.732 620.818 216.499 658.368 228.788C703.069 244.324 736.168 265.598 752.041 289.797Z" stroke="#0075FF" stroke-width="0.896635" stroke-miterlimit="10"/>
<path d="M749.292 283.621C771.377 311.994 789.341 367.685 777.185 422.137C755.277 481.065 728.991 525.139 694.017 538.995C668.985 541.995 631.299 520.551 599.483 486.614C580.885 471.534 562.774 449.47 548.16 424.082C526.843 386.749 467.725 347.158 478.97 303.422C487.342 265.084 513.765 238.71 547.545 224.929C580.393 211.545 620.355 210.173 657.604 222.362C701.541 237.58 733.878 259.038 749.292 283.621Z" stroke="#0075FF" stroke-width="0.896635" stroke-miterlimit="10"/>
<path d="M746.531 277.476C767.764 306.004 784.368 360.547 772.016 413.866C749.817 472.866 723.943 517.109 689.431 530.882C665.059 533.599 628.064 511.78 596.678 477.551C578.692 462.538 561.176 440.903 546.975 416.085C526.144 379.311 470.098 340.228 480.445 297.398C488.325 259.132 514.306 232.68 547.644 218.822C580.131 205.318 619.771 203.807 656.739 215.938C700.002 230.868 731.547 252.5 746.531 277.476Z" stroke="#0075FF" stroke-width="0.896635" stroke-miterlimit="10"/>
<path d="M743.692 271.37C764.043 300.042 779.317 353.449 766.758 405.666C744.268 464.736 718.787 509.108 684.796 522.819C661.085 525.252 624.741 503.079 593.825 468.537C576.442 453.622 559.499 432.376 545.783 408.117C525.445 371.872 472.453 333.357 481.911 291.404C489.331 253.22 514.86 226.72 547.776 212.723C579.87 199.091 619.239 197.491 655.915 209.492C698.384 224.196 729.168 246.012 743.692 271.37Z" stroke="#0075FF" stroke-width="0.896635" stroke-miterlimit="10"/>
<path d="M740.843 265.396C760.341 294.222 774.264 346.451 761.49 397.596C738.71 456.738 713.64 501.279 680.11 514.907C657.081 517.096 621.377 494.5 590.921 459.675C574.15 444.827 557.802 424.009 544.53 400.33C524.687 364.615 474.758 326.638 483.317 285.591C490.285 247.46 515.323 220.932 547.837 206.836C579.57 193.085 618.617 191.346 654.991 203.249C696.756 217.654 726.778 239.654 740.843 265.396Z" stroke="#0075FF" stroke-width="0.896635" stroke-miterlimit="10"/>
<path d="M737.964 259.512C756.61 288.493 769.173 339.575 756.233 389.597C733.132 448.801 708.484 493.48 675.466 507.076C653.098 508.981 618.074 486.041 588.058 450.893C571.9 436.112 556.156 415.693 543.318 392.624C523.96 357.468 477.104 319.999 484.765 279.859C491.241 241.8 515.867 215.203 547.939 201.029C579.31 187.16 618.035 185.282 654.128 197.125C695.059 211.224 724.319 233.408 737.964 259.512Z" stroke="#0075FF" stroke-width="0.896635" stroke-miterlimit="10"/>
<path d="M735.017 253.839C752.781 282.964 763.983 332.899 750.867 381.828C727.475 441.104 703.24 485.951 670.693 499.435C648.976 501.087 614.622 477.732 585.067 442.301C569.491 427.578 554.371 407.598 541.988 385.078C523.153 350.462 479.321 313.55 486.093 274.286C492.108 236.31 516.252 209.655 547.892 195.373C578.901 181.385 617.294 179.398 653.096 191.113C693.333 204.983 721.831 227.351 735.017 253.839Z" stroke="#0075FF" stroke-width="0.896635" stroke-miterlimit="10"/>
<path d="M732.059 248.396C748.971 277.676 758.823 326.433 745.501 374.26C721.818 433.607 698.005 478.593 665.91 492.025C644.853 493.393 611.191 469.664 582.065 433.94C567.101 419.285 552.576 399.733 540.637 377.793C522.297 343.706 481.528 307.332 487.411 268.945C492.975 231.021 516.636 204.308 547.875 189.927C578.522 175.82 616.624 173.704 652.124 185.32C691.598 198.974 719.314 221.485 732.059 248.396Z" stroke="#0075FF" stroke-width="0.896635" stroke-miterlimit="10"/>
<path d="M729.054 243.205C745.083 272.628 753.605 320.248 740.107 366.983C716.134 426.402 692.703 471.546 661.138 484.885C640.773 485.979 607.731 461.887 579.075 425.85C564.724 411.262 550.802 392.109 539.298 370.778C521.443 337.251 483.747 301.385 488.731 263.904C493.804 226.052 517.044 199.302 547.85 184.813C578.135 170.587 615.915 168.332 651.134 179.889C689.813 193.215 716.758 215.941 729.054 243.205Z" stroke="#0075FF" stroke-width="0.896635" stroke-miterlimit="10"/>
<path d="M726.009 238.334C741.186 267.912 748.358 314.354 734.653 359.987C710.389 419.477 687.381 464.76 656.268 478.047C636.553 478.887 604.181 454.381 575.986 418.061C562.247 403.54 548.92 384.816 537.83 364.055C520.468 331.057 485.826 295.759 489.951 259.165C494.563 221.395 517.331 194.557 547.695 179.989C577.619 165.645 615.067 163.281 649.994 174.709C687.96 187.767 714.153 210.647 726.009 238.334Z" stroke="#0075FF" stroke-width="0.896635" stroke-miterlimit="10"/>
<path d="M722.916 233.815C737.211 263.537 743.052 308.842 729.142 353.373C704.587 412.934 681.961 458.376 651.339 471.591C632.286 472.147 600.594 447.297 572.839 410.654C559.713 396.201 546.979 377.905 536.344 357.694C519.477 325.225 487.897 290.465 491.124 254.778C495.274 217.09 517.56 190.193 547.523 175.528C577.085 161.064 614.211 158.562 648.867 169.9C686.119 182.691 711.52 205.745 722.916 233.815Z" stroke="#0075FF" stroke-width="0.896635" stroke-miterlimit="10"/>
<path d="M719.795 229.687C733.238 259.563 737.719 303.721 723.642 347.129C698.797 406.762 676.593 452.343 646.462 465.485C628.06 465.788 597.039 440.523 569.744 403.598C557.23 389.212 545.091 371.344 534.899 351.713C518.547 319.814 490.01 285.552 492.339 250.771C496.038 213.135 517.821 186.14 547.402 171.416C576.592 156.764 613.407 154.193 647.751 165.462C684.219 177.996 708.888 201.243 719.795 229.687Z" stroke="#0075FF" stroke-width="0.896635" stroke-miterlimit="10"/>
<path d="M716.666 225.99C729.226 256.011 732.387 299.001 718.094 341.337C692.929 401.031 671.167 446.79 641.497 459.85C623.756 459.869 593.425 434.23 566.56 397.012C554.649 382.724 543.124 365.225 533.367 346.203C517.509 314.833 492.036 281.109 493.465 247.235C496.673 209.672 518.045 182.609 547.184 167.806C576.012 153.035 612.535 150.335 646.578 161.505C682.281 173.722 706.189 197.153 716.666 225.99Z" stroke="#0075FF" stroke-width="0.896635" stroke-miterlimit="10"/>
<path d="M713.49 222.745C725.198 252.92 726.999 294.763 712.5 335.997C687.033 395.793 665.673 441.65 636.485 454.668C619.425 454.443 589.725 428.41 563.3 390.869C552.001 376.649 541.07 359.578 531.767 341.106C516.403 310.265 493.984 277.109 494.524 244.112C497.271 206.631 518.161 179.51 546.868 164.599C575.334 149.709 611.526 146.9 645.307 157.951C680.317 169.94 703.432 193.545 713.49 222.745Z" stroke="#0075FF" stroke-width="0.896635" stroke-miterlimit="10"/>
<path d="M710.235 220.041C721.06 250.361 721.531 291.066 706.866 331.177C681.109 391.045 660.161 437.071 631.474 449.986C615.075 449.478 586.035 423.061 560.07 385.237C549.384 371.084 539.047 354.442 530.189 336.55C515.319 306.238 495.963 273.62 495.605 241.529C497.9 204.101 518.328 176.961 546.613 161.912C574.707 146.933 610.587 143.955 644.057 154.938C678.283 166.669 700.647 190.428 710.235 220.041Z" stroke="#0075FF" stroke-width="0.896635" stroke-miterlimit="10"/>
<path d="M706.973 217.869C716.946 248.343 716.066 287.871 701.185 326.91C675.138 386.849 654.572 433.034 626.377 445.877C610.638 445.085 582.289 418.294 556.754 380.177C546.68 366.091 536.917 349.838 528.494 332.555C514.108 302.803 497.825 270.693 496.578 239.479C498.382 202.123 518.368 174.905 546.241 159.787C573.974 144.69 609.532 141.573 642.73 152.466C676.233 163.96 697.845 187.873 706.973 217.869Z" stroke="#0075FF" stroke-width="0.896635" stroke-miterlimit="10"/>
<path d="M703.645 216.31C712.766 246.938 710.525 285.319 695.448 323.225C669.11 383.236 648.966 429.56 621.253 442.36C606.165 441.314 578.476 414.139 553.412 375.709C543.95 361.691 534.781 345.866 526.802 329.163C512.911 299.941 499.681 268.399 497.545 238.06C498.888 200.787 518.423 173.521 545.864 158.295C573.234 143.079 608.491 139.863 641.358 150.648C674.126 161.834 694.946 185.921 703.645 216.31Z" stroke="#0075FF" stroke-width="0.896635" stroke-miterlimit="10"/>
<path d="M616.02 439.475C601.623 438.155 574.595 410.596 549.96 371.874C525.356 333.161 503.155 283.256 498.434 237.284C499.316 200.093 518.368 172.769 545.377 157.434C572.386 142.1 607.321 138.744 639.916 149.44C671.901 160.369 691.959 184.64 700.228 215.422C708.467 246.195 704.896 283.438 689.613 320.243C663.004 380.264 643.272 426.757 616.02 439.475Z" stroke="#0075FF" stroke-width="0.896635" stroke-miterlimit="10"/>
</g>
<defs>
<clipPath id="clip0_1045_76309">
<rect width="595.674" height="805.367" fill="white" transform="translate(950.942 251.099) rotate(108.167)"/>
</clipPath>
</defs>
</svg>
