<svg width="120" height="120" viewBox="0 0 120 120" fill="none" xmlns="http://www.w3.org/2000/svg">
<g id="1">
<g id="Group">
<path id="Vector" d="M109.066 99.9497H10.7989C5.20875 99.9497 0.65918 95.4015 0.65918 89.81V85.5516C0.65918 84.8232 1.24928 84.2344 1.97637 84.2344H44.1303C44.8574 84.2344 45.4475 84.8232 45.4475 85.5516V89.3148H74.4177V85.5516C74.4177 84.8232 75.0065 84.2344 75.7349 84.2344H117.889C118.617 84.2344 119.206 84.8232 119.206 85.5516V89.81C119.206 95.4015 114.658 99.9497 109.066 99.9497ZM3.29355 86.8674V89.8087C3.29355 93.9473 6.66029 97.314 10.7989 97.314H109.066C113.205 97.314 116.572 93.946 116.572 89.8087V86.8674H77.0521V90.6306C77.0521 91.359 76.4633 91.9478 75.7349 91.9478H44.1303C43.4032 91.9478 42.8131 91.359 42.8131 90.6306V86.8674H3.29355Z" fill="#0075FF"/>
<path id="Vector_2" d="M111.19 86.8673C110.461 86.8673 109.872 86.2785 109.872 85.5501V24.2469C109.872 23.3117 109.112 22.5504 108.177 22.5504H11.6893C10.7541 22.5504 9.99277 23.3117 9.99277 24.2469V85.5501C9.99277 86.2785 9.40267 86.8673 8.67559 86.8673C7.9485 86.8673 7.3584 86.2785 7.3584 85.5501V24.2469C7.3584 21.8589 9.30125 19.916 11.6893 19.916H108.177C110.565 19.916 112.507 21.8589 112.507 24.2469V85.5501C112.507 86.2785 111.918 86.8673 111.19 86.8673Z" fill="#0075FF"/>
<path id="Vector_3" d="M104.058 80.2816H15.8064C15.0794 80.2816 14.4893 79.6929 14.4893 78.9645V31.1374C14.4893 28.8824 16.3241 27.0488 18.5778 27.0488H101.285C103.54 27.0488 105.374 28.8837 105.374 31.1374V78.9645C105.375 79.6929 104.786 80.2816 104.058 80.2816ZM17.1236 77.6473H102.741V31.1374C102.741 30.3352 102.089 29.6832 101.287 29.6832H18.5778C17.7756 29.6832 17.1236 30.3365 17.1236 31.1374V77.6473Z" fill="#0075FF"/>
<path id="Vector_4" d="M56.1271 62.6122C52.5483 62.6122 48.9682 61.2502 46.2442 58.525C43.6046 55.8853 42.1504 52.375 42.1504 48.6421C42.1504 44.9092 43.6046 41.3989 46.2442 38.7593C51.6934 33.3088 60.5634 33.3101 66.0099 38.7593C71.4591 44.2085 71.4591 53.0758 66.0099 58.525C63.286 61.2502 59.7072 62.6122 56.1271 62.6122ZM56.1271 37.3051C53.2227 37.3051 50.3183 38.4102 48.1067 40.6218C45.965 42.7635 44.7848 45.6126 44.7848 48.6421C44.7848 51.6717 45.965 54.5194 48.1067 56.6625C52.5285 61.0843 59.7256 61.0843 64.1474 56.6625C68.5692 52.2407 68.5692 45.0449 64.1474 40.6218C61.9359 38.4115 59.0315 37.3051 56.1271 37.3051Z" fill="#0075FF"/>
<path id="Vector_5" d="M76.3978 70.2306C76.0606 70.2306 75.7234 70.1016 75.4666 69.8447L64.148 58.5261C63.633 58.0111 63.633 57.1786 64.148 56.6636C64.663 56.1486 65.4955 56.1486 66.0105 56.6636L77.3291 67.9822C77.8441 68.4972 77.8441 69.3297 77.3291 69.8447C77.0722 70.1029 76.735 70.2306 76.3978 70.2306Z" fill="#0075FF"/>
<path id="Vector_6" d="M51.2761 54.8117C50.9389 54.8117 50.6017 54.6826 50.3448 54.4258C48.7998 52.882 47.9502 50.8285 47.9502 48.6433C47.9502 46.4581 48.8011 44.4059 50.3448 42.8609C50.8599 42.3459 51.6923 42.3459 52.2073 42.8609C52.7224 43.3759 52.7224 44.2084 52.2073 44.7234C51.1602 45.7705 50.5846 47.1628 50.5846 48.6433C50.5846 50.1239 51.1615 51.5161 52.2073 52.5633C52.7224 53.077 52.7224 53.9108 52.2073 54.4258C51.9505 54.6826 51.6133 54.8117 51.2761 54.8117Z" fill="#0075FF"/>
</g>
</g>
</svg>
