<svg width="64" height="64" viewBox="0 0 64 64" fill="none" xmlns="http://www.w3.org/2000/svg">
<g id="icon">
<g id="Group 3053">
<path id="Vector" d="M55.3718 64.0004H16.8238C15.911 64.0004 15.0258 63.8203 14.1926 63.463C13.3884 63.1187 12.6666 62.6277 12.046 62.0013C11.4284 61.375 10.9409 60.6474 10.601 59.8367C10.2502 58.997 10.0723 58.1074 10.0723 57.1889V55.2729C10.0723 54.7377 10.5055 54.3023 11.0429 54.3023C11.578 54.3023 12.0134 54.7355 12.0134 55.2729V57.1889C12.0134 59.8743 14.1723 62.06 16.8266 62.06H55.3746C58.0289 62.06 60.1878 59.8743 60.1878 57.1889L60.1871 18.2479C60.1871 15.5625 58.0282 13.3767 55.3739 13.3767H53.398C52.8628 13.3767 52.4274 12.9435 52.4274 12.4061C52.4274 11.8688 52.8606 11.4355 53.398 11.4355H55.3739C56.2867 11.4355 57.1719 11.6156 58.0051 11.9729C58.8093 12.3172 59.5311 12.8083 60.1517 13.4346C60.7715 14.0609 61.2568 14.7885 61.5967 15.5992C61.9475 16.4389 62.1254 17.3285 62.1254 18.247L62.1261 57.1899C62.1261 58.1084 61.9475 58.998 61.5975 59.8377C61.2575 60.6485 60.7723 61.3761 60.1524 62.0023C59.5326 62.6287 58.8108 63.1198 58.0058 63.464C57.1676 63.8198 56.2823 63.9999 55.3717 63.9999L55.3718 64.0004Z" fill="#0075FF"/>
<path id="Vector_2" d="M18.0142 12.6062C16.585 12.6062 15.2434 12.0507 14.2338 11.0404C13.2241 10.0307 12.668 8.68915 12.668 7.25996V5.34624C12.668 3.9171 13.2234 2.57545 14.2338 1.56582C15.2434 0.556176 16.585 0 18.0142 0C19.4433 0 20.7849 0.555454 21.7945 1.56582C22.8042 2.57547 23.3603 3.91706 23.3603 5.34624V7.25996C23.3603 8.68911 22.8049 10.0308 21.7945 11.0404C20.7842 12.0507 19.4404 12.6062 18.0142 12.6062ZM18.0142 1.93909C16.1353 1.93909 14.607 3.46731 14.607 5.34624V7.25996C14.607 9.13888 16.1352 10.6671 18.0142 10.6671C19.893 10.6671 21.4213 9.1389 21.4213 7.25996V5.34624C21.4205 3.46788 19.8923 1.93909 18.0142 1.93909Z" fill="#0075FF"/>
<path id="Vector_3" d="M37.4087 12.6062C35.9796 12.6062 34.6379 12.0507 33.6283 11.0404C32.6187 10.0307 32.0625 8.68915 32.0625 7.25996V5.34624C32.0625 3.9171 32.6179 2.57545 33.6283 1.56582C34.6379 0.556176 35.9795 0 37.4087 0C38.8378 0 40.1794 0.555454 41.1891 1.56582C42.1987 2.57547 42.7549 3.91706 42.7549 5.34624V7.25996C42.7549 8.68911 42.1994 10.0308 41.1891 11.0404C40.1787 12.0507 38.8371 12.6062 37.4087 12.6062ZM37.4087 1.93909C35.5298 1.93909 34.0016 3.46731 34.0016 5.34624V7.25996C34.0016 9.13888 35.5298 10.6671 37.4087 10.6671C39.2876 10.6671 40.8158 9.1389 40.8158 7.25996V5.34624C40.8151 3.46788 39.2869 1.93909 37.4087 1.93909Z" fill="#0075FF"/>
<path id="Vector_4" d="M33.0311 5.8162H22.3641C21.829 5.8162 21.3936 5.38298 21.3936 4.8456C21.3936 4.30824 21.8268 3.875 22.3641 3.875H33.0311C33.5663 3.875 34.0017 4.30822 34.0017 4.8456C34.0017 5.38296 33.5663 5.8162 33.0311 5.8162Z" fill="#0075FF"/>
<path id="Vector_5" d="M47.5771 56.2426H8.78837C7.87203 56.2426 6.98461 56.0625 6.14629 55.7096C5.33771 55.3675 4.61157 54.8778 3.98967 54.2558C3.36768 53.6338 2.87805 52.9077 2.53595 52.0992C2.18156 51.2617 2.00293 50.3721 2.00293 49.4571L2.00365 10.6642C2.00365 9.74786 2.18374 8.86044 2.53668 8.02211C2.87878 7.21352 3.36841 6.48737 3.9904 5.86547C4.61239 5.24347 5.34069 4.75384 6.14701 4.41174C6.98452 4.05734 7.8741 3.8787 8.78909 3.8787H13.6378C14.173 3.8787 14.6084 4.31192 14.6084 4.8493C14.6084 5.3845 14.1752 5.8199 13.6378 5.8199H8.78909C6.11591 5.8199 3.94041 7.99543 3.94041 10.6686V49.4541C3.94041 52.1273 6.11591 54.3028 8.78909 54.3028H47.5778C50.251 54.3028 52.4265 52.1273 52.4265 49.4541L52.4258 10.6649C52.4258 7.99173 50.2503 5.8162 47.5771 5.8162H41.7586C41.2234 5.8162 40.788 5.38298 40.788 4.8456C40.788 4.3104 41.2212 3.875 41.7586 3.875H47.5771C48.4935 3.875 49.3809 4.05509 50.2192 4.40803C51.0278 4.75014 51.7539 5.23977 52.3758 5.86177C52.9977 6.48376 53.4874 7.20989 53.8295 8.01841C54.1839 8.85592 54.3626 9.74551 54.3626 10.6605V49.4552C54.3626 50.3716 54.1825 51.259 53.8295 52.0973C53.4874 52.9059 52.9978 53.6321 52.3758 54.254C51.7538 54.8759 51.0277 55.3656 50.2192 55.7077C49.3817 56.0621 48.4943 56.2429 47.5771 56.2429V56.2426Z" fill="#0075FF"/>
<path id="Vector_6" d="M53.396 17.5135H2.97059C2.4354 17.5135 2 17.0802 2 16.5429C2 16.0055 2.43321 15.5723 2.97059 15.5723H53.396C53.9312 15.5723 54.3666 16.0055 54.3666 16.5429C54.3666 17.0802 53.9304 17.5135 53.396 17.5135Z" fill="#0075FF"/>
<path id="Vector_7" d="M24.1049 45.5749C23.5183 45.5749 22.9022 45.4649 22.3279 45.2552C21.6806 45.0209 21.1172 44.6701 20.6999 44.2412C20.6977 44.239 20.6955 44.2369 20.6934 44.2347L14.8351 38.2063C13.2425 36.566 13.2425 33.9971 14.8351 32.3567C15.2603 31.9191 15.7622 31.5814 16.3278 31.3506C16.871 31.1286 17.4452 31.0165 18.0347 31.0165C18.6256 31.0165 19.1998 31.1286 19.7415 31.3506C20.3078 31.5806 20.8098 31.9206 21.2343 32.3567L23.8908 35.0919L35.0142 23.6429C35.4395 23.2053 35.9414 22.8676 36.507 22.6369C37.048 22.4148 37.6244 22.3027 38.216 22.3027C38.8069 22.3027 39.3811 22.4148 39.925 22.6369C40.4913 22.8669 40.9932 23.2068 41.4178 23.6429C42.1873 24.4349 42.6495 25.451 42.7182 26.5048C42.7927 27.6309 42.405 28.6905 41.6318 29.4889L27.5453 44.2041C27.4976 44.2584 27.4441 44.3054 27.3855 44.3495C26.1972 45.1972 25.1846 45.5747 24.1048 45.5747L24.1049 45.5749ZM22.0762 42.8772C22.0784 42.8794 22.0806 42.8816 22.0827 42.8837C22.5138 43.3278 23.3433 43.6366 24.1049 43.6366C24.7457 43.6366 25.372 43.3943 26.1829 42.8237L40.234 28.1462C40.2362 28.144 40.2384 28.1419 40.2384 28.1397C41.1634 27.1879 40.8191 25.8087 40.0272 24.9936C39.5563 24.5083 38.9134 24.2407 38.2169 24.2407C37.5204 24.2407 36.8775 24.5083 36.4067 24.9936L24.5867 37.1579C24.4045 37.3466 24.1535 37.4522 23.8917 37.4522C23.6306 37.4522 23.3797 37.3466 23.1967 37.1579L19.8438 33.7072C19.373 33.2219 18.73 32.9543 18.0335 32.9543C17.3371 32.9543 16.6941 33.2219 16.2233 33.7072C15.3525 34.6048 15.3525 35.9572 16.2233 36.8533L22.0762 42.8772Z" fill="#0075FF"/>
</g>
</g>
</svg>
