<svg width="200" height="67" viewBox="0 0 200 67" fill="none" xmlns="http://www.w3.org/2000/svg">
<g id="google" clip-path="url(#clip0_56_934)">
<path id="Vector" fill-rule="evenodd" clip-rule="evenodd" d="M68.3016 18.5117C58.7281 18.5117 51.8641 25.9961 51.8641 34.7305C51.8641 43.5867 58.5203 51.2117 68.4141 51.2117C77.3734 51.2117 84.7109 44.368 84.7109 34.8992C84.7109 24.0586 76.1734 18.4961 68.3047 18.4961L68.3016 18.5117ZM104.048 18.5117C94.4859 18.5117 87.6266 25.9961 87.6266 34.7305C87.6266 43.5867 94.2828 51.2117 104.178 51.2117C113.116 51.2117 120.459 44.368 120.459 34.8992C120.459 24.0586 111.928 18.4961 104.053 18.4961L104.062 18.5117H104.048ZM159.564 50.2586H166.767V2.05548H159.564V50.2586ZM139.75 24.9414C144.062 24.9414 148.484 28.6258 148.484 34.907C148.484 41.3133 144.069 44.8133 139.653 44.8133C134.966 44.8133 130.611 41.032 130.611 34.9695C130.611 28.6883 135.142 24.9383 139.752 24.9383L139.75 24.9414ZM68.3984 24.9414C73.1078 24.9414 77.5703 28.7508 77.5703 34.8758C77.5703 40.907 73.1266 44.8133 68.3766 44.8133C63.1734 44.8133 59.0484 40.6461 59.0484 34.8445C59.0484 29.1883 63.1109 24.9649 68.4078 24.9649V24.9399L68.3984 24.9414ZM104.145 24.9414C108.853 24.9414 113.317 28.7508 113.317 34.8758C113.317 40.907 108.872 44.8133 104.123 44.8133C98.9047 44.8133 94.7797 40.6461 94.7797 34.8445C94.7797 29.1883 98.8422 24.9649 104.123 24.9649L104.139 24.9399L104.145 24.9414ZM185.261 18.5039C176.975 18.5039 170.011 25.0977 170.011 34.8445C170.011 45.1492 177.77 51.2508 186.061 51.2508C192.952 51.2508 197.202 47.4695 199.733 44.0789L194.077 40.318C192.608 42.5992 190.139 44.818 186.045 44.818C181.452 44.818 179.338 42.3024 178.03 39.8649L200 30.7383L198.863 28.0727C196.744 22.8539 191.8 18.4899 185.264 18.4899L185.248 18.5055L185.261 18.5039ZM49.1922 23.5352H25.8484V30.4695H42.4016C41.5891 40.1883 33.5062 44.3289 25.8812 44.3289C16.1266 44.3289 7.61094 36.6508 7.61094 25.8914C7.61094 15.4117 15.7047 7.34142 25.8922 7.34142C33.7359 7.34142 38.3609 12.3524 38.3609 12.3524L43.2047 7.33204C43.2047 7.33204 36.9844 0.394541 25.625 0.394541C11.1844 0.382041 0 12.582 0 25.7539C0 38.6602 10.5156 51.2539 25.9969 51.2539C39.6219 51.2539 49.5906 41.9258 49.5906 28.1289C49.5906 25.2227 49.1641 23.5352 49.1641 23.5352H49.1922ZM185.552 24.7852C188.542 24.7852 190.692 26.3758 191.605 28.282L176.964 34.407C176.331 29.6789 180.82 24.8055 185.555 24.8055L185.552 24.7852ZM139.119 18.5352C130.33 18.5352 123.42 26.2508 123.42 34.8758C123.42 44.7195 131.42 51.2508 138.967 51.2508C143.623 51.2508 146.092 49.407 147.936 47.282V50.5008C147.936 56.1539 144.498 59.5289 139.342 59.5289C134.342 59.5289 131.842 55.8102 130.967 53.7086L124.688 56.332C126.917 61.0508 131.406 65.9695 139.394 65.9695C148.131 65.9695 154.792 60.4633 154.792 48.9227V19.532H147.938V22.3024C145.828 20.0524 142.947 18.5524 139.119 18.5524V18.5367V18.5352Z" fill="#0D0D0E"/>
</g>
<defs>
<clipPath id="clip0_56_934">
<rect width="200" height="65.625" fill="white" transform="translate(0 0.394531)"/>
</clipPath>
</defs>
</svg>
