<svg width="200" height="69" viewBox="0 0 200 69" fill="none" xmlns="http://www.w3.org/2000/svg">
<g id="apple-11 1" clip-path="url(#clip0_56_937)">
<path id="Vector" d="M46.5198 36.3528C46.4372 27.6959 53.5922 23.5366 53.914 23.3386C49.8868 17.4545 43.6314 16.6458 41.4032 16.555C36.0803 16.0103 31.0133 19.691 28.3064 19.691C25.5996 19.691 21.4321 16.6293 17.017 16.72C11.2072 16.8026 5.85131 20.0953 2.85564 25.2944C-3.1687 35.7421 1.32067 51.2569 7.20472 59.7487C10.0849 63.8997 13.5014 68.5789 18.0073 68.4056C22.3481 68.2323 23.9821 65.5998 29.2142 65.5998C34.4463 65.5998 35.9235 68.4056 40.5037 68.3231C45.1663 68.2323 48.1208 64.0813 50.9761 59.9138C54.2606 55.086 55.6223 50.4234 55.7048 50.1758C55.5975 50.1345 46.6188 46.6932 46.5198 36.3528Z" fill="#0D0D0E"/>
<path id="Vector_2" d="M37.9122 10.9263C40.3055 8.02971 41.9147 4.01073 41.4773 0C38.036 0.140293 33.8685 2.2942 31.401 5.19084C29.1893 7.74912 27.25 11.8424 27.7781 15.7706C31.599 16.0677 35.5272 13.8147 37.9122 10.9263ZM76.6991 44.8607L72.7379 56.8682H67.6461L80.6108 18.7085H86.5526L99.5669 56.8682H94.3017L90.225 44.8607H76.6991ZM89.2099 41.0068L85.4798 30.0227C84.6298 27.5304 84.0686 25.2692 83.4992 23.0576H83.3919C82.8225 25.3188 82.2035 27.6377 81.4691 29.9649L77.7389 40.9986L89.2099 41.0068ZM103.429 38.4073C103.429 34.8999 103.322 32.0611 103.198 29.4615H107.671L107.902 34.1655H108.009C110.048 30.8232 113.274 28.8426 117.747 28.8426C124.374 28.8426 129.35 34.446 129.35 42.7728C129.35 52.6264 123.351 57.4871 116.897 57.4871C113.274 57.4871 110.105 55.9026 108.463 53.1875H108.356V68.0751H103.429V38.4073ZM108.348 45.7107C108.348 46.4535 108.455 47.1219 108.579 47.7491C109.486 51.1987 112.482 53.5837 116.055 53.5837C121.321 53.5837 124.382 49.2841 124.382 42.9957C124.382 37.4995 121.494 32.812 116.229 32.812C112.837 32.812 109.668 35.2465 108.694 38.9849C108.521 39.6039 108.356 40.3466 108.356 41.0233L108.348 45.7107ZM134.5 38.4073C134.5 34.8999 134.393 32.0611 134.269 29.4615H138.742L138.973 34.1655H139.08C141.118 30.8232 144.345 28.8426 148.818 28.8426C155.445 28.8426 160.421 34.446 160.421 42.7728C160.421 52.6264 154.421 57.4871 147.968 57.4871C144.345 57.4871 141.176 55.9026 139.534 53.1875H139.427V68.0751H134.5V38.4073ZM139.427 45.7107C139.427 46.4535 139.534 47.1219 139.658 47.7491C140.565 51.1987 143.561 53.5837 147.134 53.5837C152.4 53.5837 155.461 49.2841 155.461 42.9957C155.461 37.4995 152.573 32.812 147.308 32.812C143.916 32.812 140.747 35.2465 139.773 38.9849C139.6 39.6039 139.435 40.3466 139.435 41.0233L139.427 45.7107ZM165.579 16.6701H170.563V56.8599H165.579V16.6701ZM180.582 44.0685C180.689 50.8026 184.997 53.5837 189.973 53.5837C193.538 53.5837 195.692 52.9647 197.557 52.1725L198.407 55.7376C196.658 56.5298 193.654 57.4376 189.297 57.4376C180.863 57.4376 175.82 51.8919 175.82 43.6229C175.82 35.3538 180.689 28.8426 188.669 28.8426C197.615 28.8426 199.992 36.7072 199.992 41.7495C199.992 42.7728 199.885 43.5568 199.819 44.0685H180.582ZM195.189 40.5034C195.247 37.3344 193.885 32.4077 188.282 32.4077C183.239 32.4077 181.036 37.0538 180.64 40.5034H195.189Z" fill="#0D0D0E"/>
</g>
<defs>
<clipPath id="clip0_56_937">
<rect width="200" height="68.4135" fill="white"/>
</clipPath>
</defs>
</svg>
