<svg width="200" height="27" viewBox="0 0 200 27" fill="none" xmlns="http://www.w3.org/2000/svg">
<g id="tesla-9" clip-path="url(#clip0_56_941)">
<g id="TESLA">
<path id="Vector" d="M170.864 10.5163V26.2321H175.888V15.7549H194.259V26.2321H199.282V10.5163H170.864ZM175.314 5.42123H194.689C197.416 4.91889 199.354 2.47899 199.928 0.182617H170.075C170.649 2.47899 172.658 4.84713 175.314 5.42123ZM155.579 26.2321C158.091 25.1557 159.454 23.2899 160.028 21.137H137.423V0.254379H132.328V26.2321H155.579ZM94.6533 5.34946H112.594C115.321 4.56008 117.545 2.47899 118.119 0.254379H89.7017V15.6114H112.953V20.9935H94.7251C91.8546 21.7829 89.4147 23.7205 88.1947 26.2321H117.976V10.5163H94.7251L94.6533 5.34946ZM50.4481 5.42123H69.8237C72.5507 4.91889 74.56 2.47899 75.0623 0.182617H45.1377C45.7118 2.47899 47.7211 4.84713 50.4481 5.42123ZM50.4481 15.6832H69.8237C72.5507 15.1808 74.56 12.7409 75.0623 10.4445H45.1377C45.7118 12.7409 47.7211 15.1091 50.4481 15.6832ZM50.4481 26.2321H69.8237C72.5507 25.7298 74.56 23.2899 75.0623 20.9935H45.1377C45.7118 23.2899 47.7211 25.7298 50.4481 26.2321Z" fill="#0D0D0E"/>
<g id="Group">
<path id="Vector_2" d="M0 0.254379C0.574094 2.55076 2.58342 4.84713 5.23861 5.42123H13.4194L13.85 5.56475V26.1604H18.9451V5.56475L19.3757 5.42123H27.5565C30.2835 4.70361 32.221 2.55076 32.7951 0.254379V0.182617L0 0.254379Z" fill="#0D0D0E"/>
</g>
</g>
</g>
<defs>
<clipPath id="clip0_56_941">
<rect width="200" height="26.08" fill="white" transform="translate(0 0.166992)"/>
</clipPath>
</defs>
</svg>
