<svg width="200" height="44" viewBox="0 0 200 44" fill="none" xmlns="http://www.w3.org/2000/svg">
<g id="Group 3091">
<path id="Vector" fill-rule="evenodd" clip-rule="evenodd" d="M195.848 43.8337C197.724 44.1878 199.506 42.9434 199.903 40.9887C200.3 39.034 199.529 36.814 196.711 36.2559C136.32 24.283 57.5505 29.1635 1.69846 37.3341C-0.0959642 37.5971 -1.07852 40.8976 1.91527 40.5805C72.5125 33.1121 139.826 33.2517 195.848 43.8337Z" fill="#0D0D0E"/>
<path id="Vector_2" fill-rule="evenodd" clip-rule="evenodd" d="M5.35921 7.96857L1.14185 6.98372C1.61583 4.78566 2.42886 3.16422 3.5867 2.1044C4.74915 1.05381 6.46631 0.519864 8.7474 0.519864C10.8244 0.519864 12.3662 0.841617 13.3822 1.47705C14.3925 2.11248 15.1098 2.91628 15.5226 3.89422C15.9343 4.87331 16.1431 6.66197 16.1431 9.27634L16.0923 16.2949C16.0923 18.2888 16.165 19.7638 16.3184 20.7129C16.4648 21.6551 16.7485 22.6769 17.1544 23.7586H12.5531C12.3851 23.1723 12.2363 22.5808 12.1068 21.9849C12.0603 21.7466 12.0053 21.51 11.9418 21.2757C11.1461 22.2767 10.2985 23.0205 9.39552 23.5256C8.49254 24.0215 7.52728 24.2706 6.49976 24.2706C4.69265 24.2706 3.26379 23.6352 2.22589 22.3724C1.18106 21.1016 0.662109 19.4951 0.662109 17.5531C0.662109 16.2753 0.899675 15.1278 1.37365 14.1199C1.84878 13.112 2.5142 12.3451 3.36759 11.8123C4.21982 11.2795 5.45724 10.8124 7.06599 10.4111C9.23406 9.88409 10.7413 9.3882 11.5774 8.93498V8.33645C11.5774 7.1763 11.3572 6.35867 10.9166 5.86163C10.4761 5.37266 9.64576 5.12471 8.42104 5.12471C7.59071 5.12471 6.94721 5.33575 6.48476 5.76014C6.02001 6.17299 5.64637 6.91106 5.35921 7.96857ZM11.5751 12.8479C10.9824 13.1039 10.039 13.4107 8.74625 13.7682C7.45924 14.1268 6.61739 14.4774 6.21722 14.813C5.61292 15.3746 5.30847 16.0769 5.30847 16.9303C5.30847 17.7768 5.55065 18.501 6.03616 19.1145C6.52167 19.7281 7.13749 20.0348 7.88709 20.0348C8.72895 20.0348 9.52468 19.6762 10.287 18.9681C10.852 18.4284 11.2188 17.763 11.3941 16.9741C11.5175 16.4633 11.5751 15.4842 11.5751 14.0449V12.8479ZM21.727 1.03882H26.0124V4.13524C27.5427 1.72499 29.3717 0.519864 31.4891 0.519864C32.6135 0.519864 33.5891 0.819703 34.4137 1.41823C35.244 2.01676 35.9221 2.9232 36.4526 4.13524C37.2206 2.9232 38.0567 2.01676 38.9482 1.41823C39.8396 0.819703 40.7945 0.519864 41.8105 0.519864C43.0975 0.519864 44.1931 0.863528 45.0857 1.54278C45.9771 2.21511 46.6437 3.21496 47.0842 4.52157C47.4059 5.49259 47.5651 7.06329 47.5651 9.23136V23.7574H42.9187V10.7721C42.9187 8.51636 42.7596 7.06214 42.4378 6.4048C42.0088 5.55026 41.348 5.12009 40.4566 5.12009C39.8016 5.12009 39.1915 5.37496 38.616 5.89392C38.0463 6.4048 37.6335 7.15786 37.3798 8.15079C37.1261 9.14372 36.9958 10.7063 36.9958 12.8456V23.7563H32.3494V11.3072C32.3494 9.09413 32.2652 7.66989 32.1014 7.02754C31.9365 6.38519 31.6771 5.91006 31.3334 5.59638C30.9828 5.2827 30.5146 5.12241 29.9161 5.12241C29.1988 5.12241 28.5541 5.37035 27.9844 5.87431C27.4078 6.37136 26.9973 7.09328 26.7482 8.03662C26.5002 8.97765 26.3757 10.5345 26.3757 12.7176V23.7597H21.7293V1.03882H21.727ZM55.6654 7.96857L51.4469 6.98372C51.922 4.78566 52.735 3.16422 53.8917 2.1044C55.0542 1.05381 56.7713 0.519864 59.0524 0.519864C61.1294 0.519864 62.6712 0.841617 63.6872 1.47705C64.6975 2.11248 65.4148 2.91628 65.8276 3.89422C66.2393 4.87331 66.4481 6.66197 66.4481 9.27634L66.3973 16.2949C66.3973 18.2888 66.47 19.7638 66.6234 20.7129C66.7698 21.6551 67.0535 22.6769 67.4595 23.7586H62.8581C62.6902 23.1723 62.5413 22.5808 62.4118 21.9849C62.3653 21.7466 62.3103 21.51 62.2469 21.2757C61.4511 22.2767 60.6035 23.0205 59.7005 23.5256C58.7976 24.0215 57.8323 24.2706 56.8048 24.2706C54.9977 24.2706 53.5688 23.6352 52.5309 22.3724C51.4861 21.1016 50.9671 19.4951 50.9671 17.5531C50.9671 16.2753 51.2047 15.1278 51.6787 14.1199C52.1526 13.112 52.8192 12.3451 53.6726 11.8123C54.5248 11.2795 55.7622 10.8124 57.371 10.4111C59.5391 9.88409 61.0463 9.3882 61.8824 8.93498V8.33645C61.8824 7.1763 61.6622 6.35867 61.2216 5.86163C60.7811 5.37266 59.9508 5.12471 58.726 5.12471C57.8957 5.12471 57.2522 5.33575 56.7886 5.76014C56.3262 6.17299 55.9525 6.91106 55.6654 7.96857ZM61.8813 12.8479C61.2885 13.1039 60.3452 13.4107 59.0524 13.7682C57.7643 14.1268 56.9235 14.4774 56.5222 14.813C55.9191 15.3746 55.6135 16.0769 55.6135 16.9303C55.6135 17.7768 55.8557 18.501 56.3423 19.1145C56.8278 19.7281 57.4437 20.0348 58.1933 20.0348C59.0351 20.0348 59.8297 19.6762 60.5931 18.9681C61.1582 18.4284 61.5249 17.763 61.7002 16.9741C61.8236 16.4633 61.8813 15.4842 61.8813 14.0449V12.8479ZM70.5144 23.7586V19.0707L77.097 9.2994C78.1764 7.69987 78.9779 6.56855 79.4922 5.89622C78.956 5.94004 78.2445 5.96196 77.3634 5.97695L71.159 6.02077V1.03998H85.6805V5.29654L78.9675 15.3089L76.6023 18.6244C77.8893 18.5229 78.6919 18.4722 79.0021 18.4722H86.1948V23.7586H70.5144ZM88.5808 12.0729C88.5816 10.0844 88.9689 8.11509 89.7214 6.27448C90.4837 4.41202 91.562 2.98086 92.9562 2.00292C94.3182 1.02591 95.9553 0.506602 97.6314 0.519864C100.285 0.519864 102.463 1.63735 104.164 3.87231C105.863 6.10727 106.71 8.92575 106.71 12.3359C106.71 15.769 105.852 18.6163 104.141 20.8801C102.425 23.1439 100.268 24.2683 97.6648 24.2683C96.0503 24.2683 94.52 23.8013 93.0577 22.8591C91.5954 21.9169 90.4837 20.5353 89.7202 18.7178C88.966 16.9003 88.5808 14.6873 88.5808 12.0729ZM93.3471 12.3947C93.3471 14.6515 93.7589 16.3756 94.5892 17.5727C95.4126 18.7697 96.4355 19.3694 97.6487 19.3694C98.8619 19.3694 99.879 18.7697 100.698 17.5727C101.522 16.3745 101.934 14.6365 101.934 12.3508C101.934 10.1309 101.522 8.41487 100.698 7.21782C99.879 6.01961 98.863 5.42109 97.6487 5.42109C96.4343 5.42109 95.4126 6.02077 94.5892 7.21782C93.7589 8.41487 93.3471 10.1447 93.3471 12.3947ZM126.335 23.7586H121.689V12.1606C121.689 9.70764 121.587 8.12311 121.389 7.39888C121.193 6.68388 120.867 6.1211 120.418 5.71978C119.976 5.32478 119.402 5.11103 118.809 5.12126C118.001 5.12126 117.28 5.4061 116.64 5.9758C116.002 6.55241 115.563 7.30547 115.324 8.24651C115.088 9.18869 114.97 10.9266 114.97 13.4683V23.7574H110.322V1.03882H114.637V4.37626C116.171 1.80572 118.104 0.519864 120.427 0.519864C121.45 0.519864 122.394 0.760892 123.24 1.23602C124.086 1.71692 124.731 2.32351 125.166 3.0685C125.615 3.85052 125.923 4.70599 126.073 5.59523C126.249 6.53742 126.333 7.88093 126.333 9.63383V23.7586H126.335ZM129.363 23.7586V17.748H134.009V23.7586H129.363ZM148.688 15.4334L151.614 15.9305C151.297 18.5379 150.479 20.5814 149.157 22.0564C147.841 23.5314 146.222 24.2695 144.303 24.2695C141.902 24.2695 139.964 23.2546 138.51 21.2238C137.048 19.1941 136.314 16.2799 136.314 12.4823C136.314 10.0282 136.629 7.88208 137.255 6.04153C137.888 4.19982 138.843 2.82055 140.129 1.90028C141.41 0.980001 142.811 0.519864 144.319 0.519864C146.228 0.519864 147.792 1.14837 149 2.39617C150.214 3.64511 150.994 5.41302 151.337 7.71255L148.44 8.28917C148.164 6.76345 147.679 5.61714 146.978 4.84217C146.278 4.07527 145.43 3.68894 144.438 3.68894C142.935 3.68894 141.717 4.38319 140.777 5.77744C139.841 7.16478 139.371 9.36283 139.371 12.3716C139.371 15.4242 139.825 17.6453 140.732 19.0315C141.637 20.4119 142.816 21.105 144.273 21.105C145.442 21.105 146.412 20.6379 147.198 19.7108C147.984 18.7847 148.478 17.3605 148.688 15.4334ZM153.053 12.3947C153.053 8.18884 153.956 5.06936 155.769 3.04774C157.276 1.36864 159.116 0.521017 161.29 0.521017C163.707 0.521017 165.682 1.54393 167.214 3.59553C168.748 5.6402 169.511 8.46677 169.511 12.0741C169.511 15.0033 169.173 17.304 168.495 18.975C167.817 20.6552 166.829 21.9549 165.536 22.8821C164.238 23.8105 162.826 24.2695 161.29 24.2695C158.834 24.2695 156.847 23.2546 155.327 21.21C153.81 19.1722 153.053 16.2361 153.053 12.3947ZM156.114 12.3947C156.114 15.3089 156.605 17.485 157.587 18.93C158.569 20.3842 159.805 21.1062 161.29 21.1062C162.769 21.1062 164 20.3762 164.983 18.9219C165.959 17.4689 166.449 15.2489 166.449 12.269C166.449 9.4574 165.958 7.32507 164.972 5.87892C163.984 4.43278 162.758 3.70969 161.29 3.70969C159.805 3.70969 158.569 4.43277 157.587 5.872C156.604 7.31123 156.114 9.48853 156.114 12.3947ZM173.001 23.7586V1.03998H175.661V4.22288C176.214 3.11348 176.947 2.21511 177.862 1.54278C178.763 0.866587 179.863 0.507009 180.99 0.519864C182.288 0.519864 183.356 0.870449 184.186 1.57161C185.022 2.27278 185.609 3.2438 185.947 4.50082C187.341 1.84954 189.147 0.519864 191.373 0.519864C193.116 0.519864 194.454 1.14837 195.391 2.39617C196.329 3.64511 196.799 5.5664 196.799 8.15886V23.7574H193.84V9.4447C193.84 7.90399 193.745 6.79344 193.551 6.11419C193.376 5.47498 193.01 4.90446 192.502 4.4789C191.996 4.06931 191.364 3.84978 190.713 3.85847C189.477 3.85847 188.454 4.39125 187.634 5.45684C186.821 6.5155 186.409 8.21767 186.409 10.5541V23.7574H183.434V8.99956C183.434 7.28356 183.193 5.99771 182.706 5.14316C182.22 4.28862 181.43 3.85847 180.324 3.85847C179.488 3.85847 178.715 4.14331 178.003 4.71992C177.292 5.28962 176.772 6.12225 176.456 7.21782C176.134 8.32031 175.976 9.90484 175.976 11.9714V23.7586H173.001Z" fill="#0D0D0E"/>
</g>
</svg>
