<svg width="200" height="45" viewBox="0 0 200 45" fill="none" xmlns="http://www.w3.org/2000/svg">
<g id="microsoft" clip-path="url(#clip0_56_950)">
<path id="Vector" d="M199.969 20.7043V17.1855H195.6V11.7168L195.454 11.7637L191.352 13.0137H191.274V17.1543H184.799V14.8418C184.799 13.7793 185.049 12.9512 185.518 12.4043C185.986 11.8574 186.674 11.584 187.518 11.584C188.143 11.584 188.799 11.7402 189.424 12.0215L189.58 12.084V8.39492L189.518 8.36367C188.924 8.15273 188.111 8.04336 187.111 8.04336C185.846 8.04336 184.689 8.32461 183.674 8.87773C182.658 9.40898 181.861 10.2059 181.314 11.2059C180.752 12.2059 180.471 13.3621 180.471 14.6277V17.159H177.439V20.6746H180.486V35.4871H184.846V20.6746H191.325V30.0809C191.325 33.9559 193.147 35.9246 196.763 35.9246C197.357 35.9246 197.982 35.8496 198.607 35.7215C199.255 35.5809 199.7 35.4402 199.95 35.2996L200.013 35.2684V31.7215L199.836 31.8402C199.602 31.9965 199.305 32.1324 198.961 32.2262C198.618 32.3199 198.321 32.3824 198.099 32.3824C197.255 32.3824 196.63 32.1637 196.246 31.7152C195.849 31.2699 195.652 30.4809 195.652 29.3715V20.7152H199.996L199.986 20.6934L199.969 20.7043ZM167.641 32.3918C166.058 32.3918 164.808 31.8652 163.922 30.8293C163.043 29.7902 162.594 28.3074 162.594 26.423C162.594 24.4793 163.043 22.9543 163.927 21.898C164.808 20.848 166.046 20.3137 167.608 20.3137C169.124 20.3137 170.311 20.823 171.186 21.8293C172.061 22.8418 172.499 24.3512 172.499 26.3168C172.499 28.3074 172.093 29.8371 171.28 30.859C170.468 31.8746 169.249 32.3902 167.655 32.3902M167.843 16.7449C164.827 16.7449 162.424 17.6293 160.711 19.3762C159.008 21.1262 158.136 23.5418 158.136 26.5637C158.136 29.4387 158.98 31.7434 160.657 33.423C162.329 35.1105 164.605 35.9855 167.418 35.9855C170.343 35.9855 172.699 35.0793 174.405 33.3215C176.124 31.5527 176.977 29.1559 176.977 26.2074C176.977 23.2918 176.164 20.9637 174.555 19.3012C172.946 17.623 170.689 16.7762 167.836 16.7762M151.086 16.7762C149.024 16.7762 147.33 17.3012 146.024 18.3387C144.724 19.3824 144.055 20.7449 144.055 22.4012C144.055 23.2668 144.202 24.0262 144.486 24.6824C144.768 25.3293 145.205 25.9012 145.789 26.3824C146.368 26.8512 147.258 27.3512 148.446 27.8637C149.446 28.2699 150.18 28.6137 150.655 28.8949C151.124 29.1559 151.455 29.4262 151.624 29.6871C151.811 29.9371 151.905 30.2965 151.905 30.7184C151.905 31.959 150.986 32.5559 149.093 32.5559C148.386 32.5559 147.583 32.409 146.705 32.1184C145.819 31.8309 144.997 31.4152 144.257 30.8809L144.069 30.7559V34.9434L144.132 34.9746C144.757 35.2559 145.527 35.5059 146.444 35.6934C147.358 35.8965 148.194 35.9902 148.913 35.9902C151.147 35.9902 152.944 35.459 154.257 34.4215C155.569 33.3715 156.241 31.9684 156.241 30.259C156.241 29.0246 155.882 27.9621 155.171 27.1105C154.468 26.2574 153.249 25.4793 151.541 24.7918C150.193 24.2449 149.322 23.7918 148.947 23.448C148.604 23.1105 148.443 22.6355 148.443 22.0355C148.443 21.5043 148.661 21.0762 149.107 20.7324C149.554 20.3809 150.179 20.2059 150.96 20.2059C151.686 20.2059 152.429 20.3152 153.179 20.5418C153.913 20.773 154.561 21.073 155.1 21.4418L155.283 21.5668V17.5668L155.221 17.5355C154.713 17.3168 154.054 17.134 153.252 16.9887C152.455 16.8371 151.732 16.7699 151.104 16.7699M132.666 32.4105C131.088 32.4105 129.838 31.8887 128.963 30.848C128.072 29.8168 127.627 28.3324 127.627 26.4418C127.627 24.5043 128.074 22.973 128.961 21.9215C129.836 20.8715 131.077 20.3371 132.633 20.3371C134.149 20.3371 135.352 20.8465 136.219 21.8527C137.082 22.8684 137.532 24.3777 137.532 26.3434C137.532 28.3309 137.11 29.859 136.297 30.8824C135.5 31.898 134.282 32.4137 132.672 32.4137M132.891 16.773C129.86 16.773 127.454 17.6543 125.75 19.4012C124.036 21.1512 123.172 23.5652 123.172 26.5887C123.172 29.4637 124.016 31.7668 125.677 33.448C127.352 35.1355 129.624 36.0105 132.435 36.0105C135.372 36.0105 137.716 35.1043 139.435 33.3387C141.144 31.5668 142.013 29.1699 142.013 26.2215C142.013 23.3043 141.2 20.9762 139.607 19.3152C137.997 17.6355 135.738 16.7887 132.888 16.7887M116.579 20.3949V17.2074H112.266V35.5355H116.579V26.1605C116.579 24.5668 116.938 23.2543 117.652 22.2621C118.355 21.2746 119.293 20.7934 120.433 20.7934C120.824 20.7934 121.261 20.8559 121.743 20.9809C122.211 21.1059 122.549 21.2309 122.743 21.3871L122.93 21.5121V17.1684L122.861 17.1371C122.455 16.9559 121.893 16.8684 121.174 16.8684C120.096 16.8684 119.127 17.2184 118.296 17.8996C117.561 18.5059 117.035 19.3309 116.632 20.3621H116.554L116.593 20.3934L116.579 20.3949ZM104.516 16.7699C102.532 16.7699 100.766 17.184 99.266 18.0199C97.7535 18.8637 96.5941 20.0512 95.7973 21.5824C95.016 23.098 94.6098 24.8715 94.6098 26.848C94.6098 28.5824 95.0035 30.1668 95.766 31.5699C96.5379 32.9762 97.6254 34.0699 99.0004 34.8355C100.366 35.5902 101.954 35.9762 103.71 35.9762C105.76 35.9762 107.507 35.5699 108.913 34.7574L108.975 34.7262V30.7699L108.788 30.8996C108.152 31.3684 107.444 31.7355 106.679 32.0012C105.916 32.2668 105.222 32.4012 104.616 32.4012C102.919 32.4012 101.563 31.8699 100.575 30.8309C99.5754 29.7684 99.0754 28.2996 99.0754 26.4559C99.0754 24.5809 99.6066 23.0809 100.632 21.9871C101.663 20.8621 103.019 20.2996 104.679 20.2996C106.085 20.2996 107.471 20.784 108.777 21.7215L108.964 21.8465V17.6902L108.913 17.659C108.421 17.3777 107.752 17.159 106.913 16.9809C106.091 16.809 105.282 16.7246 104.51 16.7246M91.6504 17.1621H87.3441V35.5059H91.6566V17.1621H91.6504ZM89.5254 9.36523C88.816 9.36523 88.1973 9.60586 87.6879 10.084C87.1785 10.5652 86.9191 11.1684 86.9191 11.8809C86.9191 12.584 87.1801 13.1777 87.6848 13.6465C88.1848 14.1152 88.8098 14.3465 89.5285 14.3465C90.2473 14.3465 90.8723 14.1121 91.3801 13.6434C91.8926 13.1746 92.152 12.5809 92.152 11.8777C92.152 11.1902 91.902 10.5965 91.402 10.0965C90.902 9.62773 90.277 9.37773 89.527 9.37773M78.7613 15.8309V35.5184H83.1676V9.95742H77.0738L69.3504 28.9543L61.8348 9.9543H55.5004V35.5355H59.641V15.8559H59.7816L67.7191 35.5402H70.8363L78.6488 15.8574H78.7973L78.7738 15.848L78.7613 15.8309ZM22.402 23.784H42.6832V44.0824H22.3707L22.3988 23.798L22.402 23.784ZM0.000390625 23.7965H20.2785V44.0824H-0.00585938L0.000390625 23.7965ZM22.4035 1.39492H42.6848V21.6762H22.391L22.4035 1.38867V1.39492ZM0.000390625 1.3918H20.2785V21.6762H-0.00585938L0.000390625 1.38867V1.3918Z" fill="#0D0D0E"/>
</g>
<defs>
<clipPath id="clip0_56_950">
<rect width="200" height="43.75" fill="white" transform="translate(0 0.332031)"/>
</clipPath>
</defs>
</svg>
