<svg width="200" height="55" viewBox="0 0 200 55" fill="none" xmlns="http://www.w3.org/2000/svg">
<g id="netflix" clip-path="url(#clip0_56_953)">
<g id="Group">
<path id="Vector" d="M133.069 0.253906V39.3957C137.897 39.6203 142.713 39.8919 147.514 40.2122V48.5108C139.924 48.0048 132.301 47.6185 124.646 47.3552V0.253906H133.069ZM200 0.258543L189.032 25.686L199.997 53.9819L199.985 53.9873C196.791 53.5316 193.593 53.1014 190.385 52.689L184.228 36.8077L178.012 51.2148C175.066 50.8895 172.116 50.5818 169.159 50.2933L179.851 25.516L170.059 0.258543H179.171L184.653 14.3929L190.749 0.258543H200ZM95.7395 46.9438L95.7392 0.258393H119.251V8.63153H104.162V19.4835H115.579V27.782H104.162V46.9419L95.7395 46.9438ZM64.2891 8.63222L64.2888 0.257957H90.34V8.63164H81.5255V47.171C78.7142 47.2446 75.9059 47.3318 73.1033 47.4375V8.63222H64.2891ZM35.4954 49.8501V0.259362H58.8899V8.63249H43.9168V19.9746C47.3567 19.9306 52.2477 19.8806 55.2906 19.888V28.1872C51.4816 28.1399 47.1821 28.2394 43.9168 28.272V40.8358C48.8933 40.4444 53.8848 40.102 58.8899 39.8129V48.1122C51.0563 48.5634 43.2578 49.1448 35.4954 49.8501ZM18.9731 30.6656L18.9725 0.257998H27.3953V50.6324C24.3163 50.9491 21.2431 51.2861 18.1752 51.6419L8.42223 23.6228V52.8421C5.60927 53.2084 2.80205 53.5904 0 53.9892V0.258543H8.00436L18.9731 30.6656ZM154.463 49.0114V0.258598H162.886V49.7069C160.082 49.4574 157.275 49.2265 154.463 49.0114Z" fill="#0D0D0E"/>
</g>
</g>
<defs>
<clipPath id="clip0_56_953">
<rect width="200" height="53.9062" fill="white" transform="translate(0 0.253906)"/>
</clipPath>
</defs>
</svg>
