<svg width="24" height="21" viewBox="0 0 24 21" fill="none" xmlns="http://www.w3.org/2000/svg">
<path d="M0.460938 14.2344C0.460938 13.0391 0.625 11.8086 0.953125 10.543C1.28125 9.25391 1.73828 8 2.32422 6.78125C2.91016 5.5625 3.58984 4.41406 4.36328 3.33594C5.13672 2.25781 5.98047 1.30859 6.89453 0.488281L11.3945 3.26562C10.5039 4.78906 9.76562 6.42969 9.17969 8.1875C8.59375 9.92187 8.30078 11.9258 8.30078 14.1992V20.4219H0.460938V14.2344ZM12.4492 14.2344C12.4492 13.0391 12.6133 11.8086 12.9414 10.543C13.2695 9.25391 13.7266 8 14.3125 6.78125C14.8984 5.5625 15.5781 4.41406 16.3516 3.33594C17.125 2.25781 17.9688 1.30859 18.8828 0.488281L23.3828 3.26562C22.4922 4.78906 21.7539 6.42969 21.168 8.1875C20.582 9.92187 20.2891 11.9258 20.2891 14.1992V20.4219H12.4492V14.2344Z" fill="#0078FF"/>
</svg>
