<svg width="121" height="120" viewBox="0 0 121 120" fill="none" xmlns="http://www.w3.org/2000/svg">
<g id="handshake-1939">
<g id="Group">
<path id="Vector" d="M119.296 22.552C119.036 22.3044 118.689 22.1779 118.323 22.1911C109.789 22.6139 100.517 24.0325 89.1499 26.6551C88.793 26.738 88.4861 26.9646 88.303 27.282C88.1199 27.5995 88.0791 27.9788 88.1871 28.3279L89.2909 31.8896C80.9096 28.7112 69.1208 26.8816 58.9165 27.2833C55.1757 27.2833 50.9054 29.1393 47.0026 31.8935H31.5717L32.6768 28.3266C32.7862 27.9762 32.7427 27.5982 32.5609 27.2807C32.3792 26.9633 32.0723 26.7354 31.7153 26.6537C20.348 24.0312 11.0776 22.6126 2.54223 22.1898C2.1879 22.174 1.83095 22.3017 1.56883 22.5507C1.3067 22.801 1.15918 23.1461 1.15918 23.507V68.7418C1.15918 69.4702 1.74928 70.059 2.47637 70.059H18.7805C19.3574 70.059 19.8685 69.6836 20.0384 69.1317L20.6601 67.1256C34.0783 82.7633 47.7231 97.1246 58.3765 97.1246C60.4273 97.1246 62.3662 96.5832 64.1734 95.4254L64.4514 95.7073C65.6948 96.9665 67.361 97.6659 69.1419 97.6765C69.1563 97.6765 69.1695 97.6765 69.184 97.6765C70.9477 97.6765 72.6047 96.9981 73.8548 95.7652C74.9533 94.6786 75.5658 93.2982 75.7462 91.8716C76.9712 92.8872 78.461 93.4259 79.9691 93.4259C81.6565 93.4246 83.3464 92.7884 84.6412 91.5107C86.102 90.0671 86.7224 88.1111 86.559 86.209C87.1465 86.3539 87.7405 86.4527 88.3372 86.4527C90.0272 86.4527 91.6803 85.8692 92.8789 84.6851C94.1381 83.4416 94.8376 81.7754 94.8481 79.9946C94.8586 78.2137 94.1803 76.5409 93.0212 75.3752C92.5364 74.7785 92.0359 74.2055 91.5446 73.6181L100.523 68.153L100.825 69.1304C100.997 69.6823 101.506 70.0577 102.083 70.0577H118.389C119.117 70.0577 119.706 69.4689 119.706 68.7405V23.507C119.706 23.1461 119.559 22.801 119.296 22.552ZM17.8097 67.4246H3.79355V24.8992C11.4411 25.3721 19.7605 26.6577 29.7408 28.9074L17.8097 67.4246ZM91.0269 82.8094C89.5267 84.2925 86.667 84.1332 85.0258 82.4696C85.0034 82.4472 84.9745 82.4393 84.9507 82.4195C84.8625 82.3181 84.7953 82.2048 84.6992 82.1073L70.276 67.505C69.7623 66.9886 68.9311 66.9834 68.4121 67.4931C67.8945 68.0055 67.8905 68.838 68.4003 69.3569L82.8235 83.9593C83.573 84.7167 83.9826 85.7283 83.976 86.8044C83.9694 87.8792 83.5479 88.8856 82.7892 89.6337C81.2152 91.192 78.6691 91.1722 77.1122 89.5995L73.918 86.3658C73.9154 86.3632 73.914 86.3605 73.9127 86.3592L59.4895 71.7582C58.9771 71.2432 58.1433 71.2366 57.627 71.7463C57.1094 72.2587 57.1041 73.0912 57.6152 73.6101L72.037 88.2125C73.594 89.7865 73.5781 92.334 72.0028 93.8896C70.4274 95.4465 67.88 95.428 66.3257 93.8553L48.7017 76.014C48.1894 75.4977 47.3556 75.4898 46.8392 76.0035C46.3216 76.5145 46.3163 77.3483 46.8274 77.866L62.253 93.4812C52.4597 98.7157 36.2385 81.3117 21.5822 64.1501L30.7564 34.5305H43.6846C40.0742 37.7339 37.0973 41.559 35.6603 45.0456C33.8215 49.5056 35.0188 52.0135 36.3465 53.332C36.3808 53.3663 36.4177 53.3992 36.4559 53.4295C41.5178 57.443 46.5034 58.4546 54.2682 50.4224C56.9039 50.5831 59.1484 50.126 61.0965 49.0209C72.037 56.6698 82.0885 66.093 91.0612 77.1336C92.6181 78.7077 92.6023 81.2551 91.0269 82.8094ZM89.8296 71.579C81.3917 61.8187 72.012 53.3452 61.8842 46.3602C61.435 46.0493 60.8396 46.0493 60.3905 46.3589C58.6491 47.5535 56.5193 48.0067 53.8783 47.7485C53.4686 47.7037 53.0695 47.8591 52.789 48.1568C45.4325 55.9849 41.7984 54.2896 38.1563 51.4142C36.8444 50.0457 37.3963 47.7472 38.0958 46.0493C41.0252 38.9391 51.4165 29.919 58.9679 29.9177C69.732 29.5054 82.215 31.5985 90.2985 35.143L99.719 65.5582L89.8296 71.579ZM117.072 67.4246H103.054L91.1231 28.9074C101.103 26.6577 109.424 25.3721 117.07 24.8992L117.072 67.4246Z" fill="white"/>
</g>
</g>
</svg>
