<svg width="121" height="120" viewBox="0 0 121 120" fill="none" xmlns="http://www.w3.org/2000/svg">
<g id="target-12194 1" clip-path="url(#clip0_1076_21177)">
<g id="Group">
<path id="Vector" d="M60.0997 61.2495C59.7625 61.2495 59.4253 61.1205 59.1685 60.8636C58.6535 60.3486 58.6535 59.5161 59.1685 59.0011L81.9005 36.2691C82.4155 35.7541 83.248 35.7541 83.763 36.2691C84.278 36.7841 84.278 37.6166 83.763 38.1316L61.031 60.8636C60.7741 61.1205 60.4369 61.2495 60.0997 61.2495Z" fill="#0078FF"/>
<path id="Vector_2" d="M97.8967 40.2494C97.8466 40.2494 97.7966 40.2468 97.7465 40.2415L82.6805 38.5094C82.072 38.4396 81.5925 37.9602 81.5227 37.3516L79.7919 22.2856C79.7458 21.8865 79.8841 21.4887 80.1686 21.2042L98.4183 2.95459C98.7752 2.59632 99.3087 2.47514 99.7829 2.64242C100.26 2.80839 100.6 3.23384 100.657 3.73568L102.27 17.7624L116.298 19.3747C116.8 19.4326 117.225 19.7724 117.391 20.2506C117.557 20.7287 117.436 21.2582 117.079 21.6152L98.8279 39.8635C98.5803 40.1125 98.2444 40.2494 97.8967 40.2494ZM84.0201 36.0107L97.4159 37.5505L113.288 21.6784L100.93 20.2585C100.322 20.1887 99.8422 19.7092 99.7723 19.1007L98.3524 6.74546L82.4816 22.6163L84.0201 36.0107Z" fill="#0078FF"/>
<path id="Vector_3" d="M60.1003 96.6674C39.8446 96.6674 23.3652 80.188 23.3652 59.9323C23.3652 39.6766 39.8446 23.1973 60.1003 23.1973C61.5386 23.1973 63.0284 23.3026 64.7868 23.5279C65.5086 23.6201 66.0197 24.28 65.9262 25.0018C65.8327 25.7223 65.1807 26.2426 64.4523 26.1399C62.8058 25.9291 61.4241 25.8303 60.1003 25.8303C41.2974 25.8303 25.9996 41.1281 25.9996 59.931C25.9996 78.7338 41.2974 94.0317 60.1003 94.0317C78.9031 94.0317 94.2009 78.7352 94.2009 59.931C94.2009 58.6072 94.1035 57.2242 93.8914 55.5803C93.7992 54.8585 94.309 54.1986 95.0308 54.1064C95.7618 54.0063 96.4125 54.5239 96.5047 55.2444C96.7299 57.0029 96.8353 58.4926 96.8353 59.931C96.8353 80.188 80.356 96.6674 60.1003 96.6674Z" fill="#0078FF"/>
<path id="Vector_4" d="M60.099 74.1283C52.2709 74.1283 45.9023 67.7597 45.9023 59.933C45.9023 52.8768 50.9669 46.9811 57.9441 45.9155C58.658 45.7983 59.335 46.2988 59.4443 47.018C59.5537 47.7371 59.061 48.4089 58.3419 48.5182C52.6608 49.3863 48.538 54.1874 48.538 59.9317C48.538 66.3069 53.7251 71.4926 60.1003 71.4926C65.7537 71.4926 70.6602 67.2776 71.5137 61.6888C71.6231 60.9709 72.279 60.473 73.0153 60.5863C73.7345 60.6956 74.2285 61.3687 74.1178 62.0879C73.0509 69.065 67.1552 74.1283 60.099 74.1283Z" fill="#0078FF"/>
<path id="Vector_5" d="M60.0996 119.206C27.4162 119.206 0.826172 92.616 0.826172 59.9326C0.826172 27.2492 27.4162 0.65918 60.0996 0.65918C65.1089 0.65918 70.1142 1.30065 74.9786 2.56778C75.6819 2.75087 76.1034 3.47006 75.9217 4.17475C75.7373 4.87945 75.0181 5.29831 74.3147 5.11786C69.6677 3.90736 64.885 3.29355 60.0996 3.29355C28.8691 3.29355 3.46055 28.7021 3.46055 59.9326C3.46055 91.1631 28.8691 116.572 60.0996 116.572C91.3301 116.572 116.739 91.1631 116.739 59.9326C116.739 55.1499 116.125 50.3672 114.916 45.7175C114.733 45.0128 115.155 44.2937 115.859 44.1106C116.562 43.9301 117.281 44.349 117.466 45.0537C118.732 49.9194 119.373 54.926 119.373 59.9326C119.373 92.616 92.783 119.206 60.0996 119.206Z" fill="#0078FF"/>
</g>
</g>
<defs>
<clipPath id="clip0_1076_21177">
<rect width="120" height="120" fill="white" transform="translate(0.166992)"/>
</clipPath>
</defs>
</svg>
