<svg width="121" height="120" viewBox="0 0 121 120" fill="none" xmlns="http://www.w3.org/2000/svg">
<g id="winner-cup-7809">
<g id="Group">
<path id="Vector" d="M60.7672 80.5018C39.9846 80.5018 23.0771 45.2763 23.0771 1.97637C23.0771 1.24928 23.6672 0.65918 24.3943 0.65918H97.14C97.8684 0.65918 98.4572 1.24928 98.4572 1.97637C98.4572 45.2763 81.5497 80.5018 60.7672 80.5018ZM25.7168 3.29355C26.0421 44.536 41.6403 77.8674 60.7672 77.8674C79.894 77.8674 95.4922 44.536 95.8175 3.29355H25.7168Z" fill="#0078FF"/>
<path id="Vector_2" d="M68.7683 97.4088H52.7645C52.0374 97.4088 51.4473 96.82 51.4473 96.0916V77.3032C51.4473 76.5748 52.0374 75.986 52.7645 75.986C53.4915 75.986 54.0816 76.5748 54.0816 77.3032V94.7757H67.4511V77.3006C67.4511 76.5722 68.0399 75.9834 68.7683 75.9834C69.4967 75.9834 70.0855 76.5722 70.0855 77.3006V96.0929C70.0855 96.82 69.4967 97.4088 68.7683 97.4088Z" fill="#0078FF"/>
<path id="Vector_3" d="M82.1267 110.349H39.409C38.6819 110.349 38.0918 109.76 38.0918 109.032V104.289C38.0918 99.0425 42.3608 94.7734 47.6072 94.7734H73.9272C79.1736 94.7734 83.4439 99.0411 83.4439 104.289V109.032C83.4439 109.76 82.8551 110.349 82.1267 110.349ZM40.7262 107.715H80.8095V104.289C80.8095 100.495 77.722 97.4078 73.9272 97.4078H47.6072C43.8137 97.4078 40.7262 100.495 40.7262 104.289V107.715Z" fill="#0078FF"/>
<path id="Vector_4" d="M51.056 48.8823C50.7833 48.8823 50.5107 48.798 50.2815 48.6307C49.8758 48.3357 49.673 47.8365 49.7573 47.3425L51.4946 37.2121L44.1342 30.0373C43.7759 29.687 43.6455 29.164 43.8009 28.6872C43.9564 28.2104 44.3686 27.8627 44.8639 27.7902L55.0365 26.3123L59.5848 17.0947C60.0287 16.195 61.5039 16.195 61.9465 17.0947L66.4961 26.3123L76.6674 27.7902C77.164 27.8627 77.5749 28.2104 77.7317 28.6872C77.8858 29.164 77.758 29.687 77.3984 30.0373L70.038 37.2121L71.7754 47.3425C71.8597 47.8365 71.6568 48.3357 71.2524 48.6307C70.8481 48.9258 70.3067 48.964 69.8654 48.7309L60.7663 43.9482L51.6685 48.7309C51.4762 48.8323 51.2654 48.8823 51.056 48.8823ZM60.7663 41.1425C60.9771 41.1425 61.1878 41.1926 61.3788 41.294L68.7287 45.1573L67.3259 36.975C67.2521 36.5482 67.3944 36.1122 67.7039 35.8093L73.6497 30.0136L65.4344 28.8203C65.005 28.7583 64.6349 28.4883 64.4426 28.0998L60.7663 20.655L57.0927 28.0998C56.9004 28.4883 56.5302 28.7583 56.1008 28.8203L47.8842 30.0136L53.83 35.8079C54.1395 36.1109 54.2818 36.5469 54.2093 36.9736L52.8065 45.156L60.1551 41.2927C60.3448 41.1926 60.5556 41.1425 60.7663 41.1425Z" fill="#0078FF"/>
<path id="Vector_5" d="M88.8689 119.206H32.6658C31.9387 119.206 31.3486 118.617 31.3486 117.889V109.032C31.3486 108.304 31.9387 107.715 32.6658 107.715H88.8689C89.5973 107.715 90.1861 108.304 90.1861 109.032V117.889C90.1861 118.617 89.5973 119.206 88.8689 119.206ZM33.983 116.572H87.5517V110.349H33.983V116.572Z" fill="#0078FF"/>
<path id="Vector_6" d="M87.2912 57.265L85.9951 54.9718C96.011 49.3079 104.959 32.7825 106.761 16.8854H97.1412V14.251H109.65L109.527 15.6814C108.028 33.067 98.4689 50.9439 87.2912 57.265Z" fill="#0078FF"/>
<path id="Vector_7" d="M80.2365 68.5718L80.1338 65.9401C100.069 65.155 116.123 35.272 116.123 11.0555V7.85605H97.14V5.22168H118.758V11.0542C118.758 36.9514 101.932 67.7169 80.2365 68.5718Z" fill="#0078FF"/>
<path id="Vector_8" d="M41.2988 68.5731C19.6048 67.717 2.77637 36.9514 2.77637 11.0542V5.22168H24.394V7.85606H5.41074V11.0542C5.41074 35.272 21.4646 65.155 41.4029 65.9401L41.2988 68.5731Z" fill="#0078FF"/>
<path id="Vector_9" d="M34.1604 57.2189C23.0236 50.8582 13.499 33.0011 12.0066 15.6814L11.8828 14.251H24.3935V16.8854H14.774C16.5694 32.7232 25.4854 49.2302 35.4671 54.931L34.1604 57.2189Z" fill="#0078FF"/>
</g>
</g>
</svg>
