<svg width="120" height="120" viewBox="0 0 120 120" fill="none" xmlns="http://www.w3.org/2000/svg">
<g id="1">
<g id="Group">
<path id="Vector" d="M109.066 99.9492H10.7989C5.20875 99.9492 0.65918 95.401 0.65918 89.8095V85.5511C0.65918 84.8227 1.24928 84.2339 1.97637 84.2339H44.1303C44.8574 84.2339 45.4475 84.8227 45.4475 85.5511V89.3143H74.4177V85.5511C74.4177 84.8227 75.0065 84.2339 75.7349 84.2339H117.889C118.617 84.2339 119.206 84.8227 119.206 85.5511V89.8095C119.206 95.401 114.658 99.9492 109.066 99.9492ZM3.29355 86.8669V89.8082C3.29355 93.9468 6.66029 97.3136 10.7989 97.3136H109.066C113.205 97.3136 116.572 93.9455 116.572 89.8082V86.8669H77.0521V90.6301C77.0521 91.3586 76.4633 91.9473 75.7349 91.9473H44.1303C43.4032 91.9473 42.8131 91.3586 42.8131 90.6301V86.8669H3.29355Z" fill="#0075FF"/>
<path id="Vector_2" d="M111.19 86.8668C110.461 86.8668 109.872 86.2781 109.872 85.5497V24.2464C109.872 23.3112 109.112 22.5499 108.177 22.5499H11.6893C10.7541 22.5499 9.99277 23.3112 9.99277 24.2464V85.5497C9.99277 86.2781 9.40267 86.8668 8.67559 86.8668C7.9485 86.8668 7.3584 86.2781 7.3584 85.5497V24.2464C7.3584 21.8584 9.30125 19.9155 11.6893 19.9155H108.177C110.565 19.9155 112.507 21.8584 112.507 24.2464V85.5497C112.507 86.2781 111.918 86.8668 111.19 86.8668Z" fill="#0075FF"/>
<path id="Vector_3" d="M104.058 80.2812H15.8064C15.0794 80.2812 14.4893 79.6924 14.4893 78.964V31.1369C14.4893 28.8819 16.3241 27.0483 18.5778 27.0483H101.285C103.54 27.0483 105.374 28.8832 105.374 31.1369V78.964C105.375 79.6924 104.786 80.2812 104.058 80.2812ZM17.1236 77.6468H102.741V31.1369C102.741 30.3347 102.089 29.6827 101.287 29.6827H18.5778C17.7756 29.6827 17.1236 30.336 17.1236 31.1369V77.6468Z" fill="#0075FF"/>
<path id="Vector_4" d="M56.1271 62.6122C52.5483 62.6122 48.9682 61.2502 46.2442 58.525C43.6046 55.8853 42.1504 52.375 42.1504 48.6421C42.1504 44.9092 43.6046 41.3989 46.2442 38.7593C51.6934 33.3088 60.5634 33.3101 66.0099 38.7593C71.4591 44.2085 71.4591 53.0758 66.0099 58.525C63.286 61.2502 59.7072 62.6122 56.1271 62.6122ZM56.1271 37.3051C53.2227 37.3051 50.3183 38.4102 48.1067 40.6218C45.965 42.7635 44.7848 45.6126 44.7848 48.6421C44.7848 51.6717 45.965 54.5194 48.1067 56.6625C52.5285 61.0843 59.7256 61.0843 64.1474 56.6625C68.5692 52.2407 68.5692 45.0449 64.1474 40.6218C61.9359 38.4115 59.0315 37.3051 56.1271 37.3051Z" fill="#0075FF"/>
<path id="Vector_5" d="M76.3978 70.2297C76.0606 70.2297 75.7234 70.1006 75.4666 69.8437L64.148 58.5251C63.633 58.0101 63.633 57.1777 64.148 56.6626C64.663 56.1476 65.4955 56.1476 66.0105 56.6626L77.3291 67.9812C77.8441 68.4962 77.8441 69.3287 77.3291 69.8437C77.0722 70.1019 76.735 70.2297 76.3978 70.2297Z" fill="#0075FF"/>
<path id="Vector_6" d="M51.2761 54.8103C50.9389 54.8103 50.6017 54.6812 50.3448 54.4243C48.7998 52.8806 47.9502 50.8271 47.9502 48.6419C47.9502 46.4567 48.8011 44.4045 50.3448 42.8594C50.8599 42.3444 51.6923 42.3444 52.2073 42.8594C52.7224 43.3744 52.7224 44.2069 52.2073 44.7219C51.1602 45.7691 50.5846 47.1613 50.5846 48.6419C50.5846 50.1224 51.1615 51.5147 52.2073 52.5618C52.7224 53.0755 52.7224 53.9093 52.2073 54.4243C51.9505 54.6812 51.6133 54.8103 51.2761 54.8103Z" fill="#0075FF"/>
</g>
</g>
</svg>
