<svg width="26" height="26" viewBox="0 0 26 26" fill="none" xmlns="http://www.w3.org/2000/svg">
<g id="Group 3047">
<path id="Vector" d="M13 25C6.38331 25 1 19.6167 1 13C1 6.38331 6.38331 1 13 1C19.6167 1 25 6.38331 25 13C25 19.6167 19.6167 25 13 25ZM13 2.02135C6.94632 2.02135 2.02135 6.94632 2.02135 13C2.02135 19.0537 6.94677 23.9786 13 23.9786C19.0532 23.9786 23.9786 19.0537 23.9786 13C23.9786 6.94632 19.0532 2.02135 13 2.02135Z" fill="#0078FF" stroke="#0078FF"/>
<path id="Vector_2" d="M9.51069 17.8085C9.38011 17.8085 9.24935 17.7586 9.14961 17.6589C8.95013 17.4595 8.95013 17.1362 9.14961 16.9367L12.4469 13.6394L12.4467 6.51068C12.4467 6.22872 12.6753 6 12.9574 6C13.2394 6 13.4681 6.22856 13.4681 6.51068V13.851C13.4681 13.9863 13.4142 14.1162 13.3185 14.2121L9.87158 17.6588C9.77184 17.7585 9.64126 17.8084 9.51068 17.8084L9.51069 17.8085Z" fill="#0078FF" stroke="#0078FF"/>
</g>
</svg>
