<svg width="108" height="108" viewBox="0 0 108 108" fill="none" xmlns="http://www.w3.org/2000/svg">
<g id="Group 3055">
<path id="Vector" d="M103.043 0.000305571H4.95663C3.64243 -0.0143921 2.37702 0.501656 1.44458 1.43253C0.512836 2.36339 -0.00796052 3.63075 0.000184744 4.94934V14.6164C-0.0112078 15.9457 0.504713 17.2252 1.43481 18.1717C2.36491 19.1188 3.63195 19.6553 4.95665 19.6627H5.24065V79.1667C5.22682 81.1501 6.00395 83.0575 7.39862 84.4628C8.79338 85.8689 10.6903 86.656 12.6668 86.6512H52.6327V95.5222L39.6755 105.536C39.3858 105.758 39.1954 106.085 39.1474 106.448C39.0994 106.809 39.1978 107.176 39.42 107.465C39.6421 107.755 39.9701 107.943 40.3306 107.989C40.6919 108.035 41.0564 107.934 41.3437 107.71L53.8957 98.0094L66.5584 107.714V107.713C67.1581 108.173 68.0166 108.058 68.4747 107.456C68.6945 107.167 68.7913 106.802 68.7433 106.441C68.6953 106.08 68.5057 105.754 68.2176 105.533L55.3669 95.684V86.6514H95.2307C97.2179 86.6603 99.1277 85.8773 100.54 84.4736C101.951 83.07 102.75 81.1617 102.759 79.1669V19.6628H103.043C104.368 19.6555 105.635 19.119 106.565 18.1718C107.495 17.2255 108.011 15.946 108 14.6166V4.94951C108.008 3.63079 107.487 2.36353 106.555 1.4327C105.623 0.501842 104.358 -0.0143896 103.043 0.000305571ZM100.025 79.1683C100.016 80.4355 99.507 81.6464 98.607 82.5356C97.7078 83.4248 96.493 83.9189 95.2308 83.909H54.3482C54.2368 83.909 54.1204 83.8633 53.9991 83.8633C53.8779 83.8633 53.7615 83.909 53.65 83.909H12.6654C11.4139 83.9148 10.212 83.4159 9.32982 82.525C8.44772 81.6333 7.95867 80.424 7.97331 79.1681V19.6641H100.025L100.025 79.1683ZM105.266 14.6328C105.266 15.2395 105.026 15.8209 104.599 16.2495C104.171 16.6782 103.592 16.9191 102.987 16.9191H5.01298C3.75492 16.9191 2.73439 15.8952 2.73439 14.6327V5.03001C2.73439 3.76762 3.75482 2.74358 5.01298 2.74358H102.987C103.592 2.74358 104.171 2.98445 104.599 3.41314C105.026 3.84183 105.266 4.4232 105.266 5.02991V14.6328Z" fill="white"/>
<path id="Vector_2" d="M18.8498 41.0508L28.5412 44.9502V69.6864C28.5517 70.2728 28.9113 70.7921 29.4463 70.992C43.977 76.5695 59.9696 76.5695 74.5001 70.992C75.0327 70.7904 75.3899 70.2712 75.3971 69.6864V44.9502L83.2815 41.789V66.213C81.6016 66.6833 80.2516 67.9699 79.6644 69.6588C79.0771 71.3476 79.3273 73.2264 80.3354 74.6888C81.3427 76.152 82.9807 77.0147 84.7201 76.9998C86.4603 76.9849 88.0838 76.094 89.0677 74.6143C90.0515 73.1346 90.2713 71.2516 89.6574 69.5736C89.0427 67.8948 87.6718 66.6316 85.9847 66.1901V40.0269C85.9791 39.9755 85.971 39.9241 85.9598 39.8735C85.963 39.8295 85.9598 39.7864 85.9598 39.7416C85.9525 39.1609 85.5986 38.6458 85.07 38.4467L52.45 26.0859C52.1483 25.9714 51.8177 25.9714 51.5168 26.0859L18.8989 38.4467C18.3687 38.645 18.0115 39.1601 18.0002 39.7416C17.9898 40.3189 18.3285 40.8415 18.849 41.053L18.8498 41.0508ZM31.2445 68.7111V60.7663C44.6866 65.4571 59.2509 65.4571 72.6939 60.7663V68.7111C59.4031 73.6142 44.7616 73.6142 31.2445 68.7111ZM72.6939 57.8158C59.2871 62.7197 44.6504 62.7197 31.2445 57.8158V46.034L51.4672 54.138C51.6282 54.201 51.7979 54.2334 51.9701 54.2334C52.1439 54.2334 52.316 54.201 52.4786 54.138L72.6939 46.034L72.6939 57.8158ZM87.2761 71.5238C87.2761 72.6221 86.6341 73.6124 85.6493 74.0329C84.6654 74.4535 83.5318 74.2212 82.7786 73.4448C82.0248 72.6676 81.7995 71.4997 82.2074 70.4845C82.6153 69.4692 83.5759 68.8073 84.6411 68.8081C86.0957 68.8098 87.2744 70.0241 87.2761 71.5238ZM51.9828 28.8762L80.7801 39.7897L73.6415 42.6538C73.5691 42.6762 73.4991 42.7044 73.4315 42.7385L51.9829 51.3451L30.5342 42.7385C30.4666 42.7044 30.395 42.6762 30.3234 42.6547L23.1848 39.7905L51.9828 28.8762Z" fill="white"/>
</g>
</svg>
