<svg width="73" height="88" viewBox="0 0 73 88" fill="none" xmlns="http://www.w3.org/2000/svg">
<g id="Group 3050">
<path id="Vector" d="M61.7315 0H11.2743C5.05566 0 0 5.05639 0 11.2714V76.4854C0 82.7004 5.05639 87.7568 11.2743 87.7568H61.7315C67.9465 87.7568 73 82.7004 73 76.4854L72.9993 11.2714C72.9993 5.05639 67.9465 0 61.7315 0ZM69.7789 76.4835C69.7789 80.9246 66.1689 84.5345 61.7308 84.5345H11.2736C6.83258 84.5345 3.21966 80.9246 3.21966 76.4835V11.2696C3.21966 6.82853 6.83332 3.21856 11.2736 3.21856H61.7308C66.1681 3.21856 69.7789 6.82853 69.7789 11.2696V76.4835Z" fill="white"/>
<path id="Vector_2" d="M46.4964 46.4152C43.437 44.2091 40.5738 42.7441 38.0494 41.4523C34.272 39.5171 31.2866 37.9904 28.8324 34.8022C27.9756 33.6909 27.6406 32.0649 27.9116 30.3389C28.2466 28.1717 29.4506 26.2358 31.1995 25.0253C36.5585 21.3312 44.2004 24.2331 49.0275 28.5029C49.6874 29.0888 50.7053 29.0313 51.3011 28.3613C51.8905 27.695 51.8259 26.68 51.1595 26.0877C47.6653 23.0024 42.867 20.5713 38.1104 20.1948V14.6395C38.1104 13.751 37.3887 13.0293 36.5002 13.0293C35.6117 13.0293 34.89 13.751 34.89 14.6395V20.2594C32.9578 20.5232 31.0837 21.1903 29.3701 22.3719C26.89 24.0821 25.1994 26.8065 24.7264 29.84C24.321 32.4356 24.8875 34.9574 26.2755 36.7609C29.1739 40.5254 32.7745 42.3679 36.5808 44.3159C39.122 45.617 41.7493 46.9635 44.6125 49.0273C47.6266 51.1982 49.0693 53.9736 48.6768 56.8525C48.2678 59.8248 45.9459 62.4271 42.6162 63.6477C39.9593 64.6268 32.7969 66.0019 23.7281 57.851C23.0682 57.2551 22.0503 57.3097 21.4545 57.9732C20.8586 58.6331 20.9132 59.651 21.5767 60.2468C26.5683 64.7294 31.1316 66.6488 34.8897 67.3123V73.112C34.8897 74.0005 35.6114 74.7222 36.4999 74.7222C37.3883 74.7222 38.1101 74.0005 38.1101 73.112V67.6121C38.1259 67.6121 38.1489 67.615 38.1647 67.615C40.6317 67.615 42.5409 67.1061 43.7264 66.6747C48.1803 65.0423 51.3008 61.4481 51.8672 57.2903C52.4214 53.2361 50.4633 49.2717 46.496 46.4149L46.4964 46.4152Z" fill="white"/>
</g>
</svg>
