<svg width="67" height="86" viewBox="0 0 67 86" fill="none" xmlns="http://www.w3.org/2000/svg">
<path id="Vector" d="M65.0294 3.90895H59.1173V21.5003C59.1161 26.0672 57.771 30.5339 55.2471 34.3533C52.7225 38.1721 49.1293 41.1776 44.9078 43C49.1295 44.8224 52.7227 47.8279 55.2471 51.6467C57.771 55.4661 59.1161 59.9329 59.1173 64.4997V82.091H65.0294C66.1175 82.091 67 82.9657 67 84.0455C67 85.1247 66.1176 86 65.0294 86H1.97056C0.882501 86 0 85.1248 0 84.0455C0 82.9657 0.882423 82.091 1.97056 82.091H7.88271V64.4997C7.88392 59.9329 9.22903 55.4661 11.7529 51.6467C14.2775 47.8279 17.8707 44.8224 22.0922 43C17.8705 41.1776 14.2773 38.1721 11.7529 34.3533C9.22898 30.5339 7.88395 26.0672 7.88271 21.5003V3.90895H1.97056C0.882501 3.90895 0 3.03433 0 1.95448C0 0.875299 0.882423 0 1.97056 0H65.0294C66.1175 0 67 0.875222 67 1.95448C67 3.03425 66.1176 3.90895 65.0294 3.90895ZM11.8226 64.4997V82.091H55.1759V64.4997C55.1759 59.3161 53.0996 54.3443 49.4041 50.6791C45.7087 47.0138 40.696 44.9545 35.4698 44.9545H31.5288C26.3026 44.9545 21.2899 47.0138 17.5945 50.6791C13.8991 54.3443 11.8227 59.3161 11.8227 64.4997H11.8226ZM55.1759 3.90895H11.8226V21.5003C11.8226 26.6839 13.8989 31.6557 17.5943 35.3209C21.2897 38.9862 26.3024 41.0455 31.5287 41.0455H35.4696C40.6959 41.0455 45.7086 38.9862 49.404 35.3209C53.0994 31.6557 55.1757 26.6839 55.1757 21.5003L55.1759 3.90895Z" fill="white"/>
</svg>
