<svg width="102" height="100" viewBox="0 0 102 100" fill="none" xmlns="http://www.w3.org/2000/svg">
<path id="Vector" d="M68.2877 16.0081C68.5579 15.7418 68.7081 15.3781 68.7081 14.9997C68.7081 14.6216 68.5576 14.258 68.2875 13.991C68.0191 13.7256 67.6551 13.5781 67.2769 13.5835H62.878V11.5048C62.8923 11.091 62.7266 10.691 62.4212 10.4109C62.1156 10.1289 61.7005 9.9964 61.2884 10.0488C60.5623 10.1406 60.0268 10.7727 60.0526 11.505V13.5882C56.6142 13.7167 54.2387 16.4898 54.2387 19.6668C54.2387 23.1252 57.4024 25.7501 61.465 25.7501C62.9481 25.7501 64.0504 26.1413 64.7768 26.7351C65.5002 27.3265 65.8665 28.1305 65.8665 29.0003C65.8665 29.9756 65.5839 30.7832 65.0534 31.3452C64.5251 31.9048 63.7241 32.2496 62.628 32.2496H55.6525C55.2754 32.2451 54.9117 32.3924 54.6432 32.6576C54.3731 32.9237 54.2215 33.2875 54.2215 33.6666C54.2215 34.0457 54.3731 34.4095 54.6432 34.6756C54.9117 34.9409 55.2755 35.0881 55.6526 35.0836H60.0524V37.1649C60.0471 37.5439 60.1939 37.9075 60.4579 38.1773L60.4585 38.178C60.7243 38.4475 61.0868 38.6 61.4647 38.6C61.8433 38.6 62.2061 38.4476 62.4712 38.1776C62.7367 37.9073 62.8823 37.5433 62.8778 37.165V35.0789C66.3155 34.9504 68.6917 32.1773 68.6917 29.0003C68.6917 25.5419 65.528 22.9162 61.4646 22.917C59.982 22.917 58.8799 22.5258 58.1536 21.932C57.4302 21.3406 57.0639 20.5366 57.0639 19.6668C57.0639 18.691 57.3464 17.8832 57.8768 17.3211C58.4049 16.7614 59.2059 16.4167 60.3025 16.4167H67.2773C67.6547 16.4211 68.0188 16.2749 68.2877 16.0081ZM68.2877 16.0081C68.2875 16.0083 68.2874 16.0085 68.2872 16.0087L68.1117 15.8305L68.2878 16.008C68.2878 16.008 68.2878 16.0081 68.2877 16.0081ZM2.17497 52.0835C2.08979 52.0758 2.00439 52.0762 1.91966 52.0848L1.57146 52.1201L1.5993 52.1806C1.08507 52.4045 0.741116 52.9216 0.750174 53.5022V95.4998C0.750174 96.2819 1.38226 96.916 2.16329 96.916H18.4418C19.2229 96.916 19.855 96.2819 19.855 95.4998V86.543C21.0882 87.428 22.2579 88.3098 23.4037 89.1736C26.0352 91.1575 28.5408 93.0464 31.4002 94.6605L31.5167 94.454L31.4002 94.6605C36.242 97.3922 42.0841 99.2492 50.9999 99.25C60.2317 99.25 71.4001 94.1532 80.3368 89.1556C89.1519 84.2262 95.7813 79.3028 95.9841 79.1523L95.9884 79.1491L96.0035 79.1379L96.0168 79.1246L96.0359 79.1054C97.7635 77.9472 99.0649 77.0063 99.9683 75.7387L99.9684 75.7385C100.893 74.4387 101.25 72.9113 101.25 70.9996C101.25 69.4718 100.63 68.1717 99.7211 67.2847C98.8199 66.4043 97.6812 65.8802 96.6039 65.5475C94.5395 64.9101 92.4583 64.9147 91.7784 64.9161C91.7488 64.9162 91.7219 64.9163 91.6977 64.9163C89.1133 64.9163 86.1441 66.1903 83.7023 67.3848C81.8947 68.2689 80.584 69.0132 79.9876 69.3649C79.2418 66.1792 76.5094 63.7502 73.0928 63.7502H51.5344C48.3646 60.8128 43.8845 59.0826 38.4799 58.0759C33.0968 57.0733 26.7697 56.784 19.8547 56.751V53.4997C19.8547 52.7176 19.2227 52.0835 18.4416 52.0835H2.17497ZM19.855 59.6214C26.8164 59.6659 33.0607 60.0255 38.2049 61.0032C43.4149 61.9934 47.4602 63.6114 49.9859 66.1432C50.2498 66.4213 50.6154 66.5807 50.9989 66.5837H51.0008H73.0937C75.552 66.5837 77.4952 68.5323 77.4952 70.9999C77.4952 73.4684 75.5519 75.4169 73.0937 75.4169H39.3749C38.9966 75.4115 38.6327 75.559 38.3642 75.8244L38.3639 75.8247C38.0953 76.0913 37.9436 76.4537 37.9436 76.8331C37.9436 77.212 38.095 77.5754 38.3639 77.8414C38.6328 78.1083 38.9969 78.2545 39.3744 78.2501H73.0937C76.5881 78.2501 79.3876 75.6981 80.0559 72.4033C80.3227 72.4088 80.5874 72.3385 80.8186 72.1982L80.8186 72.1982L80.8233 72.1952L80.8235 72.1951L80.8244 72.1945L80.8281 72.1921L80.8434 72.1825L80.904 72.1443C80.9576 72.1108 81.0369 72.0615 81.1395 71.9987C81.3447 71.8731 81.6428 71.6936 82.0134 71.4787C82.7547 71.0486 83.7849 70.4773 84.9409 69.9118C86.0947 69.3475 87.3873 68.8051 88.5945 68.4044C89.8077 68.0017 90.9123 67.7497 91.6985 67.7497C92.282 67.7497 94.1789 67.7511 95.8039 68.2498C96.6084 68.4974 97.2898 68.8828 97.7375 69.319C97.9629 69.5395 98.1316 69.7602 98.2458 70.0194C98.3598 70.2785 98.4255 70.5901 98.4255 70.9998C98.4255 72.5916 98.1993 73.3592 97.6721 74.0994L97.6721 74.0995C97.134 74.8557 96.1177 75.6545 94.3934 76.8076L94.3728 76.8214L94.3553 76.8389C94.3482 76.8461 94.3397 76.8546 94.3307 76.8638L94.329 76.8651L94.272 76.9069C94.2215 76.944 94.1462 76.999 94.0471 77.0709C93.8488 77.2146 93.5555 77.4257 93.176 77.6944C92.4168 78.2319 91.3128 78.9999 89.9341 79.9216C87.1765 81.7651 83.3215 84.2223 78.9314 86.6775C74.5409 89.1328 69.6099 91.5692 64.7467 93.3912C59.8802 95.2145 55.0984 96.4161 51.0013 96.4161C42.4746 96.4161 37.2707 94.7367 32.8106 92.2198C30.6554 91.0035 28.6515 89.5613 26.5527 87.9902C26.1323 87.6754 25.7079 87.3555 25.2779 87.0312C23.5951 85.7622 21.8248 84.4273 19.8564 83.0812L19.855 59.6214ZM61.4649 0.75C48.4962 0.75 37.9592 11.3233 37.9592 24.3332C37.9592 37.343 48.4962 47.9163 61.4649 47.9163C74.4345 47.9163 84.9706 37.343 84.9706 24.3332C84.9706 11.3233 74.4345 0.75 61.4649 0.75ZM61.4649 3.58311C72.8995 3.58311 82.145 12.8591 82.145 24.3329C82.145 35.8076 72.8995 45.0828 61.4649 45.0828C50.0312 45.0828 40.7848 35.8076 40.7848 24.3329C40.7848 12.8591 50.0303 3.58311 61.4649 3.58311ZM3.57557 54.9171H17.0296V58.0495C17.0272 58.0913 17.0272 58.1331 17.0296 58.1749V83.8256C17.0263 83.8792 17.0264 83.9332 17.0296 83.9871V94.0831H3.57557V54.9171Z" fill="white" stroke="white" stroke-width="0.5"/>
</svg>
