<svg width="98" height="107" viewBox="0 0 98 107" fill="none" xmlns="http://www.w3.org/2000/svg">
<path d="M93.082 69.3445L79.3349 55.5974V55.5965C79.3187 55.5794 79.3007 55.5632 79.2818 55.5488C79.2665 55.5308 79.2512 55.511 79.2341 55.493L74.661 50.9199C74.0172 50.277 73.5508 49.4775 73.3068 48.6007L67.6345 16.9672C67.5445 16.4621 67.1816 16.0488 66.6918 15.8949C66.202 15.7418 65.6681 15.8733 65.3052 16.2361L47.6579 33.8835C45.1063 31.989 41.7982 31.4416 38.772 32.4122C35.7458 33.3837 33.3742 35.7544 32.4017 38.7797C31.4284 41.805 31.975 45.1138 33.8676 47.6665L16.2202 65.3139C15.8574 65.6758 15.7259 66.2107 15.879 66.6996C16.033 67.1894 16.4462 67.5531 16.9513 67.6432L48.5986 73.3155C49.4756 73.5595 50.2742 74.0259 50.9179 74.6688L55.4937 79.2372L55.554 79.2903L55.5973 79.3381L57.9292 81.67L36.1698 93.2218C35.156 93.7584 34.4573 94.7453 34.2871 95.8806C34.1169 97.0151 34.496 98.164 35.3081 98.9744L41.311 104.977C41.8566 105.527 42.5661 105.887 43.3323 106.001C44.0994 106.116 44.8828 105.981 45.5661 105.615L69.2843 93.0247L69.3446 93.085H69.3455C73.5855 97.3257 79.7666 98.9816 85.5587 97.4294C91.3518 95.878 95.8763 91.3537 97.4275 85.5606C98.9798 79.7685 97.3239 73.5874 93.0831 69.3474L93.082 69.3445ZM44.2742 103.186C43.941 103.362 43.5323 103.299 43.2658 103.032L37.2629 97.0321H37.2638C37.0684 96.8394 36.9775 96.5648 37.018 96.2938C37.0585 96.0228 37.2251 95.7869 37.4673 95.6581L59.9355 83.7308L67.2141 91.0113L44.2742 103.186ZM34.6366 41.7379C34.6357 40.0136 35.2624 38.3489 36.3996 37.0532C37.5368 35.7576 39.1061 34.9193 40.8159 34.6959C42.5248 34.4726 44.2572 34.8787 45.6888 35.8385L35.8369 45.6904C35.0518 44.5217 34.6339 43.145 34.6366 41.7379ZM49.2589 70.6284C49.2238 70.6284 49.186 70.6104 49.1482 70.6059L20.0387 65.3872L65.3798 20.0345L70.5985 49.144C70.6039 49.1819 70.6129 49.2188 70.6237 49.2548C70.9856 50.6216 71.7033 51.8686 72.7036 52.8681L76.4042 56.5687L56.5688 76.4122L52.8681 72.7116C51.8651 71.7103 50.6154 70.9919 49.2449 70.629L49.2589 70.6284ZM91.1357 91.1318C88.5039 93.7627 84.9348 95.2411 81.2135 95.2411C77.4921 95.2411 73.924 93.7627 71.2922 91.1318L58.5203 78.36L78.3638 58.5165L91.1357 71.2883C93.7629 73.9229 95.2378 77.491 95.2369 81.2105C95.2369 84.931 93.7612 88.4991 91.1329 91.1318H91.1357Z" fill="white"/>
<path d="M46.978 16.9224C46.7412 16.953 23.1999 20.2528 16.9442 46.8409C16.8595 47.1966 16.9208 47.5711 17.1134 47.8817C17.3061 48.1924 17.6141 48.4139 17.9697 48.4976C18.0732 48.5219 18.1786 48.5345 18.2848 48.5354C18.9241 48.5345 19.4787 48.0933 19.6237 47.4712C25.4221 22.7895 46.4375 19.7723 47.3272 19.6547C48.0817 19.5575 48.6156 18.8678 48.5184 18.1133C48.422 17.3579 47.7314 16.8249 46.9769 16.9221L46.978 16.9224Z" fill="white"/>
<path d="M47.4505 2.74301C48.1915 2.63226 48.7092 1.94977 48.6147 1.20515C48.5201 0.46143 47.8485 -0.0706962 47.102 0.00764986C46.7266 0.056271 9.85598 5.22634 0.0367976 46.9669C-0.136977 47.707 0.321323 48.448 1.06143 48.6218C1.80153 48.7955 2.54256 48.3372 2.71633 47.5971C12.0874 7.7649 47.0986 2.78846 47.4513 2.74236L47.4505 2.74301Z" fill="white"/>
</svg>
