<svg width="114" height="102" viewBox="0 0 114 102" fill="none" xmlns="http://www.w3.org/2000/svg">
<g id="Group 3052">
<path id="Vector" d="M111.186 33.7773H94.2967C93.5192 33.7773 92.8896 34.4079 92.8896 35.1854V99.9252C92.8896 100.703 93.5192 101.332 94.2967 101.332H111.186C111.963 101.332 112.593 100.703 112.593 99.9252V35.1854C112.593 34.4078 111.963 33.7773 111.186 33.7773ZM109.779 36.5925V98.5191H95.7038V36.5925H109.779Z" fill="white"/>
<path id="Vector_2" d="M80.2234 50.6665H63.3345C62.557 50.6665 61.9265 51.297 61.9265 52.0745V99.9255C61.9265 100.703 62.557 101.333 63.3345 101.333H80.2234C81 101.333 81.6305 100.703 81.6305 99.9255V52.0745C81.6305 51.297 81 50.6665 80.2234 50.6665ZM78.8154 53.4816V98.5194H64.7416V53.4816H78.8154Z" fill="white"/>
<path id="Vector_3" d="M49.2591 64.7422H32.3702C31.5936 64.7422 30.9631 65.3718 30.9631 66.1493V99.927C30.9631 100.705 31.5936 101.334 32.3702 101.334H49.2591C50.0366 101.334 50.6671 100.705 50.6671 99.927V66.1493C50.6671 65.3717 50.0366 64.7422 49.2591 64.7422ZM47.852 67.5564V98.5209H33.7783V67.5564H47.852Z" fill="white"/>
<path id="Vector_4" d="M18.2969 75.9995H1.40806C0.630521 75.9995 0.000976562 76.63 0.000976562 77.4075V99.9257C0.000976562 100.703 0.630545 101.333 1.40806 101.333H18.2969C19.0745 101.333 19.704 100.703 19.704 99.9257V77.4075C19.704 76.63 19.0744 75.9995 18.2969 75.9995ZM16.8898 78.8146V98.5186H2.81514V78.8146H16.8898Z" fill="white"/>
<path id="Vector_5" d="M109.96 0.715527C110.343 0.0388389 111.201 -0.199608 111.878 0.183045C112.555 0.564734 112.793 1.42332 112.41 2.1C103.513 17.8428 84.9684 32.9439 63.9031 44.0351L61.3642 45.347L58.8027 46.6193C39.5219 56.0051 18.6579 61.9256 1.40708 61.9256C0.629545 61.9256 0 61.2951 0 60.5186C0 59.741 0.629569 59.1105 1.40708 59.1105C38.3937 59.1105 92.8699 30.9496 109.959 0.71367L109.96 0.715527Z" fill="white"/>
<path id="Vector_6" d="M111.048 0.0105599C111.734 -0.0733199 112.366 0.350797 112.564 0.987893L112.617 1.23669L113.989 12.4113C114.084 13.1832 113.535 13.8853 112.763 13.9796C112.078 14.0644 111.447 13.6403 111.249 13.0032L111.195 12.7544L109.993 2.97357L100.216 4.17709C99.5303 4.26097 98.8999 3.83685 98.701 3.19976L98.6482 2.9519C98.5634 2.26578 98.9875 1.63435 99.6246 1.43644L99.8734 1.38272L111.048 0.0105599Z" fill="white"/>
</g>
</svg>
