<svg width="109" height="104" viewBox="0 0 109 104" fill="none" xmlns="http://www.w3.org/2000/svg">
<g clip-path="url(#clip0_115_65541)">
<path d="M52.877 103.302L39.2205 88.873H16.4425C7.37705 88.8706 0 81.4757 0 72.3836V16.4871C0 7.38092 7.36303 0 16.4471 0H92.5528C101.637 0 109.002 7.38326 109.002 16.4894V72.3859C109.002 81.478 101.623 88.8753 92.5528 88.8753H69.7795L56.123 103.305C55.2403 104.232 53.7597 104.232 52.877 103.302ZM16.4448 2.7576C8.89729 2.7576 2.75559 8.91656 2.75559 16.4848V72.3836C2.75559 79.9541 8.89729 86.113 16.4448 86.113H39.447C40.0612 86.113 40.6473 86.3659 41.07 86.8106L52.8817 99.2924C53.7644 100.224 55.2449 100.224 56.1253 99.2924L67.937 86.8106C68.3597 86.3635 68.9458 86.113 69.56 86.113H90.3203C99.1196 86.113 106.251 78.9639 106.251 70.1433V16.4871C106.251 8.9189 100.107 2.75994 92.5552 2.75994H16.4448V2.7576ZM54.5 68.9962C46.427 68.9962 36.5513 67.1914 33.0437 62.1257C31.8294 60.3723 31.5679 58.3849 32.2848 56.3834C33.791 52.1744 39.4213 48.5553 44.8741 46.4953C40.9999 43.5107 38.7044 38.8873 38.7441 33.8497C38.8141 25.097 46.1071 17.9993 54.8363 18.1772C63.3809 18.3505 70.2793 25.3732 70.2793 33.9808C70.2793 38.9716 67.986 43.5458 64.1399 46.5047C69.588 48.567 75.2066 52.1838 76.7129 56.3857C77.4298 58.3872 77.1682 60.3723 75.9539 62.1257C72.451 67.1937 62.5729 68.9962 54.5 68.9962ZM54.5163 20.9348C47.3401 20.9348 41.502 26.7871 41.502 33.9808C41.502 38.9506 44.2599 43.424 48.7016 45.6526C49.8248 46.2168 49.6684 47.8718 48.4587 48.2136C41.9153 50.0606 36.0772 53.9746 34.8793 57.3151C34.4636 58.4738 34.606 59.5319 35.3089 60.5502C37.6629 63.9492 45.3762 66.234 54.5023 66.234C63.6285 66.234 71.3441 63.9516 73.6981 60.5502C74.4033 59.5343 74.5411 58.4738 74.1277 57.3151C72.9321 53.9792 67.101 50.0676 60.5623 48.2182H60.56C59.3503 47.8765 59.1938 46.2214 60.3194 45.6573H60.3218C64.7704 43.4311 67.533 38.9576 67.533 33.9784C67.5307 26.7895 61.6926 20.9372 54.5163 20.9348Z" fill="white"/>
</g>
<defs>
<clipPath id="clip0_115_65541">
<rect width="109" height="104" fill="white"/>
</clipPath>
</defs>
</svg>
