<svg width="118" height="102" viewBox="0 0 118 102" fill="none" xmlns="http://www.w3.org/2000/svg">
<path d="M9.36042 85.2228L3.46093 100.842C3.11189 101.767 2.07972 102.233 1.1563 101.883C0.232181 101.533 -0.233438 100.501 0.116314 99.577L6.45293 82.8011C6.71595 82.1046 7.38133 81.6442 8.12489 81.6442H19.1277C24.2154 81.6442 28.342 77.4501 28.342 72.2428V62.4636C28.342 61.4753 29.1424 60.6742 30.1298 60.6742H35.6341C35.8004 60.6742 33.4112 54.4993 28.4664 42.1489C28.3839 41.9404 28.3419 41.7177 28.3419 41.4936V40.092C28.3419 24.7505 16.6212 12.5272 1.78893 12.5272C0.801533 12.5272 0.00110236 11.726 0.00110236 10.7378C0.00110236 9.74884 0.801533 8.94772 1.78893 8.94772C18.6308 8.94772 31.9179 22.8059 31.9179 40.0916V41.1531L39.0252 59.2147C40.0489 61.8151 38.4224 64.2519 35.6343 64.2519H31.9179V72.2418C31.9179 79.4135 26.2026 85.2221 19.128 85.2221L9.36042 85.2228ZM114.539 100.842L108.639 85.2228H98.872C91.7974 85.2228 86.0821 79.4143 86.0821 72.2426V64.2527H82.3657C79.5777 64.2527 77.9511 61.8159 78.9748 59.2155L86.0821 41.1539V40.0924C86.0821 22.8063 99.3704 8.94849 116.211 8.94849C117.198 8.94849 117.999 9.74961 117.999 10.7386C117.999 11.7268 117.198 12.5279 116.211 12.5279C101.378 12.5279 89.6581 24.7511 89.6581 40.0928V41.4944C89.6581 41.7185 89.6161 41.9412 89.5336 42.1497C84.5888 54.4996 82.1996 60.675 82.3659 60.675H87.8702C88.8576 60.675 89.658 61.4761 89.658 62.4643V72.2435C89.658 77.4509 93.7846 81.645 98.8723 81.645H109.875C110.619 81.645 111.284 82.1053 111.547 82.8019L117.884 99.5777C118.233 100.502 117.768 101.534 116.844 101.884C115.92 102.234 114.889 101.767 114.539 100.842ZM70.2517 3.05542C69.5536 2.35604 69.5536 1.22328 70.2517 0.524601C70.9497 -0.174775 72.0822 -0.174775 72.7803 0.524601L78.1439 5.89277C78.8426 6.59143 78.8426 7.7249 78.1439 8.42358L72.7803 13.7918C72.0822 14.4904 70.9497 14.4904 70.2517 13.7918C69.5536 13.0931 69.5536 11.9596 70.2517 11.2609L74.3512 7.1579L70.2517 3.05542ZM47.7496 11.2609C48.4476 11.9596 48.4476 13.0931 47.7496 13.7918C47.0515 14.4904 45.919 14.4904 45.2209 13.7918L39.8574 8.42358C39.1586 7.72492 39.1586 6.59145 39.8574 5.89277L45.2209 0.524601C45.919 -0.174775 47.0515 -0.174775 47.7496 0.524601C48.4476 1.22327 48.4476 2.356 47.7496 3.05542L43.6501 7.15772L47.7496 11.2609ZM59.0921 1.22419C59.4042 0.286473 60.4172 -0.220109 61.3535 0.0922403C62.2904 0.404571 62.7965 1.41843 62.4844 2.35549L58.9089 13.0924C58.5968 14.0301 57.5838 14.5367 56.6475 14.2243C55.7106 13.9113 55.2045 12.8981 55.5166 11.9604L59.0921 1.22419Z" fill="white"/>
</svg>
