<svg width="102" height="97" viewBox="0 0 102 97" fill="none" xmlns="http://www.w3.org/2000/svg">
<path id="Vector" d="M99.8264 34.8816L68.1285 29.7674L53.2551 1.27895C52.5204 -0.426316 49.8417 -0.426316 48.8671 1.27895L33.9937 29.7687L2.05292 35.1255C-0.135992 35.6741 -0.48976 37.6427 0.590216 39.2647L23.2652 62.1533L18.3891 94.0502C17.9163 95.9423 20.362 97.6849 21.8026 96.7304L51.0613 82.12L80.0771 96.4838C81.0091 97.4231 84.0637 96.0813 83.4889 93.8054L78.6128 61.905L101.288 39.0198C102.543 38.1859 102.189 35.47 99.8267 34.8807L99.8264 34.8816ZM74.4693 59.4751C73.9846 59.9625 73.738 60.6929 73.738 61.4249L77.8828 90.1543L52.0377 77.2493C51.7043 76.913 50.4219 76.913 50.0868 77.2493L24.2399 90.1543L28.3848 61.6658C28.3848 60.9355 28.1416 60.2051 27.6534 59.7177L7.41583 39.2648L35.9435 34.3954C36.6749 34.1526 37.4062 33.908 37.6511 33.1776L51.062 7.36801L64.4729 32.935C64.7161 33.6654 65.4475 34.1528 66.1805 34.1528L94.7082 39.0222L74.4693 59.4751Z" fill="white"/>
</svg>
