<svg width="119" height="125" viewBox="0 0 119 125" fill="none" xmlns="http://www.w3.org/2000/svg">
<path fill-rule="evenodd" clip-rule="evenodd" d="M16.2201 98.5435C12.1842 98.5435 8.92212 101.892 8.92212 105.899C8.92212 109.946 12.2038 113.254 16.2201 113.254C20.2365 113.254 23.5202 109.946 23.5202 105.899C23.5202 101.892 20.2561 98.5435 16.2201 98.5435ZM16.2201 101.755C18.5106 101.755 20.3319 103.644 20.3319 105.898C20.3319 108.224 18.5303 110.04 16.2201 110.04C13.911 110.04 12.1104 108.224 12.1104 105.898C12.1104 103.644 13.9298 101.755 16.2201 101.755Z" fill="white"/>
<path fill-rule="evenodd" clip-rule="evenodd" d="M66.0889 0.00574946C64.6512 -0.0257206 63.0728 0.0716405 61.3075 0.306679C60.5414 0.40404 59.9071 1.13474 59.913 1.91263L59.8638 14.663L45.0699 49.6024H37.1001C36.2652 49.6024 35.506 50.3675 35.506 51.2083V110.493C35.506 110.854 35.6299 111.215 35.8541 111.497C35.8541 111.497 36.9379 112.886 38.4445 114.258C39.9511 115.63 41.8581 117.175 44.2722 117.22C56.93 117.449 91.7266 117.271 91.7442 117.271C96.9594 117.27 100.83 116.211 103.549 114.409C106.271 112.606 107.814 110 108.033 107.381C108.292 104.282 106.78 101.286 104.147 99.2994C106.105 98.7556 107.735 97.9846 109.029 96.9903C111.617 95.0008 112.789 92.2157 112.815 89.5103C112.84 86.7575 111.771 84.0226 109.975 82.0302C112.573 81.6742 114.675 80.4429 116.102 78.717C117.818 76.641 118.603 73.9198 118.394 71.237C118.091 67.3621 115.63 63.4679 111.32 61.5983C111.936 61.1076 112.524 60.553 113.014 59.9422C114.769 57.7531 115.771 54.9503 115.953 52.1112C116.135 49.2721 115.489 46.363 113.761 44.0796C112.034 41.796 109.187 40.2805 105.492 40.2649H105.443H77.1498C78.503 35.632 80.641 31.165 81.2842 27.1124C81.8241 24.0185 82.5135 19.8154 82.132 15.5166C81.7484 11.2002 80.231 6.71479 76.3042 3.61889C72.8002 0.750084 69.2569 0.109102 66.0913 0.00487359L66.0889 0.00574946ZM65.0436 3.16836C69.3245 3.00216 71.61 4.01511 74.3086 6.13058C77.3828 8.55574 78.6041 11.9898 78.9405 15.7692C79.2768 19.5497 78.6759 23.562 78.1439 26.6125C77.0365 32.2349 74.806 37.0823 73.4606 41.371C73.1499 42.3249 73.9583 43.4667 74.9555 43.4795H105.441C108.323 43.4933 110.07 44.521 111.22 46.0394C112.368 47.5588 112.905 49.7007 112.764 51.9125C112.622 54.1252 111.793 56.3508 110.522 57.9361C109.252 59.5214 107.643 60.4577 105.54 60.4458H91.6415C90.7997 60.4321 90.0248 61.2031 90.0248 62.0518C90.0248 62.9005 90.7997 63.6705 91.6415 63.6577H105.539C112.092 63.7295 114.904 67.6575 115.203 71.4887C115.353 73.4094 114.782 75.3006 113.659 76.6586C112.536 78.0177 110.853 78.9304 108.329 78.9176H92.6879C91.8461 78.9039 91.0711 79.6749 91.0711 80.5236C91.0711 81.3723 91.8451 82.1423 92.6879 82.1295H103.797C106.949 82.5013 109.656 86.0318 109.625 89.458C109.607 91.2853 108.932 93.0073 107.084 94.4273C105.241 95.8424 102.133 96.9291 97.2707 96.937H88.5034C87.6616 96.9232 86.8866 97.6943 86.8866 98.543C86.8866 99.3917 87.6606 100.162 88.5034 100.149H97.2206C102.38 100.345 105.111 103.91 104.842 107.126C104.708 108.74 103.837 110.397 101.803 111.745C99.7696 113.092 96.5194 114.054 91.7408 114.054C91.7408 114.054 56.8468 114.23 44.3192 114.003C43.5698 113.989 41.8724 113.018 40.5831 111.844C39.6527 110.996 39.0332 110.293 38.69 109.886V52.8095H46.1118C46.7304 52.7967 47.3234 52.3846 47.5565 51.8054L62.9494 15.6123C63.0202 15.4205 63.0546 15.215 63.0487 15.0095L63.0979 3.31342C63.7676 3.23671 64.46 3.20426 65.0432 3.16296L65.0436 3.16836Z" fill="white"/>
<path fill-rule="evenodd" clip-rule="evenodd" d="M8.31489 42.7637C3.71724 42.7637 0 46.5834 0 51.1997V115.688C0 120.304 3.73411 124.068 8.31489 124.068H23.9034C28.5 124.068 32.2764 120.278 32.2764 115.688V51.1997C32.2764 46.5668 28.5 42.7637 23.9034 42.7637H8.31489ZM8.31489 45.9756H23.9034C26.7614 45.9756 29.0871 48.3192 29.0871 51.1997V115.688C29.0871 118.498 26.7613 120.855 23.9034 120.855H8.31489C5.44029 120.855 3.1893 118.584 3.1893 115.688V51.1997C3.1893 48.3034 5.45711 45.9756 8.31489 45.9756Z" fill="white"/>
</svg>
