<svg width="984" height="988" viewBox="0 0 984 988" fill="none" xmlns="http://www.w3.org/2000/svg">
<path d="M702.333 493.22C747.399 598.4 698.685 720.208 593.538 765.259C540.965 787.785 484.219 786.855 435.005 767.156C410.398 757.306 387.671 742.756 368.256 724.104C348.872 705.439 338.598 676.919 317.787 661.695C296.119 645.845 278.93 624.33 268.266 599.871C255.847 571.314 251.856 537.823 257.291 504.042C270.151 424.749 333.821 347.791 423.247 320.058C464.568 307.278 505.503 307.228 540.316 317.409C570.43 326.222 596.371 342.959 615.13 364.023C631.291 382.195 637.445 407.961 655.628 425.45C674.995 444.159 691.067 466.925 702.333 493.22Z" stroke="#0075FF" stroke-miterlimit="10"/>
<path d="M710.7 500.659C754.692 604.535 706.807 724.591 603.008 769.102C550.896 791.504 494.624 790.738 445.712 771.313C421.021 761.61 398.108 747.139 378.56 728.435C358.923 709.694 348.37 681.036 327.554 665.373C305.913 649.072 288.896 627.188 278.49 602.472C266.319 573.808 262.63 540.335 268.295 506.749C281.226 428.308 344.342 352.286 432.81 324.89C473.852 312.229 514.499 311.936 549.21 321.792C580.365 329.865 607.69 347.001 626.786 369.28C643.342 388.716 648.241 416.269 665.174 433.669C683.645 452.689 699.73 474.714 710.7 500.659Z" stroke="#0075FF" stroke-miterlimit="10"/>
<path d="M717.098 510.19C760.004 612.731 712.961 731.067 610.51 775.037C558.872 797.345 503.048 796.682 454.482 777.55C429.676 768.006 406.625 753.558 386.895 734.857C367.036 716.029 356.173 687.246 335.384 671.131C313.77 654.377 296.895 632.138 286.746 607.165C274.854 578.382 271.435 544.94 277.331 511.549C290.316 434.004 352.864 358.886 440.418 331.845C481.15 319.316 521.54 318.766 556.131 328.343C588.346 335.631 617.019 353.256 636.514 376.723C653.482 397.379 657.069 426.67 672.791 444.074C690.22 463.32 706.394 484.609 717.098 510.19Z" stroke="#0075FF" stroke-miterlimit="10"/>
<path d="M721.833 521.242C763.653 622.448 717.422 739.077 616.349 782.492C565.172 804.677 509.81 804.147 461.603 785.338C436.712 775.941 413.506 761.559 393.599 742.788C373.488 723.883 362.345 694.963 341.569 678.365C319.995 661.189 303.266 638.521 293.387 613.321C281.744 584.432 278.595 551.021 284.74 517.781C297.809 441.119 359.802 366.936 446.417 340.187C486.882 327.81 527.002 326.971 561.461 336.238C594.748 342.772 624.755 360.854 644.605 385.492C661.986 407.367 664.216 438.379 678.786 455.836C695.164 475.458 711.427 496.011 721.833 521.242Z" stroke="#0075FF" stroke-miterlimit="10"/>
<path d="M725.327 533.34C766.047 633.18 720.658 748.089 620.947 790.995C570.231 813.055 515.343 812.689 467.469 794.143C442.494 784.891 419.133 770.576 399.061 751.765C378.728 732.772 367.276 703.727 346.495 686.69C324.916 669.075 308.392 646.025 298.739 620.582C287.375 591.573 284.497 558.194 290.903 525.135C304.042 449.324 365.451 376.091 451.152 349.696C491.307 337.452 531.17 336.356 565.54 345.33C599.869 351.124 631.229 369.618 651.447 395.458C669.239 418.553 670.073 451.192 683.517 468.764C698.791 488.639 715.187 508.473 725.327 533.34Z" stroke="#0075FF" stroke-miterlimit="10"/>
<path d="M727.93 545.931C767.533 644.449 723.017 757.623 624.685 799.975C574.444 821.943 520.003 821.679 472.443 803.438C447.353 794.347 423.837 780.098 403.601 761.247C383.047 742.165 371.284 712.996 350.516 695.475C328.964 677.409 312.581 654.004 303.204 628.259C292.088 599.144 289.525 565.813 296.148 532.919C309.372 457.99 370.182 385.675 454.97 359.635C494.846 347.51 534.451 346.157 568.657 354.833C604.046 359.843 636.753 378.825 657.37 405.854C675.575 430.168 674.924 464.399 687.33 482.122C701.469 502.262 718.087 521.414 727.93 545.931Z" stroke="#0075FF" stroke-miterlimit="10"/>
<path d="M730 558.565C768.517 655.748 724.844 767.202 627.846 808.983C578.066 830.826 524.1 830.726 476.873 812.748C451.698 803.802 428.027 789.62 407.627 770.729C386.82 751.571 374.764 722.234 354.037 704.292C332.511 685.773 316.301 662 307.15 636.012C296.313 606.777 294.02 573.477 300.874 540.778C314.169 466.701 374.425 395.321 458.255 369.618C497.821 357.626 537.169 356.015 571.273 364.368C607.704 368.638 641.777 388.064 662.748 416.263C681.334 441.81 682.838 475.669 690.628 495.479C707.264 513.044 720.423 534.412 730 558.565Z" stroke="#0075FF" stroke-miterlimit="10"/>
<path d="M731.907 570.645C769.338 666.494 726.476 776.241 630.857 817.467C581.551 839.217 528.033 839.219 481.151 821.533C455.893 812.734 432.066 798.619 411.503 779.688C390.474 760.442 378.108 730.98 357.376 712.599C335.877 693.628 319.84 669.487 310.945 643.241C300.357 613.9 298.335 580.631 305.437 548.083C318.816 474.888 378.473 404.426 461.377 379.046C500.676 367.205 539.723 365.32 573.707 373.393C611.211 376.909 646.618 396.792 667.976 426.149C686.974 452.916 687.702 488.135 693.746 508.327C709.938 525.714 722.627 546.843 731.907 570.645Z" stroke="#0075FF" stroke-miterlimit="10"/>
<path d="M732.333 582.441C768.677 676.954 726.658 784.981 632.387 825.667C583.573 847.28 530.485 847.428 483.949 830.035C458.62 821.413 434.58 807.315 413.866 788.375C392.571 769.023 379.97 739.441 359.22 720.59C337.761 701.198 321.839 676.64 313.215 650.168C302.907 620.707 301.155 587.47 308.487 555.116C321.919 482.818 381.009 413.26 463 388.235C501.989 376.527 540.81 374.371 574.66 382.134C613.224 384.865 649.966 405.205 671.691 435.764C691.102 463.75 691.054 500.331 695.364 520.935C711.131 538.1 723.306 558.972 732.333 582.441Z" stroke="#0075FF" stroke-miterlimit="10"/>
<path d="M733.335 592.668C768.58 685.815 727.403 792.121 634.493 832.297C586.14 853.786 533.526 854.098 487.305 837.011C461.861 828.549 437.697 814.504 416.819 795.525C395.302 776.083 382.391 746.378 361.668 727.074C340.204 707.243 324.486 682.304 316.12 655.575C306.059 626.007 304.622 592.819 312.172 560.629C325.675 489.182 384.211 420.56 465.274 395.859C503.984 384.27 542.517 381.87 576.279 389.341C615.884 391.331 653.992 412.115 676.085 443.876C695.909 473.082 695.085 511.024 697.648 532.009C712.882 548.961 724.618 569.58 733.335 592.668Z" stroke="#0075FF" stroke-miterlimit="10"/>
<path d="M735.273 600.877C769.4 692.702 729.097 797.274 637.565 836.896C589.687 858.292 537.521 858.707 491.646 841.912C466.117 833.597 441.798 819.618 420.743 800.567C399.004 781.037 385.783 751.208 365.042 731.434C343.605 711.15 328.06 685.843 319.906 658.839C310.125 629.152 308.958 595.995 316.738 564.001C330.326 493.436 388.263 425.732 468.4 401.354C506.8 389.898 545.075 387.241 578.704 394.401C619.383 395.638 658.856 416.866 681.304 449.797C701.539 480.222 699.94 519.526 700.756 540.892C715.573 557.729 726.809 578.121 735.273 600.877Z" stroke="#0075FF" stroke-miterlimit="10"/>
<path d="M738.514 606.469C771.542 696.928 732.063 799.825 641.91 838.893C594.493 860.164 542.801 860.743 497.259 844.211C471.646 836.041 447.172 822.129 425.921 803.052C403.93 783.446 390.429 753.479 369.715 733.253C348.304 712.517 332.932 686.842 325.035 659.581C315.503 629.787 314.606 596.661 322.635 564.818C336.307 495.136 393.659 428.38 472.883 404.357C511.016 393.052 549.021 390.107 582.517 396.956C624.255 397.408 665.063 419.093 687.879 453.226C708.496 484.885 706.151 525.536 705.221 547.283C719.595 563.942 730.316 584.078 738.514 606.469Z" stroke="#0075FF" stroke-miterlimit="10"/>
<path d="M743.431 609.029C775.373 698.153 736.736 799.329 647.918 837.825C600.962 858.973 549.731 859.685 504.535 843.445C478.806 835.435 454.177 821.59 432.793 802.459C410.58 782.765 396.756 752.642 376.081 731.995C354.711 710.838 339.467 684.777 331.828 657.259C322.574 627.345 321.948 594.25 330.208 562.602C343.95 493.771 400.748 427.952 479.014 404.265C516.837 393.093 554.585 389.89 587.993 396.447C630.773 396.159 672.946 418.287 696.117 453.592C717.159 486.501 714.026 528.482 711.392 550.628C725.266 567.061 735.516 586.957 743.431 609.029Z" stroke="#0075FF" stroke-miterlimit="10"/>
<path d="M749.824 608.348C780.635 696.119 742.885 795.592 655.415 833.547C608.933 854.602 558.164 855.447 513.269 839.482C487.456 831.619 462.659 817.809 441.124 798.669C418.658 778.9 404.554 748.639 383.862 727.522C362.487 705.926 347.435 679.453 340.065 651.708C331.06 621.689 330.736 588.611 339.225 557.158C353.053 489.21 409.252 424.308 486.591 400.945C524.135 389.893 561.626 386.433 594.869 392.693C638.722 391.651 682.23 414.236 705.8 450.729C727.255 484.857 723.345 528.2 718.965 550.727C732.395 566.983 742.176 586.639 749.824 608.348Z" stroke="#0075FF" stroke-miterlimit="10"/>
<path d="M755.176 607.12C784.887 693.525 747.979 791.278 661.87 828.724C615.85 849.654 565.541 850.633 520.992 834.961C495.095 827.244 470.142 813.5 448.413 794.334C425.726 774.475 411.311 744.091 390.646 722.521C369.297 700.473 354.417 673.631 347.305 645.63C338.579 615.491 338.539 582.475 347.277 551.173C361.175 484.076 416.789 420.124 493.215 397.115C530.448 386.196 567.682 382.479 600.837 388.446C645.718 386.632 690.591 409.661 714.529 447.356C736.397 482.704 731.711 527.408 725.584 550.316C738.544 566.332 747.855 585.748 755.176 607.12Z" stroke="#0075FF" stroke-miterlimit="10"/>
<path d="M760.234 605.467C788.846 690.506 752.763 786.583 668.033 823.475C622.487 844.312 572.626 845.393 528.436 830.044C502.455 822.474 477.347 808.797 455.453 789.59C432.544 769.643 417.82 739.135 397.167 717.082C375.846 694.58 361.108 667.385 354.239 639.095C345.762 608.849 346.023 575.852 354.978 544.714C368.929 478.513 424.007 415.451 499.506 392.766C536.46 381.967 573.406 378.005 606.427 383.662C652.382 381.095 698.589 404.581 722.913 443.433C745.162 480.014 739.732 526.066 731.858 549.355C744.352 565.313 753.18 584.459 760.234 605.467Z" stroke="#0075FF" stroke-miterlimit="10"/>
<path d="M764.965 603.477C792.446 687.163 757.25 781.537 673.898 817.875C628.813 838.588 579.427 839.833 535.539 824.76C509.442 817.348 484.179 803.738 462.139 784.447C438.977 764.425 423.973 733.779 403.317 711.287C382.035 688.364 367.457 660.769 360.845 632.223C352.647 601.857 353.147 568.904 362.364 537.948C376.386 472.598 430.879 410.486 505.465 388.155C542.122 377.52 578.828 373.257 611.717 378.603C658.744 375.282 706.286 399.226 730.965 439.248C753.626 477.049 747.406 524.431 737.799 548.132C749.85 563.913 758.163 582.802 764.965 603.477Z" stroke="#0075FF" stroke-miterlimit="10"/>
<path d="M769.323 601.132C795.705 683.452 761.364 776.137 679.36 811.934C634.768 832.51 585.811 833.901 542.269 819.12C516.088 811.855 490.67 798.311 468.435 778.994C445.051 758.883 429.768 728.099 409.107 705.168C387.852 681.794 373.446 653.831 367.061 625.04C359.111 594.568 359.913 561.633 369.36 530.872C383.467 466.405 437.391 405.197 511.02 383.203C547.398 372.687 583.816 368.18 616.616 373.234C664.671 369.142 713.579 393.529 738.639 434.784C761.712 473.805 754.717 522.548 743.376 546.661C754.975 562.158 762.819 580.807 769.323 601.132Z" stroke="#0075FF" stroke-miterlimit="10"/>
<path d="M773.353 598.45C798.635 679.404 765.15 770.399 684.481 805.624C640.363 826.107 591.868 827.631 548.657 813.113C522.392 805.994 496.819 792.516 474.42 773.159C450.784 752.973 435.221 722.051 414.573 698.637C393.314 674.823 379.068 646.461 372.984 617.431C365.313 586.84 366.386 553.935 376.064 523.37C390.254 459.785 443.581 399.495 516.296 377.856C552.363 367.473 588.524 362.709 621.191 367.452C670.32 362.606 720.562 387.45 746.008 429.863C769.493 470.103 761.722 520.208 748.635 544.702C759.772 560.066 767.101 578.457 773.353 598.45Z" stroke="#0075FF" stroke-miterlimit="10"/>
<path d="M777.038 595.475C801.207 675.032 768.546 764.351 689.269 799.053C645.612 819.412 597.578 821.07 554.714 806.843C528.333 799.885 502.623 786.429 480.073 767.063C456.215 746.788 440.329 715.711 419.69 691.889C398.457 667.623 384.384 638.893 378.526 609.619C371.104 578.921 372.491 546.065 382.373 515.633C396.634 452.9 449.375 393.558 521.164 372.243C556.952 361.98 592.855 356.958 625.403 361.422C675.605 355.822 727.212 381.11 752.982 424.708C776.88 466.167 768.333 517.633 753.529 542.495C764.21 557.65 771.07 575.802 777.038 595.475Z" stroke="#0075FF" stroke-miterlimit="10"/>
<path d="M780.301 592.203C803.339 670.407 771.565 758.024 693.636 792.185C650.44 812.42 602.867 814.21 560.317 800.29C533.866 793.509 507.956 780.102 485.242 760.696C461.163 740.332 444.966 709.131 424.34 684.825C403.134 660.107 389.234 631.009 383.633 601.478C376.49 570.66 378.117 537.849 388.26 507.599C402.606 445.748 454.793 387.342 525.624 366.363C561.115 356.264 596.748 350.955 629.193 355.094C680.424 348.724 733.41 374.486 759.565 419.241C783.845 461.933 774.553 514.747 758.003 539.99C768.254 554.999 774.63 572.88 780.301 592.203Z" stroke="#0075FF" stroke-miterlimit="10"/>
<path d="M783.244 588.7C805.17 665.507 774.265 751.465 697.715 785.073C654.993 805.214 607.882 807.138 565.678 793.511C539.142 786.876 513.077 773.535 490.199 754.089C465.867 733.65 449.391 702.312 428.761 677.567C407.594 652.427 393.822 622.943 388.466 593.124C381.571 562.2 383.499 529.407 393.873 499.351C408.259 438.365 459.892 380.895 529.827 360.227C565.039 350.247 600.415 344.68 632.696 348.523C684.999 341.399 739.307 367.587 765.843 413.575C790.535 457.487 780.467 511.662 762.17 537.286C771.934 552.099 777.826 569.71 783.244 588.7Z" stroke="#0075FF" stroke-miterlimit="10"/>
<path d="M785.794 584.962C806.607 660.372 776.571 744.672 701.368 777.739C659.107 797.756 612.457 799.813 570.599 786.479C543.979 779.99 517.758 766.716 494.716 747.23C470.163 726.702 453.376 695.239 432.773 670.042C411.602 644.464 398.034 614.598 392.935 584.522C386.319 553.478 388.518 520.716 399.122 490.856C413.592 430.752 464.627 374.2 533.635 353.855C568.537 344.009 603.655 338.184 635.848 341.734C689.224 333.856 744.867 360.502 771.758 407.66C796.875 452.823 786.018 508.328 765.988 534.364C775.25 548.951 780.628 566.305 785.794 584.962Z" stroke="#0075FF" stroke-miterlimit="10"/>
<path d="M787.931 581.034C807.631 655.047 778.433 737.701 704.609 770.214C662.823 790.139 616.633 792.329 575.108 779.256C548.373 772.926 521.997 759.719 498.778 740.162C473.971 719.558 456.905 687.958 436.315 662.278C415.171 636.247 401.763 605.983 396.903 575.693C390.536 544.544 393.049 511.83 403.857 482.103C418.412 422.882 468.878 367.234 536.943 347.257C571.565 337.53 606.409 331.493 638.455 334.702C692.86 326.052 749.881 353.173 777.158 401.489C802.687 447.871 791.055 504.737 769.277 531.154C778.154 545.613 783.049 562.696 787.931 581.034Z" stroke="#0075FF" stroke-miterlimit="10"/>
<path d="M789.655 576.914C808.242 649.53 779.9 730.495 707.424 762.467C666.099 782.268 620.371 784.591 579.16 771.824C552.341 765.641 525.81 752.5 502.426 732.904C477.385 712.18 460.022 680.487 439.427 654.367C418.309 627.884 405.043 597.265 400.472 566.705C394.384 535.436 397.136 502.767 408.237 473.208C422.863 414.839 472.744 360.139 539.882 340.486C574.207 330.923 608.811 324.585 640.738 327.514C696.216 318.11 754.558 345.657 782.203 395.175C808.145 442.777 795.737 501.005 772.212 527.802C780.645 542.083 785.07 558.927 789.655 576.914Z" stroke="#0075FF" stroke-miterlimit="10"/>
<path d="M790.981 572.635C808.455 643.854 780.982 723.161 709.854 754.592C668.99 774.269 623.722 776.725 582.857 764.251C555.954 758.214 529.254 745.109 505.72 725.503C480.457 704.691 462.815 672.86 442.216 646.301C421.138 619.397 408.032 588.379 403.686 557.575C397.846 526.199 400.9 493.548 412.232 464.185C426.942 406.698 476.225 352.916 542.449 333.617C576.495 324.174 610.811 317.592 642.635 320.197C699.155 310.053 758.863 338.044 786.907 388.75C813.23 437.585 800.077 497.161 774.837 524.326C782.738 538.394 786.649 554.98 790.981 572.635Z" stroke="#0075FF" stroke-miterlimit="10"/>
<path d="M791.89 568.241C808.238 638.031 781.647 715.711 711.866 746.601C671.477 766.185 626.67 768.774 586.151 756.593C559.133 750.716 532.309 737.664 508.58 718.031C483.064 697.144 465.129 665.144 444.557 638.134C423.505 610.777 410.572 579.39 406.47 548.299C400.91 516.803 404.234 484.183 415.796 455.015C430.577 398.379 479.306 345.533 544.573 326.571C578.308 317.261 612.367 310.421 644.058 312.716C701.638 301.788 762.694 330.266 791.092 382.143C817.828 432.198 803.899 493.135 776.925 520.712C784.414 534.59 787.828 550.874 791.89 568.241Z" stroke="#0075FF" stroke-miterlimit="10"/>
<path d="M792.382 563.731C807.617 632.124 781.864 708.159 713.493 738.482C673.596 757.928 629.22 760.664 589.046 748.775C561.943 743.044 534.934 730.072 511.071 710.387C485.334 689.41 467.089 657.287 446.512 629.837C425.456 602.041 412.695 570.286 408.851 538.938C403.539 507.336 407.165 474.733 418.944 445.729C433.778 389.989 481.939 338.048 546.324 319.428C579.78 310.237 613.582 303.14 645.153 305.155C703.806 293.473 766.183 322.378 794.949 375.457C822.097 426.731 807.379 488.998 778.672 516.988C785.673 530.67 788.604 546.684 792.382 563.731Z" stroke="#0075FF" stroke-miterlimit="10"/>
<path d="M792.426 559.119C806.535 626.084 781.664 700.492 714.642 730.274C675.205 749.596 631.303 752.496 591.431 740.882C564.244 735.298 537.079 722.392 513.022 702.68C487.032 681.628 468.507 649.367 447.944 621.434C426.914 593.185 414.313 561.032 410.739 529.457C405.706 497.735 409.585 465.208 421.613 436.355C436.531 381.498 484.107 330.506 547.552 312.177C580.711 303.151 614.242 295.765 645.712 297.457C705.406 285.035 769.18 314.37 798.301 368.619C825.861 421.113 810.367 484.742 779.913 513.112C786.453 526.661 788.901 542.404 792.426 559.119Z" stroke="#0075FF" stroke-miterlimit="10"/>
<path d="M792.04 554.361C805.023 619.898 781.021 692.647 715.36 721.919C676.397 741.148 632.944 744.15 593.418 732.829C566.146 727.391 538.826 714.552 514.605 694.8C488.393 673.659 469.558 641.274 449.021 612.888C428.018 584.188 415.59 551.666 412.273 519.834C407.488 488.006 411.669 455.497 423.927 426.839C438.916 372.833 485.938 322.776 548.438 304.816C581.318 295.909 614.592 288.267 645.911 289.692C706.678 276.516 771.787 306.308 801.276 361.76C829.249 415.473 812.979 480.463 780.778 509.214C786.865 522.479 788.785 537.934 792.04 554.361Z" stroke="#0075FF" stroke-miterlimit="10"/>
<path d="M791.286 549.429C803.161 613.494 780.023 684.66 715.71 713.391C677.209 732.497 634.216 735.632 595.036 724.604C567.649 719.325 540.191 706.508 515.806 686.716C489.372 665.486 470.227 632.977 449.686 604.152C428.723 575.031 416.423 542.123 413.363 510.034C408.858 478.086 413.309 445.608 425.798 417.145C440.871 364.022 487.295 314.883 548.868 297.246C581.437 288.473 614.454 280.573 645.672 281.674C707.498 267.714 773.941 297.963 803.798 354.616C832.152 409.562 815.138 475.9 781.19 505.033C786.861 518.182 788.284 533.336 791.286 549.429Z" stroke="#0075FF" stroke-miterlimit="10"/>
<path d="M790.085 544.396C800.864 607.019 778.578 676.571 715.599 704.73C677.572 723.743 635.04 727.011 596.162 716.258C568.691 711.126 541.047 698.388 516.497 678.556C489.811 657.251 470.387 624.604 449.858 595.296C428.891 565.736 416.795 532.447 413.979 500.07C409.722 468.016 414.475 435.555 427.181 407.256C442.325 354.985 488.194 306.781 548.824 289.512C581.114 280.858 613.842 272.714 644.927 273.506C707.795 258.805 775.603 289.497 805.846 347.308C834.613 403.474 816.822 471.173 781.141 500.718C786.426 513.739 787.366 528.621 790.085 544.396Z" stroke="#0075FF" stroke-miterlimit="10"/>
<path d="M788.479 539.278C798.15 600.429 776.698 668.411 715.128 696.003C677.563 714.891 635.492 718.293 596.973 707.863C569.431 702.909 541.619 690.207 516.905 670.335C489.997 648.941 470.249 616.139 449.761 586.41C428.82 556.396 416.897 522.74 414.307 490.119C410.33 457.945 415.321 425.529 428.289 397.412C443.517 346.023 488.788 298.737 548.491 281.792C580.471 273.271 612.973 264.856 643.938 265.368C707.879 249.914 777.022 281.063 807.62 340.045C836.812 397.461 818.232 466.49 780.835 496.403C785.588 509.211 786.018 523.761 788.479 539.278Z" stroke="#0075FF" stroke-miterlimit="10"/>
<path d="M786.471 534.076C795.034 593.754 774.445 660.153 714.224 687.205C677.119 705.969 635.523 709.534 597.336 699.367C569.679 694.572 541.743 681.923 516.865 662.011C489.704 640.542 469.677 607.602 449.171 577.403C428.257 546.937 416.463 512.895 414.174 480.034C410.445 447.754 415.751 415.387 428.967 387.421C444.28 336.914 488.952 290.547 547.773 273.942C579.486 265.572 611.687 256.882 642.55 257.071C707.52 240.845 778.042 272.469 809.038 332.639C838.643 391.275 819.287 461.666 780.143 491.959C784.333 504.568 784.28 518.847 786.471 534.076Z" stroke="#0075FF" stroke-miterlimit="10"/>
<path d="M783.997 528.816C791.482 587.008 771.714 651.806 712.854 678.349C676.224 697.019 635.075 700.687 597.234 690.812C569.493 686.164 541.37 673.595 516.328 653.643C488.946 632.085 468.639 599.008 448.129 568.369C427.255 537.482 415.62 503.041 413.558 469.936C410.108 437.537 415.684 405.201 429.131 377.43C444.484 327.788 488.633 282.342 546.496 266.075C577.899 257.838 609.843 248.891 640.586 248.8C706.628 231.82 778.472 263.87 809.836 325.243C839.853 385.098 819.722 456.85 778.831 487.524C782.64 499.929 782.077 513.875 783.997 528.816Z" stroke="#0075FF" stroke-miterlimit="10"/>
<path d="M781.102 523.516C797.308 578.229 768.575 643.451 711.062 669.453C674.893 687.999 634.206 691.8 596.68 682.231C568.854 677.729 540.576 665.226 515.371 645.235C487.766 623.588 467.149 590.387 446.665 559.296C425.818 527.957 414.356 493.147 412.551 459.786C409.349 427.279 415.228 394.961 428.891 367.354C444.328 318.595 487.879 274.067 544.828 258.155C575.952 250.037 607.639 240.833 638.249 240.431C705.365 222.698 778.542 255.205 810.262 317.748C840.66 378.837 819.783 451.936 777.146 482.992C780.511 495.219 782.041 508.82 781.102 523.516Z" stroke="#0075FF" stroke-miterlimit="10"/>
<path d="M777.812 518.238C793.18 571.51 765.01 635.131 708.876 660.579C673.168 679.001 632.956 682.966 595.762 673.659C567.852 669.303 539.406 656.836 514.049 636.835C486.192 615.113 465.296 581.774 444.794 550.214C423.942 518.435 412.654 483.258 411.092 449.608C408.17 416.982 414.318 384.695 428.213 357.284C443.721 309.376 486.699 265.828 542.709 250.208C573.522 242.223 604.952 232.762 635.429 232.049C703.573 213.545 778.13 246.527 810.235 310.227C841.045 372.535 819.393 446.996 775.022 478.464C777.944 490.513 779.066 503.848 777.812 518.238Z" stroke="#0075FF" stroke-miterlimit="10"/>
<path d="M774.039 512.947C788.6 564.764 760.993 626.784 706.194 651.66C670.96 669.99 631.195 674.057 594.347 665.042C566.322 660.846 537.752 648.432 512.187 628.374C484.108 606.563 462.902 573.1 442.427 541.087C421.601 508.856 410.485 473.311 409.181 439.403C406.507 406.671 412.926 374.415 427.082 347.186C442.674 300.16 485.085 257.517 540.151 242.265C570.698 234.431 601.857 224.681 632.214 223.689C701.432 204.431 777.34 237.826 809.796 302.773C841.019 366.3 818.577 442.091 772.473 473.971C774.951 485.843 775.666 498.912 774.039 512.947Z" stroke="#0075FF" stroke-miterlimit="10"/>
<path d="M769.822 507.735C783.545 558.111 756.519 618.486 703.112 642.839C668.371 661.031 629.049 665.276 592.547 656.554C564.438 652.504 535.681 640.17 509.983 620.058C481.652 598.172 460.166 564.571 439.704 532.075C418.905 499.392 407.949 463.448 406.884 429.328C404.489 396.476 411.192 364.282 425.566 337.216C441.242 291.073 483.055 249.348 537.193 234.419C567.43 226.718 598.333 216.711 628.588 215.396C698.878 195.384 776.121 229.236 808.962 295.34C840.598 360.087 817.38 437.24 769.56 469.487C771.502 481.221 771.808 494.024 769.822 507.735Z" stroke="#0075FF" stroke-miterlimit="10"/>
<path d="M765.149 502.572C778.065 551.493 751.602 610.268 699.543 634.08C665.276 652.179 626.402 656.526 590.215 648.11C562.021 644.207 533.109 631.939 507.248 611.787C478.695 589.812 456.885 556.056 436.432 523.152C415.673 490.048 404.845 453.717 404.069 419.327C401.922 386.369 408.927 354.193 423.517 327.291C439.264 282 480.492 241.223 533.748 226.636C563.706 219.054 594.32 208.803 624.455 207.209C695.774 186.425 774.396 220.752 807.592 288.027C839.64 353.994 815.647 432.508 766.079 465.136C767.596 476.648 767.463 489.198 765.149 502.572Z" stroke="#0075FF" stroke-miterlimit="10"/>
<path d="M760.046 497.521C772.124 545 746.224 602.174 695.544 625.432C661.738 643.407 623.325 647.887 587.483 639.764C559.206 636.006 530.139 623.805 504.082 603.627C475.294 581.532 453.187 547.683 432.761 514.326C411.997 480.783 401.374 444.072 400.823 409.437C398.956 376.359 406.231 344.215 421.052 317.508C436.852 273.112 477.543 233.227 529.842 218.976C559.489 211.528 589.877 201.007 619.88 199.102C692.271 177.564 772.215 212.317 805.779 280.794C838.208 347.994 813.47 427.855 762.169 460.896C763.26 472.186 762.719 484.47 760.046 497.521Z" stroke="#0075FF" stroke-miterlimit="10"/>
<path d="M754.437 492.575C765.691 538.643 740.371 594.172 691.039 616.889C657.694 634.741 619.756 639.385 584.247 631.524C555.854 627.926 526.649 615.747 500.442 595.56C471.401 573.39 449.015 539.403 428.602 505.563C407.865 471.567 397.414 434.487 397.107 399.565C395.489 366.381 403.034 334.267 418.117 307.742C433.988 264.198 474.094 225.262 525.479 211.366C554.861 204.068 584.947 193.272 614.847 191.043C688.312 168.752 769.59 203.962 803.553 273.627C836.394 342.046 810.88 423.269 757.833 456.691C758.418 467.83 757.47 479.848 754.437 492.575Z" stroke="#0075FF" stroke-miterlimit="10"/>
<path d="M748.425 487.802C758.872 532.416 734.115 586.344 686.131 608.521C653.26 626.279 615.77 631.025 580.606 623.457C552.129 620.005 522.739 607.906 496.398 587.665C467.136 565.407 444.439 531.296 424.022 497.016C403.311 462.569 393.002 425.134 392.984 389.941C391.644 356.637 399.473 324.586 414.773 298.225C430.729 255.563 470.236 217.545 520.695 203.972C549.766 196.808 579.595 185.754 609.376 183.246C683.869 160.184 766.526 195.868 800.844 266.704C834.111 336.374 807.808 418.927 753.013 452.73C753.142 463.661 751.786 475.412 748.425 487.802Z" stroke="#0075FF" stroke-miterlimit="10"/>
<path d="M741.974 483.29C751.583 526.463 727.407 578.746 680.801 600.368C648.392 618.003 611.376 622.913 576.514 615.62C547.953 612.314 518.407 600.282 491.871 580.015C462.356 557.68 439.411 523.418 418.976 488.669C398.306 453.8 388.143 415.936 388.364 380.53C387.273 347.12 395.403 315.086 410.951 288.876C426.991 247.097 465.931 209.983 515.446 196.778C544.237 189.733 573.809 178.422 603.457 175.603C679.023 151.788 763.001 187.898 797.687 259.936C831.366 330.826 804.287 414.74 747.746 448.924C747.489 459.726 745.694 471.225 741.974 483.29Z" stroke="#0075FF" stroke-miterlimit="10"/>
<path d="M735.159 479.045C743.93 520.777 720.318 571.459 675.091 592.527C643.142 610.037 606.587 615.081 572.085 608.111C543.408 604.966 513.738 592.986 487.025 572.648C457.288 550.225 434.033 515.839 413.624 480.637C392.981 445.316 382.991 407.083 383.469 371.421C382.657 337.89 391.058 305.888 406.837 279.873C422.948 238.945 461.316 202.812 509.89 189.899C538.371 182.987 567.686 171.419 597.214 168.321C673.822 143.765 759.166 180.319 794.237 253.515C828.329 325.624 800.474 410.899 742.186 445.464C741.41 456.084 739.207 467.317 735.159 479.045Z" stroke="#0075FF" stroke-miterlimit="10"/>
<path d="M727.95 475.079C735.914 515.356 712.865 564.438 668.985 584.965C637.512 602.382 601.404 607.528 567.247 600.851C538.5 597.883 508.661 585.938 481.784 565.56C451.826 543.049 428.247 508.507 407.847 472.898C387.199 437.137 377.382 398.537 378.118 362.617C377.554 328.98 386.225 297.009 402.266 271.176C418.461 231.131 456.261 195.901 503.922 183.344C532.138 176.582 561.182 164.726 590.577 161.317C668.245 135.976 754.936 173.019 790.375 247.416C824.848 320.758 796.249 407.382 736.258 442.345C734.968 452.708 732.357 463.674 727.95 475.079Z" stroke="#0075FF" stroke-miterlimit="10"/>
<path d="M720.422 471.397C727.548 510.232 705.092 557.7 662.561 577.687C631.548 594.98 595.915 600.289 562.06 593.888C533.228 591.066 503.203 579.201 476.162 558.783C445.951 536.196 422.093 501.517 401.707 465.424C381.085 429.212 371.441 390.243 372.42 354.035C372.136 320.279 381.078 288.338 397.348 262.701C413.584 223.52 450.83 189.226 497.564 176.992C525.469 170.364 554.257 158.25 583.549 154.518C662.29 128.423 750.347 165.909 786.141 241.478C821.027 316.039 791.651 404.024 729.914 439.368C728.207 449.616 725.201 460.347 720.422 471.397Z" stroke="#0075FF" stroke-miterlimit="10"/>
<path d="M712.543 468.012C718.862 505.392 696.97 551.259 655.786 570.705C625.279 587.892 590.063 593.317 556.553 587.208C527.637 584.532 497.444 572.703 470.252 552.276C439.819 529.6 415.651 494.797 395.291 458.252C374.709 421.618 365.225 382.25 366.43 345.798C366.394 311.936 375.651 280.044 392.126 254.54C408.445 216.242 445.093 182.866 490.914 170.986C518.54 164.477 547.039 152.12 576.212 148.108C655.994 121.273 745.403 159.172 781.566 235.942C816.863 311.723 786.712 401.069 723.228 436.795C721.109 446.852 717.651 457.299 712.543 468.012Z" stroke="#0075FF" stroke-miterlimit="10"/>
<path d="M704.403 464.959C709.884 500.898 688.541 545.133 648.75 564.056C618.704 581.119 583.962 586.708 550.785 580.861C521.754 578.345 491.436 566.569 464.08 546.102C433.395 523.351 408.947 488.41 388.569 451.395C368.014 414.309 358.659 374.555 360.165 337.864C360.408 303.881 369.936 272.021 386.641 246.712C403.045 209.296 439.125 176.825 483.988 165.282C511.304 158.906 539.577 146.278 568.617 141.956C649.459 114.336 740.216 152.723 776.733 230.664C812.443 307.665 781.503 398.341 716.285 434.478C713.691 444.371 709.87 454.57 704.403 464.959Z" stroke="#0075FF" stroke-miterlimit="10"/>
<path d="M695.926 462.235C700.582 496.763 679.82 539.353 641.395 557.691C611.809 574.629 577.529 580.352 544.698 574.797C515.582 572.428 485.078 560.732 457.558 540.225C426.651 517.385 401.893 482.32 381.542 444.852C360.983 407.327 351.831 367.192 353.563 330.257C354.055 296.168 363.853 264.339 380.819 239.212C397.294 202.647 432.789 171.125 476.739 159.937C503.775 153.681 531.76 140.808 560.712 136.194C642.627 107.82 734.718 146.664 771.634 225.794C807.756 304.014 776.04 396.052 709.089 432.601C706.012 442.223 701.752 452.169 695.926 462.235Z" stroke="#0075FF" stroke-miterlimit="10"/>
<path d="M687.218 459.829C691.068 492.903 670.869 533.892 633.791 551.689C604.68 568.535 570.847 574.359 538.344 569.142C509.144 566.918 478.486 555.289 450.802 534.742C419.673 511.813 394.604 476.624 374.28 438.704C353.747 400.727 344.768 360.224 346.758 323.031C347.528 288.823 357.597 257.025 374.794 232.093C391.353 196.411 426.249 165.806 469.273 154.942C496.012 148.85 523.726 135.689 552.545 130.764C635.502 101.65 728.945 140.907 766.229 221.238C802.733 300.691 770.272 394.077 701.574 431.007C698.085 440.439 693.372 450.101 687.218 459.829Z" stroke="#0075FF" stroke-miterlimit="10"/>
<path d="M678.276 457.818C681.287 489.451 661.682 528.826 625.952 546.082C597.302 562.804 563.944 568.792 531.773 563.837C502.458 561.773 471.675 550.197 443.814 529.579C412.432 506.575 387.085 471.248 366.742 432.858C346.236 394.428 337.399 353.571 339.633 316.09C340.652 281.775 351.021 249.995 368.436 225.227C385.066 190.397 419.408 160.727 461.518 150.217C487.978 144.245 515.435 130.827 544.121 125.591C628.137 95.6931 722.929 135.438 760.599 216.927C797.515 297.599 764.278 392.346 693.864 429.644C689.896 438.987 684.789 448.414 678.276 457.818Z" stroke="#0075FF" stroke-miterlimit="10"/>
<path d="M669.103 456.127C671.276 486.318 652.234 524.092 617.883 540.795C589.694 557.392 556.797 563.514 524.972 558.851C495.573 556.933 464.621 545.393 436.578 524.779C404.975 501.686 379.335 466.191 359.001 427.393C338.535 388.542 329.857 347.285 332.348 309.547C333.646 275.113 344.3 243.394 361.932 218.791C378.615 184.856 412.403 156.123 453.573 145.905C479.723 140.066 506.923 126.391 535.488 120.875C620.547 90.2368 716.704 130.425 754.728 213.085C792.07 295.008 758.044 391.085 685.883 428.764C681.503 437.917 675.988 447.077 669.103 456.127Z" stroke="#0075FF" stroke-miterlimit="10"/>
<path d="M659.739 454.848C661.105 483.584 642.613 519.727 609.623 535.92C581.908 552.424 549.472 558.679 517.98 554.278C488.496 552.506 457.359 541.045 429.183 520.379C397.358 497.197 371.407 461.578 351.087 422.296C330.647 382.993 322.129 341.337 324.86 303.386C326.406 268.846 337.361 237.145 355.255 212.723C372.022 179.671 405.211 151.855 445.468 141.992C471.338 136.273 498.25 122.354 526.714 116.515C612.845 85.1225 710.324 125.737 748.73 209.629C786.484 292.772 751.651 390.224 677.774 428.271C672.875 437.241 666.939 446.104 659.739 454.848Z" stroke="#0075FF" stroke-miterlimit="10"/>
<path d="M650.215 453.968C650.743 481.263 632.846 515.791 601.234 531.43C573.981 547.81 542.006 554.198 510.829 550.103C481.261 548.478 449.968 537.084 421.597 516.391C389.519 493.133 363.289 457.376 342.964 417.656C322.52 377.914 314.175 335.89 317.194 297.669C319.02 263.008 330.214 231.352 348.369 207.112C365.207 174.911 397.843 148.031 437.142 138.505C462.715 132.949 489.387 118.729 517.731 112.611C604.922 80.4335 703.749 121.536 742.54 206.586C780.676 290.962 745.098 389.762 669.488 428.22C664.105 436.92 657.743 445.562 650.215 453.968Z" stroke="#0075FF" stroke-miterlimit="10"/>
<path d="M640.488 453.469C640.209 479.309 622.874 512.237 592.611 527.335C565.832 543.622 534.305 550.112 503.486 546.341C473.803 544.876 442.386 533.534 413.851 512.801C381.539 489.424 354.998 453.543 334.7 413.37C314.282 373.175 306.11 330.783 309.386 292.305C311.46 257.539 322.956 225.9 341.328 201.824C358.251 170.506 390.288 144.544 428.674 135.372C453.968 129.936 480.352 115.472 508.563 109.043C596.796 76.1256 697.018 117.658 736.134 203.893C774.681 289.488 738.328 389.649 660.971 428.489C655.158 437.042 648.419 445.404 640.488 453.469Z" stroke="#0075FF" stroke-miterlimit="10"/>
<path d="M632.72 455.144C631.603 479.543 614.832 510.869 585.934 525.382C559.616 541.545 528.563 548.2 498.077 544.69C468.31 543.371 436.738 532.096 408.039 511.323C375.473 487.871 348.667 451.883 328.382 411.227C308.004 370.611 299.992 327.82 303.48 289.067C305.834 254.18 317.6 222.573 336.203 198.692C353.21 168.257 384.648 143.212 422.108 134.364C447.091 129.061 473.249 114.326 501.327 107.587C590.633 73.9159 692.177 115.875 731.691 203.298C770.651 290.113 733.522 391.635 654.418 430.856C648.158 439.307 640.967 447.385 632.72 455.144Z" stroke="#0075FF" stroke-miterlimit="10"/>
<path d="M627.466 459.857C625.525 482.845 609.334 512.527 581.784 526.499C555.958 542.525 525.335 549.326 495.196 546.109C465.357 544.967 433.586 533.741 404.722 512.928C371.935 489.387 344.818 453.275 324.529 412.18C304.178 371.111 296.308 327.966 300.084 288.942C302.686 253.949 314.767 222.391 333.587 198.674C350.665 169.09 381.549 144.981 418.095 136.488C442.799 131.304 468.669 116.325 496.658 109.293C587.037 74.8688 689.916 117.285 729.798 205.909C769.17 293.944 731.265 396.827 650.445 436.416C643.671 444.61 636.085 452.453 627.466 459.857Z" stroke="#0075FF" stroke-miterlimit="10"/>
<path d="M624.354 467.253C621.606 488.787 605.965 516.837 579.775 530.299C554.424 546.232 524.263 553.166 494.424 550.224C464.471 549.242 432.562 538.038 403.534 517.185C370.525 493.555 343.098 457.319 322.822 415.74C302.511 374.251 294.814 330.737 298.816 291.469C301.697 256.357 314.018 224.843 333.1 201.308C350.262 172.607 380.547 149.416 416.167 141.246C440.574 136.226 466.173 120.959 494.029 113.617C585.437 78.4205 689.694 121.311 729.931 211.107C769.716 300.361 731.035 404.605 648.468 444.575C641.295 452.609 633.301 460.186 624.354 467.253Z" stroke="#0075FF" stroke-miterlimit="10"/>
<path d="M622.998 476.947C619.411 497.039 604.364 523.475 579.523 536.397C554.633 552.205 524.932 559.272 495.44 556.623C465.402 555.787 433.338 544.65 404.146 523.757C370.885 500.052 343.165 463.647 322.929 421.647C302.6 379.687 295.093 335.761 299.366 296.268C302.509 261.08 315.131 229.584 334.43 206.213C351.632 178.376 381.394 156.108 416.069 148.305C440.197 143.406 465.539 127.881 493.276 120.259C585.756 84.3096 691.348 127.657 731.971 218.61C772.137 309.097 732.698 414.659 648.411 455.072C640.736 462.879 632.304 470.204 622.998 476.947Z" stroke="#0075FF" stroke-miterlimit="10"/>
<path d="M623.056 488.57C618.631 507.221 604.147 532.056 580.716 544.41C556.287 560.095 527.047 567.295 497.901 564.938C467.779 564.249 435.559 553.178 406.173 532.259C372.689 508.465 344.659 471.936 324.419 429.497C304.117 387.085 296.751 342.804 301.282 303.053C304.69 267.715 317.583 236.249 337.112 213.074C354.398 186.12 383.576 164.8 417.311 157.29C441.128 152.523 466.213 136.742 493.817 128.809C587.37 92.1059 694.283 135.88 735.287 228.066C775.866 319.772 728.228 413.745 649.617 467.489C640.462 473.726 632.707 482.119 623.056 488.57Z" stroke="#0075FF" stroke-miterlimit="10"/>
<path d="M624.146 501.661C618.915 518.857 604.994 542.091 582.91 553.905C558.956 569.496 530.177 576.83 501.377 574.766C471.17 574.223 438.765 563.232 409.245 542.259C375.509 518.39 347.231 481.71 326.973 438.801C306.71 395.968 299.505 351.288 304.292 311.28C307.949 275.835 321.156 244.419 340.903 221.407C358.273 195.336 386.852 174.933 419.674 167.778C443.212 163.131 468.009 147.106 495.511 138.85C590.092 101.375 698.384 145.623 739.743 238.98C780.734 331.906 733.19 428.411 651.963 481.365C642.448 487.536 634.171 495.565 624.146 501.661Z" stroke="#0075FF" stroke-miterlimit="10"/>
<path d="M625.925 515.927C619.855 531.682 606.528 553.302 585.779 564.544C562.286 580.012 533.968 587.478 505.482 585.721C475.161 585.337 442.631 574.399 412.948 553.387C378.99 529.428 350.401 492.624 330.17 449.263C309.934 405.977 302.901 360.929 307.901 320.647C311.838 285.082 325.284 253.71 345.324 230.867C362.765 205.647 390.79 186.181 422.654 179.362C445.895 174.879 470.452 158.552 497.834 150.017C593.489 111.788 703.115 156.494 744.86 251.008C786.276 345.185 738.768 444.173 654.969 496.355C645.14 502.477 636.277 510.169 625.925 515.927Z" stroke="#0075FF" stroke-miterlimit="10"/>
<path d="M628.022 530.939C621.146 545.239 608.369 565.227 588.981 575.959C565.962 591.334 538.105 598.933 509.952 597.437C479.546 597.2 446.848 586.298 416.982 565.29C382.79 541.212 353.891 504.283 333.686 460.47C313.445 416.745 306.572 371.298 311.874 330.776C316.059 295.105 329.807 263.751 350.063 241.072C367.589 216.734 395.015 198.186 425.997 191.709C448.959 187.345 473.228 170.774 500.477 161.928C597.173 122.959 708.152 168.078 750.265 263.793C792.094 359.19 744.585 460.75 658.277 512.133C648.089 518.189 638.703 525.517 628.022 530.939Z" stroke="#0075FF" stroke-miterlimit="10"/>
<path d="M630.053 546.31C622.339 559.168 610.125 577.556 592.115 587.734C569.557 602.984 542.162 610.717 514.355 609.514C483.865 609.423 450.98 598.601 420.969 577.508C386.537 553.386 357.358 516.32 337.135 472.036C316.922 427.859 310.221 382.044 315.749 341.278C320.213 305.487 334.232 274.164 354.719 251.681C372.316 228.194 399.156 210.595 429.212 204.441C451.863 200.211 475.906 183.369 503.035 174.244C600.791 134.49 713.149 180.083 755.63 277.001C797.84 373.631 750.349 477.718 661.562 528.29C651.015 534.278 641.093 541.212 630.053 546.31Z" stroke="#0075FF" stroke-miterlimit="10"/>
<path d="M631.632 561.653C623.093 573.102 611.459 589.844 594.829 599.468C572.732 614.595 545.798 622.46 518.305 621.563C487.7 621.632 454.691 610.863 424.516 589.73C389.862 565.519 360.36 528.298 340.146 483.606C319.972 439.008 313.432 392.794 319.217 351.771C323.929 315.874 338.249 284.568 358.967 262.28C376.616 239.69 402.921 222.981 432.032 217.196C454.404 213.085 478.159 195.999 505.186 186.55C604.015 146.043 717.707 192.093 760.542 290.181C803.165 388.031 755.599 494.686 664.365 544.432C653.458 550.354 643.031 556.88 631.632 561.653Z" stroke="#0075FF" stroke-miterlimit="10"/>
<path d="M632.461 576.62C623.115 586.614 612.045 601.756 596.762 610.839C575.14 625.872 548.667 633.871 521.507 633.236C490.817 633.451 457.653 622.748 427.283 601.589C392.376 577.302 362.595 539.944 342.394 494.769C322.247 449.718 315.848 403.149 321.89 361.869C326.882 325.852 341.454 294.623 362.421 272.485C380.155 250.777 405.86 234.986 434.045 229.524C456.107 225.547 479.604 208.203 506.498 198.444C606.369 157.196 721.414 203.659 764.617 302.95C807.652 402.018 759.966 511.223 666.329 560.162C655.139 566.022 644.188 572.184 632.461 576.62Z" stroke="#0075FF" stroke-miterlimit="10"/>
<path d="M632.098 590.776C621.914 599.328 611.438 612.855 597.503 621.398C576.373 636.294 550.33 644.439 523.528 644.128C492.755 644.489 459.436 633.853 428.901 612.654C393.773 588.278 363.681 550.795 343.507 505.168C323.355 459.678 317.161 412.728 323.447 371.16C328.686 335.037 343.561 303.825 364.744 281.851C382.549 260.995 407.67 246.153 434.941 241.046C456.736 237.219 479.964 219.587 506.738 209.548C607.669 167.516 724.061 214.467 767.65 314.915C811.097 415.203 763.292 526.958 667.252 575.089C655.64 580.909 644.197 586.694 632.098 590.776Z" stroke="#0075FF" stroke-miterlimit="10"/>
<path d="M630.227 603.813C618.332 609.314 609.279 622.819 596.723 630.808C576.054 645.58 550.485 653.889 524.016 653.839C493.158 654.348 459.653 643.791 428.986 622.538C393.636 598.074 363.234 560.467 343.055 514.401C322.93 468.459 316.895 421.109 323.42 379.328C328.939 343.085 344.084 311.905 365.498 290.126C383.387 270.152 407.954 256.246 434.254 251.444C455.739 247.75 478.709 229.862 505.351 219.512C607.354 176.726 725.081 224.134 769.038 325.784C812.898 427.292 764.897 541.592 666.543 588.951C654.621 594.647 642.029 598.352 630.227 603.813Z" stroke="#0075FF" stroke-miterlimit="10"/>
<path d="M626.468 615.271C614.16 619.809 605.275 631.222 594.067 638.67C573.872 653.349 548.752 661.76 522.598 662.017C491.638 662.715 457.982 652.15 427.132 630.901C391.53 606.362 360.88 568.604 340.683 522.068C320.585 475.673 314.692 427.969 321.505 385.918C327.273 349.568 342.719 318.405 364.363 296.822C382.323 277.7 406.304 264.742 431.722 260.282C452.928 256.708 475.61 238.575 502.163 227.933C605.208 184.407 724.288 232.227 768.644 335.066C812.885 437.806 764.707 554.608 664.038 601.194C651.695 606.85 638.886 610.648 626.468 615.271Z" stroke="#0075FF" stroke-miterlimit="10"/>
<path d="M620.447 624.795C607.616 628.456 599.011 637.691 589.151 644.598C569.417 659.153 544.757 667.697 518.949 668.246C487.905 669.091 454.094 658.592 423.08 637.304C387.256 612.676 356.295 574.794 336.126 527.805C316.067 480.99 310.333 432.886 317.404 390.577C323.451 354.109 339.136 322.99 361.042 301.589C379.087 283.349 402.47 271.309 426.961 267.172C447.856 263.731 470.312 245.328 496.732 234.375C600.837 190.064 721.264 238.373 765.975 342.382C810.628 446.343 762.211 565.672 659.29 611.46C646.508 617.12 633.446 621.099 620.447 624.795Z" stroke="#0075FF" stroke-miterlimit="10"/>
<path d="M760.659 347.379C805.724 452.559 757.01 574.367 651.863 619.418C638.705 625.056 625.315 629.213 611.841 631.973C598.368 634.733 590.161 641.813 581.68 648.166C562.421 662.628 538.222 671.306 512.746 672.116C481.618 673.108 447.652 662.675 416.461 641.316C380.384 616.612 349.144 578.593 328.957 531.134C308.924 483.866 303.364 435.395 310.661 392.842C316.938 356.311 332.938 325.241 355.061 304.004C373.159 286.66 396.005 275.512 419.552 271.743C440.182 268.452 462.336 249.774 488.623 238.511C593.801 193.446 715.593 242.199 760.659 347.379Z" stroke="#0075FF" stroke-miterlimit="10"/>
<path d="M416.52 272.381C437.202 268.957 459.321 250.368 485.577 239.118C487.346 238.36 489.159 237.62 490.942 236.893C520.026 225.387 550.254 220.923 579.689 222.752C655.243 227.455 725.556 273.682 757.454 348.128C786.61 416.178 776.574 491.174 737.471 547.795C721.945 570.284 701.839 589.885 677.791 605.002C668.587 610.783 658.784 615.938 648.467 620.322C635.295 625.929 621.875 630.099 608.383 632.904C594.954 635.681 586.721 642.7 578.226 649.021C558.914 663.359 534.751 671.948 509.306 672.746C478.151 673.675 444.229 663.26 413.122 642.012C377.059 617.339 345.814 579.395 325.667 532.029C305.604 484.774 300.105 436.277 307.526 393.671C313.879 357.144 329.91 326.061 352.082 304.767C370.18 287.422 392.982 276.256 416.52 272.381Z" stroke="#0075FF" stroke-miterlimit="10"/>
<path d="M413.172 272.713C433.891 269.2 456.023 250.642 482.185 239.432C483.954 238.674 485.768 237.934 487.55 237.207C516.603 225.714 546.832 221.25 576.28 223.11C651.709 227.866 722.023 274.094 753.933 348.57C783.13 416.714 773.085 491.86 733.937 548.464C718.38 570.966 698.212 590.594 674.151 605.68C664.916 611.474 655.118 616.554 644.77 620.951C631.584 626.527 618.151 630.666 604.655 633.546C591.283 636.372 583.023 643.328 574.489 649.557C555.123 663.77 530.951 672.253 505.6 673.011C474.462 673.896 440.585 663.498 409.505 642.312C373.423 617.684 342.174 579.815 322.085 532.498C302.021 485.244 296.585 436.719 304.099 394.073C310.509 357.596 326.585 326.531 348.775 305.191C366.824 287.905 389.599 276.677 413.172 272.713Z" stroke="#0075FF" stroke-miterlimit="10"/>
<path d="M409.492 272.783C430.277 269.169 452.361 250.668 478.492 239.471C480.261 238.713 482.043 237.986 483.826 237.26C512.848 225.78 543.09 221.347 572.507 223.22C647.843 228.016 718.108 274.301 750.049 348.765C779.299 417.032 769.188 492.281 730.04 548.884C714.434 571.444 694.208 591.023 670.134 606.078C660.886 611.841 651.057 616.935 640.695 621.301C627.497 626.845 614.032 630.998 600.505 633.891C587.177 636.735 578.891 643.629 570.343 649.827C550.955 663.903 526.788 672.31 501.454 673.023C470.303 673.877 436.457 663.467 405.448 642.36C369.349 617.776 338.126 579.97 318.077 532.746C298.04 485.553 292.665 437.002 300.273 394.317C306.741 357.888 322.829 326.854 345.099 305.444C363.152 288.081 385.914 276.822 409.492 272.783Z" stroke="#0075FF" stroke-miterlimit="10"/>
<path d="M405.498 272.547C426.318 268.844 448.384 250.388 474.466 239.249C476.235 238.491 478.018 237.764 479.8 237.037C508.791 225.571 539.002 221.151 568.477 223.073C643.689 227.923 713.967 274.239 745.908 348.702C775.229 417.049 765.078 492.462 725.917 549.035C710.28 571.608 690.023 591.2 665.874 606.251C656.594 612.027 646.738 617.058 636.364 621.393C623.152 626.907 609.674 631.028 596.142 633.997C582.859 636.859 574.56 643.722 565.985 649.857C546.544 663.809 522.412 672.128 497.127 672.783C465.95 673.575 432.192 663.2 401.24 642.142C365.124 617.603 333.928 579.858 313.874 532.71C293.81 485.455 288.498 436.878 296.167 394.165C302.693 357.785 318.813 326.738 341.113 305.314C359.193 288.014 381.929 276.693 405.498 272.547Z" stroke="#0075FF" stroke-miterlimit="10"/>
<path d="M401.202 272.036C422.088 268.231 444.105 249.832 470.126 238.72C471.895 237.962 473.677 237.235 475.46 236.508C504.42 225.055 534.644 220.667 564.118 222.589C639.206 227.491 709.485 273.807 741.426 348.271C770.787 416.711 760.627 492.274 721.421 548.829C705.767 571.447 685.434 591.035 661.272 606.054C651.979 611.799 642.092 616.844 631.673 621.161C618.448 626.644 604.952 630.81 591.42 633.778C578.195 636.689 569.855 643.459 561.268 649.563C541.773 663.391 517.677 671.621 492.423 672.263C461.263 673.01 427.505 662.635 396.625 641.658C360.521 617.149 329.321 579.48 309.307 532.425C289.244 485.17 283.993 436.566 291.756 393.814C298.339 357.483 314.503 326.453 336.853 304.972C354.919 287.641 377.61 276.302 401.202 272.036Z" stroke="#0075FF" stroke-miterlimit="10"/>
<path d="M396.617 271.281C417.57 267.374 439.57 249.02 465.528 237.934C467.297 237.176 469.08 236.449 470.862 235.722C499.804 224.314 530.015 219.894 559.503 221.847C634.498 226.79 704.727 273.163 736.7 347.613C766.1 416.147 755.918 491.83 716.682 548.398C700.965 571.043 680.602 590.644 656.412 605.601C647.088 611.359 637.175 616.342 626.756 620.659C613.517 626.111 600.008 630.245 586.428 633.271C573.247 636.2 564.881 642.908 556.266 648.95C536.719 662.654 512.645 670.764 487.453 671.38C456.267 672.065 422.584 661.694 391.743 640.81C355.622 616.346 324.449 578.738 304.461 531.745C284.398 484.491 279.209 435.86 287.065 393.068C293.706 356.785 309.883 325.787 332.282 304.248C350.344 286.992 373.053 275.609 396.617 271.281Z" stroke="#0075FF" stroke-miterlimit="10"/>
<path d="M391.776 270.269C412.764 266.274 434.746 247.963 460.642 236.904C462.411 236.146 464.194 235.42 465.989 234.724C494.901 223.328 525.124 218.94 554.582 220.906C629.452 225.902 699.695 272.306 731.636 346.77C761.09 415.428 750.886 491.23 711.636 547.768C695.888 570.425 675.463 590.053 651.26 604.979C641.936 610.738 632.01 615.689 621.546 619.988C608.263 625.422 594.754 629.557 581.187 632.614C568.064 635.591 559.671 642.237 551.03 648.218C531.443 661.828 507.391 669.818 482.216 670.39C451.017 671.044 417.41 660.678 386.596 639.855C350.457 615.436 319.279 577.904 299.362 530.99C279.312 483.767 274.186 435.11 282.135 392.277C288.833 356.044 305.042 325.032 327.502 303.467C345.569 286.136 368.22 274.703 391.776 270.269Z" stroke="#0075FF" stroke-miterlimit="10"/>
<path d="M386.735 269.049C407.79 264.951 429.722 246.698 455.588 235.653C457.357 234.895 459.139 234.168 460.904 233.485C489.784 222.103 520.008 217.715 549.478 219.712C624.256 224.747 694.481 271.197 726.422 345.66C755.916 414.411 745.672 490.378 706.409 546.884C690.643 569.586 670.174 589.196 645.882 604.086C636.545 609.814 626.574 614.748 616.098 619.016C602.801 624.419 589.261 628.567 575.707 631.655C562.628 634.65 554.209 641.234 545.555 647.183C525.914 660.669 501.897 668.571 476.785 669.116C445.59 669.694 411.997 659.359 381.298 638.635C345.141 614.259 314.003 576.82 294.068 529.951C274.019 482.728 268.91 434.026 276.983 391.141C283.739 354.956 299.992 323.962 322.47 302.352C340.505 285.035 363.13 273.54 386.735 269.049Z" stroke="#0075FF" stroke-miterlimit="10"/>
<path d="M381.419 267.615C402.54 263.416 424.424 245.221 450.228 234.202C451.997 233.444 453.779 232.717 455.544 232.034C484.393 220.666 514.63 216.308 544.114 218.336C618.767 223.425 688.961 269.887 720.947 344.369C750.481 413.213 740.214 489.299 700.92 545.819C685.092 568.547 664.579 588.139 640.287 603.03C630.919 608.771 620.934 613.673 610.445 617.911C597.148 623.314 583.581 627.4 569.979 630.545C556.944 633.558 548.512 640.111 539.831 645.998C520.168 659.347 496.125 667.186 471.061 667.673C439.853 668.221 406.335 657.891 375.663 637.228C339.519 612.883 308.377 575.52 288.482 528.744C268.432 481.521 263.386 432.792 271.534 389.912C278.347 353.776 294.645 322.799 317.141 301.145C335.243 283.725 357.823 272.214 381.419 267.615Z" stroke="#0075FF" stroke-miterlimit="10"/>
<path d="M375.934 265.96C397.078 261.641 418.958 243.521 444.699 232.528C446.468 231.771 448.25 231.044 450.015 230.361C478.833 219.006 509.07 214.648 538.536 216.721C613.066 221.863 683.273 268.356 715.259 342.837C744.877 411.792 734.557 488.012 695.249 544.5C679.391 567.242 658.815 586.861 634.51 601.72C625.129 607.43 615.113 612.346 604.61 616.552C591.3 621.924 577.703 626.024 564.114 629.2C551.154 632.218 542.664 638.721 533.956 644.547C514.24 657.771 490.219 665.491 465.218 665.951C434.027 666.455 400.509 656.124 369.908 635.541C333.747 611.241 302.631 573.94 282.763 527.226C262.713 480.003 257.728 431.248 265.97 388.327C272.81 352.253 289.138 321.263 311.727 299.57C329.749 282.221 352.316 270.678 375.934 265.96Z" stroke="#0075FF" stroke-miterlimit="10"/>
<path d="M370.206 264.079C391.416 259.657 413.278 241.582 438.957 230.616C440.726 229.858 442.478 229.145 444.273 228.449C473.06 217.107 503.267 212.763 532.777 214.853C607.213 220.035 677.403 266.572 709.388 341.053C739.046 410.102 728.718 486.472 689.366 542.943C673.49 565.729 652.838 585.343 628.507 600.141C619.094 605.864 609.083 610.704 598.549 614.924C585.226 620.265 571.628 624.364 558.022 627.585C545.12 630.651 536.603 637.093 527.869 642.856C508.1 655.956 484.114 663.587 459.13 664.003C427.913 664.445 394.484 654.15 363.94 633.616C327.774 609.391 296.672 572.121 276.813 525.514C256.763 478.29 251.854 429.539 260.175 386.548C267.073 350.523 283.445 319.551 306.052 297.812C324.043 280.477 346.615 268.859 370.206 264.079Z" stroke="#0075FF" stroke-miterlimit="10"/>
<path d="M364.322 262.007C385.568 257.497 407.412 239.466 433.03 228.526C434.799 227.768 436.55 227.055 438.345 226.359C467.084 215.074 497.321 210.717 526.831 212.807C601.143 218.042 671.315 264.624 703.332 339.092C733.03 408.234 722.679 484.724 683.296 541.208C667.358 564.02 646.707 583.634 622.3 598.428C612.874 604.12 602.832 608.974 592.271 613.131C578.935 618.441 565.293 622.522 551.668 625.788C538.811 628.872 530.267 635.251 521.52 640.983C501.698 653.959 477.747 661.502 452.826 661.891C421.596 662.302 388.228 651.98 357.724 631.539C321.572 607.345 290.434 570.164 270.632 523.605C250.582 476.382 245.704 427.618 254.15 384.573C261.105 348.597 277.522 317.643 300.178 295.847C318.182 278.542 340.696 266.875 364.322 262.007Z" stroke="#0075FF" stroke-miterlimit="10"/>
<path d="M358.279 259.819C379.592 255.207 401.387 237.234 426.973 226.308C428.742 225.55 430.493 224.836 432.289 224.14C461.028 212.856 491.234 208.512 520.757 210.633C594.976 215.908 665.117 262.503 697.147 337.002C726.898 406.268 716.494 482.891 677.098 539.344C661.142 562.201 640.415 581.81 615.982 596.542C606.525 602.247 596.456 607.039 585.896 611.196C572.515 616.488 558.904 620.556 545.262 623.866C532.449 626.968 523.892 633.316 515.118 638.986C495.255 651.869 471.327 659.292 446.424 659.637C415.198 659.972 381.843 649.681 351.411 629.32C315.241 605.171 284.129 568.052 264.367 521.586C244.318 474.363 239.502 425.572 248.04 382.488C255.053 346.56 271.47 315.606 294.188 293.783C312.161 276.492 334.662 264.794 358.279 259.819Z" stroke="#0075FF" stroke-miterlimit="10"/>
<path d="M352.108 257.503C373.487 252.789 395.233 234.873 420.757 223.974C422.526 223.216 424.277 222.502 426.042 221.82C454.718 210.562 484.969 206.235 514.475 208.401C588.57 213.729 658.724 260.356 690.709 334.837C720.5 404.195 710.087 480.969 670.678 537.391C654.691 560.261 633.902 579.898 609.455 594.598C599.985 600.272 589.886 605.077 579.312 609.204C565.918 614.465 552.276 618.546 538.616 621.9C525.86 625.051 517.263 631.306 508.463 636.914C488.578 649.659 464.641 656.976 439.8 657.294C408.561 657.598 375.282 647.312 344.875 627.013C308.688 602.908 277.603 565.851 257.881 519.479C237.8 472.268 233.077 423.438 241.678 380.327C248.748 344.448 265.21 313.511 287.963 291.6C306.012 274.314 328.485 262.553 352.108 257.503Z" stroke="#0075FF" stroke-miterlimit="10"/>
<path d="M345.821 255.089C367.235 250.286 388.995 232.402 414.426 221.542C416.195 220.784 417.946 220.071 419.711 219.388C448.356 208.144 478.607 203.817 508.126 206.014C582.096 211.395 652.233 258.066 684.25 332.534C714.08 401.986 703.645 478.879 664.205 535.314C648.156 558.211 627.336 577.861 602.863 592.499C593.362 598.187 583.266 602.916 572.661 607.056C559.254 612.286 545.567 616.35 531.921 619.735C519.21 622.903 510.586 629.096 501.773 634.673C481.835 647.294 457.933 654.522 433.123 654.827C401.901 655.087 368.622 644.801 338.331 624.599C302.126 600.539 271.068 563.543 251.341 517.247C231.261 470.036 226.6 421.18 235.293 378.028C242.422 342.198 258.927 311.279 281.698 289.324C299.747 272.037 322.207 260.246 345.821 255.089Z" stroke="#0075FF" stroke-miterlimit="10"/>
<path d="M339.432 252.609C360.913 247.704 382.624 229.877 408.024 219.031C409.793 218.273 411.544 217.559 413.309 216.877C441.923 205.646 472.187 201.35 501.706 203.547C575.583 208.968 645.689 255.652 677.719 330.151C707.634 399.714 697.146 476.74 657.661 533.158C641.594 556.099 620.716 575.7 596.181 590.365C586.667 596.021 576.54 600.764 565.909 604.842C552.488 610.041 538.802 614.104 525.137 617.534C512.471 620.72 503.834 626.882 494.993 632.397C475.003 644.894 451.105 652.046 426.375 652.28C395.127 652.478 361.936 642.227 331.672 622.088C295.48 598.058 264.399 561.183 244.731 514.935C224.65 467.724 220.051 418.841 228.838 375.65C236.024 339.869 252.53 308.95 275.362 286.968C293.398 269.65 315.814 257.841 339.432 252.609Z" stroke="#0075FF" stroke-miterlimit="10"/>
<path d="M332.99 250.004C354.537 244.998 376.199 227.228 401.537 216.409C403.275 215.664 405.058 214.937 406.822 214.255C435.419 203.068 465.669 198.741 495.202 200.969C568.955 206.443 639.074 253.159 671.104 327.657C701.059 397.313 690.562 474.491 651.064 530.877C634.966 553.832 614.026 573.459 589.477 588.093C579.932 593.762 569.779 598.443 559.147 602.521C545.714 607.689 531.996 611.766 518.314 615.24C505.691 618.443 497.028 624.543 488.175 630.027C468.13 642.4 444.269 649.464 419.556 649.654C388.294 649.82 355.166 639.543 324.942 619.497C288.732 595.511 257.678 558.698 238.036 512.512C217.955 465.302 213.387 416.405 222.311 373.192C229.555 337.459 246.105 306.558 268.987 284.519C286.96 267.228 309.35 255.356 332.99 250.004Z" stroke="#0075FF" stroke-miterlimit="10"/>
<path d="M326.472 247.396C348.042 242.269 369.7 224.575 395.007 213.769C396.744 213.024 398.527 212.297 400.291 211.615C428.857 200.441 459.09 196.159 488.622 198.387C562.282 203.901 632.352 250.674 664.413 325.159C694.408 394.908 683.858 472.219 644.36 528.605C628.213 551.617 607.229 571.227 582.654 585.799C573.095 591.437 562.911 596.131 552.266 600.178C538.819 605.315 525.088 609.361 511.389 612.879C498.855 616.118 490.134 622.17 481.24 627.56C461.143 639.809 437.317 646.784 412.666 646.947C381.409 647.038 348.307 636.823 318.14 616.826C281.913 592.885 250.886 556.133 231.284 510.041C211.216 462.861 206.697 413.907 215.714 370.654C223.016 334.97 239.597 304.056 262.509 282.003C280.452 264.725 302.828 252.823 326.472 247.396Z" stroke="#0075FF" stroke-miterlimit="10"/>
<path d="M319.928 244.724C341.564 239.496 363.173 221.86 388.418 211.08C390.156 210.335 391.938 209.608 393.703 208.926C422.237 197.765 452.47 193.483 482.029 195.773C555.565 201.341 625.649 248.145 657.71 322.63C687.744 392.472 677.185 469.933 637.643 526.302C621.465 549.327 600.419 568.964 575.831 583.504C566.272 589.143 556.03 593.788 545.385 597.835C531.925 602.941 518.163 607 504.476 610.549C491.987 613.806 483.24 619.795 474.333 625.155C454.226 637.297 430.378 644.135 405.758 644.285C374.488 644.345 341.448 634.103 311.352 614.186C275.076 590.302 244.044 553.626 224.469 507.596C204.401 460.416 199.945 411.435 209.055 368.142C216.414 332.508 233.039 301.611 256 279.5C273.943 262.222 296.293 250.258 319.928 244.724Z" stroke="#0075FF" stroke-miterlimit="10"/>
<path d="M313.353 242.067C335.025 236.75 356.647 219.145 381.799 208.405C383.537 207.66 385.288 206.946 387.052 206.264C415.556 195.117 445.789 190.835 475.361 193.156C548.773 198.776 618.856 245.58 650.931 320.097C681.019 390.063 670.437 467.644 630.882 523.982C614.673 547.02 593.596 566.67 568.919 581.175C559.316 586.796 549.105 591.428 538.385 595.47C524.88 600.558 511.136 604.573 497.414 608.211C484.969 611.486 476.208 617.444 467.274 622.741C447.115 634.759 423.302 641.508 398.731 641.601C367.478 641.616 334.439 631.375 304.414 611.537C268.182 587.671 237.177 551.057 217.61 505.133C197.543 457.954 193.148 408.946 202.32 365.627C209.737 330.041 226.376 299.175 249.386 277.007C267.377 259.671 289.713 247.676 313.353 242.067Z" stroke="#0075FF" stroke-miterlimit="10"/>
<path d="M306.809 239.396C328.547 233.977 350.121 216.429 375.241 205.703C376.979 204.958 378.731 204.244 380.495 203.562C408.968 192.428 439.214 188.177 468.786 190.498C542.105 196.158 612.139 243.02 644.214 317.536C674.342 387.596 663.738 465.296 624.151 521.647C607.894 544.744 586.772 564.376 562.082 578.85C552.479 584.471 542.211 589.054 531.477 593.065C517.959 598.122 504.184 602.15 490.462 605.788C478.061 609.08 469.274 614.977 460.327 620.243C440.114 632.137 416.337 638.797 391.783 638.845C360.504 638.799 327.553 628.592 297.555 608.817C261.318 585.027 230.34 548.475 210.8 502.613C190.732 455.433 186.4 406.399 195.665 363.04C203.108 327.516 219.809 296.624 242.881 274.429C260.855 257.138 283.134 245.094 306.809 239.396Z" stroke="#0075FF" stroke-miterlimit="10"/>
<path d="M300.234 236.738C322.038 231.217 343.563 213.727 368.622 203.027C370.36 202.283 372.111 201.569 373.876 200.887C402.317 189.766 432.563 185.515 462.118 187.88C535.312 193.594 605.36 240.487 637.435 315.003C667.602 385.156 656.959 463.02 617.359 519.34C601.07 542.45 579.887 562.108 555.183 576.551C545.536 582.154 535.268 586.738 524.52 590.718C510.989 595.744 497.214 599.772 483.474 603.454C471.118 606.764 462.317 612.629 453.33 617.803C433.065 629.572 409.323 636.144 384.831 636.165C353.539 636.088 320.619 625.868 290.736 606.19C254.482 582.445 223.485 545.937 203.985 500.168C183.918 452.989 179.616 403.941 189.006 360.529C196.507 325.054 213.252 294.179 236.342 271.94C254.302 254.618 276.567 242.543 300.234 236.738Z" stroke="#0075FF" stroke-miterlimit="10"/>
<path d="M293.716 234.129C315.556 228.52 337.063 211.074 362.091 200.387C363.829 199.643 365.58 198.929 367.345 198.246C395.769 187.17 426.015 182.919 455.569 185.285C528.64 191.051 598.688 237.944 630.762 312.461C661.014 382.724 650.317 460.722 610.704 517.01C594.398 540.165 573.126 559.788 548.408 574.199C538.761 579.803 528.435 584.337 517.688 588.317C504.144 593.312 490.324 597.322 476.58 601.08C464.281 604.439 455.441 610.211 446.44 615.353C426.121 626.999 402.371 633.464 377.941 633.459C346.653 633.306 313.791 623.135 283.935 603.519C247.663 579.818 216.706 543.403 197.22 497.665C177.152 450.486 172.913 401.412 182.395 357.96C189.954 322.533 206.712 291.69 229.882 269.38C247.807 252.146 270.045 240.009 293.716 234.129Z" stroke="#0075FF" stroke-miterlimit="10"/>
<path d="M287.257 231.569C309.163 225.858 330.652 208.456 355.587 197.81C357.325 197.065 359.076 196.351 360.841 195.669C389.233 184.606 419.479 180.355 449.061 182.783C522.038 188.589 592.037 235.539 624.143 310.043C654.435 380.399 643.716 458.517 604.071 514.819C587.703 537.999 566.4 557.636 541.638 572.03C531.96 577.646 521.652 582.136 510.86 586.099C497.303 591.063 483.483 595.073 469.708 598.844C457.453 602.221 448.586 607.931 439.573 613.042C419.232 624.55 395.485 630.939 371.105 630.877C339.803 630.693 307.003 620.495 277.187 600.973C240.928 577.302 209.967 540.963 190.52 495.318C170.453 448.139 166.275 399.039 175.851 355.546C183.467 320.169 200.257 289.312 223.458 266.988C241.369 249.724 263.594 237.556 287.257 231.569Z" stroke="#0075FF" stroke-miterlimit="10"/>
<path d="M280.868 229.089C302.841 223.275 324.281 205.932 349.154 195.312C350.892 194.567 352.643 193.853 354.407 193.171C382.769 182.121 412.997 177.915 442.61 180.329C515.463 186.189 585.475 233.17 617.581 307.673C647.913 378.123 637.185 456.391 597.496 512.675C581.097 535.869 559.763 555.519 534.944 569.864C525.252 575.45 514.913 579.953 504.095 583.853C490.537 588.817 476.66 592.779 462.88 596.625C450.67 600.02 441.789 605.698 432.749 610.748C412.355 622.131 388.644 628.432 364.295 628.356C333.011 628.128 300.211 617.931 270.465 598.488C234.189 574.862 203.255 538.585 183.835 493.002C163.767 445.823 159.652 396.696 169.289 353.177C176.963 317.848 193.797 287.009 217.015 264.641C235.002 247.381 257.201 235.151 280.868 229.089Z" stroke="#0075FF" stroke-miterlimit="10"/>
<path d="M274.55 226.689C296.558 220.786 317.981 203.487 342.822 192.88C344.56 192.136 346.312 191.422 348.045 190.753C376.376 179.716 406.604 175.51 436.199 177.968C508.959 183.868 578.953 230.894 611.059 305.397C641.444 375.971 630.694 454.359 590.961 510.625C574.544 533.864 553.134 553.509 528.302 567.823C518.579 573.422 508.213 577.863 497.395 581.763C483.824 586.696 469.916 590.671 456.15 594.548C444.015 597.947 435.077 603.577 426.01 608.564C405.576 619.855 381.887 626.036 357.587 625.903C326.276 625.612 293.565 615.45 263.877 596.056C227.583 572.475 196.644 536.273 177.264 490.783C157.165 443.617 153.156 394.481 162.887 350.923C170.619 315.643 187.497 284.821 210.764 262.396C228.737 245.105 250.879 232.826 274.55 226.689Z" stroke="#0075FF" stroke-miterlimit="10"/>
<path d="M268.391 224.403C290.453 218.368 311.84 201.157 336.62 190.577C338.358 189.832 340.109 189.119 341.842 188.45C370.142 177.427 400.384 173.251 429.978 175.71C502.628 181.694 572.578 228.701 604.728 303.222C635.153 373.889 624.35 452.41 584.648 508.664C568.168 531.928 546.728 551.587 521.882 565.87C512.146 571.438 501.749 575.893 490.918 579.762C477.302 584.677 463.425 588.638 449.628 592.529C437.537 595.946 428.586 601.545 419.493 606.47C399.005 617.636 375.339 623.698 351.069 623.551C319.746 623.229 287.065 613.054 257.448 593.74C221.136 570.202 190.224 534.063 170.871 488.636C150.772 441.47 146.825 392.307 156.649 348.708C164.438 313.477 181.316 282.656 204.646 260.204C222.557 242.939 244.685 230.629 268.391 224.403Z" stroke="#0075FF" stroke-miterlimit="10"/>
<path d="M262.317 222.229C284.414 216.105 305.784 198.939 330.532 188.372C332.27 187.627 333.99 186.927 335.755 186.244C364.024 175.235 394.265 171.059 423.873 173.549C496.398 179.586 566.362 226.625 598.481 301.159C628.945 371.919 618.133 450.591 578.387 506.826C561.89 530.136 540.374 549.79 515.471 564.024C505.735 569.592 495.28 573.998 484.449 577.867C470.82 582.751 456.899 586.695 443.097 590.661C431.064 594.126 422.073 599.632 412.966 604.526C392.426 615.568 368.795 621.541 344.574 621.337C313.255 620.94 280.632 610.813 251.041 591.561C214.756 568.086 183.84 532.022 164.513 486.656C144.414 439.49 140.498 390.315 150.446 346.663C158.293 311.48 175.216 280.677 198.594 258.167C216.505 240.903 238.62 228.561 262.317 222.229Z" stroke="#0075FF" stroke-miterlimit="10"/>
<path d="M256.385 220.215C278.549 213.989 299.9 196.867 324.556 186.34C326.294 185.595 328.014 184.895 329.778 184.212C358.029 173.247 388.258 169.04 417.879 171.561C490.311 177.638 560.257 224.721 592.375 299.255C622.925 370.126 612.059 448.931 572.269 505.149C555.741 528.472 534.194 548.139 509.246 562.355C499.466 567.905 489.042 572.298 478.153 576.118C464.511 580.971 450.59 584.915 436.77 588.926C424.782 592.409 415.777 597.884 406.631 602.684C386.068 613.589 362.41 619.5 338.251 619.269C306.919 618.841 274.358 608.688 244.821 589.56C208.505 566.098 177.615 530.096 158.328 484.824C138.242 437.689 134.375 388.455 144.416 344.763C152.321 309.63 169.288 278.844 192.67 256.259C210.595 239.026 232.683 226.622 256.385 220.215Z" stroke="#0075FF" stroke-miterlimit="10"/>
<path d="M250.626 218.346C272.856 212.018 294.159 194.954 318.752 184.454C320.49 183.709 322.21 183.009 323.975 182.326C352.195 171.374 382.436 167.199 412.04 169.763C484.348 175.894 554.276 223.021 586.425 297.542C617.014 368.506 606.127 447.431 566.337 503.649C549.746 526.998 528.155 546.647 503.194 560.833C493.414 566.383 482.933 570.727 472.044 574.547C458.388 579.369 444.422 583.295 430.616 587.337C418.672 590.838 409.641 596.25 400.481 601.02C379.865 611.801 356.243 617.623 332.133 617.334C300.818 616.862 268.271 606.74 238.822 587.647C202.457 564.243 171.607 528.334 152.347 483.124C132.248 435.958 128.425 386.742 138.56 343.01C146.522 307.926 163.488 277.14 186.964 254.515C204.858 237.295 226.919 224.829 250.626 218.346Z" stroke="#0075FF" stroke-miterlimit="10"/>
<path d="M245.039 216.625C267.305 210.208 288.59 193.188 313.152 182.701C314.89 181.956 316.61 181.256 318.375 180.573C346.564 169.635 376.805 165.459 406.422 168.055C478.637 174.225 548.534 221.366 580.697 295.918C611.326 366.975 600.43 446.051 560.595 502.251C543.987 525.644 522.32 545.289 497.346 559.444C487.521 564.976 477.04 569.32 466.138 573.109C452.469 577.9 438.504 581.826 424.649 585.925C412.749 589.444 403.704 594.826 394.518 599.533C373.849 610.19 350.249 615.892 326.17 615.59C294.828 615.056 262.356 604.938 232.948 585.939C196.609 562.597 165.742 526.732 146.49 481.628C126.405 434.493 122.662 385.207 132.858 341.448C140.847 306.426 157.889 275.644 181.382 252.975C199.294 235.711 221.355 223.245 245.039 216.625Z" stroke="#0075FF" stroke-miterlimit="10"/>
<path d="M239.666 215.142C261.998 208.624 283.235 191.661 307.734 181.201C309.472 180.456 311.193 179.756 312.926 179.087C341.084 168.161 371.339 164.017 400.956 166.613C473.046 172.836 542.957 220.008 575.106 294.529C605.775 365.679 594.839 444.919 554.991 501.088C538.352 524.494 516.623 544.166 491.605 558.303C481.78 563.835 471.241 568.13 460.339 571.919C446.657 576.679 432.647 580.588 418.818 584.749C406.963 588.285 397.892 593.605 388.692 598.282C367.983 608.845 344.405 614.428 320.388 614.099C289.034 613.534 256.593 603.403 227.255 584.483C190.916 561.141 160.058 525.383 140.864 480.328C120.778 433.193 117.097 383.88 127.387 340.081C135.433 305.107 152.52 274.344 176.031 251.63C193.942 234.366 215.977 221.838 239.666 215.142Z" stroke="#0075FF" stroke-miterlimit="10"/>
<path d="M234.523 213.855C256.921 207.235 278.096 190.299 302.578 179.883C304.316 179.138 306.036 178.438 307.77 177.769C335.896 166.856 366.12 162.725 395.781 165.339C467.748 171.615 537.641 218.832 569.821 293.339C600.544 364.614 589.572 443.942 549.724 500.111C533.036 523.575 511.294 543.216 486.218 557.304C476.349 562.819 465.841 567.1 454.894 570.872C441.168 575.614 427.189 579.509 413.33 583.684C401.532 587.269 392.434 592.526 383.194 597.11C362.432 607.549 338.89 613.043 314.89 612.67C283.54 612.029 251.157 601.947 221.846 583.09C185.503 559.823 154.657 524.096 135.49 479.103C115.405 431.968 111.755 382.641 122.168 338.79C130.272 303.865 147.359 273.101 170.963 250.348C188.821 233.216 210.799 220.64 234.523 213.855Z" stroke="#0075FF" stroke-miterlimit="10"/>
<path d="M229.624 212.794C252.058 206.085 273.245 189.18 297.635 178.804C299.342 178.073 301.093 177.359 302.826 176.69C330.935 165.822 361.159 161.691 390.789 164.318C462.663 170.634 532.524 217.864 564.718 292.402C595.48 363.77 584.5 443.249 544.607 499.4C527.889 522.878 506.084 542.545 480.995 556.602C471.126 562.117 460.561 566.35 449.601 570.09C435.861 574.801 421.838 578.679 407.974 582.928C396.251 586.518 387.096 591.727 377.843 596.279C357.058 606.581 333.52 611.999 309.57 611.569C278.207 610.897 245.885 600.788 216.645 582.011C180.285 558.788 149.466 523.123 130.307 478.237C110.222 431.102 106.634 381.749 117.141 337.857C125.302 302.981 142.433 272.235 166.055 249.437C183.931 232.262 205.864 219.667 229.624 212.794Z" stroke="#0075FF" stroke-miterlimit="10"/>
<path d="M224.937 211.973C247.424 205.131 268.577 188.315 292.904 177.965C294.611 177.234 296.362 176.52 298.096 175.851C326.174 164.997 356.397 160.865 386.054 163.554C457.803 169.924 527.678 217.185 559.841 291.737C590.674 363.184 579.654 442.827 539.717 498.961C522.967 522.452 501.101 542.145 475.985 556.14C466.072 561.637 455.506 565.87 444.502 569.593C430.749 574.273 416.726 578.15 402.844 582.444C391.166 586.052 381.984 591.198 372.718 595.72C351.88 605.897 328.378 611.227 304.458 610.783C273.112 610.067 240.804 599.99 211.622 581.261C175.275 558.069 144.451 522.48 125.319 477.655C105.234 430.52 101.708 381.14 112.321 337.24C120.541 302.413 137.716 271.685 161.386 248.829C179.28 231.609 201.217 218.94 224.937 211.973Z" stroke="#0075FF" stroke-miterlimit="10"/>
<path d="M220.552 211.427C243.075 204.496 264.21 187.724 288.506 177.388C290.213 176.656 291.964 175.943 293.697 175.273C321.744 164.432 351.982 160.332 381.638 163.021C453.294 169.431 523.12 216.749 555.315 291.288C586.201 362.859 575.145 442.591 535.208 498.724C518.41 522.273 496.499 541.949 471.338 555.926C461.425 561.423 450.802 565.607 439.798 569.33C426.032 573.979 411.977 577.87 398.096 582.164C386.462 585.789 377.267 590.904 367.974 595.364C347.083 605.417 323.571 610.641 299.745 610.157C268.373 609.379 236.14 599.305 206.998 580.67C170.633 557.522 139.805 522.008 120.744 477.264C100.658 430.129 97.1947 380.723 107.87 336.796C116.147 302.017 133.353 271.276 157.055 248.407C174.904 231.169 196.797 218.482 220.552 211.427Z" stroke="#0075FF" stroke-miterlimit="10"/>
<path d="M216.469 211.155C239.058 204.122 260.144 187.408 284.378 177.099C286.085 176.367 287.805 175.667 289.539 174.998C317.555 164.17 347.792 160.07 377.462 162.79C448.994 169.252 518.833 216.602 551.027 291.14C581.953 362.805 570.858 442.701 530.907 498.803C514.078 522.365 492.123 542.024 466.931 556.014C456.974 561.493 446.382 565.664 435.333 569.369C421.554 573.987 407.486 577.846 393.569 582.229C381.979 585.872 372.758 590.926 363.438 595.323C342.494 605.252 319.018 610.387 295.21 609.859C263.824 609.049 231.636 598.994 202.595 580.425C166.212 557.322 135.411 521.87 116.346 477.201C96.2603 430.066 92.8587 380.633 103.627 336.666C111.962 301.936 129.181 271.226 152.963 248.286C170.843 231.035 192.709 218.286 216.469 211.155Z" stroke="#0075FF" stroke-miterlimit="10"/>
<path d="M212.656 211.172C235.312 204.037 256.38 187.368 280.552 177.084C282.259 176.353 283.979 175.653 285.712 174.984C313.697 164.169 343.948 160.1 373.587 162.833C444.995 169.349 514.834 216.698 547.041 291.268C578.007 363.026 566.903 443.073 526.908 499.157C510.061 522.764 488.031 542.418 462.813 556.346C452.855 561.825 442.205 565.947 431.144 569.621C417.351 574.208 403.252 578.081 389.348 582.495C377.803 586.155 368.568 591.178 359.222 595.513C338.224 605.318 314.784 610.364 291.024 609.778C259.643 608.893 227.499 598.856 198.498 580.38C162.124 557.383 131.35 521.993 112.311 477.386C92.2257 430.251 88.8551 380.805 99.7476 336.785C108.14 302.104 125.404 271.411 149.203 248.427C167.065 231.221 188.919 218.44 212.656 211.172Z" stroke="#0075FF" stroke-miterlimit="10"/>
<path d="M209.202 211.513C231.893 204.289 252.944 187.664 277.054 177.407C278.761 176.676 280.481 175.976 282.214 175.306C310.168 164.505 340.419 160.436 370.071 163.2C441.386 169.756 511.176 217.163 543.415 291.72C574.434 363.602 563.294 443.737 523.268 499.835C506.359 523.468 484.298 543.135 459.066 557.032C449.095 562.48 438.415 566.616 427.34 570.258C413.533 574.814 399.421 578.656 385.469 583.128C373.968 586.806 364.706 591.767 355.347 596.071C334.341 605.769 310.891 610.709 287.163 610.11C255.768 609.194 223.686 599.13 194.725 580.747C158.382 557.737 127.604 522.423 108.605 477.909C88.4882 430.787 85.2107 381.301 96.1963 337.241C104.646 302.609 121.941 271.903 145.802 248.892C163.634 231.699 185.46 218.856 209.202 211.513Z" stroke="#0075FF" stroke-miterlimit="10"/>
<path d="M206.121 212.209C228.879 204.883 249.88 188.315 273.928 178.085C275.635 177.354 277.355 176.654 279.089 175.984C307.025 165.227 337.231 161.14 366.941 163.954C438.131 170.563 507.935 218.001 540.174 292.557C571.233 364.532 560.084 444.818 520.045 500.885C503.105 524.531 480.981 544.225 455.692 558.074C445.69 563.535 434.983 567.608 423.908 571.251C410.057 575.789 395.945 579.631 382.006 584.134C370.563 587.861 361.275 592.759 351.889 597.001C330.829 606.575 307.402 611.395 283.735 610.77C252.345 609.779 220.29 599.777 191.387 581.442C154.982 558.459 124.198 523.22 105.257 478.755C85.1541 431.664 81.9387 382.152 93.0041 338.021C101.511 303.437 118.82 272.763 142.73 249.694C160.561 232.501 182.344 219.64 206.121 212.209Z" stroke="#0075FF" stroke-miterlimit="10"/>
<path d="M203.368 213.241C226.192 205.814 247.145 189.304 271.161 179.087C272.868 178.356 274.589 177.655 276.322 176.986C304.227 166.242 334.447 162.187 364.156 165C435.223 171.662 505.027 219.1 537.265 293.656C568.364 365.725 557.207 446.162 517.123 502.211C500.165 525.901 477.998 545.577 452.664 559.408C442.662 564.869 431.911 568.925 420.822 572.537C406.958 577.044 392.833 580.855 378.889 585.433C367.522 589.164 358.207 594 348.763 598.194C327.65 607.644 304.259 612.375 280.61 611.705C249.206 610.683 217.213 600.654 188.381 582.4C151.94 559.505 121.197 524.359 102.251 479.97C82.1482 432.879 78.9949 383.34 90.1223 339.182C98.6874 304.648 116.04 273.99 139.968 250.878C157.83 233.671 179.586 220.749 203.368 213.241Z" stroke="#0075FF" stroke-miterlimit="10"/>
<path d="M200.987 214.629C223.846 207.113 244.782 190.647 268.736 180.457C270.443 179.725 272.163 179.025 273.897 178.356C301.771 167.625 331.99 163.57 361.682 166.427C432.656 173.129 502.411 220.625 534.65 295.181C565.833 367.361 554.577 447.913 514.494 503.962C497.474 527.679 475.275 547.368 449.929 561.168C439.882 566.611 429.162 570.654 418.016 574.217C404.152 578.724 389.982 582.517 376.007 587.108C364.684 590.858 355.356 595.663 345.886 599.794C324.72 609.12 301.364 613.762 277.777 613.066C246.36 612.013 214.411 602.002 185.636 583.796C149.285 560.937 118.524 525.835 99.6177 481.539C79.5146 434.448 76.4234 384.882 87.6439 340.685C96.2356 306.212 113.65 275.529 137.64 252.39C155.472 235.196 177.245 222.229 200.987 214.629Z" stroke="#0075FF" stroke-miterlimit="10"/>
<path d="M199.036 216.42C221.949 208.771 242.88 192.38 266.772 182.217C268.479 181.486 270.199 180.785 271.902 180.129C299.745 169.412 329.978 165.387 359.67 168.245C430.519 175 500.287 222.527 532.526 297.083C563.749 369.356 552.485 450.059 512.388 506.077C495.35 529.838 473.063 549.492 447.703 563.261C437.657 568.704 426.878 572.698 415.732 576.261C401.855 580.737 387.641 584.512 373.693 589.165C362.414 592.933 353.059 597.676 343.576 601.776C322.357 610.977 299.005 615.545 275.467 614.79C244.055 613.662 212.15 603.669 183.415 585.556C147.015 562.755 116.293 527.746 97.4142 483.512C77.3111 436.421 74.2819 386.829 85.5956 342.592C94.2449 308.168 111.673 277.515 135.711 254.318C153.543 237.125 175.259 224.109 199.036 216.42Z" stroke="#0075FF" stroke-miterlimit="10"/>
<path d="M197.502 218.584C220.45 210.846 241.363 194.5 265.194 184.363C266.901 183.631 268.621 182.931 270.323 182.275C298.135 171.571 328.368 167.547 358.073 170.435C428.83 177.23 498.581 224.801 530.819 299.358C562.082 371.723 550.809 452.577 510.668 508.577C493.599 532.352 471.25 552.033 445.845 565.783C435.754 571.209 424.976 575.203 413.817 578.735C399.927 583.18 385.713 586.955 371.747 591.653C360.512 595.437 351.131 600.118 341.634 604.187C320.393 613.252 297.032 617.713 273.556 616.932C242.13 615.772 210.257 605.766 181.606 587.764C145.175 564.976 114.48 530.03 95.6274 485.857C75.5244 438.767 72.5262 389.161 83.9773 344.902C92.6842 310.526 110.143 279.86 134.2 256.619C152.031 239.426 173.734 226.379 197.502 218.584Z" stroke="#0075FF" stroke-miterlimit="10"/>
<path d="M195.906 222.318C218.921 214.478 239.785 198.189 263.554 188.079C265.26 187.348 266.95 186.661 268.683 185.991C296.464 175.301 326.71 171.307 356.429 174.227C427.061 181.075 496.781 228.659 529.063 303.234C560.38 375.723 549.071 456.665 508.899 512.679C491.768 536.481 469.419 556.161 443.957 569.863C433.866 575.289 423.03 579.233 411.871 582.766C397.967 587.179 383.709 590.937 369.725 595.679C358.535 599.482 349.14 604.132 339.603 608.108C318.322 617.079 294.984 621.42 271.525 620.594C240.104 619.36 208.288 609.402 179.696 591.449C143.26 568.736 112.578 533.821 93.7655 489.742C73.6624 442.651 70.7263 393.019 82.2706 348.72C91.0041 314.407 108.507 283.758 132.612 260.46C150.444 243.266 172.102 230.202 195.906 222.318Z" stroke="#0075FF" stroke-miterlimit="10"/>
<path d="M194.629 226.796C217.711 218.854 238.526 202.623 262.277 192.557C263.984 191.826 265.673 191.139 267.406 190.47C295.169 179.824 325.402 175.799 355.103 178.763C425.611 185.664 495.344 233.28 527.627 307.854C558.983 380.437 547.635 461.543 507.481 517.513C490.332 541.358 467.907 561.034 442.432 574.705C432.296 580.113 421.492 584.045 410.288 587.559C396.371 591.942 382.113 595.699 368.111 600.486C356.965 604.306 347.544 608.894 337.994 612.839C316.66 621.686 293.357 625.938 269.929 625.1C238.495 623.834 206.741 613.849 178.188 595.99C141.708 573.259 111.022 538.419 92.2492 494.433C72.1462 447.343 69.2722 397.684 80.9095 353.345C89.7317 319.067 107.279 288.437 131.433 265.08C149.203 247.913 170.865 234.773 194.629 226.796Z" stroke="#0075FF" stroke-miterlimit="10"/>
<path d="M194.195 231.097C217.312 223.067 238.14 206.867 261.798 196.841C263.505 196.11 265.194 195.423 266.928 194.753C294.66 184.12 324.875 180.14 354.607 183.091C425.022 190.032 494.737 237.692 527.02 312.266C558.416 384.942 547.058 466.199 506.86 522.151C489.68 546.01 467.193 565.712 441.705 579.352C431.569 584.76 420.707 588.643 409.49 592.126C395.529 596.491 381.257 600.218 367.282 605.066C356.181 608.904 346.746 613.461 337.169 617.344C315.782 626.067 292.514 630.23 269.136 629.334C237.688 628.037 205.979 618.071 177.483 600.26C140.954 577.587 110.308 542.84 91.531 498.93C71.428 451.839 68.6161 402.153 80.3155 357.788C89.213 323.515 106.774 292.915 130.99 269.532C148.791 252.352 170.395 239.163 194.195 231.097Z" stroke="#0075FF" stroke-miterlimit="10"/>
<path d="M194.479 235.275C217.662 227.142 238.442 211 262.055 200.956C263.762 200.225 265.451 199.538 267.185 198.869C294.886 188.249 325.101 184.269 354.846 187.25C425.137 194.245 494.834 241.949 527.148 316.51C558.615 389.266 547.205 470.656 506.975 526.621C489.747 550.537 467.215 570.222 441.669 583.814C431.521 589.191 420.627 593.086 409.397 596.539C395.422 600.873 381.137 604.568 367.114 609.474C356.088 613.317 346.595 617.825 337.006 621.676C315.565 630.275 292.319 634.319 268.972 633.41C237.529 632.037 205.863 622.088 177.408 604.371C140.95 581.778 110.3 547.106 91.5799 503.244C71.4458 456.167 68.6959 406.455 80.5195 362.036C89.4569 327.856 107.049 297.243 131.283 273.816C149.083 256.636 170.675 243.416 194.479 235.275Z" stroke="#0075FF" stroke-miterlimit="10"/>
<path d="M195.454 239.266C218.704 231.032 239.435 214.947 263 204.961C264.707 204.23 266.396 203.543 268.098 202.887C295.768 192.281 325.997 188.331 355.742 191.313C425.94 198.347 495.606 246.065 527.902 320.67C559.422 393.55 547.99 475.06 507.747 530.994C490.487 554.924 467.925 574.622 442.334 588.195C432.155 593.586 421.235 597.419 410.005 600.871C396.017 605.175 381.701 608.883 367.691 613.821C356.709 617.681 347.203 622.158 337.573 625.916C316.079 634.391 292.869 638.346 269.584 637.41C238.127 636.007 206.506 626.075 178.14 608.393C141.651 585.814 111.027 551.204 92.3027 507.418C72.1997 460.327 69.4809 410.602 81.3975 366.143C90.3926 332.012 108.029 301.417 132.311 277.932C150.094 260.796 171.659 247.514 195.454 239.266Z" stroke="#0075FF" stroke-miterlimit="10"/>
<path d="M197.055 243.174C220.34 234.85 241.054 218.81 264.556 208.851C266.232 208.133 267.952 207.432 269.655 206.776C297.294 196.183 327.522 192.234 357.263 195.291C427.336 202.379 497.016 250.127 529.299 324.701C560.859 397.675 549.417 479.335 509.13 535.251C491.84 559.194 469.202 578.888 443.598 592.431C433.405 597.79 422.485 601.624 411.18 605.071C397.178 609.343 382.849 613.021 368.803 618.047C357.879 621.956 348.334 626.34 338.691 630.067C317.174 638.404 293.938 642.298 270.701 641.304C239.249 639.825 207.673 629.912 179.346 612.323C142.932 589.747 112.335 555.2 93.6506 511.507C73.5476 464.416 70.8908 414.664 82.9006 370.165C91.9533 336.083 109.603 305.519 133.934 281.976C151.704 264.809 173.255 251.497 197.055 243.174Z" stroke="#0075FF" stroke-miterlimit="10"/>
<path d="M199.254 246.935C222.606 238.509 243.27 222.527 266.742 212.581C268.418 211.862 270.138 211.162 271.84 210.506C299.462 199.958 329.677 195.977 359.431 199.065C429.38 206.206 499.042 253.999 531.356 328.56C562.956 401.626 551.461 483.42 511.174 539.336C493.835 563.337 471.153 583.013 445.536 596.524C435.312 601.897 424.365 605.668 413.046 609.085C399.032 613.326 384.671 617.017 370.626 622.043C359.746 625.97 350.187 630.322 340.517 633.988C318.961 642.232 295.747 646.005 272.559 644.954C241.093 643.444 209.579 633.504 181.306 616.039C144.856 593.553 114.224 559.094 95.5971 515.449C75.4763 468.403 72.8993 418.58 84.9845 374.086C94.0948 340.052 111.775 309.475 136.169 285.906C153.938 268.739 175.463 255.364 199.254 246.935Z" stroke="#0075FF" stroke-miterlimit="10"/>
<path d="M202.016 250.638C225.39 242.093 246.081 226.173 269.46 216.266C271.136 215.548 272.856 214.848 274.558 214.192C302.149 203.656 332.377 199.707 362.131 202.795C431.987 209.976 501.618 257.782 533.945 332.374C565.599 405.564 554.082 487.478 513.781 543.363C496.411 567.377 473.667 587.08 447.992 600.542C437.755 605.884 426.777 609.669 415.445 613.054C401.417 617.264 387.043 620.924 372.993 626.025C362.158 629.97 352.572 634.261 342.889 637.895C321.28 646.015 298.088 649.668 274.944 648.635C243.466 647.094 211.995 637.172 183.811 619.742C147.299 597.283 116.693 562.886 98.0622 519.317C77.9415 472.27 75.4266 422.421 87.6048 377.887C96.7418 343.915 114.498 313.343 138.909 289.729C156.678 272.562 178.19 259.156 202.016 250.638Z" stroke="#0075FF" stroke-miterlimit="10"/>
<path d="M205.208 254.231C228.649 245.584 249.291 229.721 272.639 219.828C274.315 219.11 276.035 218.409 277.737 217.753C305.296 207.231 335.525 203.282 365.292 206.401C435.024 213.635 504.669 261.472 536.996 336.064C568.689 409.348 557.163 491.412 516.818 547.279C499.43 571.338 476.642 591.023 450.923 604.467C440.655 609.822 429.65 613.545 418.318 616.931C404.246 621.123 389.872 624.783 375.804 629.929C365.013 633.891 355.414 638.151 345.691 641.692C324.029 649.687 300.872 653.252 277.777 652.161C246.303 650.545 214.877 640.64 186.732 623.304C150.186 600.933 119.606 566.598 101.015 523.122C80.9121 476.032 78.4415 426.2 90.6995 381.595C99.8942 347.672 117.65 317.099 142.154 293.446C159.924 276.279 181.391 262.855 205.208 254.231Z" stroke="#0075FF" stroke-miterlimit="10"/>
<path d="M208.84 257.819C232.346 249.07 252.94 233.265 276.225 223.398C277.901 222.68 279.591 221.993 281.337 221.355C308.866 210.846 339.076 206.941 368.844 210.06C438.483 217.334 508.078 265.229 540.436 339.808C572.2 413.171 560.621 495.368 520.246 551.249C502.795 575.334 479.976 595.032 454.243 608.446C443.962 613.77 432.927 617.506 421.581 620.86C407.496 625.021 393.109 628.65 379.023 633.84C368.276 637.82 358.651 642.018 348.915 645.528C327.199 653.399 304.078 656.876 281.001 655.74C249.513 654.093 218.132 644.206 190.044 626.919C153.515 604.503 122.931 570.244 104.411 526.848C84.2905 479.802 81.8687 429.912 94.2642 385.285C103.516 351.411 121.317 320.856 145.839 297.158C163.564 279.974 185.005 266.488 208.84 257.819Z" stroke="#0075FF" stroke-miterlimit="10"/>
<path d="M212.839 261.323C236.381 252.486 256.957 236.725 280.18 226.885C281.856 226.167 283.545 225.48 285.261 224.855C312.758 214.36 342.969 210.455 372.75 213.605C442.265 220.932 511.873 268.858 544.232 343.436C576.049 416.924 564.448 499.241 524.028 555.104C506.546 579.202 483.665 598.927 457.906 612.278C447.593 617.616 436.562 621.276 425.173 624.613C411.074 628.743 396.642 632.354 382.584 637.606C371.912 641.591 362.229 645.74 352.479 649.219C330.742 656.953 307.625 660.354 284.596 659.16C253.113 657.438 221.776 647.569 193.729 630.374C157.24 608.052 126.682 573.855 108.158 530.534C88.037 483.488 85.6906 433.603 98.1659 388.905C107.476 355.08 125.32 324.542 149.86 300.8C167.599 283.647 189.013 270.099 212.839 261.323Z" stroke="#0075FF" stroke-miterlimit="10"/>
<path d="M217.157 264.801C240.766 255.861 261.324 240.145 284.485 230.331C286.161 229.613 287.851 228.926 289.566 228.301C317.032 217.819 347.256 213.945 377.05 217.127C446.441 224.507 516.05 272.433 548.39 347.056C580.248 420.636 568.607 503.117 528.204 558.936C510.705 583.079 487.748 602.799 461.945 616.133C451.619 621.439 440.557 625.113 429.154 628.419C415.042 632.518 400.611 636.129 386.503 641.439C375.876 645.441 366.179 649.559 356.39 652.945C334.599 660.554 311.517 663.867 288.52 662.66C257.024 660.906 225.749 651.011 197.772 633.896C161.252 611.587 130.721 577.452 112.223 534.193C92.1027 487.147 89.8183 437.235 102.387 392.498C111.754 358.721 129.63 328.171 154.232 304.402C171.939 287.262 193.34 273.683 217.157 264.801Z" stroke="#0075FF" stroke-miterlimit="10"/>
<path d="M221.777 268.296C245.452 259.254 265.962 243.596 289.061 233.809C290.737 233.091 292.426 232.404 294.142 231.779C321.59 221.341 351.801 217.436 381.608 220.649C450.906 228.069 520.466 276.052 552.837 350.662C584.734 424.336 573.071 506.936 532.638 562.768C515.077 586.937 492.107 606.627 466.259 619.943C455.902 625.262 444.827 628.905 433.41 632.18C419.285 636.248 404.809 639.841 390.715 645.182C380.132 649.202 370.409 653.258 360.606 656.613C338.762 664.098 315.672 667.304 292.768 666.058C261.258 664.273 230.027 654.395 202.108 637.329C165.553 615.109 135.018 581.049 116.546 537.853C96.4256 490.806 94.2033 440.868 106.834 396.104C116.259 362.376 134.148 331.857 158.798 308.03C176.568 290.863 197.924 277.267 221.777 268.296Z" stroke="#0075FF" stroke-miterlimit="10"/>
<path d="M226.579 271.787C250.29 262.657 270.782 247.043 293.85 237.269C295.525 236.551 297.215 235.864 298.93 235.239C326.348 224.815 356.572 220.941 386.348 224.166C455.521 231.64 525.095 279.654 557.466 354.264C589.417 428.062 577.731 510.782 537.253 566.596C519.675 590.81 496.629 610.495 470.768 623.78C460.411 629.099 449.278 632.693 437.862 635.968C423.736 640.036 409.247 643.599 395.135 648.984C384.597 653.021 374.861 657.046 365.031 660.339C343.147 667.731 320.079 670.817 297.193 669.527C265.687 667.666 234.501 657.806 206.635 640.865C170.066 618.613 139.54 584.66 121.095 541.526C100.975 494.479 98.8144 444.515 111.538 399.71C121.021 366.031 138.954 335.53 163.653 311.646C181.392 294.492 202.735 280.864 226.579 271.787Z" stroke="#0075FF" stroke-miterlimit="10"/>
<path d="M231.545 275.318C255.322 266.086 275.765 250.529 298.771 240.782C300.447 240.064 302.136 239.377 303.852 238.752C331.238 228.341 361.462 224.467 391.252 227.724C460.301 235.25 529.874 283.265 562.246 357.874C594.236 431.766 582.542 514.637 542.051 570.42C524.441 594.647 501.333 614.358 475.459 627.612C465.089 632.9 453.956 636.495 442.482 639.721C428.343 643.758 413.81 647.302 399.693 652.763C389.199 656.818 379.436 660.781 369.594 664.042C347.656 671.311 324.624 674.308 301.799 672.991C270.281 671.099 239.139 661.257 211.331 644.364C174.757 622.188 144.213 588.28 125.808 545.238C105.688 498.192 103.558 448.214 116.406 403.356C125.947 369.726 143.911 339.211 168.628 315.283C186.38 298.16 207.696 284.471 231.545 275.318Z" stroke="#0075FF" stroke-miterlimit="10"/>
<path d="M236.63 278.871C260.461 269.506 280.868 254.038 303.812 244.318C305.488 243.6 307.177 242.913 308.893 242.288C336.248 231.89 366.472 228.016 396.275 231.304C465.231 238.87 534.756 286.942 567.158 361.538C599.188 435.523 587.472 518.514 546.95 574.31C529.278 598.564 506.139 618.288 480.207 631.493C469.806 636.795 458.647 640.327 447.173 643.553C432.989 647.572 418.474 651.073 404.34 656.577C393.89 660.651 384.114 664.582 374.231 667.751C352.272 674.882 329.243 677.804 306.437 676.442C274.923 674.475 243.825 664.651 216.088 647.838C179.523 625.768 149.019 591.953 130.641 548.973C110.52 501.927 108.453 451.922 121.394 407.025C130.992 373.444 148.97 342.959 173.766 318.96C191.456 301.864 212.76 288.143 236.63 278.871Z" stroke="#0075FF" stroke-miterlimit="10"/>
<path d="M241.755 282.518C265.621 273.064 286.042 257.627 308.924 247.933C310.6 247.215 312.289 246.528 313.974 245.916C341.298 235.532 371.535 231.689 401.352 235.007C470.184 242.627 539.722 290.73 572.124 365.326C604.225 439.391 592.438 522.559 551.902 578.324C534.213 602.622 510.999 622.342 485.053 635.517C474.639 640.787 463.449 644.332 451.961 647.527C437.765 651.516 423.218 655.029 409.066 660.578C398.66 664.669 388.858 668.539 378.962 671.676C356.949 678.683 333.943 681.485 311.199 680.097C279.671 678.099 248.618 668.292 220.938 651.528C184.33 629.441 153.883 595.674 135.514 552.801C115.393 505.755 113.388 455.724 126.435 410.817C136.091 377.285 154.113 346.819 178.927 322.775C196.635 305.635 217.881 291.865 241.755 282.518Z" stroke="#0075FF" stroke-miterlimit="10"/>
<path d="M246.907 286.226C270.84 276.67 291.212 261.291 314.032 251.624C315.708 250.905 317.366 250.232 319.082 249.607C346.388 239.267 376.581 235.406 406.41 238.756C475.149 246.415 544.67 294.563 577.072 369.159C609.226 443.347 597.417 526.635 556.868 582.37C539.147 606.681 515.902 626.414 489.899 639.54C479.454 644.824 468.237 648.307 456.749 651.502C442.54 655.459 427.98 658.942 413.823 664.566C403.493 668.662 393.646 672.513 383.724 675.589C361.658 682.471 338.687 685.185 315.96 683.752C284.42 681.723 253.428 671.89 225.789 655.219C189.207 633.194 158.725 599.516 140.413 556.691C120.292 509.645 118.349 459.587 131.49 414.641C141.203 381.157 159.256 350.678 184.133 326.608C201.778 309.494 223.028 295.649 246.907 286.226Z" stroke="#0075FF" stroke-miterlimit="10"/>
<path d="M251.979 290.005C275.947 280.361 296.302 265.026 319.09 255.372C320.766 254.654 322.425 253.98 324.14 253.355C351.416 243.028 381.622 239.199 411.451 242.548C480.066 250.261 549.555 298.422 582.002 373.036C614.196 447.318 602.365 530.725 561.785 586.473C544.016 610.842 520.726 630.557 494.71 643.652C484.251 648.905 473.034 652.388 461.502 655.565C447.279 659.491 432.675 662.956 418.532 668.612C408.246 672.725 398.372 676.514 388.437 679.559C366.318 686.317 343.351 688.955 320.718 687.483C289.181 685.379 258.234 675.563 230.635 658.985C194.035 637.004 163.58 603.388 145.263 560.639C125.156 513.624 123.262 463.509 136.464 418.536C146.204 385.114 164.301 354.652 189.227 330.525C206.872 313.411 228.109 299.535 251.979 290.005Z" stroke="#0075FF" stroke-miterlimit="10"/>
<path d="M256.967 293.931C281.002 284.184 301.307 268.907 324.034 259.28C325.71 258.562 327.368 257.888 329.084 257.263C356.328 246.949 386.534 243.12 416.377 246.501C484.868 254.266 554.37 302.458 586.786 377.086C619.02 451.46 607.18 535.019 566.556 590.749C548.755 615.131 525.39 634.842 499.343 647.95C488.853 653.216 477.61 656.637 466.034 659.796C451.797 663.691 437.162 667.17 423.001 672.87C412.76 677 402.859 680.728 392.897 683.71C370.738 690.375 347.794 692.894 325.178 691.377C293.628 689.242 262.726 679.444 235.215 662.902C198.597 640.965 168.168 607.411 149.892 564.755C129.785 517.74 127.922 467.611 141.248 422.585C151.046 389.213 169.187 358.769 194.13 334.596C211.882 317.474 233.061 303.549 256.967 293.931Z" stroke="#0075FF" stroke-miterlimit="10"/>
<path d="M261.796 297.998C285.897 288.15 306.185 272.917 328.818 263.329C330.494 262.611 332.152 261.938 333.868 261.313C361.081 251.012 391.301 247.214 421.144 250.595C489.541 258.4 559.026 306.637 591.442 381.264C623.729 455.763 611.866 539.441 571.229 595.14C553.397 619.535 529.97 639.273 503.897 652.319C493.393 657.554 482.119 660.988 470.529 664.117C456.28 667.981 441.631 671.428 427.466 677.203C417.269 681.352 407.355 685.048 397.366 687.969C375.185 694.496 352.232 696.908 329.678 695.365C298.133 693.154 267.275 683.374 239.817 666.956C203.182 645.064 172.735 611.554 154.53 568.978C134.391 521.976 132.621 471.807 146.041 426.742C155.896 393.418 174.069 362.96 199.074 338.761C216.72 321.648 237.885 307.692 261.796 297.998Z" stroke="#0075FF" stroke-miterlimit="10"/>
<path d="M266.42 302.19C290.556 292.253 310.827 277.064 333.429 267.49C335.105 266.772 336.763 266.098 338.479 265.473C365.661 255.186 395.881 251.388 425.719 254.844C493.993 262.703 563.46 310.983 595.906 385.598C628.233 460.19 616.318 544.001 575.68 599.7C557.8 624.153 534.36 643.859 508.242 656.887C497.707 662.136 486.406 665.508 474.817 668.636C460.554 672.469 445.861 675.899 431.709 681.705C421.556 685.872 411.616 689.506 401.614 692.395C379.379 698.798 356.462 701.122 333.939 699.565C302.381 697.324 271.567 687.561 244.167 671.192C207.558 649.362 177.107 615.927 158.928 573.414C138.79 526.412 137.082 476.216 150.594 431.111C160.507 397.835 178.724 367.396 203.747 343.153C221.366 325.977 242.505 311.959 266.42 302.19Z" stroke="#0075FF" stroke-miterlimit="10"/>
<path d="M270.747 306.546C294.95 296.506 315.158 281.344 337.712 271.828C339.357 271.123 341.046 270.436 342.731 269.824C369.882 259.551 400.115 255.783 429.953 259.239C498.134 267.138 567.57 315.432 600.03 390.077C632.428 464.749 620.472 548.724 579.79 604.405C561.879 628.872 538.377 648.605 512.232 661.571C501.684 666.788 490.352 670.174 478.749 673.271C464.442 677.086 449.78 680.503 435.58 686.367C425.471 690.551 415.518 694.154 405.489 696.981C383.201 703.26 360.319 705.495 337.845 703.881C306.26 701.577 275.521 691.819 248.192 675.529C211.566 653.744 181.141 620.372 162.972 577.964C142.833 530.962 141.187 480.74 154.793 435.595C164.764 402.368 182.994 371.96 208.097 347.646C225.747 330.456 246.841 316.421 270.747 306.546Z" stroke="#0075FF" stroke-miterlimit="10"/>
<path d="M274.791 311.096C299.06 300.955 319.22 285.851 341.742 276.348C343.387 275.643 345.076 274.956 346.761 274.344C373.895 264.115 404.114 260.316 433.966 263.804C502.022 271.756 571.471 320.08 603.918 394.694C636.369 469.49 624.391 553.585 583.665 609.249C565.723 633.728 542.159 653.488 515.97 666.436C505.422 671.654 494.063 674.977 482.416 678.057C468.096 681.841 453.376 685.208 439.215 691.166C429.151 695.367 419.171 698.909 409.116 701.674C386.775 707.829 363.928 709.975 341.472 708.316C309.905 705.968 279.21 696.228 251.908 680C215.263 658.259 184.866 624.949 166.723 582.604C146.584 535.602 145 485.353 158.668 440.181C168.696 407.003 186.958 376.581 212.091 352.254C229.812 335.145 250.881 321.047 274.791 311.096Z" stroke="#0075FF" stroke-miterlimit="10"/>
<path d="M278.462 315.807C302.754 305.546 322.908 290.517 345.369 281.04C347.014 280.336 348.703 279.649 350.388 279.037C377.49 268.821 407.692 265.067 437.575 268.541C505.507 276.546 574.938 324.915 607.416 399.516C639.907 474.405 627.907 558.62 587.181 614.283C569.19 638.82 545.582 658.563 519.379 671.479C508.787 676.679 497.428 680.003 485.768 683.051C471.434 686.804 456.715 690.172 442.523 696.142C432.503 700.362 422.51 703.872 412.428 706.575C390.034 712.606 367.209 714.632 344.828 712.978C313.248 710.599 282.584 700.845 255.353 684.697C218.691 663 188.32 629.752 170.216 587.5C150.078 540.498 148.556 490.223 162.317 445.011C172.403 411.882 190.709 381.478 215.891 357.093C233.519 340.024 254.574 325.895 278.462 315.807Z" stroke="#0075FF" stroke-miterlimit="10"/>
<path d="M281.725 320.765C306.083 310.402 326.221 295.417 348.588 285.981C350.233 285.276 351.922 284.589 353.607 283.977C380.678 273.775 410.88 270.02 440.745 273.539C508.584 281.584 577.985 329.966 610.476 404.598C643.007 479.58 630.967 563.959 590.227 619.591C572.205 644.142 548.552 663.867 522.305 676.766C511.714 681.965 500.297 685.24 488.637 688.289C474.29 692.011 459.526 695.36 445.329 701.406C435.385 705.63 425.334 709.092 415.239 711.764C392.836 717.688 369.972 719.621 347.639 717.909C316.063 715.455 285.444 705.719 258.252 689.665C221.604 667.998 191.242 634.857 173.152 592.636C153.013 545.634 151.536 495.377 165.421 450.111C175.564 417.031 193.883 386.658 219.115 362.216C236.76 345.102 257.802 330.942 281.725 320.765Z" stroke="#0075FF" stroke-miterlimit="10"/>
<path d="M613.083 409.911C645.667 485.018 633.592 569.485 592.821 625.131C574.781 649.726 551.053 669.446 524.793 682.314C501.104 693.897 473.474 695.851 447.715 706.888C342.568 751.939 220.775 703.187 175.71 598.007C130.644 492.827 179.358 371.019 284.505 325.968C310.73 314.731 331.993 298.346 356.343 289.162C383.383 278.973 413.585 275.218 443.476 278.799C511.209 286.853 580.592 335.28 613.083 409.911Z" stroke="#0075FF" stroke-miterlimit="10"/>
</svg>
