<svg width="746" height="767" viewBox="0 0 746 767" fill="none" xmlns="http://www.w3.org/2000/svg">
<g opacity="0.6" clip-path="url(#clip0_430_22940)">
<path d="M584.507 541.353C598.043 666.073 488.25 759.569 360.77 765.609C230.064 769.497 126.474 667.306 125.424 533.072C126.862 397.905 244.338 180.738 432.309 243.659C504.71 274.608 560.038 331.589 563.163 404.589C563.638 448.067 576.623 494.566 584.507 541.353Z" stroke="#0075FF" stroke-width="1.57" stroke-miterlimit="10"/>
<path d="M586.568 540.131C599.85 664.925 490.076 759.085 362.678 764.021C232.643 767.017 130.432 663.502 128.362 531.694C128.937 398.948 244.568 184.482 430.041 245.666C501.748 274.808 557.651 329.762 562.741 401.933C564.639 445.022 578.794 492.1 586.568 540.131Z" stroke="#0075FF" stroke-width="1.57" stroke-miterlimit="10"/>
<path d="M588.893 538.563C601.921 663.427 492.166 758.251 364.84 762.09C235.481 764.236 134.651 659.349 131.559 529.972C131.291 399.652 245.057 187.881 428.033 247.288C499.049 274.608 555.532 327.556 562.554 398.893C565.938 441.623 581.214 489.284 588.893 538.563Z" stroke="#0075FF" stroke-width="1.57" stroke-miterlimit="10"/>
<path d="M591.481 536.636C604.255 661.57 494.52 757.058 367.274 759.798C238.586 761.071 139.118 654.836 135.024 527.886C133.888 400.011 245.791 190.941 426.274 248.611C496.6 274.109 553.644 325.05 562.621 395.554C567.463 437.889 583.884 486.13 591.481 536.636Z" stroke="#0075FF" stroke-width="1.57" stroke-miterlimit="10"/>
<path d="M594.262 534.43C606.781 659.439 497.07 755.565 369.896 757.233C241.884 757.627 143.806 650.049 138.682 525.53C136.721 400.056 246.759 193.702 424.745 249.575C494.381 273.251 551.995 322.18 562.919 391.84C569.222 433.836 586.784 482.66 594.262 534.43Z" stroke="#0075FF" stroke-width="1.57" stroke-miterlimit="10"/>
<path d="M597.281 531.909C609.542 656.993 499.854 753.803 372.758 754.347C245.417 753.848 148.719 644.948 142.574 522.854C139.77 399.802 247.943 196.133 423.456 250.258C492.396 272.117 550.586 319.035 563.451 387.881C571.201 429.493 589.9 478.891 597.281 531.909Z" stroke="#0075FF" stroke-width="1.57" stroke-miterlimit="10"/>
<path d="M600.497 529.114C612.509 654.273 502.841 751.747 375.821 751.193C249.151 749.84 153.833 639.567 146.672 519.904C143.02 399.278 249.328 198.309 422.324 250.673C490.575 270.71 549.344 315.621 564.146 383.634C573.377 424.871 593.217 474.853 600.497 529.114Z" stroke="#0075FF" stroke-width="1.57" stroke-miterlimit="10"/>
<path d="M603.901 526.059C615.658 651.287 506.014 749.425 379.071 747.773C253.081 745.547 159.134 633.931 150.948 516.669C146.452 398.469 250.9 200.191 421.399 250.807C488.984 269.022 548.29 311.927 565.042 379.096C575.741 419.989 596.716 470.55 603.901 526.059Z" stroke="#0075FF" stroke-width="1.57" stroke-miterlimit="10"/>
<path d="M607.471 522.759C618.975 648.053 509.35 746.89 382.483 744.114C257.16 741.009 164.598 628.051 155.4 513.24C150.056 397.461 252.635 201.893 420.647 250.743C487.507 267.131 547.413 308.013 566.111 374.374C578.271 414.867 600.387 466.008 607.471 522.759Z" stroke="#0075FF" stroke-width="1.57" stroke-miterlimit="10"/>
<path d="M611.201 519.24C622.446 644.618 512.844 744.079 386.054 740.231C261.402 736.237 170.221 621.926 160.002 509.566C153.814 396.208 254.519 203.341 420.043 250.428C486.189 264.999 546.689 303.885 567.333 369.402C580.936 409.521 604.212 461.261 611.201 519.24Z" stroke="#0075FF" stroke-width="1.57" stroke-miterlimit="10"/>
<path d="M615.064 515.521C626.055 640.964 516.473 741.094 389.759 736.157C265.783 731.315 175.978 615.641 164.738 505.687C157.696 394.755 256.561 204.589 419.578 249.919C485.058 262.663 546.119 299.542 568.69 364.23C583.774 403.97 608.176 456.269 615.064 515.521Z" stroke="#0075FF" stroke-width="1.57" stroke-miterlimit="10"/>
<path d="M619.047 511.612C629.784 637.131 520.226 737.924 393.589 731.879C270.284 726.154 181.854 609.152 169.598 501.624C161.718 393.118 258.708 205.652 419.233 249.22C484.018 260.147 545.639 295.019 570.171 358.869C586.717 398.239 612.255 451.127 619.047 511.612Z" stroke="#0075FF" stroke-width="1.57" stroke-miterlimit="10"/>
<path d="M623.117 507.544C633.604 633.137 524.065 734.59 397.5 727.452C274.89 720.833 187.841 602.528 174.564 497.401C165.84 391.321 260.966 206.55 419.017 248.362C483.112 257.466 545.299 290.327 571.781 353.348C589.765 392.374 616.444 445.811 623.117 507.544Z" stroke="#0075FF" stroke-width="1.57" stroke-miterlimit="10"/>
<path d="M627.315 503.331C637.549 628.999 528.029 731.116 401.555 722.874C279.592 715.387 193.923 595.704 179.63 493.033C170.044 389.374 263.319 207.309 418.854 247.358C482.259 254.641 545.016 285.495 573.44 347.693C592.919 386.309 620.72 440.355 627.315 503.331Z" stroke="#0075FF" stroke-width="1.57" stroke-miterlimit="10"/>
<path d="M631.567 498.998C641.546 624.736 532.051 727.512 405.639 718.177C284.371 709.826 200.064 588.785 184.749 488.555C174.334 387.322 265.754 207.953 418.768 246.245C481.482 251.706 544.829 280.553 575.18 341.907C596.116 380.144 625.077 434.774 631.567 498.998Z" stroke="#0075FF" stroke-width="1.57" stroke-miterlimit="10"/>
<path d="M635.881 494.556C645.601 620.348 536.129 723.808 409.795 713.375C289.184 704.15 206.266 581.762 189.935 483.948C178.676 385.111 268.209 208.467 418.753 245.002C480.773 248.641 544.676 275.477 576.987 336.002C599.385 373.905 629.487 429.089 635.881 494.556Z" stroke="#0075FF" stroke-width="1.57" stroke-miterlimit="10"/>
<path d="M640.233 490.033C649.704 615.916 540.252 720.019 413.994 708.488C294.053 698.37 212.516 574.654 195.169 479.266C183.062 382.89 270.73 208.911 418.777 243.684C480.106 245.501 544.58 270.33 578.837 330.042C602.697 367.53 633.939 423.323 640.233 490.033Z" stroke="#0075FF" stroke-width="1.57" stroke-miterlimit="10"/>
<path d="M644.614 485.441C653.831 611.398 544.398 716.165 418.217 703.536C298.947 692.554 218.791 567.481 200.423 474.524C187.481 380.559 273.28 209.291 418.83 242.307C479.464 242.307 544.508 265.124 580.711 323.982C606.034 361.116 638.416 417.483 644.614 485.441Z" stroke="#0075FF" stroke-width="1.57" stroke-miterlimit="10"/>
<path d="M649 480.808C657.963 606.836 548.553 712.267 422.449 698.534C303.851 686.689 225.074 560.262 205.686 469.732C191.896 378.192 275.834 209.625 418.892 240.879C478.836 239.052 544.474 259.848 582.6 317.892C609.384 354.651 642.908 411.602 649 480.808Z" stroke="#0075FF" stroke-width="1.57" stroke-miterlimit="10"/>
<path d="M653.39 476.146C662.1 602.248 552.709 708.343 426.672 693.513C308.759 680.794 231.349 553.019 210.944 464.914C196.31 375.801 278.389 209.93 418.95 239.426C478.199 235.782 544.388 254.586 584.483 311.777C612.73 348.167 647.389 405.697 653.39 476.146Z" stroke="#0075FF" stroke-width="1.57" stroke-miterlimit="10"/>
<path d="M657.757 471.479C666.207 597.651 556.841 704.41 430.909 688.486C313.638 674.908 237.618 545.771 216.173 460.092C200.687 373.405 280.882 210.234 418.969 237.959C477.528 232.493 544.288 249.29 586.324 305.647C616.051 341.673 651.876 399.782 657.757 471.479Z" stroke="#0075FF" stroke-width="1.57" stroke-miterlimit="10"/>
<path d="M662.085 466.827C670.282 593.073 560.949 700.496 435.065 683.469C318.484 668.998 243.84 538.533 221.398 455.271C205.067 371.019 283.417 210.549 418.988 236.526C476.857 229.238 544.187 244.014 588.164 299.552C619.339 335.198 656.281 393.872 662.085 466.827Z" stroke="#0075FF" stroke-width="1.57" stroke-miterlimit="10"/>
<path d="M666.361 462.299C674.303 588.62 564.98 696.702 439.163 678.582C323.258 663.237 249.994 531.425 226.532 450.603C209.372 368.763 285.857 210.993 418.926 235.213C476.099 226.098 544.029 238.877 589.928 293.577C622.575 328.844 660.657 388.116 666.361 462.299Z" stroke="#0075FF" stroke-width="1.57" stroke-miterlimit="10"/>
<path d="M670.569 458.46C678.238 584.857 568.953 693.602 443.237 674.384C328.004 658.161 256.115 525.005 231.636 446.61C213.614 367.195 288.234 212.126 418.816 234.584C475.299 223.652 543.77 234.419 591.644 288.286C625.738 323.183 664.966 383.029 670.569 458.46Z" stroke="#0075FF" stroke-width="1.57" stroke-miterlimit="10"/>
<path d="M674.696 454.771C682.13 581.238 572.85 690.647 447.201 670.331C332.643 653.234 262.135 518.731 236.636 442.766C217.77 365.788 290.526 213.414 418.61 234.135C474.403 221.381 543.449 230.142 593.264 283.174C628.825 317.677 669.189 378.108 674.696 454.771Z" stroke="#0075FF" stroke-width="1.57" stroke-miterlimit="10"/>
<path d="M678.718 451.277C685.908 577.813 576.622 687.887 451.074 666.472C337.188 648.502 268.055 512.651 241.539 439.117C221.825 364.555 292.716 214.887 418.308 233.826C473.406 219.25 543.022 226.003 594.784 278.202C631.807 312.356 673.311 373.365 678.718 451.277Z" stroke="#0075FF" stroke-width="1.57" stroke-miterlimit="10"/>
<path d="M682.629 447.977C689.56 574.589 580.318 685.326 454.827 662.813C341.612 643.969 273.86 506.775 246.323 435.688C225.76 363.517 294.782 216.549 417.891 233.726C472.298 217.333 542.485 222.075 596.198 273.445C634.678 307.219 677.323 368.813 682.629 447.977Z" stroke="#0075FF" stroke-width="1.57" stroke-miterlimit="10"/>
<path d="M686.411 444.878C693.083 571.564 583.865 682.985 458.451 659.349C345.906 639.631 279.535 501.11 250.982 432.408C229.594 362.688 296.742 218.416 417.34 233.835C471.057 215.621 541.814 218.361 597.468 268.893C637.415 302.298 681.201 364.465 686.411 444.878Z" stroke="#0075FF" stroke-width="1.57" stroke-miterlimit="10"/>
<path d="M690.044 442.002C696.462 568.758 587.268 680.824 461.926 656.109C350.057 635.518 285.057 495.629 255.492 429.378C233.237 362.079 298.54 220.507 416.644 234.17C469.667 214.128 540.999 214.857 598.595 264.56C640.003 297.595 684.949 360.347 690.044 442.002Z" stroke="#0075FF" stroke-width="1.57" stroke-miterlimit="10"/>
<path d="M693.514 439.362C699.678 566.192 590.504 678.917 465.243 653.109C354.04 631.645 290.43 490.407 259.84 426.583C236.741 361.69 300.179 222.838 415.787 234.739C468.119 212.875 540.022 211.597 599.563 260.466C642.433 293.128 688.501 356.458 693.514 439.362Z" stroke="#0075FF" stroke-width="1.57" stroke-miterlimit="10"/>
<path d="M696.807 436.976C702.717 563.876 593.566 677.264 468.378 650.359C357.856 628.016 295.616 485.436 264.01 424.037C240.068 361.59 301.641 225.419 414.756 235.558C466.393 211.877 538.866 208.602 600.354 256.628C644.686 288.915 691.894 352.824 696.807 436.976Z" stroke="#0075FF" stroke-width="1.57" stroke-miterlimit="10"/>
<path d="M699.908 434.854C705.564 561.83 596.433 675.882 471.325 647.878C361.475 624.661 300.615 480.733 267.983 421.751C243.197 361.735 302.93 228.265 413.524 236.631C464.471 211.123 537.519 205.827 600.938 253.034C646.747 284.971 695.096 349.445 699.908 434.854Z" stroke="#0075FF" stroke-width="1.57" stroke-miterlimit="10"/>
<path d="M702.799 433.017C708.205 560.068 599.093 674.779 474.057 645.667C364.883 621.586 305.399 476.316 271.775 419.769C246.14 362.169 303.985 231.4 412.11 238.024C462.362 210.694 535.981 203.391 601.355 249.764C648.597 281.307 698.082 346.38 702.799 433.017Z" stroke="#0075FF" stroke-width="1.57" stroke-miterlimit="10"/>
<path d="M705.469 431.48C710.617 558.6 601.528 673.98 476.569 643.78C368.065 618.821 309.962 472.193 275.298 418.077C248.82 362.923 304.8 234.829 410.428 239.696C459.989 210.549 534.179 201.229 601.499 246.779C650.222 277.943 700.853 343.595 705.469 431.48Z" stroke="#0075FF" stroke-width="1.57" stroke-miterlimit="10"/>
<path d="M707.894 430.257C712.793 557.452 603.723 673.491 478.841 642.192C370.994 616.355 314.286 468.389 278.6 416.699C251.279 363.946 305.394 238.578 408.53 241.682C457.42 210.733 532.156 199.387 601.423 244.103C651.607 274.893 703.379 341.128 707.894 430.257Z" stroke="#0075FF" stroke-width="1.57" stroke-miterlimit="10"/>
<path d="M710.07 429.368C714.71 556.633 605.665 673.336 480.859 640.939C373.697 614.223 318.369 464.915 281.649 415.656C253.479 365.324 305.735 242.656 406.373 243.999C454.549 211.208 529.879 197.875 601.092 241.757C652.739 272.177 705.646 338.992 710.07 429.368Z" stroke="#0075FF" stroke-width="1.57" stroke-miterlimit="10"/>
<path d="M711.973 428.814C716.359 556.149 607.332 673.516 482.604 640.021C376.118 612.446 322.151 461.785 284.429 414.952C255.411 367.031 305.802 247.079 403.947 246.664C451.433 212.051 527.334 196.712 600.469 239.761C653.601 269.806 707.649 337.2 711.973 428.814Z" stroke="#0075FF" stroke-width="1.57" stroke-miterlimit="10"/>
<path d="M713.588 428.639C717.72 556.049 608.718 674.085 484.061 639.487C378.251 611.014 325.66 459.019 286.921 414.617C257.059 369.132 305.586 251.886 401.234 249.689C448.03 213.249 524.501 195.908 599.601 238.123C654.176 267.799 709.365 335.777 713.588 428.639Z" stroke="#0075FF" stroke-width="1.57" stroke-miterlimit="10"/>
<path d="M714.902 428.839C718.779 556.324 609.801 675.018 485.221 639.322C380.101 610.015 328.871 456.638 289.112 414.662C258.406 371.603 305.068 257.032 398.219 253.104C444.32 214.847 521.366 195.494 598.408 236.876C654.45 266.172 710.779 334.729 714.902 428.839Z" stroke="#0075FF" stroke-width="1.57" stroke-miterlimit="10"/>
<path d="M715.898 429.433C719.522 556.993 610.563 676.351 486.064 639.557C381.572 609.347 331.761 454.652 290.981 415.102C259.432 374.469 304.229 262.588 394.888 256.902C440.299 216.829 517.915 195.464 596.902 236.017C654.402 264.944 711.872 334.08 715.898 429.433Z" stroke="#0075FF" stroke-width="1.57" stroke-miterlimit="10"/>
<path d="M716.584 430.446C719.939 558.076 611.018 678.093 486.592 640.206C382.776 609.122 334.321 453.074 292.529 415.955C260.132 377.743 303.074 268.573 391.226 261.126C435.947 219.225 514.133 195.853 595.067 235.573C654.028 264.126 712.639 333.846 716.584 430.446Z" stroke="#0075FF" stroke-width="1.57" stroke-miterlimit="10"/>
<path d="M716.886 431.884C720.002 559.589 611.085 680.27 486.735 641.284C383.61 609.337 336.536 451.931 293.723 417.243C260.482 381.457 301.55 274.978 387.219 265.773C431.244 222.055 509.997 196.697 592.881 235.558C653.314 263.741 713.056 334.04 716.886 431.884Z" stroke="#0075FF" stroke-width="1.57" stroke-miterlimit="10"/>
<path d="M716.843 433.771C719.719 561.56 610.808 682.895 486.534 642.811C384.084 609.975 338.4 451.237 294.557 418.975C260.468 385.61 299.671 281.841 382.848 270.869C426.178 225.329 505.511 197.94 590.331 235.997C652.221 263.806 713.114 334.679 716.843 433.771Z" stroke="#0075FF" stroke-width="1.57" stroke-miterlimit="10"/>
<path d="M716.34 436.337C718.947 564.186 610.074 686.195 485.878 644.992C384.099 611.283 339.781 451.202 294.931 421.361C259.993 390.412 297.327 289.349 378.016 276.6C420.676 229.238 500.559 199.836 587.326 237.065C650.678 264.545 712.706 336.002 716.34 436.337Z" stroke="#0075FF" stroke-width="1.57" stroke-miterlimit="10"/>
<path d="M715.28 440.964C717.629 568.883 608.78 691.551 484.66 649.276C383.557 614.693 340.615 453.274 294.744 425.854C258.967 397.341 294.442 298.968 372.628 284.477C414.574 235.293 495.047 203.885 583.759 240.28C648.573 267.345 711.748 339.381 715.28 440.964Z" stroke="#0075FF" stroke-width="1.57" stroke-miterlimit="10"/>
<path d="M714.916 445.212C717.015 573.206 608.186 696.543 484.142 653.159C383.71 617.703 342.149 454.931 295.261 429.947C258.632 403.855 292.246 308.188 367.936 291.94C409.191 240.934 490.239 207.514 580.893 243.075C647.169 269.766 711.484 342.387 714.916 445.212Z" stroke="#0075FF" stroke-width="1.57" stroke-miterlimit="10"/>
<path d="M715.256 448.921C717.102 576.99 608.291 701.005 484.324 656.509C384.568 620.179 344.363 456.054 296.474 433.501C259.005 409.845 290.756 316.864 363.948 298.858C404.513 246.03 486.131 210.604 578.731 245.331C646.469 271.653 711.92 344.847 715.256 448.921Z" stroke="#0075FF" stroke-width="1.57" stroke-miterlimit="10"/>
<path d="M716.306 451.926C717.897 580.065 609.111 704.729 485.221 659.149C386.131 621.946 347.33 456.483 298.401 436.352C260.089 415.112 289.975 324.84 360.67 305.068C400.544 250.418 482.728 212.985 577.274 246.879C646.479 272.831 713.071 346.61 716.306 451.926Z" stroke="#0075FF" stroke-width="1.57" stroke-miterlimit="10"/>
<path d="M718.075 454.062C719.407 582.271 610.644 707.599 486.831 660.926C388.417 622.844 350.987 456.029 301.047 438.333C261.881 419.514 289.907 331.944 358.086 310.414C397.265 253.947 480.025 214.502 576.512 247.568C647.202 273.141 714.935 347.498 718.075 454.062Z" stroke="#0075FF" stroke-width="1.57" stroke-miterlimit="10"/>
<path d="M720.562 455.161C721.646 583.449 612.897 709.436 489.161 661.665C391.418 622.709 355.368 454.547 304.412 439.297C264.403 422.904 290.559 338.034 356.269 314.747C394.759 256.453 478.084 215.001 576.522 247.233C648.65 272.417 717.543 347.353 720.562 455.161Z" stroke="#0075FF" stroke-width="1.57" stroke-miterlimit="10"/>
<path d="M723.774 455.066C724.598 583.419 615.879 710.071 492.214 661.201C395.152 621.372 360.483 451.866 308.5 439.022C267.648 425.045 291.944 342.881 355.152 317.837C392.952 257.721 476.852 214.263 577.231 245.666C650.821 270.49 720.836 346.011 723.774 455.066Z" stroke="#0075FF" stroke-width="1.57" stroke-miterlimit="10"/>
<path d="M727.728 453.598C728.299 582.031 619.598 709.347 496.01 659.374C399.619 618.671 366.325 447.818 313.327 437.405C271.626 425.859 294.058 346.39 354.774 319.599C391.878 257.646 476.353 212.171 578.679 242.746C653.731 267.2 724.886 343.3 727.728 453.598Z" stroke="#0075FF" stroke-width="1.57" stroke-miterlimit="10"/>
<path d="M732.402 450.608C732.723 579.111 624.042 707.09 500.53 656.02C404.824 614.443 372.911 442.242 318.892 434.26C276.347 425.135 296.915 348.362 355.138 319.799C391.566 256.044 476.593 208.567 580.864 238.303C657.378 262.384 729.674 339.067 732.402 450.608Z" stroke="#0075FF" stroke-width="1.57" stroke-miterlimit="10"/>
<path d="M737.564 446.135C737.631 574.708 628.974 703.351 505.539 651.182C410.49 608.752 379.957 435.188 324.917 429.628C281.529 422.929 300.232 348.861 355.958 318.536C391.677 252.954 477.293 203.47 583.51 232.378C661.486 256.099 734.923 333.346 737.564 446.135Z" stroke="#0075FF" stroke-width="1.57" stroke-miterlimit="10"/>
<path d="M741.092 442.202C740.905 570.855 632.286 700.157 508.909 646.894C414.531 603.566 385.373 428.674 329.322 425.544C285.085 421.266 301.924 349.899 355.157 317.812C390.186 250.423 476.368 198.923 584.531 226.992C663.969 250.328 738.546 328.17 741.092 442.202Z" stroke="#0075FF" stroke-width="1.57" stroke-miterlimit="10"/>
<path d="M743.546 438.822C743.1 567.545 634.486 697.511 511.205 643.151C417.488 598.949 389.721 422.709 332.648 422.005C287.592 420.153 302.542 351.486 353.259 317.642C387.617 248.421 474.374 194.92 584.479 222.155C665.383 245.117 741.097 323.542 743.546 438.822Z" stroke="#0075FF" stroke-width="1.57" stroke-miterlimit="10"/>
<path d="M745.022 435.927C744.327 564.715 635.737 695.35 512.552 639.891C419.52 594.815 393.119 417.228 335.031 418.955C289.102 419.524 302.212 353.563 350.455 317.952C384.099 246.909 471.426 191.4 583.477 217.807C665.819 240.395 742.674 319.399 745.022 435.927Z" stroke="#0075FF" stroke-width="1.57" stroke-miterlimit="10"/>
<path d="M745.621 433.446C744.663 562.314 636.097 693.608 512.969 637.051C420.613 591.097 395.588 412.167 336.483 416.335C289.711 419.33 300.961 356.064 346.707 318.701C379.66 245.821 467.558 188.316 581.55 213.873C665.373 236.092 743.373 315.676 745.621 433.446Z" stroke="#0075FF" stroke-width="1.57" stroke-miterlimit="10"/>
<path d="M745.439 431.31C744.231 560.247 635.675 692.205 512.628 634.55C420.944 587.727 397.299 407.424 337.197 414.028C289.581 419.449 298.962 358.879 342.211 319.754C374.474 245.072 462.947 185.545 578.885 210.289C664.151 232.138 743.287 312.306 745.439 431.31Z" stroke="#0075FF" stroke-width="1.57" stroke-miterlimit="10"/>
<path d="M744.572 429.493C743.11 558.505 634.582 691.127 511.622 632.368C420.594 584.672 398.315 403.046 337.178 412.057C288.719 419.899 296.234 362.029 336.991 321.151C368.559 244.643 457.602 183.109 575.486 207.02C662.239 228.489 742.52 309.231 744.572 429.493Z" stroke="#0075FF" stroke-width="1.57" stroke-miterlimit="10"/>
<path d="M743.114 427.891C741.399 556.973 632.871 690.258 509.992 630.407C419.65 581.832 398.79 398.863 336.598 410.299C287.29 420.568 292.946 365.418 331.21 322.759C362.088 244.428 451.702 180.883 571.532 203.955C659.741 225.06 741.159 306.386 743.114 427.891Z" stroke="#0075FF" stroke-width="1.57" stroke-miterlimit="10"/>
<path d="M741.168 426.453C739.198 555.61 630.714 689.554 507.888 628.62C418.221 579.156 398.713 394.84 335.524 408.707C285.373 421.396 289.164 368.913 324.931 324.526C355.128 244.378 445.303 178.826 567.074 201.074C656.755 221.795 739.313 303.7 741.168 426.453Z" stroke="#0075FF" stroke-width="1.57" stroke-miterlimit="10"/>
<path d="M738.829 425.115C736.605 554.342 628.14 688.955 505.4 626.903C416.4 576.571 398.267 390.922 334.086 407.21C283.067 422.325 284.994 372.557 318.269 326.398C347.761 244.428 438.521 176.864 562.243 198.284C653.371 218.631 737.07 301.12 738.829 425.115Z" stroke="#0075FF" stroke-width="1.57" stroke-miterlimit="10"/>
<path d="M736.193 423.822C733.72 553.109 625.273 688.386 502.606 625.25C414.281 574.045 397.529 387.033 332.308 405.757C280.465 423.293 280.541 376.226 311.304 328.305C340.102 244.513 431.431 174.942 557.095 195.524C649.7 215.506 734.539 298.569 736.193 423.822Z" stroke="#0075FF" stroke-width="1.57" stroke-miterlimit="10"/>
<path d="M733.36 422.484C730.633 551.861 622.206 687.792 499.615 623.548C411.971 571.479 396.595 383.124 330.357 404.269C277.666 424.237 275.863 379.865 304.143 330.187C332.255 244.573 424.155 172.996 551.76 192.743C645.827 212.351 731.807 295.998 733.36 422.484Z" stroke="#0075FF" stroke-width="1.57" stroke-miterlimit="10"/>
<path d="M730.441 421.062C727.455 550.513 619.057 687.123 496.533 621.766C409.555 568.823 395.564 379.121 328.291 402.697C274.775 425.085 271.108 383.414 296.891 331.974C324.308 244.533 416.779 170.949 546.334 189.868C641.863 209.106 728.984 293.332 730.441 421.062Z" stroke="#0075FF" stroke-width="1.57" stroke-miterlimit="10"/>
<path d="M727.522 419.489C724.282 549.011 615.903 686.275 493.46 619.829C407.183 566.013 394.543 374.963 326.264 400.965C271.885 425.779 266.349 386.808 289.644 333.611C316.351 244.353 409.411 168.743 540.908 186.848C637.899 205.707 726.17 290.512 727.522 419.489Z" stroke="#0075FF" stroke-width="1.57" stroke-miterlimit="10"/>
<path d="M724.704 417.697C721.209 547.294 612.854 685.216 490.489 617.678C404.858 562.983 393.618 370.585 324.323 399.038C269.095 426.258 261.709 389.983 282.497 335.029C308.529 243.949 402.145 166.347 535.578 183.603C634.04 202.088 723.443 287.477 724.704 417.697Z" stroke="#0075FF" stroke-width="1.57" stroke-miterlimit="10"/>
<path d="M722.091 415.626C718.348 545.292 610.012 683.878 487.704 615.242C402.763 559.673 392.904 365.918 322.582 396.792C266.502 426.453 257.261 392.873 275.556 336.167C300.898 243.265 395.084 163.651 530.469 180.074C630.388 198.194 720.931 284.157 722.091 415.626Z" stroke="#0075FF" stroke-width="1.57" stroke-miterlimit="10"/>
<path d="M719.79 413.205C715.788 542.946 607.471 682.196 485.259 612.456C400.975 556.014 392.496 360.926 321.144 394.216C264.244 426.318 253.124 395.429 268.927 336.965C293.574 242.242 388.331 160.621 525.661 176.23C627.042 193.941 718.726 280.493 719.79 413.205Z" stroke="#0075FF" stroke-width="1.57" stroke-miterlimit="10"/>
<path d="M717.897 410.374C713.641 540.19 605.348 680.105 483.212 609.267C399.6 551.951 392.496 355.52 320.143 391.231C262.38 425.739 249.395 397.571 262.706 337.32C286.672 240.774 381.989 157.147 521.266 171.908C624.109 189.289 716.929 276.42 717.897 410.374Z" stroke="#0075FF" stroke-width="1.57" stroke-miterlimit="10"/>
<path d="M716.517 407.075C712.007 536.961 603.738 677.539 481.679 605.608C398.756 547.413 393.004 349.634 319.64 387.777C261.033 424.716 246.184 399.258 256.997 337.245C280.263 238.877 376.161 153.268 517.383 167.17C621.679 184.162 715.649 271.873 716.517 407.075Z" stroke="#0075FF" stroke-width="1.57" stroke-miterlimit="10"/>
<path d="M513.482 162.383C618.424 179.026 714.188 267.869 713.794 402.817C712.587 426.727 707.563 450.413 700.8 472.896C688.031 513.974 664.223 551.816 634.726 579.471C592.287 619.2 536.877 635.284 478.252 601.27C395.281 544.493 388.48 348.601 315.575 384.961C257.577 420.867 242.785 395.194 253.45 333.546C276.386 234.659 372.432 148.811 513.482 162.383Z" stroke="#0075FF" stroke-width="1.57" stroke-miterlimit="10"/>
<path d="M509.891 157.212C615.471 173.505 713.027 263.477 711.388 398.174C709.792 422.18 704.098 445.392 697.775 467.211C685.409 507.265 660.671 544.199 630.915 572.392C588.433 612.516 533.392 629.798 475.136 596.547C392.137 541.184 384.257 347.184 311.817 381.757C254.399 416.639 239.703 390.742 250.21 329.423C272.819 230.047 368.971 143.989 509.891 157.212Z" stroke="#0075FF" stroke-width="1.57" stroke-miterlimit="10"/>
<path d="M506.589 151.686C612.802 167.63 712.16 258.734 709.26 393.178C707.28 417.288 700.896 440.021 695.039 461.171C683.056 500.201 657.402 536.232 627.392 564.96C584.862 605.478 530.191 623.967 472.308 591.471C389.28 537.52 380.321 345.412 308.347 378.203C251.523 412.057 236.899 385.975 247.257 324.985C269.541 225.085 365.812 138.792 506.589 151.686Z" stroke="#0075FF" stroke-width="1.57" stroke-miterlimit="10"/>
<path d="M503.545 145.84C610.395 161.435 711.57 253.663 707.395 387.866C705.027 412.077 697.953 434.335 692.536 454.816C680.98 492.828 654.373 527.946 624.099 557.212C581.531 598.145 527.228 617.817 469.715 586.08C386.663 533.546 376.626 343.325 305.111 374.329C248.906 407.16 234.359 380.893 244.564 320.193C266.502 219.809 362.917 133.326 503.545 145.84Z" stroke="#0075FF" stroke-width="1.57" stroke-miterlimit="10"/>
<path d="M500.732 139.726C608.214 154.97 711.153 248.337 705.756 382.276C703.01 406.591 695.24 428.37 690.308 448.167C679.154 485.151 651.612 519.365 621.079 549.166C578.468 590.482 524.535 611.368 467.395 580.394C384.309 529.288 373.194 340.959 302.149 370.181C246.519 401.988 232.048 375.497 242.1 315.141C263.722 214.253 360.248 127.561 500.732 139.726Z" stroke="#0075FF" stroke-width="1.57" stroke-miterlimit="10"/>
<path d="M498.119 133.361C606.24 148.257 710.986 242.761 704.323 376.46C701.188 400.875 692.728 422.18 688.261 441.329C677.51 477.269 649.033 510.594 618.247 540.934C575.587 582.646 522.023 604.739 465.257 574.519C382.148 524.811 369.954 338.368 299.369 365.803C244.334 396.582 229.94 369.891 239.838 309.865C261.134 208.457 357.784 121.551 498.119 133.361Z" stroke="#0075FF" stroke-width="1.57" stroke-miterlimit="10"/>
<path d="M495.684 126.812C604.442 141.358 710.981 236.99 703.067 370.41C699.549 394.925 690.399 415.755 686.392 434.235C676.043 469.177 646.608 501.574 615.586 532.448C572.888 574.559 519.689 597.84 463.297 568.389C380.158 520.093 366.886 335.543 296.766 361.195C242.325 390.946 228.008 364.051 237.743 304.354C258.723 202.457 355.497 115.331 495.684 126.812Z" stroke="#0075FF" stroke-width="1.57" stroke-miterlimit="10"/>
<path d="M493.398 120.063C602.793 134.259 711.129 231.025 701.96 364.205C698.058 388.82 688.213 409.171 684.671 426.992C674.73 460.901 644.384 492.384 613.08 523.807C570.334 566.312 517.508 590.807 461.49 562.104C378.318 515.221 363.967 332.563 294.303 356.433C240.47 385.161 226.239 358.055 235.826 298.688C256.465 196.287 353.365 108.956 493.398 120.063Z" stroke="#0075FF" stroke-width="1.57" stroke-miterlimit="10"/>
<path d="M491.236 113.195C601.264 127.042 711.403 224.94 700.977 357.866C696.692 382.585 686.157 402.463 683.075 419.614C673.536 452.5 642.256 483.09 610.697 515.032C567.908 557.961 515.452 583.634 459.802 555.69C376.607 510.22 361.177 329.453 291.992 351.527C238.74 379.231 224.571 351.926 233.995 292.888C254.323 189.988 351.342 102.442 491.236 113.195Z" stroke="#0075FF" stroke-width="1.57" stroke-miterlimit="10"/>
<path d="M489.17 106.236C599.836 119.713 711.767 218.76 700.071 351.436C695.398 376.255 684.172 395.658 681.551 412.141C672.443 444.004 640.204 473.685 608.387 506.166C565.555 549.47 513.482 576.366 458.187 549.18C374.963 505.123 358.455 326.243 289.735 346.544C237.077 373.22 222.985 345.711 232.274 287.003C252.281 183.588 349.425 95.8327 489.17 106.236Z" stroke="#0075FF" stroke-width="1.57" stroke-miterlimit="10"/>
<path d="M487.172 99.2172C598.475 112.365 712.203 212.53 699.271 344.947C694.214 369.871 682.293 388.795 680.141 404.609C671.408 435.448 638.263 464.225 606.182 497.241C563.307 540.944 511.583 569.038 456.682 542.616C373.429 499.972 355.843 322.988 287.592 341.493C235.524 367.15 221.508 339.431 230.649 281.057C250.306 177.134 347.579 89.1687 487.172 99.2172Z" stroke="#0075FF" stroke-width="1.57" stroke-miterlimit="10"/>
<path d="M485.216 92.1791C597.152 104.978 712.682 206.271 698.514 338.438C693.078 363.462 680.467 381.907 678.77 397.057C670.445 426.872 636.365 454.741 604.025 488.296C561.107 532.393 509.752 561.675 455.225 536.027C371.919 494.795 353.259 319.694 285.464 336.426C233.995 361.056 220.056 333.137 229.043 275.068C248.374 170.66 345.772 82.4851 485.216 92.1791Z" stroke="#0075FF" stroke-width="1.57" stroke-miterlimit="10"/>
<path d="M483.275 85.1553C595.848 97.5998 713.171 200.026 697.728 331.943C691.904 357.067 678.603 375.037 677.371 389.519C669.448 418.311 634.433 445.277 601.839 479.37C558.873 523.867 507.893 554.362 453.729 529.458C370.419 489.639 350.676 316.429 283.345 331.374C232.475 354.981 218.637 326.882 227.447 269.132C246.452 164.2 343.979 75.8107 483.275 85.1553Z" stroke="#0075FF" stroke-width="1.57" stroke-miterlimit="10"/>
<path d="M481.319 78.182C594.525 90.2821 713.651 193.836 696.932 325.484C690.701 350.713 676.729 368.204 675.962 382.021C668.446 409.79 632.492 435.847 599.639 470.47C556.635 515.366 506.019 547.064 452.234 522.919C368.895 484.512 348.073 313.195 281.212 326.353C230.956 348.946 217.166 320.622 225.846 263.222C244.52 157.791 342.172 69.1918 481.319 78.182Z" stroke="#0075FF" stroke-width="1.57" stroke-miterlimit="10"/>
<path d="M479.32 71.2984C593.164 83.0491 714.082 187.736 696.127 319.15C689.536 344.473 674.85 361.495 674.557 374.643C667.444 401.384 630.56 426.533 597.449 461.7C554.401 506.99 504.154 539.886 450.743 516.5C367.375 479.511 345.475 310.08 279.075 321.456C229.383 343.011 215.694 314.503 224.202 257.412C242.536 151.476 340.317 62.6627 479.32 71.2984Z" stroke="#0075FF" stroke-width="1.57" stroke-miterlimit="10"/>
<path d="M477.259 64.5393C591.74 75.9405 714.456 181.761 695.25 312.92C688.271 338.348 672.894 354.891 673.052 367.375C666.342 393.093 628.523 417.333 595.153 453.034C552.057 498.724 502.165 532.822 449.142 510.195C365.741 474.618 342.767 307.075 276.836 316.669C227.749 337.195 214.112 308.462 222.486 251.721C240.509 145.281 338.4 56.258 477.259 64.5393Z" stroke="#0075FF" stroke-width="1.57" stroke-miterlimit="10"/>
<path d="M475.102 57.9252C590.221 68.977 714.734 175.931 694.267 306.835C686.909 332.363 670.838 348.431 671.456 360.247C665.153 384.941 626.4 408.278 592.771 444.513C549.632 490.602 500.123 525.879 447.46 504.03C364.058 469.866 339.977 304.214 274.507 312.026C226.019 331.529 212.454 302.587 220.679 246.18C238.375 139.251 336.401 50.0182 475.102 57.9252Z" stroke="#0075FF" stroke-width="1.57" stroke-miterlimit="10"/>
<path d="M472.821 51.5507C588.572 62.2531 714.878 170.355 693.165 300.989C685.419 326.622 668.662 342.212 669.74 353.358C663.84 377.034 624.152 399.462 590.269 436.222C547.087 482.705 497.947 519.21 445.653 498.095C362.199 465.349 337.068 301.589 272.062 307.609C224.169 326.078 210.681 296.946 218.752 240.864C236.118 133.421 334.269 43.9732 472.821 51.5507Z" stroke="#0075FF" stroke-width="1.57" stroke-miterlimit="10"/>
<path d="M470.391 45.396C586.779 55.7439 714.887 164.964 691.914 295.364C683.765 321.096 666.332 336.207 667.876 346.689C662.378 369.337 621.76 390.862 587.613 428.17C544.388 475.048 495.617 512.751 443.697 492.399C360.214 461.061 334.005 299.218 269.464 303.431C222.165 320.882 208.754 291.54 216.653 235.782C233.712 127.81 331.982 38.1679 470.391 45.396Z" stroke="#0075FF" stroke-width="1.57" stroke-miterlimit="10"/>
<path d="M467.783 39.511C584.809 49.4945 714.715 159.863 690.485 290.008C681.972 315.84 663.83 330.476 665.833 340.295C660.743 361.924 619.186 382.535 584.771 420.378C541.503 467.655 493.101 506.561 441.555 486.968C358.052 457.043 330.765 297.061 266.689 299.527C220.008 315.945 206.649 286.394 214.414 230.965C231.128 122.509 329.528 32.6373 467.783 39.511Z" stroke="#0075FF" stroke-width="1.57" stroke-miterlimit="10"/>
<path d="M464.974 33.9351C582.633 43.5842 714.336 155.07 688.851 284.961C679.954 310.894 661.117 325.055 663.586 334.205C658.898 354.806 616.411 374.514 581.746 412.895C538.435 460.572 490.402 500.676 439.23 481.842C355.689 453.334 327.318 295.239 263.708 295.913C217.612 311.313 204.339 281.557 211.956 226.463C228.339 117.497 326.863 27.4158 464.974 33.9351Z" stroke="#0075FF" stroke-width="1.57" stroke-miterlimit="10"/>
<path d="M461.931 28.7038C580.227 38.0085 713.722 150.623 686.986 280.289C677.702 306.321 658.179 320.009 661.103 328.49C656.818 348.067 613.396 366.871 578.477 405.787C535.118 453.858 487.454 495.14 436.656 477.09C353.087 449.994 323.637 293.792 260.491 292.679C214.985 307.015 201.794 277.064 209.262 222.3C225.319 112.835 323.968 22.539 461.931 28.7038Z" stroke="#0075FF" stroke-width="1.57" stroke-miterlimit="10"/>
<path d="M458.628 23.8617C577.557 32.8119 712.855 146.559 684.867 275.946C675.2 302.083 654.982 315.291 658.375 323.108C654.498 341.663 610.137 359.548 574.974 398.983C531.566 447.478 484.258 489.988 433.828 472.672C350.235 446.989 319.707 292.674 257.026 289.778C212.109 303.126 199 272.966 206.309 218.526C222.04 108.552 320.814 18.0463 458.628 23.8617Z" stroke="#0075FF" stroke-width="1.57" stroke-miterlimit="10"/>
<path d="M455.038 19.434C574.604 28.0398 711.7 142.915 682.451 272.072C672.386 298.309 651.492 311.043 655.346 318.191C651.871 335.718 606.575 352.71 571.139 392.699C527.698 441.568 480.773 485.276 430.698 468.718C347.071 444.448 315.469 292.01 253.249 287.342C208.945 299.647 195.912 269.282 203.073 215.166C218.474 104.693 317.372 13.9979 455.038 19.434Z" stroke="#0075FF" stroke-width="1.57" stroke-miterlimit="10"/>
<path d="M451.136 15.4955C571.35 23.722 710.228 139.731 679.724 268.613C669.289 294.955 647.691 307.21 652.01 313.689C648.937 330.197 602.707 346.28 567.012 386.803C523.528 436.072 476.972 480.978 427.285 465.174C343.629 442.322 310.949 291.79 249.199 285.326C205.47 296.627 192.514 266.082 199.517 212.271C214.592 101.289 313.614 10.359 451.136 15.4955Z" stroke="#0075FF" stroke-width="1.57" stroke-miterlimit="10"/>
<path d="M446.889 12.0013C567.731 19.9033 708.416 137.045 676.661 265.673C665.838 292.13 643.545 303.895 648.329 309.711C645.659 325.185 598.479 340.37 562.53 381.427C519.003 431.09 472.811 477.204 423.503 462.164C339.819 440.7 306.07 292.08 244.77 283.828C201.631 294.101 188.756 263.327 195.611 209.87C210.369 98.359 309.521 7.23917 446.889 12.0013Z" stroke="#0075FF" stroke-width="1.57" stroke-miterlimit="10"/>
<path d="M442.274 9.05119C563.753 16.6037 706.235 134.879 673.225 263.257C662.018 289.798 639.035 301.1 644.278 306.251C642.016 320.727 593.921 334.979 557.708 376.575C514.133 426.633 468.296 473.945 419.377 459.663C335.663 439.636 300.826 292.883 240.005 282.85C197.466 292.1 184.658 261.121 191.364 207.973C205.777 96.0028 305.054 4.64844 442.274 9.05119Z" stroke="#0075FF" stroke-width="1.57" stroke-miterlimit="10"/>
<path d="M437.265 6.67517C559.367 13.8833 703.642 133.301 669.39 261.41C657.805 288.056 634.127 298.878 639.835 303.341C637.976 316.774 588.946 330.137 552.474 372.272C508.856 422.749 463.407 471.244 414.842 457.767C331.1 439.147 295.185 294.286 234.829 282.466C192.883 290.692 180.153 259.503 186.705 206.71C200.792 94.1909 300.194 2.62685 437.265 6.67517Z" stroke="#0075FF" stroke-width="1.57" stroke-miterlimit="10"/>
<path d="M430.291 4.59825C553.04 11.4569 699.117 131.993 663.595 259.862C651.612 286.608 627.258 296.956 633.427 300.795C631.989 313.205 582.005 325.659 545.28 368.329C501.618 419.185 456.533 468.898 408.342 456.134C324.572 438.912 287.592 295.943 227.677 282.335C186.34 289.544 173.682 258.15 180.081 205.682C193.842 92.6781 293.368 0.899352 430.291 4.59825Z" stroke="#0075FF" stroke-width="1.57" stroke-miterlimit="10"/>
<path d="M421.922 2.79641C545.304 9.28571 693.184 130.97 656.406 258.585C644.049 285.435 618.99 295.309 625.619 298.459C624.569 309.845 573.67 321.391 536.686 364.6C492.981 415.836 448.265 466.752 400.448 454.771C316.649 438.972 278.576 297.89 219.15 282.5C178.394 288.675 165.816 257.097 172.076 204.943C185.497 91.4403 285.143 -0.548078 421.922 2.79641Z" stroke="#0075FF" stroke-width="1.57" stroke-miterlimit="10"/>
<path d="M413.778 1.51823C537.797 7.67807 687.47 130.481 649.436 257.841C636.696 284.796 610.947 294.186 618.041 296.672C617.393 307.03 565.56 317.677 528.317 361.415C484.593 413.065 440.222 465.179 392.774 453.932C308.951 439.556 269.8 300.366 210.834 283.189C170.676 288.34 158.176 256.548 164.268 204.733C177.372 90.7262 277.148 -1.47684 413.778 1.51823Z" stroke="#0075FF" stroke-width="1.57" stroke-miterlimit="10"/>
<path d="M405.855 0.739784C530.512 6.55021 681.982 130.481 642.692 257.596C629.568 284.647 603.124 293.567 610.683 295.384C610.439 304.724 557.675 314.458 520.168 358.735C476.377 410.779 432.4 464.096 385.326 453.608C301.493 440.65 261.23 303.346 202.753 284.387C163.194 288.51 150.765 256.513 156.704 205.018C169.473 90.5168 269.378 -1.90086 405.855 0.739784Z" stroke="#0075FF" stroke-width="1.57" stroke-miterlimit="10"/>
<path d="M398.152 0.455183C523.442 5.91119 676.709 130.98 636.168 257.836C622.656 284.986 595.527 293.432 603.546 294.58C603.704 302.892 550.006 311.722 512.24 356.538C468.406 408.982 424.798 463.502 378.097 453.773C294.216 442.222 252.908 306.81 194.872 286.049C155.908 289.149 143.556 256.947 149.337 205.792C161.794 90.7913 261.819 -1.83604 398.152 0.455183Z" stroke="#0075FF" stroke-width="1.57" stroke-miterlimit="10"/>
<path d="M390.646 0.634743C516.573 5.74133 671.638 131.918 629.827 258.545C615.927 285.8 588.126 293.767 596.586 294.251C597.152 301.539 542.519 309.461 504.499 354.811C460.651 407.654 417.411 463.372 371.085 454.407C287.17 444.288 244.789 310.749 187.218 288.221C148.872 290.292 136.568 257.886 142.205 207.059C154.341 91.5349 254.481 -1.30206 390.646 0.634743Z" stroke="#0075FF" stroke-width="1.57" stroke-miterlimit="10"/>
<path d="M383.389 1.26403C509.954 6.02119 666.811 133.351 623.764 259.703C609.485 287.058 580.97 294.551 589.909 294.366C590.868 300.631 535.31 307.649 497.031 353.533C453.111 406.776 410.241 463.697 364.283 455.485C280.345 446.785 236.88 315.132 179.774 290.817C141.999 291.87 129.8 259.259 135.283 208.757C147.079 92.7333 247.353 -0.318364 383.389 1.26403Z" stroke="#0075FF" stroke-width="1.57" stroke-miterlimit="10"/>
<path d="M376.324 2.32205C503.521 6.72978 662.181 135.193 617.878 261.29C603.21 288.745 574.005 295.763 583.41 294.915C584.785 300.156 528.288 306.266 489.746 352.689C445.768 406.351 403.276 464.445 357.693 456.998C273.726 449.685 229.182 319.943 172.555 293.846C135.374 293.846 123.252 261.061 128.583 210.888C140.038 94.3653 240.437 1.09407 376.324 2.32205Z" stroke="#0075FF" stroke-width="1.57" stroke-miterlimit="10"/>
<path d="M369.465 3.79472C497.3 7.85303 657.757 137.444 612.197 263.292C597.147 290.851 567.247 297.391 577.116 295.873C578.894 300.086 521.457 305.293 482.661 352.25C438.65 406.286 396.518 465.608 351.327 458.914C267.312 453.019 221.69 325.17 165.519 297.291C128.932 296.293 116.882 263.272 122.059 213.429C133.198 96.3871 233.726 2.91617 369.465 3.79472Z" stroke="#0075FF" stroke-width="1.57" stroke-miterlimit="10"/>
<path d="M362.812 5.65649C491.27 9.36537 653.534 140.09 606.719 265.683C591.285 293.342 560.704 299.407 571.024 297.221C573.21 300.416 514.833 304.708 475.783 352.205C431.729 406.64 389.985 467.166 345.13 461.23C261.1 456.738 214.405 330.785 158.674 301.119C122.706 299.093 110.723 265.873 115.756 216.359C126.569 98.8179 227.198 5.13235 362.812 5.65649Z" stroke="#0075FF" stroke-width="1.57" stroke-miterlimit="10"/>
<path d="M356.356 7.88793C485.461 11.2524 649.513 143.11 601.442 268.458C585.624 296.218 554.344 301.803 565.133 298.953C567.722 301.125 508.415 304.514 469.101 352.545C425.004 407.379 383.61 469.103 339.148 463.926C255.089 460.856 207.335 336.786 152.069 305.338C116.676 302.283 104.775 268.858 109.649 219.669C120.137 101.613 220.909 7.7182 356.356 7.88793Z" stroke="#0075FF" stroke-width="1.57" stroke-miterlimit="10"/>
<path d="M350.096 10.5034C479.838 13.4985 645.683 146.504 596.361 271.573C580.16 299.432 548.184 304.519 559.453 301.025C562.444 302.173 502.203 304.659 462.63 353.223C418.48 408.447 377.455 471.374 333.363 466.956C249.275 465.299 200.423 343.12 145.641 309.885C110.843 305.807 99.018 272.177 103.739 223.318C113.901 104.768 214.798 10.6582 350.096 10.5034Z" stroke="#0075FF" stroke-width="1.57" stroke-miterlimit="10"/>
<path d="M344.027 13.3989C474.402 16.0645 642.05 150.173 591.472 275.018C574.887 302.972 542.222 307.614 553.941 303.431C557.335 303.551 496.159 305.133 456.332 354.232C412.148 409.845 371.473 473.99 327.769 470.331C243.658 470.086 193.727 349.794 139.396 314.777C105.192 309.676 93.4434 275.841 98.0113 227.311C107.847 108.258 208.878 13.933 344.027 13.3989Z" stroke="#0075FF" stroke-width="1.57" stroke-miterlimit="10"/>
<path d="M338.156 16.6387C469.168 18.9499 638.608 154.207 586.775 278.787C569.807 306.85 536.446 311.008 548.63 306.156C552.426 305.253 490.316 305.927 450.231 355.575C405.984 411.588 365.722 476.915 322.367 474.02C238.222 475.188 187.218 356.788 133.366 319.994C99.7562 313.869 88.0847 279.83 92.4993 231.639C102.004 112.056 203.15 17.5272 338.156 16.6387Z" stroke="#0075FF" stroke-width="1.57" stroke-miterlimit="10"/>
<path d="M332.466 20.1729C464.116 22.1346 635.354 158.52 582.264 282.85C564.908 311.013 530.862 314.697 543.506 309.176C547.705 307.25 484.665 307.02 444.32 357.192C400.046 413.599 360.128 480.145 317.157 477.993C232.983 480.589 180.896 364.076 127.499 325.485C94.4837 318.331 82.8889 284.088 87.1548 236.217C96.3434 116.155 197.614 21.4108 332.466 20.1729Z" stroke="#0075FF" stroke-width="1.57" stroke-miterlimit="10"/>
<path d="M326.959 23.9414C459.251 25.5537 632.286 163.072 577.936 287.148C560.201 315.416 525.46 318.596 538.564 312.436C543.171 309.486 479.191 308.343 438.588 359.054C394.274 415.875 354.726 483.604 312.124 482.226C227.926 486.219 174.755 371.603 121.833 331.23C89.417 323.053 77.8942 288.61 82.0067 241.063C90.855 120.492 192.255 25.5338 326.959 23.9414Z" stroke="#0075FF" stroke-width="1.57" stroke-miterlimit="10"/>
<path d="M321.624 27.9746C454.544 29.2375 629.381 167.884 573.78 291.71C555.657 320.078 520.226 322.804 533.795 315.955C538.804 311.961 473.88 309.935 433.032 361.18C388.681 418.381 349.501 487.312 307.273 486.688C223.047 492.1 168.797 379.395 116.341 337.215C84.5184 328.01 73.0723 293.362 77.0362 246.145C85.5538 125.07 187.079 29.9014 321.624 27.9746Z" stroke="#0075FF" stroke-width="1.57" stroke-miterlimit="10"/>
<path d="M316.486 32.208C450.043 33.1215 626.673 172.901 569.821 296.472C551.314 324.925 515.178 327.192 529.222 319.674C534.634 314.682 468.79 311.722 427.669 363.507C383.269 421.122 344.454 491.251 302.6 491.391C218.345 498.2 163.017 387.383 111.025 343.455C79.7971 333.227 68.4276 298.374 72.2382 251.487C80.4298 129.882 182.079 34.5042 316.486 32.208Z" stroke="#0075FF" stroke-width="1.57" stroke-miterlimit="10"/>
<path d="M311.51 36.6655C445.72 37.2296 624.133 178.142 566.03 301.459C547.14 330.032 510.323 331.809 524.808 323.622C530.627 317.602 463.848 313.739 422.468 366.053C378.026 424.072 339.584 495.404 298.099 496.298C213.815 504.539 157.414 395.584 105.891 349.859C75.2581 338.608 63.9653 303.551 67.6177 257.012C75.4786 134.909 177.253 39.3162 311.51 36.6655Z" stroke="#0075FF" stroke-width="1.57" stroke-miterlimit="10"/>
<path d="M306.707 41.3179C441.54 41.5325 621.765 183.583 562.401 306.641C543.123 335.318 505.616 336.591 520.571 327.766C526.802 320.717 459.083 315.95 417.445 368.808C372.954 427.212 334.882 499.747 293.78 501.404C209.463 511.054 151.978 403.99 100.916 356.483C70.8769 344.204 59.656 308.942 63.1598 262.713C70.6948 140.125 172.598 44.3229 306.707 41.3179Z" stroke="#0075FF" stroke-width="1.57" stroke-miterlimit="10"/>
<path d="M302.073 46.1446C437.538 46.0098 619.56 189.209 558.94 312.006C539.288 340.784 501.082 341.603 516.501 332.088C523.13 324.017 454.482 318.341 412.585 371.733C368.051 430.531 330.348 504.264 289.61 506.685C205.25 517.747 146.706 412.576 96.1085 363.282C66.6687 349.979 55.5245 314.512 58.8749 268.608C66.0839 145.516 168.107 49.4991 302.073 46.1446Z" stroke="#0075FF" stroke-width="1.57" stroke-miterlimit="10"/>
<path d="M297.6 51.1219C433.727 50.6227 617.523 194.95 555.647 317.508C535.602 346.385 496.691 346.73 512.595 336.546C519.626 327.451 450.043 320.872 407.892 374.798C363.315 434.001 325.976 508.937 285.613 512.112C201.252 524.591 141.606 421.307 91.4878 370.226C62.6423 355.899 51.5748 320.228 54.7718 274.653C61.6357 151.057 163.784 54.8308 297.6 51.1219Z" stroke="#0075FF" stroke-width="1.57" stroke-miterlimit="10"/>
<path d="M293.291 56.2384C430.027 55.4048 615.644 200.845 552.517 323.148C532.084 352.101 492.507 351.996 508.847 341.119C516.281 331.005 445.768 323.518 403.358 377.983C358.733 437.585 321.768 513.719 281.773 517.653C197.375 531.54 136.659 430.147 86.9918 377.289C58.7407 361.959 47.7499 326.084 50.8079 280.838C57.3459 156.763 159.614 60.2967 293.291 56.2384Z" stroke="#0075FF" stroke-width="1.57" stroke-miterlimit="10"/>
<path d="M289.136 61.4646C426.509 60.2816 613.923 206.855 549.541 328.909C528.724 357.986 488.452 357.362 505.261 345.881C513.098 334.739 441.646 326.348 398.977 381.322C354.314 441.328 317.713 518.666 278.097 523.353C193.669 538.663 131.875 439.157 82.6732 384.512C55.0116 368.129 44.0975 332.054 46.9734 287.138C53.2046 162.533 155.616 65.8774 289.136 61.4646Z" stroke="#0075FF" stroke-width="1.57" stroke-miterlimit="10"/>
<path d="M285.138 66.7906C423.144 65.2582 612.356 212.965 546.718 334.764C525.522 363.946 484.555 362.863 501.824 350.678C510.069 338.513 437.682 329.213 394.754 384.746C350.048 445.147 313.816 523.682 274.569 529.133C190.113 545.851 127.24 448.237 78.503 391.805C51.4406 374.404 40.6032 338.118 43.3449 293.537C49.2405 168.418 151.767 71.5578 285.138 66.7906Z" stroke="#0075FF" stroke-width="1.57" stroke-miterlimit="10"/>
<path d="M281.289 72.192C419.932 70.3101 610.942 219.16 544.029 340.694C522.459 369.976 480.792 368.419 498.522 355.565C507.15 342.377 433.852 332.168 390.675 388.241C345.925 449.036 310.063 528.774 271.185 534.999C186.714 553.109 122.763 457.392 74.4862 399.178C48.0181 380.748 37.2574 344.268 39.8457 300.001C45.4154 174.389 148.067 77.3135 281.289 72.192Z" stroke="#0075FF" stroke-width="1.57" stroke-miterlimit="10"/>
<path d="M277.589 77.6481C416.87 75.4168 609.676 225.405 541.527 346.705C519.559 376.091 477.211 374.055 495.406 360.537C504.456 346.32 430.219 335.214 386.759 391.82C341.966 453.009 306.473 533.951 267.969 540.919C183.46 560.462 118.421 466.632 70.6182 406.641C44.7493 387.148 34.0605 350.443 36.4954 306.516C41.7392 180.409 144.515 83.1241 277.589 77.6481Z" stroke="#0075FF" stroke-width="1.57" stroke-miterlimit="10"/>
<path d="M274.032 83.1439C413.951 80.5632 608.55 231.669 539.149 352.7C516.798 382.186 473.76 379.655 492.415 365.489C501.872 350.259 426.686 338.238 382.977 395.369C338.141 456.973 303.017 539.132 264.892 546.84C180.349 567.805 114.241 475.857 66.8986 414.058C41.6193 393.592 31.0071 356.688 33.2935 313.085C38.2065 186.469 141.107 88.9693 274.032 83.1439Z" stroke="#0075FF" stroke-width="1.57" stroke-miterlimit="10"/>
<path d="M270.619 88.6598C411.171 85.7297 607.582 237.964 536.915 358.75C514.177 388.336 470.448 385.346 489.568 370.495C499.428 354.232 423.307 341.308 379.324 398.988C334.441 460.976 299.685 544.319 261.929 552.805C177.377 575.178 110.196 485.121 63.3133 421.556C38.6331 400.047 28.0976 362.953 30.2402 319.674C34.8177 192.549 137.838 94.8346 270.619 88.6598Z" stroke="#0075FF" stroke-width="1.57" stroke-miterlimit="10"/>
<path d="M267.346 94.1709C408.534 90.8913 606.729 244.258 534.806 364.79C511.689 394.481 467.265 391.012 486.846 375.497C497.108 358.211 420.052 344.378 375.835 402.597C330.908 464.995 296.522 549.525 259.14 558.765C174.54 582.551 106.275 494.371 59.8622 429.034C35.7859 406.506 25.3224 369.202 27.3211 326.258C31.5631 198.624 134.713 100.7 267.346 94.1709Z" stroke="#0075FF" stroke-width="1.57" stroke-miterlimit="10"/>
<path d="M264.201 99.6614C406.027 96.0324 606.019 250.528 532.856 370.809C509.369 400.6 464.236 396.657 484.281 380.473C494.946 362.164 416.956 347.428 372.48 406.181C327.51 468.963 293.493 554.706 256.484 564.71C171.855 589.908 102.512 503.635 56.5597 436.496C33.073 412.94 22.6861 375.437 24.5123 332.817C28.4475 204.683 131.717 106.545 264.201 99.6614Z" stroke="#0075FF" stroke-width="1.57" stroke-miterlimit="10"/>
<path d="M261.196 105.112C403.655 101.119 605.444 256.762 531.025 376.79C507.135 406.68 461.332 402.248 481.837 385.415C492.904 366.077 413.984 350.433 369.245 409.725C324.232 472.901 290.583 559.848 253.949 570.61C169.291 597.221 98.8694 512.84 53.3867 443.919C30.4896 419.329 20.1794 381.627 21.857 339.336C25.4567 210.673 128.856 112.336 261.196 105.112Z" stroke="#0075FF" stroke-width="1.57" stroke-miterlimit="10"/>
<path d="M258.311 110.504C401.407 106.171 604.994 262.938 529.318 382.71C505.046 412.706 458.551 407.809 479.517 390.293C490.992 369.936 411.137 353.384 366.143 413.21C321.087 476.785 287.803 564.96 251.538 576.441C166.856 604.48 95.356 521.986 50.3286 451.277C28.0258 425.669 17.7923 387.757 19.3166 345.796C22.5999 216.664 126.124 118.091 258.311 110.504Z" stroke="#0075FF" stroke-width="1.57" stroke-miterlimit="10"/>
<path d="M255.559 115.83C399.274 111.138 604.672 269.033 527.732 388.556C503.075 418.646 455.886 413.275 477.317 395.095C489.199 373.71 408.405 356.254 363.152 416.614C318.063 480.589 285.148 569.937 249.247 582.216C164.536 611.668 91.9575 531.051 47.4047 458.56C25.7058 431.929 15.549 393.812 16.9199 352.176C19.8677 222.524 123.516 123.757 255.559 115.83Z" stroke="#0075FF" stroke-width="1.57" stroke-miterlimit="10"/>
<path d="M252.923 121.032C397.289 116 604.471 275.028 526.294 394.296C501.254 424.491 453.375 418.646 475.27 399.787C487.55 377.384 405.826 359.019 360.315 419.914C315.172 484.308 282.626 574.838 247.109 587.877C162.365 618.726 88.7125 540.016 44.6198 465.738C23.4866 438.084 13.4209 399.767 14.6384 358.46C17.2554 228.305 121.033 129.308 252.923 121.032Z" stroke="#0075FF" stroke-width="1.57" stroke-miterlimit="10"/>
<path d="M250.406 126.123C395.41 120.747 604.389 280.908 524.952 399.922C499.548 430.222 450.954 423.882 473.31 404.379C485.997 380.948 403.329 361.68 357.563 423.114C312.378 487.882 280.206 579.63 245.057 593.428C160.289 625.695 85.5538 548.871 41.926 472.812C21.4111 444.129 11.4077 405.602 12.4622 364.625C14.7629 233.965 118.665 134.799 250.406 126.123Z" stroke="#0075FF" stroke-width="1.57" stroke-miterlimit="10"/>
<path d="M248.01 131.085C393.647 125.355 604.423 286.649 523.729 405.413C497.918 435.803 448.644 429.009 471.474 408.847C484.564 384.387 400.971 364.216 354.941 426.184C309.713 491.351 277.905 584.303 243.13 598.859C158.334 632.518 82.5196 557.602 39.3616 479.73C19.441 450.029 9.50952 411.303 10.4202 370.655C12.3902 239.486 116.412 140.085 248.01 131.085Z" stroke="#0075FF" stroke-width="1.57" stroke-miterlimit="10"/>
<path d="M245.719 135.887C391.998 129.807 604.567 292.234 522.617 410.744C496.423 441.244 446.468 433.966 469.753 413.115C483.246 387.657 398.718 366.557 352.43 429.059C307.158 494.626 275.739 588.795 241.319 604.09C156.479 639.182 79.6007 566.153 36.9029 486.514C17.5814 455.77 7.72662 416.834 8.48395 376.525C10.1232 244.857 114.275 145.237 245.719 135.887Z" stroke="#0075FF" stroke-width="1.57" stroke-miterlimit="10"/>
<path d="M243.543 140.514C390.454 134.085 604.826 297.64 521.62 415.9C495.037 446.5 444.392 438.748 468.138 417.233C482.038 390.732 396.575 368.738 350.028 431.779C304.709 497.745 273.644 593.098 239.617 609.172C154.777 645.676 76.7918 574.524 34.5589 493.108C15.8175 461.35 6.04894 422.215 6.65768 382.221C7.97101 250.049 112.242 150.218 243.543 140.514Z" stroke="#0075FF" stroke-width="1.57" stroke-miterlimit="10"/>
<path d="M241.472 144.947C389.016 138.168 605.185 302.857 520.724 420.862C493.762 451.567 442.422 443.325 466.628 421.152C480.936 393.627 394.538 370.735 347.757 434.305C302.394 500.666 271.698 597.222 238.04 614.054C153.157 651.991 74.1125 582.71 32.3445 499.513C14.1831 466.752 4.48161 427.386 4.93696 387.722C5.91957 255.046 110.32 155.006 241.472 144.947Z" stroke="#0075FF" stroke-width="1.57" stroke-miterlimit="10"/>
<path d="M239.502 149.165C387.684 142.037 605.65 307.858 519.933 425.609C492.583 456.413 440.558 447.708 465.224 424.86C479.934 396.308 392.602 372.507 345.537 436.621C300.136 503.376 269.805 601.135 236.521 618.721C151.609 658.056 71.4857 590.682 30.197 505.687C12.365 471.044 3.1376 432.305 3.35508 392.998C3.9734 259.828 108.499 159.578 239.502 149.165Z" stroke="#0075FF" stroke-width="1.57" stroke-miterlimit="10"/>
<path d="M237.633 153.153C386.447 145.666 606.23 312.626 519.243 430.127C491.51 461.031 438.789 451.851 463.92 428.33C479.033 398.759 390.766 374.049 343.448 438.698C297.998 505.852 268.036 604.809 235.121 623.159C150.185 663.926 68.979 598.424 28.1457 511.677C11.1969 476.82 1.64409 437.075 1.79747 398.065C2.1282 264.38 106.773 163.916 237.633 153.153Z" stroke="#0075FF" stroke-width="1.57" stroke-miterlimit="10"/>
<path d="M518.625 434.39C490.508 465.399 437.097 455.74 462.693 431.554C478.208 400.955 389.007 375.342 341.425 440.54C295.932 508.093 266.339 608.263 233.803 627.362C114.447 686.579 0.373779 537.061 0.373779 402.857C0.373779 268.653 105.148 167.999 235.854 156.887C385.311 149.06 606.868 317.143 518.625 434.39Z" stroke="#0075FF" stroke-width="1.57" stroke-miterlimit="10"/>
</g>
<defs>
<clipPath id="clip0_430_22940">
<rect width="746" height="766.087" fill="white" transform="translate(0 0.0209961)"/>
</clipPath>
</defs>
</svg>
