<svg width="200" height="33" viewBox="0 0 200 33" fill="none" xmlns="http://www.w3.org/2000/svg">
<path d="M117.613 21.4684C117.563 21.5837 117.47 21.6758 117.355 21.7265C117.279 21.7778 117.188 21.8006 117.097 21.791C116.96 21.7776 116.828 21.7335 116.71 21.662C116.533 21.5633 116.36 21.4557 116.194 21.3394C115.963 21.2197 115.726 21.1121 115.484 21.0168C115.189 20.9377 114.886 20.8944 114.581 20.8878C114.297 20.8942 114.015 20.9375 113.742 21.0168C113.509 21.0847 113.291 21.194 113.097 21.3394C112.933 21.4824 112.801 21.6583 112.71 21.8555C112.63 22.0615 112.586 22.2798 112.581 22.5007C112.569 22.6307 112.585 22.7619 112.63 22.8846C112.675 23.0074 112.746 23.1186 112.839 23.2104C113.024 23.4167 113.242 23.5911 113.484 23.7266C113.742 23.8556 114.065 23.9846 114.387 24.1137C114.71 24.2427 115.097 24.3717 115.484 24.5008C115.861 24.6235 116.227 24.7745 116.581 24.9524C116.907 25.13 117.21 25.3467 117.484 25.5976C117.755 25.8545 117.974 26.1611 118.129 26.5008C118.32 26.9262 118.408 27.3902 118.387 27.8557C118.38 28.4086 118.271 28.9555 118.065 29.4687C117.886 29.9567 117.6 30.3978 117.226 30.759C116.841 31.1341 116.379 31.4204 115.871 31.5978C115.272 31.8151 114.638 31.9243 114 31.9204C113.61 31.9093 113.222 31.8661 112.839 31.7913C112.463 31.7225 112.095 31.6144 111.742 31.4687C111.386 31.3227 111.041 31.1502 110.71 30.9526C110.402 30.7516 110.12 30.5132 109.871 30.2429L110.581 29.1461C110.654 29.0664 110.742 29.0008 110.839 28.9525C110.936 28.894 111.05 28.8711 111.161 28.888C111.331 28.8956 111.491 28.9644 111.613 29.0816L112.194 29.4687C112.452 29.5977 112.71 29.7267 113.032 29.8558C113.383 29.9879 113.755 30.0535 114.129 30.0493C114.683 30.0879 115.232 29.9277 115.678 29.5977C115.872 29.4315 116.025 29.2229 116.126 28.988C116.227 28.753 116.272 28.4981 116.258 28.2428C116.272 27.9418 116.181 27.6452 116 27.4041C115.815 27.1978 115.597 27.0234 115.355 26.8879C115.097 26.7589 114.774 26.6299 114.452 26.5008C114.129 26.3718 113.742 26.3073 113.42 26.1782C113.097 26.0492 112.71 25.9202 112.387 25.7911C112.061 25.6135 111.758 25.3968 111.484 25.146C111.197 24.8773 110.977 24.5461 110.839 24.1782C110.494 23.2633 110.494 22.2543 110.839 21.3394C111.02 20.9062 111.283 20.5119 111.613 20.1781C112.017 19.7946 112.493 19.4946 113.014 19.2954C113.534 19.0961 114.088 19.0014 114.645 19.0167C115.346 19.0192 116.042 19.128 116.71 19.3393C117.298 19.5694 117.843 19.8965 118.323 20.3071L117.613 21.4684ZM124.71 31.7913H122.388V19.2103H124.71V31.7913ZM140.066 19.2103V31.7913H138.84C138.686 31.8066 138.531 31.7844 138.388 31.7268C138.244 31.639 138.113 31.5303 138.001 31.4042L131.42 23.0169C131.472 23.3584 131.493 23.7038 131.485 24.0492V31.7913H129.42V19.2103H130.904C130.939 19.206 130.975 19.2095 131.008 19.2207C131.042 19.2318 131.072 19.2503 131.098 19.2748C131.162 19.2748 131.227 19.3393 131.291 19.4038L131.485 19.5974L138.065 28.0493C138.065 27.8557 138.001 27.6622 138.001 27.4686V19.2103H140.066ZM155.163 25.4686V30.5655C154.545 31.0356 153.845 31.3857 153.098 31.5978C152.342 31.8087 151.561 31.9172 150.776 31.9204C149.831 31.9438 148.89 31.7907 148.001 31.4687C147.204 31.1725 146.478 30.7108 145.872 30.1139C145.276 29.5319 144.814 28.8274 144.517 28.0493C144.206 27.225 144.053 26.3495 144.066 25.4686C144.041 24.5867 144.195 23.709 144.517 22.8878C144.831 22.1336 145.267 21.4361 145.808 20.8232C146.39 20.2275 147.094 19.7652 147.872 19.4684C148.74 19.1517 149.659 18.9985 150.582 19.0167C151.058 19.0248 151.532 19.0679 152.001 19.1458C152.419 19.2149 152.83 19.3229 153.227 19.4684C153.59 19.6011 153.936 19.7743 154.26 19.9845C154.551 20.1838 154.831 20.3992 155.098 20.6297L154.453 21.662C154.359 21.8058 154.224 21.9181 154.066 21.9846C153.872 22.0491 153.743 21.9846 153.485 21.8555C153.292 21.7265 153.098 21.662 152.905 21.5329C152.707 21.4086 152.488 21.3212 152.259 21.2749L151.485 21.0813C151.144 21.0257 150.798 21.004 150.453 21.0168C149.878 21.0179 149.309 21.1274 148.775 21.3394C148.284 21.5415 147.843 21.85 147.485 22.2426C147.095 22.6414 146.808 23.1283 146.646 23.662C146.462 24.2459 146.374 24.8563 146.388 25.4686C146.39 26.1269 146.499 26.7806 146.711 27.4041C146.895 27.9423 147.205 28.4289 147.614 28.8235C147.996 29.2179 148.458 29.5259 148.969 29.7267C149.525 29.9387 150.116 30.048 150.711 30.0493C151.123 30.0453 151.533 30.002 151.937 29.9203C152.309 29.81 152.675 29.6808 153.034 29.5332V27.2751H151.421C151.284 27.2617 151.151 27.2176 151.034 27.146C150.953 27.0577 150.907 26.9431 150.905 26.8234V25.4686H155.163ZM166.712 29.8558V31.7913H159.356V19.2103H161.679V29.8558H166.712ZM172.647 21.0813V24.5653H177.034V26.3718H172.647V29.9203H178.26V31.7913H170.325V19.2103H178.26V21.0813H172.647Z" fill="#212121"/>
<path d="M97.3525 9.27446L95.675 4.75819C95.6105 4.56464 95.4815 4.30657 95.417 4.04849C95.3525 3.79042 95.2234 3.46783 95.1589 3.14524C95.0944 3.46783 94.9653 3.79042 94.9008 4.04849C94.8363 4.30657 94.7073 4.56464 94.6428 4.75819L93.0298 9.20994H97.3525V9.27446ZM101.804 14.3714H99.8687C99.6893 14.367 99.513 14.323 99.3526 14.2424C99.2265 14.1299 99.1178 13.9995 99.03 13.8552L97.9977 11.081H92.3846L91.3523 13.8552C91.2894 13.9982 91.202 14.1292 91.0943 14.2424C90.954 14.3716 90.7688 14.441 90.5781 14.4359H88.6426L93.9976 0.887109H96.5783L101.804 14.3714ZM109.805 4.75819V14.3714H108.385C108.317 14.3807 108.248 14.3763 108.182 14.3586C108.116 14.3408 108.054 14.3099 108 14.2679C107.946 14.2258 107.9 14.1733 107.867 14.1135C107.833 14.0537 107.812 13.9879 107.804 13.9198L107.675 13.1455C107.29 13.5235 106.856 13.8489 106.385 14.1133C105.868 14.3844 105.291 14.5177 104.708 14.5004C104.222 14.5147 103.738 14.4268 103.288 14.2424C102.904 14.0428 102.555 13.7812 102.256 13.4681C101.99 13.1118 101.773 12.7211 101.611 12.3068C101.479 11.8233 101.414 11.324 101.417 10.8229V4.69368H103.74V10.8229C103.71 11.3055 103.847 11.7836 104.127 12.1778C104.285 12.3396 104.477 12.4641 104.689 12.5422C104.901 12.6204 105.128 12.6502 105.353 12.6294C105.735 12.6439 106.114 12.5547 106.45 12.3713C106.798 12.1719 107.122 11.9338 107.417 11.6616V4.75819H109.805ZM114.127 14.5004C113.773 14.5184 113.42 14.4648 113.087 14.3429C112.755 14.2209 112.45 14.0331 112.192 13.7907C111.959 13.5281 111.783 13.2213 111.672 12.8887C111.561 12.5561 111.518 12.2046 111.546 11.8552V6.50018H110.579C110.459 6.49776 110.344 6.45189 110.256 6.37115C110.165 6.26367 110.118 6.12491 110.127 5.98404V5.08078L111.676 4.82271L112.192 2.17747C112.192 2.04843 112.256 1.98392 112.385 1.9194C112.474 1.83865 112.588 1.79279 112.708 1.79036H113.934V4.82271H116.514V6.50018H113.934V11.7261C113.919 11.9775 113.987 12.2266 114.127 12.4358C114.192 12.5265 114.281 12.5983 114.383 12.6436C114.485 12.689 114.597 12.7063 114.708 12.6939C114.84 12.7041 114.973 12.682 115.095 12.6294C115.224 12.5649 115.289 12.5649 115.353 12.5004C115.418 12.4358 115.482 12.4358 115.547 12.3713C115.602 12.3294 115.67 12.3068 115.74 12.3068C115.81 12.3068 115.878 12.3294 115.934 12.3713C115.998 12.3713 115.998 12.4358 116.063 12.5004L116.772 13.5972C116.432 13.8869 116.037 14.1062 115.611 14.2424C115.137 14.4216 114.634 14.5091 114.127 14.5004ZM120.966 4.62916C121.625 4.63122 122.278 4.74016 122.902 4.95175C123.451 5.18201 123.954 5.5099 124.386 5.91952C124.782 6.38577 125.108 6.90743 125.353 7.46795C125.57 8.13466 125.679 8.83158 125.676 9.53253C125.673 10.2331 125.565 10.9292 125.353 11.5971C125.173 12.1894 124.839 12.7236 124.386 13.1455C123.988 13.597 123.475 13.9315 122.902 14.1133C122.286 14.3558 121.627 14.4657 120.966 14.4359C120.308 14.4338 119.654 14.3249 119.031 14.1133C118.482 13.8831 117.979 13.5552 117.547 13.1455C117.15 12.6793 116.824 12.1576 116.579 11.5971C116.362 10.9304 116.254 10.2335 116.256 9.53253C116.259 8.83198 116.368 8.13587 116.579 7.46795C116.824 6.90743 117.15 6.38578 117.547 5.91952C117.944 5.4681 118.457 5.13352 119.031 4.95175C119.654 4.74016 120.308 4.63122 120.966 4.62916ZM120.966 12.7584C121.298 12.7881 121.633 12.7326 121.938 12.5972C122.242 12.4617 122.508 12.2507 122.708 11.9842C123.151 11.2708 123.355 10.4343 123.289 9.59705C123.346 8.76052 123.143 7.92685 122.708 7.20988C122.507 6.93969 122.244 6.72225 121.94 6.57617C121.637 6.43009 121.303 6.35974 120.966 6.37115C120.618 6.33814 120.267 6.39842 119.949 6.54581C119.632 6.69321 119.359 6.9224 119.16 7.20988C118.725 7.92684 118.522 8.76052 118.579 9.59705C118.531 10.4328 118.733 11.2639 119.16 11.9842C119.383 12.2406 119.662 12.4433 119.975 12.5773C120.287 12.7114 120.626 12.7733 120.966 12.7584ZM128.902 2.82265V6.62922H133.612V8.56476H128.902V12.3713H134.902V14.3714H126.386V0.82259H134.902V2.82265H128.902ZM137.612 5.91952C137.789 5.7298 137.983 5.557 138.192 5.40338C138.404 5.2162 138.643 5.06375 138.902 4.95175C139.15 4.83695 139.409 4.75039 139.676 4.69368C139.971 4.61461 140.274 4.57129 140.58 4.56464C141.066 4.55033 141.549 4.63826 141.999 4.82271C142.383 5.02224 142.732 5.28382 143.031 5.59693C143.298 5.95331 143.515 6.34393 143.677 6.75826C143.813 7.2409 143.878 7.74076 143.87 8.24217V14.3714H141.547V8.24217C141.577 7.75959 141.44 7.28146 141.16 6.88729C141.011 6.71053 140.822 6.5716 140.609 6.48189C140.396 6.39217 140.165 6.35422 139.934 6.37115C139.552 6.35669 139.173 6.44586 138.838 6.62922C138.489 6.82867 138.165 7.06674 137.87 7.33892V14.3714H135.547V4.75819H136.967C137.035 4.74889 137.104 4.75325 137.17 4.77103C137.236 4.78881 137.298 4.81965 137.352 4.86173C137.406 4.90381 137.451 4.95628 137.485 5.01606C137.518 5.07584 137.54 5.14172 137.547 5.20982L137.612 5.91952ZM147.999 14.5004C147.645 14.5184 147.292 14.4648 146.959 14.3429C146.627 14.2209 146.322 14.0331 146.064 13.7907C145.831 13.5281 145.655 13.2213 145.544 12.8887C145.433 12.5561 145.39 12.2046 145.418 11.8552V6.50018H144.451C144.331 6.49776 144.216 6.45189 144.128 6.37115C144.037 6.26367 143.99 6.12491 143.999 5.98404V5.08078L145.548 4.82271L146.064 2.17747C146.064 2.04843 146.128 1.98392 146.257 1.9194C146.346 1.83865 146.46 1.79279 146.58 1.79036H147.806V4.82271H150.386V6.50018H147.806V11.7261C147.791 11.9775 147.859 12.2266 147.999 12.4358C148.064 12.5265 148.153 12.5983 148.255 12.6436C148.357 12.689 148.469 12.7063 148.58 12.6939C148.712 12.7041 148.845 12.682 148.967 12.6294C149.096 12.5649 149.161 12.5649 149.225 12.5004C149.29 12.4358 149.354 12.4358 149.419 12.3713C149.474 12.3294 149.542 12.3068 149.612 12.3068C149.682 12.3068 149.75 12.3294 149.806 12.3713C149.87 12.3713 149.87 12.4358 149.935 12.5004L150.644 13.5972C150.304 13.8869 149.909 14.1062 149.483 14.2424C149.007 14.4113 148.505 14.4986 147.999 14.5004ZM156.709 8.50024C156.703 8.21625 156.659 7.93429 156.58 7.66151C156.517 7.39465 156.383 7.14962 156.193 6.95181C156.023 6.74557 155.8 6.58947 155.548 6.50018C155.265 6.36814 154.956 6.30196 154.645 6.30663C154.36 6.28711 154.074 6.32884 153.807 6.42901C153.54 6.52917 153.298 6.68545 153.096 6.88729C152.672 7.32113 152.42 7.89434 152.386 8.50024H156.709ZM152.322 9.85512C152.364 10.2929 152.451 10.7252 152.58 11.1455C152.698 11.4742 152.873 11.7798 153.096 12.0487C153.311 12.2781 153.576 12.4547 153.87 12.5649C154.198 12.697 154.549 12.7628 154.903 12.7584C155.229 12.7561 155.555 12.7127 155.87 12.6294C156.128 12.5649 156.387 12.4358 156.58 12.3713C156.745 12.2724 156.918 12.1861 157.096 12.1133C157.237 12.0408 157.39 11.997 157.548 11.9842C157.633 11.9818 157.717 11.9979 157.795 12.0313C157.873 12.0648 157.943 12.1147 158 12.1778L158.645 13.0165C158.414 13.3234 158.13 13.5857 157.806 13.7907C157.482 14.001 157.136 14.1741 156.774 14.3069C156.438 14.4231 156.092 14.5095 155.741 14.5649C155.4 14.6166 155.054 14.6382 154.709 14.6295C154.072 14.622 153.441 14.5131 152.838 14.3069C152.277 14.1007 151.769 13.7698 151.354 13.3391C150.901 12.8794 150.55 12.33 150.322 11.7261C150.047 11.006 149.915 10.2388 149.935 9.46801C149.942 8.83116 150.051 8.19957 150.257 7.59699C150.441 7.03969 150.75 6.53198 151.161 6.11307C151.561 5.67839 152.043 5.3275 152.58 5.08078C153.191 4.8166 153.85 4.68467 154.516 4.69368C155.086 4.67961 155.654 4.76699 156.193 4.95175C156.689 5.11422 157.134 5.40333 157.483 5.79048C157.858 6.17551 158.145 6.63796 158.322 7.14536C158.539 7.74506 158.649 8.37855 158.645 9.01639C158.652 9.2594 158.608 9.50124 158.516 9.72609C158.451 9.85512 158.322 9.91964 158.064 9.91964H152.322V9.85512ZM161.613 6.43566C161.871 5.90699 162.246 5.44376 162.709 5.08078C163.128 4.73993 163.653 4.55721 164.193 4.56464C164.576 4.54245 164.957 4.63212 165.29 4.82271L165.161 6.5647C165.16 6.61461 165.148 6.66368 165.126 6.70833C165.103 6.75298 165.071 6.79208 165.032 6.82277C164.967 6.88729 164.903 6.88729 164.774 6.88729C164.621 6.8897 164.469 6.86792 164.322 6.82277C164.129 6.82277 163.935 6.75826 163.806 6.75826C163.565 6.76985 163.326 6.81324 163.096 6.88729C162.903 6.95581 162.727 7.06592 162.58 7.20988C162.414 7.36753 162.263 7.54032 162.129 7.72603C161.983 7.9433 161.874 8.18307 161.806 8.43572V14.3714H159.483V4.75819H160.838C161.019 4.75378 161.197 4.79837 161.354 4.88723C161.443 5.02646 161.508 5.17893 161.548 5.33886L161.613 6.43566ZM167.613 11.8552C167.828 12.1428 168.118 12.3659 168.451 12.5004C168.779 12.6325 169.13 12.6983 169.484 12.6939C169.816 12.6921 170.144 12.6263 170.452 12.5004C170.73 12.3639 170.972 12.1652 171.161 11.9197C171.374 11.6062 171.527 11.2563 171.613 10.8874C171.726 10.4232 171.769 9.94492 171.742 9.46801C171.74 8.99204 171.697 8.51712 171.613 8.04862C171.564 7.69952 171.431 7.36748 171.226 7.08085C171.077 6.83899 170.849 6.65647 170.581 6.5647C170.321 6.43276 170.033 6.36632 169.742 6.37115C169.312 6.37025 168.89 6.48144 168.516 6.69374C168.148 6.91567 167.82 7.1994 167.548 7.53247V11.8552H167.613ZM167.484 6.11307C167.875 5.67917 168.333 5.30911 168.839 5.01627C169.381 4.75228 169.978 4.61966 170.581 4.62916C171.072 4.62918 171.557 4.73941 172 4.95175C172.462 5.14498 172.847 5.48512 173.097 5.91952C173.459 6.36823 173.703 6.9006 173.806 7.46795C174 8.13849 174.087 8.8351 174.065 9.53253C174.078 10.2083 173.991 10.8824 173.806 11.5326C173.632 12.1187 173.347 12.6661 172.968 13.1455C172.615 13.5763 172.175 13.928 171.677 14.1778C171.156 14.4347 170.581 14.5672 170 14.5649C169.534 14.5856 169.07 14.4972 168.645 14.3069C168.263 14.1309 167.914 13.8909 167.613 13.5972V17.5328H165.29V4.75819H166.709C166.777 4.74889 166.846 4.75325 166.913 4.77103C166.979 4.78881 167.041 4.81965 167.095 4.86173C167.149 4.90381 167.194 4.95628 167.228 5.01606C167.261 5.07584 167.282 5.14172 167.29 5.20982L167.484 6.11307ZM176.968 6.43566C177.226 5.90698 177.601 5.44376 178.065 5.08078C178.483 4.73992 179.009 4.55721 179.549 4.56464C179.931 4.54245 180.313 4.63212 180.645 4.82271L180.516 6.5647C180.515 6.61461 180.503 6.66368 180.481 6.70833C180.459 6.75298 180.427 6.79208 180.387 6.82277C180.323 6.88729 180.258 6.88729 180.129 6.88729C179.976 6.8897 179.824 6.86792 179.678 6.82277C179.484 6.82277 179.29 6.75826 179.161 6.75826C178.92 6.76399 178.68 6.80753 178.452 6.88729C178.258 6.95581 178.082 7.06592 177.936 7.20988C177.769 7.36753 177.618 7.54032 177.484 7.72603C177.338 7.9433 177.229 8.18307 177.161 8.43572V14.3714H174.839V4.75819H176.194C176.374 4.75378 176.553 4.79837 176.71 4.88723C176.798 5.02645 176.863 5.17893 176.903 5.33886L176.968 6.43566ZM183.033 4.75819V14.3714H180.71V4.75819H183.033ZM183.355 1.98392C183.343 2.18308 183.3 2.37908 183.226 2.56458C183.157 2.73906 183.046 2.89406 182.904 3.01621C182.781 3.15878 182.626 3.26949 182.452 3.3388C182.27 3.42378 182.072 3.46783 181.871 3.46783C181.671 3.46783 181.472 3.42378 181.291 3.3388C181.116 3.26948 180.961 3.15877 180.839 3.01621C180.696 2.89406 180.586 2.73906 180.516 2.56458C180.443 2.37908 180.399 2.18308 180.387 1.98392C180.399 1.78475 180.443 1.58875 180.516 1.40325C180.586 1.22877 180.696 1.07377 180.839 0.951626C180.961 0.809056 181.116 0.698343 181.291 0.629036C181.472 0.544049 181.671 0.5 181.871 0.5C182.072 0.5 182.27 0.544049 182.452 0.629036C182.626 0.698348 182.781 0.809061 182.904 0.951626C183.046 1.07377 183.157 1.22877 183.226 1.40325C183.33 1.57823 183.375 1.78158 183.355 1.98392ZM190.13 6.62922C190.065 6.75825 190 6.82277 189.936 6.82277C189.871 6.88729 189.807 6.88729 189.678 6.88729C189.546 6.8975 189.413 6.87536 189.291 6.82277C189.146 6.74658 188.995 6.68186 188.839 6.62922L188.258 6.43566C188.005 6.37637 187.744 6.35463 187.484 6.37115C187.101 6.34077 186.717 6.43099 186.387 6.62922C186.264 6.71659 186.165 6.83292 186.097 6.96794C186.03 7.10296 185.996 7.25253 186 7.40344C185.995 7.59412 186.065 7.77929 186.194 7.91958C186.354 8.06389 186.527 8.19345 186.71 8.30669C186.95 8.44076 187.212 8.52832 187.484 8.56476C187.742 8.62928 188.065 8.75832 188.323 8.82283C188.646 8.95187 188.904 9.01639 189.162 9.14542C189.448 9.27137 189.71 9.44601 189.936 9.66157C190.143 9.87022 190.318 10.1096 190.452 10.3713C190.591 10.6745 190.657 11.0058 190.646 11.339C190.66 11.7833 190.572 12.2249 190.388 12.6294C190.212 13.0115 189.972 13.3606 189.678 13.6617C189.322 13.9648 188.903 14.1852 188.452 14.3069C187.908 14.4705 187.343 14.5574 186.775 14.5649C186.451 14.5756 186.126 14.554 185.807 14.5004C185.496 14.4531 185.192 14.3664 184.904 14.2424C184.639 14.1263 184.381 13.9971 184.129 13.8552C183.904 13.7201 183.688 13.5692 183.484 13.4036L184.129 12.4358C184.18 12.3206 184.272 12.2285 184.387 12.1778C184.452 12.1133 184.581 12.1133 184.775 12.1133C184.912 12.1266 185.044 12.1708 185.162 12.2423C185.304 12.3421 185.455 12.4285 185.613 12.5004C185.807 12.5649 186 12.6939 186.194 12.7584C186.467 12.8377 186.749 12.8811 187.033 12.8875C187.271 12.9011 187.51 12.8794 187.742 12.823C187.932 12.7768 188.108 12.6886 188.258 12.5649C188.366 12.4518 188.454 12.3208 188.517 12.1778C188.574 12.0346 188.596 11.8797 188.581 11.7261C188.576 11.5176 188.509 11.3153 188.388 11.1455C188.228 11.0012 188.055 10.8716 187.871 10.7584C187.632 10.6243 187.369 10.5367 187.097 10.5003C186.839 10.4358 186.517 10.3067 186.258 10.2422C185.936 10.1132 185.678 10.0487 185.42 9.91964C185.147 9.77026 184.888 9.59757 184.645 9.4035C184.423 9.18293 184.247 8.91956 184.129 8.62928C183.992 8.28047 183.926 7.90739 183.936 7.53247C183.921 7.15029 184.011 6.77131 184.194 6.43566C184.334 6.06984 184.581 5.75494 184.904 5.53241C185.26 5.26618 185.651 5.04917 186.065 4.88723C186.558 4.69725 187.085 4.60945 187.613 4.62916C188.23 4.63076 188.841 4.73993 189.42 4.95175C189.915 5.15383 190.373 5.43732 190.775 5.79048L190.13 6.62922ZM197.549 8.50024C197.543 8.21625 197.499 7.93429 197.42 7.66151C197.357 7.39465 197.223 7.14962 197.033 6.95181C196.863 6.74557 196.64 6.58947 196.388 6.50018C196.105 6.36814 195.796 6.30196 195.485 6.30663C194.891 6.27963 194.311 6.48837 193.872 6.88729C193.447 7.32113 193.195 7.89434 193.162 8.50024H197.549ZM193.162 9.85512C193.204 10.2929 193.291 10.7252 193.42 11.1455C193.538 11.4742 193.713 11.7798 193.936 12.0487C194.151 12.2781 194.416 12.4547 194.71 12.5649C195.038 12.697 195.389 12.7628 195.743 12.7584C196.069 12.7561 196.394 12.7127 196.71 12.6294C196.968 12.5649 197.227 12.4358 197.42 12.3713C197.585 12.2724 197.758 12.1861 197.936 12.1133C198.077 12.0408 198.23 11.997 198.388 11.9842C198.473 11.9819 198.557 11.9979 198.635 12.0314C198.713 12.0648 198.783 12.1147 198.839 12.1778L199.485 13.0165C199.254 13.3234 198.97 13.5857 198.646 13.7907C198.322 14.001 197.976 14.1741 197.614 14.3069C197.278 14.4231 196.932 14.5095 196.581 14.5649C196.24 14.6166 195.894 14.6382 195.549 14.6295C194.912 14.622 194.281 14.5131 193.678 14.3069C193.117 14.1007 192.609 13.7698 192.194 13.3391C191.741 12.8794 191.389 12.33 191.162 11.7261C190.886 11.006 190.755 10.2388 190.775 9.46801C190.782 8.83116 190.891 8.19957 191.097 7.59699C191.281 7.03968 191.59 6.53198 192.001 6.11307C192.401 5.67838 192.883 5.3275 193.42 5.08078C194.031 4.8166 194.69 4.68467 195.355 4.69368C195.926 4.67961 196.494 4.76699 197.033 4.95175C197.529 5.11422 197.974 5.40333 198.323 5.79048C198.698 6.17551 198.985 6.63795 199.162 7.14536C199.379 7.74506 199.489 8.37855 199.485 9.01639C199.492 9.2594 199.448 9.50124 199.356 9.72609C199.291 9.85512 199.162 9.91964 198.904 9.91964H193.162V9.85512Z" fill="#212121"/>
<path d="M49.741 26.0488H60.451C60.9698 27.4259 61.9291 28.5931 63.1798 29.3688C64.4304 30.1445 65.9022 30.4852 67.3665 30.3381C68.8308 30.1909 70.2054 29.5641 71.2766 28.555C72.3479 27.546 73.0557 26.2113 73.2901 24.7584C74.0453 24.8039 74.8032 24.7606 75.5482 24.6294C76.3136 23.8106 77.0045 22.9254 77.6128 21.9841C77.795 21.4005 77.8608 20.7867 77.8064 20.1776C77.8064 19.5325 77.3548 16.4356 76.6451 15.4033C76.4515 15.0807 75.6128 11.4677 75.4837 11.2741C73.3856 9.62267 71.164 8.13439 68.8384 6.8224C69.161 6.30625 69.7416 5.53203 69.8061 5.33848C69.8061 5.33848 69.9352 5.08041 69.6126 5.01589C69.1893 4.88263 68.7584 4.7749 68.3222 4.6933L66.5157 4.37071L58.1929 3.20938C55.3541 2.95131 52.5153 2.69324 49.741 2.69324C47.2248 2.69324 44.9022 2.69324 42.4505 2.88679C40.2193 3.08737 38.0008 3.41044 35.8051 3.85456C34.8373 4.04812 30.192 6.17721 28.8372 6.8224C27.1597 7.66113 25.6758 8.43535 23.9983 9.27408C22.3639 10.0299 20.6231 10.5304 18.8369 10.758C16.5142 11.0806 14.3851 11.5967 12.1915 12.0484C10.4749 12.5256 8.81058 13.174 7.22361 13.9839C6.23909 14.6411 5.29139 15.3519 4.38481 16.113C4.25578 16.3066 3.73963 18.2421 3.35252 18.4357C3.2054 18.5237 3.08166 18.6459 2.99181 18.7919C2.90196 18.9379 2.84864 19.1034 2.83638 19.2744C2.81692 20.2031 2.88171 21.1317 3.02993 22.0487C3.06484 22.2567 3.18086 22.4423 3.35252 22.5648V23.7261C3.33256 23.8369 3.35454 23.9511 3.41417 24.0465C3.47381 24.1419 3.56683 24.2117 3.67511 24.2423C6.33868 25.1452 9.12214 25.6454 11.9334 25.7262C12.3595 27.0304 13.1789 28.1707 14.2791 28.9905C15.3792 29.8103 16.7063 30.2695 18.0778 30.3048C19.4494 30.3402 20.7983 29.95 21.9393 29.188C23.0802 28.4259 23.9572 27.3293 24.4499 26.0488H30.3856" stroke="#212121" stroke-width="3.63566" stroke-linecap="round" stroke-linejoin="round"/>
<path d="M46.3201 30.8887H42.1909C42.0571 30.8796 41.931 30.8223 41.8361 30.7274C41.7412 30.6325 41.6839 30.5064 41.6748 30.3725V21.7271C41.6839 21.5932 41.7412 21.4671 41.8361 21.3722C41.931 21.2774 42.0571 21.2201 42.1909 21.211H46.3201C46.7283 21.2056 47.1334 21.2821 47.5115 21.4358C47.8896 21.5896 48.2332 21.8175 48.5218 22.1061C48.8104 22.3948 49.0383 22.7383 49.1921 23.1164C49.3458 23.4946 49.4223 23.8997 49.417 24.3078V27.7918C49.4058 28.6097 49.076 29.3909 48.4976 29.9693C47.9192 30.5477 47.138 30.8775 46.3201 30.8887Z" stroke="#212121" stroke-width="3.63566" stroke-linejoin="round"/>
<path d="M34.0588 24.3075H38.5105C38.6982 24.3058 38.8778 24.2305 39.0105 24.0978C39.1433 23.965 39.2186 23.7855 39.2202 23.5978V22.759C39.2186 22.5713 39.1433 22.3917 39.0105 22.259C38.8778 22.1263 38.6982 22.051 38.5105 22.0493H34.0588C33.7706 22.0578 33.4965 22.1761 33.2926 22.38C33.0887 22.5838 32.9704 22.8579 32.962 23.1461V23.2106C32.9607 23.355 32.9882 23.4982 33.0429 23.6318C33.0976 23.7655 33.1783 23.8869 33.2804 23.989C33.3825 24.0911 33.5039 24.1718 33.6376 24.2265C33.7712 24.2812 33.9144 24.3087 34.0588 24.3075Z" fill="#212121"/>
<path d="M34.0588 29.9852H38.575C38.746 29.9848 38.9099 29.9167 39.0308 29.7958C39.1518 29.6749 39.2198 29.511 39.2202 29.34V28.4367C39.2198 28.2657 39.1518 28.1018 39.0308 27.9809C38.9099 27.86 38.746 27.7919 38.575 27.7915H34.0588C33.9144 27.7903 33.7712 27.8178 33.6376 27.8725C33.5039 27.9272 33.3825 28.0079 33.2804 28.11C33.1783 28.2121 33.0976 28.3335 33.0429 28.4671C32.9882 28.6008 32.9607 28.744 32.962 28.8884V28.9529C32.9731 29.2343 33.0943 29.5001 33.2994 29.6932C33.5045 29.8862 33.7772 29.9911 34.0588 29.9852Z" fill="#212121"/>
</svg>
