<svg width="180" height="44" viewBox="0 0 180 44" fill="none" xmlns="http://www.w3.org/2000/svg">
<path fill-rule="evenodd" clip-rule="evenodd" d="M20.5022 35.1994H16.5821V20.7966C16.5821 17.2925 13.7479 14.4401 10.2668 14.4401C6.75044 14.4401 3.92012 17.2925 3.92012 20.7966V35.1994H0V20.7966C0 15.0717 4.59046 10.417 10.2354 10.417C15.9078 10.417 20.5022 15.0717 20.5022 20.7966V35.1994ZM40.7457 36.3701C33.6777 36.3701 27.9269 30.4722 27.9269 23.2186C27.9269 15.9689 33.6777 10.067 40.7457 10.067C44.7481 10.067 48.4526 11.9337 50.8988 15.1884L47.7901 17.6506C46.0927 15.3855 43.5251 14.0901 40.7457 14.0901C35.8416 14.0901 31.847 18.1856 31.847 23.2186C31.847 28.2515 35.8416 32.347 40.7457 32.347C43.5251 32.347 46.0927 31.0516 47.7941 28.7906L50.8949 31.2527C48.4487 34.5034 44.7481 36.3701 40.7457 36.3701ZM167.181 36.3697C160.113 36.3697 154.362 30.4718 154.362 23.2222C154.362 15.9685 160.113 10.0666 167.181 10.0666C174.249 10.0666 180 15.9685 180 23.2222C180 30.4718 174.249 36.3697 167.181 36.3697ZM167.181 14.0897C162.277 14.0897 158.283 18.1893 158.283 23.2222C158.283 28.2551 162.277 32.3466 167.181 32.3466C172.085 32.3466 176.08 28.2551 176.08 23.2222C176.08 18.1893 172.085 14.0897 167.181 14.0897ZM62.5858 35.1994H58.6657V19.6702C58.6657 14.6453 62.6486 10.5578 67.5448 10.5578H72.9977V14.5809H67.5448C64.8086 14.5809 62.5858 16.862 62.5858 19.6702V35.1994ZM150.36 10.5578V14.5809H143.99V35.1994H140.07V0.5H143.99V10.5578H150.36ZM119.481 10.067C126.549 10.067 132.3 15.9689 132.3 23.2186C132.3 30.4722 126.549 36.3701 119.481 36.3701C117.709 36.3701 116.035 35.9678 114.503 35.292V43.998H110.583V10.4733H114.503V11.1412C116.035 10.4693 117.709 10.067 119.481 10.067ZM119.481 32.347C124.385 32.347 128.38 28.2515 128.38 23.2186C128.38 18.1856 124.385 14.0901 119.481 14.0901C117.615 14.0901 115.93 14.7338 114.503 15.7476V30.6855C115.93 31.7033 117.615 32.347 119.481 32.347ZM84.7169 44L89.8326 32.7554L79.3345 10.5558H83.6898L91.9691 28.0564L99.923 10.5558H104.243L89.0408 44H84.7169Z" fill="#212121"/>
</svg>
