<svg width="157" height="66" viewBox="0 0 157 66" fill="none" xmlns="http://www.w3.org/2000/svg">
<path d="M52.6714 29.9214C51.7086 29.9214 50.8833 30.7463 50.8833 31.7086V34.8707C50.8833 35.8331 51.7086 36.658 52.6714 36.658C53.6342 36.658 54.4595 35.8331 54.4595 34.8707V31.7086C54.4595 30.7463 53.6342 29.9214 52.6714 29.9214ZM30.2518 28.684L24.6125 34.1833L20.8988 30.4713C20.2111 29.7839 19.1107 29.7839 18.423 30.4713C17.7353 31.1587 17.7353 32.2586 18.423 32.946L23.5121 38.0328C24.1998 38.7203 25.3002 38.7203 25.9879 38.0328L32.8651 31.1587C33.5528 30.4713 33.5528 29.3714 32.8651 28.684C32.0398 27.9966 30.9395 27.9966 30.2518 28.684ZM24.75 47.2442C17.0475 47.2442 10.7205 40.92 10.7205 33.2209C10.7205 25.5219 17.0475 19.1977 24.75 19.1977C32.4525 19.1977 38.7795 25.5219 38.7795 33.2209C38.7795 40.92 32.4525 47.2442 24.75 47.2442ZM24.75 15.7606C14.9844 15.7606 7.1444 23.5971 7.1444 33.3584C7.1444 43.1197 14.9844 50.9562 24.75 50.9562C34.5156 50.9562 42.3556 43.1197 42.3556 33.3584C42.3556 23.5971 34.5156 15.7606 24.75 15.7606ZM24.75 53.5684C23.7872 53.5684 22.9619 54.3933 22.9619 55.3557C22.9619 56.3181 23.7872 57.143 24.75 57.143C27.9135 57.143 30.9395 56.5931 33.6903 55.3557V60.855C33.6903 61.6799 33.0026 62.3673 32.1774 62.3673H17.3226C16.4974 62.3673 15.8097 61.6799 15.8097 60.855V51.9186C15.8097 51.7811 15.6721 51.6437 15.6721 51.6437C15.6721 51.6437 15.6721 51.5062 15.5346 51.5062C15.5346 51.5062 15.5346 51.3687 15.397 51.3687L15.2595 51.2312C15.1219 51.0937 14.9844 51.0937 14.9844 50.9562C8.51984 47.3817 4.53106 40.645 4.53106 33.2209C4.39352 22.0848 13.4714 12.8735 24.75 12.8735C25.7128 12.8735 26.5381 12.0486 26.5381 11.0862C26.5381 10.1238 25.7128 9.29891 24.75 9.29891C21.5865 9.29891 18.5605 9.84884 15.8097 11.0862V5.58687C15.8097 4.76197 16.4974 4.07456 17.3226 4.07456H32.1774C33.0026 4.07456 33.6903 4.76197 33.6903 5.58687V14.3858C33.6903 14.5233 33.6903 14.5233 33.8279 14.6607C33.8279 14.6607 33.8279 14.7982 33.9654 14.7982C33.9654 14.7982 33.9654 14.9357 34.103 14.9357L34.2405 15.0732L34.3781 15.2107C34.5156 15.3482 34.6532 15.3482 34.6532 15.4856C36.1661 16.3105 37.6791 17.4104 38.917 18.6478C42.9058 22.4973 45.1065 27.7216 44.9689 33.2209C45.1065 44.3571 35.891 53.5684 24.75 53.5684ZM37.2665 12.8735V5.58687C37.2665 2.69973 34.9282 0.5 32.1774 0.5H17.3226C14.5718 0.5 12.2335 2.83721 12.2335 5.58687V12.8735C5.35633 17.1354 0.817383 24.697 0.817383 33.2209C0.817383 41.4699 5.21878 49.169 12.2335 53.5684V60.855C12.2335 63.7422 14.5718 65.9419 17.3226 65.9419H32.1774C35.0658 65.9419 37.2665 63.6047 37.2665 60.855V53.5684C44.1437 49.3064 48.6826 41.8824 48.6826 33.2209C48.6826 26.7592 46.0693 20.71 41.5303 16.1731C40.1549 14.9357 38.7795 13.8358 37.2665 12.8735ZM73.9907 49.0315C73.578 49.4439 73.0279 49.5814 72.3401 49.5814H68.3514V45.3194H72.2026C72.8903 45.3194 73.4405 45.4569 73.8531 45.7319C74.2658 46.0069 74.5408 46.5568 74.5408 47.3817C74.5408 48.0691 74.4033 48.619 73.9907 49.0315ZM68.4889 39.2702H72.0651C72.6152 39.2702 73.0279 39.4077 73.303 39.6826C73.578 39.9576 73.7156 40.3701 73.7156 41.0575C73.7156 41.6074 73.578 41.8824 73.1654 42.2948C72.7528 42.7073 72.4777 42.7073 72.0651 42.7073H68.3514L68.4889 39.2702ZM74.8159 43.5322C75.3661 43.2572 75.7787 42.8448 76.1914 42.2948C76.4665 41.7449 76.604 41.195 76.604 40.5075C76.604 37.8954 75.2286 36.658 72.4777 36.658H66.9759C66.5633 36.658 66.2882 36.7955 66.0131 37.0705C65.7381 37.3454 65.6005 37.6204 65.6005 38.0328V50.6813C65.6005 51.3687 66.1507 52.0561 66.8384 52.0561H72.3401C73.7156 52.0561 74.9535 51.7811 75.9163 51.0937C76.8791 50.4063 77.4293 49.169 77.4293 47.5192C77.4293 46.5568 77.1542 45.7319 76.7416 45.0445C76.1914 44.3571 75.5037 43.8071 74.8159 43.5322ZM83.0686 46.1443L85.2693 41.0575L87.47 46.1443H83.0686ZM86.5072 37.4829C86.3696 36.933 85.8194 36.658 85.2693 36.658C84.9942 36.658 84.7191 36.658 84.444 36.7955C84.1689 36.933 84.0314 37.208 83.8938 37.4829L78.3921 50.5438V50.9562C78.3921 51.3687 78.5296 51.6437 78.6672 51.7811C78.8047 51.9186 79.2173 52.0561 79.4924 52.0561C79.7675 52.0561 79.9051 51.9186 80.1801 51.7811C80.4552 51.6437 80.5928 51.3687 80.5928 51.0937L81.9682 48.619H88.4328L89.5331 51.2312C89.6707 51.5062 89.8082 51.7811 90.0833 51.9186C90.3584 52.0561 90.4959 52.1936 90.771 52.1936C91.0461 52.1936 91.3212 52.0561 91.5963 51.7811C91.8714 51.5062 92.0089 51.2312 92.0089 50.8188C92.0089 50.6813 92.0089 50.4063 91.8714 50.2688L86.5072 37.4829ZM102.187 43.9446C101.499 43.6697 100.399 43.2572 99.1612 43.1197C98.0608 42.9822 97.2356 42.7073 96.6854 42.2948C96.1352 42.0199 95.8601 41.4699 95.8601 40.92C95.8601 40.3701 96.1352 39.9576 96.5479 39.5452C96.9605 39.1327 97.7857 38.9952 98.7486 38.9952C99.2987 38.9952 99.8489 39.1327 100.537 39.4077C101.224 39.6826 101.775 39.9576 102.187 40.2326C102.325 40.3701 102.6 40.3701 102.737 40.3701C103.012 40.3701 103.425 40.2326 103.563 39.9576C103.838 39.6826 103.975 39.4077 103.975 39.1327C103.975 38.7203 103.7 38.3078 103.288 38.0328C102.737 37.6204 102.05 37.208 101.224 36.933C100.399 36.658 99.5738 36.5205 98.611 36.5205C97.6482 36.5205 96.6854 36.658 95.8601 37.0705C95.0349 37.4829 94.3472 37.8954 93.9345 38.5828C93.3843 39.2702 93.2468 40.0951 93.2468 40.92C93.2468 43.3947 94.8973 44.907 98.0608 45.3194C99.2987 45.4569 100.262 45.7319 100.812 46.1443C101.362 46.5568 101.637 46.9692 101.637 47.6567C101.637 48.2066 101.362 48.619 100.812 49.0315C100.262 49.4439 99.5738 49.5814 98.7486 49.5814C97.9233 49.5814 97.3731 49.4439 96.823 49.3065C96.2728 49.0315 95.7226 48.7565 95.1724 48.2066C94.8973 48.0691 94.7598 47.9316 94.4847 47.9316C94.0721 47.9316 93.797 48.0691 93.5219 48.3441C93.2468 48.619 93.1093 48.894 93.1093 49.169C93.1093 49.5814 93.2468 49.9939 93.6594 50.2688C94.3472 50.9562 95.1724 51.3687 95.9977 51.6437C96.8229 51.9186 97.7857 52.0561 98.7486 52.0561C99.7114 52.0561 100.674 51.9186 101.499 51.5062C102.325 51.0937 103.012 50.5438 103.563 49.8564C104.113 49.169 104.388 48.3441 104.388 47.3817C104.388 46.4193 104.25 45.5944 103.838 45.0445C103.563 44.7695 103.012 44.2196 102.187 43.9446ZM115.666 39.2702C116.079 39.2702 116.354 39.1327 116.629 38.9952C116.904 38.7203 117.042 38.4453 117.042 38.1703C117.042 37.7579 116.904 37.4829 116.629 37.208C116.354 36.933 116.079 36.7955 115.666 36.7955H108.377C107.964 36.7955 107.689 36.933 107.414 37.208C107.139 37.4829 107.001 37.7579 107.001 38.1703V50.8188C107.001 51.5062 107.551 52.1936 108.239 52.1936H115.529C115.942 52.1936 116.217 52.0561 116.492 51.7811C116.767 51.5062 116.904 51.2312 116.904 50.8188C116.904 50.5438 116.767 50.1314 116.492 49.9939C116.217 49.7189 115.942 49.5814 115.529 49.5814H109.615V45.5944H114.566C114.979 45.5944 115.254 45.4569 115.529 45.3194C115.804 45.0445 115.942 44.7695 115.942 44.4945C115.942 44.0821 115.804 43.8071 115.529 43.5322C115.254 43.2572 114.979 43.1197 114.566 43.1197H109.615V39.4077L115.666 39.2702ZM103.563 20.71C103.425 21.1224 103.15 21.3974 103.012 21.6724C102.737 21.9473 102.462 22.0848 102.187 22.0848H97.3731V17.1354H102.187C102.462 17.1354 102.737 17.2729 103.012 17.4104C103.288 17.5479 103.425 17.8229 103.563 18.2353C103.7 18.5103 103.838 18.9227 103.838 19.3352C103.7 19.8851 103.7 20.2975 103.563 20.71ZM107.139 28.2716C107.001 28.1341 106.864 27.8591 106.726 27.8591L106.313 27.4467C106.176 27.3092 106.176 26.8967 106.176 26.4843V25.7969C106.038 24.697 105.626 23.8721 104.663 23.1847C105.351 22.7722 105.763 22.2223 106.176 21.5349C106.589 20.8475 106.726 20.1601 106.726 19.4726C106.726 18.6478 106.589 17.8229 106.176 17.1354C105.763 16.448 105.213 15.8981 104.525 15.4856C103.838 15.0732 103.15 14.9357 102.325 14.9357H95.9977C95.585 14.9357 95.31 15.0732 95.0349 15.3482C94.7598 15.6231 94.6222 15.8981 94.6222 16.3105V28.959C94.6222 29.3714 94.7598 29.6464 95.0349 29.9214C95.31 30.1963 95.7226 30.3338 96.1352 30.3338C96.5479 30.3338 96.8229 30.1963 96.9605 29.9214C97.2356 29.6464 97.2356 29.3714 97.2356 28.959V24.697H101.362C102.05 24.697 102.462 24.8345 102.875 25.1094C103.15 25.3844 103.425 25.7969 103.425 26.3468C103.425 28.1341 103.975 29.3714 104.938 30.0588C105.213 30.1963 105.626 30.3338 105.901 30.3338C106.313 30.3338 106.726 30.1963 106.864 29.9214C107.276 29.0965 107.276 28.684 107.139 28.2716ZM80.1801 29.9214C80.5928 29.9214 80.8679 29.7839 81.143 29.5089C81.418 29.2339 81.5556 28.959 81.5556 28.5465V23.4597H88.5703V28.5465C88.5703 28.959 88.7079 29.2339 88.9829 29.5089C89.258 29.7839 89.5331 29.9214 89.9458 29.9214C90.3584 29.9214 90.6335 29.7839 90.9086 29.5089C91.1836 29.2339 91.3212 28.959 91.3212 28.5465V15.8981C91.3212 15.4856 91.1836 15.2107 90.9086 14.9357C90.6335 14.6607 90.3584 14.5233 89.9458 14.5233C89.5331 14.5233 89.258 14.6607 88.9829 14.9357C88.7079 15.2107 88.5703 15.4856 88.5703 15.8981V20.985H81.5556V15.8981C81.5556 15.4856 81.418 15.2107 81.143 14.9357C80.8679 14.6607 80.5928 14.5233 80.1801 14.5233C79.7675 14.5233 79.4924 14.6607 79.2173 14.9357C78.9423 15.2107 78.8047 15.4856 78.8047 15.8981V28.5465C78.8047 28.959 78.9423 29.2339 79.2173 29.5089C79.4924 29.7839 79.7675 29.9214 80.1801 29.9214ZM137.673 14.6607C137.261 14.6607 136.986 14.7982 136.848 15.0732C136.573 15.3482 136.573 15.6231 136.573 15.8981V25.2469L128.596 15.0732L128.183 14.6607C127.908 14.5233 127.77 14.5233 127.495 14.5233C127.083 14.5233 126.807 14.6607 126.532 14.9357C126.12 15.2107 125.982 15.6231 125.982 15.8981V28.684C125.982 29.0965 126.12 29.3714 126.257 29.5089C126.395 29.6464 126.807 29.9214 127.083 29.9214C127.77 29.9214 128.32 29.5089 128.32 28.8215V19.3352L136.298 29.5089C136.436 29.6464 136.573 29.7839 136.711 29.7839C136.848 29.7839 137.123 29.9214 137.261 29.9214C137.673 29.9214 137.949 29.7839 138.224 29.5089C138.499 29.2339 138.636 28.959 138.636 28.5465V15.7606C138.636 15.3482 138.499 15.0732 138.361 14.9357C138.361 14.7982 138.086 14.6607 137.673 14.6607ZM120.068 24.972C119.655 25.7969 119.105 26.3468 118.417 26.8967C117.73 27.3092 116.904 27.5841 116.079 27.5841C115.254 27.5841 114.429 27.3092 113.741 26.8967C113.053 26.4843 112.503 25.7969 112.09 24.972C111.678 24.1471 111.54 23.3222 111.54 22.3598C111.54 21.3974 111.678 20.435 112.09 19.7476C112.503 18.9227 113.053 18.3728 113.741 17.8229C114.429 17.4104 115.254 17.1354 116.079 17.1354C116.904 17.1354 117.73 17.4104 118.417 17.8229C119.105 18.2353 119.655 18.9227 120.068 19.7476C120.48 20.5725 120.618 21.3974 120.618 22.3598C120.618 23.1847 120.48 24.1471 120.068 24.972ZM119.93 15.4856C118.83 14.7982 117.592 14.3858 116.079 14.3858C114.566 14.3858 113.328 14.7982 112.228 15.4856C111.128 16.1731 110.165 17.1354 109.615 18.3728C108.927 19.6101 108.652 20.8475 108.652 22.3598C108.652 23.8721 108.927 25.1094 109.615 26.3468C110.302 27.5841 111.128 28.5465 112.228 29.2339C113.328 29.9214 114.566 30.3338 116.079 30.3338C117.592 30.3338 118.83 29.9214 119.93 29.2339C121.031 28.5465 121.993 27.5841 122.544 26.3468C123.231 25.1094 123.506 23.8721 123.506 22.3598C123.506 20.8475 123.231 19.6101 122.544 18.3728C121.993 17.1354 121.031 16.1731 119.93 15.4856ZM152.803 24.972C152.391 25.7969 151.84 26.3468 151.153 26.8967C150.465 27.3092 149.64 27.5841 148.814 27.5841C147.989 27.5841 147.164 27.3092 146.476 26.8967C145.789 26.4843 145.238 25.7969 144.826 24.972C144.413 24.1471 144.276 23.3222 144.276 22.3598C144.276 21.3974 144.413 20.435 144.826 19.7476C145.238 18.9227 145.789 18.3728 146.476 17.8229C147.164 17.4104 147.989 17.1354 148.814 17.1354C149.64 17.1354 150.465 17.4104 151.153 17.8229C151.84 18.2353 152.391 18.9227 152.803 19.7476C153.216 20.5725 153.353 21.3974 153.353 22.3598C153.353 23.1847 153.216 24.1471 152.803 24.972ZM155.279 18.2353C154.591 16.998 153.766 16.0356 152.666 15.3482C151.565 14.6607 150.327 14.2483 148.814 14.2483C147.439 14.2483 146.064 14.6607 144.963 15.3482C143.863 16.0356 142.9 16.998 142.35 18.2353C141.662 19.4726 141.387 20.71 141.387 22.2223C141.387 23.7346 141.662 24.972 142.35 26.2093C143.038 27.4467 143.863 28.409 144.963 29.0965C146.064 29.7839 147.302 30.1963 148.814 30.1963C150.19 30.1963 151.565 29.7839 152.666 29.0965C153.766 28.409 154.729 27.4467 155.279 26.2093C155.967 24.972 156.242 23.7346 156.242 22.2223C156.242 20.71 155.967 19.4726 155.279 18.2353ZM68.3514 29.2339C69.5893 29.7839 70.9647 30.1963 72.3401 30.1963C73.578 30.1963 74.8159 29.9214 75.9163 29.3714C76.3289 29.2339 76.604 28.8215 76.604 28.2716C76.604 27.9966 76.4665 27.5841 76.3289 27.3092C76.0538 27.0342 75.7787 26.8967 75.3661 26.8967C75.2286 26.8967 74.9535 26.8967 74.6784 27.0342C73.9907 27.3092 73.303 27.5841 72.3401 27.5841C70.8272 27.5841 69.5893 27.1717 68.6265 26.2093C67.6637 25.3844 67.251 24.0096 67.251 22.3598C67.251 21.3974 67.3886 20.435 67.8012 19.7476C68.2138 19.0602 68.764 18.3728 69.5893 17.9603C70.4145 17.5479 71.2398 17.2729 72.2026 17.2729C73.0279 17.2729 73.8531 17.4104 74.5408 17.8229C74.8159 17.9603 75.091 17.9603 75.2286 17.9603C75.6412 17.9603 75.9163 17.8229 76.1914 17.5479C76.3289 17.2729 76.4665 16.998 76.4665 16.5855C76.4665 16.1731 76.1914 15.6231 75.7787 15.4856C74.6784 14.9357 73.4405 14.6607 72.2026 14.6607C70.6896 14.6607 69.3142 14.9357 68.2138 15.6231C66.9759 16.3105 66.0131 17.2729 65.463 18.3728C64.7752 19.6101 64.5002 20.8475 64.5002 22.3598C64.5002 24.0096 64.9128 25.5219 65.6005 26.6218C66.1507 27.7216 67.1135 28.5465 68.3514 29.2339Z" fill="white"/>
</svg>
