<svg width="178" height="39" viewBox="0 0 178 39" fill="none" xmlns="http://www.w3.org/2000/svg">
<path fill-rule="evenodd" clip-rule="evenodd" d="M63.6176 35.3665L61.0849 29.3605H49.5375L47.0048 35.3665H40.9521L53.358 6.1513H57.5649L69.6273 35.3665H63.6176ZM51.2975 24.813H59.4536L55.4185 14.5169L51.2975 24.813ZM88.3281 6.75191H72.4451V35.3665H88.3281V30.5617H78.0256V22.7538H87.8988V17.9489H78.0256V11.5568H88.3281V6.75191ZM93.2064 6.75191H101.491C105.441 6.75191 107.458 7.78152 108.789 8.89693C110.978 10.7417 111.622 13.187 111.622 15.332C111.622 18.1205 110.506 20.5659 108.274 22.0674C107.544 22.5822 106.514 23.0541 105.14 23.3115L114.069 35.3665H107.115L99.4737 23.8692H98.7869V35.3665H93.2064V6.75191ZM98.7869 11.2994V19.9224H100.375C101.448 19.9224 105.87 19.7937 105.87 15.5894C105.87 11.3423 101.491 11.2994 100.461 11.2994H98.7869ZM131.224 6.1084C140.239 6.1084 146.506 12.3719 146.506 21.0807C146.506 29.7895 140.239 36.01 131.224 36.01C122.21 36.01 115.942 29.7895 115.942 21.0807C115.942 12.3719 122.21 6.1084 131.224 6.1084ZM131.224 30.9478C136.805 30.9478 140.754 26.8722 140.754 21.0807C140.754 15.2891 136.805 11.1707 131.224 11.1707C125.644 11.1707 121.695 15.2891 121.695 21.0807C121.695 26.8722 125.644 30.9478 131.224 30.9478ZM156.708 35.3665V16.0184L174.136 35.9242H177.999V6.75191H172.419V26.0142L154.99 6.1084H151.127V35.3665H156.708Z" fill="white"/>
<mask id="mask0_1_4048" style="mask-type:alpha" maskUnits="userSpaceOnUse" x="0" y="1" width="35" height="38">
<path d="M1.66938 4.63716C5.83212 2.24836 11.1127 1.05396 17.511 1.05396C23.9093 1.05396 29.1899 2.24836 33.3526 4.63716C33.9077 4.95569 34.234 5.56123 34.1946 6.19967L33.3373 20.0929C32.9851 25.8007 29.9452 31.0034 25.1442 34.115L18.427 38.4685C17.8698 38.8296 17.1522 38.8296 16.595 38.4685L9.87783 34.115C5.07683 31.0034 2.0369 25.8007 1.6847 20.0929L0.827423 6.19967H0.827423C0.788028 5.56123 1.11432 4.95569 1.66938 4.63716Z" fill="white"/>
</mask>
<g mask="url(#mask0_1_4048)">
<path fill-rule="evenodd" clip-rule="evenodd" d="M1.37632 4.12613C5.63588 1.68176 11.0165 0.464722 17.5113 0.464722C24.0062 0.464722 29.3868 1.68176 33.6463 4.12613C34.3956 4.55613 34.8361 5.37361 34.783 6.23551L33.9257 20.1287C33.562 26.0229 30.4228 31.3954 25.4651 34.6086L18.7479 38.9621C17.9957 39.4496 17.027 39.4496 16.2748 38.9621L9.55757 34.6086C4.59983 31.3954 1.46065 26.0229 1.09695 20.1287L0.239678 6.23551C0.186495 5.37361 0.626992 4.55613 1.37632 4.12613Z" stroke="white" stroke-width="4.54458"/>
</g>
<path d="M2.18555 4.76108L16.831 31.743C17.0559 32.1496 17.568 32.297 17.9749 32.0722C18.1148 31.9949 18.2298 31.8794 18.3064 31.7391L32.8339 4.62524" stroke="white" stroke-width="1.81783"/>
<path d="M3.33496 26.06C3.96107 25.8524 11.7707 11.3884 17.176 1.98752C17.312 1.76119 17.6194 1.68035 17.8625 1.80696C17.9459 1.85035 18.0142 1.91486 18.0597 1.993C18.0597 1.993 31.1969 26.1654 31.5099 26.1654" stroke="white" stroke-width="1.81783"/>
<path d="M26.4787 18.3826C27.5014 18.3826 28.3305 17.5541 28.3305 16.532C28.3305 15.5099 27.5014 14.6814 26.4787 14.6814C25.456 14.6814 24.627 15.5099 24.627 16.532C24.627 17.5541 25.456 18.3826 26.4787 18.3826Z" fill="white"/>
<path d="M17.5549 34.2813C18.5776 34.2813 19.4066 33.4528 19.4066 32.4307C19.4066 31.4086 18.5776 30.5801 17.5549 30.5801C16.5322 30.5801 15.7031 31.4086 15.7031 32.4307C15.7031 33.4528 16.5322 34.2813 17.5549 34.2813Z" fill="white"/>
<path d="M8.21015 18.3826C9.23285 18.3826 10.0619 17.5541 10.0619 16.532C10.0619 15.5099 9.23285 14.6814 8.21015 14.6814C7.18746 14.6814 6.3584 15.5099 6.3584 16.532C6.3584 17.5541 7.18746 18.3826 8.21015 18.3826Z" fill="white"/>
<path d="M17.5547 32.6406V37.6119" stroke="white" stroke-width="1.81783" stroke-linecap="round"/>
<path d="M17.672 32.8507L17.4573 33.7339L17.6772 33.7873L17.8964 33.7315L17.672 32.8507ZM28.0195 29.4012L27.1859 29.7636L27.9107 31.4307L28.7443 31.0683L28.0195 29.4012ZM5.55221 30.5485C6.15035 30.6895 7.19176 31.013 9.11297 31.5555C11.0036 32.0894 13.6807 32.8156 17.4573 33.7339L17.8868 31.9675C14.1337 31.0549 11.4781 30.3345 9.60699 29.8061C7.76648 29.2864 6.6171 28.9319 5.96928 28.7791L5.55221 30.5485ZM17.8964 33.7315C21.2997 32.8644 24.147 32.1358 26.0578 31.6615C27.0157 31.4237 27.7265 31.2527 28.1519 31.1602C28.2575 31.1372 28.3407 31.1202 28.403 31.1085C28.4727 31.0954 28.4937 31.0933 28.4858 31.094C28.4816 31.0944 28.4683 31.0956 28.4489 31.0961C28.4335 31.0966 28.3905 31.0974 28.3337 31.0907C28.3113 31.088 28.1296 31.0709 27.9417 30.9444C27.8299 30.869 27.6727 30.7249 27.5913 30.4868C27.5074 30.2416 27.5454 30.0191 27.6021 29.8706C27.6935 29.6315 27.8603 29.5059 27.8769 29.4925C27.9256 29.4535 27.9662 29.4299 27.9803 29.4218C28.0115 29.4039 28.0302 29.3965 28.0195 29.4012L28.7443 31.0683C28.7771 31.054 28.8289 31.0306 28.8832 30.9996C28.9088 30.9849 28.9584 30.9554 29.0135 30.9112C29.0366 30.8927 29.2073 30.7626 29.3001 30.5197C29.3576 30.3693 29.3956 30.1451 29.3113 29.8985C29.2293 29.6588 29.071 29.5133 28.9573 29.4367C28.766 29.3078 28.5782 29.2891 28.5475 29.2854C28.4366 29.2723 28.3414 29.2818 28.3155 29.2842C28.1783 29.2971 27.9734 29.3387 27.7657 29.3839C27.311 29.4827 26.5762 29.6597 25.6198 29.8972C23.7019 30.3733 20.846 31.1041 17.4476 31.9699L17.8964 33.7315Z" fill="white"/>
<path d="M17.5121 9.97036C16.9769 9.97036 16.5087 10.4385 16.5087 10.9735V14.6516L11.1572 17.9953L11.7309 19.2508L16.5087 17.6609V21.339L15.1708 22.3421V23.3452L17.5121 22.6765L19.8534 23.3452V22.3421L18.5155 21.339V17.6609L23.2113 19.3348L23.867 17.9953L18.5155 14.6516V10.9735C18.5155 10.4385 18.0472 9.97036 17.5121 9.97036Z" fill="white"/>
</svg>
