<svg width="180" height="45" viewBox="0 0 180 45" fill="none" xmlns="http://www.w3.org/2000/svg">
<path fill-rule="evenodd" clip-rule="evenodd" d="M20.5022 35.4494H16.5821V21.0466C16.5821 17.5425 13.7479 14.6901 10.2668 14.6901C6.75044 14.6901 3.92012 17.5425 3.92012 21.0466V35.4494H0V21.0466C0 15.3217 4.59046 10.667 10.2354 10.667C15.9078 10.667 20.5022 15.3217 20.5022 21.0466V35.4494ZM40.7457 36.6201C33.6777 36.6201 27.9269 30.7222 27.9269 23.4686C27.9269 16.2189 33.6777 10.317 40.7457 10.317C44.7481 10.317 48.4526 12.1837 50.8988 15.4384L47.7901 17.9006C46.0927 15.6355 43.5251 14.3401 40.7457 14.3401C35.8416 14.3401 31.847 18.4356 31.847 23.4686C31.847 28.5015 35.8416 32.597 40.7457 32.597C43.5251 32.597 46.0927 31.3016 47.7941 29.0406L50.8949 31.5027C48.4487 34.7534 44.7481 36.6201 40.7457 36.6201ZM167.181 36.6197C160.113 36.6197 154.362 30.7219 154.362 23.4722C154.362 16.2185 160.113 10.3166 167.181 10.3166C174.249 10.3166 180 16.2185 180 23.4722C180 30.7219 174.249 36.6197 167.181 36.6197ZM167.181 14.3397C162.277 14.3397 158.283 18.4393 158.283 23.4722C158.283 28.5051 162.277 32.5966 167.181 32.5966C172.085 32.5966 176.08 28.5051 176.08 23.4722C176.08 18.4393 172.085 14.3397 167.181 14.3397ZM62.5858 35.4494H58.6657V19.9202C58.6657 14.8953 62.6486 10.8078 67.5448 10.8078H72.9977V14.8309H67.5448C64.8086 14.8309 62.5858 17.112 62.5858 19.9202V35.4494ZM150.36 10.8078V14.8309H143.99V35.4494H140.07V0.75H143.99V10.8078H150.36ZM119.481 10.317C126.549 10.317 132.3 16.2189 132.3 23.4686C132.3 30.7222 126.549 36.6201 119.481 36.6201C117.709 36.6201 116.035 36.2178 114.503 35.542V44.248H110.583V10.7233H114.503V11.3912C116.035 10.7193 117.709 10.317 119.481 10.317ZM119.481 32.597C124.385 32.597 128.38 28.5015 128.38 23.4686C128.38 18.4356 124.385 14.3401 119.481 14.3401C117.615 14.3401 115.93 14.9838 114.503 15.9976V30.9355C115.93 31.9533 117.615 32.597 119.481 32.597ZM84.7169 44.25L89.8326 33.0054L79.3345 10.8058H83.6898L91.9691 28.3064L99.923 10.8058H104.243L89.0408 44.25H84.7169Z" fill="white"/>
</svg>
