<svg width="170" height="32" viewBox="0 0 170 32" fill="none" xmlns="http://www.w3.org/2000/svg">
<mask id="mask0_1_4077" style="mask-type:alpha" maskUnits="userSpaceOnUse" x="0" y="0" width="171" height="32">
<path fill-rule="evenodd" clip-rule="evenodd" d="M18.9154 24.6145V31.5296H0.40918V0.0992432H7.63094V24.6145H18.9154Z" fill="white"/>
<path fill-rule="evenodd" clip-rule="evenodd" d="M24.377 31.5307H31.5987V0.100342H24.377V31.5307Z" fill="white"/>
<path fill-rule="evenodd" clip-rule="evenodd" d="M53.5847 15.2309C55.3001 13.7491 56.3385 11.684 56.3385 9.07945C56.3385 3.64578 51.8693 0.10022 46.3625 0.10022H37.0605V6.83407H46.3625C48.0333 6.83407 49.1163 8.00205 49.1163 9.61884C49.1163 11.2352 47.9882 12.4032 46.3625 12.4032H42.3564V18.7783H47.2662C49.0708 18.7783 50.2454 20.036 50.2454 21.7868C50.2454 23.5376 49.0708 24.7948 47.2662 24.7948H42.3564V31.5296H47.2662C52.9086 31.5296 57.4667 27.8935 57.4667 22.3244C57.4667 19.1365 55.9324 16.7132 53.5847 15.2309Z" fill="#C72E2B"/>
<path fill-rule="evenodd" clip-rule="evenodd" d="M82.8821 24.6145V31.5296H63.0215V0.0992432H82.6572V7.01335H70.2442V12.2224H81.5277V19.0473H70.2442V24.6145H82.8821Z" fill="white"/>
<path fill-rule="evenodd" clip-rule="evenodd" d="M136.969 7.01335H128.845V31.5296H121.624V7.01335H113.498V0.0992432H136.969V7.01335Z" fill="white"/>
<path fill-rule="evenodd" clip-rule="evenodd" d="M159.394 19.451V31.5302H152.171V19.451L141.564 0.100342H149.78L155.782 12.223L161.785 0.100342H170L159.394 19.451Z" fill="white"/>
<path fill-rule="evenodd" clip-rule="evenodd" d="M102.243 19.9904C105.719 18.2391 108.065 14.7369 108.065 10.8752C108.065 4.90495 103.236 0.100342 97.2335 0.100342H87.9219V6.83372H97.2335C99.2194 6.83372 100.844 8.58501 100.844 10.8752C100.844 13.1659 99.2194 14.9172 97.2335 14.9172H92.603V21.2018H95.2468L101.204 31.5302H108.969L102.243 19.9904Z" fill="white"/>
</mask>
<g mask="url(#mask0_1_4077)">
<rect x="0.40918" y="0.192627" width="169.656" height="31.3377" fill="white"/>
</g>
</svg>
