<svg width="988" height="1027" viewBox="0 0 988 1027" fill="none" xmlns="http://www.w3.org/2000/svg">
<path d="M705.267 510.251C749.495 618.832 699.367 745.625 593.313 793.422C540.287 817.321 483.3 816.945 434.064 797.031C409.445 787.074 386.762 772.224 367.445 753.088C348.159 733.937 338.121 704.474 317.368 688.906C295.761 672.698 278.708 650.569 268.238 625.321C256.046 595.842 252.367 561.161 258.159 526.081C271.857 443.739 336.565 363.291 426.657 333.612C468.286 319.933 509.402 319.458 544.268 329.652C574.428 338.477 600.318 355.561 618.953 377.205C635.006 395.878 640.934 422.528 659.024 440.472C678.291 459.668 694.21 483.105 705.267 510.251Z" stroke="#0075FF" stroke-miterlimit="10"/>
<path d="M713.61 517.985C756.775 625.229 707.494 750.201 602.796 797.426C550.232 821.192 493.718 820.982 444.78 801.349C420.075 791.544 397.202 776.778 377.751 757.587C358.212 738.361 347.895 708.756 327.14 692.733C305.564 676.055 288.687 653.542 278.478 628.024C266.536 598.432 263.159 563.764 269.181 528.883C282.942 447.42 347.087 367.945 436.217 338.624C477.566 325.072 518.397 324.346 553.165 334.206C584.379 342.253 611.656 359.738 630.618 382.639C647.055 402.619 651.706 431.135 668.542 449.001C686.907 468.529 702.847 491.199 713.61 517.985Z" stroke="#0075FF" stroke-miterlimit="10"/>
<path d="M719.984 527.896C762.072 633.771 713.653 756.956 610.31 803.607C558.221 827.273 502.154 827.164 453.559 807.83C428.736 798.191 405.724 783.449 386.09 764.264C366.328 744.947 355.7 715.216 334.976 698.723C313.43 681.576 296.698 658.692 286.75 632.904C275.089 603.184 271.984 568.545 278.235 533.862C292.042 453.325 355.609 374.791 443.822 345.846C484.86 332.434 525.436 331.445 560.088 341.016C592.375 348.239 621.003 366.216 640.354 390.346C657.194 411.587 660.509 441.92 676.13 459.803C693.448 479.577 709.485 501.484 719.984 527.896Z" stroke="#0075FF" stroke-miterlimit="10"/>
<path d="M724.695 539.39C765.707 643.896 718.118 765.306 616.162 811.371C564.535 834.904 508.928 834.928 460.688 815.925C435.778 806.439 412.609 791.767 392.796 772.51C372.781 753.117 361.873 723.245 341.166 706.249C319.664 688.664 303.083 665.333 293.408 639.306C281.996 609.472 279.163 574.861 285.662 540.331C299.545 460.705 362.55 383.144 449.819 354.511C490.589 341.257 530.898 339.972 565.421 349.223C598.795 355.654 628.759 374.092 648.456 399.433C665.699 421.935 667.635 454.067 682.098 472.018C698.357 492.194 714.491 513.337 724.695 539.39Z" stroke="#0075FF" stroke-miterlimit="10"/>
<path d="M728.165 551.973C768.088 655.078 721.36 774.699 620.772 820.223C569.608 843.623 514.474 843.813 466.564 825.077C441.566 815.743 418.24 801.141 398.262 781.844C378.024 762.36 366.805 732.362 346.098 714.91C324.594 696.869 308.222 673.14 298.776 646.857C287.646 616.895 285.083 582.312 291.844 547.967C305.79 469.22 368.2 392.647 454.552 364.389C495.01 351.277 535.065 349.727 569.503 358.676C603.932 364.329 635.252 383.181 655.307 409.766C672.953 433.529 673.47 467.364 686.801 485.446C701.949 505.896 718.224 526.293 728.165 551.973Z" stroke="#0075FF" stroke-miterlimit="10"/>
<path d="M730.744 565.068C769.559 666.817 723.724 784.636 624.523 829.572C573.834 852.872 519.147 853.163 471.548 834.741C446.432 825.573 422.948 811.041 402.806 791.703C382.345 772.129 370.815 742.004 350.125 724.051C328.652 705.54 312.424 681.44 303.257 654.841C292.377 624.765 290.131 590.228 297.108 556.05C311.131 478.215 372.933 402.596 458.367 374.715C498.545 361.729 538.346 359.915 572.623 368.558C608.125 373.386 640.796 392.731 661.241 420.545C679.29 445.569 678.299 481.072 690.587 499.322C704.592 520.06 721.098 539.747 730.744 565.068Z" stroke="#0075FF" stroke-miterlimit="10"/>
<path d="M732.791 578.209C770.529 678.588 725.555 794.619 627.697 838.95C577.471 862.117 523.256 862.573 475.987 844.418C450.784 835.403 427.143 820.941 406.835 801.563C386.12 781.912 374.298 751.615 353.651 733.223C332.208 714.242 316.158 689.758 307.22 662.903C296.621 632.699 294.646 598.191 301.854 564.211C315.94 487.255 377.178 412.61 461.649 385.087C501.516 372.242 541.063 370.164 575.242 378.473C611.799 382.522 645.839 402.314 666.629 431.339C685.05 457.639 686.227 492.734 693.858 513.197C710.398 531.239 723.408 553.262 732.791 578.209Z" stroke="#0075FF" stroke-miterlimit="10"/>
<path d="M734.674 590.774C771.335 689.783 727.192 804.039 630.72 847.783C580.97 870.849 527.202 871.406 480.276 853.551C454.986 844.688 431.187 830.296 410.714 810.877C389.777 791.137 377.643 760.712 356.996 741.865C335.583 722.414 319.709 697.546 311.032 670.42C300.683 640.102 298.979 605.622 306.435 571.795C320.598 495.751 381.228 422.061 464.769 394.883C504.368 382.196 543.616 379.836 577.679 387.856C615.323 391.113 650.7 411.366 671.868 441.589C690.691 469.15 691.076 505.666 696.948 526.543C713.044 544.406 725.585 566.186 734.674 590.774Z" stroke="#0075FF" stroke-miterlimit="10"/>
<path d="M735.05 603.059C770.632 700.694 727.353 813.155 632.242 856.324C582.989 879.243 529.652 879.947 483.071 862.392C457.709 853.714 433.696 839.343 413.072 819.917C391.869 800.068 379.501 769.523 358.84 750.189C337.472 730.301 321.718 704.999 313.315 677.637C303.249 647.192 301.816 612.742 309.501 579.115C323.709 504.001 383.759 431.256 466.377 404.455C505.663 391.909 544.685 389.271 578.617 396.971C617.333 399.403 654.046 420.115 675.571 451.58C694.797 480.401 694.388 518.337 698.515 539.659C714.186 557.296 726.212 578.814 735.05 603.059Z" stroke="#0075FF" stroke-miterlimit="10"/>
<path d="M736.002 613.712C770.492 709.941 728.077 820.607 634.34 863.232C585.552 886.017 532.691 886.887 486.424 869.647C460.945 861.135 436.808 846.821 416.02 827.355C394.595 807.417 381.916 776.747 361.287 756.943C339.92 736.601 324.375 710.902 316.233 683.27C306.417 652.713 305.3 618.311 313.202 584.853C327.472 510.622 386.955 438.854 468.638 412.399C507.641 399.98 546.376 397.092 580.221 404.489C619.99 406.143 658.07 427.301 679.952 460.008C699.58 490.089 698.378 529.444 700.747 551.178C715.884 568.6 727.472 589.86 736.002 613.712Z" stroke="#0075FF" stroke-miterlimit="10"/>
<path d="M737.889 622.265C771.27 717.133 729.75 825.991 637.405 868.027C589.095 890.71 536.684 891.681 490.762 874.741C465.197 866.382 440.904 852.139 419.939 832.602C398.292 812.575 385.303 781.778 364.661 761.488C343.325 740.676 327.958 714.595 320.032 686.676C310.499 655.993 309.653 621.621 317.785 588.363C332.13 515.047 391.002 444.239 471.749 418.128C510.439 405.851 548.917 402.699 582.631 409.775C623.486 410.636 662.932 432.24 685.159 466.157C705.189 497.498 703.194 538.272 703.804 560.42C718.524 577.726 729.61 598.756 737.889 622.265Z" stroke="#0075FF" stroke-miterlimit="10"/>
<path d="M741.08 628.097C773.369 721.558 732.694 828.668 641.742 870.114C593.897 892.664 541.962 893.8 496.373 877.128C470.722 868.922 446.273 854.749 425.112 835.186C403.213 815.084 389.945 784.149 369.335 763.39C348.03 742.109 332.84 715.644 325.176 687.457C315.892 656.661 315.318 622.319 323.698 589.215C338.119 516.815 396.392 446.997 476.218 421.265C514.638 409.147 552.847 405.699 586.43 412.454C628.355 412.491 669.137 434.554 691.722 469.713C712.122 502.328 709.366 544.507 708.217 567.067C722.493 584.194 733.065 604.962 741.08 628.097Z" stroke="#0075FF" stroke-miterlimit="10"/>
<path d="M745.947 630.772C777.157 722.859 737.346 828.174 647.742 869.013C600.362 891.428 548.89 892.698 503.646 876.326C477.878 868.287 453.273 854.185 431.98 834.569C409.859 814.377 396.268 783.285 375.702 762.089C354.442 740.371 339.385 713.505 331.982 685.049C322.98 654.126 322.678 619.815 331.286 586.912C345.77 515.395 403.477 446.554 482.335 421.181C520.442 409.205 558.394 405.492 591.89 411.945C634.869 411.203 677.018 433.712 699.947 470.081C720.762 503.988 717.2 547.553 714.337 570.545C728.112 587.441 738.214 607.966 745.947 630.772Z" stroke="#0075FF" stroke-miterlimit="10"/>
<path d="M752.29 630.075C782.377 720.769 743.475 824.307 655.231 864.571C608.33 886.885 557.321 888.288 512.378 872.198C486.524 864.312 461.75 850.249 440.305 830.625C417.932 810.358 404.062 779.126 383.483 757.444C362.223 735.271 347.363 707.976 340.233 679.283C331.482 648.248 331.482 613.952 340.321 581.25C354.88 510.648 411.976 442.767 489.898 417.739C527.723 405.89 565.418 401.914 598.752 408.06C642.815 406.525 686.299 429.494 709.617 467.09C730.834 502.257 726.48 547.241 721.858 570.646C735.189 587.363 744.821 607.643 752.29 630.075Z" stroke="#0075FF" stroke-miterlimit="10"/>
<path d="M757.592 628.81C786.587 718.097 748.548 819.841 661.679 859.562C615.243 881.742 564.696 883.278 520.099 867.489C494.16 859.755 469.229 845.763 447.59 826.114C424.995 805.757 410.814 774.401 390.267 752.249C369.039 729.607 354.356 701.929 347.487 672.968C339.018 641.806 339.303 607.572 348.389 575.024C363.011 505.306 419.508 438.416 496.509 413.766C534.019 402.058 571.458 397.818 604.705 403.662C649.808 401.316 694.659 424.731 718.334 463.569C739.953 499.995 734.806 546.398 728.425 570.215C741.286 586.688 750.448 606.725 757.592 628.81Z" stroke="#0075FF" stroke-miterlimit="10"/>
<path d="M762.6 627.102C790.504 714.983 753.311 814.978 667.833 854.109C621.876 876.188 571.779 877.825 527.54 862.368C501.515 854.787 476.428 840.865 454.625 821.177C431.809 800.732 417.318 769.25 396.789 746.597C375.593 723.487 361.056 695.44 354.435 666.177C346.217 634.904 346.804 600.686 356.107 568.306C370.773 499.517 426.721 433.558 502.786 409.254C540.014 397.673 577.166 393.183 610.281 398.706C656.469 395.568 702.655 419.442 726.706 459.475C748.695 497.176 742.787 544.983 734.648 569.213C747.042 585.631 755.721 605.392 762.6 627.102Z" stroke="#0075FF" stroke-miterlimit="10"/>
<path d="M767.281 625.043C794.062 711.531 757.777 809.751 673.691 848.292C628.199 870.236 578.578 872.039 534.64 856.864C508.499 849.45 483.256 835.599 461.306 815.826C438.238 795.305 423.468 763.684 402.939 740.576C381.787 717.029 367.415 688.567 361.055 659.036C353.119 627.636 353.946 593.462 363.51 561.269C378.239 493.364 433.589 428.396 508.731 404.469C545.659 393.061 582.572 388.261 615.556 393.463C662.828 389.533 710.349 413.867 734.745 455.11C757.135 494.07 750.421 543.264 740.537 567.939C752.487 584.176 760.652 603.676 767.281 625.043Z" stroke="#0075FF" stroke-miterlimit="10"/>
<path d="M771.589 622.615C797.279 707.696 761.87 804.153 679.146 842.119C634.15 863.916 584.961 865.866 541.368 850.991C515.141 843.73 489.742 829.95 467.598 810.151C444.307 789.541 429.259 757.781 408.731 734.218C387.61 710.202 373.416 681.358 367.285 651.572C359.6 620.059 360.73 585.901 370.522 553.909C385.327 486.919 440.097 422.896 514.273 399.328C550.918 388.048 587.543 382.998 620.441 387.898C668.753 383.157 717.64 407.936 742.406 450.453C765.199 490.673 757.692 541.285 746.063 566.405C757.561 582.353 765.256 601.608 771.589 622.615Z" stroke="#0075FF" stroke-miterlimit="10"/>
<path d="M775.569 619.835C800.167 703.51 765.636 798.205 684.259 835.563C639.742 857.258 591.015 859.341 547.754 844.735C521.442 837.626 495.887 823.917 473.579 804.079C450.036 783.393 434.708 751.494 414.199 727.431C393.078 702.96 379.048 673.701 373.223 643.664C365.82 612.025 367.221 577.897 377.243 546.105C392.124 480.031 446.282 416.967 519.536 393.777C555.867 382.638 592.236 377.324 625.002 381.903C674.398 376.37 724.62 401.609 749.762 445.321C772.956 486.8 764.657 538.831 751.269 564.363C762.306 580.178 769.486 599.171 775.569 619.835Z" stroke="#0075FF" stroke-miterlimit="10"/>
<path d="M779.204 616.751C802.697 698.987 769.011 791.934 689.04 828.735C644.988 850.296 596.724 852.512 553.808 838.206C527.379 831.265 501.687 817.58 479.227 797.734C455.463 776.96 439.812 744.903 419.316 720.418C398.227 695.478 384.375 665.836 378.78 635.544C371.626 603.793 373.343 569.713 383.569 538.058C398.512 472.867 452.072 410.793 524.39 387.949C560.439 376.937 596.551 371.359 629.2 375.65C679.68 369.324 731.269 395.008 756.723 439.944C780.319 482.683 771.227 536.133 756.113 562.063C766.692 577.666 773.403 596.415 779.204 616.751Z" stroke="#0075FF" stroke-miterlimit="10"/>
<path d="M782.417 613.357C804.788 694.201 772.01 785.371 693.4 821.597C649.812 843.024 602.011 845.374 559.41 831.382C532.909 824.625 507.016 810.993 484.392 791.108C460.407 770.244 444.446 738.063 423.968 713.076C402.911 687.668 389.236 657.643 383.902 627.083C377.031 595.205 378.987 561.17 389.474 529.701C404.493 465.425 457.486 404.329 528.837 381.844C564.585 371.006 600.428 365.131 632.976 369.087C684.496 361.951 737.464 388.113 763.294 434.244C787.26 478.256 777.407 533.11 760.535 559.453C770.684 574.908 776.912 593.382 782.417 613.357Z" stroke="#0075FF" stroke-miterlimit="10"/>
<path d="M785.312 609.724C806.578 689.129 774.69 778.569 697.471 814.205C654.362 835.531 607.024 838.013 564.768 824.322C538.181 817.718 512.132 804.157 489.345 784.233C465.107 763.293 448.867 730.973 428.39 705.532C407.377 679.687 393.835 649.261 388.749 618.4C382.128 586.41 384.388 552.391 395.104 521.122C410.154 457.744 462.58 397.625 533.028 375.471C568.493 364.76 604.079 358.622 636.465 362.271C689.069 354.343 743.359 380.932 769.559 428.337C793.927 473.608 783.281 529.88 764.651 556.636C774.311 571.893 780.057 590.091 785.312 609.724Z" stroke="#0075FF" stroke-miterlimit="10"/>
<path d="M787.812 605.845C807.973 683.812 776.975 771.522 701.117 806.583C658.473 827.775 611.598 830.391 569.687 816.999C543.015 810.548 516.81 797.058 493.859 777.094C469.399 756.066 452.849 723.62 432.404 697.71C411.391 671.411 398.059 640.588 393.233 609.459C386.894 577.343 389.425 543.353 400.37 512.285C415.496 449.822 467.311 390.662 536.823 368.854C571.975 358.284 607.305 351.882 639.603 355.229C693.291 346.508 748.916 373.557 775.46 422.17C800.243 468.733 788.792 526.392 768.417 553.592C777.576 568.62 782.807 586.556 787.812 605.845Z" stroke="#0075FF" stroke-miterlimit="10"/>
<path d="M789.899 601.768C808.957 678.296 778.817 764.29 704.351 798.762C662.185 819.852 615.773 822.601 574.194 809.478C547.405 803.193 521.044 789.774 497.916 769.739C473.204 748.635 456.375 716.051 435.948 689.64C414.967 662.872 401.799 631.634 397.216 600.282C391.128 568.054 393.974 534.112 405.123 503.181C420.324 441.633 471.559 383.418 540.118 362.001C574.987 351.559 610.042 344.939 642.197 347.933C696.925 338.402 753.928 365.928 780.848 415.737C806.032 463.559 793.789 522.636 771.656 550.249C780.429 565.146 785.177 582.806 789.899 601.768Z" stroke="#0075FF" stroke-miterlimit="10"/>
<path d="M791.575 597.492C809.527 672.581 780.264 756.813 707.159 790.71C665.459 811.666 619.509 814.548 578.245 801.739C551.37 795.607 524.853 782.259 501.561 762.185C476.615 740.959 459.489 708.282 439.062 681.417C418.113 654.18 405.091 622.574 400.8 590.939C394.994 558.585 398.08 524.687 409.521 493.928C424.784 433.264 475.421 376.039 543.045 354.969C577.613 344.699 612.43 337.769 644.467 340.475C700.278 330.152 758.603 358.105 785.88 409.155C811.466 458.236 798.43 518.731 774.54 546.757C782.869 561.475 787.147 578.891 791.575 597.492Z" stroke="#0075FF" stroke-miterlimit="10"/>
<path d="M792.851 593.05C809.699 666.701 781.326 749.203 709.581 782.524C668.346 803.346 622.859 806.362 581.94 793.853C554.98 787.874 528.294 774.564 504.851 754.483C479.684 733.168 462.279 700.352 441.852 673.032C420.948 645.359 408.091 613.338 404.03 581.449C398.474 548.982 401.863 515.101 413.532 484.542C428.872 424.793 478.898 368.528 545.599 347.834C579.884 337.692 614.414 330.512 646.35 332.883C703.214 321.782 762.905 350.181 790.57 402.458C816.527 452.812 802.73 514.711 777.113 543.135C784.91 557.637 788.674 574.792 792.851 593.05Z" stroke="#0075FF" stroke-miterlimit="10"/>
<path d="M793.711 588.487C809.442 660.668 781.972 741.472 711.587 774.218C670.83 794.939 625.806 798.087 585.232 785.879C558.155 780.066 531.345 766.813 507.707 746.707C482.287 725.317 464.59 692.33 444.195 664.541C423.323 636.399 410.643 603.996 406.829 571.806C401.555 539.213 405.215 505.362 417.115 475.004C432.516 416.138 481.976 360.849 547.71 340.515C581.682 330.514 615.955 323.07 647.76 325.121C705.695 313.196 766.733 342.086 794.743 395.572C821.101 447.185 806.512 510.502 779.15 539.37C786.535 553.679 789.803 570.525 793.711 588.487Z" stroke="#0075FF" stroke-miterlimit="10"/>
<path d="M794.154 583.804C808.781 654.547 782.169 733.635 713.207 765.778C672.947 786.35 628.354 789.646 588.126 777.738C560.963 772.078 533.966 758.91 510.195 738.75C484.554 717.271 466.547 684.159 446.153 655.916C425.28 627.319 412.778 594.533 409.225 562.075C404.202 529.37 408.164 495.535 420.28 465.345C435.726 407.409 484.605 353.064 549.449 333.094C583.139 323.22 617.155 315.513 648.842 317.275C707.86 304.557 770.22 333.875 798.587 388.601C825.346 441.474 809.952 506.176 780.846 535.489C787.742 549.6 790.528 566.171 794.154 583.804Z" stroke="#0075FF" stroke-miterlimit="10"/>
<path d="M794.15 579.014C807.659 648.287 781.95 725.678 714.349 757.245C674.554 777.684 630.436 781.145 590.509 769.519C563.261 764.011 536.108 750.914 512.142 730.729C486.249 709.175 467.963 675.924 447.587 647.18C426.746 618.115 414.408 584.914 411.13 552.22C406.388 519.388 410.603 485.629 422.967 455.594C438.488 398.573 486.769 345.22 550.665 325.563C584.054 315.862 617.801 307.859 649.388 309.286C709.458 295.791 773.215 325.539 801.926 381.475C829.087 435.606 812.9 501.726 782.037 531.452C788.471 545.429 790.774 561.724 794.15 579.014Z" stroke="#0075FF" stroke-miterlimit="10"/>
<path d="M793.715 574.073C806.108 641.875 781.288 717.536 715.06 748.56C675.743 768.897 632.076 772.459 592.494 761.133C565.161 755.779 537.851 742.752 513.722 722.528C487.607 700.885 469.011 667.509 448.667 638.297C427.858 608.763 415.697 575.18 412.68 542.216C408.188 509.273 412.706 475.53 425.299 445.696C440.883 389.557 488.597 337.181 551.539 317.915C584.646 308.342 618.136 300.075 649.574 301.228C710.728 286.94 775.819 317.148 804.887 374.325C832.449 429.714 815.47 497.252 782.85 527.39C788.833 541.078 790.609 557.079 793.715 574.073Z" stroke="#0075FF" stroke-miterlimit="10"/>
<path d="M792.913 568.951C804.207 635.236 780.271 709.246 715.404 739.695C676.552 759.898 633.347 763.593 594.111 752.568C566.66 747.38 539.213 734.378 514.92 714.114C488.584 692.382 469.679 658.881 449.334 629.215C428.57 599.244 416.543 565.261 413.786 532.029C409.576 498.959 414.365 465.246 427.187 435.612C442.847 380.389 489.95 328.971 551.957 310.051C584.75 300.619 617.984 292.088 649.322 292.907C711.546 277.795 777.971 308.462 807.397 366.88C835.329 423.542 817.589 492.484 783.212 523.034C788.777 536.606 790.057 552.299 792.913 568.951Z" stroke="#0075FF" stroke-miterlimit="10"/>
<path d="M791.663 563.721C801.871 628.523 778.806 700.849 715.286 730.691C676.913 750.792 634.17 754.621 595.235 743.877C567.699 738.842 540.065 725.925 515.608 705.622C489.019 683.814 469.835 650.175 449.509 620.008C428.745 589.583 416.927 555.202 414.418 521.67C410.459 488.488 415.55 454.791 428.589 425.326C444.311 370.986 490.847 320.545 551.901 302.016C584.411 292.711 617.358 283.93 648.564 284.429C711.841 268.539 779.632 299.651 809.432 359.263C837.766 417.185 819.234 487.544 783.112 518.539C788.291 531.981 789.089 547.398 791.663 563.721Z" stroke="#0075FF" stroke-miterlimit="10"/>
<path d="M790.01 558.406C799.119 621.691 776.907 692.38 714.81 721.618C676.901 741.586 634.622 745.547 596.044 735.136C568.436 730.285 540.633 717.407 516.012 697.065C489.203 675.168 469.695 641.372 449.414 610.768C428.682 579.875 417.041 545.112 414.762 511.325C411.084 478.017 416.416 444.365 429.714 415.086C445.512 361.661 491.438 312.178 551.556 293.995C583.753 284.832 616.474 275.773 647.563 275.983C711.923 259.301 781.047 290.873 811.192 351.693C839.94 410.905 820.603 482.65 782.756 514.043C787.402 527.27 787.691 542.347 790.01 558.406Z" stroke="#0075FF" stroke-miterlimit="10"/>
<path d="M787.953 553.001C795.963 614.77 774.635 683.808 713.898 712.471C676.455 732.305 634.651 736.431 596.406 726.288C568.682 721.604 540.754 708.783 515.969 688.401C488.907 666.43 469.121 632.494 448.827 601.404C428.127 570.043 416.619 534.88 414.645 500.842C411.218 467.422 416.865 433.818 430.411 404.694C446.284 352.184 491.598 303.66 550.826 285.84C582.754 276.835 615.174 267.495 646.163 267.37C711.562 249.879 782.064 281.928 812.597 343.974C841.747 404.445 821.618 477.607 782.013 509.412C786.097 522.438 785.903 537.239 787.953 553.001Z" stroke="#0075FF" stroke-miterlimit="10"/>
<path d="M785.431 547.536C792.374 607.775 771.886 675.143 712.522 703.264C675.557 722.996 634.203 727.223 596.303 717.38C568.493 712.849 540.378 700.113 515.43 679.692C488.147 657.631 468.082 623.557 447.789 592.012C427.133 560.214 415.789 524.636 414.044 490.345C410.899 456.798 416.817 423.225 430.593 394.301C446.497 342.688 491.276 295.126 549.538 277.666C581.151 268.803 613.315 259.198 644.186 258.785C710.668 240.502 782.492 272.978 813.382 336.265C842.933 397.994 822.012 472.574 780.65 504.791C784.353 517.609 783.65 532.07 785.431 547.536Z" stroke="#0075FF" stroke-miterlimit="10"/>
<path d="M782.488 542.03C798.222 598.57 768.729 666.469 710.725 694.015C674.225 713.613 633.333 717.974 595.747 708.445C567.852 704.066 539.581 691.401 514.469 670.941C486.965 648.79 466.59 614.591 446.328 582.579C425.704 550.312 414.538 514.352 413.054 479.792C410.159 446.133 416.38 412.576 430.371 383.82C446.352 333.122 490.519 286.52 547.859 269.437C579.19 260.7 611.098 250.832 641.837 250.099C709.403 231.024 782.56 263.959 813.794 328.455C843.715 391.456 822.033 467.439 778.915 500.069C782.174 512.707 783.576 526.788 782.488 542.03Z" stroke="#0075FF" stroke-miterlimit="10"/>
<path d="M779.151 536.546C794.057 591.6 765.146 657.833 708.532 684.789C672.497 704.253 632.082 708.779 594.828 699.518C566.847 695.292 538.407 682.665 513.145 662.198C485.388 639.973 464.735 605.635 444.46 573.136C423.836 540.416 412.848 504.073 411.611 469.212C408.998 435.427 415.49 401.9 429.711 373.345C445.754 323.53 489.336 277.95 545.728 261.18C576.746 252.585 608.397 242.453 639.005 241.4C707.609 221.515 782.145 254.927 813.754 320.617C844.077 384.877 821.603 462.276 776.741 495.351C779.557 507.809 780.552 521.618 779.151 536.546Z" stroke="#0075FF" stroke-miterlimit="10"/>
<path d="M775.33 531.048C789.44 584.601 761.11 649.167 705.844 675.516C670.287 694.879 630.321 699.506 593.412 690.545C565.315 686.486 536.751 673.916 511.28 653.391C483.302 631.077 462.339 596.614 442.096 563.647C421.503 530.458 410.693 493.733 409.717 458.604C407.354 424.707 414.117 391.21 428.599 362.841C444.717 313.941 487.72 269.305 543.159 252.927C573.907 244.491 605.289 234.064 635.779 232.722C705.466 212.045 781.354 245.87 813.301 312.847C844.025 378.365 820.747 457.15 774.141 490.668C776.513 502.947 777.101 516.484 775.33 531.048Z" stroke="#0075FF" stroke-miterlimit="10"/>
<path d="M771.065 525.633C784.348 577.7 756.618 640.553 702.756 666.346C667.696 685.56 628.174 690.366 591.61 681.706C563.428 677.799 534.676 665.314 509.073 644.736C480.843 622.347 459.601 587.745 439.377 554.277C418.816 520.62 408.17 483.481 407.436 448.13C405.355 414.107 412.402 380.671 427.1 352.472C443.294 304.486 485.686 260.809 540.19 244.776C570.625 236.481 601.75 225.79 632.14 224.114C702.91 202.645 780.132 236.929 812.454 305.1C843.58 371.877 819.509 452.078 771.179 485.995C773.013 498.136 773.194 511.402 771.065 525.633Z" stroke="#0075FF" stroke-miterlimit="10"/>
<path d="M766.345 520.268C778.832 570.835 751.684 632.022 699.182 657.239C664.599 676.352 625.526 681.259 589.277 672.912C561.009 669.158 532.102 656.744 506.335 636.127C477.884 613.648 456.319 578.89 436.108 545C415.592 510.907 405.079 473.367 404.637 437.734C402.807 403.599 410.156 370.18 425.07 342.148C441.326 295.046 483.12 252.359 536.734 236.689C566.886 228.522 597.724 217.581 627.996 215.616C699.805 193.338 778.404 228.099 811.071 297.478C842.597 365.513 817.735 447.131 767.648 481.46C769.057 493.375 768.8 506.383 766.345 520.268Z" stroke="#0075FF" stroke-miterlimit="10"/>
<path d="M761.195 515.018C772.854 564.098 746.288 623.619 695.177 648.248C661.059 667.226 622.449 672.267 586.545 664.22C558.191 660.619 529.129 648.275 503.167 627.633C474.482 605.033 452.62 570.182 432.441 535.824C411.925 501.277 401.62 463.341 401.408 427.453C399.859 393.192 407.48 359.803 422.623 331.972C438.923 285.798 480.169 244.042 532.817 228.731C562.655 220.705 593.268 209.486 623.409 207.201C696.301 184.132 776.221 219.32 809.244 289.939C841.141 359.245 815.518 442.267 763.687 477.04C764.671 488.73 764.008 501.466 761.195 515.018Z" stroke="#0075FF" stroke-miterlimit="10"/>
<path d="M755.539 509.879C766.384 557.505 740.417 615.314 690.666 639.367C657.013 658.212 618.879 663.418 583.307 655.639C554.837 652.204 525.636 639.885 499.524 619.236C470.586 596.561 448.446 561.571 428.285 526.713C407.801 491.697 397.674 453.379 397.71 417.191C396.411 382.818 404.303 349.459 419.706 321.814C436.069 276.524 476.717 235.758 528.443 220.824C558.012 212.957 588.324 201.457 618.365 198.837C692.34 174.976 773.593 210.623 807.005 282.468C839.303 353.033 812.888 437.471 759.301 472.656C759.779 484.195 758.709 496.659 755.539 509.879Z" stroke="#0075FF" stroke-miterlimit="10"/>
<path d="M749.48 504.919C759.529 551.045 734.144 607.188 685.752 630.666C652.578 649.41 614.893 654.716 579.666 647.237C551.11 643.955 521.723 631.721 495.478 611.019C466.319 588.255 443.869 553.14 423.709 517.828C403.256 482.344 393.275 443.657 393.603 407.187C392.586 372.687 400.762 339.391 416.381 311.915C432.82 267.539 472.857 227.731 523.648 213.143C552.904 205.417 582.96 193.653 612.882 190.746C687.896 166.075 770.527 202.199 804.282 275.252C836.994 347.106 809.775 432.929 754.432 468.526C754.454 479.853 752.976 492.045 749.48 504.919Z" stroke="#0075FF" stroke-miterlimit="10"/>
<path d="M742.982 500.231C752.204 544.871 727.419 599.301 680.418 622.19C647.708 640.8 610.498 646.272 575.572 639.075C546.931 635.945 517.388 623.782 490.948 603.055C461.537 580.216 438.84 544.948 418.667 509.15C398.259 473.23 388.429 434.096 389 397.404C388.233 362.793 396.711 329.512 412.578 302.191C429.092 258.729 468.549 219.866 518.388 205.669C547.362 198.07 577.161 186.043 606.952 182.815C683.049 157.352 767 193.903 801.112 268.196C834.225 341.309 806.214 428.548 749.115 464.557C748.751 475.755 746.835 487.689 742.982 500.231Z" stroke="#0075FF" stroke-miterlimit="10"/>
<path d="M736.121 495.82C744.515 538.974 720.312 591.738 674.701 614.039C642.456 632.515 605.709 638.119 571.141 631.255C542.384 628.292 512.716 616.185 486.1 595.386C456.468 572.458 433.461 537.066 413.319 500.8C392.943 464.411 383.291 424.896 384.122 387.935C383.637 353.198 392.386 319.948 408.482 292.827C425.058 250.248 463.931 212.407 512.822 198.523C541.482 191.065 571.025 178.774 600.698 175.258C677.846 149.018 763.162 186.014 797.649 261.5C831.163 335.871 802.361 424.527 743.506 460.948C742.622 471.962 740.3 483.624 736.121 495.82Z" stroke="#0075FF" stroke-miterlimit="10"/>
<path d="M728.866 491.699C736.464 533.353 712.842 584.451 668.591 606.177C636.824 624.551 600.526 630.257 566.303 623.692C537.474 620.914 507.637 608.846 480.857 588.008C451.004 564.991 427.675 529.442 407.546 492.753C387.17 455.911 377.696 416.014 378.787 378.785C378.553 343.935 387.572 310.715 403.929 283.781C420.581 242.117 458.874 205.22 506.843 191.713C535.234 184.415 564.508 171.828 594.05 167.991C672.267 140.928 758.929 178.415 793.773 255.141C827.657 330.783 798.095 420.842 737.528 457.693C736.131 468.445 733.402 479.836 728.866 491.699Z" stroke="#0075FF" stroke-miterlimit="10"/>
<path d="M721.291 487.873C728.062 528.041 705.053 577.46 662.161 598.61C630.859 616.851 595.037 622.721 561.114 616.439C532.2 613.813 502.176 601.83 475.232 580.953C445.127 557.861 421.519 522.173 401.409 484.984C381.065 447.674 371.768 407.394 373.107 369.865C373.154 334.89 382.444 301.7 399.03 274.966C415.713 234.198 453.44 198.277 500.475 185.116C528.552 177.959 557.57 165.108 587.012 160.938C666.312 133.083 754.338 171.014 789.526 248.948C823.811 325.848 793.457 417.323 731.134 454.586C729.32 465.223 726.197 476.374 721.291 487.873Z" stroke="#0075FF" stroke-miterlimit="10"/>
<path d="M713.366 484.356C719.341 523.024 696.914 570.777 655.381 591.353C624.588 609.477 589.184 615.463 555.607 609.48C526.607 607.007 496.415 595.063 469.32 574.179C438.994 550.998 415.076 515.185 394.998 477.529C374.698 439.782 365.565 399.088 367.134 361.305C367.431 326.217 377.037 293.076 393.826 266.478C410.584 226.625 447.701 191.662 493.814 178.878C521.609 171.848 550.339 158.748 579.663 154.289C660.014 125.657 749.392 164.001 784.937 243.175C819.623 321.332 788.477 414.224 724.399 451.899C722.173 462.342 718.598 473.203 713.366 484.356Z" stroke="#0075FF" stroke-miterlimit="10"/>
<path d="M705.18 481.185C710.328 518.367 688.469 564.422 648.34 584.442C618.012 602.432 583.083 608.583 549.838 602.868C520.721 600.562 490.404 588.674 463.146 567.751C432.568 544.494 408.371 508.543 388.281 470.401C368.013 432.186 359.013 391.092 360.886 353.058C361.465 317.845 371.342 284.734 388.36 258.336C405.194 219.398 441.731 185.379 486.878 172.954C514.36 166.065 542.865 152.687 572.058 147.908C653.478 118.453 744.202 157.288 780.091 237.669C815.178 317.084 783.228 411.36 717.407 449.479C714.706 459.757 710.769 470.364 705.18 481.185Z" stroke="#0075FF" stroke-miterlimit="10"/>
<path d="M696.656 478.355C700.99 514.083 679.731 558.427 640.98 577.825C611.116 595.682 576.65 601.966 543.75 596.551C514.547 594.397 484.044 582.594 456.622 561.632C425.823 538.286 401.317 502.211 381.258 463.6C360.99 424.932 352.199 383.441 354.302 345.153C355.13 309.828 365.278 276.747 382.557 250.536C399.453 212.48 435.392 179.451 479.618 167.404C506.818 160.642 535.035 147.015 564.141 141.933C646.645 111.687 738.701 150.98 774.977 232.587C810.466 313.259 777.724 408.951 710.161 447.514C706.978 457.516 702.603 467.866 696.656 478.355Z" stroke="#0075FF" stroke-miterlimit="10"/>
<path d="M687.903 475.857C691.441 510.085 670.763 552.763 633.371 571.587C603.986 589.342 569.969 595.727 537.395 590.658C508.108 588.657 477.448 576.925 449.863 555.923C418.843 532.488 394.027 496.288 374 457.21C353.763 418.073 345.15 376.201 347.513 337.645C348.623 302.194 359.042 269.143 376.55 243.132C393.522 205.991 428.85 173.92 472.142 162.217C499.041 155.629 526.989 141.706 555.964 136.304C639.518 105.281 732.926 144.987 769.559 227.833C805.417 309.777 771.916 406.871 702.596 445.846C699.001 455.654 694.176 465.714 687.903 475.857Z" stroke="#0075FF" stroke-miterlimit="10"/>
<path d="M678.915 473.769C681.626 506.512 661.56 547.511 625.527 565.76C596.606 583.381 563.064 589.931 530.823 585.13C501.419 583.295 470.635 571.62 442.873 550.547C411.601 527.037 386.506 490.698 366.466 451.134C346.262 411.529 337.794 369.289 340.405 330.433C341.766 294.869 352.487 261.835 370.21 235.993C387.245 199.734 422.007 168.638 464.377 157.313C490.995 150.851 518.686 136.665 547.53 130.943C632.154 99.0964 726.907 139.294 763.915 223.333C800.175 306.534 765.881 405.044 694.838 444.417C690.763 454.138 685.544 463.958 678.915 473.769Z" stroke="#0075FF" stroke-miterlimit="10"/>
<path d="M669.696 472.013C671.58 503.27 652.096 542.604 617.453 560.264C588.997 577.752 555.918 584.435 524.021 579.933C494.532 578.251 463.579 566.615 435.635 545.548C404.142 521.95 378.757 485.44 358.73 445.454C338.57 405.414 330.266 362.759 333.138 323.635C334.78 287.946 345.785 254.973 363.724 229.3C380.803 193.969 414.999 163.85 456.423 152.837C482.726 146.517 510.161 132.067 538.887 126.057C624.562 93.433 720.68 134.075 758.031 219.321C794.705 303.812 759.607 403.706 686.808 443.491C682.322 453.018 676.696 462.566 669.696 472.013Z" stroke="#0075FF" stroke-miterlimit="10"/>
<path d="M660.287 470.687C661.375 500.444 642.459 538.081 609.189 555.198C581.21 572.584 548.593 579.4 517.028 575.167C487.454 573.637 456.314 562.085 428.238 540.966C396.524 517.278 370.828 480.644 350.82 440.158C330.692 399.65 322.553 356.581 325.667 317.235C327.559 281.434 338.866 248.477 357.066 222.99C374.22 188.574 407.805 159.412 448.308 148.777C474.329 142.583 501.477 127.884 530.103 121.54C616.86 88.1248 714.297 129.193 752.019 215.711C789.093 301.459 753.173 402.783 678.65 442.965C673.645 452.309 667.599 461.554 660.287 470.687Z" stroke="#0075FF" stroke-miterlimit="10"/>
<path d="M650.718 469.774C650.98 498.047 632.677 534.004 600.796 550.533C573.282 567.785 541.127 574.734 509.876 570.814C480.216 569.437 448.921 557.956 420.65 536.812C388.684 513.049 362.71 476.276 342.702 435.336C322.574 394.374 314.613 350.924 318.018 311.295C320.192 275.368 331.739 242.456 350.199 217.155C367.416 183.621 400.435 155.435 439.971 145.159C465.693 139.139 492.602 124.13 521.11 117.498C608.936 83.2596 707.719 124.819 745.815 212.53C783.26 299.549 746.58 402.274 670.315 442.9C664.827 451.969 658.357 460.987 650.718 469.774Z" stroke="#0075FF" stroke-miterlimit="10"/>
<path d="M640.946 469.259C640.412 496.032 622.69 530.324 592.168 546.278C565.132 563.429 533.426 570.479 502.533 566.891C472.756 565.68 441.337 554.256 412.902 533.072C380.702 509.189 354.419 472.291 334.442 430.883C314.346 389.454 306.562 345.621 310.228 305.725C312.652 269.685 324.501 236.79 343.177 211.657C360.469 179.037 392.878 151.809 431.493 141.91C456.933 136.017 483.555 120.758 511.932 113.806C600.809 78.7911 700.987 120.781 739.395 209.713C777.24 297.989 739.769 402.13 661.749 443.168C655.831 452.089 648.986 460.822 640.946 469.259Z" stroke="#0075FF" stroke-miterlimit="10"/>
<path d="M633.133 471.005C631.772 496.292 614.631 528.919 585.486 544.253C558.914 561.27 527.684 568.485 497.123 565.165C467.261 564.107 435.686 552.753 407.088 531.53C374.636 507.572 348.087 470.568 328.129 428.66C308.077 386.794 300.457 342.548 304.34 302.365C307.045 266.2 319.165 233.334 338.07 208.402C355.437 176.697 387.236 150.426 424.917 140.872C450.043 135.12 476.44 119.584 504.686 112.312C594.645 76.5056 696.143 118.922 734.939 209.079C773.185 298.612 734.923 404.169 655.148 445.619C648.782 454.438 641.485 462.882 633.133 471.005Z" stroke="#0075FF" stroke-miterlimit="10"/>
<path d="M627.834 475.911C625.66 499.746 609.118 530.662 581.332 545.421C555.256 562.29 524.457 569.652 494.241 566.631C464.307 565.758 432.532 554.457 403.77 533.195C371.097 509.148 344.238 472.019 324.281 429.658C304.261 387.324 296.787 342.71 300.961 302.245C303.916 265.968 316.351 233.151 335.472 208.387C352.902 177.564 384.134 152.269 420.895 143.092C445.739 137.466 471.849 121.681 500.008 114.107C591.049 77.5099 693.879 120.385 733.032 211.781C771.679 302.571 732.625 409.543 651.126 451.39C644.247 459.949 636.557 468.152 627.834 475.911Z" stroke="#0075FF" stroke-miterlimit="10"/>
<path d="M624.678 483.609C621.708 505.945 605.735 535.164 579.32 549.381C553.721 566.148 523.384 573.643 493.468 570.904C463.418 570.197 431.505 558.921 402.58 537.62C369.686 513.484 342.518 476.23 322.579 433.369C302.604 390.6 295.307 345.603 299.71 304.885C302.947 268.482 315.622 235.709 335.003 211.131C352.509 181.222 383.13 156.884 418.957 148.052C443.5 142.6 469.341 126.52 497.369 118.625C589.448 81.2192 693.655 124.571 733.151 217.173C772.199 309.22 732.355 417.608 649.101 459.868C641.823 468.264 633.726 476.196 624.678 483.609Z" stroke="#0075FF" stroke-miterlimit="10"/>
<path d="M623.276 493.698C619.479 514.549 604.119 542.089 579.062 555.731C553.929 572.365 524.053 579.993 494.483 577.554C464.347 576.999 432.279 565.794 403.19 544.454C370.044 520.242 342.584 482.818 322.69 439.521C302.702 396.266 295.601 350.842 300.278 309.887C303.778 273.405 316.754 240.648 336.352 216.239C353.888 187.225 383.975 163.849 418.85 155.408C443.111 150.083 468.696 133.739 496.606 125.557C589.767 87.3599 695.306 131.17 735.177 224.965C774.595 318.283 733.977 428.04 648.994 470.775C641.216 478.943 632.681 486.617 623.276 493.698Z" stroke="#0075FF" stroke-miterlimit="10"/>
<path d="M623.29 505.794C618.666 525.159 603.887 551.035 580.252 564.075C555.582 580.574 526.169 588.335 496.943 586.196C466.722 585.794 434.498 574.66 405.215 553.294C371.848 528.994 344.079 491.445 324.185 447.694C304.228 403.972 297.273 358.18 302.21 316.957C305.979 280.316 319.226 247.589 339.053 223.381C356.665 195.281 386.154 172.895 420.082 164.767C444.03 159.583 469.359 142.975 497.137 134.473C591.38 95.4851 698.239 139.722 738.48 234.788C778.298 329.363 729.569 427.197 650.152 483.682C640.903 490.238 633.039 499.012 623.29 505.794Z" stroke="#0075FF" stroke-miterlimit="10"/>
<path d="M624.336 519.417C618.918 537.284 604.719 561.495 582.442 573.96C558.251 590.358 529.3 598.252 500.418 596.413C470.112 596.163 437.701 585.114 408.285 563.695C374.666 539.319 346.65 501.618 326.744 457.382C306.832 413.223 300.041 367.017 305.239 325.527C309.257 288.774 322.82 256.095 342.862 232.055C360.55 204.869 389.429 183.441 422.436 175.689C446.102 170.632 471.143 153.776 498.822 144.939C594.102 105.143 702.337 149.856 742.922 246.129C783.141 341.96 734.481 442.414 652.449 498.107C642.841 504.597 634.456 513 624.336 519.417Z" stroke="#0075FF" stroke-miterlimit="10"/>
<path d="M626.07 534.263C619.825 550.644 606.239 573.177 585.307 585.036C561.58 601.3 533.091 609.327 504.523 607.801C474.1 607.718 441.565 596.725 411.986 575.268C378.146 550.803 349.82 512.977 329.945 468.273C310.065 423.647 303.451 377.059 308.865 335.282C313.165 298.404 326.967 265.77 347.301 241.902C365.051 215.598 393.364 195.144 425.406 187.752C448.772 182.868 473.575 165.702 501.136 156.577C597.499 115.99 707.066 161.162 748.025 258.627C788.658 355.747 740.011 458.771 655.408 513.689C645.484 520.132 636.515 528.191 626.07 534.263Z" stroke="#0075FF" stroke-miterlimit="10"/>
<path d="M628.123 549.883C621.083 564.766 608.065 585.602 588.504 596.919C565.255 613.081 537.227 621.241 508.992 619.983C478.483 620.053 445.78 609.098 416.018 587.648C381.945 563.062 353.309 525.112 333.466 479.94C313.586 434.86 307.136 387.858 312.855 345.832C317.405 308.841 331.509 276.223 352.059 252.523C369.884 227.133 397.588 207.637 428.74 200.608C451.824 195.851 476.34 178.435 503.77 168.991C601.183 127.627 712.1 173.211 753.416 271.915C794.45 370.292 745.779 475.977 658.667 530.092C648.384 536.47 638.894 544.157 628.123 549.883Z" stroke="#0075FF" stroke-miterlimit="10"/>
<path d="M630.11 565.878C622.243 579.276 609.806 598.447 591.635 609.176C568.85 625.205 541.285 633.497 513.394 632.539C482.8 632.761 449.91 621.892 420.003 600.355C385.69 575.727 356.776 537.638 336.92 491.98C317.072 446.433 310.8 399.049 316.748 356.769C321.579 319.652 335.954 287.064 356.732 263.565C374.62 239.057 401.726 220.55 431.945 213.865C454.716 209.249 479.007 191.556 506.319 181.824C604.801 139.638 717.095 185.698 758.767 285.641C800.171 385.288 751.493 493.589 661.905 546.887C651.262 553.199 641.238 560.484 630.11 565.878Z" stroke="#0075FF" stroke-miterlimit="10"/>
<path d="M631.645 581.844C622.965 593.789 611.127 611.251 594.345 621.391C572.024 637.286 544.921 645.712 517.344 645.067C486.634 645.455 453.619 634.643 423.548 613.067C389.015 588.35 359.779 550.104 339.936 504.025C320.132 458.042 314.024 410.245 320.232 367.696C325.314 330.468 339.991 297.896 360.998 274.597C378.93 251.017 405.489 233.439 434.756 227.145C457.244 222.656 481.248 204.714 508.46 194.648C608.024 151.671 721.65 198.189 763.666 299.339C805.47 400.243 756.693 511.201 664.659 563.668C653.657 569.915 643.13 576.782 631.645 581.844Z" stroke="#0075FF" stroke-miterlimit="10"/>
<path d="M632.431 597.417C622.956 607.864 611.699 623.661 596.275 633.227C574.432 649.021 547.79 657.579 520.545 657.203C489.749 657.743 456.579 647.001 426.313 625.401C391.528 600.609 362.013 562.224 342.189 515.646C322.417 469.195 316.455 421.03 322.924 378.213C328.286 340.859 343.216 308.363 364.47 285.218C382.478 262.552 408.426 245.931 436.76 239.982C458.935 235.634 482.683 217.429 509.764 207.042C610.378 163.289 725.355 210.22 767.727 312.608C809.933 414.768 761.011 528.366 666.576 580.021C655.29 586.206 644.241 592.701 632.431 597.417Z" stroke="#0075FF" stroke-miterlimit="10"/>
<path d="M632.024 612.147C621.722 621.109 611.077 635.228 597.012 644.22C575.664 659.866 549.453 668.571 522.565 668.526C491.684 669.219 458.358 658.548 427.929 636.908C392.923 612.027 363.099 573.518 343.306 526.472C323.535 479.568 317.781 431.006 324.497 387.89C330.11 350.424 345.341 317.944 366.812 294.968C384.882 273.183 410.233 257.551 437.646 251.979C459.552 247.79 483.031 229.289 509.994 218.615C611.677 174.039 727.999 221.46 770.746 325.041C813.352 428.457 764.287 544.694 667.45 595.536C655.743 601.684 644.204 607.794 632.024 612.147Z" stroke="#0075FF" stroke-miterlimit="10"/>
<path d="M630.11 625.712C618.121 631.532 608.905 645.613 596.228 654.017C575.345 669.529 549.609 678.399 523.053 678.622C492.087 679.467 458.573 668.881 428.012 647.188C392.785 622.217 362.652 583.584 342.859 536.084C323.119 488.712 317.53 439.737 324.488 396.399C330.382 358.807 345.884 326.358 367.584 303.581C385.729 282.71 410.514 268.053 436.95 262.808C458.543 258.76 481.766 239.996 508.598 229.002C611.363 183.635 729.016 231.515 772.12 336.334C815.127 441.007 765.842 559.879 666.693 609.945C654.675 615.967 642.005 619.934 630.11 625.712Z" stroke="#0075FF" stroke-miterlimit="10"/>
<path d="M626.307 637.634C613.914 642.462 604.887 654.373 593.569 662.203C573.163 677.613 547.876 686.585 521.633 687.121C490.563 688.165 456.9 677.571 426.157 655.885C390.678 630.839 360.297 592.053 340.492 544.068C320.783 496.229 315.34 446.886 322.59 403.265C328.734 365.561 344.538 333.128 366.466 310.552C384.674 290.562 408.862 276.895 434.409 272.013C455.72 268.092 478.656 249.078 505.401 237.782C609.216 191.639 728.22 239.931 771.711 345.974C815.088 451.918 765.601 573.379 664.14 622.668C651.701 628.653 638.812 632.719 626.307 637.634Z" stroke="#0075FF" stroke-miterlimit="10"/>
<path d="M620.243 647.545C607.334 651.468 598.609 661.121 588.648 668.376C568.706 683.654 543.882 692.758 517.983 693.593C486.828 694.79 453.009 684.267 422.103 662.542C386.403 637.407 355.713 598.497 335.939 550.044C316.275 501.769 310.995 452.012 318.506 408.124C324.931 370.294 340.975 337.905 363.163 315.515C381.447 296.439 405.025 283.728 429.638 279.191C450.636 275.411 473.347 256.12 499.961 244.504C604.845 197.538 725.194 246.32 769.029 353.57C812.806 460.77 763.056 584.849 659.345 633.332C646.465 639.326 633.321 643.583 620.243 647.545Z" stroke="#0075FF" stroke-miterlimit="10"/>
<path d="M763.699 358.752C807.878 467.209 757.806 593.855 651.871 641.598C638.613 647.573 625.139 652.016 611.594 655.014C598.049 658.011 589.746 665.428 581.175 672.095C561.71 687.271 537.347 696.508 511.78 697.611C480.539 698.96 446.565 688.507 415.482 666.711C379.529 641.502 348.561 602.452 328.775 553.514C309.142 504.771 304.04 454.633 311.779 410.49C318.436 372.595 334.795 340.254 357.2 318.032C375.527 299.883 398.558 288.102 422.219 283.955C442.949 280.334 465.359 260.762 491.843 248.826C597.809 201.069 719.521 250.296 763.699 358.752Z" stroke="#0075FF" stroke-miterlimit="10"/>
<path d="M419.189 284.617C439.973 280.858 462.347 261.378 488.8 249.456C490.582 248.653 492.408 247.868 494.204 247.097C523.496 234.88 553.867 229.945 583.381 231.534C659.135 235.622 729.224 282.767 760.493 359.531C789.076 429.701 778.269 507.469 738.481 566.509C722.683 589.959 702.318 610.466 678.043 626.37C668.752 632.451 658.866 637.892 648.472 642.538C635.202 648.481 621.697 652.938 608.133 655.982C594.633 658.997 586.304 666.351 577.719 672.985C558.202 688.033 533.875 697.178 508.34 698.267C477.074 699.551 443.143 689.117 412.144 667.435C376.205 642.257 345.231 603.286 325.484 554.444C305.82 505.716 300.781 455.549 308.645 411.351C315.378 373.459 331.768 341.104 354.222 318.822C372.549 300.674 395.536 288.874 419.189 284.617Z" stroke="#0075FF" stroke-miterlimit="10"/>
<path d="M415.843 284.961C436.664 281.11 459.051 261.662 485.409 249.782C487.192 248.979 489.018 248.194 490.813 247.423C520.075 235.22 550.446 230.285 579.972 231.906C655.601 236.051 725.69 283.195 756.972 359.991C785.594 430.257 774.777 508.181 734.944 567.203C719.115 590.667 698.688 611.202 674.399 627.073C665.077 633.169 655.197 638.531 644.772 643.192C631.488 649.103 617.97 653.528 604.402 656.65C590.958 659.715 582.603 667.004 573.979 673.543C554.411 688.462 530.076 697.497 504.634 698.544C473.387 699.783 439.501 689.366 408.527 667.748C372.57 642.617 341.592 603.724 321.902 554.932C302.238 506.204 297.261 456.009 305.219 411.768C312.009 373.927 328.443 341.59 350.915 319.262C369.193 301.174 392.154 289.31 415.843 284.961Z" stroke="#0075FF" stroke-miterlimit="10"/>
<path d="M412.165 285.032C433.053 281.074 455.391 261.686 481.718 249.821C483.5 249.018 485.296 248.247 487.091 247.476C516.321 235.287 546.705 230.384 576.2 232.019C651.735 236.206 721.774 283.411 753.087 360.192C781.761 430.586 770.876 508.615 731.044 567.638C715.165 591.162 694.68 611.647 670.379 627.486C661.044 633.55 651.133 638.926 640.695 643.555C627.398 649.433 613.848 653.873 600.249 657.009C586.85 660.092 578.469 667.317 569.832 673.824C550.242 688.601 525.913 697.558 500.49 698.558C469.229 699.765 435.374 689.334 404.471 667.798C368.496 642.713 337.544 603.885 317.893 555.189C298.255 506.525 293.341 456.302 301.393 412.019C308.24 374.228 324.687 341.923 347.24 319.521C365.523 301.354 388.471 289.459 412.165 285.032Z" stroke="#0075FF" stroke-miterlimit="10"/>
<path d="M408.172 284.785C429.097 280.735 451.416 261.393 477.694 249.588C479.476 248.785 481.271 248.014 483.066 247.243C512.265 235.069 542.618 230.179 572.17 231.865C647.58 236.108 717.632 283.344 748.945 360.126C777.69 430.601 766.763 508.801 726.918 567.792C711.008 591.33 690.492 611.829 666.115 627.664C656.749 633.742 646.811 639.054 636.36 643.651C623.051 649.497 609.488 653.905 595.883 657.119C582.528 660.22 574.134 667.413 565.471 673.856C545.829 688.505 521.537 697.369 496.163 698.31C464.876 699.452 431.11 689.058 400.265 667.572C364.271 642.533 333.345 603.768 313.689 555.15C294.025 506.422 289.173 456.172 297.288 411.861C304.193 374.119 320.671 341.8 343.255 319.384C361.564 301.282 384.485 289.322 408.172 284.785Z" stroke="#0075FF" stroke-miterlimit="10"/>
<path d="M403.878 284.251C424.87 280.095 447.14 260.814 473.355 249.037C475.137 248.234 476.932 247.462 478.727 246.691C507.895 234.531 538.261 229.674 567.813 231.359C643.097 235.659 713.149 282.895 744.462 359.676C773.246 430.248 762.309 508.604 722.419 567.576C706.491 591.16 685.9 611.655 661.51 627.459C652.131 633.505 642.162 638.831 631.666 643.409C618.344 649.224 604.763 653.678 591.158 656.892C577.861 660.043 569.428 667.14 560.752 673.55C541.058 688.071 516.802 696.844 491.459 697.77C460.19 698.866 426.424 688.472 395.649 667.068C359.669 642.061 328.738 603.374 309.121 554.853C289.457 506.125 284.668 455.846 292.876 411.493C299.839 373.801 316.361 341.501 338.995 319.024C357.291 300.89 380.167 288.913 403.878 284.251Z" stroke="#0075FF" stroke-miterlimit="10"/>
<path d="M399.294 283.464C420.354 279.201 442.606 259.966 468.758 248.217C470.54 247.414 472.336 246.643 474.131 245.872C503.28 233.758 533.633 228.869 563.198 230.586C638.388 234.928 708.391 282.224 739.735 358.991C768.557 429.658 757.597 508.138 717.676 567.124C701.685 590.737 681.063 611.246 656.647 626.985C647.237 633.045 637.242 638.307 626.746 642.886C613.411 648.669 599.817 653.09 586.163 656.364C572.91 659.533 564.451 666.566 555.749 672.913C536.002 687.306 511.77 695.954 486.49 696.852C455.195 697.884 421.505 687.493 390.769 666.185C354.771 641.225 323.866 602.603 304.275 554.145C284.611 505.417 279.885 455.111 288.187 410.715C295.206 373.074 311.741 340.805 334.425 318.269C352.715 300.212 375.61 288.189 399.294 283.464Z" stroke="#0075FF" stroke-miterlimit="10"/>
<path d="M394.455 282.409C415.551 278.054 437.785 258.865 463.874 247.144C465.657 246.341 467.452 245.57 469.26 244.831C498.378 232.731 528.744 227.874 558.277 229.605C633.343 234.003 703.358 281.332 734.671 358.113C763.546 428.908 752.562 507.512 712.628 566.466C696.606 590.093 675.921 610.63 651.493 626.337C642.082 632.397 632.074 637.627 621.534 642.188C608.154 647.953 594.561 652.374 580.919 655.68C567.724 658.899 559.238 665.868 550.51 672.151C530.725 686.448 506.516 694.971 481.254 695.824C449.947 696.824 416.332 686.437 385.622 665.193C349.606 640.279 318.695 601.734 299.175 553.359C279.524 504.663 274.86 454.328 283.256 409.891C290.333 372.299 306.899 340.016 329.645 317.452C347.941 299.317 370.779 287.244 394.455 282.409Z" stroke="#0075FF" stroke-miterlimit="10"/>
<path d="M389.415 281.136C410.579 276.675 432.763 257.546 458.822 245.84C460.604 245.037 462.399 244.266 464.176 243.541C493.263 231.455 523.628 226.598 553.175 228.361C628.147 232.802 698.143 280.176 729.456 356.957C758.37 427.848 747.345 506.622 707.398 565.544C691.358 589.216 670.628 609.736 646.111 625.407C636.687 631.435 626.635 636.647 616.082 641.176C602.69 646.909 589.065 651.344 575.436 654.682C562.285 657.919 553.774 664.824 545.033 671.075C525.195 685.244 501.023 693.675 475.823 694.499C444.521 695.421 410.92 685.066 380.325 663.922C344.29 639.054 313.419 600.606 293.88 552.277C274.23 503.581 269.584 453.2 278.105 408.706C285.239 371.165 301.85 338.9 324.614 316.289C342.878 298.169 365.69 286.032 389.415 281.136Z" stroke="#0075FF" stroke-miterlimit="10"/>
<path d="M384.101 279.643C405.333 275.075 427.467 256.007 453.463 244.329C455.245 243.526 457.04 242.755 458.817 242.029C487.873 229.958 518.251 225.133 547.811 226.928C622.657 231.425 692.623 278.813 723.98 355.612C752.933 426.599 741.884 505.497 701.906 564.433C685.803 588.134 665.03 608.635 640.513 624.307C631.057 630.348 620.992 635.529 610.427 640.025C597.034 645.758 583.383 650.13 569.705 653.528C556.598 656.783 548.074 663.656 539.307 669.842C519.448 683.869 495.25 692.236 470.1 693C438.785 693.89 405.259 683.539 374.69 662.459C338.668 637.623 307.792 599.253 288.293 551.02C268.642 502.324 264.059 451.915 272.655 407.426C279.847 369.934 296.502 337.687 319.284 315.03C337.616 296.804 360.383 284.649 384.101 279.643Z" stroke="#0075FF" stroke-miterlimit="10"/>
<path d="M378.618 277.918C399.873 273.227 422.002 254.236 447.936 242.587C449.718 241.783 451.513 241.012 453.29 240.287C482.314 228.23 512.693 223.404 542.234 225.246C616.955 229.799 686.934 277.219 718.291 354.018C747.327 425.119 736.224 504.155 696.233 563.059C680.099 586.774 659.263 607.303 634.733 622.943C625.264 628.953 615.168 634.147 604.589 638.612C591.183 644.312 577.501 648.698 563.836 652.128C550.805 655.387 542.223 662.21 533.43 668.333C513.52 682.231 489.344 690.474 464.257 691.21C432.96 692.054 399.434 681.703 368.936 660.705C332.896 635.915 302.046 597.609 282.573 549.44C262.922 500.744 258.401 450.307 267.092 405.775C274.309 368.348 290.996 336.087 313.871 313.388C332.123 295.236 354.877 283.049 378.618 277.918Z" stroke="#0075FF" stroke-miterlimit="10"/>
<path d="M372.891 275.959C394.214 271.161 416.325 252.217 442.196 240.596C443.978 239.792 445.742 239.035 447.551 238.296C476.543 226.253 506.89 221.442 536.476 223.301C611.104 227.897 681.064 275.363 712.421 352.162C741.496 423.358 730.383 502.551 690.347 561.437C674.195 585.198 653.283 605.724 628.727 621.299C619.228 627.323 609.137 632.439 598.527 636.918C585.108 642.587 571.425 646.972 557.743 650.449C544.769 653.758 536.161 660.516 527.341 666.575C507.379 680.345 483.24 688.496 458.171 689.186C426.848 689.966 393.411 679.651 362.97 658.703C326.925 633.991 296.087 595.717 276.622 547.658C256.972 498.962 252.526 448.529 261.297 403.923C268.572 366.545 285.303 334.302 308.197 311.557C326.417 293.419 349.176 281.154 372.891 275.959Z" stroke="#0075FF" stroke-miterlimit="10"/>
<path d="M367.01 273.802C388.37 268.912 410.462 250.013 436.27 238.42C438.053 237.617 439.817 236.86 441.625 236.12C470.568 224.137 500.947 219.312 530.532 221.171C605.035 225.823 674.977 273.336 706.366 350.12C735.48 421.413 724.343 500.73 684.276 559.631C668.061 583.42 647.15 603.945 622.518 619.517C613.005 625.509 602.883 630.639 592.247 635.054C578.815 640.691 565.088 645.058 551.387 648.581C538.458 651.907 529.823 658.602 520.991 664.629C500.976 678.271 476.874 686.33 451.868 686.991C420.531 687.74 387.157 677.396 356.755 656.544C320.723 631.864 289.849 593.682 270.441 545.673C250.79 496.978 246.376 446.53 255.273 401.867C262.605 364.54 279.38 332.315 302.323 309.509C320.557 291.403 343.259 279.088 367.01 273.802Z" stroke="#0075FF" stroke-miterlimit="10"/>
<path d="M360.969 271.524C382.396 266.528 404.439 247.69 430.216 236.111C431.998 235.307 433.762 234.55 435.571 233.811C464.514 221.828 494.861 217.017 524.46 218.908C598.869 223.602 668.78 271.129 700.181 347.946C729.348 419.367 718.156 498.822 678.076 557.69C661.843 581.525 640.856 602.047 616.198 617.555C606.654 623.561 596.506 628.627 585.87 633.042C572.393 638.661 558.698 643.014 544.979 646.583C532.093 649.928 523.446 656.591 514.588 662.553C494.534 676.099 470.455 684.034 445.467 684.649C414.136 685.319 380.774 675.008 350.442 654.238C314.392 629.604 283.544 591.486 264.176 543.573C244.525 494.877 240.173 444.402 249.163 399.697C256.553 362.419 273.328 330.194 296.334 307.36C314.536 289.268 337.225 276.921 360.969 271.524Z" stroke="#0075FF" stroke-miterlimit="10"/>
<path d="M354.8 269.112C376.295 264.009 398.288 245.231 424.003 233.68C425.785 232.877 427.549 232.12 429.326 231.395C458.207 219.44 488.599 214.646 518.179 216.584C592.463 221.335 662.387 268.893 693.744 345.692C722.95 417.209 711.748 496.821 671.655 555.658C655.391 579.507 634.341 600.057 609.67 615.533C600.113 621.507 589.933 626.587 579.284 630.97C565.795 636.556 552.068 640.924 538.331 644.539C525.503 647.933 516.816 654.5 507.932 660.399C487.857 673.803 463.77 681.628 438.844 682.214C407.5 682.853 374.214 672.545 343.908 651.839C307.84 627.251 277.018 589.197 257.689 541.38C238.007 492.698 233.749 442.18 242.801 397.447C250.248 360.219 267.068 328.012 290.11 305.086C308.388 286.998 331.051 274.587 354.8 269.112Z" stroke="#0075FF" stroke-miterlimit="10"/>
<path d="M348.515 266.599C370.046 261.404 392.053 242.658 417.674 231.149C419.456 230.346 421.22 229.589 422.997 228.864C451.846 216.923 482.238 212.129 511.832 214.099C585.991 218.906 655.897 266.511 687.285 343.296C716.53 414.909 705.304 494.645 665.18 553.496C648.853 577.373 627.772 597.937 603.075 613.349C593.487 619.337 583.312 624.339 572.632 628.736C559.129 634.291 545.358 638.641 531.634 642.287C518.85 645.7 510.138 652.203 501.24 658.069C481.113 671.345 457.063 679.078 432.169 679.651C400.843 680.242 367.556 669.935 337.365 649.328C301.279 624.787 270.483 586.797 251.148 539.058C231.466 490.376 227.271 439.83 236.417 395.054C243.922 357.876 260.785 325.687 283.846 302.715C302.124 284.627 324.774 272.184 348.515 266.599Z" stroke="#0075FF" stroke-miterlimit="10"/>
<path d="M342.128 264.017C363.727 258.716 385.684 240.03 411.274 228.535C413.056 227.732 414.82 226.975 416.597 226.25C445.415 214.323 475.82 209.562 505.414 211.531C579.479 216.381 649.353 263.999 680.755 340.816C710.083 412.544 698.803 492.418 658.634 551.251C642.289 575.174 621.151 595.689 596.391 611.129C586.79 617.085 576.584 622.101 565.878 626.434C552.362 631.957 538.591 636.307 524.848 639.999C512.109 643.43 503.384 649.901 494.46 655.703C474.281 668.851 450.236 676.505 425.422 677.004C394.07 677.532 360.872 667.26 330.707 646.718C294.633 622.208 263.814 584.342 244.537 536.653C224.855 487.972 220.722 437.397 229.962 392.579C237.524 355.451 254.388 323.261 277.511 300.261C295.776 282.141 318.381 269.68 342.128 264.017Z" stroke="#0075FF" stroke-miterlimit="10"/>
<path d="M335.688 261.306C357.354 255.898 379.262 237.272 404.789 225.806C406.54 225.017 408.335 224.245 410.112 223.52C438.912 211.639 469.304 206.846 498.911 208.848C572.851 213.753 642.739 261.404 674.141 338.222C703.508 410.045 692.217 490.076 652.036 548.877C635.659 572.814 614.458 593.357 589.686 608.765C580.053 614.735 569.821 619.687 559.115 624.02C545.586 629.511 531.784 633.875 518.023 637.614C505.328 641.062 496.576 647.469 487.64 653.239C467.408 666.259 443.399 673.821 418.604 674.274C387.239 674.77 354.104 664.47 323.978 644.023C287.886 619.56 257.093 581.758 237.841 534.133C218.159 485.451 214.058 434.863 223.436 390.02C231.055 352.942 247.963 320.77 271.136 297.71C289.338 279.618 311.918 267.093 335.688 261.306Z" stroke="#0075FF" stroke-miterlimit="10"/>
<path d="M329.172 258.589C350.862 253.058 372.765 234.51 398.261 223.058C400.012 222.268 401.807 221.497 403.584 220.772C432.353 208.905 462.726 204.158 492.333 206.16C566.18 211.108 636.018 258.819 667.451 335.622C696.858 407.542 685.512 487.711 645.331 546.512C628.905 570.51 607.659 591.034 582.86 606.378C573.215 612.316 562.952 617.283 552.232 621.584C538.691 627.042 524.875 631.374 511.096 635.159C498.489 638.643 489.681 645 480.705 650.675C460.421 663.567 436.449 671.037 411.716 671.461C380.356 671.879 347.247 661.643 317.178 641.246C281.068 616.829 250.301 579.091 231.089 531.562C211.42 482.912 207.368 432.263 216.84 387.378C224.516 350.35 241.455 318.164 264.66 295.09C282.831 277.012 305.397 264.455 329.172 258.589Z" stroke="#0075FF" stroke-miterlimit="10"/>
<path d="M322.63 255.809C344.388 250.17 366.241 231.683 391.675 220.259C393.426 219.47 395.221 218.698 396.998 217.973C425.735 206.121 456.109 201.373 485.742 203.439C559.464 208.443 629.315 256.187 660.748 332.99C690.194 405.006 678.838 485.331 638.612 544.114C622.155 568.126 600.847 588.679 576.035 603.991C566.39 609.929 556.069 614.846 545.349 619.146C531.795 624.573 517.948 628.919 504.182 632.736C491.62 636.238 482.785 642.531 473.796 648.174C453.504 660.956 429.511 668.283 404.809 668.694C373.436 669.079 340.39 658.815 310.391 638.501C274.232 614.143 243.459 576.484 224.273 529.018C204.604 480.368 200.615 429.691 210.18 384.764C217.914 347.786 234.898 315.618 258.152 292.483C276.323 274.405 298.863 261.784 322.63 255.809Z" stroke="#0075FF" stroke-miterlimit="10"/>
<path d="M316.057 253.042C337.852 247.311 359.718 228.856 385.058 217.474C386.808 216.685 388.572 215.927 390.35 215.202C419.056 203.364 449.429 198.617 479.075 200.714C552.672 205.775 622.524 253.518 653.97 330.354C683.468 402.497 672.088 482.947 631.849 541.698C615.361 565.725 594.022 586.291 569.121 601.568C559.431 607.488 549.142 612.39 538.347 616.687C524.748 622.096 510.919 626.396 497.117 630.305C484.599 633.825 475.751 640.086 466.736 645.665C446.392 658.319 422.435 665.554 397.783 665.904C366.428 666.244 333.381 655.979 303.454 635.747C267.338 611.407 236.592 573.812 217.413 526.457C197.744 477.807 193.817 427.101 203.446 382.146C211.237 345.217 228.234 313.081 251.537 289.887C269.758 271.748 292.285 259.095 316.057 253.042Z" stroke="#0075FF" stroke-miterlimit="10"/>
<path d="M309.515 250.261C331.377 244.424 353.194 226.029 378.502 214.661C380.253 213.872 382.017 213.115 383.795 212.39C412.47 200.565 442.856 195.85 472.502 197.947C546.005 203.051 615.807 250.854 647.253 327.69C676.79 399.929 665.388 480.504 625.117 539.269C608.579 563.355 587.196 583.904 562.282 599.148C552.593 605.069 542.246 609.921 531.437 614.186C517.826 619.563 503.966 623.877 490.163 627.786C477.689 631.324 468.815 637.521 459.787 643.068C439.392 655.594 415.471 662.737 390.837 663.041C359.456 663.316 326.498 653.088 296.596 632.919C260.475 608.658 229.755 571.126 210.603 523.835C190.934 475.185 187.069 424.452 196.792 379.454C204.609 342.589 221.668 310.425 245.034 287.202C263.236 269.11 285.706 256.407 309.515 250.261Z" stroke="#0075FF" stroke-miterlimit="10"/>
<path d="M302.942 247.494C324.872 241.551 346.64 223.216 371.885 211.876C373.636 211.087 375.4 210.33 377.177 209.605C405.821 197.794 436.208 193.079 465.836 195.223C539.214 200.382 609.029 248.218 640.475 325.053C670.051 397.389 658.607 478.134 618.324 536.868C601.754 560.968 580.308 581.545 555.382 596.757C545.648 602.66 535.301 607.512 524.479 611.745C510.854 617.09 496.995 621.404 483.174 625.36C470.744 628.915 461.857 635.08 452.79 640.53C432.342 652.929 408.458 659.98 383.886 660.255C352.492 660.499 319.565 650.256 289.778 630.188C253.639 605.972 222.901 568.487 203.787 521.291C184.118 472.641 180.285 421.894 190.133 376.839C198.007 340.025 215.111 307.878 238.495 284.609C256.684 266.485 279.141 253.75 302.942 247.494Z" stroke="#0075FF" stroke-miterlimit="10"/>
<path d="M296.426 244.778C318.393 238.743 340.142 220.454 365.357 209.128C367.108 208.339 368.872 207.582 370.649 206.857C399.274 195.092 429.661 190.377 459.289 192.521C532.542 197.737 602.357 245.572 633.803 322.408C663.463 394.858 651.964 475.741 611.667 534.443C595.08 558.589 573.545 579.13 548.605 594.311C538.871 600.213 528.467 605.016 517.646 609.249C504.008 614.561 490.104 618.858 476.278 622.891C463.905 626.497 454.979 632.566 445.899 637.984C425.399 650.254 401.507 657.195 376.998 657.442C345.609 657.608 312.74 647.415 282.978 627.411C246.821 603.241 216.122 565.852 197.021 518.688C177.352 470.038 173.582 419.262 183.523 374.166C191.455 337.401 208.572 305.287 232.036 281.943C250.189 263.911 272.62 251.112 296.426 244.778Z" stroke="#0075FF" stroke-miterlimit="10"/>
<path d="M289.969 242.113C312.003 235.971 333.734 217.728 358.855 206.445C360.606 205.656 362.37 204.899 364.147 204.173C392.741 192.423 423.128 187.708 452.782 189.916C525.941 195.174 595.707 243.07 627.185 319.892C656.884 392.438 645.361 473.445 605.033 532.161C588.383 556.336 566.817 576.891 541.833 592.053C532.068 597.97 521.682 602.727 510.816 606.941C497.165 612.222 483.261 616.518 469.403 620.566C457.076 624.19 448.123 630.195 439.03 635.581C418.509 647.709 394.622 654.572 370.163 654.759C338.761 654.893 305.954 644.672 276.232 624.763C240.087 600.625 209.383 563.314 190.321 516.247C170.652 467.596 166.944 416.792 176.979 371.653C184.968 334.938 202.116 302.81 225.613 279.452C243.752 261.388 266.17 248.557 289.969 242.113Z" stroke="#0075FF" stroke-miterlimit="10"/>
<path d="M283.582 239.53C305.684 233.283 327.365 215.1 352.424 203.845C354.175 203.055 355.939 202.298 357.716 201.573C386.279 189.837 416.647 185.168 446.333 187.362C519.367 192.676 589.146 240.604 620.623 317.426C650.361 390.068 638.829 471.232 598.456 529.93C581.775 554.118 560.178 574.688 535.136 589.8C525.358 595.685 514.941 600.456 504.049 604.606C490.398 609.887 476.436 614.133 462.574 618.259C450.29 621.901 441.325 627.874 432.206 633.196C411.632 645.196 387.782 651.966 363.354 652.14C331.97 652.227 299.163 642.006 269.511 622.179C233.349 598.088 202.67 560.841 183.635 513.837C163.966 465.187 160.32 414.355 170.418 369.188C178.464 332.522 195.657 300.412 219.171 277.008C237.387 258.948 259.778 246.053 283.582 239.53Z" stroke="#0075FF" stroke-miterlimit="10"/>
<path d="M277.266 237.031C299.405 230.691 321.068 212.554 346.095 201.313C347.846 200.524 349.61 199.767 351.356 199.056C379.888 187.334 410.256 182.665 439.923 184.904C512.864 190.261 582.625 238.235 614.102 315.057C643.893 387.828 632.336 469.116 591.92 527.796C575.22 552.031 553.547 572.596 528.493 587.677C518.683 593.576 508.24 598.282 497.348 602.433C483.684 607.682 469.691 611.942 455.841 616.1C443.633 619.745 434.611 625.668 425.465 630.927C404.853 642.83 381.026 649.477 356.647 649.59C325.237 649.613 292.519 639.428 262.924 619.651C226.743 595.606 196.06 558.437 177.063 511.529C157.363 462.893 153.824 412.05 164.016 366.841C172.12 330.225 189.356 298.133 212.92 274.669C231.123 256.576 253.457 243.631 277.266 237.031Z" stroke="#0075FF" stroke-miterlimit="10"/>
<path d="M271.11 234.652C293.303 228.174 314.93 210.129 339.894 198.916C341.645 198.127 343.409 197.37 345.155 196.659C373.656 184.951 404.038 180.314 433.705 182.553C506.533 187.998 576.25 235.955 607.772 312.795C637.601 385.661 625.991 467.088 585.605 525.754C568.843 550.017 547.139 570.597 522.071 585.646C512.248 591.512 501.774 596.233 490.869 600.352C477.16 605.583 463.199 609.829 449.318 614.001C437.154 617.664 428.119 623.555 418.947 628.749C398.283 640.525 374.479 647.048 350.131 647.147C318.708 647.138 286.021 636.939 256.497 617.244C220.298 593.245 189.64 556.139 170.67 509.295C150.97 460.659 147.493 409.788 157.778 364.536C165.94 327.971 183.176 295.878 206.803 272.386C224.943 254.322 247.265 241.344 271.11 234.652Z" stroke="#0075FF" stroke-miterlimit="10"/>
<path d="M265.038 232.388C287.267 225.817 308.876 207.819 333.809 196.62C335.56 195.831 337.293 195.088 339.07 194.363C367.54 182.669 397.921 178.032 427.602 180.303C500.305 185.805 570.035 233.793 601.526 310.647C631.394 383.61 619.773 465.193 579.343 523.841C562.563 548.151 540.783 568.727 515.658 583.725C505.835 589.592 495.303 594.263 484.398 598.381C470.677 603.58 456.671 607.809 442.785 612.059C430.679 615.772 421.604 621.567 412.419 626.729C391.702 638.377 367.935 644.807 343.637 644.846C312.219 644.759 279.589 634.61 250.091 614.979C213.918 591.044 183.255 554.016 164.311 507.237C144.611 458.6 141.166 407.715 151.576 362.407C159.795 325.891 177.076 293.817 200.752 270.264C218.892 252.2 241.2 239.191 265.038 232.388Z" stroke="#0075FF" stroke-miterlimit="10"/>
<path d="M259.108 230.29C281.405 223.613 302.996 205.661 327.835 194.504C329.586 193.715 331.319 192.972 333.096 192.247C361.547 180.599 391.916 175.93 421.609 178.234C494.219 183.778 563.931 231.812 595.422 308.667C625.374 381.743 613.697 463.465 573.223 522.095C556.412 546.418 534.601 567.009 509.431 581.989C499.564 587.838 489.063 592.495 478.101 596.564C464.367 601.731 450.361 605.959 436.456 610.255C424.394 613.986 415.307 619.749 406.083 624.815C385.345 636.321 361.552 642.687 337.316 642.698C305.885 642.579 273.318 632.401 243.872 612.898C207.668 588.977 177.031 552.014 158.126 505.33C138.438 456.726 135.043 405.78 145.547 360.43C153.823 323.964 171.148 291.907 194.83 268.277C212.983 250.244 235.265 237.171 259.108 230.29Z" stroke="#0075FF" stroke-miterlimit="10"/>
<path d="M253.35 228.345C275.716 221.561 297.257 203.669 322.034 192.541C323.785 191.752 325.517 191.009 327.294 190.283C355.714 178.65 386.096 174.013 415.772 176.362C488.256 181.962 557.95 230.043 589.472 306.884C619.463 380.057 607.764 461.903 567.29 520.533C550.415 544.885 528.56 565.457 503.377 580.406C493.51 586.254 482.952 590.861 471.99 594.93C458.242 600.065 444.192 604.275 430.301 608.604C418.283 612.353 409.169 618.051 399.932 623.086C379.143 634.463 355.386 640.737 331.199 640.688C299.787 640.523 267.232 630.377 237.875 610.91C201.621 587.049 171.023 550.182 152.144 503.562C132.444 454.926 129.092 403.998 139.69 358.605C148.024 322.189 165.349 290.132 189.124 266.459C207.246 248.441 229.502 235.304 253.35 228.345Z" stroke="#0075FF" stroke-miterlimit="10"/>
<path d="M247.766 226.552C270.168 219.676 291.69 201.83 316.436 190.716C318.187 189.927 319.92 189.184 321.697 188.459C350.086 176.839 380.468 172.202 410.156 174.584C482.547 180.226 552.21 228.321 583.745 305.193C613.775 378.462 602.065 460.465 561.547 519.077C544.654 543.475 522.723 564.043 497.528 578.96C487.616 584.791 477.058 589.398 466.083 593.435C452.322 598.538 438.272 602.748 424.331 607.136C412.358 610.903 403.23 616.57 393.968 621.54C373.126 632.79 349.392 638.94 325.237 638.876C293.798 638.647 261.319 628.505 232.001 609.134C195.773 585.337 165.157 548.516 146.286 502.006C126.599 453.402 123.328 402.4 133.989 356.979C142.348 320.627 159.749 288.574 183.542 264.855C201.682 246.79 223.939 233.653 247.766 226.552Z" stroke="#0075FF" stroke-miterlimit="10"/>
<path d="M242.395 225.008C264.864 218.026 286.337 200.24 311.021 189.154C312.772 188.365 314.504 187.622 316.25 186.911C344.608 175.305 375.003 170.7 404.691 173.082C476.957 178.78 546.633 226.908 578.155 303.748C608.224 377.113 596.473 459.286 555.941 517.866C539.018 542.278 517.024 562.875 491.784 577.774C481.873 583.605 471.257 588.162 460.282 592.199C446.508 597.27 432.414 601.462 418.499 605.914C406.57 609.699 397.417 615.302 388.141 620.24C367.26 631.394 343.549 637.419 319.457 637.328C288.005 637.067 255.557 626.911 226.309 607.622C190.081 583.825 159.473 547.113 140.659 500.654C120.972 452.049 117.764 401.019 128.518 355.555C136.935 319.253 154.38 287.218 178.192 263.453C196.332 245.388 218.562 232.187 242.395 225.008Z" stroke="#0075FF" stroke-miterlimit="10"/>
<path d="M237.253 223.667C259.79 216.579 281.201 198.821 305.866 187.781C307.617 186.992 309.35 186.249 311.096 185.538C339.422 173.946 369.786 169.355 399.519 171.755C471.66 177.51 541.317 225.684 572.871 302.51C602.992 376.003 591.204 458.268 550.673 516.849C533.699 541.321 511.693 561.886 486.395 576.735C476.44 582.548 465.855 587.091 454.836 591.11C441.018 596.163 426.954 600.341 413.008 604.808C401.137 608.642 391.957 614.181 382.642 619.023C361.709 630.049 338.035 635.982 313.961 635.844C282.514 635.505 250.124 625.399 220.902 606.174C184.669 582.455 154.074 545.776 135.286 499.38C115.598 450.775 112.422 399.731 123.301 354.211C131.775 317.959 149.22 285.924 173.126 262.116C191.211 244.19 213.384 230.939 237.253 223.667Z" stroke="#0075FF" stroke-miterlimit="10"/>
<path d="M232.356 222.561C254.93 215.381 276.354 197.655 300.925 186.657C302.645 185.882 304.409 185.125 306.155 184.414C334.463 172.869 364.827 168.278 394.528 170.692C466.576 176.489 536.202 224.677 567.768 301.535C597.929 375.125 586.131 457.546 545.555 516.109C528.55 540.595 506.481 561.188 481.171 576.005C471.215 581.818 460.573 586.311 449.541 590.298C435.709 595.319 421.602 599.479 407.651 604.024C395.854 607.863 386.618 613.351 377.29 618.162C356.335 629.045 332.667 634.9 308.642 634.702C277.182 634.331 244.854 624.197 215.703 605.054C179.451 581.381 148.882 544.765 130.102 498.48C110.415 449.875 107.301 398.802 118.274 353.24C126.805 317.038 144.295 285.02 168.219 261.167C186.322 243.194 208.451 229.925 232.356 222.561Z" stroke="#0075FF" stroke-miterlimit="10"/>
<path d="M227.672 221.705C250.301 214.386 271.688 196.753 296.197 185.783C297.917 185.008 299.681 184.251 301.427 183.54C329.704 172.008 360.067 167.417 389.795 169.895C461.717 175.749 531.357 223.969 562.892 300.841C593.123 374.513 581.283 457.105 540.663 515.65C523.627 540.15 501.495 560.771 476.159 575.524C466.159 581.319 455.517 585.812 444.44 589.781C430.596 594.77 416.488 598.931 402.519 603.521C390.767 607.378 381.504 612.803 372.163 617.581C351.157 628.337 327.524 634.099 303.531 633.887C272.089 633.47 239.774 623.368 210.68 604.275C174.442 580.634 143.867 544.096 125.113 497.875C105.426 449.27 102.374 398.169 113.454 352.596C122.043 316.444 139.577 284.444 163.55 260.53C181.672 242.512 203.806 229.165 227.672 221.705Z" stroke="#0075FF" stroke-miterlimit="10"/>
<path d="M223.289 221.135C245.954 213.724 267.323 196.137 291.801 185.181C293.521 184.406 295.285 183.649 297.031 182.938C325.276 171.421 355.653 166.862 385.381 169.34C457.21 175.236 526.8 223.516 558.366 300.374C588.65 374.174 576.773 456.858 536.153 515.403C519.067 539.964 496.891 560.567 471.51 575.302C461.51 581.097 450.811 585.54 439.734 589.509C425.877 594.466 411.738 598.641 397.769 603.232C386.061 607.106 376.785 612.499 367.418 617.213C346.359 627.841 322.719 633.494 298.819 633.239C267.352 632.758 235.112 622.66 206.057 603.662C169.8 580.067 139.221 543.608 120.537 497.468C100.85 448.863 97.8606 397.734 109.003 352.133C117.649 316.031 135.215 284.017 159.219 260.089C177.297 242.053 199.387 228.687 223.289 221.135Z" stroke="#0075FF" stroke-miterlimit="10"/>
<path d="M219.208 220.851C241.941 213.334 263.261 195.807 287.676 184.879C289.396 184.104 291.128 183.361 292.874 182.65C321.089 171.147 351.466 166.588 381.206 169.097C452.91 175.05 522.513 223.362 554.08 300.221C584.403 374.117 572.484 456.971 531.851 515.484C514.734 540.059 492.514 560.645 467.102 575.394C457.057 581.171 446.389 585.6 435.268 589.551C421.398 594.476 407.246 598.619 393.24 603.301C381.576 607.194 372.275 612.523 362.881 617.173C341.771 627.672 318.167 633.233 294.285 632.932C262.804 632.419 230.609 622.339 201.656 603.409C165.381 579.86 134.827 543.465 116.138 497.403C96.4507 448.798 93.5243 397.641 104.761 351.998C113.464 315.945 131.043 283.963 155.128 259.961C173.237 241.91 195.301 228.481 219.208 220.851Z" stroke="#0075FF" stroke-miterlimit="10"/>
<path d="M215.397 220.867C238.198 213.244 259.499 195.762 283.852 184.863C285.572 184.088 287.305 183.345 289.05 182.634C317.234 171.145 347.624 166.618 377.333 169.142C448.912 175.15 518.515 223.463 550.095 300.354C580.457 374.346 568.528 457.357 527.85 515.852C510.715 540.473 488.419 561.054 462.981 575.739C452.936 581.517 442.211 585.896 431.077 589.815C417.194 594.708 403.01 598.864 389.017 603.579C377.398 607.49 368.083 612.787 358.664 617.373C337.501 627.744 313.934 633.213 290.102 632.852C258.626 632.26 226.475 622.198 197.561 603.364C161.293 579.926 130.766 543.594 112.103 497.597C92.4155 448.991 89.5203 397.82 100.882 352.12C109.643 316.117 127.265 284.154 151.369 260.105C169.46 242.101 191.51 228.639 215.397 220.867Z" stroke="#0075FF" stroke-miterlimit="10"/>
<path d="M211.946 221.22C234.783 213.504 256.066 196.069 280.356 185.198C282.076 184.423 283.809 183.679 285.554 182.968C313.707 171.493 344.097 166.966 373.819 169.522C445.304 175.573 514.858 223.946 546.469 300.823C576.883 374.943 564.918 458.046 524.209 516.556C507.011 541.205 484.684 561.801 459.233 576.454C449.175 582.199 438.419 586.592 427.271 590.479C413.375 595.34 399.179 599.465 385.136 604.24C373.561 608.168 364.22 613.401 354.788 617.955C333.617 628.217 310.042 633.575 286.241 633.2C254.752 632.577 222.664 622.486 193.788 603.748C157.552 580.296 127.02 544.042 108.396 498.14C88.6771 449.549 85.8757 398.335 97.3309 352.593C106.149 316.641 123.803 284.662 147.969 260.586C166.029 242.596 188.054 229.07 211.946 221.22Z" stroke="#0075FF" stroke-miterlimit="10"/>
<path d="M208.867 221.942C231.771 214.12 253.005 196.745 277.233 185.902C278.952 185.127 280.685 184.384 282.431 183.673C310.565 172.244 340.911 167.699 370.691 170.304C442.051 176.412 511.618 224.816 543.229 301.694C573.682 375.91 561.707 459.17 520.984 517.647C503.755 542.311 481.365 562.935 455.857 577.538C445.768 583.297 434.986 587.626 423.838 591.513C409.897 596.356 395.701 600.481 381.672 605.288C370.154 609.266 360.787 614.435 351.328 618.925C330.105 629.058 306.554 634.293 282.815 633.889C251.332 633.188 219.269 623.161 190.451 604.474C154.152 581.049 123.614 544.874 105.048 499.022C85.3423 450.463 82.6035 399.22 94.1395 353.404C103.015 317.501 120.682 285.555 144.898 261.418C162.957 243.428 184.938 229.884 208.867 221.942Z" stroke="#0075FF" stroke-miterlimit="10"/>
<path d="M206.115 223.015C229.088 215.087 250.272 197.772 274.468 186.943C276.188 186.168 277.921 185.425 279.667 184.714C307.769 173.299 338.128 168.786 367.908 171.392C439.143 177.556 508.71 225.96 540.322 302.837C570.814 377.15 558.828 460.566 518.061 519.026C500.814 543.735 478.38 564.341 452.827 578.926C442.738 584.686 431.911 588.997 420.751 592.852C406.797 597.663 392.588 601.756 378.553 606.641C367.111 610.623 357.718 615.728 348.202 620.168C326.927 630.173 303.412 635.315 279.691 634.866C248.195 634.132 216.195 624.078 187.447 605.472C151.112 582.139 120.613 546.06 102.041 500.286C82.3356 451.727 79.6592 400.456 91.2578 354.612C100.191 318.759 117.902 286.831 142.136 262.648C160.227 244.643 182.181 231.036 206.115 223.015Z" stroke="#0075FF" stroke-miterlimit="10"/>
<path d="M203.737 224.457C226.746 216.436 247.912 199.167 272.046 188.366C273.766 187.591 275.498 186.848 277.244 186.137C305.316 174.736 335.675 170.223 365.436 172.875C436.578 179.082 506.096 227.546 537.707 304.424C568.283 378.851 556.198 462.387 515.431 520.847C498.121 545.585 475.656 566.205 450.09 580.758C439.956 586.5 429.161 590.797 417.943 594.602C403.989 599.413 389.735 603.488 375.67 608.387C364.272 612.387 354.866 617.46 345.324 621.836C323.996 631.713 300.517 636.763 276.86 636.285C245.35 635.52 213.394 625.483 184.704 606.927C148.457 583.631 117.94 547.597 99.4074 501.919C79.7015 453.36 77.0877 402.061 88.7801 356.174C97.7392 320.385 115.513 288.429 139.81 264.217C157.869 246.227 179.842 232.573 203.737 224.457Z" stroke="#0075FF" stroke-miterlimit="10"/>
<path d="M201.788 226.319C224.852 218.16 246.013 200.969 270.084 190.196C271.804 189.421 273.537 188.678 275.251 187.981C303.291 176.595 333.663 172.114 363.425 174.766C434.442 181.028 503.973 229.525 535.584 306.403C566.199 380.926 554.104 464.618 513.324 523.046C495.996 547.83 473.442 568.415 447.862 582.936C437.729 588.677 426.876 592.924 415.659 596.73C401.692 601.509 387.393 605.566 373.354 610.529C362 614.547 352.568 619.556 343.013 623.9C321.633 633.649 298.16 638.62 274.551 638.083C243.047 637.239 211.135 627.22 182.484 608.76C146.188 585.524 115.71 549.587 97.2033 503.973C77.4973 455.413 74.946 404.086 86.7322 358.157C95.7487 322.418 113.536 290.493 137.882 266.222C155.941 248.231 177.857 234.528 201.788 226.319Z" stroke="#0075FF" stroke-miterlimit="10"/>
<path d="M200.256 228.568C223.356 220.317 244.499 203.173 268.508 192.428C270.228 191.653 271.961 190.91 273.675 190.213C301.684 178.84 332.056 174.359 361.831 177.043C432.754 183.348 502.267 231.891 533.878 308.769C564.532 383.388 552.426 467.237 511.602 525.647C494.243 550.445 471.626 571.058 446.003 585.561C435.825 591.285 424.972 595.532 413.741 599.305C399.761 604.052 385.463 608.109 371.405 613.119C360.096 617.155 350.638 622.099 341.07 626.411C319.669 636.018 296.187 640.88 272.642 640.314C241.124 639.438 209.244 629.405 180.676 611.059C144.348 587.837 113.896 551.964 95.4158 506.413C75.7098 457.854 73.1898 406.513 85.1142 360.559C94.188 324.87 112.006 292.931 136.371 268.613C154.43 250.623 176.333 236.887 200.256 228.568Z" stroke="#0075FF" stroke-miterlimit="10"/>
<path d="M198.662 232.451C221.83 224.094 242.924 207.01 266.87 196.293C268.59 195.518 270.291 194.789 272.037 194.078C300.015 182.719 330.4 178.27 360.188 180.987C430.986 187.348 500.467 235.905 532.123 312.801C562.829 387.548 550.687 471.49 509.832 529.914C492.41 554.74 469.793 575.353 444.112 589.806C433.935 595.53 423.024 599.727 411.793 603.5C397.8 608.215 383.458 612.254 369.382 617.31C358.117 621.364 348.645 626.276 339.038 630.493C317.598 640.003 294.14 644.741 270.613 644.129C239.1 643.175 207.277 633.192 178.766 614.896C142.434 591.751 111.995 555.91 93.5534 510.456C73.8473 461.896 71.3899 410.527 83.408 364.531C92.508 328.905 110.371 296.985 134.784 272.607C152.844 254.616 174.702 240.863 198.662 232.451Z" stroke="#0075FF" stroke-miterlimit="10"/>
<path d="M197.388 237.11C220.623 228.646 241.667 211.622 265.596 200.951C267.315 200.176 269.017 199.447 270.763 198.736C298.722 187.424 329.094 182.943 358.864 185.705C429.537 192.123 499.032 240.712 530.688 317.608C561.433 392.451 549.249 476.563 508.412 534.942C490.972 559.814 468.279 580.423 442.585 594.844C432.364 600.55 421.485 604.733 410.209 608.488C396.203 613.171 381.861 617.21 367.766 622.312C356.546 626.384 347.048 631.232 337.428 635.417C315.936 644.799 292.514 649.444 269.018 648.819C237.492 647.833 205.731 637.821 177.26 619.621C140.883 596.459 110.439 560.696 92.0365 515.338C72.3304 466.778 69.9355 415.38 82.0475 369.342C91.236 333.752 109.143 301.849 133.606 277.411C151.604 259.449 173.467 245.617 197.388 237.11Z" stroke="#0075FF" stroke-miterlimit="10"/>
<path d="M196.956 241.583C220.228 233.027 241.285 216.035 265.119 205.407C266.839 204.632 268.541 203.903 270.286 203.192C298.215 191.894 328.569 187.459 358.37 190.207C428.949 196.667 498.426 245.302 530.081 322.198C560.866 397.138 548.672 481.406 507.79 539.767C490.319 564.653 467.564 585.29 441.857 599.68C431.635 605.385 420.699 609.518 409.41 613.242C395.36 617.907 381.004 621.914 366.936 627.08C355.76 631.169 346.249 635.986 336.603 640.106C315.058 649.361 291.673 653.914 268.226 653.228C236.687 652.21 204.971 642.217 176.557 624.066C140.13 600.964 109.725 565.297 91.3177 520.017C71.6116 471.457 69.2792 420.031 81.4538 373.964C90.7179 338.378 108.638 306.507 133.164 282.041C151.192 264.065 172.998 250.183 196.956 241.583Z" stroke="#0075FF" stroke-miterlimit="10"/>
<path d="M197.241 245.928C220.581 237.266 241.589 220.334 265.379 209.688C267.098 208.913 268.8 208.184 270.546 207.473C298.443 196.188 328.797 191.754 358.611 194.534C429.065 201.05 498.524 249.732 530.211 326.614C561.066 401.635 548.817 486.042 507.904 544.417C490.383 569.363 467.584 589.983 441.819 604.322C431.584 609.996 420.617 614.143 409.315 617.834C395.252 622.467 380.883 626.442 366.765 631.668C355.665 635.762 346.097 640.529 336.437 644.617C314.841 653.744 291.479 658.172 268.063 657.472C236.53 656.376 204.858 646.401 176.483 628.346C140.126 605.326 109.716 569.737 91.3659 524.507C71.6285 475.961 69.3586 424.507 81.6583 378.383C90.9616 342.894 108.913 311.009 133.457 286.496C151.486 268.52 173.278 254.606 197.241 245.928Z" stroke="#0075FF" stroke-miterlimit="10"/>
<path d="M198.219 250.079C221.627 241.311 242.585 224.439 266.326 213.853C268.045 213.078 269.747 212.349 271.462 211.652C299.327 200.382 329.695 195.979 359.509 198.759C429.869 205.318 499.297 254.013 530.966 330.942C561.873 406.092 549.601 490.623 508.674 548.966C491.122 573.927 468.292 594.56 442.483 608.882C432.217 614.569 421.223 618.653 409.921 622.344C395.845 626.945 381.445 630.934 367.34 636.192C356.284 640.304 346.702 645.038 337.004 649.03C315.355 658.029 292.03 662.366 268.677 661.637C237.13 660.509 205.502 650.552 177.216 632.533C140.828 609.527 110.444 574.002 92.0883 528.849C72.3821 480.29 70.1435 428.821 82.537 382.655C91.8977 347.215 109.893 315.348 134.487 290.775C152.497 272.845 174.264 258.867 198.219 250.079Z" stroke="#0075FF" stroke-miterlimit="10"/>
<path d="M199.822 254.143C223.266 245.282 244.206 228.456 267.884 217.898C269.573 217.137 271.306 216.394 273.02 215.697C300.855 204.441 331.222 200.038 361.031 202.897C431.267 209.511 500.707 258.239 532.363 335.136C563.31 410.382 551.027 495.07 510.056 553.395C492.473 578.37 469.566 598.999 443.745 613.289C433.465 618.944 422.472 623.028 411.095 626.715C397.005 631.284 382.592 635.241 368.45 640.592C357.452 644.753 347.831 649.392 338.12 653.352C316.45 662.209 293.099 666.481 269.795 665.692C238.253 664.486 206.67 654.547 178.422 636.624C142.11 613.622 111.752 578.16 93.4357 533.104C73.7294 484.544 71.5534 433.047 84.0407 386.839C93.4587 351.449 111.467 319.614 136.111 294.981C154.108 277.018 175.862 263.009 199.822 254.143Z" stroke="#0075FF" stroke-miterlimit="10"/>
<path d="M202.023 258.054C225.535 249.087 246.425 232.322 270.072 221.778C271.761 221.017 273.494 220.274 275.208 219.577C303.025 208.367 333.379 203.932 363.201 206.822C433.312 213.494 502.734 262.268 534.421 339.15C565.407 414.492 553.07 499.319 512.099 557.644C494.466 582.679 471.515 603.29 445.68 617.548C435.37 623.218 424.35 627.237 412.96 630.893C398.857 635.43 384.413 639.401 370.271 644.751C359.317 648.931 349.683 653.537 339.946 657.433C318.237 666.194 294.909 670.342 271.655 669.493C240.1 668.255 208.579 658.287 180.384 640.493C144.035 617.583 113.64 582.214 95.3813 537.207C75.6568 488.693 73.5615 437.122 86.1244 390.918C95.5998 355.578 113.64 323.728 138.346 299.067C156.343 281.105 178.071 267.031 202.023 258.054Z" stroke="#0075FF" stroke-miterlimit="10"/>
<path d="M204.788 261.906C228.323 252.814 249.239 236.113 272.793 225.612C274.481 224.851 276.214 224.108 277.928 223.411C305.714 212.214 336.081 207.812 365.903 210.702C435.92 217.415 505.311 266.204 537.011 343.118C568.049 418.589 555.688 503.539 514.705 561.832C497.04 586.881 474.027 607.521 448.135 621.729C437.811 627.367 426.76 631.4 415.357 635.024C401.241 639.529 386.784 643.468 372.637 648.896C361.727 653.093 352.068 657.636 342.317 661.5C320.556 670.133 297.251 674.157 274.041 673.326C242.473 672.056 210.997 662.106 182.89 644.347C146.479 621.465 116.11 586.16 97.846 541.232C78.1215 492.718 76.0888 441.118 88.7455 394.872C98.2469 359.596 116.363 327.75 141.087 303.043C159.084 285.08 180.799 270.974 204.788 261.906Z" stroke="#0075FF" stroke-miterlimit="10"/>
<path d="M207.982 265.642C231.585 256.445 252.452 239.803 275.974 229.316C277.662 228.555 279.395 227.812 281.11 227.115C308.864 215.933 339.231 211.53 369.066 214.452C438.958 221.222 508.363 270.043 540.063 346.958C571.14 422.524 558.769 507.631 517.741 565.906C500.058 591.001 477.001 611.623 451.064 625.813C440.709 631.465 429.632 635.434 418.229 639.058C404.069 643.545 389.611 647.484 375.446 652.959C364.58 657.174 354.908 661.685 345.118 665.453C323.305 673.957 300.037 677.889 276.876 676.998C245.313 675.65 213.881 665.718 185.813 648.055C149.366 625.265 119.023 590.024 100.798 545.191C81.0916 496.631 79.1032 445.05 91.8407 398.729C101.4 363.503 119.515 331.657 144.333 306.907C162.331 288.945 184.001 274.821 207.982 265.642Z" stroke="#0075FF" stroke-miterlimit="10"/>
<path d="M211.615 269.374C235.286 260.07 256.104 243.489 279.563 233.03C281.252 232.269 282.953 231.54 284.712 230.861C312.435 219.693 342.784 215.336 372.62 218.258C442.418 225.071 511.773 273.951 543.505 350.852C574.652 426.501 562.226 511.746 521.167 570.036C503.422 595.159 480.333 615.795 454.383 629.953C444.015 635.573 432.906 639.557 421.49 643.148C407.317 647.603 392.847 651.51 378.663 657.031C367.842 661.264 358.143 665.711 348.34 669.447C326.475 677.823 303.243 681.663 280.101 680.726C248.525 679.346 217.137 669.431 189.126 651.819C152.697 628.983 122.349 593.82 104.194 549.069C84.4695 500.555 82.5305 448.913 95.4061 402.567C105.022 367.391 123.182 335.563 148.019 310.767C165.972 292.787 187.616 278.599 211.615 269.374Z" stroke="#0075FF" stroke-miterlimit="10"/>
<path d="M215.617 273.018C239.324 263.622 260.123 247.087 283.52 236.656C285.209 235.895 286.91 235.166 288.638 234.501C316.33 223.347 346.679 218.99 376.527 221.945C446.201 228.813 515.569 277.726 547.3 354.627C578.5 430.404 566.051 515.774 524.947 574.045C507.17 599.183 484.019 619.848 458.043 633.941C447.644 639.575 436.541 643.481 425.08 647.054C410.894 651.478 396.379 655.367 382.222 660.951C371.476 665.188 361.72 669.585 351.904 673.289C330.018 681.523 306.791 685.285 283.698 684.287C252.127 682.829 220.783 672.933 192.812 655.416C156.422 632.676 126.099 597.577 107.94 552.904C88.2151 504.39 86.3517 452.752 99.3081 406.332C108.982 371.206 127.186 339.396 152.041 314.554C170.007 296.605 191.625 282.353 215.617 273.018Z" stroke="#0075FF" stroke-miterlimit="10"/>
<path d="M219.937 276.635C243.712 267.132 264.494 250.643 287.828 240.241C289.517 239.48 291.218 238.751 292.946 238.086C320.606 226.946 350.969 222.621 380.83 225.607C450.379 232.532 519.747 281.445 551.46 358.393C582.699 434.265 570.208 519.806 529.122 578.031C511.328 603.215 488.101 623.876 462.08 637.952C451.668 643.554 440.534 647.473 429.06 651.015C414.861 655.406 400.346 659.296 386.139 664.94C375.437 669.195 365.668 673.56 355.813 677.168C333.875 685.274 310.684 688.943 287.623 687.932C256.039 686.442 224.757 676.517 196.857 659.082C160.435 636.356 130.139 601.321 112.005 556.712C92.2802 508.198 90.4793 456.532 103.53 410.07C113.261 374.993 131.496 343.169 156.413 318.298C174.348 300.364 195.954 286.08 219.937 276.635Z" stroke="#0075FF" stroke-miterlimit="10"/>
<path d="M224.559 280.27C248.402 270.661 269.134 254.232 292.406 243.858C294.095 243.097 295.796 242.368 297.524 241.703C325.166 230.609 355.515 226.252 385.39 229.271C454.844 236.238 524.163 285.211 555.908 362.144C587.186 438.113 574.672 523.778 533.555 582.018C515.697 607.23 492.457 627.859 466.393 641.917C455.949 647.533 444.801 651.42 433.315 654.93C419.103 659.289 404.543 663.16 390.35 668.837C379.692 673.11 369.897 677.411 360.029 680.987C338.038 688.965 314.84 692.524 291.872 691.47C260.275 689.948 229.038 680.041 201.194 662.657C164.736 640.023 134.435 605.066 116.327 560.521C96.6025 512.006 94.8642 460.312 107.977 413.821C117.765 378.795 136.014 347.002 160.981 322.072C178.978 304.109 200.539 289.807 224.559 280.27Z" stroke="#0075FF" stroke-miterlimit="10"/>
<path d="M229.363 283.901C253.243 274.2 273.956 257.817 297.197 247.456C298.886 246.695 300.587 245.966 302.315 245.301C329.926 234.222 360.288 229.897 390.132 232.929C459.461 239.953 528.793 288.958 560.538 365.892C591.868 441.989 579.33 527.778 538.169 586C520.294 611.258 496.978 631.883 470.9 645.909C460.457 651.525 449.252 655.363 437.765 658.873C423.553 663.232 408.98 667.071 394.768 672.794C384.155 677.085 374.347 681.353 364.453 684.865C342.423 692.748 319.248 696.182 296.298 695.083C264.707 693.482 233.514 683.593 205.722 666.337C169.251 643.671 138.957 608.824 120.876 564.343C101.151 515.828 99.4752 464.105 112.682 417.573C122.528 382.596 140.821 350.821 165.837 325.831C183.803 307.882 205.351 293.548 229.363 283.901Z" stroke="#0075FF" stroke-miterlimit="10"/>
<path d="M234.331 287.573C258.278 277.765 278.943 261.443 302.121 251.11C303.809 250.349 305.511 249.62 307.238 248.956C334.818 237.89 365.181 233.565 395.037 236.63C464.242 243.71 533.574 292.715 565.319 369.649C596.688 445.842 584.14 531.787 542.965 589.977C525.059 615.25 501.68 635.903 475.59 649.897C465.133 655.481 453.928 659.319 442.384 662.778C428.158 667.105 413.542 670.927 399.325 676.728C388.756 681.037 378.922 685.241 369.014 688.721C346.932 696.475 323.794 699.818 300.907 698.69C269.302 697.058 238.153 687.187 210.419 669.98C173.942 647.392 143.631 612.591 125.588 568.206C105.863 519.692 104.219 467.955 117.551 421.365C127.454 386.438 145.778 354.65 170.812 329.613C188.792 311.696 210.314 297.298 234.331 287.573Z" stroke="#0075FF" stroke-miterlimit="10"/>
<path d="M239.419 291.268C263.421 281.322 284.048 265.092 307.164 254.788C308.852 254.027 310.554 253.298 312.282 252.633C339.83 241.581 370.193 237.257 400.062 240.353C469.173 247.475 538.456 296.541 570.232 373.461C601.641 449.75 589.069 535.82 547.863 594.024C529.894 619.325 506.484 639.992 480.336 653.936C469.848 659.534 458.617 663.308 447.073 666.768C432.803 671.077 418.205 674.852 403.969 680.699C393.445 685.026 383.597 689.199 373.651 692.582C351.548 700.195 328.415 703.459 305.546 702.285C273.946 700.574 242.842 690.721 215.178 673.597C178.709 651.119 148.436 616.414 130.42 572.093C110.695 523.578 109.113 471.813 122.539 425.181C132.499 390.304 150.837 358.548 175.952 333.436C193.869 315.548 215.378 301.118 239.419 291.268Z" stroke="#0075FF" stroke-miterlimit="10"/>
<path d="M244.546 295.06C268.585 285.022 289.225 268.824 312.279 258.548C313.967 257.787 315.669 257.058 317.365 256.407C344.882 245.369 375.258 241.077 405.141 244.205C474.127 251.384 543.423 300.482 575.199 377.401C606.678 453.773 594.033 540.027 552.814 598.2C534.827 623.547 511.341 644.21 485.18 658.122C474.679 663.688 463.417 667.476 451.86 670.904C437.577 675.181 422.947 678.97 408.694 684.864C398.213 689.208 388.34 693.317 378.38 696.669C356.225 704.153 333.115 707.293 310.309 706.091C278.696 704.348 247.636 694.513 220.029 677.438C183.516 654.942 153.301 620.287 135.292 576.076C115.567 527.562 114.048 475.768 127.58 429.126C137.598 394.299 155.98 362.56 181.113 337.403C199.048 319.468 220.5 304.988 244.546 295.06Z" stroke="#0075FF" stroke-miterlimit="10"/>
<path d="M249.7 298.917C273.807 288.773 294.398 272.634 317.389 262.386C319.077 261.625 320.747 260.911 322.475 260.246C349.974 249.254 380.305 244.943 410.201 248.104C479.094 255.325 548.371 304.469 580.148 381.389C611.679 457.889 599.011 544.267 557.779 602.408C539.76 627.769 516.243 648.446 490.025 662.309C479.492 667.889 468.204 671.613 456.647 675.04C442.351 679.285 427.708 683.043 413.449 689.014C403.044 693.363 393.127 697.454 383.141 700.741C360.934 708.097 337.86 711.145 315.072 709.897C283.446 708.122 252.449 698.259 224.881 681.28C188.394 658.848 158.142 624.285 140.191 580.124C120.466 531.61 119.009 479.788 132.635 433.103C142.71 398.326 161.123 366.573 186.32 341.387C204.192 323.481 225.649 308.923 249.7 298.917Z" stroke="#0075FF" stroke-miterlimit="10"/>
<path d="M254.775 302.848C278.917 292.611 299.49 276.519 322.45 266.285C324.138 265.524 325.809 264.809 327.536 264.144C355.004 253.167 385.348 248.888 415.244 252.049C484.012 259.326 553.258 308.484 585.079 385.422C616.649 462.018 603.958 548.521 562.694 606.676C544.626 632.097 521.065 652.757 494.833 666.587C484.288 672.136 473 675.859 461.398 679.269C447.089 683.482 432.402 687.222 418.156 693.225C407.796 697.591 397.852 701.618 387.853 704.874C365.594 712.102 342.525 715.072 319.831 713.781C288.21 711.929 257.257 702.083 229.728 685.2C193.223 662.815 162.997 628.316 145.04 584.233C125.329 535.75 123.921 483.867 137.61 437.155C147.711 402.441 166.169 370.706 191.414 345.461C209.287 327.554 230.731 312.964 254.775 302.848Z" stroke="#0075FF" stroke-miterlimit="10"/>
<path d="M259.765 306.93C283.976 296.587 304.499 280.555 327.396 270.35C329.085 269.589 330.755 268.874 332.483 268.209C359.919 257.245 390.264 252.967 420.173 256.159C488.815 263.493 558.075 312.683 589.864 389.635C621.474 466.328 608.772 552.987 567.464 611.124C549.364 636.559 525.728 657.215 499.465 671.059C488.888 676.622 477.574 680.281 465.928 683.673C451.606 687.854 436.888 691.608 422.623 697.658C412.307 702.042 402.337 706.005 392.313 709.196C370.014 716.328 346.969 719.174 324.293 717.837C292.659 715.953 261.75 706.125 234.31 689.278C197.786 666.938 167.586 632.503 149.669 588.516C129.957 540.033 128.581 488.137 142.395 441.368C152.553 406.704 171.055 374.987 196.319 349.695C214.298 331.779 235.685 317.138 259.765 306.93Z" stroke="#0075FF" stroke-miterlimit="10"/>
<path d="M264.595 311.161C288.873 300.711 309.379 284.725 332.182 274.562C333.871 273.801 335.541 273.086 337.269 272.421C364.674 261.472 395.032 257.225 424.94 260.418C493.489 267.794 562.731 317.03 594.52 393.983C626.182 470.803 613.457 557.587 572.136 615.692C554.005 641.141 530.306 661.825 504.017 675.606C493.427 681.136 482.081 684.81 470.422 688.17C456.087 692.319 441.356 696.041 427.086 702.168C416.814 706.57 406.832 710.501 396.781 713.629C374.461 720.619 351.408 723.354 328.794 721.989C297.166 720.027 266.301 710.217 238.913 693.498C202.371 671.204 172.153 636.815 154.306 592.91C134.563 544.441 133.28 492.502 147.188 445.691C157.404 411.077 175.937 379.346 201.264 354.026C219.136 336.119 240.51 321.447 264.595 311.161Z" stroke="#0075FF" stroke-miterlimit="10"/>
<path d="M269.222 315.52C293.536 304.979 314.024 289.039 336.796 278.89C338.484 278.129 340.154 277.414 341.882 276.749C369.256 265.814 399.614 261.567 429.518 264.838C497.942 272.27 567.165 321.553 598.986 398.491C630.687 475.408 617.907 562.33 576.586 620.435C558.405 645.945 534.693 666.597 508.36 680.36C497.739 685.904 486.367 689.514 474.708 692.874C460.36 696.991 445.584 700.694 431.328 706.854C421.1 711.274 411.091 715.141 401.027 718.237C378.655 725.099 355.639 727.742 333.056 726.363C301.414 724.368 270.594 714.576 243.263 697.907C206.747 675.678 176.524 641.367 158.703 597.525C138.96 549.056 137.74 497.089 151.741 450.235C162.015 415.671 180.592 383.958 205.937 358.592C223.784 340.621 245.131 325.885 269.222 315.52Z" stroke="#0075FF" stroke-miterlimit="10"/>
<path d="M273.551 320.05C297.934 309.403 318.359 293.491 341.081 283.402C342.738 282.655 344.44 281.926 346.136 281.275C373.479 270.354 403.85 266.139 433.754 269.41C502.084 276.885 571.276 326.181 603.11 403.152C634.882 480.151 622.06 567.243 580.694 625.331C562.483 650.855 538.708 671.535 512.348 685.233C501.714 690.746 490.311 694.37 478.639 697.697C464.247 701.797 449.502 705.486 435.196 711.706C425.013 716.144 414.991 719.979 404.901 723.011C382.477 729.745 359.497 732.296 336.964 730.856C305.296 728.797 274.551 719.01 247.291 702.422C210.756 680.239 180.559 645.992 162.746 602.261C143.003 553.792 141.845 501.796 155.941 454.9C166.271 420.386 184.862 388.705 210.287 363.264C228.165 345.279 249.469 330.525 273.551 320.05Z" stroke="#0075FF" stroke-miterlimit="10"/>
<path d="M277.597 324.784C302.047 314.03 322.422 298.178 345.114 288.103C346.771 287.356 348.473 286.627 350.169 285.976C377.494 275.101 407.851 270.855 437.768 274.157C505.973 281.689 575.179 331.017 607 407.956C638.823 485.083 625.978 572.3 584.568 630.369C566.325 655.907 542.488 676.616 516.084 690.297C505.45 695.809 494.021 699.369 482.304 702.679C467.899 706.746 453.097 710.386 438.83 716.702C428.691 721.157 418.643 724.928 408.527 727.896C386.051 734.502 363.107 736.961 340.592 735.475C308.943 733.37 278.242 723.6 251.008 707.077C214.455 684.94 184.284 650.757 166.497 607.089C146.754 558.62 145.659 506.596 159.817 459.672C170.205 425.208 188.827 393.513 214.283 368.058C232.232 350.155 253.509 335.337 277.597 324.784Z" stroke="#0075FF" stroke-miterlimit="10"/>
<path d="M281.27 329.683C305.744 318.805 326.114 303.031 348.742 292.984C350.4 292.237 352.101 291.508 353.798 290.858C381.091 279.997 411.431 275.796 441.379 279.085C509.459 286.672 578.647 336.047 610.499 412.972C642.362 490.195 629.493 577.537 588.083 635.606C569.791 661.205 545.909 681.895 519.492 695.544C508.814 701.038 497.384 704.598 485.655 707.876C471.236 711.911 456.434 715.551 442.136 721.881C432.041 726.355 421.98 730.094 411.838 732.997C389.31 739.475 366.389 741.81 343.95 740.328C312.287 738.191 281.618 728.407 254.454 711.966C217.883 689.874 187.738 655.755 169.99 612.184C150.246 563.715 149.214 511.663 163.466 464.696C173.911 430.282 192.577 398.604 218.084 373.089C235.938 355.228 257.203 340.378 281.27 329.683Z" stroke="#0075FF" stroke-miterlimit="10"/>
<path d="M284.536 334.84C309.077 323.855 329.429 308.128 351.964 298.123C353.621 297.376 355.323 296.647 357.019 295.997C384.282 285.15 414.621 280.949 444.551 284.284C512.538 291.914 581.694 341.303 613.559 418.26C645.461 495.579 632.551 583.091 591.128 641.128C572.804 666.741 548.878 687.414 522.417 701.044C511.738 706.539 500.252 710.049 488.522 713.327C474.091 717.33 459.244 720.952 444.941 727.36C434.922 731.838 424.803 735.526 414.648 738.398C392.112 744.766 369.152 747.004 346.762 745.463C315.105 743.247 284.48 733.481 257.355 717.136C220.797 695.077 190.66 661.068 172.924 617.528C153.181 569.059 152.193 517.025 166.57 470.002C177.073 435.637 195.752 403.992 221.308 378.416C239.181 360.51 260.432 345.627 284.536 334.84Z" stroke="#0075FF" stroke-miterlimit="10"/>
<path d="M616.167 423.788C648.122 501.235 635.175 588.84 593.721 646.892C575.378 672.55 551.377 693.219 524.902 706.818C501.021 719.059 473.279 721.369 447.325 733.066C341.383 780.812 219.663 731.581 175.482 623.117C131.301 514.653 181.376 387.997 287.318 340.251C313.741 328.343 335.236 311.153 359.757 301.39C386.988 290.557 417.328 286.356 447.284 289.755C515.164 297.395 584.302 346.831 616.167 423.788Z" stroke="#0075FF" stroke-miterlimit="10"/>
</svg>
