<svg width="25" height="24" viewBox="0 0 25 24" fill="none" xmlns="http://www.w3.org/2000/svg">
<path d="M20.75 5.4375H16.8125V4.5C16.8125 3.95299 16.5952 3.42839 16.2084 3.04159C15.8216 2.6548 15.297 2.4375 14.75 2.4375H10.25C9.70299 2.4375 9.17839 2.6548 8.79159 3.04159C8.4048 3.42839 8.1875 3.95299 8.1875 4.5V5.4375H4.25C3.9019 5.4375 3.56806 5.57578 3.32192 5.82192C3.07578 6.06806 2.9375 6.4019 2.9375 6.75V18.75C2.9375 19.0981 3.07578 19.4319 3.32192 19.6781C3.56806 19.9242 3.9019 20.0625 4.25 20.0625H20.75C21.0981 20.0625 21.4319 19.9242 21.6781 19.6781C21.9242 19.4319 22.0625 19.0981 22.0625 18.75V6.75C22.0625 6.4019 21.9242 6.06806 21.6781 5.82192C21.4319 5.57578 21.0981 5.4375 20.75 5.4375ZM9.3125 4.5C9.3125 4.25136 9.41127 4.0129 9.58709 3.83709C9.7629 3.66127 10.0014 3.5625 10.25 3.5625H14.75C14.9986 3.5625 15.2371 3.66127 15.4129 3.83709C15.5887 4.0129 15.6875 4.25136 15.6875 4.5V5.4375H9.3125V4.5ZM15.6875 6.5625V18.9375H9.3125V6.5625H15.6875ZM4.0625 18.75V6.75C4.0625 6.70027 4.08225 6.65258 4.11742 6.61742C4.15258 6.58225 4.20027 6.5625 4.25 6.5625H8.1875V18.9375H4.25C4.20027 18.9375 4.15258 18.9177 4.11742 18.8826C4.08225 18.8474 4.0625 18.7997 4.0625 18.75ZM20.9375 18.75C20.9375 18.7997 20.9177 18.8474 20.8826 18.8826C20.8474 18.9177 20.7997 18.9375 20.75 18.9375H16.8125V6.5625H20.75C20.7997 6.5625 20.8474 6.58225 20.8826 6.61742C20.9177 6.65258 20.9375 6.70027 20.9375 6.75V18.75Z" fill="#909090"/>
</svg>
