<svg width="370" height="429" viewBox="0 0 370 429" fill="none" xmlns="http://www.w3.org/2000/svg">
<mask id="path-1-inside-1_102_6241" fill="white">
<path d="M17.9241 212.867C17.9241 197.496 17.8856 182.125 17.9625 166.792C17.9625 164.371 17.2702 162.988 15.1164 161.873C11.3087 159.913 7.69341 157.531 3.88576 155.533C1.5781 154.303 0.424268 152.65 0.424268 149.999C0.347346 136.126 0.193502 122.216 0.00119674 108.343C-0.0372643 106.191 1.03965 104.923 2.73193 103.924C14.2318 97.2758 25.7701 90.7431 37.193 83.9798C40.1161 82.2505 42.5007 82.2121 45.3468 84.0182C49.5006 86.6313 53.9236 88.8601 58.0774 91.4732C59.9235 92.6261 61.2697 92.4339 63.0389 91.3964C89.4616 75.9868 115.923 60.6156 142.423 45.3213C144.115 44.3606 144.884 43.3231 144.807 41.2864C144.615 36.3676 144.769 31.4488 144.576 26.5301C144.499 24.0323 145.307 22.3799 147.538 21.1117C159.076 14.5406 170.576 7.93096 181.999 1.20608C184.653 -0.369468 186.807 -0.407896 189.499 1.12922C200.96 7.81568 212.499 14.3868 224.037 20.9196C225.998 22.034 226.768 23.4943 226.768 25.6847C226.729 30.9877 226.96 36.2523 226.806 41.5554C226.729 43.9379 227.498 45.2829 229.614 46.5126C255.498 61.4226 281.305 76.4095 307.074 91.4732C308.767 92.4724 309.997 92.5876 311.728 91.5117C316.113 88.7833 320.69 86.4007 325.074 83.6724C327.459 82.2121 329.459 82.1737 331.92 83.5955C343.497 90.3204 355.151 96.9684 366.766 103.578C368.804 104.731 369.689 106.383 369.689 108.689C369.727 121.947 369.727 135.243 369.997 148.5C370.074 151.92 368.843 153.995 365.881 155.533C361.958 157.569 358.266 160.029 354.381 162.104C352.651 163.064 352.035 164.217 352.035 166.177C352.074 197.265 352.074 228.353 352.035 259.48C352.035 261.478 352.689 262.593 354.42 263.515C358.535 265.705 362.497 268.203 366.612 270.394C368.689 271.508 369.727 273.084 369.727 275.351C369.804 288.993 369.843 302.635 369.997 316.276C370.035 318.928 369.035 320.619 366.766 321.925C354.958 328.727 343.189 335.606 331.42 342.523C329.497 343.637 327.805 343.522 325.92 342.369C322.151 340.063 318.266 337.95 314.497 335.644C312.92 334.683 311.728 334.722 310.151 335.644C283.075 351.323 256.113 367.001 229.075 382.603C227.498 383.525 226.845 384.563 226.921 386.407C227.114 391.441 227.037 396.476 227.229 401.51C227.345 404.392 226.383 406.352 223.768 407.812C212.037 414.537 200.383 421.377 188.73 428.179C186.845 429.293 185.076 429.255 183.191 428.179C171.614 421.454 159.999 414.767 148.384 408.119C145.961 406.736 144.884 404.891 144.884 402.163C144.922 397.359 144.73 392.556 144.846 387.791C144.884 385.716 144.269 384.486 142.384 383.41C114.923 367.578 87.5001 351.669 60.1158 335.683C58.1928 334.568 56.8466 334.722 55.1159 335.836C51.5775 338.065 47.8852 340.025 44.3468 342.254C42.3468 343.483 40.5776 343.56 38.5392 342.369C27.1932 335.759 15.8472 329.111 4.38576 322.656C1.5781 321.118 0.385807 319.159 0.385807 315.969C0.347346 302.711 0.231963 289.415 0.00119674 276.158C-0.0372643 273.506 0.84734 271.815 3.23193 270.547C7.15495 268.472 10.8472 266.013 14.7702 264.015C17.1548 262.785 18.001 261.286 18.001 258.596C17.8471 243.34 17.9241 228.123 17.9241 212.867ZM69.1542 97.7754C72.6541 99.7737 75.4233 101.618 78.4233 102.963C81.3463 104.27 82.2309 106.23 82.2309 109.342C82.2309 121.985 82.5386 134.628 82.6156 147.309C82.6156 149.23 83.1156 150.383 84.8848 151.382C95.6539 157.531 106.384 163.756 117.077 170.058C118.846 171.096 120.23 171.25 122.115 170.135C140.769 159.222 159.461 148.385 178.191 137.587C180.153 136.472 180.845 135.127 180.807 132.899C180.691 120.14 180.691 107.344 180.807 94.5859C180.845 92.1265 179.999 90.8584 177.922 89.7056C168.268 84.3256 158.768 78.6383 149.115 73.2968C145.999 71.5676 144.692 69.3772 144.884 65.9187C145.076 62.1527 144.922 58.3868 144.922 53.8523C119.423 68.6086 94.6154 83.0191 69.1542 97.7754ZM144.615 374.841C144.615 370.152 144.769 366.117 144.576 362.121C144.422 359.277 145.538 357.663 147.999 356.28C158.153 350.554 168.191 344.636 178.345 338.872C180.191 337.835 180.807 336.566 180.807 334.453C180.73 322.041 180.73 309.628 180.807 297.255C180.807 295.064 180.23 293.719 178.191 292.566C159.076 281.691 140.038 270.739 121.038 259.711C119.154 258.635 117.654 258.404 115.654 259.595C105.423 265.667 95.1154 271.662 84.7694 277.541C82.7694 278.656 82.1156 279.962 82.154 282.229C82.4233 292.797 82.3079 303.365 82.7309 313.894C82.8848 318.236 81.7694 321.195 77.6156 322.963C75.0387 324.077 72.6926 325.73 70.2696 327.152C66.3465 329.419 66.3465 329.419 70.1157 331.609C90.5001 343.445 110.884 355.281 131.307 367.078C135.5 369.576 139.73 371.997 144.615 374.841ZM227.191 55.082C227.191 58.9632 226.998 62.1527 227.229 65.3038C227.498 68.9161 226.191 71.1833 222.922 72.9894C212.537 78.792 202.306 84.9405 191.96 90.82C189.883 92.0112 189.114 93.3562 189.114 95.7772C189.23 108.189 189.23 120.602 189.114 132.975C189.076 135.396 189.883 136.664 191.96 137.856C210.537 148.423 229.037 159.068 247.537 169.789C249.613 170.981 251.152 171.096 253.229 169.866C263.69 163.679 274.19 157.531 284.767 151.574C287.151 150.23 287.882 148.616 287.805 146.002C287.498 133.859 287.459 121.678 287.19 109.534C287.113 106.729 288.036 104.923 290.575 103.655C293.921 101.964 297.074 99.9274 300.767 97.8138C276.036 83.4034 251.883 69.3772 227.191 55.082ZM343.151 168.598C339.151 170.942 335.574 172.864 332.228 175.092C329.882 176.629 327.882 176.668 325.42 175.246C315.69 169.52 305.805 163.987 296.113 158.223C293.844 156.878 292.267 157.07 290.113 158.338C279.344 164.717 268.498 171.019 257.613 177.206C255.536 178.397 254.69 179.665 254.729 182.086C255.036 203.952 255.267 225.817 255.421 247.683C255.421 249.643 255.998 250.757 257.729 251.756C267.882 257.52 277.959 263.361 287.998 269.356C289.882 270.47 291.19 270.355 292.998 269.279C301.997 263.976 310.997 258.711 320.074 253.562C329.92 247.952 326.959 247.952 336.766 253.447C338.766 254.561 340.766 255.714 343.112 257.021C343.151 227.354 343.151 198.303 343.151 168.598ZM26.8086 256.982C30.2316 254.984 33.3469 253.447 36.1161 251.487C39.5776 249.066 42.5391 249.105 46.2314 251.333C56.3082 257.443 66.6542 263.131 76.8079 269.087C78.731 270.201 80.1156 270.355 82.1156 269.164C92.1539 263.169 102.231 257.328 112.384 251.564C114.538 250.334 115.154 248.951 115.154 246.607C114.846 224.857 114.615 203.106 114.5 181.356C114.5 179.05 113.692 177.859 111.769 176.783C101 170.635 90.2309 164.448 79.5771 158.107C77.5387 156.878 76.0387 156.724 73.9234 157.992C64.2312 163.795 54.4236 169.405 44.693 175.169C42.4237 176.514 40.4622 176.629 38.193 175.246C34.5777 173.017 30.847 170.942 26.8086 168.56C26.8086 198.226 26.8086 227.277 26.8086 256.982ZM303.574 329.457C299.074 326.844 295.382 324.615 291.613 322.617C288.921 321.195 287.767 319.274 287.767 316.161C287.767 304.748 287.459 293.297 287.382 281.884C287.382 279.885 286.998 278.54 285.036 277.426C274.575 271.508 264.152 265.436 253.806 259.288C252.037 258.25 250.806 258.404 249.152 259.365C230.037 270.509 210.922 281.653 191.768 292.72C189.999 293.758 189.114 294.834 189.153 297.024C189.268 309.206 189.268 321.349 189.153 333.531C189.153 335.644 189.845 336.874 191.691 337.873C202.306 343.829 212.806 349.978 223.383 355.934C225.691 357.241 226.768 358.739 226.768 361.468C226.729 365.426 226.421 369.422 227.152 373.765C252.652 359.008 277.805 344.406 303.574 329.457ZM189.153 284.035C190.653 283.344 191.191 283.113 191.691 282.844C209.422 272.546 227.114 262.208 244.883 251.987C246.729 250.949 246.96 249.643 246.96 247.798C246.729 227.777 246.614 207.795 246.383 187.774C246.383 186.736 246.767 185.583 245.883 184.584C245.498 184.699 245.152 184.699 244.844 184.891C226.806 195.344 208.806 205.835 190.73 216.21C188.999 217.209 188.883 218.554 188.922 220.207C188.999 234.194 189.076 248.182 189.153 262.208C189.191 269.241 189.153 276.273 189.153 284.035ZM127.923 177.283C146.192 187.774 164.499 198.226 182.73 208.755C184.576 209.831 185.73 208.87 187.076 208.102C196.73 202.53 206.383 196.919 216.037 191.309C224.498 186.39 232.921 181.471 241.46 176.514C240.96 176.053 240.729 175.784 240.421 175.592C222.537 165.293 204.653 155.071 186.807 144.696C184.845 143.543 183.653 144.273 182.191 145.157C164.999 155.148 147.807 165.14 130.615 175.131C129.653 175.669 128.538 175.976 127.923 177.283ZM123.384 184.93C123.23 185.852 123.115 186.198 123.115 186.544C123.269 207.295 123.423 228.046 123.5 248.797C123.5 251.103 124.769 251.948 126.423 252.909C143.461 262.67 160.499 272.469 177.537 282.229C178.422 282.729 179.23 283.728 180.114 283.421C180.114 261.901 180.076 240.574 180.153 219.208C180.153 217.248 178.845 216.748 177.653 216.018C170.845 212.098 164.038 208.217 157.23 204.298C146.076 197.919 134.923 191.54 123.384 184.93ZM218.498 32.6017C208.768 38.2506 199.922 43.3615 191.037 48.5108C190.23 48.972 189.883 49.7021 189.883 50.6244C189.883 60.7693 189.883 70.9143 189.883 82.0584C196.922 77.985 202.691 73.9117 209.037 71.1833C216.922 67.7632 219.729 62.7292 218.652 54.2366C217.806 47.3964 218.498 40.3641 218.498 32.6017ZM189.883 416.381C190.96 416.458 191.268 416.573 191.422 416.458C200.037 411.501 208.614 406.544 217.268 401.625C218.46 400.972 218.575 400.011 218.537 398.858C218.422 389.52 218.306 380.221 218.306 370.883C218.306 368.731 217.768 368.269 215.806 369.422C207.768 374.149 199.691 378.76 191.653 383.448C190.691 384.025 189.883 384.64 189.883 385.985C189.922 396.13 189.883 406.275 189.883 416.381ZM45.5391 164.602C55.1159 159.029 63.8466 153.919 72.6157 148.885C74.1541 148.001 73.9234 146.694 73.9234 145.388C73.8849 136.664 73.8464 127.98 73.7311 119.257C73.7311 118.142 74.231 116.836 73.0003 115.721C65.5004 120.102 58.1159 124.713 50.4237 128.71C46.5391 130.747 45.1545 133.052 45.3853 137.51C45.8852 146.271 45.5391 155.071 45.5391 164.602ZM332.882 331.494C342.458 325.96 351.228 320.849 359.997 315.777C360.997 315.201 361.266 314.432 361.266 313.356C361.266 303.211 361.266 293.066 361.266 282.921C360.497 282.921 360.228 282.844 360.035 282.921C351.42 287.84 342.843 292.835 334.266 297.754C333.151 298.408 332.882 299.291 332.882 300.483C332.882 310.551 332.882 320.58 332.882 331.494ZM332.882 164.602C342.42 159.068 351.189 153.919 359.997 148.885C361.535 148.001 361.266 146.656 361.228 145.349C361.189 136.395 361.112 127.442 360.997 118.45C360.997 117.604 361.497 116.49 360.266 115.76C351.728 120.717 343.151 125.713 334.536 130.67C333.305 131.361 332.843 132.245 332.843 133.629C332.882 143.697 332.882 153.765 332.882 164.602ZM73.9234 283.19C72.7695 282.806 72.2311 283.075 71.6926 283.421C63.6158 288.109 55.6159 292.835 47.5006 297.408C45.6545 298.446 45.4622 299.868 45.4622 301.674C45.616 310.512 45.6545 319.351 45.7699 328.189C45.7699 329.073 45.2699 330.149 46.5391 330.918C55.0774 325.96 63.6543 321.003 72.2695 316.046C73.308 315.47 73.9234 314.816 73.9234 313.51C73.9234 303.326 73.9234 293.143 73.9234 283.19ZM323.997 331.225C323.997 320.58 323.959 310.666 324.036 300.752C324.036 298.907 323.036 298.215 321.728 297.447C315.767 294.065 309.844 290.607 303.882 287.225C301.382 285.803 299.074 283.997 296.228 283.19C296.228 293.335 296.228 303.249 296.228 313.164C296.228 314.317 296.305 315.277 297.498 315.969C306.19 320.965 314.882 325.96 323.997 331.225ZM296.151 115.875C296.151 122.984 296.113 129.363 296.151 135.742C296.19 139.892 295.036 144.85 296.882 148.001C298.728 151.152 303.613 152.574 307.228 154.649C312.69 157.838 318.19 160.951 324.036 164.256C324.036 153.65 324.036 143.581 324.036 133.552C324.036 132.476 323.805 131.669 322.805 131.092C314.074 126.174 305.421 121.178 296.151 115.875ZM69.0003 107.69C62.5773 103.924 56.0774 100.888 50.4621 96.661C43.9237 91.7422 38.5007 91.8575 32.0008 96.7379C26.347 101.003 19.8086 104.116 13.1549 108.036C22.3086 113.3 30.9239 118.219 39.4622 123.176C40.8084 123.945 41.7314 123.522 42.8468 122.907C51.3852 117.912 59.962 112.954 69.0003 107.69ZM300.421 108.036C309.613 113.339 318.382 118.373 327.151 123.445C328.151 124.022 328.997 123.676 329.882 123.138C338.535 118.065 347.228 113.07 355.92 108.036C355.689 107.651 355.612 107.382 355.458 107.267C346.997 102.348 338.497 97.468 329.997 92.5108C328.882 91.8575 327.997 92.0112 326.959 92.6261C318.305 97.6601 309.613 102.694 300.421 108.036ZM36.5007 164.025C36.5007 153.496 36.5007 143.389 36.5007 133.244C36.5007 131.707 35.5008 131.131 34.4623 130.516C26.8086 126.135 19.1548 121.793 11.5395 117.335C9.34723 116.067 8.65494 116.259 8.6934 118.949C8.84724 125.559 9.3857 132.245 8.73186 138.778C8.0011 146.118 10.4241 150.383 17.2702 153.342C23.9624 156.186 30.0777 160.374 36.5007 164.025ZM36.5392 331.11C36.5392 320.465 36.5392 310.282 36.5392 300.137C36.5392 299.176 36.1546 298.446 35.3469 297.985C26.6547 292.989 17.9625 287.994 8.96262 282.844C8.96262 293.527 8.96262 303.672 8.96262 313.817C8.96262 314.97 9.50108 315.585 10.4241 316.123C19.0394 321.08 27.6162 325.999 36.5392 331.11ZM356.381 274.621C347.189 269.318 338.651 264.476 330.189 259.48C328.574 258.519 327.497 259.173 326.189 259.941C318.536 264.399 310.882 268.818 303.267 273.276C302.459 273.737 301.344 273.929 301.151 275.351C309.69 280.27 318.305 285.227 326.882 290.184C327.843 290.722 328.689 290.76 329.612 290.222C338.382 285.111 347.151 280.001 356.381 274.621ZM213.652 25.0698C204.46 19.8052 195.653 14.7327 186.845 9.66022C185.999 9.16065 185.23 9.35279 184.422 9.81393C175.691 14.9248 166.922 19.9973 157.653 25.3772C166.807 30.6419 175.499 35.5991 184.191 40.6331C185.153 41.2095 185.96 41.1711 186.922 40.5947C195.691 35.4838 204.46 30.4113 213.652 25.0698ZM13.1164 274.928C19.3471 278.54 24.924 281.768 30.5393 284.996C33.9239 286.956 37.3084 290.146 40.8084 290.376C44.5006 290.568 47.8468 286.918 51.3467 284.958C57.1928 281.691 62.9235 278.233 69.0773 274.659C60.0005 269.433 51.3852 264.514 42.8084 259.518C41.7699 258.904 40.8853 258.788 39.7699 259.442C31.1162 264.476 22.4625 269.51 13.1164 274.928ZM157.653 360.776C166.845 366.041 175.614 371.075 184.384 376.147C185.845 376.993 186.691 376.07 187.691 375.532C194.806 371.459 201.922 367.347 208.999 363.197C210.383 362.39 212.075 361.852 213.191 360.2C204.499 355.204 195.999 350.324 187.499 345.443C186.46 344.867 185.576 344.559 184.46 345.251C175.653 350.324 166.884 355.396 157.653 360.776ZM180.999 81.5588C180.999 70.9143 180.999 60.6925 180.999 50.4322C180.999 49.0488 180.037 48.5108 179.114 47.9728C171.345 43.5152 163.576 39.096 155.845 34.5999C153.576 33.255 153.23 34.0619 153.269 36.2523C153.422 45.475 153.461 54.6593 153.538 63.882C153.538 64.8427 153.461 65.765 154.576 66.4182C163.422 71.3754 172.191 76.4864 180.999 81.5588ZM181.037 416.919C181.037 406.275 180.999 396.13 181.076 385.985C181.076 384.64 180.384 384.025 179.384 383.448C171.499 378.952 163.653 374.456 155.807 369.883C153.922 368.807 153.269 368.961 153.307 371.267C153.461 380.605 153.538 389.904 153.576 399.242C153.576 400.434 153.884 401.279 154.999 401.932C163.615 406.89 172.191 411.847 181.037 416.919Z"/>
</mask>
<path d="M17.9241 212.867C17.9241 197.496 17.8856 182.125 17.9625 166.792C17.9625 164.371 17.2702 162.988 15.1164 161.873C11.3087 159.913 7.69341 157.531 3.88576 155.533C1.5781 154.303 0.424268 152.65 0.424268 149.999C0.347346 136.126 0.193502 122.216 0.00119674 108.343C-0.0372643 106.191 1.03965 104.923 2.73193 103.924C14.2318 97.2758 25.7701 90.7431 37.193 83.9798C40.1161 82.2505 42.5007 82.2121 45.3468 84.0182C49.5006 86.6313 53.9236 88.8601 58.0774 91.4732C59.9235 92.6261 61.2697 92.4339 63.0389 91.3964C89.4616 75.9868 115.923 60.6156 142.423 45.3213C144.115 44.3606 144.884 43.3231 144.807 41.2864C144.615 36.3676 144.769 31.4488 144.576 26.5301C144.499 24.0323 145.307 22.3799 147.538 21.1117C159.076 14.5406 170.576 7.93096 181.999 1.20608C184.653 -0.369468 186.807 -0.407896 189.499 1.12922C200.96 7.81568 212.499 14.3868 224.037 20.9196C225.998 22.034 226.768 23.4943 226.768 25.6847C226.729 30.9877 226.96 36.2523 226.806 41.5554C226.729 43.9379 227.498 45.2829 229.614 46.5126C255.498 61.4226 281.305 76.4095 307.074 91.4732C308.767 92.4724 309.997 92.5876 311.728 91.5117C316.113 88.7833 320.69 86.4007 325.074 83.6724C327.459 82.2121 329.459 82.1737 331.92 83.5955C343.497 90.3204 355.151 96.9684 366.766 103.578C368.804 104.731 369.689 106.383 369.689 108.689C369.727 121.947 369.727 135.243 369.997 148.5C370.074 151.92 368.843 153.995 365.881 155.533C361.958 157.569 358.266 160.029 354.381 162.104C352.651 163.064 352.035 164.217 352.035 166.177C352.074 197.265 352.074 228.353 352.035 259.48C352.035 261.478 352.689 262.593 354.42 263.515C358.535 265.705 362.497 268.203 366.612 270.394C368.689 271.508 369.727 273.084 369.727 275.351C369.804 288.993 369.843 302.635 369.997 316.276C370.035 318.928 369.035 320.619 366.766 321.925C354.958 328.727 343.189 335.606 331.42 342.523C329.497 343.637 327.805 343.522 325.92 342.369C322.151 340.063 318.266 337.95 314.497 335.644C312.92 334.683 311.728 334.722 310.151 335.644C283.075 351.323 256.113 367.001 229.075 382.603C227.498 383.525 226.845 384.563 226.921 386.407C227.114 391.441 227.037 396.476 227.229 401.51C227.345 404.392 226.383 406.352 223.768 407.812C212.037 414.537 200.383 421.377 188.73 428.179C186.845 429.293 185.076 429.255 183.191 428.179C171.614 421.454 159.999 414.767 148.384 408.119C145.961 406.736 144.884 404.891 144.884 402.163C144.922 397.359 144.73 392.556 144.846 387.791C144.884 385.716 144.269 384.486 142.384 383.41C114.923 367.578 87.5001 351.669 60.1158 335.683C58.1928 334.568 56.8466 334.722 55.1159 335.836C51.5775 338.065 47.8852 340.025 44.3468 342.254C42.3468 343.483 40.5776 343.56 38.5392 342.369C27.1932 335.759 15.8472 329.111 4.38576 322.656C1.5781 321.118 0.385807 319.159 0.385807 315.969C0.347346 302.711 0.231963 289.415 0.00119674 276.158C-0.0372643 273.506 0.84734 271.815 3.23193 270.547C7.15495 268.472 10.8472 266.013 14.7702 264.015C17.1548 262.785 18.001 261.286 18.001 258.596C17.8471 243.34 17.9241 228.123 17.9241 212.867ZM69.1542 97.7754C72.6541 99.7737 75.4233 101.618 78.4233 102.963C81.3463 104.27 82.2309 106.23 82.2309 109.342C82.2309 121.985 82.5386 134.628 82.6156 147.309C82.6156 149.23 83.1156 150.383 84.8848 151.382C95.6539 157.531 106.384 163.756 117.077 170.058C118.846 171.096 120.23 171.25 122.115 170.135C140.769 159.222 159.461 148.385 178.191 137.587C180.153 136.472 180.845 135.127 180.807 132.899C180.691 120.14 180.691 107.344 180.807 94.5859C180.845 92.1265 179.999 90.8584 177.922 89.7056C168.268 84.3256 158.768 78.6383 149.115 73.2968C145.999 71.5676 144.692 69.3772 144.884 65.9187C145.076 62.1527 144.922 58.3868 144.922 53.8523C119.423 68.6086 94.6154 83.0191 69.1542 97.7754ZM144.615 374.841C144.615 370.152 144.769 366.117 144.576 362.121C144.422 359.277 145.538 357.663 147.999 356.28C158.153 350.554 168.191 344.636 178.345 338.872C180.191 337.835 180.807 336.566 180.807 334.453C180.73 322.041 180.73 309.628 180.807 297.255C180.807 295.064 180.23 293.719 178.191 292.566C159.076 281.691 140.038 270.739 121.038 259.711C119.154 258.635 117.654 258.404 115.654 259.595C105.423 265.667 95.1154 271.662 84.7694 277.541C82.7694 278.656 82.1156 279.962 82.154 282.229C82.4233 292.797 82.3079 303.365 82.7309 313.894C82.8848 318.236 81.7694 321.195 77.6156 322.963C75.0387 324.077 72.6926 325.73 70.2696 327.152C66.3465 329.419 66.3465 329.419 70.1157 331.609C90.5001 343.445 110.884 355.281 131.307 367.078C135.5 369.576 139.73 371.997 144.615 374.841ZM227.191 55.082C227.191 58.9632 226.998 62.1527 227.229 65.3038C227.498 68.9161 226.191 71.1833 222.922 72.9894C212.537 78.792 202.306 84.9405 191.96 90.82C189.883 92.0112 189.114 93.3562 189.114 95.7772C189.23 108.189 189.23 120.602 189.114 132.975C189.076 135.396 189.883 136.664 191.96 137.856C210.537 148.423 229.037 159.068 247.537 169.789C249.613 170.981 251.152 171.096 253.229 169.866C263.69 163.679 274.19 157.531 284.767 151.574C287.151 150.23 287.882 148.616 287.805 146.002C287.498 133.859 287.459 121.678 287.19 109.534C287.113 106.729 288.036 104.923 290.575 103.655C293.921 101.964 297.074 99.9274 300.767 97.8138C276.036 83.4034 251.883 69.3772 227.191 55.082ZM343.151 168.598C339.151 170.942 335.574 172.864 332.228 175.092C329.882 176.629 327.882 176.668 325.42 175.246C315.69 169.52 305.805 163.987 296.113 158.223C293.844 156.878 292.267 157.07 290.113 158.338C279.344 164.717 268.498 171.019 257.613 177.206C255.536 178.397 254.69 179.665 254.729 182.086C255.036 203.952 255.267 225.817 255.421 247.683C255.421 249.643 255.998 250.757 257.729 251.756C267.882 257.52 277.959 263.361 287.998 269.356C289.882 270.47 291.19 270.355 292.998 269.279C301.997 263.976 310.997 258.711 320.074 253.562C329.92 247.952 326.959 247.952 336.766 253.447C338.766 254.561 340.766 255.714 343.112 257.021C343.151 227.354 343.151 198.303 343.151 168.598ZM26.8086 256.982C30.2316 254.984 33.3469 253.447 36.1161 251.487C39.5776 249.066 42.5391 249.105 46.2314 251.333C56.3082 257.443 66.6542 263.131 76.8079 269.087C78.731 270.201 80.1156 270.355 82.1156 269.164C92.1539 263.169 102.231 257.328 112.384 251.564C114.538 250.334 115.154 248.951 115.154 246.607C114.846 224.857 114.615 203.106 114.5 181.356C114.5 179.05 113.692 177.859 111.769 176.783C101 170.635 90.2309 164.448 79.5771 158.107C77.5387 156.878 76.0387 156.724 73.9234 157.992C64.2312 163.795 54.4236 169.405 44.693 175.169C42.4237 176.514 40.4622 176.629 38.193 175.246C34.5777 173.017 30.847 170.942 26.8086 168.56C26.8086 198.226 26.8086 227.277 26.8086 256.982ZM303.574 329.457C299.074 326.844 295.382 324.615 291.613 322.617C288.921 321.195 287.767 319.274 287.767 316.161C287.767 304.748 287.459 293.297 287.382 281.884C287.382 279.885 286.998 278.54 285.036 277.426C274.575 271.508 264.152 265.436 253.806 259.288C252.037 258.25 250.806 258.404 249.152 259.365C230.037 270.509 210.922 281.653 191.768 292.72C189.999 293.758 189.114 294.834 189.153 297.024C189.268 309.206 189.268 321.349 189.153 333.531C189.153 335.644 189.845 336.874 191.691 337.873C202.306 343.829 212.806 349.978 223.383 355.934C225.691 357.241 226.768 358.739 226.768 361.468C226.729 365.426 226.421 369.422 227.152 373.765C252.652 359.008 277.805 344.406 303.574 329.457ZM189.153 284.035C190.653 283.344 191.191 283.113 191.691 282.844C209.422 272.546 227.114 262.208 244.883 251.987C246.729 250.949 246.96 249.643 246.96 247.798C246.729 227.777 246.614 207.795 246.383 187.774C246.383 186.736 246.767 185.583 245.883 184.584C245.498 184.699 245.152 184.699 244.844 184.891C226.806 195.344 208.806 205.835 190.73 216.21C188.999 217.209 188.883 218.554 188.922 220.207C188.999 234.194 189.076 248.182 189.153 262.208C189.191 269.241 189.153 276.273 189.153 284.035ZM127.923 177.283C146.192 187.774 164.499 198.226 182.73 208.755C184.576 209.831 185.73 208.87 187.076 208.102C196.73 202.53 206.383 196.919 216.037 191.309C224.498 186.39 232.921 181.471 241.46 176.514C240.96 176.053 240.729 175.784 240.421 175.592C222.537 165.293 204.653 155.071 186.807 144.696C184.845 143.543 183.653 144.273 182.191 145.157C164.999 155.148 147.807 165.14 130.615 175.131C129.653 175.669 128.538 175.976 127.923 177.283ZM123.384 184.93C123.23 185.852 123.115 186.198 123.115 186.544C123.269 207.295 123.423 228.046 123.5 248.797C123.5 251.103 124.769 251.948 126.423 252.909C143.461 262.67 160.499 272.469 177.537 282.229C178.422 282.729 179.23 283.728 180.114 283.421C180.114 261.901 180.076 240.574 180.153 219.208C180.153 217.248 178.845 216.748 177.653 216.018C170.845 212.098 164.038 208.217 157.23 204.298C146.076 197.919 134.923 191.54 123.384 184.93ZM218.498 32.6017C208.768 38.2506 199.922 43.3615 191.037 48.5108C190.23 48.972 189.883 49.7021 189.883 50.6244C189.883 60.7693 189.883 70.9143 189.883 82.0584C196.922 77.985 202.691 73.9117 209.037 71.1833C216.922 67.7632 219.729 62.7292 218.652 54.2366C217.806 47.3964 218.498 40.3641 218.498 32.6017ZM189.883 416.381C190.96 416.458 191.268 416.573 191.422 416.458C200.037 411.501 208.614 406.544 217.268 401.625C218.46 400.972 218.575 400.011 218.537 398.858C218.422 389.52 218.306 380.221 218.306 370.883C218.306 368.731 217.768 368.269 215.806 369.422C207.768 374.149 199.691 378.76 191.653 383.448C190.691 384.025 189.883 384.64 189.883 385.985C189.922 396.13 189.883 406.275 189.883 416.381ZM45.5391 164.602C55.1159 159.029 63.8466 153.919 72.6157 148.885C74.1541 148.001 73.9234 146.694 73.9234 145.388C73.8849 136.664 73.8464 127.98 73.7311 119.257C73.7311 118.142 74.231 116.836 73.0003 115.721C65.5004 120.102 58.1159 124.713 50.4237 128.71C46.5391 130.747 45.1545 133.052 45.3853 137.51C45.8852 146.271 45.5391 155.071 45.5391 164.602ZM332.882 331.494C342.458 325.96 351.228 320.849 359.997 315.777C360.997 315.201 361.266 314.432 361.266 313.356C361.266 303.211 361.266 293.066 361.266 282.921C360.497 282.921 360.228 282.844 360.035 282.921C351.42 287.84 342.843 292.835 334.266 297.754C333.151 298.408 332.882 299.291 332.882 300.483C332.882 310.551 332.882 320.58 332.882 331.494ZM332.882 164.602C342.42 159.068 351.189 153.919 359.997 148.885C361.535 148.001 361.266 146.656 361.228 145.349C361.189 136.395 361.112 127.442 360.997 118.45C360.997 117.604 361.497 116.49 360.266 115.76C351.728 120.717 343.151 125.713 334.536 130.67C333.305 131.361 332.843 132.245 332.843 133.629C332.882 143.697 332.882 153.765 332.882 164.602ZM73.9234 283.19C72.7695 282.806 72.2311 283.075 71.6926 283.421C63.6158 288.109 55.6159 292.835 47.5006 297.408C45.6545 298.446 45.4622 299.868 45.4622 301.674C45.616 310.512 45.6545 319.351 45.7699 328.189C45.7699 329.073 45.2699 330.149 46.5391 330.918C55.0774 325.96 63.6543 321.003 72.2695 316.046C73.308 315.47 73.9234 314.816 73.9234 313.51C73.9234 303.326 73.9234 293.143 73.9234 283.19ZM323.997 331.225C323.997 320.58 323.959 310.666 324.036 300.752C324.036 298.907 323.036 298.215 321.728 297.447C315.767 294.065 309.844 290.607 303.882 287.225C301.382 285.803 299.074 283.997 296.228 283.19C296.228 293.335 296.228 303.249 296.228 313.164C296.228 314.317 296.305 315.277 297.498 315.969C306.19 320.965 314.882 325.96 323.997 331.225ZM296.151 115.875C296.151 122.984 296.113 129.363 296.151 135.742C296.19 139.892 295.036 144.85 296.882 148.001C298.728 151.152 303.613 152.574 307.228 154.649C312.69 157.838 318.19 160.951 324.036 164.256C324.036 153.65 324.036 143.581 324.036 133.552C324.036 132.476 323.805 131.669 322.805 131.092C314.074 126.174 305.421 121.178 296.151 115.875ZM69.0003 107.69C62.5773 103.924 56.0774 100.888 50.4621 96.661C43.9237 91.7422 38.5007 91.8575 32.0008 96.7379C26.347 101.003 19.8086 104.116 13.1549 108.036C22.3086 113.3 30.9239 118.219 39.4622 123.176C40.8084 123.945 41.7314 123.522 42.8468 122.907C51.3852 117.912 59.962 112.954 69.0003 107.69ZM300.421 108.036C309.613 113.339 318.382 118.373 327.151 123.445C328.151 124.022 328.997 123.676 329.882 123.138C338.535 118.065 347.228 113.07 355.92 108.036C355.689 107.651 355.612 107.382 355.458 107.267C346.997 102.348 338.497 97.468 329.997 92.5108C328.882 91.8575 327.997 92.0112 326.959 92.6261C318.305 97.6601 309.613 102.694 300.421 108.036ZM36.5007 164.025C36.5007 153.496 36.5007 143.389 36.5007 133.244C36.5007 131.707 35.5008 131.131 34.4623 130.516C26.8086 126.135 19.1548 121.793 11.5395 117.335C9.34723 116.067 8.65494 116.259 8.6934 118.949C8.84724 125.559 9.3857 132.245 8.73186 138.778C8.0011 146.118 10.4241 150.383 17.2702 153.342C23.9624 156.186 30.0777 160.374 36.5007 164.025ZM36.5392 331.11C36.5392 320.465 36.5392 310.282 36.5392 300.137C36.5392 299.176 36.1546 298.446 35.3469 297.985C26.6547 292.989 17.9625 287.994 8.96262 282.844C8.96262 293.527 8.96262 303.672 8.96262 313.817C8.96262 314.97 9.50108 315.585 10.4241 316.123C19.0394 321.08 27.6162 325.999 36.5392 331.11ZM356.381 274.621C347.189 269.318 338.651 264.476 330.189 259.48C328.574 258.519 327.497 259.173 326.189 259.941C318.536 264.399 310.882 268.818 303.267 273.276C302.459 273.737 301.344 273.929 301.151 275.351C309.69 280.27 318.305 285.227 326.882 290.184C327.843 290.722 328.689 290.76 329.612 290.222C338.382 285.111 347.151 280.001 356.381 274.621ZM213.652 25.0698C204.46 19.8052 195.653 14.7327 186.845 9.66022C185.999 9.16065 185.23 9.35279 184.422 9.81393C175.691 14.9248 166.922 19.9973 157.653 25.3772C166.807 30.6419 175.499 35.5991 184.191 40.6331C185.153 41.2095 185.96 41.1711 186.922 40.5947C195.691 35.4838 204.46 30.4113 213.652 25.0698ZM13.1164 274.928C19.3471 278.54 24.924 281.768 30.5393 284.996C33.9239 286.956 37.3084 290.146 40.8084 290.376C44.5006 290.568 47.8468 286.918 51.3467 284.958C57.1928 281.691 62.9235 278.233 69.0773 274.659C60.0005 269.433 51.3852 264.514 42.8084 259.518C41.7699 258.904 40.8853 258.788 39.7699 259.442C31.1162 264.476 22.4625 269.51 13.1164 274.928ZM157.653 360.776C166.845 366.041 175.614 371.075 184.384 376.147C185.845 376.993 186.691 376.07 187.691 375.532C194.806 371.459 201.922 367.347 208.999 363.197C210.383 362.39 212.075 361.852 213.191 360.2C204.499 355.204 195.999 350.324 187.499 345.443C186.46 344.867 185.576 344.559 184.46 345.251C175.653 350.324 166.884 355.396 157.653 360.776ZM180.999 81.5588C180.999 70.9143 180.999 60.6925 180.999 50.4322C180.999 49.0488 180.037 48.5108 179.114 47.9728C171.345 43.5152 163.576 39.096 155.845 34.5999C153.576 33.255 153.23 34.0619 153.269 36.2523C153.422 45.475 153.461 54.6593 153.538 63.882C153.538 64.8427 153.461 65.765 154.576 66.4182C163.422 71.3754 172.191 76.4864 180.999 81.5588ZM181.037 416.919C181.037 406.275 180.999 396.13 181.076 385.985C181.076 384.64 180.384 384.025 179.384 383.448C171.499 378.952 163.653 374.456 155.807 369.883C153.922 368.807 153.269 368.961 153.307 371.267C153.461 380.605 153.538 389.904 153.576 399.242C153.576 400.434 153.884 401.279 154.999 401.932C163.615 406.89 172.191 411.847 181.037 416.919Z" stroke="#0075FF" stroke-width="2" mask="url(#path-1-inside-1_102_6241)"/>
</svg>
