<svg width="613" height="604" viewBox="0 0 613 604" fill="none" xmlns="http://www.w3.org/2000/svg">
<path d="M394.57 258.6L134.053 408.014C133.746 408.186 133.376 408.085 133.205 407.779L22.2138 208.957C22.0426 208.651 22.1651 208.257 22.4775 208.099L291.579 74.0793C291.877 73.9269 292.239 74.046 292.405 74.3388L394.813 257.766C394.979 258.059 394.864 258.434 394.57 258.6Z" stroke="#0075FF" stroke-width="1.5" stroke-miterlimit="10"/>
<path d="M143.73 437.976C139.936 436.823 138.158 433.522 138.084 433.379L12.8201 209.043C11.5233 206.736 11.2397 204.065 12.0415 201.517C12.8298 198.975 14.5889 196.93 16.9698 195.761L285.179 63.5275C285.341 63.4618 285.524 63.3718 285.686 63.3061C288.29 62.1086 291.024 62.7369 292.652 65.4731" stroke="#0075FF" stroke-width="1.5" stroke-miterlimit="10"/>
<path d="M405.916 269.509L137.465 424.929C137.136 425.124 136.696 425.005 136.514 424.672L14.4104 207.006C12.3877 203.412 13.8126 198.843 17.5238 197.008L286.75 64.4563C289.184 63.2651 292.13 64.1831 293.44 66.5628L406.166 268.579C406.348 268.912 406.231 269.319 405.902 269.515L405.916 269.509Z" stroke="#0075FF" stroke-width="1.5" stroke-miterlimit="10"/>
<path d="M397.906 284.42L162.027 420.974C161.711 421.164 161.309 421.14 161.014 420.915L153.45 415.688L389.126 279.248L397.916 283.978C398.097 284.076 398.09 284.33 397.912 284.433L397.906 284.42Z" stroke="#0075FF" stroke-width="1.5" stroke-miterlimit="10"/>
<path d="M587.379 363.276L587.253 364.939C587.525 366.769 586.543 368.874 584.826 369.977L309.429 547.64C308.681 548.115 307.892 548.53 307.084 548.857C302.53 550.705 297.265 550.023 293.332 547.096L237.061 509.208L205.813 486.982L156.295 449.767L144.973 439.648C144.894 439.569 144.084 438.849 143.632 437.812C143.346 437.146 142.038 433.575 141.296 431.513C141.296 431.513 141.29 431.5 141.285 431.486C140.671 429.779 141.416 427.864 142.917 426.848C143.235 426.625 143.625 426.389 144.056 426.136" stroke="#0075FF" stroke-width="1.5" stroke-miterlimit="10"/>
<path d="M136.342 424.367L140.2 431.285C140.2 431.285 140.92 432.558 142.055 433.538" stroke="#0075FF" stroke-width="1.5" stroke-miterlimit="10"/>
<path d="M407.768 273.031L405.859 269.642" stroke="#0075FF" stroke-width="1.5" stroke-miterlimit="10"/>
<path d="M498.987 413.805L393.231 482.319C391.678 483.325 389.676 483.339 388.119 482.327L330.931 445.658C329.894 444.998 329.905 443.476 330.96 442.829L435.216 379.008C436.586 378.17 438.297 378.133 439.696 378.912L498.912 411.378C499.829 411.898 499.875 413.21 498.976 413.778L498.987 413.805Z" stroke="#0075FF" stroke-width="1.5" stroke-miterlimit="10"/>
<path d="M505.979 328.838L240.365 492.372C239.062 493.182 237.399 493.106 236.168 492.197L162.471 437.807C161.64 437.19 161.707 435.925 162.596 435.408L419.536 284.331C420.535 283.738 421.763 283.709 422.79 284.232L505.89 326.339C506.893 326.839 506.95 328.256 505.997 328.846L505.979 328.838Z" stroke="#0075FF" stroke-width="1.5" stroke-miterlimit="10"/>
<path d="M412.422 278.202L404.917 282.672C404.705 282.805 404.705 283.117 404.943 283.24L411.05 286.303C411.282 286.413 411.549 286.414 411.776 286.275L419.281 281.806C419.494 281.672 419.492 281.36 419.254 281.237L413.154 278.187C412.921 278.078 412.654 278.077 412.428 278.216L412.422 278.202Z" stroke="#0075FF" stroke-width="1.5" stroke-miterlimit="10"/>
<path d="M133.944 143.105L136.591 148.12C136.71 148.338 136.978 148.417 137.188 148.316L141.502 146.19C141.739 146.079 141.828 145.792 141.707 145.575L139.061 140.56C138.941 140.342 138.674 140.263 138.464 140.364L134.149 142.49C133.913 142.602 133.825 142.888 133.944 143.105Z" stroke="#0075FF" stroke-width="1.5" stroke-miterlimit="10"/>
<path d="M153.997 133.718L156.113 137.696C156.227 137.9 156.142 138.154 155.937 138.268L145.531 143.398C145.334 143.494 145.086 143.422 144.971 143.218L142.85 139.227C142.736 139.022 142.821 138.769 143.026 138.654L153.438 133.538C153.634 133.443 153.883 133.514 153.997 133.718Z" stroke="#0075FF" stroke-width="1.5" stroke-miterlimit="10"/>
<path d="M175.026 123.37L177.142 127.348C177.256 127.553 177.171 127.806 176.966 127.921L166.56 133.051C166.363 133.146 166.115 133.075 166 132.871L163.879 128.879C163.765 128.675 163.85 128.421 164.055 128.307L174.467 123.19C174.663 123.095 174.912 123.166 175.026 123.37Z" stroke="#0075FF" stroke-width="1.5" stroke-miterlimit="10"/>
<path d="M168.825 125.949L165.4 127.636C165.171 127.729 165.104 127.991 165.205 128.2L167.321 132.179C167.43 132.369 167.633 132.443 167.84 132.375L167.88 132.359L176.951 127.88" stroke="#0075FF" stroke-width="1.5" stroke-miterlimit="10"/>
<path d="M143.039 138.649L144.071 138.136L152.156 134.167C152.347 134.058 152.601 134.143 152.697 134.339L154.799 138.323C154.908 138.513 154.831 138.748 154.639 138.857C154.639 138.857 154.613 138.868 154.599 138.874L147.734 142.254L145.456 143.366" stroke="#0075FF" stroke-width="1.5" stroke-miterlimit="10"/>
<path d="M154.668 131.771L158.16 138.369C158.286 138.6 158.559 138.692 158.791 138.567L165.119 135.451C165.356 135.34 165.452 135.035 165.327 134.804L161.835 128.206C161.71 127.975 161.437 127.883 161.205 128.008L154.876 131.124C154.639 131.235 154.543 131.54 154.668 131.771Z" stroke="#0075FF" stroke-width="1.5" stroke-miterlimit="10"/>
<path d="M179.465 467.165L177.903 460.957C177.873 460.845 177.811 460.729 177.705 460.663L158.041 445.991C157.93 445.911 157.779 446.003 157.821 446.143L159.294 451.979" stroke="#0075FF" stroke-width="1.5" stroke-miterlimit="10"/>
<path d="M185.923 472.025L184.406 466.004C184.365 465.865 184.538 465.748 184.654 465.842L204.288 480.478C204.423 480.579 204.511 480.716 204.562 480.883L206.159 487.216" stroke="#0075FF" stroke-width="1.5" stroke-miterlimit="10"/>
<path d="M218.747 492.775C219.143 492.562 218.94 491.418 218.294 490.219C217.649 489.02 216.804 488.22 216.408 488.433C216.012 488.646 216.215 489.791 216.861 490.99C217.507 492.189 218.351 492.988 218.747 492.775Z" stroke="#0075FF" stroke-width="1.5" stroke-miterlimit="10"/>
<path d="M239.154 436.719C234.061 439.787 231.508 441.308 226.402 444.381C225.997 444.623 225.415 444.656 225.12 444.432C221.312 441.735 219.412 440.377 215.604 437.68C215.295 437.461 215.382 437.097 215.786 436.854C220.863 433.824 223.402 432.309 228.479 429.278C228.883 429.037 229.452 429.009 229.761 429.228C233.59 431.901 235.506 433.221 239.336 435.893C239.645 436.113 239.571 436.471 239.154 436.719Z" stroke="#0075FF" stroke-width="1.5" stroke-miterlimit="10"/>
<path d="M257.181 443.147C252.053 446.245 249.485 447.803 244.363 450.915C243.946 451.162 243.376 451.19 243.067 450.971C239.245 448.279 237.351 446.935 233.535 444.257C233.227 444.038 233.314 443.674 233.718 443.431C238.825 440.358 241.371 438.823 246.478 435.75C246.882 435.508 247.464 435.475 247.773 435.694C251.61 438.348 253.532 439.681 257.369 442.335C257.673 442.54 257.604 442.913 257.187 443.161L257.181 443.147Z" stroke="#0075FF" stroke-width="1.5" stroke-miterlimit="10"/>
<path d="M279.977 446.624C274.819 449.766 272.229 451.349 267.077 454.503C266.66 454.75 266.077 454.783 265.774 454.578C261.944 451.905 260.028 450.585 256.198 447.913C255.89 447.694 255.977 447.33 256.389 447.069C261.525 443.952 264.093 442.393 269.229 439.276C269.647 439.029 270.216 439.001 270.533 439.202C274.392 441.831 276.308 443.151 280.167 445.78C280.47 445.986 280.401 446.358 279.977 446.624Z" stroke="#0075FF" stroke-width="1.5" stroke-miterlimit="10"/>
<path d="M297.931 435.661C292.773 438.802 290.183 440.385 285.031 443.54C284.614 443.788 284.031 443.821 283.728 443.615C279.869 440.985 277.939 439.671 274.072 437.061C273.769 436.855 273.838 436.483 274.255 436.235C279.391 433.118 281.959 431.56 287.095 428.443C287.513 428.195 288.095 428.162 288.399 428.368C292.287 430.954 294.225 432.249 298.114 434.836C298.417 435.041 298.348 435.413 297.931 435.661Z" stroke="#0075FF" stroke-width="1.5" stroke-miterlimit="10"/>
<path d="M315.892 424.712C310.735 427.853 308.144 429.436 302.992 432.591C302.575 432.838 301.998 432.885 301.675 432.671C297.787 430.085 295.836 428.795 291.953 426.222C291.65 426.017 291.718 425.645 292.136 425.397C297.272 422.28 299.84 420.722 304.976 417.605C305.394 417.357 305.976 417.324 306.292 417.524C310.211 420.067 312.17 421.339 316.08 423.9C316.396 424.1 316.315 424.478 315.897 424.725L315.892 424.712Z" stroke="#0075FF" stroke-width="1.5" stroke-miterlimit="10"/>
<path d="M333.846 413.749C328.689 416.89 326.098 418.473 320.946 421.628C320.529 421.875 319.952 421.922 319.635 421.721C315.717 419.178 313.745 417.913 309.827 415.37C309.51 415.17 309.597 414.805 309.996 414.55C315.132 411.433 317.7 409.875 322.836 406.758C323.254 406.511 323.831 406.464 324.147 406.664C328.095 409.163 330.062 410.416 334.015 412.929C334.332 413.129 334.244 413.493 333.846 413.749Z" stroke="#0075FF" stroke-width="1.5" stroke-miterlimit="10"/>
<path d="M351.82 402.793C346.662 405.935 344.073 407.518 338.921 410.672C338.503 410.919 337.926 410.966 337.609 410.766C333.662 408.267 331.681 407.02 327.72 404.526C327.403 404.325 327.491 403.961 327.894 403.719C333.03 400.602 335.599 399.044 340.735 395.927C341.152 395.679 341.729 395.633 342.046 395.833C346.023 398.289 348.018 399.531 351.995 401.987C352.311 402.187 352.224 402.551 351.82 402.793Z" stroke="#0075FF" stroke-width="1.5" stroke-miterlimit="10"/>
<path d="M369.776 391.831C364.618 394.972 362.028 396.555 356.876 399.71C356.459 399.957 355.868 400.009 355.552 399.809C351.561 397.358 349.572 396.13 345.595 393.674C345.278 393.474 345.352 393.115 345.756 392.873C350.892 389.756 353.46 388.198 358.596 385.081C359.014 384.833 359.591 384.786 359.921 384.981C363.934 387.408 365.93 388.617 369.937 391.03C370.253 391.23 370.179 391.588 369.776 391.831Z" stroke="#0075FF" stroke-width="1.5" stroke-miterlimit="10"/>
<path d="M387.735 380.882C382.578 384.023 379.988 385.606 374.836 388.761C374.418 389.008 373.827 389.06 373.511 388.86C369.491 386.452 367.494 385.243 363.474 382.836C363.157 382.635 363.218 382.283 363.635 382.035C368.771 378.918 371.34 377.36 376.476 374.242C376.893 373.995 377.484 373.943 377.801 374.143C381.842 376.526 383.86 377.711 387.897 380.081C388.221 380.262 388.147 380.621 387.735 380.882Z" stroke="#0075FF" stroke-width="1.5" stroke-miterlimit="10"/>
<path d="M405.691 369.919C400.533 373.06 397.943 374.642 392.791 377.797C392.373 378.045 391.783 378.097 391.458 377.915C387.409 375.551 385.39 374.366 381.335 371.989C381.011 371.807 381.085 371.449 381.497 371.187C386.633 368.071 389.201 366.512 394.337 363.395C394.755 363.148 395.345 363.096 395.67 363.277C399.741 365.617 401.781 366.778 405.852 369.117C406.176 369.298 406.102 369.657 405.691 369.919Z" stroke="#0075FF" stroke-width="1.5" stroke-miterlimit="10"/>
<path d="M423.651 358.97C418.493 362.111 415.904 363.693 410.752 366.848C410.334 367.096 409.744 367.148 409.419 366.966C405.34 364.645 403.3 363.485 399.229 361.145C398.904 360.964 398.978 360.605 399.382 360.363C404.519 357.246 407.087 355.688 412.223 352.571C412.64 352.323 413.23 352.271 413.556 352.453C417.656 354.75 419.704 355.891 423.818 358.181C424.142 358.363 424.082 358.717 423.665 358.964L423.651 358.97Z" stroke="#0075FF" stroke-width="1.5" stroke-miterlimit="10"/>
<path d="M441.62 348C436.462 351.141 433.873 352.724 428.721 355.879C428.304 356.127 427.713 356.178 427.374 356.003C423.266 353.725 421.212 352.57 417.104 350.293C416.78 350.112 416.84 349.758 417.257 349.511C422.394 346.394 424.962 344.835 430.098 341.718C430.515 341.471 431.106 341.419 431.444 341.594C435.574 343.848 437.643 344.965 441.774 347.218C442.098 347.399 442.037 347.753 441.62 348Z" stroke="#0075FF" stroke-width="1.5" stroke-miterlimit="10"/>
<path d="M275.028 432.337C269.899 435.436 267.331 436.994 262.209 440.106C261.792 440.353 261.223 440.381 260.919 440.175C257.068 437.526 255.152 436.206 251.301 433.559C250.998 433.353 251.066 432.981 251.483 432.733C256.59 429.659 259.137 428.126 264.244 425.052C264.647 424.809 265.23 424.777 265.533 424.982C269.4 427.593 271.344 428.902 275.211 431.512C275.514 431.718 275.445 432.09 275.028 432.337Z" stroke="#0075FF" stroke-width="1.5" stroke-miterlimit="10"/>
<path d="M292.886 421.524C287.757 424.622 285.189 426.18 280.066 429.291C279.649 429.539 279.067 429.572 278.763 429.366C274.883 426.762 272.945 425.466 269.078 422.855C268.775 422.65 268.844 422.278 269.261 422.03C274.368 418.957 276.914 417.422 282.02 414.349C282.425 414.107 283.007 414.074 283.324 414.274C287.221 416.841 289.172 418.131 293.068 420.698C293.385 420.898 293.303 421.276 292.886 421.524Z" stroke="#0075FF" stroke-width="1.5" stroke-miterlimit="10"/>
<path d="M310.73 410.715C305.602 413.813 303.034 415.371 297.911 418.482C297.494 418.73 296.911 418.763 296.608 418.558C292.698 415.995 290.752 414.719 286.842 412.157C286.526 411.957 286.613 411.593 287.011 411.337C292.118 408.264 294.664 406.73 299.771 403.656C300.175 403.414 300.771 403.375 301.075 403.581C305 406.105 306.973 407.371 310.9 409.895C311.216 410.095 311.129 410.459 310.73 410.715Z" stroke="#0075FF" stroke-width="1.5" stroke-miterlimit="10"/>
<path d="M328.588 399.9C323.46 402.998 320.892 404.557 315.756 407.674C315.338 407.922 314.756 407.955 314.439 407.754C310.499 405.236 308.532 403.984 304.592 401.465C304.276 401.265 304.363 400.901 304.767 400.659C309.874 397.585 312.42 396.051 317.527 392.977C317.931 392.735 318.527 392.697 318.844 392.897C322.8 395.377 324.78 396.624 328.755 399.113C329.072 399.313 328.984 399.677 328.58 399.919L328.588 399.9Z" stroke="#0075FF" stroke-width="1.5" stroke-miterlimit="10"/>
<path d="M346.435 389.092C341.307 392.19 338.738 393.748 333.602 396.866C333.185 397.113 332.608 397.16 332.291 396.959C328.322 394.484 326.342 393.237 322.372 390.762C322.056 390.562 322.13 390.203 322.533 389.961C327.64 386.888 330.187 385.354 335.293 382.28C335.697 382.038 336.293 381.999 336.605 382.186C340.595 384.637 342.592 385.846 346.583 388.297C346.899 388.497 346.825 388.855 346.421 389.097L346.435 389.092Z" stroke="#0075FF" stroke-width="1.5" stroke-miterlimit="10"/>
<path d="M364.293 378.278C359.165 381.376 356.597 382.935 351.46 386.051C351.043 386.299 350.466 386.345 350.136 386.15C346.137 383.719 344.135 382.496 340.136 380.065C339.82 379.865 339.881 379.511 340.298 379.264C345.405 376.19 347.951 374.656 353.057 371.582C353.462 371.34 354.052 371.288 354.382 371.483C358.402 373.891 360.42 375.075 364.441 377.482C364.771 377.677 364.691 378.022 364.28 378.284L364.293 378.278Z" stroke="#0075FF" stroke-width="1.5" stroke-miterlimit="10"/>
<path d="M382.15 367.464L369.33 375.231C368.913 375.48 368.322 375.531 368.006 375.331C363.977 372.943 361.954 371.744 357.926 369.356C357.596 369.161 357.675 368.816 358.079 368.574C363.186 365.5 365.733 363.966 370.839 360.892C371.243 360.65 371.834 360.598 372.164 360.793C376.227 363.152 378.245 364.336 382.303 366.682C382.627 366.863 382.553 367.222 382.15 367.464Z" stroke="#0075FF" stroke-width="1.5" stroke-miterlimit="10"/>
<path d="M400 356.668C394.872 359.766 392.304 361.324 387.181 364.436C386.763 364.683 386.173 364.735 385.848 364.554C381.791 362.209 379.759 361.029 375.701 358.684C375.377 358.503 375.451 358.144 375.855 357.902C380.961 354.829 383.508 353.294 388.615 350.221C389.018 349.979 389.623 349.921 389.947 350.103C394.04 352.418 396.08 353.578 400.167 355.88C400.491 356.062 400.431 356.415 400.014 356.662L400 356.668Z" stroke="#0075FF" stroke-width="1.5" stroke-miterlimit="10"/>
<path d="M417.859 345.853C412.731 348.951 410.163 350.51 405.04 353.621C404.623 353.869 404.032 353.921 403.707 353.739C399.62 351.437 397.567 350.282 393.48 347.981C393.155 347.799 393.216 347.446 393.619 347.204C398.726 344.13 401.273 342.596 406.379 339.522C406.783 339.28 407.388 339.223 407.712 339.404C411.834 341.676 413.895 342.812 418.004 345.09C418.329 345.271 418.268 345.625 417.864 345.867L417.859 345.853Z" stroke="#0075FF" stroke-width="1.5" stroke-miterlimit="10"/>
<path d="M435.704 335.045C430.576 338.143 428.008 339.701 422.885 342.813C422.468 343.061 421.878 343.112 421.552 342.931C417.436 340.673 415.375 339.537 411.239 337.269C410.915 337.088 410.975 336.735 411.379 336.493C416.485 333.419 419.032 331.885 424.139 328.811C424.542 328.569 425.147 328.512 425.472 328.694C429.623 330.922 431.693 332.039 435.844 334.268C436.182 334.444 436.116 334.784 435.704 335.045Z" stroke="#0075FF" stroke-width="1.5" stroke-miterlimit="10"/>
<path d="M256.882 426.051C251.789 429.119 249.237 430.64 244.13 433.713C243.726 433.955 243.143 433.988 242.835 433.769C238.997 431.115 237.076 429.782 233.238 427.129C232.93 426.91 233.004 426.551 233.421 426.303C238.498 423.273 241.037 421.758 246.114 418.727C246.518 418.485 247.101 418.452 247.409 418.671C251.268 421.3 253.193 422.602 257.065 425.226C257.368 425.431 257.3 425.803 256.882 426.051Z" stroke="#0075FF" stroke-width="1.5" stroke-miterlimit="10"/>
<path d="M274.63 415.391C269.537 418.459 266.984 419.98 261.878 423.053C261.474 423.295 260.891 423.328 260.588 423.122C256.721 420.512 254.791 419.198 250.924 416.587C250.621 416.382 250.69 416.009 251.093 415.767C256.17 412.737 258.709 411.222 263.787 408.191C264.19 407.949 264.773 407.916 265.076 408.122C268.964 410.708 270.915 411.998 274.799 414.57C275.102 414.776 275.034 415.149 274.63 415.391Z" stroke="#0075FF" stroke-width="1.5" stroke-miterlimit="10"/>
<path d="M292.378 404.73C287.285 407.799 284.733 409.32 279.627 412.393C279.223 412.635 278.64 412.668 278.323 412.468C274.426 409.901 272.475 408.611 268.578 406.044C268.262 405.843 268.35 405.48 268.753 405.237C273.831 402.207 276.369 400.692 281.446 397.662C281.851 397.419 282.433 397.386 282.749 397.586C286.668 400.129 288.641 401.395 292.558 403.937C292.875 404.138 292.788 404.502 292.384 404.744L292.378 404.73Z" stroke="#0075FF" stroke-width="1.5" stroke-miterlimit="10"/>
<path d="M310.126 394.07C305.034 397.139 302.481 398.659 297.375 401.733C296.971 401.975 296.389 402.008 296.072 401.808C292.145 399.284 290.173 398.018 286.241 395.481C285.924 395.281 286.012 394.916 286.403 394.68C291.48 391.649 294.018 390.134 299.095 387.104C299.499 386.862 300.082 386.829 300.398 387.029C304.346 389.528 306.327 390.775 310.288 393.269C310.605 393.469 310.517 393.834 310.126 394.07Z" stroke="#0075FF" stroke-width="1.5" stroke-miterlimit="10"/>
<path d="M327.87 383.397C322.776 386.465 320.225 387.986 315.118 391.059C314.714 391.301 314.117 391.34 313.801 391.139C309.84 388.646 307.864 387.412 303.903 384.918C303.587 384.718 303.661 384.359 304.065 384.117C309.142 381.087 311.68 379.572 316.758 376.541C317.162 376.299 317.744 376.266 318.074 376.461C322.065 378.911 324.054 380.14 328.031 382.596C328.347 382.796 328.273 383.155 327.87 383.397Z" stroke="#0075FF" stroke-width="1.5" stroke-miterlimit="10"/>
<path d="M345.619 372.736C340.526 375.805 337.974 377.325 332.867 380.399C332.463 380.641 331.867 380.679 331.556 380.493C327.565 378.042 325.568 376.833 321.577 374.382C321.261 374.182 321.322 373.829 321.726 373.587C326.803 370.556 329.342 369.041 334.419 366.011C334.822 365.769 335.419 365.73 335.73 365.917C339.75 368.324 341.746 369.534 345.767 371.941C346.083 372.141 346.017 372.481 345.619 372.736Z" stroke="#0075FF" stroke-width="1.5" stroke-miterlimit="10"/>
<path d="M363.366 362.076C358.272 365.145 355.72 366.665 350.613 369.739C350.21 369.981 349.619 370.033 349.289 369.838C345.269 367.431 343.259 366.227 339.23 363.839C338.9 363.644 338.98 363.299 339.384 363.057C344.461 360.026 347 358.511 352.077 355.481C352.481 355.239 353.077 355.2 353.401 355.381C357.451 357.746 359.469 358.93 363.519 361.294C363.844 361.476 363.77 361.834 363.366 362.076Z" stroke="#0075FF" stroke-width="1.5" stroke-miterlimit="10"/>
<path d="M381.101 351.422C376.007 354.49 373.456 356.011 368.349 359.084C367.945 359.327 367.354 359.378 367.024 359.184C362.975 356.82 360.943 355.64 356.893 353.277C356.569 353.095 356.629 352.742 357.046 352.494C362.124 349.464 364.662 347.949 369.74 344.918C370.143 344.676 370.734 344.624 371.064 344.819C375.143 347.14 377.183 348.3 381.254 350.64C381.579 350.821 381.518 351.174 381.101 351.422Z" stroke="#0075FF" stroke-width="1.5" stroke-miterlimit="10"/>
<path d="M398.843 340.749C393.751 343.817 391.199 345.338 386.092 348.411C385.688 348.653 385.097 348.705 384.767 348.511C380.688 346.19 378.635 345.034 374.556 342.714C374.231 342.533 374.292 342.179 374.696 341.937C379.773 338.907 382.311 337.392 387.388 334.361C387.792 334.119 388.383 334.067 388.713 334.262C392.822 336.539 394.875 337.694 398.984 339.972C399.308 340.154 399.248 340.506 398.843 340.749Z" stroke="#0075FF" stroke-width="1.5" stroke-miterlimit="10"/>
<path d="M416.593 330.089C411.5 333.157 408.948 334.677 403.841 337.751C403.437 337.994 402.833 338.051 402.509 337.869C398.4 335.592 396.339 334.456 392.216 332.184C391.892 332.002 391.958 331.663 392.362 331.421C397.439 328.39 399.978 326.875 405.055 323.845C405.458 323.603 406.049 323.551 406.387 323.726C410.525 325.961 412.6 327.092 416.738 329.326C417.063 329.507 417.01 329.841 416.593 330.089Z" stroke="#0075FF" stroke-width="1.5" stroke-miterlimit="10"/>
<path d="M434.34 319.429C429.247 322.497 426.695 324.018 421.588 327.091C421.185 327.333 420.58 327.391 420.256 327.21C416.104 324.981 414.035 323.864 409.897 321.629C409.572 321.448 409.625 321.114 410.029 320.872C415.106 317.841 417.644 316.326 422.721 313.296C423.126 313.054 423.729 312.996 424.054 313.178C428.228 315.382 430.318 316.475 434.486 318.665C434.824 318.842 434.758 319.182 434.354 319.424L434.34 319.429Z" stroke="#0075FF" stroke-width="1.5" stroke-miterlimit="10"/>
<path d="M411.475 316.778C406.411 319.803 403.872 321.318 398.803 324.329C398.399 324.572 397.808 324.624 397.471 324.448C393.34 322.195 391.271 321.078 387.141 318.824C386.817 318.643 386.869 318.309 387.273 318.067C392.321 315.08 394.838 313.588 399.885 310.602C400.289 310.36 400.88 310.308 401.218 310.483C405.377 312.694 407.447 313.81 411.612 316.034C411.95 316.21 411.884 316.55 411.48 316.792L411.475 316.778Z" stroke="#0075FF" stroke-width="1.5" stroke-miterlimit="10"/>
<path d="M393.823 327.29C388.759 330.315 386.221 331.829 381.152 334.841C380.748 335.083 380.157 335.135 379.827 334.94C375.726 332.644 373.679 331.503 369.578 329.206C369.253 329.025 369.319 328.685 369.71 328.448C374.757 325.461 377.274 323.97 382.322 320.984C382.726 320.741 383.322 320.702 383.647 320.884C387.764 323.142 389.838 324.273 393.955 326.532C394.28 326.713 394.227 327.048 393.823 327.29Z" stroke="#0075FF" stroke-width="1.5" stroke-miterlimit="10"/>
<path d="M376.177 337.814C371.114 340.839 368.575 342.354 363.506 345.366C363.102 345.608 362.506 345.646 362.181 345.465C358.11 343.125 356.084 341.959 352.013 339.62C351.688 339.438 351.749 339.085 352.152 338.843C357.2 335.856 359.717 334.365 364.765 331.378C365.169 331.136 365.765 331.097 366.089 331.279C370.177 333.581 372.23 334.736 376.317 337.038C376.642 337.219 376.581 337.572 376.177 337.814Z" stroke="#0075FF" stroke-width="1.5" stroke-miterlimit="10"/>
<path d="M358.544 348.333C353.481 351.358 350.942 352.873 345.872 355.885C345.469 356.127 344.873 356.165 344.561 355.979C340.52 353.596 338.502 352.411 334.46 350.028C334.13 349.833 334.196 349.493 334.6 349.251C339.647 346.264 342.165 344.773 347.212 341.786C347.616 341.544 348.212 341.506 348.524 341.692C352.581 344.037 354.613 345.217 358.684 347.557C359.009 347.738 358.948 348.091 358.544 348.333Z" stroke="#0075FF" stroke-width="1.5" stroke-miterlimit="10"/>
<path d="M340.934 358.829C335.87 361.854 333.331 363.369 328.262 366.381C327.858 366.623 327.262 366.661 326.951 366.474C322.939 364.048 320.941 362.839 316.93 360.413C316.613 360.212 316.679 359.873 317.083 359.63C322.131 356.643 324.648 355.153 329.696 352.165C330.099 351.923 330.682 351.891 331.007 352.072C335.035 354.46 337.058 355.658 341.087 358.047C341.417 358.241 341.337 358.587 340.934 358.829Z" stroke="#0075FF" stroke-width="1.5" stroke-miterlimit="10"/>
<path d="M323.3 369.348C318.237 372.373 315.698 373.888 310.629 376.899C310.225 377.141 309.642 377.174 309.325 376.974C305.343 374.505 303.355 373.276 299.391 370.815C299.074 370.615 299.135 370.261 299.544 370.033C304.592 367.045 307.109 365.555 312.157 362.568C312.56 362.326 313.143 362.293 313.46 362.493C317.458 364.924 319.455 366.134 323.454 368.566C323.77 368.766 323.704 369.106 323.3 369.348Z" stroke="#0075FF" stroke-width="1.5" stroke-miterlimit="10"/>
<path d="M305.662 379.854C300.599 382.878 298.06 384.394 292.991 387.405C292.587 387.647 292.004 387.68 291.687 387.48C287.74 384.98 285.767 383.715 281.819 381.215C281.503 381.015 281.577 380.656 281.981 380.414C287.028 377.427 289.546 375.936 294.593 372.949C294.997 372.707 295.58 372.674 295.896 372.875C299.866 375.35 301.854 376.577 305.823 379.052C306.14 379.253 306.066 379.612 305.662 379.854Z" stroke="#0075FF" stroke-width="1.5" stroke-miterlimit="10"/>
<path d="M288.056 390.362C282.993 393.387 280.454 394.903 275.385 397.914C274.981 398.156 274.398 398.189 274.082 397.988C270.164 395.446 268.212 394.155 264.294 391.613C263.978 391.413 264.065 391.049 264.455 390.812C269.503 387.825 272.02 386.334 277.067 383.347C277.472 383.105 278.054 383.072 278.371 383.272C282.311 385.79 284.278 387.043 288.218 389.561C288.534 389.761 288.447 390.126 288.056 390.362Z" stroke="#0075FF" stroke-width="1.5" stroke-miterlimit="10"/>
<path d="M270.403 400.873C265.339 403.898 262.801 405.413 257.732 408.425C257.328 408.667 256.745 408.7 256.437 408.48C252.548 405.895 250.61 404.599 246.729 401.995C246.426 401.789 246.5 401.43 246.904 401.188C251.952 398.2 254.469 396.71 259.517 393.723C259.92 393.481 260.504 393.448 260.812 393.667C264.722 396.229 266.668 397.505 270.578 400.067C270.894 400.267 270.807 400.631 270.403 400.873Z" stroke="#0075FF" stroke-width="1.5" stroke-miterlimit="10"/>
<path d="M252.757 411.398C247.694 414.423 245.155 415.938 240.086 418.95C239.683 419.192 239.1 419.225 238.791 419.006C234.945 416.371 233.015 415.057 229.157 412.427C228.853 412.221 228.922 411.85 229.331 411.621C234.379 408.634 236.896 407.143 241.944 404.156C242.348 403.914 242.922 403.9 243.239 404.1C247.12 406.704 249.057 408.001 252.938 410.605C253.241 410.811 253.173 411.183 252.763 411.412L252.757 411.398Z" stroke="#0075FF" stroke-width="1.5" stroke-miterlimit="10"/>
<path d="M235.125 421.917C230.061 424.943 227.522 426.458 222.453 429.469C222.049 429.711 221.474 429.725 221.172 429.519C217.355 426.841 215.434 425.508 211.617 422.83C211.309 422.611 211.383 422.252 211.786 422.01C216.834 419.023 219.351 417.532 224.399 414.545C224.803 414.303 225.377 414.289 225.68 414.495C229.532 417.142 231.448 418.463 235.294 421.097C235.597 421.303 235.528 421.675 235.125 421.917Z" stroke="#0075FF" stroke-width="1.5" stroke-miterlimit="10"/>
<path d="M217.486 432.423C212.423 435.448 209.885 436.963 204.815 439.975C204.412 440.217 203.837 440.231 203.533 440.025C199.747 437.304 197.847 435.946 194.06 433.225C193.752 433.006 193.839 432.642 194.243 432.399C199.291 429.412 201.808 427.922 206.855 424.934C207.259 424.692 207.834 424.678 208.137 424.884C211.954 427.562 213.867 428.914 217.669 431.598C217.978 431.817 217.904 432.175 217.486 432.423Z" stroke="#0075FF" stroke-width="1.5" stroke-miterlimit="10"/>
<path d="M199.854 442.943C194.79 445.968 192.251 447.483 187.182 450.494C186.778 450.736 186.203 450.75 185.908 450.526C182.151 447.761 180.272 446.379 176.502 443.62C176.207 443.395 176.281 443.036 176.685 442.794C181.733 439.808 184.249 438.316 189.297 435.329C189.701 435.087 190.275 435.073 190.571 435.298C194.358 438.019 196.25 439.396 200.036 442.117C200.345 442.336 200.257 442.701 199.854 442.943Z" stroke="#0075FF" stroke-width="1.5" stroke-miterlimit="10"/>
<path d="M456.691 305.994C449.729 310.181 446.26 312.261 439.298 316.447C438.894 316.689 438.29 316.747 437.952 316.571C433.771 314.385 431.693 313.287 427.513 311.102C427.174 310.926 427.24 310.586 427.644 310.344C434.563 306.207 438.025 304.145 444.957 300.002C445.36 299.76 445.965 299.702 446.303 299.878C450.513 302.02 452.612 303.094 456.823 305.236C457.161 305.412 457.108 305.746 456.691 305.994Z" stroke="#0075FF" stroke-width="1.5" stroke-miterlimit="10"/>
<path d="M221.418 447.373C212.951 452.451 208.728 454.995 200.267 460.086C199.863 460.329 199.288 460.343 198.985 460.137C195.228 457.372 193.35 455.99 189.579 453.231C189.284 453.006 189.366 452.629 189.77 452.387C198.193 447.357 202.401 444.852 210.811 439.828C211.214 439.585 211.789 439.571 212.092 439.777C215.887 442.479 217.787 443.837 221.587 446.553C221.896 446.772 221.809 447.136 221.391 447.384L221.418 447.373Z" stroke="#0075FF" stroke-width="1.5" stroke-miterlimit="10"/>
<path d="M239.31 453.966C228.935 460.258 223.745 463.396 213.365 469.674C212.948 469.921 212.378 469.949 212.083 469.724C208.326 466.96 206.447 465.578 202.677 462.818C202.382 462.594 202.464 462.216 202.867 461.974C213.197 455.764 218.365 452.649 228.689 446.426C229.093 446.184 229.676 446.151 229.984 446.37C233.793 449.067 235.687 450.412 239.496 453.109C239.804 453.328 239.716 453.692 239.304 453.953L239.31 453.966Z" stroke="#0075FF" stroke-width="1.5" stroke-miterlimit="10"/>
<path d="M293.375 455.792C288.175 458.982 285.59 460.578 280.39 463.768C279.978 464.029 279.395 464.062 279.086 463.843C275.257 461.17 273.341 459.85 269.511 457.178C269.202 456.958 269.29 456.595 269.702 456.333C274.868 453.173 277.458 451.591 282.629 448.444C283.046 448.196 283.628 448.163 283.932 448.369C287.791 450.998 289.707 452.318 293.566 454.947C293.869 455.153 293.787 455.531 293.375 455.792Z" stroke="#0075FF" stroke-width="1.5" stroke-miterlimit="10"/>
<path d="M275.306 466.896C270.106 470.086 267.521 471.682 262.321 474.872C261.909 475.133 261.32 475.153 261.018 474.947C257.223 472.245 255.323 470.887 251.523 468.171C251.214 467.952 251.31 467.568 251.727 467.321C256.893 464.161 259.482 462.578 264.653 459.431C265.071 459.184 265.653 459.151 265.956 459.356C269.786 462.029 271.694 463.368 275.511 466.046C275.819 466.265 275.724 466.648 275.306 466.896Z" stroke="#0075FF" stroke-width="1.5" stroke-miterlimit="10"/>
<path d="M257.235 477.999C250.155 482.358 246.613 484.531 239.527 488.877C239.116 489.138 238.528 489.158 238.233 488.933C234.475 486.168 232.597 484.787 228.826 482.027C228.531 481.803 228.613 481.425 229.03 481.178C236.086 476.875 239.601 474.713 246.656 470.41C247.074 470.163 247.657 470.129 247.952 470.355C251.739 473.075 253.639 474.434 257.439 477.149C257.747 477.368 257.652 477.752 257.235 477.999Z" stroke="#0075FF" stroke-width="1.5" stroke-miterlimit="10"/>
<path d="M311.446 444.688C306.246 447.878 303.662 449.475 298.461 452.665C298.049 452.926 297.466 452.959 297.144 452.745C293.285 450.115 291.361 448.815 287.488 446.191C287.185 445.985 287.254 445.613 287.679 445.346C292.845 442.186 295.434 440.603 300.606 437.456C301.023 437.209 301.6 437.163 301.922 437.376C305.811 439.962 307.748 441.258 311.637 443.844C311.94 444.05 311.871 444.422 311.446 444.688Z" stroke="#0075FF" stroke-width="1.5" stroke-miterlimit="10"/>
<path d="M401.751 389.173C373.333 406.635 344.934 424.104 316.516 441.566C316.104 441.828 315.508 441.866 315.205 441.66C311.316 439.074 309.365 437.784 305.482 435.212C305.179 435.006 305.248 434.634 305.665 434.386C333.938 417.108 362.211 399.83 390.496 382.547C390.914 382.299 391.505 382.248 391.829 382.429C395.871 384.812 397.889 385.996 401.925 388.366C402.25 388.547 402.182 388.92 401.764 389.167L401.751 389.173Z" stroke="#0075FF" stroke-width="1.5" stroke-miterlimit="10"/>
<path d="M262.03 457.569C250.186 464.801 238.336 472.019 226.478 479.256C226.061 479.503 225.492 479.531 225.183 479.311C221.426 476.547 219.547 475.165 215.776 472.406C215.481 472.181 215.564 471.803 215.981 471.556C227.78 464.405 239.565 457.26 251.358 450.096C251.775 449.849 252.345 449.821 252.654 450.041C256.483 452.713 258.391 454.051 262.208 456.73C262.516 456.949 262.428 457.313 262.017 457.574L262.03 457.569Z" stroke="#0075FF" stroke-width="1.5" stroke-miterlimit="10"/>
<path d="M419.857 378.039C414.656 381.229 412.073 382.825 406.872 386.015C406.46 386.276 405.851 386.32 405.539 386.133C401.49 383.769 399.471 382.584 395.422 380.22C395.097 380.039 395.171 379.68 395.583 379.419C400.748 376.259 403.339 374.676 408.509 371.53C408.927 371.282 409.517 371.23 409.842 371.411C413.913 373.751 415.953 374.911 420.024 377.251C420.349 377.432 420.275 377.791 419.863 378.052L419.857 378.039Z" stroke="#0075FF" stroke-width="1.5" stroke-miterlimit="10"/>
<path d="M437.927 366.935C432.727 370.125 430.143 371.722 424.942 374.911C424.53 375.172 423.926 375.23 423.596 375.035C419.516 372.714 417.477 371.554 413.406 369.214C413.082 369.033 413.156 368.674 413.567 368.413C418.733 365.253 421.323 363.67 426.494 360.523C426.911 360.276 427.515 360.218 427.839 360.4C431.94 362.696 433.988 363.837 438.102 366.128C438.427 366.31 438.353 366.668 437.941 366.93L437.927 366.935Z" stroke="#0075FF" stroke-width="1.5" stroke-miterlimit="10"/>
<path d="M458.808 354.096C452.49 357.975 449.33 359.93 443.012 363.808C442.6 364.069 441.996 364.126 441.671 363.945C437.562 361.667 435.51 360.513 431.4 358.235C431.076 358.054 431.136 357.7 431.553 357.453C437.837 353.605 440.994 351.681 447.283 347.847C447.7 347.599 448.299 347.529 448.623 347.71C452.767 349.958 454.836 351.075 458.961 353.314C459.286 353.496 459.225 353.849 458.808 354.096Z" stroke="#0075FF" stroke-width="1.5" stroke-miterlimit="10"/>
<path d="M473.522 337.968C467.212 341.827 464.06 343.764 457.742 347.642C457.325 347.889 456.726 347.96 456.402 347.779C454.733 346.875 453.889 346.419 452.207 345.521C451.882 345.339 451.943 344.986 452.36 344.738C458.656 340.885 461.8 338.968 468.096 335.114C468.514 334.867 469.112 334.795 469.451 334.971C471.141 335.851 471.985 336.307 473.675 337.186C474.014 337.362 473.947 337.702 473.535 337.963L473.522 337.968Z" stroke="#0075FF" stroke-width="1.5" stroke-miterlimit="10"/>
<path d="M479.729 341.241C473.398 345.125 470.239 347.08 463.908 350.964C463.496 351.224 462.891 351.282 462.553 351.106C460.884 350.202 460.041 349.746 458.358 348.848C458.034 348.667 458.094 348.313 458.511 348.066C464.829 344.187 467.987 342.265 474.291 338.392C474.708 338.145 475.307 338.074 475.645 338.25C477.336 339.129 478.18 339.585 479.87 340.464C480.208 340.641 480.128 340.986 479.716 341.246L479.729 341.241Z" stroke="#0075FF" stroke-width="1.5" stroke-miterlimit="10"/>
<path d="M500.623 328.397C494.306 332.276 491.145 334.231 484.827 338.108C484.416 338.37 483.811 338.427 483.474 338.251C479.292 336.066 477.202 334.973 473.02 332.787C472.682 332.612 472.749 332.272 473.16 332.011C479.443 328.162 482.601 326.24 488.889 322.405C489.306 322.157 489.905 322.087 490.243 322.263C494.454 324.404 496.552 325.479 500.763 327.621C501.101 327.796 501.035 328.136 500.623 328.397Z" stroke="#0075FF" stroke-width="1.5" stroke-miterlimit="10"/>
<path d="M485.987 320.937C472.87 328.935 459.758 336.948 446.64 344.946C446.222 345.194 445.624 345.265 445.299 345.083C441.161 342.848 439.087 341.718 434.948 339.484C434.623 339.303 434.69 338.963 435.088 338.707C448.147 330.795 461.186 322.875 474.245 314.963C474.662 314.716 475.261 314.644 475.599 314.821C479.81 316.963 481.908 318.037 486.119 320.179C486.457 320.354 486.392 320.695 485.974 320.942L485.987 320.937Z" stroke="#0075FF" stroke-width="1.5" stroke-miterlimit="10"/>
<path d="M457.463 306.353C450.475 310.55 446.983 312.656 439.994 316.853C439.605 317.09 439.546 317.41 439.865 317.579C440.498 317.901 440.817 318.069 441.442 318.41C436.486 321.391 434.002 322.884 429.045 325.866C428.655 326.102 428.597 326.423 428.916 326.591C433.1 328.822 435.188 329.947 439.359 332.184C439.678 332.352 440.25 332.292 440.627 332.061C450.864 325.857 461.115 319.648 471.358 313.457C471.749 313.22 471.806 312.9 471.487 312.732C470.616 312.287 470.184 312.071 469.313 311.626C465.949 309.907 464.27 309.055 460.892 307.341C460.021 306.897 459.588 306.681 458.717 306.235C458.398 306.068 457.826 306.128 457.436 306.364L457.463 306.353Z" stroke="#0075FF" stroke-width="1.5" stroke-miterlimit="10"/>
<path d="M210.665 419.241C205.63 422.223 203.113 423.714 198.074 426.682C197.67 426.924 197.095 426.938 196.787 426.719C194.602 425.163 193.498 424.374 191.3 422.825C190.991 422.605 191.066 422.247 191.47 422.004C196.496 419.041 199.005 417.57 204.031 414.607C204.435 414.365 205.01 414.351 205.318 414.57C207.529 416.115 208.623 416.876 210.834 418.421C211.142 418.64 211.068 418.999 210.665 419.241Z" stroke="#0075FF" stroke-width="1.5" stroke-miterlimit="10"/>
<path d="M228.201 408.87C223.166 411.852 220.649 413.343 215.61 416.311C215.206 416.554 214.631 416.567 214.328 416.361C212.122 414.83 211.01 414.061 208.804 412.53C208.496 412.31 208.57 411.951 208.979 411.723C214.005 408.76 216.514 407.288 221.54 404.326C221.945 404.083 222.519 404.07 222.822 404.275C225.05 405.782 226.161 406.551 228.389 408.059C228.692 408.264 228.624 408.636 228.214 408.865L228.201 408.87Z" stroke="#0075FF" stroke-width="1.5" stroke-miterlimit="10"/>
<path d="M245.722 398.505C240.688 401.487 238.171 402.978 233.131 405.946C232.727 406.188 232.152 406.202 231.849 405.997C229.622 404.49 228.515 403.734 226.283 402.213C225.98 402.007 226.054 401.649 226.457 401.407C231.484 398.444 233.993 396.972 239.019 394.009C239.423 393.767 239.997 393.753 240.314 393.953C242.549 395.441 243.683 396.186 245.919 397.675C246.222 397.88 246.147 398.239 245.757 398.475L245.722 398.505Z" stroke="#0075FF" stroke-width="1.5" stroke-miterlimit="10"/>
<path d="M263.246 388.141C258.212 391.122 255.695 392.614 250.655 395.582C250.251 395.824 249.677 395.837 249.36 395.637C247.111 394.155 245.991 393.404 243.742 391.922C243.426 391.721 243.513 391.357 243.903 391.12C248.93 388.158 251.439 386.686 256.465 383.723C256.868 383.481 257.443 383.467 257.76 383.668C260.017 385.131 261.145 385.863 263.407 387.34C263.724 387.54 263.636 387.905 263.246 388.141Z" stroke="#0075FF" stroke-width="1.5" stroke-miterlimit="10"/>
<path d="M280.783 377.771C275.748 380.752 273.232 382.243 268.192 385.211C267.788 385.453 267.205 385.486 266.902 385.281C264.632 383.823 263.504 383.091 261.247 381.627C260.93 381.427 261.004 381.068 261.408 380.826C266.434 377.863 268.943 376.391 273.969 373.428C274.373 373.186 274.943 373.159 275.259 373.359C277.537 374.799 278.68 375.525 280.957 376.964C281.274 377.164 281.2 377.523 280.796 377.765L280.783 377.771Z" stroke="#0075FF" stroke-width="1.5" stroke-miterlimit="10"/>
<path d="M298.305 367.405C293.271 370.386 290.754 371.877 285.714 374.845C285.31 375.087 284.727 375.12 284.41 374.92C282.132 373.481 280.996 372.768 278.704 371.334C278.388 371.134 278.462 370.775 278.858 370.552C283.883 367.589 286.393 366.117 291.419 363.154C291.823 362.912 292.405 362.88 292.722 363.08C295.022 364.495 296.172 365.202 298.458 366.623C298.775 366.823 298.709 367.163 298.305 367.405Z" stroke="#0075FF" stroke-width="1.5" stroke-miterlimit="10"/>
<path d="M315.84 357.034C310.806 360.016 308.289 361.507 303.249 364.476C302.845 364.718 302.263 364.751 301.946 364.55C299.647 363.135 298.497 362.428 296.196 361.013C295.88 360.812 295.946 360.473 296.35 360.231C301.377 357.268 303.885 355.796 308.912 352.833C309.315 352.591 309.898 352.558 310.215 352.759C312.523 354.154 313.68 354.843 316.002 356.234C316.318 356.434 316.252 356.774 315.848 357.016L315.84 357.034Z" stroke="#0075FF" stroke-width="1.5" stroke-miterlimit="10"/>
<path d="M333.364 346.67C328.33 349.651 325.813 351.142 320.773 354.11C320.369 354.352 319.786 354.385 319.456 354.19C317.135 352.8 315.977 352.112 313.656 350.721C313.339 350.521 313.406 350.181 313.796 349.945C318.821 346.981 321.331 345.51 326.357 342.547C326.761 342.305 327.344 342.272 327.674 342.466C330.003 343.838 331.175 344.521 333.504 345.893C333.828 346.074 333.768 346.427 333.364 346.67Z" stroke="#0075FF" stroke-width="1.5" stroke-miterlimit="10"/>
<path d="M350.9 336.298C345.866 339.28 343.349 340.771 338.309 343.74C337.906 343.981 337.323 344.014 336.998 343.833C334.656 342.467 333.503 341.792 331.16 340.426C330.835 340.244 330.897 339.891 331.3 339.649C336.326 336.686 338.835 335.215 343.862 332.252C344.265 332.01 344.848 331.976 345.173 332.158C347.524 333.505 348.703 334.169 351.053 335.516C351.378 335.698 351.317 336.051 350.908 336.28L350.9 336.298Z" stroke="#0075FF" stroke-width="1.5" stroke-miterlimit="10"/>
<path d="M368.423 325.933C363.389 328.915 360.872 330.406 355.832 333.374C355.428 333.616 354.832 333.654 354.507 333.473C352.157 332.126 350.977 331.461 348.632 330.128C348.307 329.947 348.368 329.593 348.764 329.37C353.79 326.407 356.299 324.936 361.325 321.973C361.729 321.73 362.312 321.697 362.65 321.874C365.022 323.197 366.196 323.847 368.568 325.17C368.893 325.352 368.84 325.686 368.437 325.928L368.423 325.933Z" stroke="#0075FF" stroke-width="1.5" stroke-miterlimit="10"/>
<path d="M385.96 315.563C380.926 318.544 378.409 320.035 373.369 323.003C372.966 323.245 372.369 323.284 372.045 323.103C369.678 321.793 368.485 321.134 366.113 319.812C365.788 319.63 365.841 319.295 366.244 319.053C371.271 316.091 373.78 314.619 378.806 311.656C379.21 311.414 379.806 311.376 380.131 311.557C382.524 312.856 383.712 313.501 386.086 314.791C386.411 314.973 386.359 315.307 385.955 315.549L385.96 315.563Z" stroke="#0075FF" stroke-width="1.5" stroke-miterlimit="10"/>
<path d="M403.488 305.212C398.454 308.193 395.937 309.684 390.897 312.653C390.494 312.895 389.897 312.933 389.573 312.752C387.184 311.467 385.997 310.822 383.603 309.523C383.279 309.342 383.331 309.007 383.735 308.765C388.761 305.802 391.27 304.33 396.296 301.368C396.7 301.125 397.296 301.087 397.629 301.25C400.025 302.515 401.24 303.15 403.641 304.43C403.98 304.606 403.914 304.945 403.523 305.182L403.488 305.212Z" stroke="#0075FF" stroke-width="1.5" stroke-miterlimit="10"/>
<path d="M427.399 291.065C419.807 295.554 416.011 297.798 408.42 302.288C408.016 302.53 407.425 302.581 407.087 302.405C404.677 301.144 403.476 300.505 401.067 299.245C400.728 299.069 400.781 298.734 401.19 298.506C408.761 294.041 412.549 291.816 420.119 287.351C420.522 287.109 421.113 287.057 421.452 287.233C423.883 288.47 425.091 289.09 427.523 290.326C427.861 290.502 427.803 290.823 427.399 291.065Z" stroke="#0075FF" stroke-width="1.5" stroke-miterlimit="10"/>
<path d="M193.114 429.617C185.508 434.111 181.699 436.362 174.099 440.87C173.695 441.112 173.134 441.12 172.826 440.901C170.657 439.308 169.567 438.514 167.398 436.92C167.103 436.695 167.177 436.337 167.581 436.094C175.165 431.625 178.953 429.399 186.537 424.929C186.94 424.687 187.501 424.678 187.81 424.898C190 426.467 191.098 427.242 193.288 428.811C193.597 429.03 193.523 429.389 193.106 429.636L193.114 429.617Z" stroke="#0075FF" stroke-width="1.5" stroke-miterlimit="10"/>
<path d="M442.054 298.534C431.797 304.651 426.666 307.704 416.423 313.816C416.019 314.058 415.428 314.11 415.09 313.934C410.93 311.725 408.847 310.613 404.688 308.403C404.35 308.227 404.416 307.887 404.819 307.645C415.026 301.595 420.121 298.572 430.333 292.535C430.736 292.293 431.327 292.242 431.666 292.418C435.876 294.56 437.975 295.634 442.186 297.776C442.523 297.952 442.471 298.286 442.067 298.528L442.054 298.534Z" stroke="#0075FF" stroke-width="1.5" stroke-miterlimit="10"/>
<path d="M405.771 273.716L393.653 280.777C393.297 280.983 393.316 281.492 393.66 281.682L401.024 285.644C401.13 285.71 401.139 285.848 401.028 285.924L165.705 423.504C165.39 423.694 164.988 423.669 164.685 423.464L157.949 418.809C157.597 418.56 157.122 418.549 156.753 418.762L144.075 426.143C142.059 427.321 141.884 430.178 143.769 431.574L295.893 544.977C299.396 547.579 304.141 547.751 307.822 545.38L417.478 474.72C417.862 474.47 418.286 474.314 418.739 474.271C419.192 474.228 419.793 474.125 420.445 473.798L484.121 432.765C484.347 432.627 485.037 431.736 485.48 431.165C485.748 430.822 486.065 430.521 486.437 430.276L585.958 366.153C588.012 364.835 587.848 361.802 585.679 360.709L411.898 273.546C409.968 272.577 407.674 272.646 405.795 273.737L405.771 273.716Z" stroke="#0075FF" stroke-width="1.5" stroke-miterlimit="10"/>
<path d="M484.719 430.879L483.94 431.085C483.474 431.212 483.021 431.411 482.61 431.672L429.998 465.368" stroke="#0075FF" stroke-width="1.5" stroke-miterlimit="10"/>
<path d="M427.524 466.966L421.646 470.728" stroke="#0075FF" stroke-width="1.5" stroke-miterlimit="10"/>
<path d="M418.178 474.358L418.857 473.206" stroke="#0075FF" stroke-width="1.5" stroke-miterlimit="10"/>
</svg>
