<svg width="560" height="599" viewBox="0 0 560 599" fill="none" xmlns="http://www.w3.org/2000/svg">
<path d="M531.463 221.364L532.699 220.163L533.169 219.635L533.858 218.928L536.579 215.667L537.72 213.96L537.737 213.922L537.754 213.884L538.442 212.667L538.689 212.223L539.466 210.399L540.051 208.489L544.706 192.641L545.085 190.776L545.237 188.902L545.162 187.018L544.86 185.125L544.369 183.239L543.652 181.343L542.729 179.494L541.6 177.69L540.303 175.95L538.839 174.273L537.247 172.677L535.486 171.144L533.636 169.709L531.712 168.334L529.715 167.018L525.631 164.485L521.473 162.011L513.217 157.136L426.144 105.892L421.563 103.227L417.136 100.632L417.021 100.58L413.388 98.4815L410.903 97.2232L409.592 96.5402L407.298 95.3685L405.414 94.5199L403.457 93.7309L401.448 93.0572L399.31 92.4642L397.12 91.9864L394.878 91.624L392.622 91.3942L390.352 91.297L388.108 91.3498L385.905 91.5141L383.689 91.811L381.516 92.2194L379.384 92.7393L377.333 93.3881L375.363 94.1657L374.414 94.5247L372.448 95.3964L370.579 96.3586L368.788 97.3554L365.4 99.5297L362.132 101.85L359.93 103.448L335.772 121.196L99.3411 295.167L65.2264 320.317L62.0351 322.672L57.3809 326.218L52.8284 329.949L50.6973 331.903L48.6641 333.947L46.7848 336.061L44.9861 338.303L43.397 340.593L42.0002 342.971L40.8129 345.396L39.8353 347.869L39.0845 350.352L38.5992 352.863L38.3582 355.344L38.3614 357.797L38.609 360.221L39.0797 362.56L39.7947 364.871L40.0442 365.446L40.234 365.948L40.4835 366.523L40.7118 367.042L40.9575 367.522L46.7762 379.948L47.8472 382.188L48.1313 382.686L48.377 383.167L48.7802 383.811L49.0855 384.365L52.0394 388.378L55.3628 392.187L58.8536 395.933L65.9853 403.401L106.003 445.429L149.014 490.563L157.367 499.321L161.621 503.735L166.059 508.046L170.825 512.043L173.406 513.807L176.151 515.413L179.039 516.806L179.671 517.045L180.325 517.339L181.244 517.661L182.069 517.986L185.22 518.896L188.454 519.521L188.947 519.558L189.46 519.65L190.672 519.733L191.733 519.841L195.134 519.893L198.523 519.662L201.939 519.166L205.288 518.408L208.626 517.368L211.842 516.087L214.99 514.545L215.746 514.099L217.851 512.92L217.924 512.861L217.998 512.801L218.991 512.138L220.629 511.072L220.775 510.953L220.904 510.873L226.38 506.633L227.547 505.586L228.424 504.871L230.392 503.075L231.524 502.105L233.272 500.487L236.531 497.469L270.895 465.309L504.289 246.818L527.64 224.914L529.732 222.943L530.861 221.879L531.463 221.364Z" stroke="#0075FF" stroke-miterlimit="10"/>
<path d="M531.463 221.364L532.699 220.163L533.169 219.635L533.858 218.928L536.579 215.667L537.72 213.96L537.737 213.922L537.754 213.884L538.442 212.667L538.689 212.223L539.466 210.399L540.051 208.489L544.706 192.641L545.085 190.776L545.237 188.902L545.162 187.018L544.86 185.125L544.369 183.239L543.652 181.343L542.729 179.494L541.6 177.69L540.303 175.95L538.839 174.273L537.247 172.677L535.486 171.144L533.636 169.709L531.712 168.334L529.715 167.018L525.631 164.485L521.473 162.011L513.217 157.136L426.144 105.892L421.563 103.227L417.136 100.632L417.021 100.58L413.388 98.4815L410.903 97.2232L409.592 96.5402L407.298 95.3685L405.414 94.5199L403.457 93.7309L401.448 93.0572L399.31 92.4642L397.12 91.9864L394.878 91.624L392.622 91.3942L390.352 91.297L388.108 91.3498L385.905 91.5141L383.689 91.811L381.516 92.2194L379.384 92.7393L377.333 93.3881L375.363 94.1657L374.414 94.5247L372.448 95.3964L370.579 96.3586L368.788 97.3554L365.4 99.5297L362.132 101.85L359.93 103.448L335.772 121.196L99.3411 295.167L65.2264 320.317L62.0351 322.672L57.3809 326.218L52.8284 329.949L50.6973 331.903L48.6641 333.947L46.7848 336.061L44.9861 338.303L43.397 340.593L42.0002 342.971L40.8129 345.396L39.8353 347.869L39.0845 350.352L38.5992 352.863L38.3582 355.344L38.3614 357.797L38.609 360.221L39.0797 362.56L39.7947 364.871L40.0442 365.446L40.234 365.948L40.4835 366.523L40.7118 367.042L40.9575 367.522L46.7762 379.948L47.8472 382.188L48.1313 382.686L48.377 383.167L48.7802 383.811L49.0855 384.365L52.0394 388.378L55.3628 392.187L58.8536 395.933L65.9853 403.401L106.003 445.429L149.014 490.563L157.367 499.321L161.621 503.735L166.059 508.046L170.825 512.043L173.406 513.807L176.151 515.413L179.039 516.806L179.671 517.045L180.325 517.339L181.244 517.661L182.069 517.986L185.22 518.896L188.454 519.521L188.947 519.558L189.46 519.65L190.672 519.733L191.733 519.841L195.134 519.893L198.523 519.662L201.939 519.166L205.288 518.408L208.626 517.368L211.842 516.087L214.99 514.545L215.746 514.099L217.851 512.92L217.924 512.861L217.998 512.801L218.991 512.138L220.629 511.072L220.775 510.953L220.904 510.873L226.38 506.633L227.547 505.586L228.424 504.871L230.392 503.075L231.524 502.105L233.272 500.487L236.531 497.469L270.895 465.309L504.289 246.818L527.64 224.914L529.732 222.943L530.861 221.879L531.463 221.364Z" stroke="#0075FF" stroke-miterlimit="10"/>
<path d="M531.871 220.414L420.377 324.903L270.541 465.295L236.2 497.451L232.943 500.469L231.196 502.087L230.121 503.036L228.736 504.261L227.26 505.585L226.095 506.632L220.64 510.833L218.728 512.099L217.736 512.762L217.663 512.821L216.611 513.411L215.486 514.06L215.34 514.179L214.769 514.523L211.696 516.006L208.54 517.266L208.428 517.308L205.299 518.303L205.132 518.366L201.768 519.163L198.393 519.677L195.007 519.909L191.628 519.82L189.678 519.636L188.806 519.52L188.314 519.484L185.083 518.861L181.935 517.951L181.111 517.626L179.54 517.011L178.908 516.773L176.024 515.382L173.282 513.777L170.704 512.014L165.944 508.021L161.55 503.73L157.302 499.32L148.959 490.569L106.005 445.467L66.0395 403.469L58.9344 395.969L58.3646 395.389L55.4309 392.264L52.1119 388.457L49.1621 384.447L47.9083 382.31L47.1056 380.608L41.7275 369.077L41.8502 369.317L42.2528 369.961L42.5576 370.514L42.736 370.733L43.1176 371.321L44.5348 373.301L45.4058 374.34L45.5458 374.542L45.7242 374.761L46.0426 375.182L48.0359 377.42L48.9242 378.422L49.1794 378.675L51.7984 381.473L51.8368 381.491L52.4489 382.182L52.6446 382.363L52.7635 382.509L59.7075 389.752L144.357 478.138L150.671 484.728L150.79 484.874L152.874 487.015L153.563 487.741L155.511 489.774L157.22 491.515L157.769 492.04L158.773 493.093L159.028 493.347L159.066 493.364L159.105 493.381C159.3 493.562 159.534 493.76 159.73 493.94L160.024 494.211L161.593 495.751C161.653 495.824 161.73 495.858 161.73 495.858L162.334 496.362L163.215 497.175L165.574 499.115L166.273 499.615M166.273 499.615L166.29 499.577M166.273 499.615L166.605 499.903L167.282 500.347L168.079 500.937L168.117 500.955C168.215 501.045 168.697 501.308 168.697 501.308L169.26 501.7L169.916 502.089C169.916 502.089 170.304 502.356 170.534 502.459L170.611 502.494L171.383 502.934L172.04 503.322L172.693 503.616L173.443 504.001L174.25 504.364L175.001 504.749L175.632 504.987L176.324 505.298L177.242 505.619L178.066 505.944L178.676 506.127L179.326 506.327L180.372 506.567L181.308 506.85L181.859 506.959C181.859 506.959 182.184 507.059 182.431 507.125L183.59 507.323L184.598 507.546L185.09 507.582L185.641 507.692L185.68 507.709C186.266 507.742 186.89 507.792 186.89 507.792L187.989 507.917L188.443 507.936L188.934 507.973L190.312 507.992L191.463 508.002L191.84 507.987C191.84 507.987 192.028 507.979 192.16 507.993L192.255 507.989C192.349 507.985 193.175 507.895 193.552 507.879C193.646 507.876 193.702 507.854 193.74 507.872L193.778 507.889L194.964 507.822L195.264 507.772L195.602 507.74L197.195 507.486L198.433 507.304C198.433 507.304 198.677 507.275 198.694 507.237L198.9 507.19L200.674 506.741L201.908 506.465L202.075 506.401L202.281 506.355L204.163 505.769L205.337 505.42L205.449 505.378L205.56 505.336L207.769 504.435L208.661 504.097L208.717 504.076L211.845 502.572L212.214 502.368L212.343 502.287L214.816 500.904L214.889 500.845L214.962 500.785L215.954 500.123L217.647 499.035L217.793 498.916L217.922 498.836L218.124 498.695L220.397 497.038L222.242 495.51L223.523 494.515L224.727 493.486L225.621 492.733L227.661 490.877L228.792 489.907L230.594 488.268L233.924 485.191L269.205 452.487L417.587 314.908L542.47 197.955M157.091 494.462L157.109 494.424L157.105 494.33L157.101 494.236L157.098 494.142L157.055 494.03L156.975 493.901L156.894 493.773L156.814 493.644L156.712 493.46L156.492 493.129L156.25 492.743L155.953 492.378L155.656 492.013L155.358 491.647L155.201 491.484L155.043 491.321L154.925 491.175L154.788 491.067L154.652 490.959L154.516 490.852L154.418 490.762L154.303 490.71L154.226 490.675L154.187 490.658L154.149 490.64L154.055 490.644L153.999 490.665L153.982 490.704L153.985 490.798L154.007 490.854L154.049 490.965L154.091 491.077L154.171 491.205L154.252 491.334L154.315 491.501L154.417 491.686L154.476 491.759L154.536 491.832L154.595 491.905L154.693 491.995L154.735 492.107L154.794 492.18L154.892 492.27L154.952 492.343L155.011 492.416L155.092 492.545L155.172 492.673L155.232 492.746L155.291 492.819L155.372 492.948L155.47 493.039L155.529 493.112L155.627 493.202L155.686 493.275L155.746 493.348L155.844 493.438L156.001 493.602L156.158 493.765L156.333 493.89L156.469 493.997L156.606 494.105L156.742 494.213L156.84 494.303L156.938 494.393L157.015 494.428L157.091 494.462ZM157.091 494.462L157.13 494.48L157.186 494.459L157.091 494.462ZM148.698 487.769L148.681 487.807L148.625 487.829L148.698 487.769ZM148.698 487.769L148.694 487.675L148.673 487.619L148.627 487.414L148.585 487.302L148.441 487.006L148.259 486.693L148.039 486.363L147.78 486.015L147.521 485.667L147.224 485.302L146.909 484.975L146.752 484.812L146.594 484.648L146.475 484.502L146.339 484.395L146.203 484.287L146.105 484.197L146.007 484.106L145.892 484.055L145.815 484.02L145.738 483.985L145.644 483.989L145.588 484.01L145.571 484.049L145.575 484.143L145.578 484.237L145.621 484.349L145.663 484.46L145.743 484.589L145.824 484.717L146.044 485.048L146.286 485.434L146.426 485.636L146.723 486.001L147.02 486.366L147.356 486.749L147.514 486.912L147.671 487.075L147.79 487.221L147.926 487.329L148.062 487.437L148.199 487.544L148.297 487.635L148.412 487.686L148.565 487.756L148.698 487.769ZM130.013 468.349L130.03 468.31M130.03 468.31L130.065 468.233L130.061 468.139L130.058 468.045L130.054 467.951L130.012 467.84L129.931 467.711L129.851 467.582L129.732 467.436L129.613 467.29L129.392 466.959L129.273 466.813L129.014 466.466L128.717 466.101L128.42 465.735L128.144 465.426L127.867 465.117L127.731 465.009L127.595 464.901L127.497 464.811L127.399 464.721L127.284 464.669L127.207 464.634L127.13 464.6L127.092 464.582L127.036 464.604L127.019 464.642L127.001 464.68L127.005 464.775L127.009 464.869L127.051 464.98L127.093 465.092L127.135 465.203L127.317 465.516L127.419 465.701L127.538 465.847L127.58 465.958L127.639 466.031L127.699 466.104L127.741 466.216L127.839 466.306L127.898 466.379L127.958 466.452L128.056 466.542L128.153 466.633L128.213 466.706L128.272 466.779L128.37 466.869L128.43 466.942L128.489 467.015L128.549 467.088L128.608 467.161L128.706 467.251L128.765 467.324L128.923 467.488L129.216 467.759L129.353 467.866L129.489 467.974L129.625 468.082L129.723 468.172L129.838 468.224L129.915 468.258L129.992 468.293L130.03 468.31ZM65.1636 400.393C65.1809 400.355 65.2193 400.372 65.1636 400.393ZM65.1636 400.393C65.1809 400.355 65.1809 400.355 65.1809 400.355L65.1982 400.316L65.1772 400.261L65.1351 400.149L65.114 400.093L65.0508 399.926L64.9703 399.797L64.9108 399.724L64.8513 399.651L64.8687 399.613L64.7882 399.484L64.7076 399.356L64.6061 399.171L64.4661 398.969L64.3471 398.823L64.3261 398.768C64.3261 398.768 64.2877 398.75 64.305 398.712L64.2245 398.583L64.165 398.51L64.0845 398.381L63.9866 398.291L63.7871 398.016L63.4898 397.651L63.4304 397.578C63.4304 397.578 63.3919 397.561 63.4093 397.522L63.3709 397.505L63.3114 397.432L63.0562 397.178L62.9583 397.088L62.8605 396.998L62.7626 396.907L62.6858 396.873L62.609 396.838L62.4938 396.786L62.3823 396.829L62.3649 396.867L62.3686 396.961L62.3897 397.017L62.4108 397.073L62.4529 397.184L62.495 397.295L62.5371 397.407L62.6982 397.664L62.8803 397.978L63.1008 398.308L63.3213 398.639L63.4787 398.802L63.5381 398.875L63.5976 398.948L63.6955 399.038L63.7549 399.111L63.8144 399.184L63.9123 399.275L64.0102 399.365L64.0696 399.438L64.1291 399.511L64.1885 399.584L64.248 399.657L64.3075 399.73L64.4054 399.82L64.4438 399.838L64.5416 399.928L64.58 399.945L64.6395 400.018L64.7374 400.109L64.8737 400.216L64.9331 400.289L64.9715 400.307L65.0099 400.324L65.0483 400.341L65.1251 400.376L65.1636 400.393ZM65.1636 400.393L65.202 400.41C65.1251 400.376 65.1252 400.376 65.1636 400.393ZM63.5084 396.688L63.5257 396.65C63.5257 396.65 63.5257 396.65 63.5431 396.612L63.5604 396.573L63.5394 396.518C63.501 396.5 63.5183 396.462 63.5183 396.462L63.4551 396.295L63.413 396.183C63.413 396.183 63.413 396.183 63.3746 396.166L63.3325 396.054L63.2519 395.926L63.2309 395.87L63.0909 395.668L63.0698 395.612L63.0277 395.501L62.8877 395.299L62.6672 394.969L62.5867 394.84L62.5061 394.711L62.3488 394.548L62.1493 394.273L61.8731 393.964L61.8136 393.891C61.8136 393.891 61.7752 393.873 61.7541 393.818L61.6563 393.727L61.401 393.474L61.3032 393.383L61.2053 393.293L61.0901 393.241L61.0306 393.168L60.9538 393.134L60.877 393.099C60.877 393.099 60.877 393.099 60.8386 393.082L60.7444 393.086L60.7271 393.124L60.7308 393.218L60.7345 393.312L60.7556 393.368L60.7977 393.479L60.8398 393.591L60.882 393.702L60.9625 393.831L61.1446 394.144L61.3267 394.457L61.4878 394.715L61.6488 394.972L61.9078 395.32L62.1667 395.668L62.443 395.977L62.6808 396.27L62.7403 396.343L62.7998 396.416L62.9955 396.596L63.0723 396.631L63.1107 396.648L63.1491 396.665L63.2086 396.738L63.247 396.756L63.2854 396.773L63.3622 396.808L63.4006 396.825L63.439 396.842L63.4774 396.859C63.4526 396.71 63.4527 396.71 63.5084 396.688ZM63.5084 396.688C63.47 396.671 63.47 396.671 63.5084 396.688ZM163.152 502.741L163.169 502.702L163.204 502.625L163.2 502.531L163.197 502.437L163.154 502.326L163.112 502.214L163.032 502.086L162.913 501.939L162.692 501.609L162.591 501.425L162.332 501.077L162.175 500.913L161.877 500.548L161.58 500.183L161.265 499.856L161.108 499.693L160.951 499.53L160.814 499.422L160.678 499.315L160.542 499.207L160.444 499.117L160.329 499.065L160.213 499.013L160.137 498.978L160.06 498.944L160.004 498.965L159.948 498.986L159.931 499.024L159.935 499.118L159.938 499.213L159.98 499.324L160.023 499.435L160.103 499.564L160.184 499.693L160.264 499.822L160.366 500.006L160.586 500.337L160.845 500.684L161.143 501.05L161.44 501.415L161.597 501.578L161.755 501.741L161.912 501.905L162.069 502.068L162.227 502.231L162.363 502.339L162.499 502.447L162.635 502.554L162.751 502.606L162.848 502.696L162.964 502.748L163.041 502.783L163.117 502.818L163.173 502.796L163.152 502.741ZM162.059 499.428L162.094 499.351L162.111 499.313L162.108 499.219L162.065 499.107L162.023 498.996L161.943 498.867L161.862 498.738L161.782 498.61L161.561 498.279L161.442 498.133L161.145 497.768L160.848 497.403L160.55 497.038L160.236 496.711L159.921 496.384L159.764 496.221L159.627 496.113L159.491 496.006L159.355 495.898L159.257 495.808L159.142 495.756L159.027 495.704L158.95 495.669L158.911 495.652L158.856 495.673L158.8 495.694L158.782 495.733L158.786 495.827L158.79 495.921L158.832 496.033L158.874 496.144L158.955 496.273L159.035 496.401L159.154 496.548L159.235 496.676L159.336 496.861L159.595 497.209L159.892 497.574L160.19 497.939L160.487 498.304L160.644 498.467L160.802 498.631L160.959 498.794L161.134 498.919L161.27 499.026L161.406 499.134L161.543 499.242L161.658 499.294L161.773 499.345L161.85 499.38L161.927 499.415L161.965 499.432L162.059 499.428ZM158.222 497.792L158.24 497.754L158.236 497.66L158.215 497.604L158.194 497.548L158.152 497.437L158.11 497.326L158.029 497.197L157.847 496.884L157.627 496.553L157.368 496.205L157.07 495.84L156.773 495.475L156.458 495.148L156.301 494.985L156.144 494.822L156.025 494.676L155.888 494.568L155.752 494.46L155.654 494.37L155.556 494.28L155.441 494.228L155.364 494.193L155.288 494.159L155.249 494.141L155.193 494.162L155.138 494.184L155.12 494.222L155.124 494.316L155.128 494.41L155.17 494.522L155.212 494.633L155.254 494.745L155.317 494.912L155.499 495.225L155.72 495.556L155.979 495.903L156.276 496.268L156.574 496.634L156.888 496.96L157.046 497.124L157.164 497.27L157.322 497.433L157.458 497.541L157.594 497.648L157.731 497.756L157.829 497.846L157.944 497.898L158.059 497.95L158.136 497.985L158.213 498.019L158.268 497.998L158.222 497.792ZM153.422 492.763L153.439 492.725L153.435 492.631L153.432 492.537L153.411 492.481L153.347 492.314L153.305 492.202L153.225 492.074L153.162 491.906L153.043 491.76L152.784 491.413L152.525 491.065L152.228 490.7L151.93 490.335L151.615 490.008L151.458 489.845L151.301 489.681L151.143 489.518L151.007 489.41L150.871 489.303L150.735 489.195L150.637 489.105L150.522 489.053L150.445 489.018L150.368 488.984L150.33 488.966L150.291 488.949L150.235 488.97L150.218 489.009L150.222 489.103L150.225 489.197L150.268 489.308L150.31 489.42L150.39 489.549L150.471 489.677L150.534 489.844L150.636 490.029L150.856 490.359L150.958 490.544L151.255 490.909L151.552 491.274L151.85 491.639L152.007 491.803L152.164 491.966L152.322 492.129L152.479 492.293L152.598 492.439L152.734 492.546L152.832 492.637L152.93 492.727L153.045 492.779L153.122 492.813L153.199 492.848L153.237 492.865L153.293 492.844L153.422 492.763ZM152.252 489.416L152.27 489.378L152.266 489.284L152.262 489.19L152.258 489.095L152.178 488.967L152.136 488.855L152.073 488.688L151.992 488.559L151.891 488.375L151.67 488.044L151.411 487.696L151.114 487.331L150.816 486.966L150.519 486.601L150.362 486.438L150.204 486.274L150.085 486.128L149.949 486.021L149.813 485.913L149.677 485.806L149.579 485.715L149.464 485.663L149.348 485.611L149.272 485.577L149.233 485.56L149.177 485.581L149.122 485.602L149.104 485.64L149.108 485.734L149.112 485.829L149.154 485.94L149.196 486.051L149.238 486.163L149.301 486.33L149.42 486.476L149.522 486.661L149.623 486.845L149.683 486.918L149.742 486.991L149.802 487.064L149.9 487.154L149.998 487.245L150.057 487.318L150.116 487.391L150.197 487.52L150.354 487.683L150.652 488.048L150.949 488.413L151.106 488.576L151.264 488.74L151.383 488.886L151.519 488.993L151.655 489.101L151.753 489.191L151.851 489.282L151.966 489.334L152.081 489.385L152.158 489.42L152.197 489.437L152.252 489.416ZM147.49 484.405L147.507 484.366L147.504 484.272L147.5 484.178L147.496 484.084L147.454 483.972L147.412 483.861L147.331 483.732L147.268 483.565L147.048 483.234L146.827 482.904L146.568 482.556L146.428 482.354L146.169 482.006L145.855 481.68L145.54 481.353L145.404 481.245L145.365 481.228L145.208 481.065L145.072 480.957L144.935 480.85L144.838 480.759L144.74 480.669L144.624 480.617L144.548 480.582L144.509 480.565L144.415 480.569L144.359 480.59L144.342 480.629L144.346 480.723L144.349 480.817L144.353 480.911L144.395 481.022L144.476 481.151L144.539 481.318L144.62 481.447L144.721 481.632L144.963 482.018L145.243 482.421L145.523 482.825L145.858 483.207L146.016 483.371L146.173 483.534L146.33 483.697L146.449 483.843L146.586 483.951L146.722 484.059L146.82 484.149L146.918 484.239L147.033 484.291L147.186 484.36L147.319 484.374L147.375 484.353L147.49 484.405ZM143.978 482.869L143.995 482.83L143.991 482.736L143.97 482.681L143.949 482.625L143.907 482.513L143.865 482.402L143.785 482.273L143.666 482.127L143.445 481.797L143.186 481.449L142.927 481.101L142.63 480.736L142.333 480.371L142.018 480.044L141.861 479.881L141.724 479.773L141.588 479.665L141.452 479.558L141.354 479.468L141.256 479.377L141.141 479.325L141.064 479.291L140.987 479.256L140.949 479.239L140.893 479.26L140.82 479.32L140.802 479.358L140.806 479.452L140.81 479.546L140.852 479.658L140.894 479.769L140.975 479.898L141.055 480.027L141.237 480.34L141.356 480.486L141.598 480.872L141.857 481.22L142.154 481.585L142.451 481.95L142.609 482.114L142.766 482.277L142.885 482.423L143.021 482.531L143.158 482.638L143.294 482.746L143.392 482.836L143.49 482.926L143.605 482.978L143.682 483.013L143.758 483.047L143.797 483.065L143.853 483.044L143.978 482.869ZM142.693 479.47L142.71 479.431L142.707 479.337L142.703 479.243L142.699 479.149L142.657 479.037L142.577 478.909L142.496 478.78L142.416 478.651L142.212 478.282L141.953 477.934L141.656 477.569L141.359 477.204L141.061 476.839L140.747 476.512L140.628 476.366L140.509 476.22L140.373 476.113L140.275 476.022L140.177 475.932L140.1 475.897L140.002 475.807L139.925 475.773L139.849 475.738L139.81 475.721L139.754 475.742L139.681 475.801L139.664 475.84L139.668 475.934L139.671 476.028L139.714 476.14L139.756 476.251L139.836 476.38L139.917 476.508L140.099 476.822L140.319 477.152L140.578 477.5L140.876 477.865L141.173 478.23L141.33 478.394L141.39 478.467L141.449 478.54L141.607 478.703L141.725 478.849L141.844 478.995L141.981 479.103L142.117 479.21L142.215 479.301L142.313 479.391L142.39 479.425L142.505 479.477L142.582 479.512L142.637 479.491L142.693 479.47ZM139.296 477.986L139.313 477.947L139.31 477.853L139.306 477.759L139.264 477.648L139.222 477.536L139.141 477.408L138.959 477.094L138.857 476.91L138.798 476.837L138.739 476.764L138.679 476.691L138.637 476.579L138.577 476.506L138.518 476.433L138.437 476.305L138.378 476.232L138.319 476.159L138.238 476.03L138.081 475.866L137.783 475.501L137.469 475.175L137.311 475.011L137.154 474.848L137.035 474.702L136.899 474.594L136.763 474.487L136.665 474.396L136.605 474.323L136.452 474.254L136.375 474.22L136.298 474.185L136.242 474.206L136.186 474.227L136.131 474.248L136.113 474.287L136.117 474.381L136.121 474.475L136.163 474.586L136.205 474.698L136.286 474.827L136.366 474.955L136.548 475.269L136.769 475.599L137.028 475.947L137.325 476.312L137.622 476.677L137.78 476.841L137.839 476.914L137.937 477.004L138.094 477.167L138.213 477.313L138.35 477.421L138.486 477.528L138.584 477.619L138.72 477.726L138.818 477.817L138.895 477.851L138.971 477.886L139.048 477.921L139.087 477.938L139.142 477.917L139.296 477.986ZM138.029 474.548L138.046 474.51L138.042 474.416L138.021 474.36L138.017 474.266L137.975 474.154L137.895 474.026L137.832 473.859L137.713 473.712L137.492 473.382L137.233 473.034L136.953 472.631L136.656 472.266L136.359 471.9L136.201 471.737L136.044 471.574L135.925 471.428L135.789 471.32L135.652 471.212L135.516 471.105L135.418 471.015L135.32 470.924L135.205 470.872L135.128 470.838C135.128 470.838 135.09 470.82 135.052 470.803L134.996 470.824L134.94 470.845L134.884 470.866L134.867 470.905L134.871 470.999L134.874 471.093L134.917 471.205L134.959 471.316L135.039 471.445L135.12 471.574L135.302 471.887L135.403 472.071L135.662 472.419L135.942 472.823L136.24 473.188L136.537 473.553L136.694 473.716L136.852 473.88L137.009 474.043L137.128 474.189L137.264 474.297L137.362 474.387L137.498 474.494L137.596 474.585L137.673 474.619L137.75 474.654L137.827 474.689L137.865 474.706L137.921 474.685L138.029 474.548ZM134.597 473.141L134.653 473.12L134.67 473.082L134.666 472.988L134.663 472.894L134.62 472.782L134.578 472.671L134.498 472.542L134.417 472.413L134.235 472.1L134.134 471.915L133.875 471.568L133.577 471.203L133.28 470.837L132.983 470.472L132.668 470.146L132.511 469.982L132.392 469.836L132.255 469.729L132.158 469.638L132.06 469.548L131.962 469.458L131.885 469.423L131.77 469.371L131.693 469.337L131.655 469.319L131.599 469.34L131.543 469.362L131.526 469.4L131.529 469.494L131.533 469.588L131.575 469.7L131.617 469.811L131.698 469.94L131.778 470.069L131.961 470.382L132.062 470.566L132.122 470.639L132.164 470.751L132.223 470.824L132.283 470.897L132.363 471.026L132.423 471.099L132.482 471.172L132.563 471.3L132.643 471.429L132.703 471.502L132.762 471.575L132.86 471.665L132.919 471.739L132.979 471.812L133.038 471.885L133.098 471.958L133.157 472.031L133.217 472.104L133.374 472.267L133.493 472.413L133.629 472.521L133.766 472.628L133.902 472.736L134 472.826L134.098 472.916L134.174 472.951L134.251 472.986L134.328 473.02L134.366 473.038L134.597 473.141ZM133.33 469.704L133.385 469.683L133.403 469.644L133.399 469.55L133.378 469.494L133.336 469.383L133.294 469.272L133.213 469.143L133.133 469.014L132.95 468.701L132.692 468.353L132.433 468.005L132.135 467.64L131.838 467.275L131.523 466.948L131.366 466.785L131.247 466.639L131.111 466.531L130.974 466.424L130.877 466.333L130.779 466.243L130.681 466.153L130.604 466.118C130.527 466.084 130.527 466.084 130.527 466.084L130.45 466.049L130.395 466.07L130.339 466.091L130.283 466.112L130.266 466.151L130.269 466.245L130.273 466.339L130.315 466.45L130.357 466.562L130.438 466.691L130.519 466.819L130.599 466.948L130.701 467.133L130.76 467.206L130.82 467.279L130.862 467.39L130.921 467.463L130.981 467.536L131.04 467.609L131.138 467.7L131.197 467.773L131.278 467.901L131.337 467.974L131.397 468.047L131.477 468.176L131.575 468.266L131.635 468.339L131.694 468.412L131.792 468.503L131.852 468.576L131.911 468.649L131.97 468.722L132.03 468.795L132.187 468.958L132.306 469.104L132.442 469.212L132.579 469.319L132.677 469.41L132.775 469.5L132.872 469.59L132.988 469.642L133.064 469.677L133.141 469.712L133.18 469.729L133.33 469.704ZM128.707 464.894L128.725 464.855L128.759 464.779L128.756 464.685L128.735 464.629L128.71 464.479L128.668 464.367L128.587 464.239L128.507 464.11L128.388 463.964L128.286 463.779L128.065 463.449L127.964 463.264L127.904 463.191L127.807 463.101L127.747 463.028L127.688 462.955L127.628 462.882L127.53 462.792L127.373 462.628L127.076 462.263L126.761 461.937L126.642 461.791L126.485 461.627L126.348 461.52L126.212 461.412L126.114 461.322L126.016 461.231L125.901 461.179L125.824 461.145L125.748 461.11L125.692 461.131L125.636 461.153L125.619 461.191L125.601 461.229L125.605 461.324L125.609 461.418L125.651 461.529L125.693 461.641L125.774 461.769L125.917 462.065L126.138 462.396L126.397 462.744L126.638 463.13L126.796 463.293L126.855 463.366L126.953 463.456L127.012 463.529L127.072 463.602L127.17 463.693L127.229 463.766L127.289 463.839L127.348 463.912L127.506 464.075L127.624 464.221L127.743 464.367L127.862 464.513L127.999 464.621L128.096 464.711L128.194 464.802L128.31 464.854L128.386 464.888L128.463 464.923L128.502 464.94L128.707 464.894ZM123.836 460.943L123.871 460.866L123.867 460.772L123.842 460.622L123.8 460.511L123.737 460.343L123.674 460.176L123.572 459.992L123.449 459.752L123.327 459.511L123.166 459.254L122.966 458.979L122.767 458.704L122.529 458.412L122.308 458.082L122.071 457.79L121.833 457.497L121.595 457.205L121.357 456.913L121.119 456.621L120.864 456.368L120.647 456.131L120.469 455.912L120.273 455.731L120.077 455.551L119.881 455.37L119.707 455.245L119.532 455.12L119.378 455.051L119.263 454.999L119.148 454.947L119.054 454.951L118.981 455.011L118.946 455.088L118.932 455.22L118.975 455.332L119.017 455.443L119.08 455.61L119.143 455.777L119.245 455.962L119.346 456.146L119.469 456.387L119.63 456.644L119.829 456.919L120.029 457.194L120.211 457.507L120.449 457.799L120.669 458.129L120.907 458.422L121.145 458.714L121.383 459.006L121.621 459.298L121.838 459.534L122.054 459.77L122.233 459.99L122.429 460.17L122.624 460.351L122.82 460.531L122.977 460.695L123.152 460.82L123.288 460.927L123.442 460.997L123.557 461.048L123.651 461.045L123.836 460.943ZM116.166 453.466L116.256 453.368L116.287 453.197L116.259 452.953L116.192 452.691L116.066 452.357L115.88 451.95L115.656 451.525L115.41 451.045L115.088 450.53L114.766 450.015L114.384 449.427L114.003 448.839L113.583 448.233L113.125 447.611L112.666 446.988L112.208 446.366L111.732 445.781L111.256 445.197L110.781 444.613L110.287 444.067L109.815 443.577L93.7422 426.767L93.3086 426.294L92.896 425.877L92.5045 425.516L92.1341 425.21L91.7847 424.96L91.4948 424.783L91.2433 424.624L91.0129 424.52L90.8035 424.472L90.6536 424.497L90.5248 424.578L90.4554 424.731L90.4071 424.941L90.4356 425.185L90.5409 425.463L90.6673 425.798L90.8531 426.205L91.0773 426.63L91.3226 427.11L91.6447 427.625L91.9669 428.14L92.3484 428.728L92.73 429.316L93.15 429.921L93.57 430.527L94.0284 431.149L94.5041 431.733L94.9798 432.318L95.4556 432.902L95.9486 433.447L96.4033 433.976L96.8753 434.466L112.736 451.134L113.208 451.624L113.659 452.059L114.05 452.42L114.459 452.743L114.791 453.031L115.102 453.264L115.392 453.44L115.661 453.562L115.87 453.61L116.041 453.64L116.166 453.466ZM87.8153 423.311L87.8884 423.251L87.9231 423.175L87.9194 423.08L87.8773 422.969L87.8525 422.819L87.7893 422.652L87.7261 422.485L87.6246 422.3L87.5019 422.06L87.3793 421.82L87.2182 421.562L87.0187 421.288L86.8366 420.974L86.6372 420.7L86.4166 420.369L86.1788 420.077L85.9409 419.785L85.703 419.493L85.4652 419.201L85.2484 418.964L85.0316 418.728L84.8532 418.509L84.6574 418.328L84.4617 418.148L84.2659 417.967L84.0913 417.842L83.9166 417.717L83.7803 417.61L83.6651 417.558L83.5115 417.489L83.4346 417.454L83.3231 417.496L83.25 417.556L83.2154 417.633L83.2017 417.765L83.2439 417.877L83.2686 418.026L83.3318 418.194L83.4334 418.378L83.535 418.563L83.6576 418.803L83.8187 419.06L83.9798 419.318L84.1408 419.575L84.3403 419.85L84.5781 420.142L84.816 420.434L85.0539 420.726L85.2917 421.018L85.5296 421.31L85.7675 421.603L85.9843 421.839L86.2011 422.075L86.3795 422.294L86.5752 422.475L86.771 422.656L86.9667 422.836L87.1625 423.017L87.3371 423.142L87.4734 423.249L87.627 423.319L87.7422 423.371L87.8191 423.405L87.8153 423.311ZM81.8278 417.84L81.8452 417.801L81.8625 417.763L81.8588 417.669L81.8377 417.613L81.8167 417.557L81.7956 417.502L81.7535 417.39L81.7114 417.279L81.5676 416.983L81.4487 416.837L81.2282 416.506L80.9693 416.159L80.7103 415.811L80.4514 415.463L80.1925 415.115L79.9162 414.806L79.661 414.552L79.5247 414.444L79.4268 414.354L79.329 414.264L79.2138 414.212L79.1753 414.195L79.0601 414.143L79.0217 414.125L78.966 414.147L78.9486 414.185L78.9313 414.223L78.935 414.318L78.9561 414.373L78.9598 414.467L79.0019 414.579L79.1246 414.819L79.2051 414.948L79.2646 415.021L79.2856 415.077L79.3451 415.15L79.4045 415.223L79.464 415.296L79.5235 415.369L79.5829 415.442L79.6424 415.515L79.7019 415.588L79.7614 415.661L79.8035 415.772L79.8629 415.845L79.9224 415.918L80.0029 416.047L80.1008 416.137L80.1603 416.21L80.2197 416.283L80.2792 416.356L80.3387 416.429L80.4365 416.52L80.5344 416.61L80.5939 416.683L80.6534 416.756L80.7512 416.846L80.8702 416.992L80.9891 417.138L81.2616 417.354L81.3595 417.444L81.4574 417.534L81.5342 417.569L81.611 417.604L81.6878 417.638L81.7262 417.655L81.8278 417.84ZM80.2111 414.153L80.2284 414.114L80.2458 414.076L80.242 413.982L80.221 413.926L80.1999 413.87L80.1578 413.759L80.1157 413.647L80.0351 413.518L79.9546 413.39L79.8741 413.261L79.6536 412.93L79.3946 412.583L79.1357 412.235L78.8384 411.87L78.5621 411.56L78.2858 411.251L78.1669 411.105L77.9327 410.907L77.8349 410.817L77.737 410.726L77.6391 410.636L77.5623 410.601L77.4855 410.567L77.4471 410.55L77.3914 410.571L77.374 410.609L77.3393 410.686L77.343 410.78L77.3468 410.874L77.3505 410.968L77.3926 411.08L77.4347 411.191L77.5784 411.487L77.6974 411.633L77.7568 411.706L77.8163 411.779L77.8758 411.852L77.9352 411.925L77.9947 411.998L78.0542 412.071L78.1136 412.144L78.1557 412.256L78.2152 412.329L78.2747 412.402L78.3341 412.475L78.4147 412.604L78.5125 412.694L78.572 412.767L78.6315 412.84L78.691 412.913L78.7504 412.986L78.8483 413.076L78.9077 413.149L78.9672 413.222L79.0267 413.295L79.0861 413.368L79.2051 413.514L79.324 413.661L79.443 413.807L79.5408 413.897L79.6387 413.987L79.7366 414.078L79.8134 414.112L79.8902 414.147L79.967 414.181L80.0227 414.16L80.2111 414.153ZM77.6354 413.409L77.6912 413.387L77.7085 413.349L77.6875 413.293L77.6664 413.238L77.6453 413.182L77.6243 413.126L77.5821 413.015L77.54 412.903L77.4595 412.774L77.2774 412.461L77.0569 412.131L76.7979 411.783L76.539 411.435L76.2801 411.087L76.0038 410.778L75.7275 410.469L75.6086 410.323L75.4723 410.215L75.3361 410.107L75.2382 410.017L75.1403 409.927L75.0635 409.892L74.9867 409.857L74.9099 409.823L74.8715 409.806L74.8157 409.827L74.7984 409.865L74.781 409.904L74.7847 409.998L74.7885 410.092L74.7922 410.186L74.8343 410.297L74.8764 410.409L74.957 410.538L75.0375 410.666L75.1007 410.834L75.1601 410.907L75.2196 410.98L75.2791 411.053L75.3385 411.126L75.3806 411.237L75.4401 411.31L75.4996 411.383L75.559 411.456L75.6185 411.529L75.678 411.602L75.7375 411.675L75.7969 411.748L75.8564 411.821L75.9543 411.912L76.0348 412.04L76.0942 412.113L76.1537 412.186L76.2516 412.277L76.311 412.35L76.3705 412.423L76.43 412.496L76.4895 412.569L76.6084 412.715L76.8636 412.968L76.9615 413.059L77.0593 413.149L77.1572 413.239L77.2724 413.291L77.3492 413.326L77.4261 413.36L77.4645 413.378L77.6354 413.409ZM76.0013 409.76L76.0187 409.721L76.036 409.683L76.0323 409.589L76.0112 409.533L75.9691 409.421L75.927 409.31L75.8043 409.07L75.7238 408.941L75.6049 408.795L75.3844 408.465L75.1254 408.117L74.8665 407.769L74.6076 407.421L74.3486 407.073L74.0724 406.764L73.9534 406.618L73.8172 406.51L73.6809 406.403L73.583 406.312L73.4851 406.222L73.4083 406.187L73.3699 406.17L73.2547 406.118L73.2163 406.101L73.1606 406.122L73.1432 406.16L73.1259 406.199L73.1085 406.237L73.1122 406.331L73.1544 406.443L73.1754 406.499L73.1965 406.554L73.3191 406.795L73.3997 406.923L73.5818 407.236L73.6834 407.421L73.7428 407.494L73.8023 407.567L73.8444 407.678L73.9039 407.751L74.0018 407.842L74.0612 407.915L74.1207 407.988L74.2186 408.078L74.2991 408.207L74.3586 408.28L74.418 408.353L74.4775 408.426L74.537 408.499L74.5964 408.572L74.6559 408.645L74.7154 408.718L74.7748 408.791L74.8343 408.864L74.9532 409.01L75.2084 409.264L75.3447 409.371L75.4426 409.462L75.5405 409.552L75.6557 409.604L75.7325 409.639L75.7709 409.656L75.8093 409.673L75.8477 409.69L76.0013 409.76ZM73.4257 409.016L73.443 408.977L73.4604 408.939L73.4567 408.845L73.4356 408.789L73.4319 408.695L73.3898 408.583L73.3476 408.472L73.2671 408.343L73.1866 408.214L73.0676 408.068L72.8471 407.738L72.5882 407.39L72.3293 407.042L72.0703 406.694L71.7941 406.385L71.5178 406.076L71.2626 405.822L71.1647 405.732L71.0668 405.641L70.99 405.607L70.9516 405.589L70.8748 405.555L70.798 405.52L70.7212 405.486L70.6654 405.507L70.6097 405.528L70.5924 405.566L70.575 405.605L70.5787 405.699L70.5824 405.793L70.6246 405.904L70.6667 406.016L70.7088 406.127L70.7893 406.256L70.8699 406.385L71.052 406.698L71.1536 406.883L71.213 406.956L71.2552 407.067L71.3146 407.14L71.3741 407.213L71.472 407.303L71.5314 407.376L71.5909 407.449L71.6888 407.54L71.7482 407.613L71.8077 407.686L71.8672 407.759L71.9266 407.832L71.9861 407.905L72.0456 407.978L72.105 408.051L72.2029 408.141L72.2624 408.214L72.3218 408.287L72.4408 408.433L72.696 408.687L72.7939 408.777L72.8917 408.868L72.9896 408.958L73.0491 409.031L73.1259 409.066L73.2027 409.1L73.2411 409.117L73.4257 409.016ZM71.7916 405.367L71.8436 405.251L71.8399 405.157L71.8188 405.102L71.7767 404.99L71.7346 404.879L71.6925 404.767L71.612 404.638L71.4298 404.325L71.2093 403.995L70.9504 403.647L70.6915 403.299L70.4152 402.99L70.1563 402.642L70.1178 402.625L69.8626 402.371L69.7437 402.225L69.5096 402.027L69.4117 401.937L69.3138 401.846L69.237 401.812L69.1602 401.777L69.0834 401.743L69.045 401.725L68.9892 401.746L68.9719 401.785L68.9372 401.862L68.9409 401.956L68.9446 402.05L68.9868 402.161L69.0289 402.273L69.071 402.384L69.1515 402.513L69.2321 402.642L69.2915 402.715L69.351 402.788L69.4104 402.861L69.4699 402.934L69.512 403.045L69.5715 403.118L69.631 403.191L69.6904 403.264L69.7499 403.337L69.8478 403.428L69.9072 403.501L69.9667 403.574L70.0646 403.664L70.1241 403.737L70.1835 403.81L70.2814 403.9L70.3793 403.991L70.4387 404.064L70.4982 404.137L70.5577 404.21L70.6171 404.283L70.6766 404.356L70.7361 404.429L70.7955 404.502L70.9145 404.648L71.0507 404.756L71.1697 404.902L71.2675 404.992L71.3654 405.082L71.4633 405.173L71.5612 405.263L71.638 405.298L71.7148 405.332L71.7705 405.311L71.7916 405.367ZM69.3138 404.713L69.3659 404.598L69.3621 404.504L69.3584 404.409L69.3163 404.298L69.2742 404.187L69.2321 404.075L69.1515 403.946L68.9694 403.633L68.7489 403.303L68.49 402.955L68.231 402.607L67.9721 402.259L67.6958 401.95L67.4196 401.64L67.3006 401.494L67.1644 401.387L67.0665 401.296L66.9686 401.206L66.8707 401.116L66.7939 401.081L66.7171 401.047L66.6403 401.012L66.5846 401.033L66.5288 401.054L66.5115 401.093L66.4941 401.131L66.4978 401.225L66.5016 401.319L66.5437 401.431L66.5858 401.542L66.7084 401.783L66.789 401.911L66.8484 401.984L66.9079 402.057L66.9674 402.13L67.0268 402.203L67.0863 402.276L67.1458 402.349L67.2052 402.422L67.2647 402.495L67.3452 402.624L67.4047 402.697L67.4642 402.77L67.5236 402.843L67.5831 402.916L67.6426 402.989L67.7231 403.118L67.7826 403.191L67.842 403.264L67.9226 403.393L68.0204 403.483L68.0799 403.556L68.1394 403.629L68.2372 403.72L68.2967 403.793L68.3562 403.866L68.4751 404.012L68.7303 404.265L68.9645 404.463L69.0797 404.515L69.1949 404.567L69.2717 404.602L69.3485 404.636L69.3869 404.653L69.3138 404.713ZM67.6587 401.008L67.676 400.97L67.7107 400.893L67.707 400.799L67.7033 400.705L67.6611 400.593L67.619 400.482L67.5769 400.37L67.4158 400.113L67.2337 399.8L67.1321 399.615L66.8732 399.267L66.5759 398.902L66.317 398.555L66.2785 398.537L66.0023 398.228L65.7644 397.936L65.5092 397.682L65.3729 397.575L65.275 397.484L65.1598 397.432L65.062 397.342L64.9851 397.307L64.9083 397.273L64.8526 397.294L64.7968 397.315L64.7795 397.353L64.7622 397.392L64.7659 397.486L64.7696 397.58L64.8117 397.692L64.8538 397.803L64.896 397.915L64.9765 398.043L65.057 398.172L65.1165 398.245L65.1759 398.318L65.2354 398.391L65.2949 398.464L65.3543 398.537L65.4138 398.61L65.4559 398.722L65.5154 398.795L65.5749 398.868L65.6343 398.941L65.6938 399.014L65.7533 399.087L65.8127 399.16L65.8722 399.233L65.9317 399.306L65.9911 399.379L66.0506 399.452L66.1101 399.525L66.1695 399.598L66.2674 399.688L66.3653 399.779L66.4247 399.852L66.4842 399.925L66.5821 400.015L66.701 400.161L66.9562 400.415L67.0541 400.505L67.152 400.595L67.2498 400.686L67.3266 400.72L67.4035 400.755L67.4803 400.789L67.5187 400.807L67.6587 401.008ZM59.3111 394.521L59.4188 394.384L59.4845 394.136L59.4523 393.798L59.3433 393.425L59.1748 392.98L58.9468 392.461L58.6594 391.869L58.3125 391.204L57.9272 390.522L57.4825 389.767L56.9993 388.994L56.4777 388.205L55.9351 387.359L55.3367 386.535L54.7173 385.655L54.0805 384.813L53.4437 383.971L52.7895 383.168L52.1354 382.365L51.4639 381.6L50.8135 380.891L50.1842 380.238L49.5932 379.602L49.0617 379.038L48.5513 378.531L48.1004 378.097L47.7089 377.736L47.3769 377.447L47.0486 377.253L46.8181 377.149L46.6087 377.101L46.4799 377.182L46.4105 377.336L46.439 377.58L46.4886 377.879L46.5976 378.252L46.7661 378.698L46.9941 379.217L47.2815 379.809L47.59 380.456L47.9579 381.177L48.3643 381.915L48.7917 382.708L49.2959 383.536L49.8385 384.382L50.4196 385.245L51.0006 386.107L51.5816 386.97L52.18 387.795L52.8168 388.636L53.4325 389.422L54.0483 390.208L54.6603 390.9L55.2723 391.592L55.8633 392.228L56.3947 392.791L56.9225 393.26L57.3734 393.694L57.8207 394.034L58.2085 394.301L58.5368 394.495L58.8229 394.578L59.0497 394.588L59.3111 394.521Z" stroke="#0075FF" stroke-miterlimit="10"/>
<path d="M172.205 502.113L172.918 502.48L175.124 503.427L175.815 503.739L178.854 504.785L181.806 505.514C181.844 505.531 181.938 505.527 181.977 505.545L182.015 505.562L183.173 505.76L184.673 506.02L185.241 506.092C185.297 506.071 185.336 506.088 185.336 506.088L188.003 506.32L188.495 506.357L191.831 506.336C191.925 506.332 191.981 506.311 192.075 506.307L192.546 506.288C192.807 506.221 192.995 506.214 193.089 506.21C193.183 506.206 193.277 506.203 193.277 506.203L195.156 506.033L196.898 505.756L198.247 505.532L198.546 505.483L200.247 505.094L200.285 505.111L201.853 504.71L203.695 504.108L205.092 503.675L208.264 502.38L211.352 500.863L211.978 500.498L214.282 499.182L214.355 499.122C214.411 499.101 214.557 498.982 214.741 498.881L215.128 498.639L215.368 498.516L215.441 498.457L217.132 497.372L217.278 497.253L219.88 495.378L225.139 491.099L230.146 486.66L233.473 483.588L268.724 450.943L507.081 230.283L530.841 208.252L532.948 206.247L535.997 203.28L538.815 200.21L540.026 198.447L541.13 196.821L542.08 195.125L542.839 193.343L543.426 191.53L543.804 189.669L543.955 187.798L543.88 185.917L543.578 184.027L543.088 182.144L542.354 180.29L541.432 178.443L540.287 176.681L538.992 174.943L537.512 173.308L535.921 171.714L534.202 170.201L532.353 168.768L530.432 167.395L528.437 166.081L524.358 163.551L520.206 161.08L511.961 156.212L519.067 160.429L524.034 163.451L526.719 165.076L530.516 167.617L532.305 168.977L533.983 170.379L535.57 171.879L537.028 173.459L538.358 175.12L539.482 176.826L540.4 178.579L541.113 180.377L541.621 182.222L541.919 184.018L541.973 185.843L541.801 187.658L541.44 189.481L540.87 191.256L540.091 192.982L539.119 194.622L538.175 195.997L538.05 196.172L536.883 197.631L534.224 200.45L531.356 203.221L529.211 205.21L505.392 227.168L266.441 447.606L231.075 480.199L227.748 483.271L223.05 487.434L218.195 491.434L215.704 493.266L213.004 495.051L210.185 496.69L207.209 498.166L204.148 499.419L201.003 500.449L197.83 501.236L194.645 501.74L191.431 502.001L188.245 501.997L185.086 501.728L182.009 501.173L178.998 500.371L176.109 499.3L173.361 498.017L170.777 496.576L168.318 494.961L166.023 493.188L162.562 490.106L161.702 489.349L153.884 481.488L145.82 473.147L60.9413 385.009L54.1154 377.918L47.8693 371.18L44.9721 367.567L44.6114 367.035L43.6696 365.641L42.5342 363.653L41.5833 361.562L40.8169 359.37L40.2733 357.094L39.991 354.751L39.9527 352.379L40.1583 349.979L40.6289 347.605L41.2878 345.224L42.2117 342.871L43.3238 340.509L44.6836 338.213L46.2528 335.965L47.9966 333.842L49.8767 331.826L51.8163 329.884L53.8191 328.108L58.0379 324.699L62.4486 321.377L65.6524 318.988L99.8441 293.807L336.648 119.584L360.786 101.833L362.985 100.238L366.046 98.0617L369.188 96.0144L370.81 95.0829L372.453 94.207L371.544 94.5825L369.678 95.5427L367.889 96.5374L364.507 98.7074L361.244 101.023L359.045 102.618L334.924 120.332L98.8337 293.998L64.7323 319.081L61.5458 321.432L56.8987 324.971L52.3916 328.712L50.2638 330.662L48.2338 332.702L46.3018 334.833L44.5233 337.033L42.9368 339.319L41.5424 341.692L40.3572 344.113L39.3813 346.582L38.6321 349.061L38.1652 351.528L37.9288 354.099L37.9325 356.548L38.1417 358.95L38.6123 361.286L39.3267 363.593L39.5759 364.167L40.0149 365.242L40.0359 365.297L40.2641 365.816L40.8566 366.96L41.102 367.44L41.3859 367.937L41.7887 368.58L42.272 369.352L42.6538 369.939L44.0888 371.878L45.6353 373.775L47.5695 375.939L47.6079 375.956C47.7479 376.158 47.8842 376.265 48.0032 376.411L48.6748 377.176L48.7726 377.266L48.811 377.283C48.811 377.283 48.8321 377.339 48.8705 377.356L48.8916 377.412L51.4093 380.023L52.1577 380.822L52.3535 381.002L59.281 388.278L143.83 476.636L148.414 481.425L148.453 481.442C148.453 481.442 148.61 481.605 148.827 481.842L153.037 486.231L153.233 486.411L153.271 486.429L154.079 487.3L157.282 490.544L158.285 491.596C158.324 491.613 159.481 492.735 159.52 492.752L162.711 495.713L165.07 497.653L165.769 498.152L165.807 498.169L165.884 498.204L166.778 498.884L167.575 499.473L168.155 499.827C168.193 499.844 168.483 500.021 168.811 500.215C169.101 500.392 169.429 500.586 169.429 500.586L169.932 500.904C169.992 500.977 170.03 500.995 170.107 501.029L170.145 501.047M172.205 502.113L172.171 502.19M172.205 502.113L170.896 501.431L170.184 501.064L170.145 501.047M170.145 501.047L170.128 501.085" stroke="#0075FF" stroke-miterlimit="10"/>
<path d="M59.8837 331.92L371.967 99.7262C379.895 93.8315 390.523 93.2161 399.127 98.1073L428.666 114.967C431.424 116.533 431.582 120.483 428.938 122.247C426.293 124.011 427.047 126.844 429.806 128.41L492.477 165.734C493.905 166.562 495.655 166.473 497.033 165.57L498.153 164.828C502.077 160.639 508.53 161.698 513.206 164.543L529.128 174.208C536.451 178.661 536.492 189.114 530.041 194.705L217.376 477.013C201.582 490.815 174.827 485.599 160.271 470.454L57.3008 363.541C48.4681 354.344 49.6665 339.508 59.8837 331.92Z" stroke="#0075FF" stroke-miterlimit="10"/>
<path d="M490.064 156.764C488.651 158.56 486.442 159.343 485.086 158.545C483.73 157.747 483.767 155.612 485.163 153.855C486.576 152.06 488.785 151.277 490.14 152.075C491.496 152.872 491.477 154.969 490.064 156.764Z" stroke="#0075FF" stroke-miterlimit="10"/>
<path d="M442.082 127.773C440.667 129.568 438.453 130.348 437.093 129.548C435.732 128.748 435.766 126.612 437.163 124.856C438.578 123.061 440.792 122.28 442.153 123.08C443.492 123.824 443.459 125.96 442.082 127.773Z" stroke="#0075FF" stroke-miterlimit="10"/>
<path d="M452.082 133.773C450.667 135.568 448.453 136.348 447.093 135.548C445.732 134.748 445.766 132.612 447.163 130.856C448.578 129.061 450.792 128.28 452.153 129.08C453.475 129.863 453.459 131.96 452.082 133.773Z" stroke="#0075FF" stroke-miterlimit="10"/>
<path d="M480.623 150.384C479.534 151.712 477.774 152.249 476.604 151.589C475.474 150.947 475.422 149.328 476.511 148C477.599 146.673 479.359 146.135 480.53 146.795C481.7 147.456 481.712 149.057 480.623 150.384Z" stroke="#0075FF" stroke-miterlimit="10"/>
<path d="M480.948 149.486C480.075 150.591 478.593 151.069 477.708 150.538C476.822 150.007 476.772 148.663 477.685 147.576C478.558 146.471 480.04 145.993 480.926 146.524C481.85 147.073 481.861 148.4 480.948 149.486Z" stroke="#0075FF" stroke-miterlimit="10"/>
<path d="M480.305 149.606C479.592 150.491 478.512 150.897 477.801 150.488C477.127 150.095 477.157 149.037 477.832 148.136C478.545 147.252 479.625 146.845 480.336 147.254C480.993 147.684 480.98 148.705 480.305 149.606Z" stroke="#0075FF" stroke-miterlimit="10"/>
<path d="M479.612 147.569L479.277 147.374C479.145 147.315 479.167 147.149 479.26 147.059L479.573 146.718C479.683 146.592 479.848 146.578 479.936 146.618L480.271 146.812C480.403 146.872 480.381 147.037 480.287 147.127L479.974 147.469C479.909 147.615 479.744 147.628 479.612 147.569Z" stroke="#0075FF" stroke-miterlimit="10"/>
<path d="M472.444 147.085L456.013 137.18C455.58 136.938 455.6 136.191 456.051 135.592C456.503 134.992 457.26 134.719 457.693 134.961L474.124 144.866C474.558 145.109 474.538 145.855 474.086 146.455C473.597 147.037 472.878 147.327 472.444 147.085Z" stroke="#0075FF" stroke-miterlimit="10"/>
</svg>
