<svg width="428" height="529" viewBox="0 0 428 529" fill="none" xmlns="http://www.w3.org/2000/svg">
<path d="M288.67 61.7982C300.339 98.0015 309.337 138.324 314.938 179.373C322.274 232.547 321.89 285.645 311.502 338.534C307.23 360.483 300.95 381.839 292.983 402.751C292.568 403.798 291.288 405.167 290.258 405.282C254.31 410.344 219.152 408.147 185.882 392.746C162.367 381.933 143.158 365.143 126.145 345.84C109.63 327.155 94.8464 307.113 81.8518 285.869C65.1794 258.581 51.7688 229.722 39.3213 200.327C37.3357 195.708 35.4287 191.059 33.2366 186.605C32.0384 184.104 32.5236 182.762 34.8045 181.2C42.6598 175.868 50.3781 170.408 58.1459 164.841C83.2588 146.751 104.186 124.86 116.259 95.9919C121.658 83.0897 124.745 69.2611 128.557 55.6988C129.411 52.7024 130.426 51.3427 133.596 50.9678C141.917 50.0169 150.162 48.3798 158.483 47.4288C160.622 47.1692 163.082 47.7725 165.179 48.6004C174.368 52.149 183.409 56.0206 192.598 59.5692C200.552 62.6838 207.538 59.1037 214.074 55.5128C224.304 49.8335 234.027 43.2711 244.033 37.2287C246.215 35.8815 248.778 34.839 251.281 34.3548C259.241 32.913 267.298 31.9712 275.287 30.608C278.133 30.0854 279.534 30.7255 280.377 33.716C282.645 41.9814 285.177 50.2377 288.67 61.7982ZM67.1639 181.402C70.1679 189.482 72.8689 197.23 75.8842 204.86C90.4 240.54 107.392 274.943 129.022 306.907C148.641 335.867 170.739 362.835 200.109 382.901C226.494 400.952 255.157 409.494 287.203 403.561C288.784 403.241 290.995 401.972 291.401 400.66C295.114 390.439 298.827 380.217 301.814 369.73C320.93 302.791 321.589 235.035 311.095 166.871C305.191 128.614 296.096 90.9171 284.272 54.057C282.078 47.193 280.041 40.2705 277.78 32.9849C275.863 34.323 274.359 35.3288 272.855 36.3346C260.063 45.4669 246.95 53.7363 231.867 58.6304C214.397 64.3225 197.122 64.763 179.92 57.9429C174.033 55.5777 167.997 53.5356 161.982 51.3073C162.009 52.1011 161.492 54.0792 161.112 56.185C153.373 97.194 132.672 130.521 100.274 156.677C89.4839 165.422 77.9513 173.372 67.1639 181.402ZM34.7836 184.512C37.8304 191.505 40.6148 197.792 43.2712 204.217C54.6842 232.032 68.0817 258.93 83.5916 284.775C96.0095 305.43 110.266 324.776 126.233 342.949C144.243 363.489 164.715 380.792 189.689 392.402C205.154 399.6 221.593 402.685 238.911 404.283C238.285 403.801 238.089 403.516 237.903 403.496C207.77 394.609 183.937 375.966 163.051 353.46C128.05 315.841 102.86 271.895 82.2706 225.167C76.5852 212.279 71.2927 199.244 65.715 186.405C65.1115 185.022 63.4509 182.961 62.3914 182.998C53.5136 183.173 44.4673 183.858 34.7836 184.512ZM37.3318 182.225C39.9514 182.054 41.8258 181.804 43.7382 181.897C58.0659 182.909 69.6877 177.605 81.1733 169.048C104.194 151.826 125.336 133.159 139.977 108.069C150.582 89.9269 156.759 70.2164 160.528 49.0797C152.402 50.3153 144.707 51.7478 137.014 52.4651C132.412 52.8367 130.836 54.8516 130.027 59.1709C122.445 100.121 101.549 133.163 69.0047 158.928C59.0119 166.93 48.3549 174.107 37.3318 182.225ZM210.241 60.5993C229.493 61.3881 256.379 47.1046 273.219 32.9843C265.858 34.1138 259.097 34.9312 252.403 36.1701C249.743 36.7127 247.072 37.706 244.84 39.1609C232.888 46.4629 221.073 53.8925 210.241 60.5993Z" fill="#0075FF"/>
<path d="M170.33 71.6029C172.085 72.4693 173.242 72.9325 174.3 73.6111C199.73 88.5465 224.661 86.2449 249.108 71.0792C256.026 66.809 262.554 61.9693 269.199 57.4436C270.341 56.6617 271.541 56.0367 273.204 54.9714C275.078 60.9755 276.698 66.5379 278.476 72.0418C289.324 105.801 298.118 140.055 303.512 175.038C313.069 237.6 311.855 299.609 293.303 360.74C291.176 367.785 288.353 374.642 286.04 381.667C285.245 384.106 283.946 384.947 281.332 385.383C253.092 390.344 228.001 382.341 204.734 366.959C183.367 352.836 166.83 333.88 151.76 313.573C130.826 285.441 114.822 254.671 101.081 222.524C96.8153 212.495 92.8939 202.428 88.55 192.429C87.4005 189.818 87.6417 188.299 90.1323 186.569C97.9594 180.889 105.65 175.081 113.232 169.224C143.246 145.912 162.444 115.902 168.99 78.3553C169.371 76.2481 169.81 74.298 170.33 71.6029ZM180.192 95.7221C179.857 96.0254 179.699 96.0839 179.729 96.1624C179.249 98.485 178.661 100.758 178.182 103.081C172.635 130.071 159.542 152.897 139.433 171.543C130.832 179.476 121.321 186.408 112.084 193.595C109.937 195.287 109.157 196.56 110.315 199.435C120.188 223.103 129.796 246.78 142.521 269.21C156.905 294.417 173.072 318.157 194.646 337.653C217.012 357.837 242.411 370.282 273.84 366.19C276.217 365.842 277.438 365.031 278.291 362.748C286.201 342.117 291.619 320.803 294.948 298.927C300.913 259.095 297.274 219.439 292.683 179.869C289.338 151.361 281.109 123.686 272.467 96.344C270.69 90.8401 268.991 85.307 267.176 79.4599C260.039 84.3473 253.482 89.1084 246.563 93.3786C227.706 105.036 208.053 108.77 187.132 99.217C184.73 98.0551 182.456 96.7563 180.192 95.7221ZM272.113 58.0575C263.933 63.5114 256.374 68.4666 248.902 73.6573C248.252 74.0775 247.921 76.0769 248.263 76.7541C248.77 77.6375 250.26 78.5132 251.32 78.4761C256.035 78.1525 260.741 77.5642 265.467 76.7896C267.766 76.4708 268.745 77.1787 269.297 79.3858C270.955 85.2914 272.771 91.1385 274.665 96.9564C289.508 142.185 297.67 188.468 299.483 236.218C301.201 280.341 295.618 322.89 279.906 364.202C278.905 366.808 277.751 368.041 274.884 368.035C270.455 368.163 265.956 368.585 261.515 369.165C260.483 369.28 259.126 369.964 258.73 370.826C257.324 374.029 256.32 377.35 255.011 381.054C264.19 381.661 272.947 382.336 281.695 382.746C282.52 382.797 283.93 381.29 284.267 380.271C289.614 362.379 295.923 344.666 299.72 326.458C309.59 279.545 309.327 232.111 302.829 184.763C298.588 154.086 292.028 123.915 283.07 94.2775C279.539 82.3678 275.957 70.5659 272.113 58.0575ZM93.2353 197.566C93.9648 199.528 94.3238 200.735 94.8402 201.883C103.609 221.137 111.906 240.567 121.226 259.616C135.391 288.568 154.054 314.686 175.236 339.152C189.955 356.105 207.737 364.681 229.887 365.736C231.164 365.798 232.391 365.967 233.667 366.029C234.836 366.041 235.975 365.975 237.143 365.987C213.469 357.457 194.677 342.555 178.423 324.119C156.29 299.023 139.441 270.801 125.634 240.644C119.535 227.366 114.271 213.688 108.564 200.264C107.99 198.959 106.602 197.152 105.483 197.032C101.654 196.848 97.7141 197.33 93.2353 197.566ZM177.641 94.8835C174.969 95.1623 172.778 95.5304 170.578 95.6337C167.927 95.7262 166.744 96.8807 165.95 99.3203C157.878 123.854 144.193 144.846 124.855 161.953C114.541 171.06 103.18 179.037 92.2892 187.554C90.7628 188.747 89.4636 189.587 90.5254 191.962C91.4998 194.102 92.2115 195.534 95.1868 195.59C103.209 195.734 110.217 194.111 116.042 188.103C118.171 185.882 120.798 184.279 123.338 182.441C139.555 170.425 153.06 155.933 163.061 138.277C170.601 124.841 174.895 110.378 177.641 94.8835ZM168.704 89.6296C168.504 90.7763 168.205 92.1385 167.815 93.9809C174.112 93.337 179.802 92.0251 185.454 95.9095C195.348 102.773 205.366 102.265 215.183 94.9512C221.553 90.17 228.423 86.0076 235.274 81.3157C213.124 85.7995 191.498 89.2845 168.704 89.6296ZM203.217 362.877C213.971 370.851 225.525 377.365 238.485 380.676C242.528 381.675 246.968 381.096 251.269 381.105C251.986 381.106 253.099 380.246 253.367 379.521C254.743 376.239 255.796 372.81 257.205 368.891C238.677 368.186 220.558 368.58 203.217 362.877ZM206.937 102.395C229.046 103.823 245.869 92.4752 263.239 79.2263C255.36 80.1904 248.611 80.8236 241.93 81.8785C239.051 82.3235 236.062 83.435 233.592 84.979C224.567 90.5684 215.845 96.4918 206.937 102.395ZM171.702 75.2921C170.972 78.8692 170.202 82.8187 169.202 87.8364C179.083 87.1999 188.061 86.542 198.021 85.8762C188.656 82.1215 180.448 78.8299 171.702 75.2921ZM251.597 382.949C251.585 383.4 251.545 383.772 251.533 384.223C257.012 384.509 262.382 384.745 267.861 385.031C267.901 384.659 267.863 384.316 267.904 383.943C262.475 383.549 256.996 383.264 251.597 382.949ZM237.057 79.8487C246.081 79.7987 246.839 79.4277 245.025 75.9925C242.674 77.1347 240.323 78.277 237.057 79.8487Z" fill="#0075FF"/>
</svg>
