<svg width="463" height="440" viewBox="0 0 463 440" fill="none" xmlns="http://www.w3.org/2000/svg">
<path d="M225.665 0.87558C256.78 1.14031 287.896 1.40353 319.011 1.66977C320.765 1.68481 322.519 1.74798 324.271 1.72392C325.01 1.71339 325.428 1.94653 325.818 2.60685C371.136 79.1872 416.473 155.754 461.795 232.331C462.247 233.093 463.098 233.768 462.991 234.687C462.896 235.517 462.062 236.072 461.541 236.736C408.973 303.84 356.391 370.932 303.86 438.066C302.596 439.683 301.462 440.213 299.393 439.926C292.798 439.014 286.162 438.388 279.543 437.642C272.874 436.89 266.208 436.119 259.54 435.365C252.921 434.617 246.301 433.885 239.682 433.137C233.013 432.385 226.346 431.623 219.677 430.868C213.954 430.221 208.23 429.583 202.507 428.936C196.685 428.279 190.863 427.614 185.04 426.955C179.367 426.315 173.694 425.678 168.02 425.038C161.252 424.274 154.486 423.503 147.718 422.739C142.044 422.099 136.371 421.464 130.698 420.823C123.93 420.059 117.163 419.286 110.395 418.523C103.776 417.777 97.1568 417.042 90.5376 416.296C83.8688 415.543 77.2015 414.782 70.5328 414.027C64.8594 413.385 59.1876 412.743 53.5127 412.108C49.6302 411.675 45.7493 411.231 41.8623 410.848C40.9856 410.762 40.7044 410.374 40.5511 409.556C39.2023 402.316 37.8114 395.086 36.428 387.852C33.2673 371.32 30.1006 354.79 26.9398 338.258C23.6859 321.234 20.4365 304.208 17.1825 287.185C13.9286 270.161 10.6716 253.137 7.41468 236.113C4.97572 223.37 2.53526 210.627 0.0933025 197.885C0.00759329 197.44 -0.0179691 196.999 0.0121043 196.542C0.597032 187.741 1.17143 178.939 1.74584 170.138C2.18641 163.388 2.61797 156.635 3.05854 149.883C3.62091 141.281 4.1878 132.681 4.75167 124.08C4.87347 122.23 5.01933 120.38 5.09752 118.528C5.12459 117.875 5.35465 117.439 5.82379 116.983C30.1291 93.3848 54.4209 69.7698 78.7127 46.1563C94.3118 30.996 109.909 15.8373 125.487 0.658983C126.012 0.147575 126.513 -0.0058476 127.209 0.00016897C160.028 0.293477 192.847 0.571743 225.666 0.853018C225.665 0.860538 225.665 0.868059 225.665 0.87558ZM460.549 234.154C460.609 233.742 460.474 233.587 460.355 233.432C419.491 180.162 378.627 126.891 337.761 73.6234C337.735 73.5903 337.676 73.5708 337.633 73.5693C337.585 73.5678 337.537 73.5948 337.461 73.6174C337.433 73.7422 337.383 73.8791 337.374 74.019C337.006 79.7678 336.63 85.5152 336.28 91.2655C335.917 97.2159 335.597 103.168 335.231 109.118C334.693 117.868 334.122 126.614 333.577 135.364C333.069 143.513 332.577 151.663 332.078 159.812C331.576 168.011 331.075 176.212 330.575 184.411C330.072 192.61 329.572 200.811 329.069 209.01C328.468 218.859 327.866 228.709 327.263 238.559C326.766 246.708 326.256 254.857 325.781 263.008C325.727 263.941 325.524 264.889 325.79 265.934C370.763 255.328 415.696 244.732 460.549 234.154ZM143.386 339.58C143.525 338.831 143.655 338.204 143.762 337.573C145.011 330.167 146.253 322.759 147.506 315.353C149.659 302.614 151.82 289.875 153.973 277.137C156.051 264.842 158.107 252.544 160.227 240.257C160.44 239.019 160.215 238.276 159.183 237.48C134.266 218.269 109.374 199.027 84.5079 179.75C83.4794 178.952 82.5997 178.805 81.3802 179.098C72.5717 181.209 63.7497 183.256 54.9292 185.316C42.4066 188.242 29.881 191.159 17.3569 194.081C16.0082 194.395 16.0217 194.4 16.1856 195.754C16.8382 201.124 17.5133 206.49 18.1058 211.866C18.2516 213.184 18.7478 214.164 19.6846 215.108C60.4567 256.184 101.208 297.283 141.963 338.376C142.345 338.762 142.673 339.217 143.386 339.58ZM317.378 66.1177C317.626 65.4559 317.245 65.11 316.532 64.9656C316.338 64.9265 316.156 64.8287 315.966 64.7655C288.618 55.6459 261.267 46.5308 233.926 37.3916C232.825 37.0231 231.851 37.0051 230.743 37.4082C203.836 47.1821 176.916 56.9229 150.003 66.6788C147.829 67.4669 148.139 67.0894 148.775 69.1245C157.523 97.1331 166.284 125.139 175.039 153.144C175.677 155.186 175.677 155.187 177.51 154.217C199.369 142.641 221.228 131.064 243.087 119.486C266.893 106.878 290.697 94.2678 314.509 81.6721C315.296 81.2554 315.908 80.8704 316.003 79.8415C316.416 75.3005 316.905 70.7685 317.378 66.1177ZM315.354 83.0784C269.175 107.533 223.046 131.96 176.727 156.49C216.956 186.26 256.979 215.876 297.004 245.491C297.404 245.787 297.831 246.048 298.249 246.318C298.279 246.338 298.343 246.314 298.389 246.302C298.435 246.29 298.479 246.266 298.524 246.248C299.291 241.829 315.554 84.5375 315.354 83.0784ZM142.542 341.467C141.476 340.135 24.976 222.53 19.629 217.367C19.4516 217.195 19.2516 217.045 19.0561 216.894C19.026 216.87 18.9554 216.878 18.9117 216.894C18.7238 216.962 19.0005 217.043 18.7614 216.95C26.4933 280.557 34.2221 344.139 41.954 407.719C41.972 407.865 42.0322 408.008 42.0833 408.148C42.0984 408.191 42.1435 408.23 42.1841 408.256C42.2201 408.28 42.2683 408.283 42.4367 408.33C75.755 386.076 109.143 363.777 142.542 341.467ZM175.902 158.073C175.638 158.343 175.654 158.601 175.614 158.841C174.098 167.828 172.587 176.817 171.067 185.804C168.21 202.691 165.354 219.579 162.47 236.462C162.296 237.479 162.551 238.094 163.378 238.733C189.442 258.843 215.488 278.978 241.52 299.132C242.326 299.756 242.954 299.869 243.926 299.464C255.065 294.83 266.227 290.25 277.382 285.655C282.89 283.387 288.388 281.09 293.915 278.87C294.938 278.459 295.353 277.914 295.429 276.809C295.605 274.262 295.938 271.726 296.204 269.186C296.868 262.858 297.5 256.527 298.223 250.207C298.358 249.021 298.098 248.314 297.106 247.58C257.171 218.074 217.261 188.534 177.343 159.002C176.905 158.675 176.511 158.275 175.902 158.073ZM174.067 155.685C173.912 155.148 173.781 154.668 173.633 154.194C166.153 130.253 158.67 106.313 151.188 82.3715C149.799 77.9268 148.414 73.482 147.017 69.0403C146.665 67.9227 146.646 67.9287 145.587 68.2807C145.444 68.3288 145.3 68.3679 145.158 68.4191C119.139 77.841 93.1209 87.2675 67.0954 96.6699C66.0969 97.0309 65.4218 97.5949 64.8504 98.4914C56.0675 112.257 47.2499 126.002 38.4504 139.758C37.264 141.611 37.1904 141.147 38.9436 142.504C53.2842 153.602 67.6472 164.672 81.9607 175.804C83.0689 176.666 84.0117 176.866 85.3514 176.552C113.211 170.007 141.082 163.511 168.947 156.986C170.637 156.592 172.366 156.311 174.067 155.685ZM303.211 436.28C355.084 370.078 406.752 304.136 458.42 238.195C458.35 238.121 458.283 238.049 458.214 237.975C457.663 238.289 457.105 238.595 456.561 238.92C421.124 260.078 385.687 281.24 350.252 302.4C339.974 308.539 329.698 314.682 319.416 320.813C318.75 321.21 318.263 321.595 318.147 322.491C316.998 331.432 315.792 340.365 314.603 349.301C312.905 362.059 311.207 374.817 309.51 387.575C307.502 402.667 305.49 417.758 303.501 432.852C303.37 433.861 303.103 434.872 303.211 436.28ZM297.346 438.069C297.39 437.961 297.434 437.853 297.479 437.745C297.079 437.475 296.686 437.194 296.277 436.94C259.965 414.429 223.652 391.921 187.348 369.395C186.473 368.852 185.711 368.714 184.693 369.016C175.334 371.785 165.959 374.492 156.589 377.225C120.267 387.821 83.9455 398.42 47.6228 409.02C47.1537 409.157 46.6334 409.179 46.1312 409.706C129.953 419.168 213.651 428.619 297.346 438.069ZM289.222 338.786C287.734 338.862 189.598 367.522 188.602 368.145C190.123 369.305 288.425 430.334 299.626 437.069C299.882 437.223 300.149 437.36 300.417 437.495C300.453 437.513 300.519 437.493 300.563 437.472C300.745 437.39 300.461 437.345 300.751 437.406C296.906 404.511 293.064 371.645 289.222 338.786ZM145.949 341.597C146.33 342.14 146.755 342.314 147.125 342.543C159.809 350.41 172.501 358.263 185.171 366.15C186.013 366.675 186.735 366.784 187.69 366.502C201.566 362.428 215.455 358.394 229.338 354.344C248.506 348.754 267.673 343.157 286.839 337.56C287.189 337.457 287.637 337.498 287.819 336.982C287.46 336.693 287.117 336.408 286.762 336.135C272.453 325.074 258.134 314.026 243.85 302.93C242.816 302.127 242.026 301.96 240.772 302.479C214.133 313.502 187.47 324.472 160.815 335.454C155.911 337.475 151.012 339.505 145.949 341.597ZM161.92 239.896C156.278 273.324 150.659 306.615 145.026 339.98C146.495 339.658 239.527 301.317 240.611 300.624C239.428 299.431 163.118 240.502 161.92 239.896ZM323.825 265.137C324.22 263.821 335.8 73.6806 335.553 72.5013C335.41 72.5359 335.256 72.5419 335.131 72.6081C329.465 75.6029 323.805 78.6126 318.13 81.5923C317.512 81.9172 317.303 82.3519 317.236 83.0077C316.475 90.4322 315.691 97.8551 314.915 105.278C313.714 116.786 312.514 128.294 311.314 139.804C310.01 152.31 308.708 164.814 307.405 177.319C306.101 189.824 304.797 202.328 303.493 214.834C302.397 225.346 301.313 235.859 300.182 246.367C300.073 247.386 300.328 247.991 301.169 248.606C308.364 253.874 315.52 259.197 322.694 264.495C323.04 264.749 323.327 265.138 323.825 265.137ZM160.791 236.699C165.272 210.157 169.692 183.961 174.166 157.46C144.444 164.4 114.978 171.274 85.1785 178.252C110.5 197.825 135.526 217.17 160.791 236.699ZM318.664 319.03C318.777 319.087 318.89 319.146 319.002 319.203C364.858 291.82 410.713 264.436 456.638 237.011C456.244 236.77 456.018 236.936 455.79 236.988C446.972 239.055 438.155 241.12 429.34 243.199C404.456 249.067 379.572 254.94 354.687 260.811C345.338 263.017 335.989 265.23 326.633 267.408C325.773 267.608 325.419 267.951 325.301 268.87C324.352 276.32 323.337 283.761 322.343 291.205C321.396 298.302 320.446 305.398 319.503 312.495C319.214 314.674 318.944 316.852 318.664 319.03ZM132.385 1.60509C132.928 2.07438 133.373 2.14959 133.786 2.28797C166.258 13.1163 198.73 23.9401 231.195 34.785C232.009 35.0572 232.704 35.0301 233.502 34.7413C261.782 24.4816 290.07 14.2429 318.354 3.99517C318.702 3.86882 319.127 3.84776 319.42 3.25964C257.087 2.70762 194.877 2.15711 132.385 1.60509ZM229.427 35.9161C195.638 24.65 161.87 13.39 127.859 2.05031C128.06 2.78734 128.171 3.25513 128.316 3.7139C134.527 23.5881 140.742 43.4624 146.955 63.3351C147.134 63.9082 147.315 64.4827 147.483 65.0588C147.647 65.6169 147.981 65.7552 148.504 65.5206C148.731 65.4183 148.975 65.3521 149.211 65.2664C175.509 55.7437 201.806 46.2209 228.099 36.6862C228.548 36.5222 229.107 36.5087 229.427 35.9161ZM452.942 221.049C453.145 220.665 452.978 220.51 452.883 220.351C410.886 149.45 368.885 78.5495 326.882 7.65324C326.862 7.62166 326.791 7.6021 326.748 7.60661C326.548 7.62617 326.806 7.78862 326.609 7.62767C326.632 7.86081 326.638 8.05936 326.671 8.2534C328.454 18.5147 330.238 28.7759 332.024 39.0372C333.777 49.1014 335.544 59.1626 337.27 69.2298C337.43 70.1609 337.806 70.9084 338.367 71.641C375.142 119.59 411.907 167.548 448.673 215.503C450.074 217.331 451.482 219.152 452.942 221.049ZM126.108 2.88812C106.481 33.532 86.9333 64.051 67.1916 94.8739C68.0006 94.6182 68.4682 94.4889 68.9223 94.3249C90.8068 86.4026 112.69 78.4773 134.574 70.555C138.103 69.2764 141.638 68.0115 145.164 66.7254C146.151 66.3659 146.143 66.3434 145.859 65.3401C145.819 65.1957 145.766 65.0543 145.721 64.9114C139.432 44.7905 133.146 24.6696 126.845 4.55321C126.683 4.03729 126.639 3.4612 126.108 2.88812ZM317.651 63.6028C319.736 43.6203 321.805 23.7852 323.901 3.70036C294.159 14.4715 264.649 25.1569 235.141 35.8439C235.153 35.9296 235.164 36.0168 235.176 36.1026C262.588 45.2433 290.001 54.3839 317.651 63.6028ZM183.968 367.575C183.688 367.02 183.236 366.872 182.861 366.641C170.262 358.824 157.654 351.023 145.073 343.178C144.201 342.633 143.637 342.681 142.816 343.236C137.007 347.168 131.164 351.046 125.331 354.942C99.7942 371.997 74.2559 389.053 48.7235 406.116C48.2589 406.427 47.683 406.636 47.262 407.442C92.9781 394.109 138.458 380.846 183.968 367.575ZM9.49425 115.63C10.2115 115.675 10.601 115.445 11.0069 115.297C28.3698 109.011 45.7297 102.718 63.1016 96.4563C64.1467 96.0787 64.8669 95.5042 65.4684 94.5641C75.8182 78.3509 86.198 62.1588 96.5718 45.9637C104.433 33.6899 112.297 21.4176 120.148 9.13783C120.44 8.68208 120.933 8.27596 120.84 7.39453C83.6764 43.5195 46.659 79.5031 9.49425 115.63ZM81.4193 177.414C78.8706 175.44 76.6196 173.697 74.3671 171.955C62.1257 162.491 49.8844 153.027 37.6415 143.566C36.5603 142.731 36.5393 142.731 35.8626 143.786C28.7563 154.873 21.6574 165.964 14.5436 177.047C14.1722 177.626 14.0383 178.179 14.1271 178.874C14.6699 183.144 15.1646 187.421 15.6864 191.694C15.8022 192.642 15.8864 192.687 16.8352 192.518C17.0803 192.475 17.3194 192.392 17.563 192.335C36.2656 187.973 54.9698 183.614 73.6724 179.25C76.1505 178.674 78.624 178.077 81.4193 177.414ZM295.043 280.35C292.771 280.902 245.217 300.616 244.402 301.332C259.075 312.675 273.734 324.007 288.397 335.337C288.553 335.457 288.732 335.547 288.906 335.643C288.942 335.663 289.001 335.649 289.046 335.64C289.094 335.631 289.141 335.609 289.282 335.559C291.195 317.236 293.111 298.869 295.043 280.35ZM323.664 268.629C322.993 268.515 322.607 268.796 322.199 268.965C314.142 272.275 306.099 275.619 298.025 278.883C297.008 279.294 296.695 279.897 296.596 280.872C295.685 289.791 294.753 298.709 293.822 307.627C292.95 315.996 292.07 324.365 291.199 332.734C291.099 333.703 291.034 334.676 290.963 335.511C291.284 335.765 291.421 335.665 291.542 335.592C299.716 330.717 307.886 325.835 316.066 320.971C316.655 320.62 316.854 320.149 316.938 319.51C317.723 313.501 318.53 307.495 319.329 301.487C320.51 292.601 321.694 283.714 322.871 274.826C323.14 272.797 323.392 270.765 323.664 268.629ZM301.688 431.555C301.794 431.564 301.9 431.572 302.006 431.581C304.421 413.495 306.818 395.408 309.222 377.32C311.631 359.189 314.061 341.06 316.445 322.97C316.009 322.821 315.843 322.964 315.679 323.061C307.638 327.858 299.603 332.668 291.548 337.444C290.849 337.858 290.76 338.339 290.846 339.049C291.488 344.369 292.103 349.694 292.727 355.017C293.589 362.38 294.452 369.742 295.312 377.105C296.156 384.319 296.995 391.533 297.838 398.747C298.698 406.109 299.561 413.472 300.424 420.835C300.843 424.407 301.265 427.981 301.688 431.555ZM37.0836 382.946C37.1588 382.914 37.234 382.883 37.3092 382.849C37.1212 381.261 36.9377 379.673 36.7453 378.086C35.7995 370.278 34.8537 362.468 33.9033 354.66C32.947 346.803 31.9847 338.945 31.0283 331.087C30.1818 324.125 29.3412 317.161 28.4931 310.198C27.5368 302.34 26.5729 294.483 25.6181 286.625C24.6753 278.867 23.74 271.107 22.7957 263.348C21.8394 255.491 20.874 247.633 19.9147 239.775C18.9358 231.769 17.9494 223.764 16.9991 215.753C16.8983 214.906 16.5961 214.273 15.9946 213.671C11.7062 209.384 7.44926 205.066 3.17282 200.767C2.91269 200.505 2.73074 200.09 2.13228 200.125C13.7857 261.085 25.4347 322.014 37.0836 382.946ZM62.8174 98.5997C62.7558 98.5049 62.6956 98.4087 62.634 98.3139C44.3764 104.926 26.1173 111.538 7.84172 118.157C8.10035 118.833 8.58604 119.036 8.96646 119.331C17.596 126.014 26.2301 132.69 34.8687 139.36C36.2611 140.436 36.0085 140.516 37.0099 138.951C45.3553 125.925 53.6977 112.898 62.04 99.8707C62.3077 99.451 62.5588 99.0239 62.8174 98.5997ZM6.96959 120.112C9.20104 138.438 11.4174 156.645 13.6369 174.876C14.2308 174.742 14.321 174.365 14.5 174.085C21.2078 163.628 27.9112 153.167 34.6116 142.704C35.2311 141.735 35.2206 141.728 34.3785 141.042C34.2612 140.947 34.1409 140.857 34.0221 140.765C25.5399 134.209 17.0592 127.649 8.571 121.1C8.14245 120.769 7.77105 120.341 6.96959 120.112ZM335.525 69.3847C335.534 69.2012 335.58 69.0012 335.549 68.8147C332.114 49.1315 328.675 29.4513 325.231 9.76957C325.226 9.7425 325.163 9.71241 325.124 9.70489C324.927 9.6703 325.091 9.89592 324.963 9.71241C324.918 9.86734 324.855 10.0072 324.84 10.1501C324.21 16.1787 323.584 22.2088 322.955 28.2374C322.306 34.4646 321.652 40.6932 321.002 46.9204C320.45 52.2014 319.894 57.4825 319.359 62.765C319.222 64.1142 319.252 64.1278 320.523 64.5549C325.125 66.0997 329.728 67.6429 334.335 69.1666C334.695 69.2855 335.05 69.5306 335.525 69.3847ZM299.874 249.667C298.894 259.089 297.948 268.178 296.971 277.573C305.788 273.939 314.312 270.427 323.059 266.821C315.261 261.053 307.707 255.462 299.874 249.667ZM6.31549 128.07C5.44938 133.594 1.76839 191.911 2.03755 193.24C2.12025 193.204 2.24054 193.191 2.28114 193.126C5.53358 188.072 8.78001 183.014 12.0324 177.96C12.2956 177.551 12.3076 177.14 12.249 176.672C11.6219 171.653 11.01 166.632 10.3995 161.61C9.45065 153.803 8.51085 145.997 7.56204 138.192C7.15153 134.818 6.73051 131.444 6.31549 128.07ZM319.055 65.8034C318.557 70.5504 318.075 75.1441 317.56 80.0446C323.313 76.9972 328.799 74.0927 334.284 71.1867C334.271 71.0799 334.257 70.9746 334.242 70.8678C329.244 69.2012 324.246 67.5346 319.055 65.8034ZM2.5909 197.835C7.10793 202.391 11.646 206.969 16.3435 211.705C16.3751 211.249 16.4096 211.102 16.3916 210.961C15.7871 205.949 15.1872 200.935 14.5631 195.925C14.4233 194.799 14.3707 194.776 13.2294 195.042C10.0687 195.778 6.91095 196.528 3.75474 197.286C3.38484 197.374 2.93374 197.286 2.5909 197.835ZM2.75931 195.471C2.99238 195.716 3.13974 195.7 3.2856 195.666C6.64329 194.892 9.99648 194.098 13.3617 193.355C14.1722 193.176 14.2188 192.711 14.1361 192.049C13.7045 188.626 13.2985 185.201 12.861 181.779C12.8083 181.364 12.858 180.896 12.4264 180.38C9.16194 185.473 5.94709 190.494 2.75931 195.471Z" fill="#0075FF"/>
</svg>
