<svg width="410" height="411" viewBox="0 0 410 411" fill="none" xmlns="http://www.w3.org/2000/svg">
<mask id="path-1-inside-1_102_10080" fill="white">
<path d="M369.116 266.241C372.153 262.297 377.859 255.711 382.655 248.523C406.646 212.584 414.527 173.109 407.119 130.693C398.043 76.5412 358.095 29.4067 306.592 10.6384C203.413 -28.7547 90.3993 50.2335 92.0009 160.654C92.34 171.082 87.1971 180.204 79.5029 187.086C71.1506 194.851 63.6146 203.481 55.5092 211.528C51.0046 215.992 47.9019 221.227 46.5885 227.247C45.173 233.732 41.6614 238.372 36.5403 242.282C34.0057 244.22 31.9603 246.803 29.7012 249.099C27.7762 251.059 25.9985 253.202 23.9025 254.954C18.9666 259.085 14.5236 263.582 12.5733 269.884C9.96519 278.292 7.10117 286.531 3.42369 294.602C-0.295944 302.764 0.949929 311.841 2.4544 320.601C2.82689 322.769 3.27521 324.993 3.17514 327.162C2.96214 331.827 2.42773 336.475 2.00202 341.126C1.44509 347.239 1.09575 353.265 3.71822 359.152C12.6106 379.073 26.8278 394.034 45.6876 404.752C53.1946 409.018 60.9878 411.591 69.895 410.289C79.4492 408.885 88.9891 408.616 98.725 410.132C109.184 411.763 119.375 409.927 128.052 402.974C128.834 402.347 130.095 402.215 131.167 402.073C142.55 400.573 151.863 395.626 158.445 385.974C162.571 381.416 167.214 377.22 171.468 372.742C174.73 369.417 177.977 366.2 182.845 365.164C190.565 363.522 197.076 359.626 202.615 354.014C211.431 345.071 220.308 336.19 229.161 327.275C234.95 321.449 241.999 318.576 250.165 318.591C273.774 318.629 296.319 313.819 317.772 303.952C336.286 295.424 352.414 283.57 369.116 266.241ZM43.2753 397.05C28.4128 387.37 16.9971 374.623 9.2541 358.535C6.03302 351.847 6.78642 345.223 7.86151 337.507C22.5883 367.706 44.6395 389.554 74.4202 403.868C62.3151 407.871 52.571 403.109 43.2753 397.05ZM65.3805 393.243C34.3483 375.551 -2.45787 331.882 8.69975 294C15.2508 345.468 74.2272 398.103 119.065 402.136C102.023 410.005 80.4002 402.044 65.3805 393.243ZM127.12 396.957C82.9502 398.031 35.6379 354.04 20.3119 314.557C13.7544 299.504 10.3659 275.687 23.1422 263.387C13.8372 321.53 90.8373 398.07 148.824 388.412C142.828 394.428 135.275 396.604 127.12 396.957ZM90.5535 368.267C58.7934 348.159 26.9407 310.703 27.6203 271.266C27.8868 263.434 31.0814 255.138 36.5037 249.71C25.8578 308.132 104.087 384.753 162.056 375.407C142.996 392.92 109.466 380.384 90.5535 368.267ZM43.9761 244.095C47.4894 299.327 112.298 364.188 168.789 366.789C150.622 375.821 127.589 368.664 111.065 359.51C81.4933 343.003 59.1573 319.667 46.1594 288.105C40.3247 274.192 37.8857 258.575 43.9761 244.095ZM131.475 351.31C91.9532 331.672 53.5378 289.748 49.9735 244.265C49.3675 233.29 52.0825 223.247 59.0281 214.67C62.1646 210.797 66.017 207.502 70.1024 203.384C69.6706 207.682 69.3243 210.915 69.0206 214.153C67.6244 229.063 71.9745 242.793 78.0901 256.033C98.3512 300.666 155.715 350.647 207.507 341.056C190.18 367.782 157.017 364.45 131.475 351.31ZM233.435 85.2434C237.261 81.3769 241.392 78.0195 247.227 80.2409C253.11 82.481 254.884 87.6579 255.228 93.3839C256.268 117.282 238.48 115.76 237.587 133.569C237.463 136.873 238.35 144.756 243.215 140.82C245.245 139.087 247.023 137.067 248.973 135.244C256.699 128.035 266.098 130.611 268.563 140.879C271.009 151.063 268.115 160.11 260.948 167.581C256.887 171.817 252.782 175.925 252.046 182.029C251.703 184.842 251.771 187.81 252.26 190.6C252.791 193.604 255.081 194.313 257.465 192.375C259.533 190.699 261.311 188.669 263.231 186.819C270.58 179.744 279.927 182.098 282.485 191.969C285.336 202.959 281.82 212.414 274.063 220.318C259.548 235.1 244.92 249.76 230.305 264.444C226.775 267.993 223.231 271.537 219.497 274.855C214.538 279.255 208.78 280.942 202.158 279.352C197.726 278.287 193.145 277.781 188.787 276.489C182.736 274.694 178.156 276.806 174.047 280.966C170.131 284.923 166.092 288.767 162.323 292.86C160.036 295.345 158.363 293.977 156.74 292.395C155.137 290.833 154.147 289.173 156.44 287.071C159.807 283.991 163.164 280.844 166.084 277.35C173.689 268.261 182.974 265.705 194.197 269.157C197.372 270.132 200.719 270.544 203.945 271.373C208.761 272.762 212.858 270.189 216.143 266.934C233.878 249.077 251.618 231.224 269.324 213.329C274.021 208.584 275.623 202.652 275.054 196.185C274.906 194.522 273.843 192.131 272.579 191.621C271.457 191.167 269.284 192.617 267.909 193.671C265.892 195.22 264.322 197.353 262.306 198.892C254.919 204.525 246.472 201.596 244.314 192.518C241.94 182.509 244.229 173.427 251.382 165.998C255.947 161.254 260.261 156.516 260.915 149.662C261.265 146.159 261.135 136.146 255.383 140.71C253.363 142.452 251.585 144.472 249.607 146.266C241.744 153.405 232.059 150.395 229.976 139.951C228.052 130.285 230.488 121.538 237.317 114.38C244.405 107.339 248.224 101.611 246.567 91.1454C245.934 87.5896 243.441 86.9237 240.809 89.4056C237.81 92.2293 234.972 95.2224 232.068 98.1496C225.714 104.554 219.365 110.954 213.011 117.359C213.016 117.364 213.016 117.364 213.02 117.369C204.158 126.302 195.195 135.137 186.47 144.197C180.333 150.573 177.701 158.749 175.47 167.098C173.152 175.803 170.63 184.456 168.202 193.127C163.59 209.855 154.834 215.901 143.63 227.707C141.371 230.145 139.758 228.451 138.348 227.005C136.949 225.579 135.269 223.989 137.699 221.711C141.672 217.981 145.328 213.907 149.268 210.134C154.828 204.815 158.19 198.257 160.316 191.009C163.855 178.949 167.1 166.806 170.828 154.802C172.895 148.145 176.728 142.393 181.689 137.411C198.958 120.052 216.194 102.65 233.435 85.2434ZM225.43 276.637C226.461 275.635 227.477 274.62 228.499 273.609L228.499 273.619C229.049 278.919 232.109 291.434 232.357 296.735C234.123 321.457 215.85 339.326 191.179 337.198C190.18 330.899 189.546 324.611 188.127 318.507C185.824 308.588 181.695 299.333 176.359 290.668C174.908 288.306 175.186 286.944 177.111 285.051C180.387 281.815 183.75 280.228 188.463 281.712C192.158 282.874 196.129 283.133 199.876 284.167C210.014 286.957 218.284 283.593 225.43 276.637ZM168.624 292.022C169.469 291.976 170.315 291.94 171.161 291.894C179.31 305.646 185.124 320.159 185.441 336.881C172.584 334.981 160.966 330.561 149.542 324.236C155.35 318.382 160.771 312.661 166.491 307.247C171.177 303.131 172.127 297.164 168.624 292.022ZM122.915 301.877C121.291 303.552 120.223 303.594 118.601 301.937C113.718 296.942 108.713 292.071 103.532 286.932C115.003 275.37 125.983 264.301 137.303 252.891C144.951 260.479 152.527 267.995 160.052 275.46C158.085 278.884 156.232 279.889 153.076 278.791C149.337 277.483 145.939 278.536 143.078 281.477C136.399 288.323 129.569 295.008 122.915 301.877ZM152.328 229.747C151.591 227.425 152.181 226.043 153.824 224.576C161.665 217.575 167.865 209.503 171.527 199.768C171.527 199.768 171.527 199.768 171.532 199.772C179.417 207.595 196.39 224.057 203.945 232.193C207.932 236.487 211.161 241.479 215.374 247.005C218.041 251.044 219.818 253.39 221.033 254.709C218.039 257.726 215.046 260.743 212.053 263.761C209.76 266.071 207.184 266.97 203.891 266.132C199.691 265.062 195.379 264.446 191.183 263.371C179.806 260.472 172.445 264.306 164.115 271.81C156.496 264.251 148.896 256.711 140.963 248.841C143.834 245.947 146.507 242.978 149.473 240.339C152.826 237.349 153.596 233.726 152.328 229.747ZM123.502 225.042C123.554 224.99 123.705 225.027 124.06 225.011C127.078 232.863 132.61 238.398 140.905 241.432C127.341 255.105 113.988 268.564 100.131 282.531C95.8191 275.919 91.6781 269.636 87.6645 263.272C87.2935 262.688 87.4484 261.213 87.9284 260.72C99.7374 248.778 111.622 236.912 123.502 225.042ZM133.677 218.088C130.246 222.657 130.497 226.37 134.289 230.471C138.119 234.61 142.218 235.071 147.176 231.923C147.846 235.233 146.586 236.75 143.433 236.446C137.311 235.851 129.696 228.297 128.93 222.067C128.52 218.789 129.72 217.711 133.677 218.088ZM241.812 95.7292C241.428 101.382 239.397 105.261 235.837 108.394C228.505 114.845 224.692 123.092 224.295 132.705C224.136 136.605 224.715 140.775 226.015 144.446C229.958 155.616 242.29 158.832 251.546 151.409C252.837 150.374 254.018 149.193 255.784 147.593C255.628 152.315 254.054 155.742 251.074 158.528C245.603 163.644 241.33 169.488 239.441 176.857C237.692 183.698 237.449 190.461 240.396 197.103C244.935 207.311 256.638 210.137 265.366 203.076C266.732 201.974 268.06 200.825 269.779 199.386C269.64 203.683 268.316 206.991 265.661 209.676C251.923 223.563 238.16 237.435 224.403 251.302C212.388 231.786 189.986 209.533 173.035 195.116C175.979 184.51 179.018 173.932 181.962 163.325C183.849 156.527 187.228 150.682 192.236 145.672C208.884 129.005 225.207 112.467 241.812 95.7292ZM151.589 284.009C148.775 289.303 149.337 292.779 153.629 296.651C157.565 300.199 160.969 300.525 164.965 297.74C165.951 300.978 164.748 302.533 161.472 302.248C155.473 301.729 147.423 293.864 146.789 287.908C146.421 284.521 148.018 283.225 151.589 284.009ZM141.711 290.664C146.384 299.96 149.093 302.657 158.756 307.434C154.243 311.983 149.866 316.443 145.399 320.803C145.05 321.145 143.84 321.055 143.333 320.712C137.202 316.54 131.131 312.278 124.706 307.805C130.551 301.913 136.039 296.381 141.711 290.664ZM152.593 196.497C150.173 203.567 144.104 208.061 138.912 213.058C138.432 213.523 137.065 213.344 136.209 213.107C131.592 211.84 127.787 212.734 124.46 216.438C120.819 220.497 116.751 224.161 113 228.122C111.579 229.631 110.446 229.815 108.406 229.138C100.935 226.667 93.3975 224.302 85.7583 222.418C82.0451 221.502 78.0435 221.749 73.8271 221.445C71.4333 193.446 92.1458 175.699 119.267 179.693C125.621 180.368 131.839 182.394 138.097 183.914C139.402 184.23 149.674 188.66 155.096 188.983C154.283 191.491 153.448 193.994 152.593 196.497ZM106.72 234.016C99.1466 241.65 91.7948 249.06 84.2217 256.694C79.3687 247.21 76.0504 237.46 74.4526 226.64C85.9828 226.595 96.3198 229.516 106.72 234.016ZM318.677 297.498C296.906 308.198 273.894 313.317 249.671 313.262C244.246 313.237 240.173 314.571 234.765 316.436C237.992 306.74 238.314 297.373 236.811 287.919C236.375 285.179 232.668 272.766 232.081 270.046C232.081 270.046 232.076 270.042 232.081 270.037C236.241 265.852 240.364 261.63 244.52 257.441C255.661 246.211 266.811 235.001 277.938 223.757C285.845 215.767 289.318 206.099 288.418 194.946C287.881 188.266 285 182.668 279.046 179.257C273.514 176.093 266.128 177.295 261.019 181.809C259.799 182.887 258.713 184.115 256.886 185.956C257.139 180.624 258.788 176.951 262.004 174.051C268.436 168.26 272.855 161.234 273.917 152.639C274.48 148.105 274.484 143.195 273.342 138.814C269.949 125.771 256.23 121.97 246.077 130.885C245.103 131.744 244.161 132.636 242.758 133.927C243.221 129.152 244.587 125.593 247.779 122.764C257.882 114.27 262.101 101.031 259.593 88.1874C257.313 74.5538 241.151 69.5995 231.674 79.7593C215 95.987 199.243 113.189 182.375 129.196C171.532 139.205 165.504 151.506 161.935 165.541C160.255 172.149 158.353 178.716 156.305 185.231C151.711 182.66 141.236 179.46 139.74 178.965C125.1 174.118 110.343 171.847 95.2215 176.736C95.0421 176.794 94.8006 176.667 94.1764 176.547C98.627 168.009 97.1016 158.739 97.6943 149.744C102.331 58.4179 191.601 -10.5663 281.219 9.08535C358.114 22.2521 413.151 99.2583 403.472 176.243C401.358 198.395 394.433 219.088 383.002 238.163C367.402 264.211 345.989 284.068 318.677 297.498Z"/>
</mask>
<path d="M369.116 266.241C372.153 262.297 377.859 255.711 382.655 248.523C406.646 212.584 414.527 173.109 407.119 130.693C398.043 76.5412 358.095 29.4067 306.592 10.6384C203.413 -28.7547 90.3993 50.2335 92.0009 160.654C92.34 171.082 87.1971 180.204 79.5029 187.086C71.1506 194.851 63.6146 203.481 55.5092 211.528C51.0046 215.992 47.9019 221.227 46.5885 227.247C45.173 233.732 41.6614 238.372 36.5403 242.282C34.0057 244.22 31.9603 246.803 29.7012 249.099C27.7762 251.059 25.9985 253.202 23.9025 254.954C18.9666 259.085 14.5236 263.582 12.5733 269.884C9.96519 278.292 7.10117 286.531 3.42369 294.602C-0.295944 302.764 0.949929 311.841 2.4544 320.601C2.82689 322.769 3.27521 324.993 3.17514 327.162C2.96214 331.827 2.42773 336.475 2.00202 341.126C1.44509 347.239 1.09575 353.265 3.71822 359.152C12.6106 379.073 26.8278 394.034 45.6876 404.752C53.1946 409.018 60.9878 411.591 69.895 410.289C79.4492 408.885 88.9891 408.616 98.725 410.132C109.184 411.763 119.375 409.927 128.052 402.974C128.834 402.347 130.095 402.215 131.167 402.073C142.55 400.573 151.863 395.626 158.445 385.974C162.571 381.416 167.214 377.22 171.468 372.742C174.73 369.417 177.977 366.2 182.845 365.164C190.565 363.522 197.076 359.626 202.615 354.014C211.431 345.071 220.308 336.19 229.161 327.275C234.95 321.449 241.999 318.576 250.165 318.591C273.774 318.629 296.319 313.819 317.772 303.952C336.286 295.424 352.414 283.57 369.116 266.241ZM43.2753 397.05C28.4128 387.37 16.9971 374.623 9.2541 358.535C6.03302 351.847 6.78642 345.223 7.86151 337.507C22.5883 367.706 44.6395 389.554 74.4202 403.868C62.3151 407.871 52.571 403.109 43.2753 397.05ZM65.3805 393.243C34.3483 375.551 -2.45787 331.882 8.69975 294C15.2508 345.468 74.2272 398.103 119.065 402.136C102.023 410.005 80.4002 402.044 65.3805 393.243ZM127.12 396.957C82.9502 398.031 35.6379 354.04 20.3119 314.557C13.7544 299.504 10.3659 275.687 23.1422 263.387C13.8372 321.53 90.8373 398.07 148.824 388.412C142.828 394.428 135.275 396.604 127.12 396.957ZM90.5535 368.267C58.7934 348.159 26.9407 310.703 27.6203 271.266C27.8868 263.434 31.0814 255.138 36.5037 249.71C25.8578 308.132 104.087 384.753 162.056 375.407C142.996 392.92 109.466 380.384 90.5535 368.267ZM43.9761 244.095C47.4894 299.327 112.298 364.188 168.789 366.789C150.622 375.821 127.589 368.664 111.065 359.51C81.4933 343.003 59.1573 319.667 46.1594 288.105C40.3247 274.192 37.8857 258.575 43.9761 244.095ZM131.475 351.31C91.9532 331.672 53.5378 289.748 49.9735 244.265C49.3675 233.29 52.0825 223.247 59.0281 214.67C62.1646 210.797 66.017 207.502 70.1024 203.384C69.6706 207.682 69.3243 210.915 69.0206 214.153C67.6244 229.063 71.9745 242.793 78.0901 256.033C98.3512 300.666 155.715 350.647 207.507 341.056C190.18 367.782 157.017 364.45 131.475 351.31ZM233.435 85.2434C237.261 81.3769 241.392 78.0195 247.227 80.2409C253.11 82.481 254.884 87.6579 255.228 93.3839C256.268 117.282 238.48 115.76 237.587 133.569C237.463 136.873 238.35 144.756 243.215 140.82C245.245 139.087 247.023 137.067 248.973 135.244C256.699 128.035 266.098 130.611 268.563 140.879C271.009 151.063 268.115 160.11 260.948 167.581C256.887 171.817 252.782 175.925 252.046 182.029C251.703 184.842 251.771 187.81 252.26 190.6C252.791 193.604 255.081 194.313 257.465 192.375C259.533 190.699 261.311 188.669 263.231 186.819C270.58 179.744 279.927 182.098 282.485 191.969C285.336 202.959 281.82 212.414 274.063 220.318C259.548 235.1 244.92 249.76 230.305 264.444C226.775 267.993 223.231 271.537 219.497 274.855C214.538 279.255 208.78 280.942 202.158 279.352C197.726 278.287 193.145 277.781 188.787 276.489C182.736 274.694 178.156 276.806 174.047 280.966C170.131 284.923 166.092 288.767 162.323 292.86C160.036 295.345 158.363 293.977 156.74 292.395C155.137 290.833 154.147 289.173 156.44 287.071C159.807 283.991 163.164 280.844 166.084 277.35C173.689 268.261 182.974 265.705 194.197 269.157C197.372 270.132 200.719 270.544 203.945 271.373C208.761 272.762 212.858 270.189 216.143 266.934C233.878 249.077 251.618 231.224 269.324 213.329C274.021 208.584 275.623 202.652 275.054 196.185C274.906 194.522 273.843 192.131 272.579 191.621C271.457 191.167 269.284 192.617 267.909 193.671C265.892 195.22 264.322 197.353 262.306 198.892C254.919 204.525 246.472 201.596 244.314 192.518C241.94 182.509 244.229 173.427 251.382 165.998C255.947 161.254 260.261 156.516 260.915 149.662C261.265 146.159 261.135 136.146 255.383 140.71C253.363 142.452 251.585 144.472 249.607 146.266C241.744 153.405 232.059 150.395 229.976 139.951C228.052 130.285 230.488 121.538 237.317 114.38C244.405 107.339 248.224 101.611 246.567 91.1454C245.934 87.5896 243.441 86.9237 240.809 89.4056C237.81 92.2293 234.972 95.2224 232.068 98.1496C225.714 104.554 219.365 110.954 213.011 117.359C213.016 117.364 213.016 117.364 213.02 117.369C204.158 126.302 195.195 135.137 186.47 144.197C180.333 150.573 177.701 158.749 175.47 167.098C173.152 175.803 170.63 184.456 168.202 193.127C163.59 209.855 154.834 215.901 143.63 227.707C141.371 230.145 139.758 228.451 138.348 227.005C136.949 225.579 135.269 223.989 137.699 221.711C141.672 217.981 145.328 213.907 149.268 210.134C154.828 204.815 158.19 198.257 160.316 191.009C163.855 178.949 167.1 166.806 170.828 154.802C172.895 148.145 176.728 142.393 181.689 137.411C198.958 120.052 216.194 102.65 233.435 85.2434ZM225.43 276.637C226.461 275.635 227.477 274.62 228.499 273.609L228.499 273.619C229.049 278.919 232.109 291.434 232.357 296.735C234.123 321.457 215.85 339.326 191.179 337.198C190.18 330.899 189.546 324.611 188.127 318.507C185.824 308.588 181.695 299.333 176.359 290.668C174.908 288.306 175.186 286.944 177.111 285.051C180.387 281.815 183.75 280.228 188.463 281.712C192.158 282.874 196.129 283.133 199.876 284.167C210.014 286.957 218.284 283.593 225.43 276.637ZM168.624 292.022C169.469 291.976 170.315 291.94 171.161 291.894C179.31 305.646 185.124 320.159 185.441 336.881C172.584 334.981 160.966 330.561 149.542 324.236C155.35 318.382 160.771 312.661 166.491 307.247C171.177 303.131 172.127 297.164 168.624 292.022ZM122.915 301.877C121.291 303.552 120.223 303.594 118.601 301.937C113.718 296.942 108.713 292.071 103.532 286.932C115.003 275.37 125.983 264.301 137.303 252.891C144.951 260.479 152.527 267.995 160.052 275.46C158.085 278.884 156.232 279.889 153.076 278.791C149.337 277.483 145.939 278.536 143.078 281.477C136.399 288.323 129.569 295.008 122.915 301.877ZM152.328 229.747C151.591 227.425 152.181 226.043 153.824 224.576C161.665 217.575 167.865 209.503 171.527 199.768C171.527 199.768 171.527 199.768 171.532 199.772C179.417 207.595 196.39 224.057 203.945 232.193C207.932 236.487 211.161 241.479 215.374 247.005C218.041 251.044 219.818 253.39 221.033 254.709C218.039 257.726 215.046 260.743 212.053 263.761C209.76 266.071 207.184 266.97 203.891 266.132C199.691 265.062 195.379 264.446 191.183 263.371C179.806 260.472 172.445 264.306 164.115 271.81C156.496 264.251 148.896 256.711 140.963 248.841C143.834 245.947 146.507 242.978 149.473 240.339C152.826 237.349 153.596 233.726 152.328 229.747ZM123.502 225.042C123.554 224.99 123.705 225.027 124.06 225.011C127.078 232.863 132.61 238.398 140.905 241.432C127.341 255.105 113.988 268.564 100.131 282.531C95.8191 275.919 91.6781 269.636 87.6645 263.272C87.2935 262.688 87.4484 261.213 87.9284 260.72C99.7374 248.778 111.622 236.912 123.502 225.042ZM133.677 218.088C130.246 222.657 130.497 226.37 134.289 230.471C138.119 234.61 142.218 235.071 147.176 231.923C147.846 235.233 146.586 236.75 143.433 236.446C137.311 235.851 129.696 228.297 128.93 222.067C128.52 218.789 129.72 217.711 133.677 218.088ZM241.812 95.7292C241.428 101.382 239.397 105.261 235.837 108.394C228.505 114.845 224.692 123.092 224.295 132.705C224.136 136.605 224.715 140.775 226.015 144.446C229.958 155.616 242.29 158.832 251.546 151.409C252.837 150.374 254.018 149.193 255.784 147.593C255.628 152.315 254.054 155.742 251.074 158.528C245.603 163.644 241.33 169.488 239.441 176.857C237.692 183.698 237.449 190.461 240.396 197.103C244.935 207.311 256.638 210.137 265.366 203.076C266.732 201.974 268.06 200.825 269.779 199.386C269.64 203.683 268.316 206.991 265.661 209.676C251.923 223.563 238.16 237.435 224.403 251.302C212.388 231.786 189.986 209.533 173.035 195.116C175.979 184.51 179.018 173.932 181.962 163.325C183.849 156.527 187.228 150.682 192.236 145.672C208.884 129.005 225.207 112.467 241.812 95.7292ZM151.589 284.009C148.775 289.303 149.337 292.779 153.629 296.651C157.565 300.199 160.969 300.525 164.965 297.74C165.951 300.978 164.748 302.533 161.472 302.248C155.473 301.729 147.423 293.864 146.789 287.908C146.421 284.521 148.018 283.225 151.589 284.009ZM141.711 290.664C146.384 299.96 149.093 302.657 158.756 307.434C154.243 311.983 149.866 316.443 145.399 320.803C145.05 321.145 143.84 321.055 143.333 320.712C137.202 316.54 131.131 312.278 124.706 307.805C130.551 301.913 136.039 296.381 141.711 290.664ZM152.593 196.497C150.173 203.567 144.104 208.061 138.912 213.058C138.432 213.523 137.065 213.344 136.209 213.107C131.592 211.84 127.787 212.734 124.46 216.438C120.819 220.497 116.751 224.161 113 228.122C111.579 229.631 110.446 229.815 108.406 229.138C100.935 226.667 93.3975 224.302 85.7583 222.418C82.0451 221.502 78.0435 221.749 73.8271 221.445C71.4333 193.446 92.1458 175.699 119.267 179.693C125.621 180.368 131.839 182.394 138.097 183.914C139.402 184.23 149.674 188.66 155.096 188.983C154.283 191.491 153.448 193.994 152.593 196.497ZM106.72 234.016C99.1466 241.65 91.7948 249.06 84.2217 256.694C79.3687 247.21 76.0504 237.46 74.4526 226.64C85.9828 226.595 96.3198 229.516 106.72 234.016ZM318.677 297.498C296.906 308.198 273.894 313.317 249.671 313.262C244.246 313.237 240.173 314.571 234.765 316.436C237.992 306.74 238.314 297.373 236.811 287.919C236.375 285.179 232.668 272.766 232.081 270.046C232.081 270.046 232.076 270.042 232.081 270.037C236.241 265.852 240.364 261.63 244.52 257.441C255.661 246.211 266.811 235.001 277.938 223.757C285.845 215.767 289.318 206.099 288.418 194.946C287.881 188.266 285 182.668 279.046 179.257C273.514 176.093 266.128 177.295 261.019 181.809C259.799 182.887 258.713 184.115 256.886 185.956C257.139 180.624 258.788 176.951 262.004 174.051C268.436 168.26 272.855 161.234 273.917 152.639C274.48 148.105 274.484 143.195 273.342 138.814C269.949 125.771 256.23 121.97 246.077 130.885C245.103 131.744 244.161 132.636 242.758 133.927C243.221 129.152 244.587 125.593 247.779 122.764C257.882 114.27 262.101 101.031 259.593 88.1874C257.313 74.5538 241.151 69.5995 231.674 79.7593C215 95.987 199.243 113.189 182.375 129.196C171.532 139.205 165.504 151.506 161.935 165.541C160.255 172.149 158.353 178.716 156.305 185.231C151.711 182.66 141.236 179.46 139.74 178.965C125.1 174.118 110.343 171.847 95.2215 176.736C95.0421 176.794 94.8006 176.667 94.1764 176.547C98.627 168.009 97.1016 158.739 97.6943 149.744C102.331 58.4179 191.601 -10.5663 281.219 9.08535C358.114 22.2521 413.151 99.2583 403.472 176.243C401.358 198.395 394.433 219.088 383.002 238.163C367.402 264.211 345.989 284.068 318.677 297.498Z" fill="#0075FF" stroke="#151515" stroke-width="2" mask="url(#path-1-inside-1_102_10080)"/>
</svg>
