<svg width="458" height="484" viewBox="0 0 458 484" fill="none" xmlns="http://www.w3.org/2000/svg">
<path d="M235.466 43.3365C235.884 36.6987 236.408 29.9009 236.703 23.0981C236.827 20.2848 237.699 18.7383 240.628 17.7104C255.869 12.3701 270.985 6.64897 286.236 1.30631C288.606 0.47916 291.48 0.474692 294.007 0.855528C368.091 11.2869 427.246 63.2863 455.675 131.241C458.332 137.525 458.332 137.484 452.113 140.362C398.502 165.23 344.822 189.94 291.364 215.131C279.991 220.487 268.368 223.721 255.976 224.446C252.096 224.67 250.367 225.966 250.463 230.116C250.562 234.904 249.954 239.703 249.584 245.504C289.645 227.266 328.287 208.505 368.342 190.618C375.151 187.583 383.177 187.162 390.699 185.877C402.195 183.911 413.741 182.314 425.254 180.417C428.669 179.855 430.667 180.388 431.99 184.13C453.823 246.121 452.606 307.421 424.016 366.807C390.021 439.75 314.108 491.224 232.04 482.585C143.399 473.582 73.6776 456.211 28.9467 372.117C-34.9956 263.384 13.616 109.862 136.209 69.5931C158.353 61.9265 180.255 53.042 203.194 47.9907C213.557 45.7816 224.21 44.9019 235.466 43.3365ZM258.766 48.2634C190.953 40.3824 122.556 72.9922 84.8661 129.233C2.87052 239.684 45.1982 412.517 173.753 465.448C348.465 535.805 493.545 345.859 428.375 183.474C367.366 212.028 306.937 240.304 245.191 269.207C249.758 194.79 254.246 121.793 258.766 48.2634ZM277.197 218.204C336.995 190.498 395.613 163.352 454.164 136.224C425.435 59.6149 353.804 8.53704 290.249 4.01694C285.928 75.0344 281.604 146.042 277.197 218.204ZM177.233 470.982C12.9319 404.402 -9.13339 166.3 141.31 71.3735C-60.886 134.511 -29.7067 447.386 177.233 470.982ZM238.446 43.8002C244.664 44.1483 250.45 44.7482 256.242 44.7078C260.964 44.676 261.928 46.5178 261.635 51.0117C258.111 108.094 254.097 164.948 251.174 222.086C257.612 221.329 263.351 220.497 269.121 220.04C272.942 219.738 274.379 218.267 274.618 214.219C278.56 144.368 283.457 74.547 287.098 4.6881C286.24 4.59267 285.874 4.44679 285.599 4.54596C271.04 9.80927 256.475 15.0532 241.969 20.4475C240.998 20.8128 239.891 22.2426 239.805 23.2636C239.211 30.0274 238.877 36.7986 238.446 43.8002ZM248.127 264.736C304.62 238.243 359.949 212.288 415.289 186.34C415.132 185.915 414.975 185.49 414.818 185.066C398.029 187.751 380.892 189.452 364.836 195.325C358.457 197.644 352.427 200.949 346.251 203.836C315.234 218.288 284.204 232.732 253.216 247.259C251.731 247.958 249.738 249.268 249.49 250.587C248.688 254.775 248.601 259.104 248.127 264.736Z" fill="#0075FF"/>
</svg>
