<svg width="742" height="712" viewBox="0 0 742 712" fill="none" xmlns="http://www.w3.org/2000/svg">
<g clip-path="url(#clip0_102_13870)">
<mask id="path-1-inside-1_102_13870" fill="white">
<path d="M615.978 186.334C625.437 199.793 634.961 213.211 644.339 226.724C660.783 250.424 664.311 275.996 654.993 303.273C651.905 312.314 646.594 320.301 641.989 328.593C635.867 339.617 629.492 350.501 623.093 361.364C615.441 374.348 607.66 387.26 599.91 400.19C594.192 409.726 588.483 419.262 582.672 428.739C574.4 442.23 566.052 455.675 557.717 469.126C551.742 478.761 545.924 488.503 539.686 497.965C533.364 507.549 525.027 514.961 514.435 519.726C503.609 524.599 492.842 524.637 481.966 519.906C478.315 518.313 474.361 519.18 470.561 519.197C443.063 519.34 415.568 519.635 388.072 519.825C386.934 519.835 386.044 520.021 385.102 520.637C377.692 525.428 369.85 529.242 361.394 531.924C347.345 536.379 333.351 536.354 319.266 532.358C318.955 532.271 318.637 532.173 318.374 532C310.877 527.086 305.107 532.149 299.175 535.484C290.473 540.371 281.566 544.853 272.557 549.138C260.945 554.661 249.1 559.615 236.848 563.498C217.198 569.725 197.308 574.355 176.459 571.07C166.86 569.555 159.044 565.519 152.642 557.588C140.834 542.961 128.072 529.106 115.739 514.898C113.059 511.814 110.427 508.676 107.987 505.407C105.762 502.429 106.282 498.82 106.61 495.471C107.688 484.442 112.231 474.563 117.421 464.985C122.062 456.422 127.583 448.403 133.319 440.536C133.741 439.961 134.733 439.209 133.683 438.761C128.822 436.682 128.031 432.117 126.769 427.848C123.947 418.32 121.159 408.781 118.424 399.227C117.732 396.807 117.631 394.372 119.415 392.265C120.578 390.886 119.764 389.591 119.204 388.362C115.878 381.049 112.932 373.607 110.765 365.845C103.817 340.926 105.853 317.269 119.343 294.673C129.22 278.131 142.093 264.195 155.182 250.337C167.318 237.486 180.489 225.817 194.75 215.378C212.481 202.403 231.691 192.619 253.101 187.109C277.131 180.933 301.556 178.901 326.236 179.153C363.681 179.536 400.449 185.274 436.849 193.683C437.988 193.949 439.199 194.086 440.234 194.578C445.668 197.161 449.866 195.319 454.572 192.007C470.924 180.51 487.684 169.588 504.187 158.309C510.036 154.315 515.843 150.264 521.412 145.851C533.882 135.972 547.798 130.017 564.104 131.734C574.745 132.857 582.514 139.082 588.555 147.275C597.994 160.082 606.908 173.276 616.046 186.306C616.009 186.311 615.994 186.322 615.978 186.334ZM517.073 513.502C500.135 515.895 486.306 511.735 476.233 498.747C451.052 466.286 426.222 433.548 401.18 400.981C396.648 395.088 392.197 389.173 389.339 382.249C384.018 367.856 385.394 361.631 384.639 356.315C384.302 353.956 386.189 356.355 387.752 356.06C389.41 355.741 389.247 364.866 389.364 365.825C390.591 375.713 393.968 384.874 399.95 392.745C426.367 427.51 452.947 462.159 479.61 496.736C483.696 502.036 489.216 505.75 495.676 507.954C511.563 513.367 530.09 506.895 538.861 491.54C543.733 483.003 549.329 474.878 554.566 466.541C562.871 453.316 571.201 440.113 579.4 426.823C586.42 415.444 593.338 404.006 600.171 392.511C608.473 378.549 616.705 364.55 624.835 350.492C631.092 339.666 637.097 328.691 643.303 317.831C649.232 307.467 653.868 296.68 655.223 284.675C657.322 266.035 653.696 248.74 643.366 232.965C633.815 218.389 623.454 204.378 613.528 190.065C604.155 176.548 594.753 163.045 585.193 149.656C578.653 140.504 569.459 137.28 558.49 138.677C549.468 139.826 543.457 145.456 538.415 152.424C530.011 164.034 522.53 176.245 514.952 188.392C508.83 198.205 502.054 207.559 495.045 216.734C485.814 228.815 476.286 240.667 466.158 252.021C459.666 259.304 453.102 266.536 446.396 273.625C439.25 281.19 431.838 288.503 424.654 296.04C418.139 302.869 411.818 309.866 405.668 317.033C399.404 324.328 394.188 332.13 391.381 341.443C389.919 346.294 389.352 351.241 388.975 356.245C388.916 357.006 388.695 358.606 387.939 357.885C386.661 356.652 384.157 356.27 384.386 353.672C385.362 342.404 388.832 331.973 395.31 322.709C401.398 313.996 408.687 306.257 415.927 298.507C423.178 290.74 430.487 283.026 437.966 275.483C444.766 268.622 451.41 261.622 457.839 254.427C463.199 248.435 468.244 242.171 473.484 236.075C483.952 223.892 493.836 211.221 502.911 197.992C511.978 184.786 520.285 171.055 529.125 157.689C533.014 151.815 536.837 145.813 542.405 141.27C543.989 139.975 545.654 138.773 547.523 137.34C546.55 137.322 545.857 137.129 545.307 137.323C537.798 140.011 530.424 143.141 524.457 148.51C513.206 158.642 502.599 169.468 492.319 180.572C483.871 189.695 475.649 199.027 467.558 208.478C455.716 222.307 444.283 236.457 433.206 250.903C422.991 264.234 413.061 277.769 403.537 291.61C397.661 300.153 391.869 308.753 386.068 317.352C377.019 330.773 372.163 345.306 372.886 361.645C373.577 377.253 378.895 391.048 388.349 403.365C407.017 427.678 425.544 452.091 444.412 476.251C453.119 487.392 460.268 499.841 471.561 508.862C481.132 516.505 491.625 521.033 504.117 518.917C508.491 518.143 512.748 516.759 517.073 513.502ZM195.777 497.352C207.343 491.206 234.325 477.296 245.248 470.936C247.647 469.537 247.648 468.308 246.273 466.427C244.808 464.42 243.651 462.241 242.745 459.935C241.576 456.945 240.006 454.132 239.199 450.978C238.648 448.815 237.704 447.742 235.367 449.817C231.91 452.88 228.252 455.715 225.06 459.071C224.472 459.693 223.847 460.342 223.109 460.737C221.822 461.423 220.112 460.984 219.594 460.097C218.747 458.64 220.573 458.615 221.434 458.264C222.627 457.773 223.44 456.946 223.814 455.79C224.451 453.831 225.87 452.573 227.385 451.347C229.896 449.318 232.322 447.19 234.86 445.197C236.427 443.964 236.751 442.52 236.295 440.651C234.468 433.132 233.663 425.513 234.392 417.785C234.532 416.27 234.21 415.086 233.258 413.938C229.209 409.057 225.233 404.112 221.158 399.25C214.874 391.749 208.495 384.336 202.247 376.807C199.838 373.896 199.772 370.223 201.899 367.301C202.843 366.009 204.085 364.935 205.139 363.721C207.431 361.079 206.467 357.932 203.029 357.233C192.259 355.038 181.453 353.009 170.692 350.774C168.663 350.353 167.23 350.817 165.726 352.091C161.867 355.373 158.578 359.218 154.959 362.739C144.654 372.781 134.349 382.823 124.016 392.838C122.235 394.567 121.685 396.428 122.41 398.88C125.567 409.526 128.55 420.232 131.736 430.872C133.108 435.454 136.634 436.119 139.879 432.608C143.504 428.692 148.724 428.725 152.187 432.641C163.572 445.526 174.967 458.404 186.368 471.278C188.986 474.24 189.456 478.896 187.025 481.929C185.541 483.781 184.419 485.86 182.902 487.657C181.345 489.509 181.223 491.472 182.782 493.156C184.397 494.893 186.492 494.613 188.333 493.324C190.53 491.788 192.654 490.168 194.378 488.035C198.887 482.45 203.488 476.933 208.046 471.391C208.584 470.735 227.404 451.308 228.403 451.762C229.414 452.223 229.848 451.208 229.9 451.859C230.187 455.81 207.587 478.304 205.454 480.889C201.1 486.177 197.143 491.835 191.482 495.928C186.896 499.247 184.014 499.252 179.66 495.702C178.904 495.086 178.234 494.477 177.597 495.567C175.764 498.703 173.662 501.72 172.161 505.862C181.433 502.961 189.631 499.379 197.844 495.817C198.831 495.386 200.026 493.869 200.848 495.207C201.473 496.224 201.017 497.996 200 499.044C199.355 499.709 198.404 500.144 197.513 500.478C191.599 502.7 185.86 505.333 179.896 507.448C161.122 514.108 142.254 519.711 121.554 514.922C122.786 516.531 123.682 517.828 124.704 519.012C135.162 531.145 145.93 543.024 155.998 555.464C161.295 562.006 167.799 565.38 175.721 566.871C192.276 569.984 208.435 567.318 224.318 562.985C246.507 556.943 267.373 547.581 287.766 536.997C304.763 528.178 320.982 518.109 337.314 508.188C340.708 506.124 340.705 506.11 338.243 503.119C324.094 485.937 309.95 468.75 295.8 451.576C294.773 450.331 293.647 449.169 292.629 447.925C291.662 446.748 290.799 446.523 289.376 447.467C277.192 455.534 265.062 463.681 252.511 471.184C241.634 477.689 206.09 495.523 194.908 501.481C192.172 502.96 198.675 498.546 195.777 497.352ZM453.229 197.417C456.178 200.003 456.252 200.174 454.015 203.1C451.287 206.669 448.395 210.121 445.654 213.684C435.395 226.991 425.17 240.33 414.924 253.643C413.373 255.661 411.695 256.792 408.865 255.57C406.249 254.437 403.319 254.072 400.59 253.163C399.007 252.635 397.983 252.965 396.969 254.23C393.759 258.242 390.466 262.188 387.231 266.179C380.959 273.919 374.737 281.703 368.427 289.415C358.867 301.097 349.223 312.713 339.671 324.406C333.299 332.207 327.065 340.113 320.697 347.919C310.747 360.111 300.777 372.287 290.753 384.414C280.454 396.882 280.143 415.778 289.742 427.796C294.24 433.423 298.675 439.106 303.282 444.641C321.846 466.928 340.56 489.092 358.983 511.504C361.822 514.954 364.608 516.096 368.979 516.04C398.596 515.639 428.214 515.547 457.83 515.334C462.553 515.301 467.279 515.2 472.587 515.125C467.87 510.74 463.128 507.405 459.577 502.76C433.986 469.264 408.217 435.897 382.764 402.295C374.015 390.747 369.605 377.289 368.743 362.869C367.575 343.456 374.396 326.458 385.392 310.846C394.5 297.916 403.389 284.838 412.556 271.953C418.76 263.232 425.091 254.593 431.691 246.178C440.882 234.47 450.309 222.954 459.763 211.451C465.002 205.079 470.384 198.809 475.905 192.677C483.992 183.709 492.258 174.911 500.448 166.035C500.355 165.903 500.266 165.776 500.173 165.644C484.56 176.217 468.938 186.788 453.229 197.417ZM175.946 254.403C166.306 262.236 158.656 271.552 155.093 283.697C148.602 305.815 153.911 326.527 162.838 346.784C163.327 347.889 163.94 348.444 165.011 347.688C167.378 346.013 169.848 346.543 172.4 347.051C182.545 349.066 192.706 351.028 202.865 352.976C205.514 353.483 207.796 354.531 209.093 357.009C210.184 359.091 211.067 358.716 212.605 357.285C230.012 341.095 248.263 325.892 267.185 311.532C283.877 298.865 301.042 286.859 318.998 275.98C330.202 269.192 341.582 262.781 353.214 256.763C357.864 254.355 363.587 253.336 366.192 247.568C367.227 245.279 367.283 244.781 364.87 244.272C351.409 241.432 337.896 238.924 324.25 237.136C283.211 231.776 242.4 231.372 202.084 242.522C192.747 245.115 183.664 248.221 175.946 254.403ZM150.745 260.801C152.33 260.928 153.167 259.962 154.144 259.392C158.037 257.109 161.784 254.562 165.781 252.5C178.089 246.143 190.983 241.19 204.377 237.716C229.912 231.095 255.946 228.903 282.263 229.649C312.671 230.512 342.563 235.169 372.195 241.79C384.47 244.538 396.578 247.895 408.675 251.333C409.829 251.661 410.979 252.324 412.11 250.84C418.374 242.569 424.743 234.372 431.078 226.152C436.636 218.943 442.142 211.7 447.775 204.547C450.269 201.384 450.309 201.329 446.456 200.322C416.208 192.409 385.533 186.921 354.367 184.452C325.487 182.166 296.719 182.55 268.062 187.792C241.391 192.675 217.453 203.333 195.764 219.439C183.308 228.69 171.802 239.01 160.892 250.002C157.471 253.453 153.763 256.676 150.745 260.801ZM357.336 260.053C352.97 261.357 349.207 263.386 345.395 265.339C332.186 272.11 319.536 279.844 307.203 288.025C290.016 299.429 273.165 311.357 257.158 324.418C249.83 330.398 242.629 336.533 235.299 342.499C225.29 350.647 215.983 359.551 206.47 368.238C203.737 370.73 203.725 372.56 206.119 375.441C215.121 386.267 224.631 396.663 233.323 407.742C233.673 408.189 233.924 409.046 234.741 408.68C235.244 408.457 235.243 407.84 235.338 407.296C239.284 385.452 250.979 367.898 266.823 353.182C280.348 340.616 294.958 329.243 308.187 316.302C315.4 309.248 322.415 302.011 329.193 294.549C334.944 288.208 340.449 281.632 345.883 275.006C349.854 270.15 353.53 265.049 357.336 260.053ZM180.027 470.292C175.992 465.684 171.853 461.173 167.913 456.476C161.901 449.319 155.258 442.718 149.372 435.439C147.447 433.053 145.222 433.067 142.99 435.151C141.897 436.176 140.766 437.204 139.881 438.395C132.973 447.639 126.238 457.002 120.727 467.168C116.027 475.825 111.888 484.736 110.606 494.628C110.07 498.746 109.614 503.063 113.709 505.999C117.564 508.76 121.721 510.843 126.422 511.802C139.815 514.532 152.644 511.425 165.469 508.152C166.345 507.927 166.905 507.353 167.291 506.488C170.983 498.171 175.849 490.548 180.996 483.069C185.486 476.547 185.381 476.473 180.027 470.292ZM165.363 257.536C163.758 258.603 162.206 259.76 160.54 260.727C149.958 266.884 140.675 274.63 132.517 283.718C122.87 294.459 115.947 306.698 112.815 320.902C107.807 343.608 112.847 364.86 122.251 385.474C123.029 387.179 123.589 387.433 125.206 386.031C129.848 382.02 133.928 377.446 138.325 373.2C145.266 366.491 152.069 359.636 158.994 352.908C160.168 351.765 160.309 350.941 159.589 349.387C153.746 336.816 149.472 323.758 148.447 309.836C147.438 296.147 149.435 283.04 156.288 270.879C158.925 266.184 162.442 262.18 165.363 257.536ZM394.099 251.461C392.736 251.083 391.808 250.9 390.945 250.569C388.671 249.702 387.015 249.727 385.197 252.022C380.818 257.564 375.951 262.724 371.363 268.101C361.486 279.677 351.663 291.292 341.81 302.89C331.967 314.488 322.106 326.076 312.275 337.69C299.813 352.408 287.377 367.148 274.927 381.881C269.676 388.1 263.996 394.013 259.278 400.619C251.335 411.738 252.303 425.841 261.092 436.325C265.095 441.104 269.304 445.716 273.276 450.518C274.562 452.069 275.56 452.004 277.045 450.971C280.318 448.707 283.699 446.605 286.983 444.365C292.006 440.948 292.126 440.807 296.046 445.689C306.486 458.69 317.223 471.43 328.03 484.124C333.468 490.51 338.291 497.399 344.033 503.536C346.054 505.695 345.871 507.282 343.288 508.887C341.087 510.248 339.133 512.006 336.9 513.717C342.824 515.91 348.831 516.249 354.928 516.058C355.691 516.034 356.588 516.282 356.861 515.471C356.996 515.075 356.412 514.344 356.022 513.878C351.972 509.006 348.05 504.036 343.96 499.186C324.874 476.599 306.03 453.819 287.177 431.038C285.277 428.738 283.504 426.17 282.37 423.437C276.205 408.6 277.648 394.536 287.761 381.878C299.329 367.405 311.251 353.213 322.953 338.841C331.274 328.629 339.433 318.28 347.753 308.068C359.524 293.626 371.388 279.252 383.2 264.844C386.773 260.489 390.328 256.099 394.099 251.461ZM265.159 458.811C271.451 454.323 271.487 454.295 268.021 450.228C264.256 445.812 260.107 441.682 256.662 437.037C249.39 427.227 247.869 416.499 252.3 404.934C255.512 396.554 262.184 390.767 267.611 384.089C276.047 373.698 284.97 363.699 293.636 353.491C300.713 345.158 307.679 336.732 314.747 328.397C323.617 317.935 332.555 307.542 341.436 297.095C346.435 291.217 351.355 285.276 356.371 279.409C364.722 269.629 373.109 259.885 381.496 250.142C382.361 249.138 382.363 248.397 381.008 248.061C378.418 247.419 375.778 246.955 373.205 246.26C371.947 245.923 371.464 246.577 370.893 247.413C367.449 252.434 364.129 257.555 360.482 262.43C355.03 269.713 349.54 276.976 343.705 283.951C335.996 293.158 327.932 302.06 319.494 310.623C312.779 317.435 305.883 324.043 298.918 330.591C287.175 341.621 273.93 350.956 262.971 362.881C253.581 373.099 246.251 384.488 241.9 397.716C237.106 412.298 236.928 427.069 240.568 441.856C242.591 450.078 245.506 458.031 250.165 465.226C251.051 466.595 251.664 466.906 253.163 465.977C257.805 463.071 262.566 460.35 265.159 458.811ZM377.272 519.84C372.19 519.945 367.101 520.072 362.019 520.145C352.337 520.295 342.603 520.916 333.401 516.853C332.401 516.408 331.37 516.515 330.341 517.157C325.695 520.058 321.008 522.885 316.343 525.752C315.946 525.999 315.798 526.389 315.963 527.06C337.483 534.733 357.876 531.757 377.272 519.84Z"/>
</mask>
<path d="M615.978 186.334C625.437 199.793 634.961 213.211 644.339 226.724C660.783 250.424 664.311 275.996 654.993 303.273C651.905 312.314 646.594 320.301 641.989 328.593C635.867 339.617 629.492 350.501 623.093 361.364C615.441 374.348 607.66 387.26 599.91 400.19C594.192 409.726 588.483 419.262 582.672 428.739C574.4 442.23 566.052 455.675 557.717 469.126C551.742 478.761 545.924 488.503 539.686 497.965C533.364 507.549 525.027 514.961 514.435 519.726C503.609 524.599 492.842 524.637 481.966 519.906C478.315 518.313 474.361 519.18 470.561 519.197C443.063 519.34 415.568 519.635 388.072 519.825C386.934 519.835 386.044 520.021 385.102 520.637C377.692 525.428 369.85 529.242 361.394 531.924C347.345 536.379 333.351 536.354 319.266 532.358C318.955 532.271 318.637 532.173 318.374 532C310.877 527.086 305.107 532.149 299.175 535.484C290.473 540.371 281.566 544.853 272.557 549.138C260.945 554.661 249.1 559.615 236.848 563.498C217.198 569.725 197.308 574.355 176.459 571.07C166.86 569.555 159.044 565.519 152.642 557.588C140.834 542.961 128.072 529.106 115.739 514.898C113.059 511.814 110.427 508.676 107.987 505.407C105.762 502.429 106.282 498.82 106.61 495.471C107.688 484.442 112.231 474.563 117.421 464.985C122.062 456.422 127.583 448.403 133.319 440.536C133.741 439.961 134.733 439.209 133.683 438.761C128.822 436.682 128.031 432.117 126.769 427.848C123.947 418.32 121.159 408.781 118.424 399.227C117.732 396.807 117.631 394.372 119.415 392.265C120.578 390.886 119.764 389.591 119.204 388.362C115.878 381.049 112.932 373.607 110.765 365.845C103.817 340.926 105.853 317.269 119.343 294.673C129.22 278.131 142.093 264.195 155.182 250.337C167.318 237.486 180.489 225.817 194.75 215.378C212.481 202.403 231.691 192.619 253.101 187.109C277.131 180.933 301.556 178.901 326.236 179.153C363.681 179.536 400.449 185.274 436.849 193.683C437.988 193.949 439.199 194.086 440.234 194.578C445.668 197.161 449.866 195.319 454.572 192.007C470.924 180.51 487.684 169.588 504.187 158.309C510.036 154.315 515.843 150.264 521.412 145.851C533.882 135.972 547.798 130.017 564.104 131.734C574.745 132.857 582.514 139.082 588.555 147.275C597.994 160.082 606.908 173.276 616.046 186.306C616.009 186.311 615.994 186.322 615.978 186.334ZM517.073 513.502C500.135 515.895 486.306 511.735 476.233 498.747C451.052 466.286 426.222 433.548 401.18 400.981C396.648 395.088 392.197 389.173 389.339 382.249C384.018 367.856 385.394 361.631 384.639 356.315C384.302 353.956 386.189 356.355 387.752 356.06C389.41 355.741 389.247 364.866 389.364 365.825C390.591 375.713 393.968 384.874 399.95 392.745C426.367 427.51 452.947 462.159 479.61 496.736C483.696 502.036 489.216 505.75 495.676 507.954C511.563 513.367 530.09 506.895 538.861 491.54C543.733 483.003 549.329 474.878 554.566 466.541C562.871 453.316 571.201 440.113 579.4 426.823C586.42 415.444 593.338 404.006 600.171 392.511C608.473 378.549 616.705 364.55 624.835 350.492C631.092 339.666 637.097 328.691 643.303 317.831C649.232 307.467 653.868 296.68 655.223 284.675C657.322 266.035 653.696 248.74 643.366 232.965C633.815 218.389 623.454 204.378 613.528 190.065C604.155 176.548 594.753 163.045 585.193 149.656C578.653 140.504 569.459 137.28 558.49 138.677C549.468 139.826 543.457 145.456 538.415 152.424C530.011 164.034 522.53 176.245 514.952 188.392C508.83 198.205 502.054 207.559 495.045 216.734C485.814 228.815 476.286 240.667 466.158 252.021C459.666 259.304 453.102 266.536 446.396 273.625C439.25 281.19 431.838 288.503 424.654 296.04C418.139 302.869 411.818 309.866 405.668 317.033C399.404 324.328 394.188 332.13 391.381 341.443C389.919 346.294 389.352 351.241 388.975 356.245C388.916 357.006 388.695 358.606 387.939 357.885C386.661 356.652 384.157 356.27 384.386 353.672C385.362 342.404 388.832 331.973 395.31 322.709C401.398 313.996 408.687 306.257 415.927 298.507C423.178 290.74 430.487 283.026 437.966 275.483C444.766 268.622 451.41 261.622 457.839 254.427C463.199 248.435 468.244 242.171 473.484 236.075C483.952 223.892 493.836 211.221 502.911 197.992C511.978 184.786 520.285 171.055 529.125 157.689C533.014 151.815 536.837 145.813 542.405 141.27C543.989 139.975 545.654 138.773 547.523 137.34C546.55 137.322 545.857 137.129 545.307 137.323C537.798 140.011 530.424 143.141 524.457 148.51C513.206 158.642 502.599 169.468 492.319 180.572C483.871 189.695 475.649 199.027 467.558 208.478C455.716 222.307 444.283 236.457 433.206 250.903C422.991 264.234 413.061 277.769 403.537 291.61C397.661 300.153 391.869 308.753 386.068 317.352C377.019 330.773 372.163 345.306 372.886 361.645C373.577 377.253 378.895 391.048 388.349 403.365C407.017 427.678 425.544 452.091 444.412 476.251C453.119 487.392 460.268 499.841 471.561 508.862C481.132 516.505 491.625 521.033 504.117 518.917C508.491 518.143 512.748 516.759 517.073 513.502ZM195.777 497.352C207.343 491.206 234.325 477.296 245.248 470.936C247.647 469.537 247.648 468.308 246.273 466.427C244.808 464.42 243.651 462.241 242.745 459.935C241.576 456.945 240.006 454.132 239.199 450.978C238.648 448.815 237.704 447.742 235.367 449.817C231.91 452.88 228.252 455.715 225.06 459.071C224.472 459.693 223.847 460.342 223.109 460.737C221.822 461.423 220.112 460.984 219.594 460.097C218.747 458.64 220.573 458.615 221.434 458.264C222.627 457.773 223.44 456.946 223.814 455.79C224.451 453.831 225.87 452.573 227.385 451.347C229.896 449.318 232.322 447.19 234.86 445.197C236.427 443.964 236.751 442.52 236.295 440.651C234.468 433.132 233.663 425.513 234.392 417.785C234.532 416.27 234.21 415.086 233.258 413.938C229.209 409.057 225.233 404.112 221.158 399.25C214.874 391.749 208.495 384.336 202.247 376.807C199.838 373.896 199.772 370.223 201.899 367.301C202.843 366.009 204.085 364.935 205.139 363.721C207.431 361.079 206.467 357.932 203.029 357.233C192.259 355.038 181.453 353.009 170.692 350.774C168.663 350.353 167.23 350.817 165.726 352.091C161.867 355.373 158.578 359.218 154.959 362.739C144.654 372.781 134.349 382.823 124.016 392.838C122.235 394.567 121.685 396.428 122.41 398.88C125.567 409.526 128.55 420.232 131.736 430.872C133.108 435.454 136.634 436.119 139.879 432.608C143.504 428.692 148.724 428.725 152.187 432.641C163.572 445.526 174.967 458.404 186.368 471.278C188.986 474.24 189.456 478.896 187.025 481.929C185.541 483.781 184.419 485.86 182.902 487.657C181.345 489.509 181.223 491.472 182.782 493.156C184.397 494.893 186.492 494.613 188.333 493.324C190.53 491.788 192.654 490.168 194.378 488.035C198.887 482.45 203.488 476.933 208.046 471.391C208.584 470.735 227.404 451.308 228.403 451.762C229.414 452.223 229.848 451.208 229.9 451.859C230.187 455.81 207.587 478.304 205.454 480.889C201.1 486.177 197.143 491.835 191.482 495.928C186.896 499.247 184.014 499.252 179.66 495.702C178.904 495.086 178.234 494.477 177.597 495.567C175.764 498.703 173.662 501.72 172.161 505.862C181.433 502.961 189.631 499.379 197.844 495.817C198.831 495.386 200.026 493.869 200.848 495.207C201.473 496.224 201.017 497.996 200 499.044C199.355 499.709 198.404 500.144 197.513 500.478C191.599 502.7 185.86 505.333 179.896 507.448C161.122 514.108 142.254 519.711 121.554 514.922C122.786 516.531 123.682 517.828 124.704 519.012C135.162 531.145 145.93 543.024 155.998 555.464C161.295 562.006 167.799 565.38 175.721 566.871C192.276 569.984 208.435 567.318 224.318 562.985C246.507 556.943 267.373 547.581 287.766 536.997C304.763 528.178 320.982 518.109 337.314 508.188C340.708 506.124 340.705 506.11 338.243 503.119C324.094 485.937 309.95 468.75 295.8 451.576C294.773 450.331 293.647 449.169 292.629 447.925C291.662 446.748 290.799 446.523 289.376 447.467C277.192 455.534 265.062 463.681 252.511 471.184C241.634 477.689 206.09 495.523 194.908 501.481C192.172 502.96 198.675 498.546 195.777 497.352ZM453.229 197.417C456.178 200.003 456.252 200.174 454.015 203.1C451.287 206.669 448.395 210.121 445.654 213.684C435.395 226.991 425.17 240.33 414.924 253.643C413.373 255.661 411.695 256.792 408.865 255.57C406.249 254.437 403.319 254.072 400.59 253.163C399.007 252.635 397.983 252.965 396.969 254.23C393.759 258.242 390.466 262.188 387.231 266.179C380.959 273.919 374.737 281.703 368.427 289.415C358.867 301.097 349.223 312.713 339.671 324.406C333.299 332.207 327.065 340.113 320.697 347.919C310.747 360.111 300.777 372.287 290.753 384.414C280.454 396.882 280.143 415.778 289.742 427.796C294.24 433.423 298.675 439.106 303.282 444.641C321.846 466.928 340.56 489.092 358.983 511.504C361.822 514.954 364.608 516.096 368.979 516.04C398.596 515.639 428.214 515.547 457.83 515.334C462.553 515.301 467.279 515.2 472.587 515.125C467.87 510.74 463.128 507.405 459.577 502.76C433.986 469.264 408.217 435.897 382.764 402.295C374.015 390.747 369.605 377.289 368.743 362.869C367.575 343.456 374.396 326.458 385.392 310.846C394.5 297.916 403.389 284.838 412.556 271.953C418.76 263.232 425.091 254.593 431.691 246.178C440.882 234.47 450.309 222.954 459.763 211.451C465.002 205.079 470.384 198.809 475.905 192.677C483.992 183.709 492.258 174.911 500.448 166.035C500.355 165.903 500.266 165.776 500.173 165.644C484.56 176.217 468.938 186.788 453.229 197.417ZM175.946 254.403C166.306 262.236 158.656 271.552 155.093 283.697C148.602 305.815 153.911 326.527 162.838 346.784C163.327 347.889 163.94 348.444 165.011 347.688C167.378 346.013 169.848 346.543 172.4 347.051C182.545 349.066 192.706 351.028 202.865 352.976C205.514 353.483 207.796 354.531 209.093 357.009C210.184 359.091 211.067 358.716 212.605 357.285C230.012 341.095 248.263 325.892 267.185 311.532C283.877 298.865 301.042 286.859 318.998 275.98C330.202 269.192 341.582 262.781 353.214 256.763C357.864 254.355 363.587 253.336 366.192 247.568C367.227 245.279 367.283 244.781 364.87 244.272C351.409 241.432 337.896 238.924 324.25 237.136C283.211 231.776 242.4 231.372 202.084 242.522C192.747 245.115 183.664 248.221 175.946 254.403ZM150.745 260.801C152.33 260.928 153.167 259.962 154.144 259.392C158.037 257.109 161.784 254.562 165.781 252.5C178.089 246.143 190.983 241.19 204.377 237.716C229.912 231.095 255.946 228.903 282.263 229.649C312.671 230.512 342.563 235.169 372.195 241.79C384.47 244.538 396.578 247.895 408.675 251.333C409.829 251.661 410.979 252.324 412.11 250.84C418.374 242.569 424.743 234.372 431.078 226.152C436.636 218.943 442.142 211.7 447.775 204.547C450.269 201.384 450.309 201.329 446.456 200.322C416.208 192.409 385.533 186.921 354.367 184.452C325.487 182.166 296.719 182.55 268.062 187.792C241.391 192.675 217.453 203.333 195.764 219.439C183.308 228.69 171.802 239.01 160.892 250.002C157.471 253.453 153.763 256.676 150.745 260.801ZM357.336 260.053C352.97 261.357 349.207 263.386 345.395 265.339C332.186 272.11 319.536 279.844 307.203 288.025C290.016 299.429 273.165 311.357 257.158 324.418C249.83 330.398 242.629 336.533 235.299 342.499C225.29 350.647 215.983 359.551 206.47 368.238C203.737 370.73 203.725 372.56 206.119 375.441C215.121 386.267 224.631 396.663 233.323 407.742C233.673 408.189 233.924 409.046 234.741 408.68C235.244 408.457 235.243 407.84 235.338 407.296C239.284 385.452 250.979 367.898 266.823 353.182C280.348 340.616 294.958 329.243 308.187 316.302C315.4 309.248 322.415 302.011 329.193 294.549C334.944 288.208 340.449 281.632 345.883 275.006C349.854 270.15 353.53 265.049 357.336 260.053ZM180.027 470.292C175.992 465.684 171.853 461.173 167.913 456.476C161.901 449.319 155.258 442.718 149.372 435.439C147.447 433.053 145.222 433.067 142.99 435.151C141.897 436.176 140.766 437.204 139.881 438.395C132.973 447.639 126.238 457.002 120.727 467.168C116.027 475.825 111.888 484.736 110.606 494.628C110.07 498.746 109.614 503.063 113.709 505.999C117.564 508.76 121.721 510.843 126.422 511.802C139.815 514.532 152.644 511.425 165.469 508.152C166.345 507.927 166.905 507.353 167.291 506.488C170.983 498.171 175.849 490.548 180.996 483.069C185.486 476.547 185.381 476.473 180.027 470.292ZM165.363 257.536C163.758 258.603 162.206 259.76 160.54 260.727C149.958 266.884 140.675 274.63 132.517 283.718C122.87 294.459 115.947 306.698 112.815 320.902C107.807 343.608 112.847 364.86 122.251 385.474C123.029 387.179 123.589 387.433 125.206 386.031C129.848 382.02 133.928 377.446 138.325 373.2C145.266 366.491 152.069 359.636 158.994 352.908C160.168 351.765 160.309 350.941 159.589 349.387C153.746 336.816 149.472 323.758 148.447 309.836C147.438 296.147 149.435 283.04 156.288 270.879C158.925 266.184 162.442 262.18 165.363 257.536ZM394.099 251.461C392.736 251.083 391.808 250.9 390.945 250.569C388.671 249.702 387.015 249.727 385.197 252.022C380.818 257.564 375.951 262.724 371.363 268.101C361.486 279.677 351.663 291.292 341.81 302.89C331.967 314.488 322.106 326.076 312.275 337.69C299.813 352.408 287.377 367.148 274.927 381.881C269.676 388.1 263.996 394.013 259.278 400.619C251.335 411.738 252.303 425.841 261.092 436.325C265.095 441.104 269.304 445.716 273.276 450.518C274.562 452.069 275.56 452.004 277.045 450.971C280.318 448.707 283.699 446.605 286.983 444.365C292.006 440.948 292.126 440.807 296.046 445.689C306.486 458.69 317.223 471.43 328.03 484.124C333.468 490.51 338.291 497.399 344.033 503.536C346.054 505.695 345.871 507.282 343.288 508.887C341.087 510.248 339.133 512.006 336.9 513.717C342.824 515.91 348.831 516.249 354.928 516.058C355.691 516.034 356.588 516.282 356.861 515.471C356.996 515.075 356.412 514.344 356.022 513.878C351.972 509.006 348.05 504.036 343.96 499.186C324.874 476.599 306.03 453.819 287.177 431.038C285.277 428.738 283.504 426.17 282.37 423.437C276.205 408.6 277.648 394.536 287.761 381.878C299.329 367.405 311.251 353.213 322.953 338.841C331.274 328.629 339.433 318.28 347.753 308.068C359.524 293.626 371.388 279.252 383.2 264.844C386.773 260.489 390.328 256.099 394.099 251.461ZM265.159 458.811C271.451 454.323 271.487 454.295 268.021 450.228C264.256 445.812 260.107 441.682 256.662 437.037C249.39 427.227 247.869 416.499 252.3 404.934C255.512 396.554 262.184 390.767 267.611 384.089C276.047 373.698 284.97 363.699 293.636 353.491C300.713 345.158 307.679 336.732 314.747 328.397C323.617 317.935 332.555 307.542 341.436 297.095C346.435 291.217 351.355 285.276 356.371 279.409C364.722 269.629 373.109 259.885 381.496 250.142C382.361 249.138 382.363 248.397 381.008 248.061C378.418 247.419 375.778 246.955 373.205 246.26C371.947 245.923 371.464 246.577 370.893 247.413C367.449 252.434 364.129 257.555 360.482 262.43C355.03 269.713 349.54 276.976 343.705 283.951C335.996 293.158 327.932 302.06 319.494 310.623C312.779 317.435 305.883 324.043 298.918 330.591C287.175 341.621 273.93 350.956 262.971 362.881C253.581 373.099 246.251 384.488 241.9 397.716C237.106 412.298 236.928 427.069 240.568 441.856C242.591 450.078 245.506 458.031 250.165 465.226C251.051 466.595 251.664 466.906 253.163 465.977C257.805 463.071 262.566 460.35 265.159 458.811ZM377.272 519.84C372.19 519.945 367.101 520.072 362.019 520.145C352.337 520.295 342.603 520.916 333.401 516.853C332.401 516.408 331.37 516.515 330.341 517.157C325.695 520.058 321.008 522.885 316.343 525.752C315.946 525.999 315.798 526.389 315.963 527.06C337.483 534.733 357.876 531.757 377.272 519.84Z" fill="#0075FF" stroke="#181818" stroke-width="2" mask="url(#path-1-inside-1_102_13870)"/>
</g>
<defs>
<clipPath id="clip0_102_13870">
<rect width="599.296" height="437.651" fill="white" transform="translate(0 364.487) rotate(-37.4589)"/>
</clipPath>
</defs>
</svg>
