<svg width="686" height="542" viewBox="0 0 686 542" fill="none" xmlns="http://www.w3.org/2000/svg">
<g clip-path="url(#clip0_102_17598)">
<path d="M140.42 401.591C136.558 386.941 135.188 371.997 134.524 356.976C133.318 329.64 134.31 302.334 136.51 275.089C138.211 254.06 140.654 233.092 142.256 212.058C143.091 201.116 147.476 191.729 152.743 182.507C153.291 181.547 154.009 180.547 154.141 179.504C154.935 173.205 158.813 168.632 162.711 164.116C163.933 162.701 164.579 161.304 164.834 159.473C166.434 147.849 168.028 136.232 171.307 124.901C173.588 117.022 178.672 112.402 186.332 110.399C190.936 109.194 194.943 109.766 197.916 114.502C201.778 120.658 205.819 126.706 209.947 132.685C212.205 135.957 212.339 135.809 216.131 134.555C220.676 133.052 225.239 131.617 229.808 130.185C235.2 128.497 240.559 129.061 245.897 130.497C259.208 134.078 255.777 133.766 267.881 130.379C314.214 117.405 360.522 104.323 406.864 91.378C410.752 90.2928 413.85 88.3743 416.622 85.5126C419.758 82.2742 422.98 79.0687 426.504 76.2777C431.062 72.6682 436.819 71.9289 442.304 70.6691C444.859 70.0815 447.438 69.561 450.026 69.132C451.378 68.9072 452.077 68.3956 452.135 66.9145C452.4 59.8521 452.744 52.796 453.053 45.7332C453.098 44.6854 453.164 43.6399 453.136 42.5924C452.994 37.7513 455.691 35.078 460.347 33.5032C468.625 30.7007 475.744 32.5451 482.169 38.6347C490.441 46.4719 497.698 55.1548 504.836 63.9692C505.996 65.4024 507.302 66.2464 509.061 66.8727C512.809 68.2123 516.424 69.9371 520.088 71.517C520.386 71.646 520.721 71.8016 520.912 72.0464C524.202 76.2969 529 78.4583 533.506 80.9388C542.08 85.6594 548.258 92.7185 553.907 100.496C568.463 120.529 583.419 140.279 597.768 160.461C612.123 180.654 625.463 201.525 637.028 223.476C643.617 235.984 649.347 248.852 652.702 262.646C655.313 273.388 656.994 284.228 656.243 295.363C655.376 308.2 650.61 319.539 643.374 329.961C641.207 333.083 638.899 336.121 636.467 339.043C630.939 345.675 623.954 349.979 615.229 350.321C610.579 350.503 605.707 350.057 601.238 348.814C591.144 346.006 581.236 342.519 571.252 339.316C561.571 336.213 551.954 332.89 542.191 330.063C528.901 326.218 515.37 325.825 501.688 327.864C486.53 330.121 471.698 333.76 456.969 337.864C424.344 346.96 391.685 355.951 359.132 365.305C343.819 369.704 328.622 374.575 313.537 379.712C294.054 386.349 277.65 397.593 264.601 413.684C255.262 425.2 245.738 436.568 236.092 447.823C231.311 453.402 225.866 458.394 219.289 461.852C213.121 465.091 206.385 465.754 199.758 464.042C186.834 460.7 174.971 455.002 164.97 445.99C156.897 438.714 151.274 429.629 147.124 419.672C144.658 413.737 142.639 407.62 140.42 401.591ZM152.871 187.937C152.764 187.922 152.654 187.908 152.547 187.893C152.378 188.166 152.2 188.433 152.046 188.713C148 196.021 145.365 203.676 144.667 212.137C142.975 232.644 140.67 253.098 138.981 273.604C136.703 301.24 135.75 328.932 136.889 356.658C137.646 375.065 139.799 393.243 146.123 410.727C149.263 419.406 153.104 427.728 158.525 435.192C169.126 449.784 184.198 457.493 201.18 461.866C207.77 463.564 214.309 462.315 220.102 458.718C225.581 455.316 230.332 450.953 234.497 446.005C244.001 434.712 253.586 423.487 262.941 412.072C276.254 395.83 292.744 384.152 312.624 377.482C327.923 372.349 343.289 367.382 358.794 362.924C390.588 353.78 422.493 345.018 454.355 336.12C469.905 331.776 485.537 327.827 501.539 325.443C513.136 323.716 524.753 323.428 536.098 326.322C548.092 329.385 559.879 333.28 571.701 336.985C580.962 339.888 590.044 343.402 599.39 345.97C604.49 347.371 609.978 347.87 615.291 347.865C622.06 347.856 627.907 344.788 632.465 339.824C642.599 328.78 650.531 316.477 653.095 301.354C654.951 290.391 653.813 279.55 651.648 268.748C648.491 253.024 642.277 238.463 634.828 224.385C622.366 200.828 607.829 178.551 592.405 156.871C579.117 138.191 565.323 119.866 551.691 101.434C547.993 96.4304 544.338 91.3333 539.193 87.6453C536.18 85.4854 533.027 83.5121 529.941 81.4584C530.75 83.3299 531.836 84.792 532.871 86.289C533.789 87.6183 534.546 89.0747 533.694 90.6725C532.832 92.2898 531.224 92.7419 529.506 92.7422C527.081 92.7489 524.65 92.5731 522.236 92.6874C508.563 93.3324 494.899 94.0775 481.229 94.7176C468.164 95.3267 455.282 96.8623 442.622 100.438C373.767 119.897 304.879 139.238 235.985 158.557C227.171 161.027 218.625 164.101 210.553 168.425C195.659 176.409 180.776 184.419 165.917 192.472C163.385 193.843 161.065 195.604 158.529 196.971C154.794 198.983 152.252 197.321 152.504 193.167C152.612 191.426 152.748 189.682 152.871 187.937ZM531.667 89.7778C531.461 89.0461 531.456 88.4585 531.168 88.0894C527.988 84.0125 524.788 79.9534 521.515 75.9518C521.216 75.5859 520.374 75.4709 519.816 75.5378C515.925 76.0057 512.054 76.7464 508.152 77.0417C489.677 78.4316 471.087 78.4954 452.769 81.7108C446.453 82.8199 439.898 83.5748 434.4 87.1457C428.207 91.1661 422.224 95.5568 416.404 100.106C412.836 102.898 408.883 104.627 404.649 105.822C362.139 117.815 319.594 129.684 277.112 141.776C269.354 143.986 261.739 145.002 253.674 143.837C247.487 142.946 241.115 142.459 234.897 142.87C226.638 143.416 218.973 146.815 211.615 150.374C198.939 156.499 186.542 163.209 173.98 169.576C168.619 172.295 163.121 174.745 157.714 177.37C157.279 177.582 156.817 178.182 156.758 178.653C156.103 183.645 155.462 188.64 154.96 193.65C154.792 195.322 155.536 195.714 157.121 195.051C157.597 194.852 158.024 194.523 158.467 194.248C161.476 192.391 164.404 190.381 167.511 188.697C180.173 181.823 192.876 175.023 205.594 168.252C213.412 164.086 221.405 160.267 229.966 157.856C301.353 137.755 372.748 117.684 444.149 97.632C447.618 96.6565 451.115 95.6199 454.673 95.1474C462.717 94.0844 470.785 93.0227 478.876 92.5642C495.477 91.6237 512.098 91.0906 528.708 90.3562C529.655 90.3191 530.592 89.9984 531.667 89.7778ZM260.343 135.089C261.056 135.997 261.619 136.776 262.247 137.495C263.536 138.982 264.627 141.204 266.238 141.692C267.942 142.211 270.183 141.188 272.136 140.639C315.99 128.333 359.836 116 403.68 103.656C405.318 103.195 406.918 102.585 408.496 101.941C408.963 101.753 409.575 101.253 409.628 100.829C409.963 98.2517 410.159 95.6599 410.418 92.8867C360.353 106.968 310.484 120.99 260.343 135.089ZM474.761 45.6683C476.607 51.5071 478.566 57.9361 477.961 64.4399C486.317 64.635 494.452 64.8271 502.574 65.0185C502.576 65.1571 502.622 65.0009 502.566 64.9309C495.312 56.0548 488.054 47.1961 479.553 39.4277C473.925 34.2839 467.699 33.4896 460.764 35.8897C457.229 37.1128 455.639 39.1555 455.558 42.8525C455.432 48.4152 455.483 53.9814 455.308 59.5418C455.218 62.3943 454.793 65.2344 454.529 67.9925C461.627 66.9543 468.599 65.9388 476.102 64.8438C475.635 58.2041 475.18 51.6386 474.761 45.6683ZM167.076 159.342C174.184 154.761 181.042 150.341 188.004 145.855C183.913 140.324 182.217 133.478 180.895 128.15C183.191 132.418 186.219 137.978 189.172 143.575C189.987 145.122 190.928 145.078 192.337 144.412C196.538 142.416 200.779 140.504 205.034 138.624C206.602 137.93 208.252 137.412 209.927 136.79C207.975 134.156 206.153 131.837 204.489 129.412C202.824 126.984 201.322 124.448 199.733 121.97C198.144 119.491 196.671 116.914 194.877 114.596C194.117 113.611 192.735 112.768 191.509 112.54C186.099 111.549 177.881 115.381 175.773 120.487C173.662 125.593 172.133 131.011 170.98 136.428C169.369 144.025 168.343 151.743 167.076 159.342ZM158.176 174.241C158.285 174.378 158.396 174.514 158.505 174.652C159.592 174.211 160.721 173.861 161.755 173.32C170.107 168.943 178.402 164.454 186.789 160.144C198.322 154.218 209.683 147.958 221.988 143.611C229.618 140.917 237.263 139.529 245.321 140.552C249.479 141.081 253.661 141.448 257.83 141.867C259.4 142.023 260.972 142.129 263.04 142.296C261.144 139.933 259.61 137.983 258.019 136.078C257.754 135.763 257.289 135.534 256.873 135.438C253.118 134.539 249.354 133.682 245.592 132.801C239.757 131.43 233.891 130.927 228.146 133.005C218.471 136.503 208.739 139.886 199.255 143.858C187.996 148.574 177.183 154.209 167.92 162.373C164.03 165.811 160.819 169.799 158.176 174.241ZM518.271 73.6686C518.319 73.3442 518.367 73.0198 518.415 72.6954C514.176 71.2564 510.032 69.3941 505.686 68.46C495.269 66.2177 484.675 66.3161 474.183 67.74C463.471 69.1932 452.831 71.1909 442.184 73.1086C435.057 74.3924 428.326 76.6738 423.081 82.0598C420.519 84.6909 418.217 87.6661 415.314 89.8407C411.521 92.6787 412.954 96.5351 412.242 100.012C416.608 96.9886 420.599 93.6775 424.874 90.7777C429.189 87.85 433.505 84.5743 438.317 82.7999C446.625 79.7358 455.458 78.3688 464.308 77.6972C479.658 76.5312 495.029 75.5969 510.391 74.5261C513.026 74.3375 515.648 73.9563 518.271 73.6686Z" fill="#0075FF"/>
<path d="M197.671 266.172C192.265 246.638 205.124 226.935 224.811 223.437C245.791 219.711 268.229 237.839 263.954 263.336C263.738 264.62 263.728 265.936 263.61 267.234C261.462 290.737 237.388 302.567 218.701 292.638C213.694 289.979 209.71 286.403 206.646 281.675C204.417 278.231 201.92 274.952 199.768 271.462C198.792 269.867 198.354 267.944 197.671 266.172ZM240.368 292.646C253.8 289.823 264.813 273.552 260.062 257.585C255.672 242.847 240.519 234.195 225.938 237.837C209.055 242.052 201.681 259.288 205.411 272.788C209.704 288.319 226.39 297.313 240.368 292.646ZM202.64 271.825C199.108 255.581 209.556 239.35 225.759 235.453C241.317 231.708 256.768 241.156 261.643 254.87C262.179 247.261 256.987 234.761 244.652 228.668C231.937 222.387 215.799 225.394 206.574 236.081C197.869 246.171 196.293 260.5 202.64 271.825Z" fill="#0075FF"/>
<path d="M466.688 313.439C453.955 317.032 439.892 311.719 432.601 300.631C430.344 297.199 427.523 294.081 425.661 290.456C416.057 271.755 426.446 248.794 446.564 242.757C462.193 238.068 480.376 246.612 486.761 260.646C489.867 267.473 490.815 274.554 489.542 281.945C489.364 282.969 489.281 284.015 489.23 285.056C488.596 298.356 479.494 309.826 466.688 313.439ZM450.806 256.661C435.469 260.961 426.934 276.097 431.075 291.303C435.621 307.994 452.598 314.606 465.126 311.534C479.976 307.89 490.23 292.381 485.841 276.493C481.509 260.797 466.423 252.282 450.806 256.661ZM428.454 290.64C425.1 275.059 434.444 259.498 448.474 254.788C464.913 249.27 481.727 258.371 487.291 272.951C487.599 264.367 481.542 252.11 468.815 246.426C456.056 240.73 440.471 244.339 431.594 255.3C422.89 266.049 422.492 280.014 428.454 290.64Z" fill="#0075FF"/>
<path d="M326.338 355.796C312.603 359.375 297.504 356.404 284.446 345.003C271.056 333.31 267.68 313.009 276.128 297.361C280.688 288.915 286.685 281.796 295.349 277.437C311.823 269.151 328.445 268.11 344.74 277.84C365.352 290.148 370.439 316.519 356.238 336.383C349.488 345.817 340.404 351.881 326.338 355.796ZM306.264 275.599C293.953 278.729 284.427 286.714 278.08 298.731C269.737 314.534 274.433 334.959 288.599 345.529C311.253 362.435 342.42 353.827 355.549 333.262C367.326 314.817 362.195 290.995 343.563 279.897C332.165 273.103 319.988 271.572 306.264 275.599Z" fill="#0075FF"/>
<path d="M497.322 161.075C487.466 163.871 476.98 158.256 474.365 148.783C471.555 138.601 476.976 128.501 486.74 125.727C496.965 122.819 507.014 128.508 509.883 138.842C512.443 148.064 506.586 158.969 497.322 161.075ZM496.31 158.905C504.542 157.143 509.89 147.873 507.595 139.292C505.241 130.483 496.45 125.599 487.642 128.063C478.876 130.515 474.22 139.115 476.756 148.177C479.066 156.422 487.894 161.263 496.31 158.905Z" fill="#0075FF"/>
<path d="M541.258 183.093C532.912 186.111 521.341 180.973 518.35 170.19C515.731 160.743 521.501 150.181 530.771 147.575C541.005 144.697 551.307 150.224 554.171 160.032C557.244 170.538 550.337 181.248 541.258 183.093ZM540.737 180.776C549.677 178.259 554.447 169.672 551.892 160.685C549.389 151.885 540.723 147.231 531.609 149.798C523.242 152.155 518.233 161.058 520.587 169.385C523.18 178.549 531.646 183.337 540.737 180.776Z" fill="#0075FF"/>
<path d="M503.879 192.646C513.869 189.832 523.991 195.39 526.768 205.222C529.608 215.266 523.879 225.477 513.813 228.311C504.052 231.064 493.727 225.121 490.97 215.169C488.267 205.398 493.976 195.434 503.879 192.646ZM504.612 194.89C495.577 197.431 490.804 205.937 493.363 214.934C495.799 223.512 504.545 228.454 513.064 226.067C521.988 223.566 527.021 214.794 524.55 206.05C522.043 197.177 513.496 192.392 504.612 194.89Z" fill="#0075FF"/>
<path d="M460.032 170.591C469.702 167.905 479.78 173.7 482.581 183.223C485.766 194.057 477.86 204.295 469.346 206.378C459.665 208.748 449.506 203.103 446.781 193.281C444.15 183.792 449.802 172.973 460.032 170.591ZM460.429 172.918C451.533 175.419 446.598 183.914 449.024 192.556C451.507 201.403 460.034 206.116 468.68 204.127C477.112 202.189 482.959 192.265 480.293 183.788C477.647 175.368 469.059 170.492 460.429 172.918Z" fill="#0075FF"/>
<path d="M372.673 246.718C370.845 247.232 369.018 247.746 367.19 248.259C362.324 249.624 357.671 247.319 356.31 242.874C354.886 238.214 357.362 233.647 362.276 232.163C366.537 230.875 370.818 229.63 375.151 228.625C379.215 227.682 383.344 230.232 384.602 234.125C385.923 238.226 384.046 242.959 380.203 244.498C377.788 245.468 375.182 245.963 372.66 246.672C372.665 246.687 372.669 246.703 372.673 246.718ZM372.031 244.448C373.919 243.917 375.812 243.389 377.699 242.854C381.42 241.795 383.388 238.697 382.483 235.335C381.548 231.879 378.43 230.145 374.64 231.129C370.713 232.151 366.81 233.257 362.927 234.435C359.398 235.505 357.58 238.761 358.539 242.039C359.488 245.282 362.843 247.002 366.361 246.038C368.252 245.518 370.141 244.975 372.031 244.448Z" fill="#0075FF"/>
<path d="M406.18 218.353C399.527 220.244 392.663 216.406 390.777 209.743C388.937 203.244 392.761 196.661 399.224 194.619C406.15 192.431 412.913 196.928 414.619 202.863C416.545 209.568 412.78 216.477 406.18 218.353ZM400.173 196.844C394.244 197.963 391.667 204.571 393.032 209.105C394.652 214.504 400.074 217.607 405.499 216.077C410.913 214.551 413.917 209.243 412.436 203.829C410.861 198.069 405.916 195.254 400.173 196.844Z" fill="#0075FF"/>
<path d="M323.095 216.067C329.646 214.249 336.46 218.012 338.224 224.43C340.081 231.179 336.259 238.047 329.644 239.853C322.904 241.695 316.359 238.004 314.405 231.332C312.699 225.511 315.926 217.534 323.095 216.067ZM323.639 218.364C318.158 219.901 315.139 225.038 316.596 230.352C318.206 236.221 323.37 239.163 329.21 237.537C334.56 236.049 337.556 230.596 335.998 225.171C334.467 219.828 329.05 216.847 323.639 218.364Z" fill="#0075FF"/>
<path d="M215.996 280.225C212.207 276.196 210.856 271.331 211.662 265.859C212.905 257.417 219.713 250.274 228.513 248.057C237.859 245.704 246.967 248.527 252.142 255.598C255.111 259.652 256.327 264.237 255.14 269.345C254.832 258.659 248.964 252.384 239.074 250.112C230.593 248.164 223.055 250.909 217.727 257.804C212.319 264.791 211.32 271.237 215.996 280.225Z" fill="#0075FF"/>
<path d="M480.92 287.602C480.355 271.825 465.034 265.966 454.449 268.746C444.909 271.252 433.389 284.225 441.253 298.252C439.098 296.191 437.922 293.563 437.429 290.691C435.912 281.834 439.446 274.977 446.498 269.963C456.021 263.19 469.275 264.52 476.677 272.716C480.006 276.403 481.38 280.812 481.209 285.733C481.189 286.36 481.02 286.981 480.92 287.602Z" fill="#0075FF"/>
<path d="M328.815 296.654C335.897 295.386 342.73 294.181 349.562 292.939C352.236 292.453 352.747 292.772 354.236 295.013C358.773 301.834 360.11 309.342 359.279 317.357C358.953 320.518 358.089 321.374 354.958 321.968C349.038 323.089 343.129 324.28 336.928 325.495C337.159 326.314 337.346 326.981 337.535 327.653C338.779 332.077 340.053 336.49 341.259 340.925C341.942 343.442 341.346 344.595 339.147 345.741C332.248 349.33 324.933 351.415 317.182 352.02C314.116 352.26 313.047 351.575 312.197 348.581C310.999 344.348 309.813 340.116 308.622 335.88C308.43 335.198 308.239 334.519 307.994 333.647C303.711 335.22 299.657 336.707 295.605 338.203C293.696 338.907 291.801 339.645 289.895 340.348C288.403 340.903 287.06 340.712 285.953 339.481C280.073 332.947 277.373 325.205 277.173 316.493C277.125 314.342 278.094 313.19 280.109 312.439C286.621 310.019 293.08 307.438 299.76 304.844C299.612 304.157 299.506 303.475 299.321 302.815C297.871 297.63 296.407 292.453 294.953 287.268C294.073 284.137 294.44 283.215 297.3 281.719C304.315 278.045 311.8 276.043 319.696 275.574C322.082 275.43 323.035 276.128 323.692 278.435C325.384 284.424 327.063 290.424 328.815 296.654ZM334.337 323.92C332.001 315.609 329.702 307.434 327.364 299.119C326.652 299.279 326.021 299.391 325.402 299.565C318.268 301.562 311.15 303.617 303.999 305.542C302.284 306.004 301.826 306.66 302.351 308.427C304.362 315.214 306.301 322.025 308.092 328.874C308.619 330.894 309.452 331.106 311.27 330.57C318.378 328.481 325.521 326.526 332.651 324.513C333.198 324.363 333.728 324.141 334.337 323.92ZM335.966 323.106C336.27 323.123 336.468 323.174 336.65 323.139C342.83 321.937 349.004 320.7 355.194 319.549C356.567 319.294 356.787 318.434 356.901 317.326C357.676 309.793 356.466 302.711 352.279 296.258C351.635 295.265 350.987 295.055 349.849 295.272C345.02 296.2 340.17 297.008 335.33 297.882C333.297 298.249 331.275 298.666 329.207 299.068C331.509 307.254 333.738 315.182 335.966 323.106ZM300.31 307.234C299.55 307.501 298.937 307.693 298.336 307.928C293.941 309.642 289.563 311.401 285.155 313.07C279.305 315.284 279.198 315.269 280.016 321.422C280.809 327.401 283.184 332.747 287.215 337.276C287.64 337.754 288.663 338.207 289.177 338.026C295.149 335.897 301.075 333.645 307.107 331.393C304.838 323.341 302.61 315.416 300.31 307.234ZM326.59 297.472C324.815 291.158 323.147 285.097 321.347 279.074C321.194 278.56 320.114 277.964 319.504 278.005C311.966 278.496 304.809 280.381 298.111 283.975C296.959 284.593 296.819 285.246 297.123 286.311C298.074 289.652 299.003 292.999 299.944 296.343C300.683 298.975 301.422 301.602 302.19 304.332C310.41 302.021 318.388 299.778 326.59 297.472ZM310.144 332.621C311.66 338.013 313.126 343.181 314.562 348.362C314.904 349.592 315.714 349.708 316.819 349.638C324.323 349.144 331.394 347.124 338.003 343.563C338.521 343.282 339.1 342.269 338.969 341.774C337.58 336.457 336.054 331.174 334.533 325.764C326.377 328.057 318.391 330.302 310.144 332.621Z" fill="#0075FF"/>
<path d="M346.101 150.744C355.771 148.057 365.849 153.852 368.65 163.375C371.835 174.209 363.929 184.447 355.415 186.53C345.734 188.901 335.575 183.255 332.85 173.433C330.219 163.944 335.871 153.125 346.101 150.744ZM346.498 153.07C337.602 155.572 332.667 164.066 335.093 172.708C337.576 181.555 346.103 186.268 354.749 184.279C363.181 182.342 369.028 172.417 366.362 163.941C363.712 155.521 355.128 150.644 346.498 153.07Z" fill="#0075FF"/>
</g>
<defs>
<clipPath id="clip0_102_17598">
<rect width="600.926" height="393.781" fill="white" transform="translate(0.4375 162.66) rotate(-15.7049)"/>
</clipPath>
</defs>
</svg>
