<svg width="24" height="25" viewBox="0 0 24 25" fill="none" xmlns="http://www.w3.org/2000/svg"><path d="M17.6633 11.6939C18.5451 10.9214 19.1302 9.79844 19.1302 8.52394C19.1302 6.22018 17.2462 4.30269 14.8995 4.30269H11.3044V2.46354C11.3044 2.04766 10.9548 1.7 10.5397 1.7C10.1246 1.7 9.77504 2.04766 9.77504 2.46354V4.30269H7.93072H7.07256H4.46466C4.04954 4.30269 3.7 4.65035 3.7 5.06623C3.7 5.48211 4.04954 5.82977 4.46466 5.82977H6.30898V12.0182V18.2067H4.46466C4.04954 18.2067 3.7 18.5543 3.7 18.9702C3.7 19.3861 4.04954 19.7337 4.46466 19.7337H7.07363H9.81169V21.5729C9.81169 21.9888 10.1612 22.3364 10.5763 22.3364C10.9915 22.3364 11.341 21.9888 11.341 21.5729V19.7337H15.7943C18.1019 19.7337 20.025 17.8553 20.025 15.5125H20.0251L20.025 15.5062C19.9897 13.8259 19.0295 12.3878 17.6633 11.6939ZM7.96629 5.7932H14.8995C16.414 5.7932 17.6365 7.01455 17.6365 8.52394C17.6365 10.0333 16.414 11.2547 14.8995 11.2547H7.83829V5.7932H7.96629ZM15.7576 18.1701H7.83829V12.7452H14.9006H15.7587C17.2732 12.7452 18.4956 13.9664 18.4957 15.4757C18.4947 16.9474 17.2746 18.1701 15.7576 18.1701Z" stroke-width="0.6"></path></svg>