<svg width="41" height="41" viewBox="0 0 41 41" fill="none" xmlns="http://www.w3.org/2000/svg">
<path fill-rule="evenodd" clip-rule="evenodd" d="M20.5 40C31.2696 40 40 31.2696 40 20.5C40 9.73045 31.2696 1 20.5 1C9.73045 1 1 9.73045 1 20.5C1 31.2696 9.73045 40 20.5 40ZM20.5 41C31.8218 41 41 31.8218 41 20.5C41 9.17816 31.8218 0 20.5 0C9.17816 0 0 9.17816 0 20.5C0 31.8218 9.17816 41 20.5 41Z" fill="white"/>
<g clip-path="url(#clip0_3031_1714)">
<path d="M23.5995 29.2031C23.357 29.2031 23.1145 29.1138 22.9231 28.9224C22.553 28.5522 22.553 27.9396 22.9231 27.5695L29.9937 20.4989L22.9231 13.4283C22.553 13.0582 22.553 12.4456 22.9231 12.0754C23.2932 11.7053 23.9058 11.7053 24.276 12.0754L32.023 19.8225C32.3931 20.1926 32.3931 20.8052 32.023 21.1753L24.276 28.9224C24.0845 29.1138 23.842 29.2031 23.5995 29.2031Z" fill="white"/>
<path d="M31.1309 21.4554H9.65106C9.12778 21.4554 8.69385 21.0215 8.69385 20.4982C8.69385 19.975 9.12778 19.541 9.65106 19.541H31.1309C31.6542 19.541 32.0881 19.975 32.0881 20.4982C32.0881 21.0215 31.6542 21.4554 31.1309 21.4554Z" fill="white"/>
</g>
<defs>
<clipPath id="clip0_3031_1714">
<rect width="25" height="19" fill="white" transform="translate(8 11)"/>
</clipPath>
</defs>
</svg>