<svg width="95" height="102" viewBox="0 0 95 102" fill="none" xmlns="http://www.w3.org/2000/svg">
<path d="M84.3281 101.121H23.4214C21.9793 101.121 20.5806 100.836 19.2641 100.272C17.9934 99.728 16.853 98.9521 15.8724 97.9625C14.8966 96.9729 14.1263 95.8233 13.5893 94.5424C13.035 93.2157 12.7539 91.8101 12.7539 90.3588V87.3316C12.7539 86.486 13.4384 85.798 14.2875 85.798C15.1331 85.798 15.821 86.4825 15.821 87.3316V90.3588C15.821 94.6018 19.232 98.0552 23.4259 98.0552H84.3326C88.5264 98.0552 91.9374 94.6018 91.9374 90.3588L91.9363 28.8319C91.9363 24.5889 88.5253 21.1355 84.3314 21.1355H81.2095C80.3638 21.1355 79.6759 20.451 79.6759 19.6019C79.6759 18.7528 80.3604 18.0684 81.2095 18.0684H84.3314C85.7736 18.0684 87.1723 18.3529 88.4887 18.9174C89.7594 19.4613 90.8999 20.2372 91.8804 21.2268C92.8598 22.2165 93.6265 23.366 94.1636 24.6469C94.7178 25.9737 94.9989 27.3792 94.9989 28.8305L95.0001 90.3604C95.0001 91.8116 94.7178 93.2172 94.1647 94.544C93.6277 95.825 92.8609 96.9746 91.8816 97.964C90.9022 98.9536 89.7618 99.7296 88.4899 100.274C87.1654 100.836 85.7667 101.12 84.3279 101.12L84.3281 101.121Z" fill="#0075FF"/>
<path d="M25.3025 19.9178C23.0445 19.9178 20.9247 19.0402 19.3295 17.4438C17.7342 15.8486 16.8555 13.7289 16.8555 11.4708V8.44708C16.8555 6.18903 17.7331 4.06922 19.3295 2.47401C20.9247 0.878759 23.0444 0 25.3025 0C27.5607 0 29.6804 0.877619 31.2756 2.47401C32.8709 4.06925 33.7496 6.18897 33.7496 8.44708V11.4708C33.7496 13.7288 32.872 15.8486 31.2756 17.4438C29.6792 19.0402 27.556 19.9178 25.3025 19.9178ZM25.3025 3.06377C22.3339 3.06377 19.9192 5.47836 19.9192 8.44708V11.4708C19.9192 14.4395 22.3338 16.8541 25.3025 16.8541C28.2712 16.8541 30.6859 14.4395 30.6859 11.4708V8.44708C30.6847 5.47927 28.2701 3.06377 25.3025 3.06377Z" fill="#0075FF"/>
<path d="M55.9461 19.9178C53.688 19.9178 51.5682 19.0402 49.973 17.4438C48.3778 15.8486 47.499 13.7289 47.499 11.4708V8.44708C47.499 6.18903 48.3766 4.06922 49.973 2.47401C51.5683 0.878759 53.688 0 55.9461 0C58.2042 0 60.324 0.877619 61.9192 2.47401C63.5144 4.06925 64.3932 6.18897 64.3932 8.44708V11.4708C64.3932 13.7288 63.5156 15.8486 61.9192 17.4438C60.3228 19.0402 58.203 19.9178 55.9461 19.9178ZM55.9461 3.06377C52.9774 3.06377 50.5628 5.47836 50.5628 8.44708V11.4708C50.5628 14.4395 52.9774 16.8541 55.9461 16.8541C58.9148 16.8541 61.3294 14.4395 61.3294 11.4708V8.44708C61.3283 5.47927 58.9137 3.06377 55.9461 3.06377Z" fill="#0075FF"/>
<path d="M49.0302 9.19039H32.1761C31.3305 9.19039 30.6426 8.50591 30.6426 7.65684C30.6426 6.80781 31.3271 6.12329 32.1761 6.12329H49.0302C49.8758 6.12329 50.5638 6.80778 50.5638 7.65684C50.5638 8.50588 49.8758 9.19039 49.0302 9.19039Z" fill="#0075FF"/>
<path d="M72.012 88.8635H10.725C9.2772 88.8635 7.87506 88.579 6.5505 88.0213C5.27292 87.4808 4.12561 86.7072 3.143 85.7244C2.16024 84.7417 1.38662 83.5944 0.846095 82.3169C0.286146 80.9937 0.00390625 79.5881 0.00390625 78.1424L0.00504898 16.8495C0.00504898 15.4017 0.289588 13.9996 0.847238 12.675C1.38776 11.3974 2.16139 10.2501 3.14414 9.2675C4.1269 8.28475 5.27763 7.51113 6.55164 6.9706C7.87491 6.41065 9.28048 6.12841 10.7262 6.12841H18.3872C19.2328 6.12841 19.9208 6.81289 19.9208 7.66196C19.9208 8.50757 19.2363 9.19551 18.3872 9.19551H10.7262C6.5025 9.19551 3.06516 12.6329 3.06516 16.8565V78.1377C3.06516 82.3614 6.5025 85.7987 10.7262 85.7987H72.0132C76.2369 85.7987 79.6742 82.3614 79.6742 78.1377L79.6731 16.8507C79.6731 12.627 76.2357 9.18966 72.012 9.18966H62.8187C61.9731 9.18966 61.2852 8.50517 61.2852 7.65611C61.2852 6.81049 61.9696 6.12256 62.8187 6.12256H72.012C73.4599 6.12256 74.862 6.4071 76.1866 6.96475C77.4642 7.50528 78.6115 8.2789 79.5941 9.26166C80.5767 10.2444 81.3505 11.3917 81.891 12.6692C82.4509 13.9924 82.7332 15.398 82.7332 16.8437V78.1395C82.7332 79.5873 82.4486 80.9895 81.891 82.314C81.3505 83.5916 80.5768 84.7389 79.5941 85.7215C78.6113 86.7041 77.4641 87.4779 76.1866 88.0184C74.8633 88.5784 73.4612 88.864 72.012 88.864V88.8635Z" fill="#0075FF"/>
<path d="M81.2067 27.6731H1.53355C0.687937 27.6731 0 26.9886 0 26.1395C0 25.2904 0.684485 24.606 1.53355 24.606H81.2067C82.0523 24.606 82.7402 25.2904 82.7402 26.1395C82.7402 26.9886 82.0512 27.6731 81.2067 27.6731Z" fill="#0075FF"/>
<path d="M34.9273 72.0103C34.0006 72.0103 33.027 71.8366 32.1196 71.5052C31.0969 71.135 30.2067 70.5807 29.5473 69.9031C29.5439 69.8997 29.5405 69.8962 29.537 69.8928L20.2808 60.368C17.7645 57.7763 17.7645 53.7174 20.2808 51.1255C20.9527 50.4341 21.7458 49.9005 22.6394 49.536C23.4976 49.1852 24.4049 49.008 25.3362 49.008C26.2699 49.008 27.1772 49.1851 28.0331 49.536C28.9279 49.8994 29.7209 50.4364 30.3917 51.1255L34.5891 55.4472L52.1643 37.3577C52.8362 36.6664 53.6292 36.1327 54.5229 35.7682C55.3776 35.4174 56.2884 35.2402 57.2231 35.2402C58.1567 35.2402 59.0641 35.4174 59.9234 35.7682C60.8182 36.1316 61.6112 36.6686 62.282 37.3577C63.4979 38.609 64.2281 40.2145 64.3366 41.8795C64.4543 43.6587 63.8418 45.3329 62.6203 46.5944L40.3633 69.8445C40.2878 69.9302 40.2033 70.0045 40.1107 70.0742C38.2332 71.4135 36.6333 72.01 34.9272 72.01L34.9273 72.0103ZM31.722 67.748C31.7254 67.7514 31.7288 67.7548 31.7322 67.7583C32.4133 68.4599 33.724 68.9479 34.9274 68.9479C35.9398 68.9479 36.9294 68.565 38.2105 67.6634L60.4116 44.473C60.4151 44.4695 60.4185 44.4661 60.4185 44.4627C61.8801 42.9588 61.3361 40.7796 60.0848 39.4918C59.3409 38.7251 58.325 38.3023 57.2246 38.3023C56.1241 38.3023 55.1082 38.7251 54.3643 39.4918L35.6886 58.7114C35.4006 59.0096 35.0041 59.1765 34.5905 59.1765C34.1779 59.1765 33.7814 59.0096 33.4923 58.7114L28.1947 53.2593C27.4508 52.4926 26.4349 52.0698 25.3344 52.0698C24.234 52.0698 23.2181 52.4926 22.4742 53.2593C21.0984 54.6775 21.0984 56.8143 22.4742 58.2302L31.722 67.748Z" fill="#0075FF"/>
</svg>
