<svg width="119" height="105" viewBox="0 0 119 105" fill="none" xmlns="http://www.w3.org/2000/svg">
<path d="M118.935 22.8367C118.935 19.9832 116.598 17.6599 113.723 17.6599H78.4302V7.64524C78.4302 3.42935 74.9763 0 70.7325 0H48.2642C44.0204 0 40.5665 3.42935 40.5665 7.64524V17.6599H5.2787C2.40452 17.6599 0.0667384 19.9812 0.0667384 22.8339L0 53.6515C0 54.1519 0.287068 54.6069 0.739599 54.8258C2.36322 55.6087 4.02616 56.3452 5.71823 57.0482V99.8232C5.71823 102.677 8.05493 105 10.9283 105H108.072C110.943 105 113.282 102.679 113.282 99.8232V56.4274C114.993 55.6609 116.67 54.8562 118.3 54.0015C118.731 53.7763 119 53.3313 119 52.8463L118.935 22.8367ZM43.1891 7.64524C43.1891 4.86526 45.4655 2.60375 48.2649 2.60375H70.7351C73.4878 2.60375 75.8108 4.91238 75.8108 7.64524V17.6599H43.1887L43.1891 7.64524ZM110.659 99.8238C110.659 101.217 109.474 102.397 108.071 102.397H10.9276C9.52523 102.397 8.33941 101.219 8.33941 99.8238V58.0625C20.3155 62.6743 33.8259 65.4099 48.6777 66.1427C48.6997 66.1436 48.7207 66.1454 48.7445 66.1454C48.8405 66.1454 48.9282 66.1127 49.0187 66.0919V70.9943C49.0187 72.8961 50.5756 74.4437 52.489 74.4437H66.5056C68.42 74.4437 69.9759 72.897 69.9759 70.9943V66.1146C85.18 65.3154 98.8044 62.4091 110.656 57.5169V99.8222L110.659 99.8238ZM51.6402 70.994V61.4444C51.6402 60.9767 52.0214 60.597 52.4894 60.597H66.5061C66.9677 60.597 67.3553 60.9849 67.3553 61.4444V70.994C67.3553 71.4527 66.9659 71.8386 66.5061 71.8386L52.4894 71.8395C52.0214 71.8395 51.6402 71.4608 51.6402 70.994ZM69.978 63.505V61.4443C69.978 59.5407 68.4211 57.9931 66.5077 57.9931L52.4895 57.9922C50.576 57.9922 49.0192 59.5407 49.0192 61.4434V63.5958C48.947 63.5804 48.883 63.5468 48.8098 63.5423C31.4145 62.6831 15.8811 59.0804 2.62532 52.832L2.68932 22.8351C2.68932 21.4156 3.85219 20.2622 5.28009 20.2622H113.725C115.154 20.2622 116.316 21.4156 116.316 22.8379L116.377 52.0606C103.394 58.7105 87.7896 62.5539 69.9795 63.5057L69.978 63.505Z" fill="#0075FF"/>
</svg>
