<svg width="114" height="102" viewBox="0 0 114 102" fill="none" xmlns="http://www.w3.org/2000/svg">
<path d="M111.186 33.7776H94.2967C93.5192 33.7776 92.8896 34.4081 92.8896 35.1856V99.9255C92.8896 100.703 93.5192 101.333 94.2967 101.333H111.186C111.963 101.333 112.593 100.703 112.593 99.9255V35.1856C112.593 34.4081 111.963 33.7776 111.186 33.7776ZM109.779 36.5927V98.5194H95.7038V36.5927H109.779Z" fill="#0075FF"/>
<path d="M80.2236 50.6663H63.3348C62.5572 50.6663 61.9268 51.2968 61.9268 52.0743V99.9253C61.9268 100.703 62.5573 101.332 63.3348 101.332H80.2236C81.0002 101.332 81.6307 100.703 81.6307 99.9253V52.0743C81.6307 51.2967 81.0002 50.6663 80.2236 50.6663ZM78.8156 53.4814V98.5192H64.7419V53.4814H78.8156Z" fill="#0075FF"/>
<path d="M49.2588 64.7419H32.37C31.5934 64.7419 30.9629 65.3715 30.9629 66.149V99.9268C30.9629 100.704 31.5934 101.334 32.37 101.334H49.2588C50.0364 101.334 50.6669 100.704 50.6669 99.9268V66.149C50.6669 65.3715 50.0364 64.7419 49.2588 64.7419ZM47.8518 67.5561V98.5206H33.778V67.5561H47.8518Z" fill="#0075FF"/>
<path d="M18.2969 75.9995H1.40806C0.630521 75.9995 0.000976562 76.63 0.000976562 77.4075V99.9257C0.000976562 100.703 0.630545 101.333 1.40806 101.333H18.2969C19.0745 101.333 19.704 100.703 19.704 99.9257V77.4075C19.704 76.63 19.0744 75.9995 18.2969 75.9995ZM16.8898 78.8146V98.5186H2.81514V78.8146H16.8898Z" fill="#0075FF"/>
<path d="M109.96 0.715771C110.343 0.039083 111.201 -0.199364 111.878 0.18329C112.555 0.564978 112.793 1.42356 112.41 2.10025C103.513 17.8431 84.9684 32.9441 63.9031 44.0353L61.3642 45.3472L58.8027 46.6195C39.5219 56.0054 18.6579 61.9259 1.40708 61.9259C0.629545 61.9259 0 61.2954 0 60.5188C0 59.7413 0.629569 59.1108 1.40708 59.1108C38.3937 59.1108 92.8699 30.9498 109.959 0.713914L109.96 0.715771Z" fill="#0075FF"/>
<path d="M111.048 0.0105599C111.734 -0.0733199 112.366 0.350797 112.564 0.987893L112.617 1.23669L113.99 12.4113C114.084 13.1832 113.535 13.8853 112.764 13.9796C112.078 14.0644 111.447 13.6403 111.249 13.0032L111.195 12.7544L109.994 2.97357L100.217 4.17709C99.5306 4.26097 98.9001 3.83685 98.7013 3.19976L98.6485 2.9519C98.5637 2.26578 98.9877 1.63435 99.6249 1.43644L99.8737 1.38272L111.048 0.0105599Z" fill="#0075FF"/>
</svg>
