<svg width="104" height="109" viewBox="0 0 104 109" fill="none" xmlns="http://www.w3.org/2000/svg">
<path d="M17.6949 69.1974H42.8516C43.5067 69.1974 44.0377 68.6664 44.0377 68.0113V22.2708C44.0377 21.6157 43.5068 21.0847 42.8516 21.0847H17.6949C17.0398 21.0847 16.5088 21.6157 16.5088 22.2708V68.0113C16.5088 68.6664 17.0397 69.1974 17.6949 69.1974ZM41.6658 23.4564V66.8251H18.8807V23.4564H41.6658Z" fill="#0075FF" stroke="#0075FF"/>
<path d="M89.2803 7.58016C88.9651 7.35588 88.563 7.30205 88.2027 7.42684L88.2011 7.42738L42.4607 23.4364L42.4606 23.4365C41.9853 23.6029 41.666 24.0516 41.666 24.5561V65.7235C41.666 66.228 41.9853 66.6767 42.4606 66.8432L42.4607 66.8432L88.2011 82.8522L88.2035 82.853C88.3279 82.8959 88.4596 82.9187 88.5925 82.9187H89.0791L88.5926 82.9178C88.761 82.9178 88.928 82.8819 89.082 82.812L89.0922 82.4365M89.2803 7.58016L88.9903 7.98752L89.2799 7.57991C89.28 7.57999 89.2801 7.58008 89.2803 7.58016ZM89.2803 7.58016C89.593 7.80248 89.7787 8.16357 89.7787 8.54703V81.7317C89.7787 82.1155 89.5926 82.4771 89.2782 82.6995L89.0922 82.4365M89.0922 82.4365L89.0923 82.4363L89.0894 82.4322L89.0888 82.4314H89.0886L89.0892 82.4322L89.0922 82.4365ZM87.4067 10.2198V80.0608L44.038 64.8819V25.3987L87.4067 10.2198Z" fill="#0075FF" stroke="#0075FF"/>
<path d="M87.4053 81.7319C87.4053 86.1698 91.0149 89.7792 95.4525 89.7792C99.8903 89.7792 103.5 86.1695 103.5 81.7319V8.54722C103.5 4.10938 99.8903 0.5 95.4525 0.5C91.0146 0.5 87.4053 4.1096 87.4053 8.54722V81.7319ZM89.7776 8.54827C89.7776 5.41923 92.3235 2.87336 95.4525 2.87336C98.5815 2.87336 101.127 5.41923 101.127 8.54827V81.733C101.127 84.862 98.5815 87.4079 95.4525 87.4079C92.3235 87.4079 89.7776 84.862 89.7776 81.733V8.54827Z" fill="#0075FF" stroke="#0075FF"/>
<path d="M17.6951 62.3348H18.1951V62.2243C18.6003 62.0357 18.8812 61.6249 18.8812 61.1484V26.8436C18.8812 26.1885 18.3502 25.6575 17.6951 25.6575H9.69058C4.62252 25.6575 0.5 29.7798 0.5 34.848V53.1442C0.5 58.2123 4.62229 62.3348 9.69058 62.3348H17.6951ZM2.87211 34.8485C2.87211 31.0888 5.9309 28.03 9.69058 28.03H16.5091V59.9631H9.69058C5.9309 59.9631 2.87211 56.9043 2.87211 53.1446V34.8485Z" fill="#0075FF" stroke="#0075FF"/>
<path d="M41.5072 87.494H45.1394C48.316 87.494 50.8995 84.9103 50.8995 81.7337C50.8995 78.5572 48.316 75.9736 45.1394 75.9736H39.8931C39.238 75.9736 38.707 76.5046 38.707 77.1597C38.707 77.8148 39.238 78.3458 39.8931 78.3458H45.1394C47.0074 78.3458 48.5274 79.8658 48.5274 81.7338C48.5274 83.6018 47.0074 85.1218 45.1394 85.1218H41.5072C40.852 85.1218 40.3211 85.6528 40.3211 86.3079C40.3211 86.963 40.852 87.494 41.5072 87.494Z" fill="#0075FF" stroke="#0075FF"/>
<path d="M38.5924 108.075H40.0513L39.8885 107.949C41.37 107.657 42.7189 106.868 43.7077 105.689C44.9799 104.174 45.5115 102.185 45.1681 100.237L45.1681 100.237L39.4449 67.8032L39.4448 67.8029C39.3446 67.2373 38.8535 66.8232 38.277 66.8232H22.2679C21.9168 66.8232 21.5853 66.979 21.3603 67.2462C21.1336 67.5154 21.0394 67.8712 21.1 68.2154L21.1 68.2155L27.1606 102.558C27.7247 105.754 30.4915 108.075 33.7373 108.075H38.5924ZM29.4966 102.146L23.6816 69.1953L37.2818 69.1955L42.8326 100.649C43.0544 101.906 42.7114 103.187 41.8908 104.165C41.0701 105.143 39.8685 105.703 38.5918 105.703H33.7367C31.6433 105.703 29.8603 104.207 29.4966 102.146Z" fill="#0075FF" stroke="#0075FF"/>
<path d="M26.8423 34.8905H33.7033C34.3584 34.8905 34.8894 34.3595 34.8894 33.7044C34.8894 33.0493 34.3585 32.5183 33.7033 32.5183H26.8423C26.1872 32.5183 25.6562 33.0493 25.6562 33.7044C25.6562 34.3595 26.1872 34.8905 26.8423 34.8905Z" fill="#0075FF" stroke="#0075FF"/>
<path d="M26.8423 46.3263H33.7033C34.3584 46.3263 34.8894 45.7953 34.8894 45.1402C34.8894 44.4851 34.3585 43.9541 33.7033 43.9541H26.8423C26.1872 43.9541 25.6562 44.4851 25.6562 45.1402C25.6562 45.7953 26.1872 46.3263 26.8423 46.3263Z" fill="#0075FF" stroke="#0075FF"/>
<path d="M26.8423 57.7618H33.7033C34.3584 57.7618 34.8894 57.2309 34.8894 56.5757C34.8894 55.9207 34.3585 55.3896 33.7033 55.3896H26.8423C26.1872 55.3896 25.6562 55.9206 25.6562 56.5757C25.6562 57.2309 26.1872 57.7618 26.8423 57.7618Z" fill="#0075FF" stroke="#0075FF"/>
</svg>
